<svg xmlns="http://www.w3.org/2000/svg" xmlns:xlink="http://www.w3.org/1999/xlink" width="502.69" height="326.79" viewBox="0 0 502.69 326.79">
  <defs>
    <clipPath id="clip-path" transform="translate(0 0)">
      <rect width="210.53" height="113.44" fill="none"/>
    </clipPath>
    <clipPath id="clip-path-2" transform="translate(0 0)">
      <rect x="210.53" width="292.15" height="40.64" fill="none"/>
    </clipPath>
    <clipPath id="clip-path-3" transform="translate(0 0)">
      <rect x="0.19" y="220.45" width="502.5" height="106.34" fill="none"/>
    </clipPath>
  </defs>
  <g id="Layer_2" data-name="Layer 2">
    <g id="Layer_1-2" data-name="Layer 1">
      <g>
        <g>
          <g opacity="0.7">
            <g clip-path="url(#clip-path)">
              <rect width="210.53" height="113.45" fill="#bf6b04"/>
            </g>
          </g>
          <g opacity="0.7">
            <g clip-path="url(#clip-path-2)">
              <rect x="210.53" width="292.15" height="40.64" fill="#bf6b04"/>
            </g>
          </g>
          <g opacity="0.3">
            <g clip-path="url(#clip-path-3)">
              <rect x="0.19" y="220.45" width="502.5" height="106.34" fill="#bf6b04"/>
            </g>
          </g>
        </g>
        <g>
          <path d="M32.44,95.82a4.62,4.62,0,0,1-1.3,3.32,4.77,4.77,0,0,1-3.39,1.12,4.36,4.36,0,0,1-3.52-1.43A6.1,6.1,0,0,1,23,94.76V92.61a6,6,0,0,1,1.26-4.07,4.48,4.48,0,0,1,3.52-1.43,4.53,4.53,0,0,1,3.37,1.17,5.15,5.15,0,0,1,1.3,3.36H29.72a3.37,3.37,0,0,0-.44-1.87,1.82,1.82,0,0,0-1.49-.51,1.69,1.69,0,0,0-1.55.72,4.8,4.8,0,0,0-.49,2.39v2.42a5.2,5.2,0,0,0,.46,2.62,1.68,1.68,0,0,0,1.54.71,1.85,1.85,0,0,0,1.49-.5,3.09,3.09,0,0,0,.47-1.8Z" transform="translate(0 0)" fill="#fff"/>
          <path d="M36.57,91.41a2.66,2.66,0,0,1,2.1-1,2.5,2.5,0,0,1,2.09.92A4.37,4.37,0,0,1,41.49,94v6H38.84v-6a2.1,2.1,0,0,0-.27-1.21,1,1,0,0,0-.89-.38,1.23,1.23,0,0,0-1.11.63v7H33.93V86.59h2.64Z" transform="translate(0 0)" fill="#fff"/>
          <path d="M48.16,100.09a3,3,0,0,1-.22-.74,2.3,2.3,0,0,1-1.92.91,2.93,2.93,0,0,1-2.1-.79,2.72,2.72,0,0,1-.83-2,2.8,2.8,0,0,1,1-2.31A4.6,4.6,0,0,1,47,94.28h.79v-.77a1.32,1.32,0,0,0-.23-.9.84.84,0,0,0-.68-.27c-.65,0-1,.37-1,1.09H43.27a2.68,2.68,0,0,1,1-2.17A4.06,4.06,0,0,1,47,90.4a3.71,3.71,0,0,1,2.56.81,3,3,0,0,1,.91,2.33V98a4.41,4.41,0,0,0,.37,1.93v.15ZM46.6,98.31a1.46,1.46,0,0,0,.75-.17,1.17,1.17,0,0,0,.45-.39v-2h-.63a1.38,1.38,0,0,0-1.05.41,1.49,1.49,0,0,0-.39,1.08Q45.73,98.31,46.6,98.31Z" transform="translate(0 0)" fill="#fff"/>
          <path d="M54.76,90.58l.07.94a2.84,2.84,0,0,1,2.34-1.12q2.59,0,2.67,3.44v6.25H57.19V94a2.07,2.07,0,0,0-.25-1.17,1,1,0,0,0-.9-.37,1.25,1.25,0,0,0-1.12.7v6.91H52.28V90.58Z" transform="translate(0 0)" fill="#fff"/>
          <path d="M61.41,95a5.69,5.69,0,0,1,.89-3.49,3,3,0,0,1,2.5-1.15,2.47,2.47,0,0,1,2.12,1l.1-.84h2.37v9.51a3.53,3.53,0,0,1-1.08,2.78,4.51,4.51,0,0,1-3.1,1,5.33,5.33,0,0,1-1.74-.31,3.27,3.27,0,0,1-1.36-.8L63,101a2.67,2.67,0,0,0,1,.6,3,3,0,0,0,1.12.24,1.74,1.74,0,0,0,1.27-.4,1.86,1.86,0,0,0,.4-1.29v-.82a2.41,2.41,0,0,1-2,.93,2.89,2.89,0,0,1-2.48-1.18,5.55,5.55,0,0,1-.9-3.34Zm2.63.63a3.93,3.93,0,0,0,.36,1.92,1.26,1.26,0,0,0,1.16.6,1.37,1.37,0,0,0,1.2-.56V93.09a1.36,1.36,0,0,0-1.18-.61,1.27,1.27,0,0,0-1.16.61A3.84,3.84,0,0,0,64,95Z" transform="translate(0 0)" fill="#fff"/>
          <path d="M75.37,100.26a4.27,4.27,0,0,1-3.16-1.14,4.43,4.43,0,0,1-1.14-3.27v-.76a5.18,5.18,0,0,1,1.05-3.47,3.71,3.71,0,0,1,3-1.22A3.5,3.5,0,0,1,78,91.55a5.27,5.27,0,0,1,1,3.39v1.22H73.7a2.54,2.54,0,0,0,.49,1.55,1.74,1.74,0,0,0,1.35.49,3.06,3.06,0,0,0,2.21-.86l1,1.51a3.35,3.35,0,0,1-1.41,1A5.06,5.06,0,0,1,75.37,100.26Zm-1.65-5.83h2.63V94.2a2.45,2.45,0,0,0-.3-1.29,1,1,0,0,0-1-.44,1.13,1.13,0,0,0-1,.46A3.09,3.09,0,0,0,73.72,94.43Z" transform="translate(0 0)" fill="#fff"/>
          <path d="M85.42,100.09V92.44H84.2V90.58h1.22v-.86a3.36,3.36,0,0,1,.88-2.44,3.22,3.22,0,0,1,2.41-.88,5.2,5.2,0,0,1,1.19.18l0,2a2.46,2.46,0,0,0-.64-.07c-.78,0-1.18.43-1.18,1.31v.78h1.58v1.86H88.06v7.65Z" transform="translate(0 0)" fill="#fff"/>
          <path d="M96,93l-.88-.07a1.44,1.44,0,0,0-1.46.89v6.29H91.05V90.58h2.48l.08,1a1.91,1.91,0,0,1,2.45-1.09Z" transform="translate(0 0)" fill="#fff"/>
          <path d="M96.75,95a5,5,0,0,1,1.08-3.39,4.26,4.26,0,0,1,6,0A5,5,0,0,1,104.9,95v.61A5,5,0,0,1,103.83,99a3.78,3.78,0,0,1-3,1.22,3.82,3.82,0,0,1-3-1.22,5,5,0,0,1-1.07-3.41Zm2.64.63q0,2.55,1.44,2.55c.89,0,1.37-.71,1.43-2.13V95a3.78,3.78,0,0,0-.38-1.93,1.2,1.2,0,0,0-1.08-.62,1.17,1.17,0,0,0-1,.62A3.78,3.78,0,0,0,99.39,95Z" transform="translate(0 0)" fill="#fff"/>
          <path d="M109,90.58l.07.88a2.89,2.89,0,0,1,2.34-1.06,2.2,2.2,0,0,1,2.13,1.28A2.81,2.81,0,0,1,116,90.4q2.65,0,2.71,3.46v6.23h-2.63V94a2.13,2.13,0,0,0-.24-1.17.92.92,0,0,0-.82-.36,1.18,1.18,0,0,0-1.1.86l0,.3v6.45h-2.63V94a2.21,2.21,0,0,0-.24-1.18.9.9,0,0,0-.82-.37,1.21,1.21,0,0,0-1.08.7v6.91h-2.64V90.58Z" transform="translate(0 0)" fill="#fff"/>
          <path d="M132.91,95.64a6.25,6.25,0,0,1-.78,3.47,2.75,2.75,0,0,1-2.46,1.15,2.47,2.47,0,0,1-2.1-1.11l-.08.94h-2.43V86.59h2.63v4.76a2.38,2.38,0,0,1,2-.95,2.75,2.75,0,0,1,2.46,1.15,6,6,0,0,1,.8,3.36ZM130.28,95a4.33,4.33,0,0,0-.31-2,1.15,1.15,0,0,0-1.07-.52,1.28,1.28,0,0,0-1.21.72v4.33a1.29,1.29,0,0,0,1.23.67,1.16,1.16,0,0,0,1.05-.47,4,4,0,0,0,.31-1.81Z" transform="translate(0 0)" fill="#fff"/>
          <path d="M139.27,100.09a4.32,4.32,0,0,1-.22-.74,2.28,2.28,0,0,1-1.91.91,2.9,2.9,0,0,1-2.1-.79,2.69,2.69,0,0,1-.84-2,2.83,2.83,0,0,1,1-2.31,4.64,4.64,0,0,1,2.91-.83h.8v-.77a1.37,1.37,0,0,0-.23-.9.85.85,0,0,0-.68-.27c-.66,0-1,.37-1,1.09h-2.63a2.68,2.68,0,0,1,1.05-2.17,4,4,0,0,1,2.64-.86,3.74,3.74,0,0,1,2.57.81,3,3,0,0,1,.9,2.33V98a4.54,4.54,0,0,0,.38,1.93v.15Zm-1.55-1.78a1.49,1.49,0,0,0,.75-.17,1.25,1.25,0,0,0,.45-.39v-2h-.63a1.4,1.4,0,0,0-1.06.41,1.53,1.53,0,0,0-.38,1.08Q136.85,98.31,137.72,98.31Z" transform="translate(0 0)" fill="#fff"/>
          <path d="M147.92,97.54a.79.79,0,0,0-.32-.59,6.37,6.37,0,0,0-1.43-.72,6.14,6.14,0,0,1-2.24-1.29,2.36,2.36,0,0,1-.61-1.66,2.6,2.6,0,0,1,1-2.07,3.74,3.74,0,0,1,2.52-.81,4.05,4.05,0,0,1,2.65.81,2.64,2.64,0,0,1,1,2.17h-2.63c0-.77-.35-1.16-1-1.16a1,1,0,0,0-.69.25.87.87,0,0,0-.27.68.71.71,0,0,0,.3.56,6.88,6.88,0,0,0,1.41.69,5.93,5.93,0,0,1,2.27,1.25,2.64,2.64,0,0,1-.35,3.84,4.92,4.92,0,0,1-4.61.36,3.21,3.21,0,0,1-1.33-1.13,2.84,2.84,0,0,1-.48-1.58h2.51a1.45,1.45,0,0,0,.32,1,1.32,1.32,0,0,0,1,.32C147.56,98.44,147.92,98.14,147.92,97.54Z" transform="translate(0 0)" fill="#fff"/>
          <path d="M156.18,100.26A4.25,4.25,0,0,1,153,99.12a4.43,4.43,0,0,1-1.14-3.27v-.76a5.23,5.23,0,0,1,1-3.47,3.73,3.73,0,0,1,3-1.22,3.5,3.5,0,0,1,2.86,1.15,5.21,5.21,0,0,1,1,3.39v1.22h-5.23a2.48,2.48,0,0,0,.49,1.55,1.74,1.74,0,0,0,1.35.49,3,3,0,0,0,2.2-.86l1,1.51a3.41,3.41,0,0,1-1.41,1A5.06,5.06,0,0,1,156.18,100.26Zm-1.66-5.83h2.64V94.2a2.55,2.55,0,0,0-.3-1.29,1,1,0,0,0-1-.44,1.11,1.11,0,0,0-1,.46A3.08,3.08,0,0,0,154.52,94.43Z" transform="translate(0 0)" fill="#fff"/>
          <path d="M164,100.09h-2.65V86.59H164Z" transform="translate(0 0)" fill="#fff"/>
          <path d="M166,88.12a1.24,1.24,0,0,1,.39-1,1.66,1.66,0,0,1,2.09,0,1.24,1.24,0,0,1,.39,1,1.28,1.28,0,0,1-.39.95,1.41,1.41,0,0,1-1,.37,1.45,1.45,0,0,1-1.05-.37A1.28,1.28,0,0,1,166,88.12Zm2.77,12h-2.65V90.58h2.65Z" transform="translate(0 0)" fill="#fff"/>
          <path d="M173.24,90.58l.08.94a2.82,2.82,0,0,1,2.33-1.12c1.74,0,2.62,1.15,2.67,3.44v6.25h-2.64V94a2.07,2.07,0,0,0-.25-1.17,1,1,0,0,0-.9-.37,1.25,1.25,0,0,0-1.12.7v6.91h-2.64V90.58Z" transform="translate(0 0)" fill="#fff"/>
          <path d="M184.28,100.26a4.25,4.25,0,0,1-3.16-1.14A4.43,4.43,0,0,1,180,95.85v-.76a5.23,5.23,0,0,1,1-3.47,3.73,3.73,0,0,1,3-1.22,3.51,3.51,0,0,1,2.86,1.15,5.21,5.21,0,0,1,1,3.39v1.22H182.6a2.54,2.54,0,0,0,.5,1.55,1.74,1.74,0,0,0,1.35.49,3,3,0,0,0,2.2-.86l1,1.51a3.38,3.38,0,0,1-1.4,1A5.06,5.06,0,0,1,184.28,100.26Zm-1.66-5.83h2.64V94.2a2.66,2.66,0,0,0-.3-1.29,1,1,0,0,0-1-.44,1.11,1.11,0,0,0-1,.46A3.08,3.08,0,0,0,182.62,94.43Z" transform="translate(0 0)" fill="#fff"/>
        </g>
        <g>
          <path d="M24,171.16h5.59v.93H23v-12.8H24Z" transform="translate(0 0)" fill="#4d4d4d"/>
          <path d="M34.89,172.26a3.56,3.56,0,0,1-2.78-1.1,4.51,4.51,0,0,1-1-3.13v-1.16a5.1,5.1,0,0,1,1-3.28,3.26,3.26,0,0,1,2.66-1.19,3.11,3.11,0,0,1,2.5,1,4.74,4.74,0,0,1,.88,3.1v.91h-6V168a3.79,3.79,0,0,0,.74,2.52,2.57,2.57,0,0,0,2.09.89,3.11,3.11,0,0,0,2.41-1l.54.65A3.56,3.56,0,0,1,34.89,172.26Zm-.18-8.94a2.27,2.27,0,0,0-1.87.81,3.94,3.94,0,0,0-.72,2.38h4.94v-.26C37,164.29,36.23,163.32,34.71,163.32Z" transform="translate(0 0)" fill="#4d4d4d"/>
          <path d="M45.68,171A2.92,2.92,0,0,1,43,172.26a2.46,2.46,0,0,1-2.06-.89,4.22,4.22,0,0,1-.71-2.64v-6.15h1v6.12a3.26,3.26,0,0,0,.49,2,1.59,1.59,0,0,0,1.39.67,2.36,2.36,0,0,0,2.5-1.79v-7h1.05v9.51h-1Z" transform="translate(0 0)" fill="#4d4d4d"/>
          <path d="M51.55,167.33l-1,1.11v3.65h-1v-13.5h1v8.58l.87-1,3.11-3.56h1.29l-3.54,4,3.87,5.5H54.88Z" transform="translate(0 0)" fill="#4d4d4d"/>
          <path d="M57.33,166.85a4.93,4.93,0,0,1,1-3.25,3.64,3.64,0,0,1,5.38,0,4.94,4.94,0,0,1,1,3.24v1a4.88,4.88,0,0,1-1,3.26,3.66,3.66,0,0,1-5.34,0,4.82,4.82,0,0,1-1-3.15Zm1,1a4.23,4.23,0,0,0,.71,2.58,2.28,2.28,0,0,0,2,.94,2.24,2.24,0,0,0,1.94-.91,4.25,4.25,0,0,0,.69-2.59v-1a4.23,4.23,0,0,0-.71-2.58,2.46,2.46,0,0,0-3.85,0,4.2,4.2,0,0,0-.73,2.53Z" transform="translate(0 0)" fill="#4d4d4d"/>
          <path d="M70.26,171.35a2.25,2.25,0,0,0,1.65-.57,2.38,2.38,0,0,0,.63-1.64h1a3.17,3.17,0,0,1-1,2.29,3.22,3.22,0,0,1-2.28.83,3.37,3.37,0,0,1-2.72-1.08,5,5,0,0,1-.93-3.22V166.8a5.06,5.06,0,0,1,.91-3.29,3.35,3.35,0,0,1,2.73-1.11,3.17,3.17,0,0,1,2.36.89,3.64,3.64,0,0,1,.92,2.49h-1A2.85,2.85,0,0,0,71.9,164a2.11,2.11,0,0,0-1.65-.64,2.27,2.27,0,0,0-2,.85,4.38,4.38,0,0,0-.63,2.61v1.08a4.43,4.43,0,0,0,.63,2.66A2.33,2.33,0,0,0,70.26,171.35Z" transform="translate(0 0)" fill="#4d4d4d"/>
          <path d="M78.4,170.48l2.4-7.9h1.1l-3.54,11-.2.52a2.36,2.36,0,0,1-2.19,1.8,2.28,2.28,0,0,1-.75-.13v-.89a1.8,1.8,0,0,0,.48.06,1.62,1.62,0,0,0,1.1-.38,2.75,2.75,0,0,0,.7-1.22l.43-1.34-3.16-9.45h1.13Z" transform="translate(0 0)" fill="#4d4d4d"/>
          <path d="M85.24,160.15v2.43H87v.88H85.24v6.32a2.22,2.22,0,0,0,.25,1.16.91.91,0,0,0,.82.38,4.58,4.58,0,0,0,.75-.09l0,.88a2.74,2.74,0,0,1-1,.15c-1.21,0-1.83-.78-1.86-2.35v-6.45H82.66v-.88h1.55v-2.43Z" transform="translate(0 0)" fill="#4d4d4d"/>
          <path d="M92.54,172.26a3.54,3.54,0,0,1-2.78-1.1,4.56,4.56,0,0,1-1-3.13v-1.16a5.11,5.11,0,0,1,1-3.28,3.26,3.26,0,0,1,2.66-1.19,3.11,3.11,0,0,1,2.5,1,4.79,4.79,0,0,1,.88,3.1v.91h-6V168a3.79,3.79,0,0,0,.74,2.52,2.57,2.57,0,0,0,2.09.89,3.11,3.11,0,0,0,2.41-1l.53.65A3.53,3.53,0,0,1,92.54,172.26Zm-.18-8.94a2.26,2.26,0,0,0-1.87.81,3.94,3.94,0,0,0-.72,2.38h4.94v-.26C94.66,164.29,93.88,163.32,92.36,163.32Z" transform="translate(0 0)" fill="#4d4d4d"/>
          <path d="M103,169.74a1.37,1.37,0,0,0-.54-1.07,7.52,7.52,0,0,0-1.83-1,11,11,0,0,1-1.8-.91,2.55,2.55,0,0,1-.75-.8,2.08,2.08,0,0,1-.25-1,2.27,2.27,0,0,1,.84-1.81,3.21,3.21,0,0,1,2.17-.72,3.32,3.32,0,0,1,2.29.77,2.57,2.57,0,0,1,.85,2h-1a1.72,1.72,0,0,0-.58-1.34,2.18,2.18,0,0,0-1.53-.53,2.24,2.24,0,0,0-1.45.43,1.45,1.45,0,0,0-.53,1.15,1.16,1.16,0,0,0,.41.93,8.11,8.11,0,0,0,1.77,1,11.2,11.2,0,0,1,1.93,1,2.75,2.75,0,0,1,.8.84,2.14,2.14,0,0,1,.27,1.1,2.27,2.27,0,0,1-.87,1.87,3.51,3.51,0,0,1-2.27.69,3.7,3.7,0,0,1-2.43-.77,2.47,2.47,0,0,1-.92-2h1a1.8,1.8,0,0,0,.63,1.37,2.5,2.5,0,0,0,1.68.49,2.45,2.45,0,0,0,1.52-.44A1.38,1.38,0,0,0,103,169.74Z" transform="translate(0 0)" fill="#4d4d4d"/>
          <path d="M106.28,174.49l-.66-.47a3.67,3.67,0,0,0,.87-2.23v-1.37h1.09v1.08A3.74,3.74,0,0,1,106.28,174.49Z" transform="translate(0 0)" fill="#4d4d4d"/>
          <path d="M115.31,162.58l0,1.42a3,3,0,0,1,2.7-1.6,2.38,2.38,0,0,1,2.51,1.75,3.32,3.32,0,0,1,1.23-1.31,3.19,3.19,0,0,1,1.63-.44q2.72,0,2.78,3.31v6.38h-1v-6.32a3.08,3.08,0,0,0-.49-1.84,1.8,1.8,0,0,0-1.52-.6,2.21,2.21,0,0,0-1.62.71,2.72,2.72,0,0,0-.75,1.72v6.33h-1v-6.3a3,3,0,0,0-.48-1.85,1.84,1.84,0,0,0-1.53-.61,2.12,2.12,0,0,0-1.46.56,3.2,3.2,0,0,0-.9,1.58v6.62h-1v-9.51Z" transform="translate(0 0)" fill="#4d4d4d"/>
          <path d="M132.21,172.26a3.56,3.56,0,0,1-2.78-1.1,4.51,4.51,0,0,1-1-3.13v-1.16a5.1,5.1,0,0,1,1-3.28A3.26,3.26,0,0,1,132,162.4a3.1,3.1,0,0,1,2.5,1,4.74,4.74,0,0,1,.88,3.1v.91h-6V168a3.84,3.84,0,0,0,.74,2.52,2.57,2.57,0,0,0,2.09.89,3.11,3.11,0,0,0,2.41-1l.54.65A3.56,3.56,0,0,1,132.21,172.26Zm-.18-8.94a2.27,2.27,0,0,0-1.87.81,3.94,3.94,0,0,0-.72,2.38h4.94v-.26C134.33,164.29,133.55,163.32,132,163.32Z" transform="translate(0 0)" fill="#4d4d4d"/>
          <path d="M142.93,172.09a6,6,0,0,1-.19-1.32,3.3,3.3,0,0,1-1.19,1.1,3.34,3.34,0,0,1-1.59.39,2.84,2.84,0,0,1-2-.69,2.61,2.61,0,0,1-.72-2,2.67,2.67,0,0,1,1-2.21,4.32,4.32,0,0,1,2.78-.83h1.73v-1.33a1.77,1.77,0,0,0-.53-1.46,2.39,2.39,0,0,0-1.57-.44,2.32,2.32,0,0,0-1.57.52,1.71,1.71,0,0,0-.61,1.36h-1a2.56,2.56,0,0,1,.93-2,3.43,3.43,0,0,1,2.34-.81,3.29,3.29,0,0,1,2.3.72,2.72,2.72,0,0,1,.78,2.1v4.67A6.09,6.09,0,0,0,144,172v.11Zm-2.84-.77a3,3,0,0,0,1.62-.45,2.62,2.62,0,0,0,1-1.19v-2.31H141.1A3.4,3.4,0,0,0,139,168a1.88,1.88,0,0,0-.72,1.55A1.61,1.61,0,0,0,140.09,171.32Z" transform="translate(0 0)" fill="#4d4d4d"/>
          <path d="M147.56,162.58l0,1.51a3.56,3.56,0,0,1,1.14-1.23,2.76,2.76,0,0,1,1.58-.46c1.75,0,2.65,1.11,2.7,3.31v6.38h-1v-6.27a3.07,3.07,0,0,0-.47-1.88,1.71,1.71,0,0,0-1.46-.61,2.12,2.12,0,0,0-1.46.58,3.53,3.53,0,0,0-1,1.58v6.6h-1v-9.51Z" transform="translate(0 0)" fill="#4d4d4d"/>
          <path d="M159.92,166.92a14.73,14.73,0,0,1,.49-3.83,12.72,12.72,0,0,1,1.33-3.29,6.35,6.35,0,0,1,1.77-2.07l.24.74a5.83,5.83,0,0,0-1.41,1.92,12.4,12.4,0,0,0-1,3,17.12,17.12,0,0,0-.37,3.7,16.69,16.69,0,0,0,.36,3.5,13,13,0,0,0,1,3,5.88,5.88,0,0,0,1.41,2l-.24.7a5.64,5.64,0,0,1-1.28-1.3,9.51,9.51,0,0,1-1.17-2.08,14,14,0,0,1-.83-2.65A15.39,15.39,0,0,1,159.92,166.92Z" transform="translate(0 0)" fill="#4d4d4d"/>
          <path d="M172.16,168.94a2.23,2.23,0,0,0-.64-1.69,6.63,6.63,0,0,0-2.42-1.18,7.69,7.69,0,0,1-2.59-1.25,3.18,3.18,0,0,1,0-4.78,4,4,0,0,1,2.76-.93,3.87,3.87,0,0,1,2.83,1.08,3.68,3.68,0,0,1,1.1,2.76h-1.07a2.88,2.88,0,0,0-.77-2.09,2.77,2.77,0,0,0-2.09-.8,2.91,2.91,0,0,0-2,.66,2.12,2.12,0,0,0-.74,1.69,2,2,0,0,0,.69,1.58,6.3,6.3,0,0,0,2.23,1.1,9.64,9.64,0,0,1,2.31,1,3.3,3.3,0,0,1,1.15,1.21,3.38,3.38,0,0,1,.37,1.63,3,3,0,0,1-1.07,2.42,4.2,4.2,0,0,1-2.84.92,5,5,0,0,1-2.18-.46,3.61,3.61,0,0,1-1.53-1.33,3.67,3.67,0,0,1-.56-2h1.06a2.72,2.72,0,0,0,.87,2.13,3.4,3.4,0,0,0,2.34.77,3.14,3.14,0,0,0,2.06-.65A2.16,2.16,0,0,0,172.16,168.94Z" transform="translate(0 0)" fill="#4d4d4d"/>
          <path d="M182,166h-5.26v5.2h6v.93h-7.11v-12.8h7.06v1h-6V165H182Z" transform="translate(0 0)" fill="#4d4d4d"/>
          <path d="M187.8,167.05a15.19,15.19,0,0,1-.46,3.79,12.23,12.23,0,0,1-1.31,3.27,6.49,6.49,0,0,1-1.82,2.11l-.23-.7a6.32,6.32,0,0,0,1.63-2.4,15.6,15.6,0,0,0,1.16-6.23,15.77,15.77,0,0,0-.37-3.47,12.91,12.91,0,0,0-1-3,6,6,0,0,0-1.4-2l.23-.7a6.72,6.72,0,0,1,1.92,2.32A14.35,14.35,0,0,1,187.8,167.05Z" transform="translate(0 0)" fill="#4d4d4d"/>
        </g>
        <g>
          <path d="M30.81,280.09H29.75l-6.39-10.9v10.9H22.29v-12.8h1.07l6.4,10.92V267.29h1Z" transform="translate(0 0)" fill="#4d4d4d"/>
          <path d="M37.13,280.26a3.57,3.57,0,0,1-2.79-1.1,4.56,4.56,0,0,1-1-3.13v-1.16a5,5,0,0,1,1-3.28A3.24,3.24,0,0,1,37,270.4a3.13,3.13,0,0,1,2.5,1,4.85,4.85,0,0,1,.88,3.1v.91h-6V276a3.84,3.84,0,0,0,.74,2.52,2.59,2.59,0,0,0,2.09.89,3.09,3.09,0,0,0,2.41-1l.54.65A3.53,3.53,0,0,1,37.13,280.26ZM37,271.32a2.26,2.26,0,0,0-1.87.81,4,4,0,0,0-.73,2.38h4.94v-.26C39.24,272.29,38.46,271.32,37,271.32Z" transform="translate(0 0)" fill="#4d4d4d"/>
          <path d="M47.92,279a2.93,2.93,0,0,1-2.65,1.31,2.49,2.49,0,0,1-2.07-.89,4.35,4.35,0,0,1-.71-2.64v-6.15h1v6.12a3.33,3.33,0,0,0,.48,2,1.61,1.61,0,0,0,1.4.67,2.37,2.37,0,0,0,2.5-1.79v-7h1v9.51h-1Z" transform="translate(0 0)" fill="#4d4d4d"/>
          <path d="M53.25,268.15v2.43H55v.88H53.25v6.32a2.13,2.13,0,0,0,.25,1.16.91.91,0,0,0,.82.38,4.37,4.37,0,0,0,.74-.09l0,.88a2.65,2.65,0,0,1-1,.15c-1.21,0-1.83-.78-1.86-2.35v-6.45H50.66v-.88h1.56v-2.43Z" transform="translate(0 0)" fill="#4d4d4d"/>
          <path d="M61.17,271.49a4.23,4.23,0,0,0-.65-.06,2,2,0,0,0-1.44.55,3,3,0,0,0-.82,1.54v6.57h-1v-9.51h1l0,1.42a2.41,2.41,0,0,1,2.3-1.6,1.33,1.33,0,0,1,.63.12Z" transform="translate(0 0)" fill="#4d4d4d"/>
          <path d="M62.42,274.85a4.93,4.93,0,0,1,1-3.25,3.27,3.27,0,0,1,2.68-1.2,3.31,3.31,0,0,1,2.7,1.18,5,5,0,0,1,1,3.24v1a4.88,4.88,0,0,1-1,3.26,3.68,3.68,0,0,1-5.35,0,4.81,4.81,0,0,1-1-3.15Zm1,1a4.29,4.29,0,0,0,.7,2.58,2.52,2.52,0,0,0,3.9,0,4.32,4.32,0,0,0,.69-2.59v-1a4.23,4.23,0,0,0-.71-2.58,2.29,2.29,0,0,0-2-.94,2.26,2.26,0,0,0-1.9.92,4.13,4.13,0,0,0-.73,2.53Z" transform="translate(0 0)" fill="#4d4d4d"/>
          <path d="M79,275.78a5.76,5.76,0,0,1-.81,3.34,2.78,2.78,0,0,1-2.42,1.14,2.92,2.92,0,0,1-2.62-1.32v4.8h-1V270.58h1l0,1.3a3.15,3.15,0,0,1,5-.39,5.66,5.66,0,0,1,.82,3.33Zm-1-.89a4.69,4.69,0,0,0-.61-2.69,2.11,2.11,0,0,0-1.87-.86,2.42,2.42,0,0,0-2.34,1.57v5a2.43,2.43,0,0,0,2.36,1.43,2.11,2.11,0,0,0,1.85-.86,4.78,4.78,0,0,0,.61-2.65Z" transform="translate(0 0)" fill="#4d4d4d"/>
          <path d="M82.46,272.07a3.79,3.79,0,0,1,1.13-1.22,2.8,2.8,0,0,1,1.57-.45c1.75,0,2.65,1.11,2.7,3.31v6.38h-1v-6.27a3.07,3.07,0,0,0-.47-1.88,1.71,1.71,0,0,0-1.46-.61,2.12,2.12,0,0,0-1.46.58,3.53,3.53,0,0,0-1,1.58v6.6h-1v-13.5h1Z" transform="translate(0 0)" fill="#4d4d4d"/>
          <path d="M90.56,267.83a.79.79,0,0,1,.17-.51.63.63,0,0,1,.5-.21.64.64,0,0,1,.51.21.79.79,0,0,1,.18.51.76.76,0,0,1-.18.51.64.64,0,0,1-.51.21.63.63,0,0,1-.5-.21A.75.75,0,0,1,90.56,267.83Zm1.19,12.26h-1v-9.51h1Z" transform="translate(0 0)" fill="#4d4d4d"/>
          <path d="M95.76,280.09H94.71v-13.5h1.05Z" transform="translate(0 0)" fill="#4d4d4d"/>
          <path d="M103.65,277.74a1.37,1.37,0,0,0-.54-1.07,7.52,7.52,0,0,0-1.83-1,11,11,0,0,1-1.8-.91,2.71,2.71,0,0,1-.76-.8,2.08,2.08,0,0,1-.24-1,2.27,2.27,0,0,1,.84-1.81,3.21,3.21,0,0,1,2.17-.72,3.32,3.32,0,0,1,2.29.77,2.57,2.57,0,0,1,.85,2h-1a1.73,1.73,0,0,0-.59-1.34,2.15,2.15,0,0,0-1.52-.53,2.24,2.24,0,0,0-1.45.43,1.42,1.42,0,0,0-.53,1.15,1.16,1.16,0,0,0,.41.93,8.22,8.22,0,0,0,1.76,1,11.4,11.4,0,0,1,1.94,1,2.75,2.75,0,0,1,.8.84,2.14,2.14,0,0,1,.27,1.1,2.27,2.27,0,0,1-.87,1.87,3.52,3.52,0,0,1-2.28.69,3.68,3.68,0,0,1-2.42-.77,2.48,2.48,0,0,1-.93-2h1a1.83,1.83,0,0,0,.62,1.37,2.53,2.53,0,0,0,1.68.49,2.48,2.48,0,0,0,1.53-.44A1.4,1.4,0,0,0,103.65,277.74Z" transform="translate(0 0)" fill="#4d4d4d"/>
          <path d="M107,282.49l-.66-.47a3.73,3.73,0,0,0,.87-2.23v-1.37h1.09v1.08A3.74,3.74,0,0,1,107,282.49Z" transform="translate(0 0)" fill="#4d4d4d"/>
          <path d="M116,270.58l0,1.42a3,3,0,0,1,2.7-1.6,2.38,2.38,0,0,1,2.51,1.75,3.32,3.32,0,0,1,1.23-1.31,3.16,3.16,0,0,1,1.63-.44q2.72,0,2.78,3.31v6.38h-1v-6.32a3.16,3.16,0,0,0-.49-1.84,1.81,1.81,0,0,0-1.52-.6,2.21,2.21,0,0,0-1.62.71,2.79,2.79,0,0,0-.76,1.72v6.33h-1v-6.3a2.88,2.88,0,0,0-.49-1.85,1.81,1.81,0,0,0-1.52-.61,2.12,2.12,0,0,0-1.46.56,3.13,3.13,0,0,0-.9,1.58v6.62h-1v-9.51Z" transform="translate(0 0)" fill="#4d4d4d"/>
          <path d="M132.89,280.26a3.54,3.54,0,0,1-2.78-1.1,4.56,4.56,0,0,1-1-3.13v-1.16a5.11,5.11,0,0,1,1-3.28,3.26,3.26,0,0,1,2.66-1.19,3.11,3.11,0,0,1,2.5,1,4.79,4.79,0,0,1,.88,3.1v.91h-6V276a3.79,3.79,0,0,0,.74,2.52,2.57,2.57,0,0,0,2.09.89,3.11,3.11,0,0,0,2.41-1l.54.65A3.56,3.56,0,0,1,132.89,280.26Zm-.18-8.94a2.26,2.26,0,0,0-1.87.81,3.94,3.94,0,0,0-.72,2.38h4.94v-.26C135,272.29,134.23,271.32,132.71,271.32Z" transform="translate(0 0)" fill="#4d4d4d"/>
          <path d="M143.61,280.09a5.49,5.49,0,0,1-.19-1.32,3.3,3.3,0,0,1-1.19,1.1,3.34,3.34,0,0,1-1.59.39,2.82,2.82,0,0,1-2-.69,2.61,2.61,0,0,1-.72-2,2.69,2.69,0,0,1,1-2.21,4.37,4.37,0,0,1,2.79-.83h1.73v-1.33a1.8,1.8,0,0,0-.53-1.46,2.39,2.39,0,0,0-1.57-.44,2.32,2.32,0,0,0-1.57.52,1.72,1.72,0,0,0-.62,1.36h-1a2.56,2.56,0,0,1,.93-2,3.43,3.43,0,0,1,2.34-.81,3.26,3.26,0,0,1,2.29.72,2.69,2.69,0,0,1,.79,2.1v4.67a6.09,6.09,0,0,0,.27,2.09v.11Zm-2.84-.77a2.89,2.89,0,0,0,1.61-.45,2.64,2.64,0,0,0,1-1.19v-2.31h-1.64a3.44,3.44,0,0,0-2.13.59,1.9,1.9,0,0,0-.71,1.55A1.61,1.61,0,0,0,140.77,279.32Z" transform="translate(0 0)" fill="#4d4d4d"/>
          <path d="M148.24,270.58l0,1.51a3.56,3.56,0,0,1,1.14-1.23,2.76,2.76,0,0,1,1.58-.46c1.75,0,2.65,1.11,2.69,3.31v6.38h-1v-6.27a3.14,3.14,0,0,0-.47-1.88,1.72,1.72,0,0,0-1.47-.61,2.09,2.09,0,0,0-1.45.58,3.53,3.53,0,0,0-1,1.58v6.6h-1v-9.51Z" transform="translate(0 0)" fill="#4d4d4d"/>
          <path d="M160.6,274.92a14.73,14.73,0,0,1,.49-3.83,12.38,12.38,0,0,1,1.33-3.29,6.35,6.35,0,0,1,1.77-2.07l.24.74a5.69,5.69,0,0,0-1.41,1.92,12.4,12.4,0,0,0-1,3,17.12,17.12,0,0,0-.37,3.7,16.69,16.69,0,0,0,.36,3.5,12.58,12.58,0,0,0,1,3,5.88,5.88,0,0,0,1.41,1.95l-.24.7a5.87,5.87,0,0,1-1.29-1.3,9.93,9.93,0,0,1-1.16-2.08,14,14,0,0,1-.83-2.65A15.39,15.39,0,0,1,160.6,274.92Z" transform="translate(0 0)" fill="#4d4d4d"/>
          <path d="M172.84,276.94a2.2,2.2,0,0,0-.65-1.69,6.57,6.57,0,0,0-2.41-1.18,7.85,7.85,0,0,1-2.6-1.25,3.17,3.17,0,0,1,0-4.78,4,4,0,0,1,2.76-.93,3.89,3.89,0,0,1,2.83,1.08,3.68,3.68,0,0,1,1.09,2.76h-1.07a2.87,2.87,0,0,0-.76-2.09,2.77,2.77,0,0,0-2.09-.8,3,3,0,0,0-2,.66,2.15,2.15,0,0,0-.73,1.69,2,2,0,0,0,.69,1.58,6.3,6.3,0,0,0,2.23,1.1,9.72,9.72,0,0,1,2.3,1,3.26,3.26,0,0,1,1.16,1.21,3.38,3.38,0,0,1,.37,1.63,3,3,0,0,1-1.08,2.42,4.17,4.17,0,0,1-2.84.92,5,5,0,0,1-2.17-.46,3.55,3.55,0,0,1-1.53-1.33,3.67,3.67,0,0,1-.56-2h1.06a2.72,2.72,0,0,0,.87,2.13,3.38,3.38,0,0,0,2.33.77,3.1,3.1,0,0,0,2.06-.65A2.14,2.14,0,0,0,172.84,276.94Z" transform="translate(0 0)" fill="#4d4d4d"/>
          <path d="M182.65,274h-5.26v5.2h6.05v.93h-7.11v-12.8h7.06v.95h-6V273h5.26Z" transform="translate(0 0)" fill="#4d4d4d"/>
          <path d="M188.48,275.05a15.19,15.19,0,0,1-.46,3.79,12.56,12.56,0,0,1-1.31,3.27,6.49,6.49,0,0,1-1.82,2.11l-.23-.7a6.43,6.43,0,0,0,1.63-2.4,15.6,15.6,0,0,0,1.16-6.23,15.77,15.77,0,0,0-.37-3.47,12.91,12.91,0,0,0-1-3,6,6,0,0,0-1.4-2l.23-.7a6.72,6.72,0,0,1,1.92,2.32A14.35,14.35,0,0,1,188.48,275.05Z" transform="translate(0 0)" fill="#4d4d4d"/>
        </g>
        <g>
          <path d="M240.2,22.84a6,6,0,0,1-1.22,4,4.2,4.2,0,0,1-3.38,1.42,4.26,4.26,0,0,1-3.38-1.41,5.86,5.86,0,0,1-1.25-4V20.71a6.29,6.29,0,0,1,1.22-4.11,4.61,4.61,0,0,1,6.76,0,6.19,6.19,0,0,1,1.25,4.08Zm-2.59-2.14a5.22,5.22,0,0,0-.5-2.58,1.63,1.63,0,0,0-1.53-.84,1.66,1.66,0,0,0-1.52.81,5.18,5.18,0,0,0-.51,2.47v2.28a4.78,4.78,0,0,0,.5,2.47,1.71,1.71,0,0,0,1.55.8,1.63,1.63,0,0,0,1.5-.78,4.67,4.67,0,0,0,.51-2.41Z" transform="translate(0 0)" fill="#fff"/>
          <path d="M244.64,25.94h4.53v2.15h-7.12V15.29h2.59Z" transform="translate(0 0)" fill="#fff"/>
          <path d="M251.28,31.31,250,30.62l.34-.63a4.51,4.51,0,0,0,.58-2.09v-2H253v1.76a4.63,4.63,0,0,1-.47,1.94A5,5,0,0,1,251.28,31.31Z" transform="translate(0 0)" fill="#fff"/>
          <path d="M264.52,28.09H262V18.31l-2.43.94V17.18l4.66-1.91h.27Z" transform="translate(0 0)" fill="#fff"/>
          <path d="M275.32,18.69a3.3,3.3,0,0,1-.4,1.65,3,3,0,0,1-1.09,1.16,3.21,3.21,0,0,1,1.25,1.23,3.58,3.58,0,0,1,.46,1.85,3.69,3.69,0,1,1-7.37,0,3.65,3.65,0,0,1,.46-1.85,3.17,3.17,0,0,1,1.26-1.23,3.06,3.06,0,0,1-1.1-1.16,3.41,3.41,0,0,1-.4-1.65,3.61,3.61,0,0,1,.94-2.63,3.42,3.42,0,0,1,2.53-.95,3.37,3.37,0,0,1,2.53,1A3.6,3.6,0,0,1,275.32,18.69Zm-3.45,7.51a1,1,0,0,0,.87-.48,2.5,2.5,0,0,0,.3-1.33,2.44,2.44,0,0,0-.31-1.34,1,1,0,0,0-.87-.48,1,1,0,0,0-.88.48,2.44,2.44,0,0,0-.32,1.34,2.4,2.4,0,0,0,.32,1.33A1,1,0,0,0,271.87,26.2Zm1-7.38a2.54,2.54,0,0,0-.24-1.19.79.79,0,0,0-.74-.45.78.78,0,0,0-.72.44,2.38,2.38,0,0,0-.25,1.2,2.52,2.52,0,0,0,.25,1.22.78.78,0,0,0,.73.46.76.76,0,0,0,.73-.46A2.65,2.65,0,0,0,272.84,18.82Z" transform="translate(0 0)" fill="#fff"/>
          <path d="M289.91,23.33l1.21-8h2.56l-2.28,12.8h-2.59l-1.49-7.54-1.48,7.54h-2.6L281,15.29h2.58l1.2,8,1.51-8h2.17Z" transform="translate(0 0)" fill="#fff"/>
          <path d="M298.11,24.42l-.67.75v2.92H295V14.59h2.49v7.29l.31-.45,1.72-2.85h3l-2.76,3.92,3,5.59h-2.85Z" transform="translate(0 0)" fill="#fff"/>
        </g>
        <g>
          <path d="M235.84,52.67h-3.37V64.09h-1.61V52.67H227.5V51.29h8.34Z" transform="translate(0 0)" fill="#4d4d4d"/>
          <path d="M236.32,58.89a5,5,0,0,1,1-3.28A3.28,3.28,0,0,1,240,54.4a3.32,3.32,0,0,1,2.66,1.18,4.88,4.88,0,0,1,1,3.21v1a4.93,4.93,0,0,1-1,3.27,3.58,3.58,0,0,1-5.32,0,4.78,4.78,0,0,1-1-3.16Zm1.55.9a4,4,0,0,0,.58,2.31,1.78,1.78,0,0,0,1.55.84c1.37,0,2.08-1,2.12-3V58.89a4.05,4.05,0,0,0-.58-2.3,1.8,1.8,0,0,0-1.56-.85,1.75,1.75,0,0,0-1.53.85,4,4,0,0,0-.58,2.29Z" transform="translate(0 0)" fill="#4d4d4d"/>
          <path d="M246.36,64.09V55.83h-1.24V54.58h1.24v-1.1a3.39,3.39,0,0,1,.74-2.26,2.47,2.47,0,0,1,2-.82,3.14,3.14,0,0,1,.95.15L250,51.86a3.31,3.31,0,0,0-.72-.08c-.88,0-1.32.63-1.32,1.9v.9h1.62v1.25h-1.62v8.26Z" transform="translate(0 0)" fill="#4d4d4d"/>
          <path d="M256.27,64.09a3.49,3.49,0,0,1-.21-1,2.45,2.45,0,0,1-2.1,1.21,2.73,2.73,0,0,1-2-.72,2.8,2.8,0,0,1-.73-2,2.89,2.89,0,0,1,1-2.3,4,4,0,0,1,2.7-.87H256v-1a1.34,1.34,0,0,0-1.53-1.57,1.57,1.57,0,0,0-1.14.42,1.35,1.35,0,0,0-.44,1.05h-1.56a2.5,2.5,0,0,1,.43-1.39,3.07,3.07,0,0,1,1.16-1,3.53,3.53,0,0,1,1.63-.38,3.08,3.08,0,0,1,2.22.73,2.89,2.89,0,0,1,.78,2.11V62a5.77,5.77,0,0,0,.29,1.91v.14Zm-2.08-1.24a2.06,2.06,0,0,0,1.09-.32,1.92,1.92,0,0,0,.76-.79V59.47h-.88a3,3,0,0,0-1.75.5,1.58,1.58,0,0,0-.64,1.34,1.76,1.76,0,0,0,.32,1.17A1.4,1.4,0,0,0,254.19,62.85Z" transform="translate(0 0)" fill="#4d4d4d"/>
          <path d="M263.3,62.94a1.66,1.66,0,0,0,1.24-.48,2.05,2.05,0,0,0,.51-1.37h1.46a3.18,3.18,0,0,1-1,2.27,3.08,3.08,0,0,1-2.24.9,3.32,3.32,0,0,1-2.7-1.11,5.1,5.1,0,0,1-.92-3.31v-1a5,5,0,0,1,.92-3.28,3.31,3.31,0,0,1,2.69-1.12,3,3,0,0,1,2.31.92,3.71,3.71,0,0,1,.91,2.53h-1.46a2.6,2.6,0,0,0-.51-1.58,1.54,1.54,0,0,0-1.25-.53,1.81,1.81,0,0,0-1.54.68,3.94,3.94,0,0,0-.52,2.24v1.21a4.21,4.21,0,0,0,.5,2.37A1.8,1.8,0,0,0,263.3,62.94Z" transform="translate(0 0)" fill="#4d4d4d"/>
          <path d="M270.11,52.06a1,1,0,0,1-.22.65,1,1,0,0,1-1.33,0,1,1,0,0,1-.22-.65,1.06,1.06,0,0,1,.22-.67.82.82,0,0,1,.66-.28.84.84,0,0,1,.67.28A1.1,1.1,0,0,1,270.11,52.06Zm-.12,12h-1.56V54.58H270Z" transform="translate(0 0)" fill="#4d4d4d"/>
          <path d="M274.47,52.28v2.3h1.43v1.25h-1.43v5.91a1.63,1.63,0,0,0,.18.85.7.7,0,0,0,.64.29,2,2,0,0,0,.62-.1l0,1.31a3.3,3.3,0,0,1-1.08.17,1.63,1.63,0,0,1-1.4-.66,3,3,0,0,1-.49-1.86V55.83h-1.45V54.58h1.45v-2.3Z" transform="translate(0 0)" fill="#4d4d4d"/>
          <path d="M279.55,52.06a1,1,0,0,1-.22.65,1,1,0,0,1-1.33,0,1,1,0,0,1-.22-.65,1.06,1.06,0,0,1,.22-.67.82.82,0,0,1,.66-.28.84.84,0,0,1,.67.28A1.1,1.1,0,0,1,279.55,52.06Zm-.12,12h-1.56V54.58h1.56Z" transform="translate(0 0)" fill="#4d4d4d"/>
          <path d="M283.34,54.58l0,1a2.77,2.77,0,0,1,2.31-1.21c1.68,0,2.54,1.12,2.56,3.37v6.32H286.7V57.84a2.6,2.6,0,0,0-.37-1.59,1.35,1.35,0,0,0-1.12-.47,1.55,1.55,0,0,0-1,.39,2.66,2.66,0,0,0-.74,1v6.91h-1.56V54.58Z" transform="translate(0 0)" fill="#4d4d4d"/>
          <path d="M292.38,52.06a1,1,0,0,1-.22.65,1,1,0,0,1-1.33,0,1,1,0,0,1-.22-.65,1.06,1.06,0,0,1,.22-.67.93.93,0,0,1,1.33,0A1,1,0,0,1,292.38,52.06Zm-.12,12H290.7V54.58h1.56Z" transform="translate(0 0)" fill="#4d4d4d"/>
          <path d="M301.59,59.79a5.73,5.73,0,0,1-.8,3.35,2.65,2.65,0,0,1-2.32,1.12A2.46,2.46,0,0,1,296.2,63l-.07,1.13h-1.42V50.59h1.55v5a2.45,2.45,0,0,1,2.19-1.22,2.68,2.68,0,0,1,2.35,1.11,5.81,5.81,0,0,1,.79,3.34Zm-1.54-.89a4.45,4.45,0,0,0-.48-2.4,1.68,1.68,0,0,0-1.52-.72,1.91,1.91,0,0,0-1.79,1.3V61.6a1.89,1.89,0,0,0,1.81,1.28,1.64,1.64,0,0,0,1.51-.73,4.64,4.64,0,0,0,.47-2.29Z" transform="translate(0 0)" fill="#4d4d4d"/>
        </g>
        <path d="M304.48,58.09a2.06,2.06,0,0,1-.11-.6,1.44,1.44,0,0,1-1.23.71,1.47,1.47,0,0,1-1.6-1.62,1.69,1.69,0,0,1,.57-1.34,2.41,2.41,0,0,1,1.58-.51h.66v-.59a.92.92,0,0,0-.22-.7.94.94,0,0,0-.67-.21,1,1,0,0,0-.67.24.81.81,0,0,0-.25.62h-.91a1.46,1.46,0,0,1,.25-.82,1.72,1.72,0,0,1,.68-.6,2,2,0,0,1,.95-.22,1.82,1.82,0,0,1,1.29.42,1.64,1.64,0,0,1,.45,1.23v2.8a3.31,3.31,0,0,0,.18,1.11v.08Zm-1.2-.72a1.23,1.23,0,0,0,1.07-.64V55.4h-.51a1.79,1.79,0,0,0-1,.29.92.92,0,0,0-.37.78,1,1,0,0,0,.19.69A.81.81,0,0,0,303.28,57.37Z" transform="translate(0 0)" fill="#4d4d4d"/>
        <g>
          <path d="M235.25,94.89a14.53,14.53,0,0,1,.62-4.33A11.75,11.75,0,0,1,237.64,87,5.87,5.87,0,0,1,239,85.65l.31,1.07a7.4,7.4,0,0,0-1.73,3,15.57,15.57,0,0,0-.74,4.53V95a15.9,15.9,0,0,0,.87,5.47,7.92,7.92,0,0,0,1.61,2.76l-.31,1a6.47,6.47,0,0,1-1.64-1.79A13.34,13.34,0,0,1,235.25,94.89Z" transform="translate(0 0)" fill="#4d4d4d"/>
          <path d="M249.5,100.09h-1.61l-5.13-9.86v9.86h-1.62V87.29h1.62l5.14,9.91V87.29h1.6Z" transform="translate(0 0)" fill="#4d4d4d"/>
          <path d="M262.49,92.93h-6.16V91.52h6.16Zm0,3.65h-6.16V95.17h6.16Z" transform="translate(0 0)" fill="#4d4d4d"/>
          <path d="M276,100.09H268.8V98.92l3.65-4.84a10.86,10.86,0,0,0,1.15-1.83,3.72,3.72,0,0,0,.32-1.51,2.7,2.7,0,0,0-.48-1.66,1.47,1.47,0,0,0-1.24-.63,1.83,1.83,0,0,0-1.51.67,3,3,0,0,0-.53,1.94H268.6a4.13,4.13,0,0,1,1-2.86,3.35,3.35,0,0,1,2.63-1.09,3.13,3.13,0,0,1,2.4.94,3.49,3.49,0,0,1,.88,2.49,7.9,7.9,0,0,1-2,4.49l-2.85,3.73H276Z" transform="translate(0 0)" fill="#4d4d4d"/>
          <path d="M284.84,100.09h-7.15V98.92l3.65-4.84a10.08,10.08,0,0,0,1.14-1.83,3.56,3.56,0,0,0,.32-1.51,2.7,2.7,0,0,0-.47-1.66,1.49,1.49,0,0,0-1.25-.63,1.85,1.85,0,0,0-1.51.67,3.11,3.11,0,0,0-.53,1.94h-1.55a4.17,4.17,0,0,1,1-2.86,3.36,3.36,0,0,1,2.63-1.09,3.17,3.17,0,0,1,2.41.94,3.49,3.49,0,0,1,.88,2.49,7.86,7.86,0,0,1-2,4.49l-2.85,3.73h5.3Z" transform="translate(0 0)" fill="#4d4d4d"/>
          <path d="M287.21,93.67l.55-6.38h5.56v1.5h-4.25l-.3,3.49a2.92,2.92,0,0,1,1.71-.55,2.75,2.75,0,0,1,2.34,1.16,5.13,5.13,0,0,1,.86,3.12,4.8,4.8,0,0,1-.93,3.12,3.41,3.41,0,0,1-4.89.19,4,4,0,0,1-1-2.6h1.46a3,3,0,0,0,.63,1.66,1.65,1.65,0,0,0,1.29.56,1.61,1.61,0,0,0,1.42-.79,3.84,3.84,0,0,0,.51-2.12,3.5,3.5,0,0,0-.55-2,1.71,1.71,0,0,0-1.48-.79,1.81,1.81,0,0,0-1.24.4l-.41.42Z" transform="translate(0 0)" fill="#4d4d4d"/>
          <path d="M298.94,95a13.56,13.56,0,0,1-1.76,6.94,7,7,0,0,1-2,2.3l-.3-1a7.65,7.65,0,0,0,1.78-3.25,16.83,16.83,0,0,0,.7-4.79v-.31a15.47,15.47,0,0,0-1.1-6,7.82,7.82,0,0,0-1.38-2.26l.3-1a6.72,6.72,0,0,1,1.88,2.13A13.68,13.68,0,0,1,298.94,95Z" transform="translate(0 0)" fill="#4d4d4d"/>
        </g>
        <path d="M232.21,166.07h-7.39v-.92h7.39Z" transform="translate(0 0)" fill="#4d4d4d"/>
        <g>
          <path d="M241.34,166.74a8.17,8.17,0,0,1-.84,4.13,2.89,2.89,0,0,1-4.94,0,8,8,0,0,1-.86-4V164.6a8.18,8.18,0,0,1,.83-4.08,2.9,2.9,0,0,1,4.94-.05,7.6,7.6,0,0,1,.87,4Zm-1-2.28a7.54,7.54,0,0,0-.58-3.32A1.89,1.89,0,0,0,238,160a1.86,1.86,0,0,0-1.72,1.07,6.72,6.72,0,0,0-.62,3.17v2.59a7.43,7.43,0,0,0,.6,3.32,1.9,1.9,0,0,0,1.76,1.17,1.87,1.87,0,0,0,1.72-1.11,7.29,7.29,0,0,0,.61-3.26Z" transform="translate(0 0)" fill="#4d4d4d"/>
          <path d="M243.67,171.45a.8.8,0,0,1,.2-.54.83.83,0,0,1,1.1,0,.76.76,0,0,1,.21.54.69.69,0,0,1-.21.51.86.86,0,0,1-1.1,0A.73.73,0,0,1,243.67,171.45Z" transform="translate(0 0)" fill="#4d4d4d"/>
          <path d="M254.55,159.91,250,172.09h-1l4.54-11.89h-6.06v-.91h7.11Z" transform="translate(0 0)" fill="#4d4d4d"/>
          <path d="M260.8,172.09h-1V160.58l-2.89,1.29v-1l3.71-1.62h.16Z" transform="translate(0 0)" fill="#4d4d4d"/>
          <path d="M269.44,166.92a16.13,16.13,0,0,1,.46-3.83,13.58,13.58,0,0,1,1.26-3.29,6.18,6.18,0,0,1,1.68-2.06l.22.73a6,6,0,0,0-1.33,1.92,13.54,13.54,0,0,0-1,3,18.56,18.56,0,0,0-.34,3.7,17.39,17.39,0,0,0,.34,3.5,13.54,13.54,0,0,0,1,3,6,6,0,0,0,1.33,2l-.22.7a5.53,5.53,0,0,1-1.22-1.3,9.87,9.87,0,0,1-1.1-2.08,14,14,0,0,1-.78-2.65A16.12,16.12,0,0,1,269.44,166.92Z" transform="translate(0 0)" fill="#4d4d4d"/>
          <path d="M281.18,166.74a8.17,8.17,0,0,1-.84,4.13,2.88,2.88,0,0,1-4.93,0,7.84,7.84,0,0,1-.87-4V164.6a8.06,8.06,0,0,1,.84-4.08,2.69,2.69,0,0,1,2.47-1.41,2.73,2.73,0,0,1,2.46,1.36,7.6,7.6,0,0,1,.87,4Zm-1-2.28a7.4,7.4,0,0,0-.58-3.32,1.89,1.89,0,0,0-1.77-1.11,1.86,1.86,0,0,0-1.72,1.07,6.72,6.72,0,0,0-.62,3.17v2.59a7.43,7.43,0,0,0,.6,3.32,1.9,1.9,0,0,0,1.76,1.17,1.87,1.87,0,0,0,1.72-1.11,7.15,7.15,0,0,0,.61-3.26Z" transform="translate(0 0)" fill="#4d4d4d"/>
          <path d="M283.51,171.45a.8.8,0,0,1,.2-.54.72.72,0,0,1,.55-.21.71.71,0,0,1,.55.21.76.76,0,0,1,.21.54.69.69,0,0,1-.21.51.74.74,0,0,1-.55.2.76.76,0,0,1-.55-.2A.73.73,0,0,1,283.51,171.45Z" transform="translate(0 0)" fill="#4d4d4d"/>
          <path d="M291.89,172.09h-1V160.58l-2.9,1.29v-1l3.71-1.62h.17Z" transform="translate(0 0)" fill="#4d4d4d"/>
          <path d="M302.82,162.59a3.28,3.28,0,0,1-.47,1.75,3,3,0,0,1-1.28,1.18,3.21,3.21,0,0,1,1.49,1.25,3.48,3.48,0,0,1,.54,1.93,3.61,3.61,0,0,1-.93,2.59,3.68,3.68,0,0,1-5,0,3.59,3.59,0,0,1-.93-2.59,3.49,3.49,0,0,1,.53-1.94,3.16,3.16,0,0,1,1.46-1.24,2.93,2.93,0,0,1-1.27-1.17,3.47,3.47,0,0,1-.46-1.76,3.61,3.61,0,0,1,.86-2.53,3.24,3.24,0,0,1,4.58,0A3.61,3.61,0,0,1,302.82,162.59Zm-.7,6.11a2.81,2.81,0,0,0-.69-2,2.28,2.28,0,0,0-1.76-.76,2.32,2.32,0,0,0-1.76.74,2.8,2.8,0,0,0-.69,2,2.77,2.77,0,0,0,.67,1.94,2.57,2.57,0,0,0,3.57,0A2.74,2.74,0,0,0,302.12,168.7Zm-.27-6.12a2.76,2.76,0,0,0-.62-1.83,2,2,0,0,0-1.56-.72,1.94,1.94,0,0,0-1.57.7,2.76,2.76,0,0,0-.59,1.85,2.59,2.59,0,0,0,.61,1.82,2.13,2.13,0,0,0,3.12,0A2.61,2.61,0,0,0,301.85,162.58Z" transform="translate(0 0)" fill="#4d4d4d"/>
          <path d="M308.09,167.05a16.19,16.19,0,0,1-.44,3.79,12.83,12.83,0,0,1-1.24,3.27,6.34,6.34,0,0,1-1.71,2.11l-.22-.7a6.37,6.37,0,0,0,1.53-2.4,16.16,16.16,0,0,0,1.1-6.23,17.09,17.09,0,0,0-.34-3.47,14.47,14.47,0,0,0-1-3,6,6,0,0,0-1.32-2l.22-.69a6.63,6.63,0,0,1,1.81,2.32A14.94,14.94,0,0,1,308.09,167.05Z" transform="translate(0 0)" fill="#4d4d4d"/>
        </g>
        <g>
          <path d="M230.32,206.46l2.63-3.19-2.53-3.07.64-.73,2.5,3.05,2.52-3.05.63.73-2.53,3.07,2.63,3.19-.64.71L233.56,204l-2.6,3.15Z" transform="translate(0 0)" fill="#4d4d4d"/>
          <path d="M247.16,208.09h-1V196.58l-2.89,1.29v-1l3.7-1.62h.17Z" transform="translate(0 0)" fill="#4d4d4d"/>
          <path d="M258.26,202.74a8.17,8.17,0,0,1-.84,4.13,2.89,2.89,0,0,1-4.94,0,8,8,0,0,1-.86-4V200.6a8.18,8.18,0,0,1,.83-4.08,2.9,2.9,0,0,1,4.94-.05,7.8,7.8,0,0,1,.87,4Zm-1-2.28a7.38,7.38,0,0,0-.59-3.32,1.94,1.94,0,0,0-3.49,0,7,7,0,0,0-.62,3.17v2.59a7.28,7.28,0,0,0,.61,3.32,1.9,1.9,0,0,0,1.76,1.17,1.87,1.87,0,0,0,1.72-1.11,7.29,7.29,0,0,0,.61-3.26Z" transform="translate(0 0)" fill="#4d4d4d"/>
        </g>
        <path d="M261.14,198h.56a1.34,1.34,0,0,0,1.39-1.45,1.72,1.72,0,0,0-.33-1.12,1.17,1.17,0,0,0-.94-.4,1.18,1.18,0,0,0-1,.43,1.59,1.59,0,0,0-.37,1.1h-.57a2.26,2.26,0,0,1,.24-1.05,1.8,1.8,0,0,1,.68-.74,1.83,1.83,0,0,1,1-.27,1.71,1.71,0,0,1,1.34.55,2.13,2.13,0,0,1,.5,1.52,1.75,1.75,0,0,1-.29,1,1.67,1.67,0,0,1-.77.67,1.63,1.63,0,0,1,.87.65,2.06,2.06,0,0,1,.31,1.14,2.21,2.21,0,0,1-.54,1.56,1.82,1.82,0,0,1-1.4.58,2,2,0,0,1-1-.27,1.77,1.77,0,0,1-.72-.74,2.34,2.34,0,0,1-.25-1.12h.57a1.69,1.69,0,0,0,.39,1.15,1.35,1.35,0,0,0,1,.44,1.28,1.28,0,0,0,1-.4,1.73,1.73,0,0,0,.36-1.18,1.55,1.55,0,0,0-.39-1.13,1.52,1.52,0,0,0-1.13-.39h-.55Z" transform="translate(0 0)" fill="#4d4d4d"/>
        <g>
          <path d="M265.67,209.19h-.87l4.49-13.9h.87Z" transform="translate(0 0)" fill="#4d4d4d"/>
          <path d="M273,198.58l0,1.42a2.79,2.79,0,0,1,2.55-1.6,2.27,2.27,0,0,1,2.37,1.75,3.18,3.18,0,0,1,1.16-1.31,2.87,2.87,0,0,1,1.54-.44c1.71,0,2.59,1.1,2.63,3.31v6.38h-1v-6.32a3.11,3.11,0,0,0-.46-1.83,1.64,1.64,0,0,0-1.44-.61,2.09,2.09,0,0,0-1.53.71,2.85,2.85,0,0,0-.71,1.72v6.33h-1v-6.3a3.09,3.09,0,0,0-.46-1.85,1.71,1.71,0,0,0-1.44-.61,1.93,1.93,0,0,0-1.38.56,3.08,3.08,0,0,0-.85,1.58v6.62h-1v-9.51Z" transform="translate(0 0)" fill="#4d4d4d"/>
          <path d="M286.73,198.58l0,1.42a2.79,2.79,0,0,1,2.55-1.6,2.27,2.27,0,0,1,2.37,1.75,3.18,3.18,0,0,1,1.16-1.31,2.87,2.87,0,0,1,1.54-.44c1.71,0,2.59,1.1,2.63,3.31v6.38h-1v-6.32a3.11,3.11,0,0,0-.46-1.83,1.64,1.64,0,0,0-1.44-.61,2.09,2.09,0,0,0-1.53.71,2.85,2.85,0,0,0-.71,1.72v6.33h-1v-6.3a3.09,3.09,0,0,0-.46-1.85,1.71,1.71,0,0,0-1.44-.61,1.93,1.93,0,0,0-1.38.56,3.08,3.08,0,0,0-.85,1.58v6.62h-1v-9.51Z" transform="translate(0 0)" fill="#4d4d4d"/>
        </g>
        <path d="M300.08,198h.56a1.36,1.36,0,0,0,1.4-1.45,1.67,1.67,0,0,0-.34-1.12,1.17,1.17,0,0,0-.94-.4,1.18,1.18,0,0,0-1,.43,1.64,1.64,0,0,0-.37,1.1h-.57a2.26,2.26,0,0,1,.24-1.05,1.8,1.8,0,0,1,.68-.74,1.85,1.85,0,0,1,1-.27,1.71,1.71,0,0,1,1.34.55,2.13,2.13,0,0,1,.51,1.52,1.83,1.83,0,0,1-.29,1,1.74,1.74,0,0,1-.78.67,1.56,1.56,0,0,1,.87.65,2,2,0,0,1,.31,1.14,2.21,2.21,0,0,1-.54,1.56,1.82,1.82,0,0,1-1.4.58,2,2,0,0,1-1-.27,1.77,1.77,0,0,1-.72-.74,2.34,2.34,0,0,1-.25-1.12h.57a1.69,1.69,0,0,0,.39,1.15,1.35,1.35,0,0,0,1,.44,1.28,1.28,0,0,0,1-.4,1.73,1.73,0,0,0,.36-1.18,1.55,1.55,0,0,0-.39-1.13,1.52,1.52,0,0,0-1.13-.39h-.55Z" transform="translate(0 0)" fill="#4d4d4d"/>
        <path d="M232.21,274.07h-7.39v-.92h7.39Z" transform="translate(0 0)" fill="#4d4d4d"/>
        <g>
          <path d="M241.34,274.74a8.17,8.17,0,0,1-.84,4.13,2.89,2.89,0,0,1-4.94,0,8,8,0,0,1-.86-4V272.6a8.18,8.18,0,0,1,.83-4.08,2.9,2.9,0,0,1,4.94,0,7.6,7.6,0,0,1,.87,4Zm-1-2.28a7.38,7.38,0,0,0-.59-3.32,1.94,1.94,0,0,0-3.49,0,6.86,6.86,0,0,0-.61,3.17v2.59a7.43,7.43,0,0,0,.6,3.32,1.9,1.9,0,0,0,1.76,1.17,1.87,1.87,0,0,0,1.72-1.11,7.29,7.29,0,0,0,.61-3.26Z" transform="translate(0 0)" fill="#4d4d4d"/>
          <path d="M243.67,279.45a.8.8,0,0,1,.2-.54.71.71,0,0,1,.55-.21.72.72,0,0,1,.55.21.76.76,0,0,1,.21.54.69.69,0,0,1-.21.51.76.76,0,0,1-.55.2.74.74,0,0,1-.55-.2A.73.73,0,0,1,243.67,279.45Z" transform="translate(0 0)" fill="#4d4d4d"/>
          <path d="M253.35,276H255v.91h-1.64v3.22h-1v-3.22h-5v-.62l4.94-9h1.06Zm-4.84,0h3.86v-7.19l-.35.71Z" transform="translate(0 0)" fill="#4d4d4d"/>
          <path d="M261.86,267.2v.94h-.15a3.62,3.62,0,0,0-2.93,1.32,6.17,6.17,0,0,0-1.19,3.7,3.13,3.13,0,0,1,1.11-1.09,2.89,2.89,0,0,1,1.48-.38,2.63,2.63,0,0,1,2.25,1.16,6,6,0,0,1-.05,6.21,2.75,2.75,0,0,1-2.32,1.2,3,3,0,0,1-2.5-1.31,5.71,5.71,0,0,1-1-3.47v-1a9.33,9.33,0,0,1,1.3-5.37,4.41,4.41,0,0,1,3.74-1.88ZM260,272.6a2.35,2.35,0,0,0-1.53.59,2.87,2.87,0,0,0-.92,1.47v.91a4.81,4.81,0,0,0,.7,2.73,2.1,2.1,0,0,0,1.79,1.05,1.88,1.88,0,0,0,1.63-1,4.4,4.4,0,0,0,.62-2.46,4.2,4.2,0,0,0-.62-2.42A1.91,1.91,0,0,0,260,272.6Z" transform="translate(0 0)" fill="#4d4d4d"/>
          <path d="M269.44,274.92a16.13,16.13,0,0,1,.46-3.83,13.58,13.58,0,0,1,1.26-3.29,6.29,6.29,0,0,1,1.67-2.06l.23.73a6,6,0,0,0-1.33,1.92,13,13,0,0,0-1,3,18.56,18.56,0,0,0-.34,3.7,17.39,17.39,0,0,0,.34,3.5,13.54,13.54,0,0,0,1,3,6,6,0,0,0,1.33,1.95l-.23.7a5.73,5.73,0,0,1-1.21-1.3,9.87,9.87,0,0,1-1.1-2.08,14,14,0,0,1-.78-2.65A16.12,16.12,0,0,1,269.44,274.92Z" transform="translate(0 0)" fill="#4d4d4d"/>
          <path d="M281.18,274.74a8.17,8.17,0,0,1-.84,4.13,2.89,2.89,0,0,1-4.94,0,8,8,0,0,1-.86-4V272.6a8.18,8.18,0,0,1,.83-4.08,2.9,2.9,0,0,1,4.94,0,7.6,7.6,0,0,1,.87,4Zm-1-2.28a7.54,7.54,0,0,0-.58-3.32,1.9,1.9,0,0,0-1.77-1.11,1.86,1.86,0,0,0-1.72,1.07,6.72,6.72,0,0,0-.62,3.17v2.59a7.43,7.43,0,0,0,.6,3.32,1.9,1.9,0,0,0,1.76,1.17,1.87,1.87,0,0,0,1.72-1.11,7.29,7.29,0,0,0,.61-3.26Z" transform="translate(0 0)" fill="#4d4d4d"/>
          <path d="M283.51,279.45a.8.8,0,0,1,.2-.54.83.83,0,0,1,1.1,0,.76.76,0,0,1,.21.54.69.69,0,0,1-.21.51.86.86,0,0,1-1.1,0A.73.73,0,0,1,283.51,279.45Z" transform="translate(0 0)" fill="#4d4d4d"/>
          <path d="M291.89,280.09h-1V268.58L288,269.87v-1l3.71-1.62h.17Z" transform="translate(0 0)" fill="#4d4d4d"/>
          <path d="M303.14,267.91l-4.57,12.18h-1l4.54-11.89h-6v-.91h7.1Z" transform="translate(0 0)" fill="#4d4d4d"/>
          <path d="M308.09,275.05a16.19,16.19,0,0,1-.44,3.79,12.83,12.83,0,0,1-1.24,3.27,6.24,6.24,0,0,1-1.72,2.11l-.22-.7a6.26,6.26,0,0,0,1.54-2.4,16.16,16.16,0,0,0,1.1-6.23,16.4,16.4,0,0,0-.35-3.47,13.9,13.9,0,0,0-1-3,6.05,6.05,0,0,0-1.33-2l.22-.69a6.53,6.53,0,0,1,1.82,2.32A14.94,14.94,0,0,1,308.09,275.05Z" transform="translate(0 0)" fill="#4d4d4d"/>
        </g>
        <g>
          <path d="M230.32,314.46l2.63-3.19-2.53-3.07.64-.73,2.5,3,2.52-3,.63.73-2.53,3.07,2.63,3.19-.64.71L233.56,312l-2.6,3.15Z" transform="translate(0 0)" fill="#4d4d4d"/>
          <path d="M247.16,316.09h-1V304.58l-2.9,1.29v-1l3.71-1.62h.17Z" transform="translate(0 0)" fill="#4d4d4d"/>
          <path d="M258.26,310.74a8.17,8.17,0,0,1-.84,4.13,2.89,2.89,0,0,1-4.94,0,8,8,0,0,1-.86-4V308.6a8.07,8.07,0,0,1,.83-4.08,2.9,2.9,0,0,1,4.94,0,7.8,7.8,0,0,1,.87,4Zm-1-2.28a7.38,7.38,0,0,0-.59-3.32,1.94,1.94,0,0,0-3.49,0,7,7,0,0,0-.62,3.17v2.59a7.43,7.43,0,0,0,.6,3.32,1.91,1.91,0,0,0,1.77,1.17,1.87,1.87,0,0,0,1.72-1.11,7.43,7.43,0,0,0,.61-3.26Z" transform="translate(0 0)" fill="#4d4d4d"/>
        </g>
        <path d="M261.14,306h.56a1.34,1.34,0,0,0,1.39-1.45,1.72,1.72,0,0,0-.33-1.12,1.17,1.17,0,0,0-.94-.4,1.18,1.18,0,0,0-1,.43,1.59,1.59,0,0,0-.37,1.1h-.57a2.26,2.26,0,0,1,.24-1,1.8,1.8,0,0,1,.68-.74,1.83,1.83,0,0,1,1-.27,1.71,1.71,0,0,1,1.34.55,2.13,2.13,0,0,1,.5,1.52,1.75,1.75,0,0,1-.29,1,1.67,1.67,0,0,1-.77.67,1.63,1.63,0,0,1,.87.65,2.06,2.06,0,0,1,.31,1.14,2.21,2.21,0,0,1-.54,1.56,1.82,1.82,0,0,1-1.4.58,2,2,0,0,1-1-.27,1.77,1.77,0,0,1-.72-.74,2.34,2.34,0,0,1-.25-1.12h.57a1.69,1.69,0,0,0,.39,1.15,1.35,1.35,0,0,0,1,.44,1.28,1.28,0,0,0,1-.4,1.73,1.73,0,0,0,.36-1.18,1.55,1.55,0,0,0-.39-1.13,1.52,1.52,0,0,0-1.13-.39h-.55Z" transform="translate(0 0)" fill="#4d4d4d"/>
        <g>
          <path d="M265.67,317.19h-.87l4.49-13.9h.87Z" transform="translate(0 0)" fill="#4d4d4d"/>
          <path d="M273,306.58l0,1.42a2.79,2.79,0,0,1,2.55-1.6,2.27,2.27,0,0,1,2.37,1.75,3.18,3.18,0,0,1,1.16-1.31,2.87,2.87,0,0,1,1.54-.44c1.71,0,2.59,1.1,2.63,3.31v6.38h-1v-6.32a3.11,3.11,0,0,0-.46-1.83,1.64,1.64,0,0,0-1.44-.61,2.09,2.09,0,0,0-1.53.71,2.85,2.85,0,0,0-.71,1.72v6.33h-1v-6.3a3.09,3.09,0,0,0-.46-1.85,1.71,1.71,0,0,0-1.44-.61,1.93,1.93,0,0,0-1.38.56,3.08,3.08,0,0,0-.85,1.58v6.62h-1v-9.51Z" transform="translate(0 0)" fill="#4d4d4d"/>
          <path d="M286.73,306.58l0,1.42a2.79,2.79,0,0,1,2.55-1.6,2.27,2.27,0,0,1,2.37,1.75,3.18,3.18,0,0,1,1.16-1.31,2.87,2.87,0,0,1,1.54-.44c1.71,0,2.59,1.1,2.63,3.31v6.38h-1v-6.32a3.11,3.11,0,0,0-.46-1.83,1.64,1.64,0,0,0-1.44-.61,2.09,2.09,0,0,0-1.53.71,2.85,2.85,0,0,0-.71,1.72v6.33h-1v-6.3a3.09,3.09,0,0,0-.46-1.85,1.71,1.71,0,0,0-1.44-.61,1.93,1.93,0,0,0-1.38.56,3.08,3.08,0,0,0-.85,1.58v6.62h-1v-9.51Z" transform="translate(0 0)" fill="#4d4d4d"/>
        </g>
        <path d="M300.08,306h.56a1.36,1.36,0,0,0,1.4-1.45,1.67,1.67,0,0,0-.34-1.12,1.17,1.17,0,0,0-.94-.4,1.18,1.18,0,0,0-1,.43,1.64,1.64,0,0,0-.37,1.1h-.57a2.26,2.26,0,0,1,.24-1,1.8,1.8,0,0,1,.68-.74,1.85,1.85,0,0,1,1-.27,1.71,1.71,0,0,1,1.34.55,2.13,2.13,0,0,1,.51,1.52,1.83,1.83,0,0,1-.29,1,1.74,1.74,0,0,1-.78.67,1.56,1.56,0,0,1,.87.65,2,2,0,0,1,.31,1.14,2.21,2.21,0,0,1-.54,1.56,1.82,1.82,0,0,1-1.4.58,2,2,0,0,1-1-.27,1.77,1.77,0,0,1-.72-.74,2.34,2.34,0,0,1-.25-1.12h.57a1.69,1.69,0,0,0,.39,1.15,1.35,1.35,0,0,0,1,.44,1.28,1.28,0,0,0,1-.4,1.73,1.73,0,0,0,.36-1.18,1.55,1.55,0,0,0-.39-1.13,1.52,1.52,0,0,0-1.13-.39h-.55Z" transform="translate(0 0)" fill="#4d4d4d"/>
        <g>
          <path d="M332.88,52.35h-3.36V63.77h-1.61V52.35h-3.36V51h8.33Z" transform="translate(0 0)" fill="#4d4d4d"/>
          <path d="M333.36,58.57a5,5,0,0,1,1-3.28A3.28,3.28,0,0,1,337,54.08a3.32,3.32,0,0,1,2.66,1.18,4.88,4.88,0,0,1,1,3.21v1a4.93,4.93,0,0,1-1,3.27,3.58,3.58,0,0,1-5.32,0,4.85,4.85,0,0,1-1-3.16Zm1.56.9a4,4,0,0,0,.58,2.31,1.78,1.78,0,0,0,1.55.83c1.37,0,2.07-1,2.11-3V58.57a4,4,0,0,0-.58-2.31,1.78,1.78,0,0,0-1.55-.84,1.76,1.76,0,0,0-1.53.84,4,4,0,0,0-.58,2.3Z" transform="translate(0 0)" fill="#4d4d4d"/>
          <path d="M343.41,63.77V55.51h-1.24V54.26h1.24v-1.1a3.49,3.49,0,0,1,.73-2.27,2.51,2.51,0,0,1,2-.81,3.08,3.08,0,0,1,.94.15L347,51.54a3.22,3.22,0,0,0-.71-.08c-.88,0-1.32.63-1.32,1.9v.9h1.62v1.25H345v8.26Z" transform="translate(0 0)" fill="#4d4d4d"/>
          <path d="M353.31,63.77a3.56,3.56,0,0,1-.2-1A2.46,2.46,0,0,1,351,63.94a2.72,2.72,0,0,1-2-.72,2.76,2.76,0,0,1-.73-2,2.89,2.89,0,0,1,1-2.3,4,4,0,0,1,2.69-.87h1.15V57a1.34,1.34,0,0,0-1.53-1.57,1.65,1.65,0,0,0-1.15.41,1.43,1.43,0,0,0-.44,1.06h-1.55a2.5,2.5,0,0,1,.43-1.39,3,3,0,0,1,1.16-1,3.53,3.53,0,0,1,1.63-.38,3,3,0,0,1,2.21.73,2.8,2.8,0,0,1,.78,2.11v4.8a6,6,0,0,0,.3,1.91v.14Zm-2.07-1.24a2.09,2.09,0,0,0,1.09-.32,1.92,1.92,0,0,0,.76-.79V59.15h-.88a2.93,2.93,0,0,0-1.75.5,1.56,1.56,0,0,0-.64,1.34,1.76,1.76,0,0,0,.32,1.17A1.39,1.39,0,0,0,351.24,62.53Z" transform="translate(0 0)" fill="#4d4d4d"/>
          <path d="M360.35,62.61a1.67,1.67,0,0,0,1.24-.47,2,2,0,0,0,.5-1.37h1.47a3.22,3.22,0,0,1-1,2.27,3.08,3.08,0,0,1-2.24.9,3.32,3.32,0,0,1-2.7-1.11,5,5,0,0,1-.93-3.31v-1a5,5,0,0,1,.93-3.28,3.27,3.27,0,0,1,2.69-1.12,3,3,0,0,1,2.31.92,3.76,3.76,0,0,1,.91,2.53h-1.47a2.59,2.59,0,0,0-.5-1.59,1.56,1.56,0,0,0-1.25-.52,1.77,1.77,0,0,0-1.54.68,3.93,3.93,0,0,0-.52,2.23v1.22a4.21,4.21,0,0,0,.5,2.37A1.8,1.8,0,0,0,360.35,62.61Z" transform="translate(0 0)" fill="#4d4d4d"/>
          <path d="M367.16,51.73a1,1,0,0,1-.22.66,1,1,0,0,1-1.33,0,1,1,0,0,1-.22-.66,1,1,0,0,1,.22-.66.79.79,0,0,1,.66-.28.82.82,0,0,1,.66.28A1,1,0,0,1,367.16,51.73Zm-.13,12h-1.55V54.26H367Z" transform="translate(0 0)" fill="#4d4d4d"/>
          <path d="M371.52,52v2.31H373v1.25h-1.43v5.91a1.63,1.63,0,0,0,.18.85.68.68,0,0,0,.63.29,2,2,0,0,0,.63-.1l0,1.31a3.59,3.59,0,0,1-1.08.17,1.65,1.65,0,0,1-1.41-.66,3.12,3.12,0,0,1-.48-1.86V55.51h-1.45V54.26H370V52Z" transform="translate(0 0)" fill="#4d4d4d"/>
          <path d="M376.6,51.73a1,1,0,0,1-.22.66,1,1,0,0,1-1.33,0,1,1,0,0,1-.22-.66,1,1,0,0,1,.22-.66.79.79,0,0,1,.66-.28.82.82,0,0,1,.66.28A1,1,0,0,1,376.6,51.73Zm-.13,12h-1.55V54.26h1.55Z" transform="translate(0 0)" fill="#4d4d4d"/>
          <path d="M380.39,54.26l0,1a2.77,2.77,0,0,1,2.31-1.2c1.68,0,2.53,1.12,2.56,3.37v6.32h-1.55V57.52a2.58,2.58,0,0,0-.37-1.59,1.35,1.35,0,0,0-1.12-.47,1.55,1.55,0,0,0-1,.39,2.78,2.78,0,0,0-.75,1v6.91h-1.55V54.26Z" transform="translate(0 0)" fill="#4d4d4d"/>
          <path d="M389.43,51.73a1,1,0,0,1-.22.66,1,1,0,0,1-1.33,0,1,1,0,0,1-.22-.66,1,1,0,0,1,.22-.66.79.79,0,0,1,.66-.28.85.85,0,0,1,.67.28A1.09,1.09,0,0,1,389.43,51.73Zm-.12,12h-1.56V54.26h1.56Z" transform="translate(0 0)" fill="#4d4d4d"/>
          <path d="M398.64,59.47a5.81,5.81,0,0,1-.8,3.35,2.67,2.67,0,0,1-2.32,1.12,2.46,2.46,0,0,1-2.27-1.3l-.08,1.13h-1.41V50.27h1.54v5a2.46,2.46,0,0,1,2.2-1.22,2.68,2.68,0,0,1,2.35,1.11,5.89,5.89,0,0,1,.79,3.34Zm-1.55-.89a4.46,4.46,0,0,0-.47-2.4,1.68,1.68,0,0,0-1.52-.72,1.92,1.92,0,0,0-1.8,1.3v4.52a1.91,1.91,0,0,0,1.82,1.28,1.63,1.63,0,0,0,1.51-.74,4.49,4.49,0,0,0,.46-2.29Z" transform="translate(0 0)" fill="#4d4d4d"/>
        </g>
        <path d="M401.53,57.77a2.37,2.37,0,0,1-.12-.6,1.43,1.43,0,0,1-1.23.7,1.47,1.47,0,0,1-1.6-1.61,1.7,1.7,0,0,1,.58-1.34,2.38,2.38,0,0,1,1.57-.51h.67v-.59a1,1,0,0,0-.22-.71,1.09,1.09,0,0,0-1.34,0,.82.82,0,0,0-.26.62h-.9a1.46,1.46,0,0,1,.25-.82,1.69,1.69,0,0,1,.67-.6,2,2,0,0,1,.95-.22,1.83,1.83,0,0,1,1.3.42,1.68,1.68,0,0,1,.45,1.23v2.8a3.32,3.32,0,0,0,.17,1.11v.08Zm-1.21-.72a1.22,1.22,0,0,0,1.08-.65V55.08h-.51a1.74,1.74,0,0,0-1,.29.93.93,0,0,0-.38.78,1,1,0,0,0,.19.69A.84.84,0,0,0,400.32,57.05Z" transform="translate(0 0)" fill="#4d4d4d"/>
        <g>
          <path d="M336.69,94.57a14.53,14.53,0,0,1,.62-4.33,11.75,11.75,0,0,1,1.77-3.56,5.67,5.67,0,0,1,1.33-1.35l.31,1.07a7.4,7.4,0,0,0-1.73,3,15.57,15.57,0,0,0-.74,4.53v.71a15.8,15.8,0,0,0,.87,5.46,7.83,7.83,0,0,0,1.61,2.76l-.31,1a6.53,6.53,0,0,1-1.64-1.8A13.28,13.28,0,0,1,336.69,94.57Z" transform="translate(0 0)" fill="#4d4d4d"/>
          <path d="M350.94,99.77h-1.61l-5.13-9.86v9.86h-1.62V87h1.62l5.14,9.9V87h1.6Z" transform="translate(0 0)" fill="#4d4d4d"/>
          <path d="M363.93,92.61h-6.16V91.2h6.16Zm0,3.65h-6.16V94.85h6.16Z" transform="translate(0 0)" fill="#4d4d4d"/>
          <path d="M376.83,90.31a3.38,3.38,0,0,1-.43,1.7,3.08,3.08,0,0,1-1.15,1.17,3.32,3.32,0,0,1,1.34,1.26,3.64,3.64,0,0,1,.48,1.87,3.7,3.7,0,0,1-.93,2.64,3.61,3.61,0,0,1-5,0,4.07,4.07,0,0,1-.46-4.52A3.18,3.18,0,0,1,372,93.17,2.93,2.93,0,0,1,370.89,92a3.4,3.4,0,0,1-.42-1.7,3.63,3.63,0,0,1,.88-2.57,3.27,3.27,0,0,1,4.6,0A3.67,3.67,0,0,1,376.83,90.31Zm-1.31,6a2.84,2.84,0,0,0-.52-1.77,1.65,1.65,0,0,0-1.36-.66,1.59,1.59,0,0,0-1.36.67,2.87,2.87,0,0,0-.5,1.76,2.67,2.67,0,0,0,.49,1.72A1.87,1.87,0,0,0,375,98,2.67,2.67,0,0,0,375.52,96.28Zm-.24-5.94a2.61,2.61,0,0,0-.46-1.6,1.44,1.44,0,0,0-2.35,0,3.08,3.08,0,0,0,0,3.19,1.47,1.47,0,0,0,2.36,0A2.64,2.64,0,0,0,375.28,90.34Z" transform="translate(0 0)" fill="#4d4d4d"/>
          <path d="M385.71,90.31a3.37,3.37,0,0,1-.42,1.7,3.15,3.15,0,0,1-1.15,1.17,3.3,3.3,0,0,1,1.33,1.26,3.55,3.55,0,0,1,.49,1.87A3.66,3.66,0,0,1,385,99a3.6,3.6,0,0,1-5,0,4.07,4.07,0,0,1-.46-4.52,3.15,3.15,0,0,1,1.3-1.26A3,3,0,0,1,379.77,92a3.5,3.5,0,0,1-.41-1.7,3.67,3.67,0,0,1,.87-2.57,3,3,0,0,1,2.31-.95,3,3,0,0,1,2.3.94A3.66,3.66,0,0,1,385.71,90.31Zm-1.31,6a2.78,2.78,0,0,0-.52-1.77,1.64,1.64,0,0,0-1.36-.66,1.6,1.6,0,0,0-1.36.67,2.87,2.87,0,0,0-.49,1.76,2.67,2.67,0,0,0,.49,1.72,1.87,1.87,0,0,0,2.76,0A2.73,2.73,0,0,0,384.4,96.28Zm-.23-5.94a2.68,2.68,0,0,0-.46-1.6,1.41,1.41,0,0,0-1.17-.61,1.39,1.39,0,0,0-1.19.61,2.66,2.66,0,0,0-.44,1.6,2.59,2.59,0,0,0,.45,1.59,1.48,1.48,0,0,0,2.37,0A2.64,2.64,0,0,0,384.17,90.34Z" transform="translate(0 0)" fill="#4d4d4d"/>
          <path d="M391.5,94.66a13.52,13.52,0,0,1-1.76,6.93,7.1,7.1,0,0,1-2,2.31l-.31-1a7.55,7.55,0,0,0,1.79-3.24,16.49,16.49,0,0,0,.69-4.79v-.32a15.46,15.46,0,0,0-1.1-6,7.28,7.28,0,0,0-1.38-2.26l.31-1a6.71,6.71,0,0,1,1.87,2.13A13.59,13.59,0,0,1,391.5,94.66Z" transform="translate(0 0)" fill="#4d4d4d"/>
        </g>
        <path d="M329.26,165.75h-7.4v-.92h7.4Z" transform="translate(0 0)" fill="#4d4d4d"/>
        <g>
          <path d="M338.39,166.42a8.1,8.1,0,0,1-.84,4.12,2.69,2.69,0,0,1-2.47,1.4,2.72,2.72,0,0,1-2.47-1.39,8,8,0,0,1-.86-4v-2.25a8.18,8.18,0,0,1,.83-4.08,2.9,2.9,0,0,1,4.94,0,7.8,7.8,0,0,1,.87,4Zm-1-2.29a7.36,7.36,0,0,0-.59-3.31,1.95,1.95,0,0,0-3.49,0,7,7,0,0,0-.62,3.18v2.59a7.31,7.31,0,0,0,.61,3.32,1.89,1.89,0,0,0,1.76,1.17,1.87,1.87,0,0,0,1.72-1.11,7.3,7.3,0,0,0,.61-3.27Z" transform="translate(0 0)" fill="#4d4d4d"/>
          <path d="M340.72,171.12a.78.78,0,0,1,.2-.53.71.71,0,0,1,.55-.21.72.72,0,0,1,.55.21.73.73,0,0,1,.2.53.66.66,0,0,1-.2.51.72.72,0,0,1-.55.21.71.71,0,0,1-.55-.21A.69.69,0,0,1,340.72,171.12Z" transform="translate(0 0)" fill="#4d4d4d"/>
          <path d="M350.4,167.64H352v.91H350.4v3.22h-1v-3.22h-5v-.62l4.95-9h1.06Zm-4.84,0h3.86v-7.19l-.35.71Z" transform="translate(0 0)" fill="#4d4d4d"/>
          <path d="M357.85,171.77h-1V160.26l-2.9,1.29v-1l3.71-1.62h.17Z" transform="translate(0 0)" fill="#4d4d4d"/>
          <path d="M366.49,166.6a15.63,15.63,0,0,1,.46-3.83,13.42,13.42,0,0,1,1.26-3.29,6.34,6.34,0,0,1,1.67-2.07l.23.74a5.75,5.75,0,0,0-1.33,1.92,12.88,12.88,0,0,0-1,3,18.53,18.53,0,0,0-.35,3.7,17.38,17.38,0,0,0,.35,3.5,13.54,13.54,0,0,0,1,3,6,6,0,0,0,1.33,1.95l-.23.7a5.51,5.51,0,0,1-1.21-1.3,10.13,10.13,0,0,1-1.1-2.08,14,14,0,0,1-.78-2.65A16.12,16.12,0,0,1,366.49,166.6Z" transform="translate(0 0)" fill="#4d4d4d"/>
          <path d="M378.23,166.42a8.1,8.1,0,0,1-.84,4.12,2.69,2.69,0,0,1-2.47,1.4,2.72,2.72,0,0,1-2.47-1.39,8,8,0,0,1-.86-4v-2.25a8.18,8.18,0,0,1,.83-4.08,2.9,2.9,0,0,1,4.94,0,7.6,7.6,0,0,1,.87,4Zm-1-2.29a7.36,7.36,0,0,0-.59-3.31,1.95,1.95,0,0,0-3.49,0,7,7,0,0,0-.62,3.18v2.59a7.45,7.45,0,0,0,.61,3.32,1.9,1.9,0,0,0,1.76,1.17,1.87,1.87,0,0,0,1.72-1.11,7.3,7.3,0,0,0,.61-3.27Z" transform="translate(0 0)" fill="#4d4d4d"/>
          <path d="M380.56,171.12a.78.78,0,0,1,.2-.53.71.71,0,0,1,.55-.21.72.72,0,0,1,.55.21.73.73,0,0,1,.2.53.66.66,0,0,1-.2.51.72.72,0,0,1-.55.21.71.71,0,0,1-.55-.21A.69.69,0,0,1,380.56,171.12Z" transform="translate(0 0)" fill="#4d4d4d"/>
          <path d="M386.71,164.79h1a2.41,2.41,0,0,0,1.74-.68,2.46,2.46,0,0,0,.66-1.8,2.89,2.89,0,0,0-.57-1.92,2,2,0,0,0-1.62-.68,2.05,2.05,0,0,0-1.64.72,2.81,2.81,0,0,0-.63,1.9h-1a4,4,0,0,1,.41-1.81,3,3,0,0,1,1.16-1.26,3.18,3.18,0,0,1,1.68-.47,3,3,0,0,1,2.31.94,3.73,3.73,0,0,1,.86,2.61,3.15,3.15,0,0,1-.5,1.73,3,3,0,0,1-1.33,1.14,2.76,2.76,0,0,1,1.49,1.11,3.51,3.51,0,0,1,.53,2,3.77,3.77,0,0,1-.91,2.66,3.14,3.14,0,0,1-2.42,1,3.52,3.52,0,0,1-1.76-.45,3.13,3.13,0,0,1-1.23-1.27,4,4,0,0,1-.44-1.92h1a2.8,2.8,0,0,0,.68,2,2.25,2.25,0,0,0,1.77.77,2.21,2.21,0,0,0,1.74-.7,3,3,0,0,0,.61-2,2.35,2.35,0,0,0-2.6-2.62h-1Z" transform="translate(0 0)" fill="#4d4d4d"/>
          <path d="M398.75,158.88v.94h-.15a3.61,3.61,0,0,0-2.93,1.32,6.24,6.24,0,0,0-1.2,3.7,3.23,3.23,0,0,1,1.12-1.09,2.9,2.9,0,0,1,1.48-.39,2.63,2.63,0,0,1,2.25,1.17,5.07,5.07,0,0,1,.84,3,5.16,5.16,0,0,1-.89,3.17,2.75,2.75,0,0,1-2.32,1.2,3,3,0,0,1-2.5-1.32,5.67,5.67,0,0,1-1-3.46v-1a9.3,9.3,0,0,1,1.3-5.36,4.39,4.39,0,0,1,3.74-1.88Zm-1.84,5.4a2.35,2.35,0,0,0-1.53.59,2.87,2.87,0,0,0-.92,1.47v.91a4.81,4.81,0,0,0,.7,2.73A2.1,2.1,0,0,0,397,171a1.88,1.88,0,0,0,1.63-1,4.4,4.4,0,0,0,.62-2.46,4.2,4.2,0,0,0-.62-2.42A1.91,1.91,0,0,0,396.91,164.28Z" transform="translate(0 0)" fill="#4d4d4d"/>
          <path d="M405.14,166.73a16.19,16.19,0,0,1-.44,3.79,12.83,12.83,0,0,1-1.24,3.27,6.34,6.34,0,0,1-1.72,2.11l-.22-.7a6.26,6.26,0,0,0,1.54-2.4,16.35,16.35,0,0,0,1.1-6.23,17.09,17.09,0,0,0-.35-3.47,13.9,13.9,0,0,0-1-3,5.94,5.94,0,0,0-1.33-2l.22-.7a6.59,6.59,0,0,1,1.81,2.32A14.89,14.89,0,0,1,405.14,166.73Z" transform="translate(0 0)" fill="#4d4d4d"/>
        </g>
        <g>
          <path d="M327.37,206.14,330,203l-2.53-3.08.64-.72,2.5,3,2.52-3,.63.72L331.23,203l2.63,3.19-.65.71-2.6-3.15-2.6,3.15Z" transform="translate(0 0)" fill="#4d4d4d"/>
          <path d="M344.21,207.77h-1V196.26l-2.89,1.29v-1l3.71-1.62h.17Z" transform="translate(0 0)" fill="#4d4d4d"/>
          <path d="M355.31,202.42a8.1,8.1,0,0,1-.84,4.12,2.69,2.69,0,0,1-2.47,1.4,2.72,2.72,0,0,1-2.47-1.39,8,8,0,0,1-.86-4v-2.25a8.07,8.07,0,0,1,.83-4.08,2.9,2.9,0,0,1,4.94,0,7.8,7.8,0,0,1,.87,4Zm-1-2.29a7.36,7.36,0,0,0-.59-3.31,1.95,1.95,0,0,0-3.49,0,7,7,0,0,0-.62,3.18v2.59a7.46,7.46,0,0,0,.6,3.32A1.91,1.91,0,0,0,352,207a1.85,1.85,0,0,0,1.71-1.11,7.29,7.29,0,0,0,.62-3.27Z" transform="translate(0 0)" fill="#4d4d4d"/>
        </g>
        <path d="M358.18,197.7h.56a1.34,1.34,0,0,0,1-.39,1.42,1.42,0,0,0,.39-1.05,1.7,1.7,0,0,0-.33-1.12,1.15,1.15,0,0,0-.94-.4,1.24,1.24,0,0,0-1,.42,1.66,1.66,0,0,0-.36,1.11H357a2.26,2.26,0,0,1,.24-1.05,1.74,1.74,0,0,1,.68-.74,1.83,1.83,0,0,1,1-.27,1.75,1.75,0,0,1,1.34.54,2.22,2.22,0,0,1,.5,1.53,1.83,1.83,0,0,1-.29,1,1.7,1.7,0,0,1-.78.67,1.56,1.56,0,0,1,.87.65,2,2,0,0,1,.31,1.14,2.25,2.25,0,0,1-.53,1.56,1.84,1.84,0,0,1-1.41.57,2,2,0,0,1-1-.26,1.77,1.77,0,0,1-.72-.74,2.34,2.34,0,0,1-.26-1.12h.57a1.6,1.6,0,0,0,.4,1.14,1.31,1.31,0,0,0,1,.45,1.28,1.28,0,0,0,1-.4,1.75,1.75,0,0,0,.36-1.18,1.35,1.35,0,0,0-1.51-1.52h-.56Z" transform="translate(0 0)" fill="#4d4d4d"/>
        <g>
          <path d="M362.72,208.86h-.88L366.33,195h.87Z" transform="translate(0 0)" fill="#4d4d4d"/>
          <path d="M370.06,198.26l0,1.42a2.77,2.77,0,0,1,2.54-1.6,2.27,2.27,0,0,1,2.38,1.75,3.23,3.23,0,0,1,1.15-1.31,2.91,2.91,0,0,1,1.55-.44c1.71,0,2.58,1.1,2.62,3.31v6.38h-1v-6.32a3.25,3.25,0,0,0-.46-1.84,1.66,1.66,0,0,0-1.44-.6,2.05,2.05,0,0,0-1.53.71,2.8,2.8,0,0,0-.71,1.72v6.33h-1v-6.3a3,3,0,0,0-.46-1.85,1.65,1.65,0,0,0-1.43-.61,2,2,0,0,0-1.39.56,3.23,3.23,0,0,0-.85,1.58v6.62h-1v-9.51Z" transform="translate(0 0)" fill="#4d4d4d"/>
          <path d="M383.78,198.26l0,1.42a2.79,2.79,0,0,1,2.55-1.6,2.27,2.27,0,0,1,2.38,1.75,3.23,3.23,0,0,1,1.15-1.31,2.91,2.91,0,0,1,1.55-.44c1.71,0,2.58,1.1,2.62,3.31v6.38h-1v-6.32a3.25,3.25,0,0,0-.46-1.84,1.66,1.66,0,0,0-1.44-.6,2.05,2.05,0,0,0-1.53.71,2.8,2.8,0,0,0-.71,1.72v6.33h-1v-6.3a3,3,0,0,0-.46-1.85,1.67,1.67,0,0,0-1.44-.61,1.94,1.94,0,0,0-1.38.56,3.23,3.23,0,0,0-.85,1.58v6.62h-1v-9.51Z" transform="translate(0 0)" fill="#4d4d4d"/>
        </g>
        <path d="M397.13,197.7h.55a1.38,1.38,0,0,0,1-.39,1.45,1.45,0,0,0,.38-1.05,1.7,1.7,0,0,0-.33-1.12,1.15,1.15,0,0,0-.94-.4,1.2,1.2,0,0,0-1,.42,1.62,1.62,0,0,0-.37,1.11h-.57a2.26,2.26,0,0,1,.24-1.05,1.74,1.74,0,0,1,.68-.74,1.83,1.83,0,0,1,1-.27,1.75,1.75,0,0,1,1.34.54,2.22,2.22,0,0,1,.5,1.53,1.83,1.83,0,0,1-.29,1,1.72,1.72,0,0,1-.77.67,1.63,1.63,0,0,1,.87.65,2.06,2.06,0,0,1,.3,1.14,2.2,2.2,0,0,1-.53,1.56,1.82,1.82,0,0,1-1.41.57,2,2,0,0,1-1-.26,1.83,1.83,0,0,1-.72-.74,2.34,2.34,0,0,1-.26-1.12h.57a1.6,1.6,0,0,0,.4,1.14,1.31,1.31,0,0,0,1,.45,1.27,1.27,0,0,0,1-.4,1.75,1.75,0,0,0,.37-1.18,1.37,1.37,0,0,0-1.52-1.52h-.55Z" transform="translate(0 0)" fill="#4d4d4d"/>
        <path d="M329.26,273.75h-7.4v-.92h7.4Z" transform="translate(0 0)" fill="#4d4d4d"/>
        <g>
          <path d="M338.39,274.42a8.1,8.1,0,0,1-.84,4.12,2.69,2.69,0,0,1-2.47,1.4,2.72,2.72,0,0,1-2.47-1.39,8,8,0,0,1-.86-4v-2.25a8.07,8.07,0,0,1,.83-4.08,2.9,2.9,0,0,1,4.94-.05,7.8,7.8,0,0,1,.87,4Zm-1-2.29a7.36,7.36,0,0,0-.59-3.31,1.95,1.95,0,0,0-3.49-.05,7,7,0,0,0-.62,3.18v2.59a7.46,7.46,0,0,0,.6,3.32,1.91,1.91,0,0,0,1.77,1.17,1.85,1.85,0,0,0,1.71-1.11,7.29,7.29,0,0,0,.62-3.27Z" transform="translate(0 0)" fill="#4d4d4d"/>
          <path d="M340.72,279.12a.73.73,0,0,1,.2-.53.71.71,0,0,1,.55-.21.72.72,0,0,1,.55.21.78.78,0,0,1,.2.53.69.69,0,0,1-.2.51.72.72,0,0,1-.55.21.71.71,0,0,1-.55-.21A.66.66,0,0,1,340.72,279.12Z" transform="translate(0 0)" fill="#4d4d4d"/>
          <path d="M350.4,275.64H352v.91H350.4v3.22h-1v-3.22h-5v-.62l4.95-9h1.06Zm-4.84,0h3.86v-7.19l-.35.71Z" transform="translate(0 0)" fill="#4d4d4d"/>
          <path d="M355.63,272.79h.95a2.41,2.41,0,0,0,1.74-.68,2.46,2.46,0,0,0,.66-1.8,2.89,2.89,0,0,0-.57-1.92,2,2,0,0,0-1.62-.68,2.05,2.05,0,0,0-1.64.72,2.81,2.81,0,0,0-.63,1.9h-1a4,4,0,0,1,.41-1.81,3,3,0,0,1,1.17-1.26,3.12,3.12,0,0,1,1.67-.47,3,3,0,0,1,2.31.94,3.73,3.73,0,0,1,.86,2.61,3.15,3.15,0,0,1-.5,1.73,3,3,0,0,1-1.33,1.14,2.76,2.76,0,0,1,1.49,1.11,3.43,3.43,0,0,1,.53,2,3.77,3.77,0,0,1-.91,2.66,3.14,3.14,0,0,1-2.42,1,3.55,3.55,0,0,1-1.76-.45,3.13,3.13,0,0,1-1.23-1.27,4,4,0,0,1-.44-1.92h1a2.8,2.8,0,0,0,.68,2,2.25,2.25,0,0,0,1.77.77,2.21,2.21,0,0,0,1.74-.7,3,3,0,0,0,.62-2,2.36,2.36,0,0,0-2.61-2.62h-.94Z" transform="translate(0 0)" fill="#4d4d4d"/>
          <path d="M366.49,274.6a15.63,15.63,0,0,1,.46-3.83,13.42,13.42,0,0,1,1.26-3.29,6.34,6.34,0,0,1,1.67-2.07l.23.74a5.76,5.76,0,0,0-1.34,1.92,13.38,13.38,0,0,0-.95,3,18.53,18.53,0,0,0-.35,3.7,17.38,17.38,0,0,0,.35,3.5,13,13,0,0,0,.95,3,6,6,0,0,0,1.34,1.95l-.23.7a5.51,5.51,0,0,1-1.21-1.3,10.65,10.65,0,0,1-1.11-2.08,15.61,15.61,0,0,1-.78-2.65A16.92,16.92,0,0,1,366.49,274.6Z" transform="translate(0 0)" fill="#4d4d4d"/>
          <path d="M378.23,274.42a8.1,8.1,0,0,1-.84,4.12,2.69,2.69,0,0,1-2.47,1.4,2.72,2.72,0,0,1-2.47-1.39,8,8,0,0,1-.86-4v-2.25a8.07,8.07,0,0,1,.83-4.08,2.9,2.9,0,0,1,4.94-.05,7.8,7.8,0,0,1,.87,4Zm-1-2.29a7.36,7.36,0,0,0-.59-3.31,1.95,1.95,0,0,0-3.49-.05,7,7,0,0,0-.62,3.18v2.59a7.46,7.46,0,0,0,.6,3.32,1.91,1.91,0,0,0,1.77,1.17,1.87,1.87,0,0,0,1.72-1.11,7.44,7.44,0,0,0,.61-3.27Z" transform="translate(0 0)" fill="#4d4d4d"/>
          <path d="M380.56,279.12a.78.78,0,0,1,.2-.53.71.71,0,0,1,.55-.21.72.72,0,0,1,.55.21.73.73,0,0,1,.2.53.66.66,0,0,1-.2.51.72.72,0,0,1-.55.21.71.71,0,0,1-.55-.21A.69.69,0,0,1,380.56,279.12Z" transform="translate(0 0)" fill="#4d4d4d"/>
          <path d="M386.71,272.79h1a2.42,2.42,0,0,0,1.74-.68,2.46,2.46,0,0,0,.66-1.8,2.89,2.89,0,0,0-.57-1.92,2,2,0,0,0-1.62-.68,2.09,2.09,0,0,0-1.65.72,2.81,2.81,0,0,0-.63,1.9h-1a3.86,3.86,0,0,1,.41-1.81,3,3,0,0,1,1.16-1.26,3.18,3.18,0,0,1,1.68-.47,3,3,0,0,1,2.3.94,3.69,3.69,0,0,1,.87,2.61,3.15,3.15,0,0,1-.5,1.73,3.07,3.07,0,0,1-1.33,1.14,2.76,2.76,0,0,1,1.49,1.11,3.51,3.51,0,0,1,.53,2,3.77,3.77,0,0,1-.92,2.66,3.11,3.11,0,0,1-2.41,1,3.52,3.52,0,0,1-1.76-.45,3.07,3.07,0,0,1-1.23-1.27,3.92,3.92,0,0,1-.44-1.92h1a2.8,2.8,0,0,0,.68,2,2.25,2.25,0,0,0,1.77.77,2.17,2.17,0,0,0,1.73-.7,2.9,2.9,0,0,0,.62-2,2.35,2.35,0,0,0-2.6-2.62h-1Z" transform="translate(0 0)" fill="#4d4d4d"/>
          <path d="M399,275.64h1.64v.91H399v3.22h-1v-3.22h-5v-.62l4.95-9H399Zm-4.83,0H398v-7.19l-.35.71Z" transform="translate(0 0)" fill="#4d4d4d"/>
          <path d="M405.13,274.73a16.19,16.19,0,0,1-.43,3.79,12.83,12.83,0,0,1-1.24,3.27,6.46,6.46,0,0,1-1.72,2.11l-.22-.7a6.26,6.26,0,0,0,1.54-2.4,16.35,16.35,0,0,0,1.1-6.23,17.09,17.09,0,0,0-.35-3.47,13.38,13.38,0,0,0-1-3,5.79,5.79,0,0,0-1.32-2l.22-.7a6.7,6.7,0,0,1,1.81,2.32A14.89,14.89,0,0,1,405.13,274.73Z" transform="translate(0 0)" fill="#4d4d4d"/>
        </g>
        <g>
          <path d="M327.37,314.14,330,311l-2.54-3.08.65-.72,2.5,3.05,2.51-3.05.64.72L331.23,311l2.62,3.19-.64.71-2.6-3.15-2.6,3.15Z" transform="translate(0 0)" fill="#4d4d4d"/>
          <path d="M344.21,315.77h-1V304.26l-2.89,1.29v-1l3.71-1.62h.17Z" transform="translate(0 0)" fill="#4d4d4d"/>
          <path d="M355.31,310.42a8.1,8.1,0,0,1-.84,4.12,2.88,2.88,0,0,1-4.94,0,7.94,7.94,0,0,1-.87-4v-2.25a8.06,8.06,0,0,1,.84-4.08,2.7,2.7,0,0,1,2.48-1.41,2.74,2.74,0,0,1,2.46,1.36,7.8,7.8,0,0,1,.87,4Zm-1-2.29a7.38,7.38,0,0,0-.58-3.31,1.95,1.95,0,0,0-3.49-.05,6.89,6.89,0,0,0-.62,3.18v2.59a7.46,7.46,0,0,0,.6,3.32A1.9,1.9,0,0,0,352,315a1.86,1.86,0,0,0,1.72-1.11,7.17,7.17,0,0,0,.61-3.27Z" transform="translate(0 0)" fill="#4d4d4d"/>
        </g>
        <path d="M358.18,305.7h.56a1.34,1.34,0,0,0,1-.39,1.42,1.42,0,0,0,.39-1.05,1.7,1.7,0,0,0-.33-1.12,1.15,1.15,0,0,0-.94-.4,1.24,1.24,0,0,0-1,.42,1.66,1.66,0,0,0-.36,1.11H357a2.26,2.26,0,0,1,.24-1,1.74,1.74,0,0,1,.68-.74,1.83,1.83,0,0,1,1-.27,1.75,1.75,0,0,1,1.34.54,2.22,2.22,0,0,1,.5,1.53,1.83,1.83,0,0,1-.29,1,1.7,1.7,0,0,1-.78.67,1.56,1.56,0,0,1,.87.65,2,2,0,0,1,.31,1.14,2.25,2.25,0,0,1-.53,1.56,1.84,1.84,0,0,1-1.41.57,2,2,0,0,1-1-.26,1.77,1.77,0,0,1-.72-.74,2.34,2.34,0,0,1-.26-1.12h.57a1.6,1.6,0,0,0,.4,1.14,1.31,1.31,0,0,0,1,.45,1.28,1.28,0,0,0,1-.4,1.75,1.75,0,0,0,.36-1.18,1.35,1.35,0,0,0-1.51-1.52h-.56Z" transform="translate(0 0)" fill="#4d4d4d"/>
        <g>
          <path d="M362.72,316.86h-.88L366.33,303h.87Z" transform="translate(0 0)" fill="#4d4d4d"/>
          <path d="M370.06,306.26l0,1.42a2.77,2.77,0,0,1,2.54-1.6,2.27,2.27,0,0,1,2.38,1.75,3.23,3.23,0,0,1,1.15-1.31,2.91,2.91,0,0,1,1.55-.44c1.71,0,2.58,1.1,2.62,3.31v6.38h-1v-6.32a3.25,3.25,0,0,0-.46-1.84,1.66,1.66,0,0,0-1.44-.6,2.05,2.05,0,0,0-1.53.71,2.8,2.8,0,0,0-.71,1.72v6.33h-1v-6.3a3,3,0,0,0-.46-1.85,1.65,1.65,0,0,0-1.43-.61,2,2,0,0,0-1.39.56,3.23,3.23,0,0,0-.85,1.58v6.62h-1v-9.51Z" transform="translate(0 0)" fill="#4d4d4d"/>
          <path d="M383.78,306.26l0,1.42a2.79,2.79,0,0,1,2.55-1.6,2.27,2.27,0,0,1,2.38,1.75,3.23,3.23,0,0,1,1.15-1.31,2.91,2.91,0,0,1,1.55-.44c1.71,0,2.58,1.1,2.62,3.31v6.38h-1v-6.32a3.25,3.25,0,0,0-.46-1.84,1.66,1.66,0,0,0-1.44-.6,2.05,2.05,0,0,0-1.53.71,2.8,2.8,0,0,0-.71,1.72v6.33h-1v-6.3a3,3,0,0,0-.46-1.85,1.67,1.67,0,0,0-1.44-.61,1.94,1.94,0,0,0-1.38.56,3.23,3.23,0,0,0-.85,1.58v6.62h-1v-9.51Z" transform="translate(0 0)" fill="#4d4d4d"/>
        </g>
        <path d="M397.13,305.7h.55a1.38,1.38,0,0,0,1-.39,1.45,1.45,0,0,0,.38-1.05,1.7,1.7,0,0,0-.33-1.12,1.15,1.15,0,0,0-.94-.4,1.2,1.2,0,0,0-1,.42,1.62,1.62,0,0,0-.37,1.11h-.57a2.26,2.26,0,0,1,.24-1,1.74,1.74,0,0,1,.68-.74,1.83,1.83,0,0,1,1-.27,1.75,1.75,0,0,1,1.34.54,2.22,2.22,0,0,1,.5,1.53,1.83,1.83,0,0,1-.29,1,1.72,1.72,0,0,1-.77.67,1.63,1.63,0,0,1,.87.65,2.06,2.06,0,0,1,.3,1.14,2.2,2.2,0,0,1-.53,1.56,1.82,1.82,0,0,1-1.41.57,2,2,0,0,1-1-.26,1.83,1.83,0,0,1-.72-.74,2.34,2.34,0,0,1-.26-1.12h.57a1.6,1.6,0,0,0,.4,1.14,1.31,1.31,0,0,0,1,.45,1.27,1.27,0,0,0,1-.4,1.75,1.75,0,0,0,.37-1.18,1.37,1.37,0,0,0-1.52-1.52h-.55Z" transform="translate(0 0)" fill="#4d4d4d"/>
        <g>
          <path d="M430.75,58.76v5h-1.61V51h4.08A3.69,3.69,0,0,1,436,52a3.94,3.94,0,0,1,1,2.84,3.88,3.88,0,0,1-1,2.84,3.77,3.77,0,0,1-2.74,1Zm0-1.38h2.47a2.08,2.08,0,0,0,1.64-.65,2.67,2.67,0,0,0,.57-1.84,2.71,2.71,0,0,0-.59-1.84,2,2,0,0,0-1.61-.7h-2.48Z" transform="translate(0 0)" fill="#4d4d4d"/>
          <path d="M440.57,63.77H439V50.27h1.55Z" transform="translate(0 0)" fill="#4d4d4d"/>
          <path d="M447.91,63.77a3.56,3.56,0,0,1-.2-1,2.46,2.46,0,0,1-2.11,1.21,2.76,2.76,0,0,1-2-.72,2.8,2.8,0,0,1-.72-2,2.91,2.91,0,0,1,1-2.3,4,4,0,0,1,2.7-.87h1.14V57a1.32,1.32,0,0,0-1.52-1.57,1.65,1.65,0,0,0-1.15.41,1.43,1.43,0,0,0-.44,1.06H443a2.5,2.5,0,0,1,.43-1.39,3,3,0,0,1,1.16-1,3.49,3.49,0,0,1,1.62-.38,3,3,0,0,1,2.22.73,2.8,2.8,0,0,1,.78,2.11v4.8a6,6,0,0,0,.3,1.91v.14Zm-2.07-1.24a2.09,2.09,0,0,0,1.09-.32,1.89,1.89,0,0,0,.75-.79V59.15h-.87a2.91,2.91,0,0,0-1.75.5,1.56,1.56,0,0,0-.64,1.34,1.71,1.71,0,0,0,.32,1.17A1.39,1.39,0,0,0,445.84,62.53Z" transform="translate(0 0)" fill="#4d4d4d"/>
          <path d="M454.94,62.61a1.64,1.64,0,0,0,1.24-.47,2.05,2.05,0,0,0,.51-1.37h1.47a3.22,3.22,0,0,1-1,2.27,3.08,3.08,0,0,1-2.25.9,3.32,3.32,0,0,1-2.69-1.11,5,5,0,0,1-.93-3.31v-1a5,5,0,0,1,.93-3.28,3.27,3.27,0,0,1,2.69-1.12,3,3,0,0,1,2.31.92,3.76,3.76,0,0,1,.91,2.53h-1.47a2.59,2.59,0,0,0-.5-1.59,1.56,1.56,0,0,0-1.25-.52,1.76,1.76,0,0,0-1.54.68,3.85,3.85,0,0,0-.52,2.23v1.22a4.13,4.13,0,0,0,.5,2.37A1.79,1.79,0,0,0,454.94,62.61Z" transform="translate(0 0)" fill="#4d4d4d"/>
          <path d="M463.36,63.94a3.46,3.46,0,0,1-2.73-1.06,4.61,4.61,0,0,1-1-3.1V58.62a5.34,5.34,0,0,1,.93-3.33,3.07,3.07,0,0,1,2.59-1.21,3,3,0,0,1,2.5,1.06,5.48,5.48,0,0,1,.84,3.32v1h-5.31v.22a3.41,3.41,0,0,0,.58,2.22,2,2,0,0,0,1.65.69,2.73,2.73,0,0,0,1.21-.25,3,3,0,0,0,1-.83l.81,1A3.51,3.51,0,0,1,463.36,63.94Zm-.18-8.52a1.63,1.63,0,0,0-1.43.66,3.93,3.93,0,0,0-.53,2.06H465v-.21a3.65,3.65,0,0,0-.48-1.93A1.51,1.51,0,0,0,463.18,55.42Z" transform="translate(0 0)" fill="#4d4d4d"/>
          <path d="M475.27,59.47a5.73,5.73,0,0,1-.8,3.35,2.65,2.65,0,0,1-2.32,1.12,2.45,2.45,0,0,1-2.26-1.3l-.08,1.13h-1.42V50.27h1.55v5a2.45,2.45,0,0,1,2.2-1.22,2.67,2.67,0,0,1,2.34,1.11,5.81,5.81,0,0,1,.79,3.34Zm-1.54-.89a4.56,4.56,0,0,0-.47-2.4,1.71,1.71,0,0,0-1.53-.72,1.9,1.9,0,0,0-1.79,1.3v4.52a1.9,1.9,0,0,0,1.81,1.28,1.62,1.62,0,0,0,1.51-.74,4.48,4.48,0,0,0,.47-2.29Z" transform="translate(0 0)" fill="#4d4d4d"/>
          <path d="M476.93,58.57a5,5,0,0,1,1-3.28,3.28,3.28,0,0,1,2.66-1.21,3.32,3.32,0,0,1,2.66,1.18,4.88,4.88,0,0,1,1,3.21v1a4.93,4.93,0,0,1-1,3.27,3.58,3.58,0,0,1-5.32,0,4.85,4.85,0,0,1-1-3.16Zm1.56.9a4,4,0,0,0,.58,2.31,1.78,1.78,0,0,0,1.55.83c1.37,0,2.07-1,2.12-3V58.57a4.11,4.11,0,0,0-.58-2.31,1.81,1.81,0,0,0-1.56-.84,1.76,1.76,0,0,0-1.53.84,4,4,0,0,0-.58,2.3Z" transform="translate(0 0)" fill="#4d4d4d"/>
        </g>
        <g>
          <path d="M429.07,94.57a14.53,14.53,0,0,1,.63-4.33,11.31,11.31,0,0,1,1.77-3.56,5.49,5.49,0,0,1,1.33-1.35l.31,1.07a7.4,7.4,0,0,0-1.73,3,15.57,15.57,0,0,0-.74,4.53v.71a15.8,15.8,0,0,0,.87,5.46,7.83,7.83,0,0,0,1.61,2.76l-.31,1a6.38,6.38,0,0,1-1.64-1.8A13.29,13.29,0,0,1,429.07,94.57Z" transform="translate(0 0)" fill="#4d4d4d"/>
          <path d="M443.33,99.77h-1.62l-5.12-9.86v9.86H435V87h1.62l5.14,9.9V87h1.6Z" transform="translate(0 0)" fill="#4d4d4d"/>
          <path d="M456.32,92.61h-6.16V91.2h6.16Zm0,3.65h-6.16V94.85h6.16Z" transform="translate(0 0)" fill="#4d4d4d"/>
          <path d="M469.21,90.31a3.37,3.37,0,0,1-.42,1.7,3.15,3.15,0,0,1-1.15,1.17A3.39,3.39,0,0,1,469,94.44a4.05,4.05,0,0,1-.46,4.51,3.6,3.6,0,0,1-5,0,4.07,4.07,0,0,1-.46-4.52,3.18,3.18,0,0,1,1.31-1.26A3,3,0,0,1,463.27,92a3.5,3.5,0,0,1-.41-1.7,3.67,3.67,0,0,1,.87-2.57,3.28,3.28,0,0,1,4.61,0A3.66,3.66,0,0,1,469.21,90.31Zm-1.31,6a2.84,2.84,0,0,0-.51-1.77,1.66,1.66,0,0,0-1.37-.66,1.58,1.58,0,0,0-1.35.67,2.81,2.81,0,0,0-.5,1.76,2.67,2.67,0,0,0,.49,1.72,1.87,1.87,0,0,0,2.76,0A2.73,2.73,0,0,0,467.9,96.28Zm-.23-5.94a2.68,2.68,0,0,0-.46-1.6,1.45,1.45,0,0,0-2.36,0,2.66,2.66,0,0,0-.43,1.6,2.58,2.58,0,0,0,.44,1.59,1.48,1.48,0,0,0,2.37,0A2.64,2.64,0,0,0,467.67,90.34Z" transform="translate(0 0)" fill="#4d4d4d"/>
          <path d="M472.15,93.35,472.7,87h5.57v1.5H474l-.3,3.49a2.92,2.92,0,0,1,1.71-.55,2.74,2.74,0,0,1,2.35,1.16,5.2,5.2,0,0,1,.85,3.12,4.8,4.8,0,0,1-.93,3.12,3.41,3.41,0,0,1-4.89.19,4.11,4.11,0,0,1-1-2.6h1.46a3,3,0,0,0,.63,1.66,1.65,1.65,0,0,0,1.3.55,1.6,1.6,0,0,0,1.41-.78,3.87,3.87,0,0,0,.51-2.12,3.5,3.5,0,0,0-.55-2,1.7,1.7,0,0,0-1.48-.79,1.83,1.83,0,0,0-1.24.4l-.41.41Z" transform="translate(0 0)" fill="#4d4d4d"/>
          <path d="M483.88,94.66a13.52,13.52,0,0,1-1.75,6.93,7.1,7.1,0,0,1-2,2.31l-.31-1a7.44,7.44,0,0,0,1.78-3.24,16.49,16.49,0,0,0,.7-4.79v-.32a15.46,15.46,0,0,0-1.1-6,7.68,7.68,0,0,0-1.38-2.26l.31-1A6.71,6.71,0,0,1,482,87.46,13.68,13.68,0,0,1,483.88,94.66Z" transform="translate(0 0)" fill="#4d4d4d"/>
        </g>
        <path d="M421.65,165.75h-7.4v-.92h7.4Z" transform="translate(0 0)" fill="#4d4d4d"/>
        <g>
          <path d="M430.78,166.42a8.1,8.1,0,0,1-.84,4.12,2.69,2.69,0,0,1-2.47,1.4,2.72,2.72,0,0,1-2.47-1.39,7.85,7.85,0,0,1-.86-4v-2.25a8.07,8.07,0,0,1,.83-4.08,2.9,2.9,0,0,1,4.94,0,7.8,7.8,0,0,1,.87,4Zm-1-2.29a7.36,7.36,0,0,0-.59-3.31,1.95,1.95,0,0,0-3.49,0,7,7,0,0,0-.62,3.18v2.59a7.46,7.46,0,0,0,.6,3.32,1.9,1.9,0,0,0,1.77,1.17,1.85,1.85,0,0,0,1.71-1.11,7.29,7.29,0,0,0,.62-3.27Z" transform="translate(0 0)" fill="#4d4d4d"/>
          <path d="M433.11,171.12a.73.73,0,0,1,.2-.53.71.71,0,0,1,.55-.21.74.74,0,0,1,.55.21.78.78,0,0,1,.2.53.69.69,0,0,1-.2.51.74.74,0,0,1-.55.21.71.71,0,0,1-.55-.21A.66.66,0,0,1,433.11,171.12Z" transform="translate(0 0)" fill="#4d4d4d"/>
          <path d="M443.83,166.42a8.1,8.1,0,0,1-.84,4.12,2.69,2.69,0,0,1-2.47,1.4,2.72,2.72,0,0,1-2.47-1.39,8,8,0,0,1-.86-4v-2.25a8.18,8.18,0,0,1,.83-4.08,2.9,2.9,0,0,1,4.94,0,7.8,7.8,0,0,1,.87,4Zm-1-2.29a7.36,7.36,0,0,0-.59-3.31,1.95,1.95,0,0,0-3.49,0,7,7,0,0,0-.62,3.18v2.59a7.31,7.31,0,0,0,.61,3.32,1.89,1.89,0,0,0,1.76,1.17,1.87,1.87,0,0,0,1.72-1.11,7.3,7.3,0,0,0,.61-3.27Z" transform="translate(0 0)" fill="#4d4d4d"/>
          <path d="M451.51,165.93a3.49,3.49,0,0,1-1.15,1.2,2.72,2.72,0,0,1-1.47.44,2.63,2.63,0,0,1-2.23-1.21,5.19,5.19,0,0,1-.85-3.08,5.51,5.51,0,0,1,.89-3.22,2.79,2.79,0,0,1,2.37-1.27,2.86,2.86,0,0,1,2.52,1.35,6.83,6.83,0,0,1,.9,3.82v.95a9,9,0,0,1-1.22,5.21,4.32,4.32,0,0,1-3.72,1.73h-.26v-.93h.29a3.52,3.52,0,0,0,2.88-1.25A6.13,6.13,0,0,0,451.51,165.93Zm-2.49.72a2.2,2.2,0,0,0,1.5-.6,3.42,3.42,0,0,0,1-1.62v-.64a5.79,5.79,0,0,0-.66-3,2,2,0,0,0-1.78-1.09,1.91,1.91,0,0,0-1.66,1,4.51,4.51,0,0,0-.65,2.53,4.4,4.4,0,0,0,.62,2.44A1.87,1.87,0,0,0,449,166.65Z" transform="translate(0 0)" fill="#4d4d4d"/>
          <path d="M458.88,166.6a15.63,15.63,0,0,1,.46-3.83,13.42,13.42,0,0,1,1.26-3.29,6.22,6.22,0,0,1,1.67-2.07l.23.74a5.76,5.76,0,0,0-1.34,1.92,13.38,13.38,0,0,0-1,3,18.53,18.53,0,0,0-.35,3.7,17.38,17.38,0,0,0,.35,3.5,13,13,0,0,0,1,3,6,6,0,0,0,1.34,1.95l-.23.7a5.51,5.51,0,0,1-1.21-1.3,10.65,10.65,0,0,1-1.11-2.08,15.61,15.61,0,0,1-.78-2.65A16.92,16.92,0,0,1,458.88,166.6Z" transform="translate(0 0)" fill="#4d4d4d"/>
          <path d="M470.62,166.42a8.1,8.1,0,0,1-.84,4.12,2.69,2.69,0,0,1-2.47,1.4,2.72,2.72,0,0,1-2.47-1.39,8,8,0,0,1-.86-4v-2.25a8.07,8.07,0,0,1,.83-4.08,2.9,2.9,0,0,1,4.94,0,7.8,7.8,0,0,1,.87,4Zm-1-2.29a7.36,7.36,0,0,0-.59-3.31,1.95,1.95,0,0,0-3.49,0,7,7,0,0,0-.62,3.18v2.59a7.46,7.46,0,0,0,.6,3.32,1.91,1.91,0,0,0,1.77,1.17,1.85,1.85,0,0,0,1.71-1.11,7.29,7.29,0,0,0,.62-3.27Z" transform="translate(0 0)" fill="#4d4d4d"/>
          <path d="M473,171.12a.73.73,0,0,1,.2-.53.71.71,0,0,1,.55-.21.72.72,0,0,1,.55.21.73.73,0,0,1,.2.53.66.66,0,0,1-.2.51.72.72,0,0,1-.55.21.71.71,0,0,1-.55-.21A.66.66,0,0,1,473,171.12Z" transform="translate(0 0)" fill="#4d4d4d"/>
          <path d="M479.1,164.79h1a2.3,2.3,0,0,0,2.4-2.48,2.89,2.89,0,0,0-.57-1.92,2,2,0,0,0-1.62-.68,2.09,2.09,0,0,0-1.65.72,2.81,2.81,0,0,0-.63,1.9h-1a3.86,3.86,0,0,1,.41-1.81,3,3,0,0,1,1.16-1.26,3.18,3.18,0,0,1,1.68-.47,3,3,0,0,1,2.3.94,3.69,3.69,0,0,1,.86,2.61,3.14,3.14,0,0,1-.49,1.73,3.07,3.07,0,0,1-1.33,1.14,2.76,2.76,0,0,1,1.49,1.11,3.51,3.51,0,0,1,.53,2,3.77,3.77,0,0,1-.92,2.66,3.12,3.12,0,0,1-2.41,1,3.52,3.52,0,0,1-1.76-.45,3.16,3.16,0,0,1-1.24-1.27,4,4,0,0,1-.43-1.92h1a2.81,2.81,0,0,0,.69,2,2.25,2.25,0,0,0,1.77.77,2.17,2.17,0,0,0,1.73-.7,2.9,2.9,0,0,0,.62-2,2.35,2.35,0,0,0-2.6-2.62h-.95Z" transform="translate(0 0)" fill="#4d4d4d"/>
          <path d="M490.08,171.77h-1V160.26l-2.89,1.29v-1l3.71-1.62h.17Z" transform="translate(0 0)" fill="#4d4d4d"/>
          <path d="M497.52,166.73a16.19,16.19,0,0,1-.43,3.79,12.83,12.83,0,0,1-1.24,3.27,6.46,6.46,0,0,1-1.72,2.11l-.22-.7a6.26,6.26,0,0,0,1.54-2.4,16.35,16.35,0,0,0,1.1-6.23,17.09,17.09,0,0,0-.35-3.47,13.38,13.38,0,0,0-1-3,5.79,5.79,0,0,0-1.32-2l.22-.7a6.7,6.7,0,0,1,1.81,2.32A14.89,14.89,0,0,1,497.52,166.73Z" transform="translate(0 0)" fill="#4d4d4d"/>
        </g>
        <g>
          <path d="M419.76,206.14l2.63-3.19-2.54-3.08.65-.72,2.5,3,2.51-3,.64.72L423.62,203l2.62,3.19-.64.71L423,203.7l-2.6,3.15Z" transform="translate(0 0)" fill="#4d4d4d"/>
          <path d="M436.6,207.77h-1V196.26l-2.89,1.29v-1l3.71-1.62h.17Z" transform="translate(0 0)" fill="#4d4d4d"/>
          <path d="M447.7,202.42a8.1,8.1,0,0,1-.84,4.12,2.88,2.88,0,0,1-4.94,0,7.84,7.84,0,0,1-.87-4v-2.25a8.06,8.06,0,0,1,.84-4.08,2.7,2.7,0,0,1,2.48-1.41,2.75,2.75,0,0,1,2.46,1.36,7.8,7.8,0,0,1,.87,4Zm-1-2.29a7.38,7.38,0,0,0-.58-3.31,1.95,1.95,0,0,0-3.49,0A6.89,6.89,0,0,0,442,200v2.59a7.46,7.46,0,0,0,.6,3.32,1.9,1.9,0,0,0,1.76,1.17,1.86,1.86,0,0,0,1.72-1.11,7.17,7.17,0,0,0,.61-3.27Z" transform="translate(0 0)" fill="#4d4d4d"/>
        </g>
        <path d="M450.57,197.7h.56a1.37,1.37,0,0,0,1-.39,1.45,1.45,0,0,0,.38-1.05,1.7,1.7,0,0,0-.33-1.12,1.15,1.15,0,0,0-.94-.4,1.2,1.2,0,0,0-1,.42,1.62,1.62,0,0,0-.37,1.11h-.57a2.26,2.26,0,0,1,.24-1.05,1.8,1.8,0,0,1,.68-.74,1.83,1.83,0,0,1,1-.27,1.73,1.73,0,0,1,1.34.54,2.17,2.17,0,0,1,.5,1.53,1.75,1.75,0,0,1-.29,1,1.72,1.72,0,0,1-.77.67,1.63,1.63,0,0,1,.87.65,2.06,2.06,0,0,1,.31,1.14,2.21,2.21,0,0,1-.54,1.56,1.82,1.82,0,0,1-1.41.57,2,2,0,0,1-1-.26,1.83,1.83,0,0,1-.72-.74,2.34,2.34,0,0,1-.26-1.12h.57a1.65,1.65,0,0,0,.4,1.14,1.32,1.32,0,0,0,1,.45,1.3,1.3,0,0,0,1-.4,1.75,1.75,0,0,0,.36-1.18,1.54,1.54,0,0,0-.39-1.13,1.52,1.52,0,0,0-1.13-.39h-.55Z" transform="translate(0 0)" fill="#4d4d4d"/>
        <g>
          <path d="M455.1,208.86h-.88l4.5-13.89h.87Z" transform="translate(0 0)" fill="#4d4d4d"/>
          <path d="M462.44,198.26l0,1.42a2.77,2.77,0,0,1,2.55-1.6,2.26,2.26,0,0,1,2.37,1.75,3.18,3.18,0,0,1,1.16-1.31,2.87,2.87,0,0,1,1.54-.44c1.71,0,2.59,1.1,2.63,3.31v6.38h-1v-6.32a3.17,3.17,0,0,0-.46-1.84,1.66,1.66,0,0,0-1.44-.6,2.05,2.05,0,0,0-1.53.71,2.85,2.85,0,0,0-.71,1.72v6.33h-1v-6.3a3,3,0,0,0-.47-1.85,1.65,1.65,0,0,0-1.43-.61,2,2,0,0,0-1.39.56,3.15,3.15,0,0,0-.84,1.58v6.62h-1v-9.51Z" transform="translate(0 0)" fill="#4d4d4d"/>
          <path d="M476.16,198.26l0,1.42a2.77,2.77,0,0,1,2.55-1.6,2.26,2.26,0,0,1,2.37,1.75,3.23,3.23,0,0,1,1.15-1.31,2.93,2.93,0,0,1,1.55-.44c1.71,0,2.58,1.1,2.63,3.31v6.38h-1v-6.32a3.17,3.17,0,0,0-.46-1.84,1.66,1.66,0,0,0-1.44-.6,2.05,2.05,0,0,0-1.53.71,2.85,2.85,0,0,0-.71,1.72v6.33h-1v-6.3a3,3,0,0,0-.47-1.85,1.65,1.65,0,0,0-1.43-.61,2,2,0,0,0-1.39.56,3.15,3.15,0,0,0-.84,1.58v6.62h-1v-9.51Z" transform="translate(0 0)" fill="#4d4d4d"/>
        </g>
        <path d="M489.51,197.7h.56a1.37,1.37,0,0,0,1-.39,1.42,1.42,0,0,0,.39-1.05,1.7,1.7,0,0,0-.34-1.12,1.14,1.14,0,0,0-.94-.4,1.2,1.2,0,0,0-1,.42,1.62,1.62,0,0,0-.37,1.11h-.57a2.26,2.26,0,0,1,.24-1.05,1.8,1.8,0,0,1,.68-.74,1.83,1.83,0,0,1,1-.27,1.73,1.73,0,0,1,1.34.54,2.17,2.17,0,0,1,.5,1.53,1.75,1.75,0,0,1-.29,1,1.72,1.72,0,0,1-.77.67,1.63,1.63,0,0,1,.87.65,2.06,2.06,0,0,1,.31,1.14,2.21,2.21,0,0,1-.54,1.56,1.82,1.82,0,0,1-1.4.57,2,2,0,0,1-1-.26,1.83,1.83,0,0,1-.72-.74,2.34,2.34,0,0,1-.25-1.12h.57a1.64,1.64,0,0,0,.39,1.14,1.33,1.33,0,0,0,1,.45,1.28,1.28,0,0,0,1-.4,1.75,1.75,0,0,0,.36-1.18,1.54,1.54,0,0,0-.39-1.13,1.52,1.52,0,0,0-1.13-.39h-.55Z" transform="translate(0 0)" fill="#4d4d4d"/>
        <path d="M421.64,273.75h-7.39v-.92h7.39Z" transform="translate(0 0)" fill="#4d4d4d"/>
        <g>
          <path d="M430.77,274.42a8.1,8.1,0,0,1-.84,4.12,2.69,2.69,0,0,1-2.47,1.4,2.72,2.72,0,0,1-2.47-1.39,8,8,0,0,1-.86-4v-2.25a8.18,8.18,0,0,1,.83-4.08,2.9,2.9,0,0,1,4.94-.05,7.6,7.6,0,0,1,.87,4Zm-1-2.29a7.36,7.36,0,0,0-.59-3.31,1.95,1.95,0,0,0-3.49-.05,7,7,0,0,0-.62,3.18v2.59a7.45,7.45,0,0,0,.61,3.32,1.9,1.9,0,0,0,1.76,1.17,1.87,1.87,0,0,0,1.72-1.11,7.3,7.3,0,0,0,.61-3.27Z" transform="translate(0 0)" fill="#4d4d4d"/>
          <path d="M433.1,279.12a.78.78,0,0,1,.2-.53.71.71,0,0,1,.55-.21.72.72,0,0,1,.55.21.73.73,0,0,1,.2.53.66.66,0,0,1-.2.51.72.72,0,0,1-.55.21.71.71,0,0,1-.55-.21A.69.69,0,0,1,433.1,279.12Z" transform="translate(0 0)" fill="#4d4d4d"/>
          <path d="M444.08,279.77h-6.79v-.84l3.64-4.9a12,12,0,0,0,1.28-2.09,4,4,0,0,0,.36-1.61,2.89,2.89,0,0,0-.58-1.91,1.91,1.91,0,0,0-1.59-.71,2.08,2.08,0,0,0-1.73.82,3.42,3.42,0,0,0-.64,2.13h-1a4.14,4.14,0,0,1,.92-2.77,3,3,0,0,1,2.42-1.1,3,3,0,0,1,2.31.91,3.55,3.55,0,0,1,.85,2.53,6.67,6.67,0,0,1-1.39,3.59l-.56.81-3.13,4.22h5.6Z" transform="translate(0 0)" fill="#4d4d4d"/>
          <path d="M448,272.79h1a2.4,2.4,0,0,0,1.73-.68,2.47,2.47,0,0,0,.67-1.8,2.84,2.84,0,0,0-.58-1.92,2,2,0,0,0-1.61-.68,2.09,2.09,0,0,0-1.65.72,2.81,2.81,0,0,0-.63,1.9h-1a4,4,0,0,1,.4-1.81,3,3,0,0,1,1.17-1.26,3.13,3.13,0,0,1,1.68-.47,3,3,0,0,1,2.3.94,3.73,3.73,0,0,1,.86,2.61,3.07,3.07,0,0,1-.5,1.73,3,3,0,0,1-1.33,1.14,2.74,2.74,0,0,1,1.5,1.11,3.51,3.51,0,0,1,.52,2,3.77,3.77,0,0,1-.91,2.66,3.13,3.13,0,0,1-2.42,1,3.48,3.48,0,0,1-1.75-.45,3.1,3.1,0,0,1-1.24-1.27,4,4,0,0,1-.43-1.92h1a2.85,2.85,0,0,0,.68,2,2.28,2.28,0,0,0,1.77.77,2.18,2.18,0,0,0,1.74-.7,3,3,0,0,0,.62-2,2.36,2.36,0,0,0-2.6-2.62H448Z" transform="translate(0 0)" fill="#4d4d4d"/>
          <path d="M458.87,274.6a16.13,16.13,0,0,1,.46-3.83,13.42,13.42,0,0,1,1.26-3.29,6.34,6.34,0,0,1,1.67-2.07l.23.74a5.75,5.75,0,0,0-1.33,1.92,12.88,12.88,0,0,0-1,3,18.56,18.56,0,0,0-.34,3.7,17.39,17.39,0,0,0,.34,3.5,13.54,13.54,0,0,0,1,3,6,6,0,0,0,1.33,1.95l-.23.7a5.73,5.73,0,0,1-1.21-1.3,10.13,10.13,0,0,1-1.1-2.08,14,14,0,0,1-.78-2.65A16.12,16.12,0,0,1,458.87,274.6Z" transform="translate(0 0)" fill="#4d4d4d"/>
          <path d="M470.61,274.42a8.1,8.1,0,0,1-.84,4.12,2.69,2.69,0,0,1-2.47,1.4,2.72,2.72,0,0,1-2.47-1.39,8,8,0,0,1-.86-4v-2.25a8.18,8.18,0,0,1,.83-4.08,2.9,2.9,0,0,1,4.94-.05,7.6,7.6,0,0,1,.87,4Zm-1-2.29a7.52,7.52,0,0,0-.58-3.31,2,2,0,0,0-3.5-.05,6.91,6.91,0,0,0-.61,3.18v2.59a7.46,7.46,0,0,0,.6,3.32A1.9,1.9,0,0,0,467.3,279a1.87,1.87,0,0,0,1.72-1.11,7.3,7.3,0,0,0,.61-3.27Z" transform="translate(0 0)" fill="#4d4d4d"/>
          <path d="M472.94,279.12a.78.78,0,0,1,.2-.53.83.83,0,0,1,1.1,0,.74.74,0,0,1,.21.53.66.66,0,0,1-.21.51.83.83,0,0,1-1.1,0A.69.69,0,0,1,472.94,279.12Z" transform="translate(0 0)" fill="#4d4d4d"/>
          <path d="M483.92,279.77h-6.78v-.84l3.63-4.9a12,12,0,0,0,1.28-2.09,4,4,0,0,0,.36-1.61,2.89,2.89,0,0,0-.58-1.91,1.91,1.91,0,0,0-1.59-.71,2.08,2.08,0,0,0-1.73.82,3.42,3.42,0,0,0-.64,2.13h-1a4.19,4.19,0,0,1,.92-2.77,3.29,3.29,0,0,1,4.73-.19,3.55,3.55,0,0,1,.85,2.53,6.67,6.67,0,0,1-1.39,3.59l-.56.81-3.13,4.22h5.6Z" transform="translate(0 0)" fill="#4d4d4d"/>
          <path d="M491.35,273.93a3.58,3.58,0,0,1-1.15,1.2,2.77,2.77,0,0,1-1.48.44,2.6,2.6,0,0,1-2.22-1.21,5.19,5.19,0,0,1-.86-3.08,5.51,5.51,0,0,1,.89-3.22,2.79,2.79,0,0,1,2.37-1.27,2.86,2.86,0,0,1,2.52,1.35,6.83,6.83,0,0,1,.9,3.82v1a9,9,0,0,1-1.22,5.21,4.29,4.29,0,0,1-3.72,1.73h-.26v-.93h.28a3.53,3.53,0,0,0,2.89-1.25A6.13,6.13,0,0,0,491.35,273.93Zm-2.5.72a2.25,2.25,0,0,0,1.51-.6,3.58,3.58,0,0,0,1-1.62v-.64a5.78,5.78,0,0,0-.67-3,2,2,0,0,0-1.78-1.09,1.92,1.92,0,0,0-1.66,1,4.59,4.59,0,0,0-.65,2.53,4.49,4.49,0,0,0,.62,2.44A1.87,1.87,0,0,0,488.85,274.65Z" transform="translate(0 0)" fill="#4d4d4d"/>
          <path d="M497.52,274.73a16.19,16.19,0,0,1-.44,3.79,12.83,12.83,0,0,1-1.24,3.27,6.34,6.34,0,0,1-1.72,2.11l-.22-.7a6.26,6.26,0,0,0,1.54-2.4,16.16,16.16,0,0,0,1.1-6.23,16.4,16.4,0,0,0-.35-3.47,13.9,13.9,0,0,0-1-3,5.94,5.94,0,0,0-1.33-2l.22-.7a6.59,6.59,0,0,1,1.81,2.32A14.89,14.89,0,0,1,497.52,274.73Z" transform="translate(0 0)" fill="#4d4d4d"/>
        </g>
        <g>
          <path d="M419.75,314.14l2.63-3.19-2.53-3.08.64-.72,2.5,3.05,2.52-3.05.63.72L423.61,311l2.63,3.19-.65.71L423,311.7l-2.6,3.15Z" transform="translate(0 0)" fill="#4d4d4d"/>
          <path d="M436.59,315.77h-1V304.26l-2.9,1.29v-1l3.71-1.62h.17Z" transform="translate(0 0)" fill="#4d4d4d"/>
          <path d="M447.69,310.42a8.1,8.1,0,0,1-.84,4.12,2.69,2.69,0,0,1-2.47,1.4,2.72,2.72,0,0,1-2.47-1.39,8,8,0,0,1-.86-4v-2.25a8.07,8.07,0,0,1,.83-4.08,2.9,2.9,0,0,1,4.94-.05,7.8,7.8,0,0,1,.87,4Zm-1-2.29a7.36,7.36,0,0,0-.59-3.31,1.95,1.95,0,0,0-3.49-.05A7,7,0,0,0,442,308v2.59a7.46,7.46,0,0,0,.6,3.32,1.91,1.91,0,0,0,1.77,1.17,1.85,1.85,0,0,0,1.71-1.11,7.29,7.29,0,0,0,.62-3.27Z" transform="translate(0 0)" fill="#4d4d4d"/>
        </g>
        <path d="M450.57,305.7h.56a1.37,1.37,0,0,0,1-.39,1.45,1.45,0,0,0,.38-1.05,1.7,1.7,0,0,0-.33-1.12,1.15,1.15,0,0,0-.94-.4,1.2,1.2,0,0,0-1,.42,1.62,1.62,0,0,0-.37,1.11h-.57a2.26,2.26,0,0,1,.24-1,1.8,1.8,0,0,1,.68-.74,1.83,1.83,0,0,1,1-.27,1.73,1.73,0,0,1,1.34.54,2.17,2.17,0,0,1,.5,1.53,1.75,1.75,0,0,1-.29,1,1.72,1.72,0,0,1-.77.67,1.63,1.63,0,0,1,.87.65,2.06,2.06,0,0,1,.31,1.14,2.21,2.21,0,0,1-.54,1.56,1.82,1.82,0,0,1-1.41.57,2,2,0,0,1-1-.26,1.83,1.83,0,0,1-.72-.74,2.34,2.34,0,0,1-.26-1.12h.57a1.65,1.65,0,0,0,.4,1.14,1.32,1.32,0,0,0,1,.45,1.3,1.3,0,0,0,1-.4,1.75,1.75,0,0,0,.36-1.18,1.54,1.54,0,0,0-.39-1.13,1.52,1.52,0,0,0-1.13-.39h-.55Z" transform="translate(0 0)" fill="#4d4d4d"/>
        <g>
          <path d="M455.1,316.86h-.88l4.5-13.89h.87Z" transform="translate(0 0)" fill="#4d4d4d"/>
          <path d="M462.44,306.26l0,1.42a2.77,2.77,0,0,1,2.55-1.6,2.26,2.26,0,0,1,2.37,1.75,3.18,3.18,0,0,1,1.16-1.31,2.87,2.87,0,0,1,1.54-.44c1.71,0,2.59,1.1,2.63,3.31v6.38h-1v-6.32a3.17,3.17,0,0,0-.46-1.84,1.66,1.66,0,0,0-1.44-.6,2.05,2.05,0,0,0-1.53.71,2.85,2.85,0,0,0-.71,1.72v6.33h-1v-6.3a3,3,0,0,0-.47-1.85,1.65,1.65,0,0,0-1.43-.61,2,2,0,0,0-1.39.56,3.15,3.15,0,0,0-.84,1.58v6.62h-1v-9.51Z" transform="translate(0 0)" fill="#4d4d4d"/>
          <path d="M476.16,306.26l0,1.42a2.77,2.77,0,0,1,2.55-1.6,2.26,2.26,0,0,1,2.37,1.75,3.23,3.23,0,0,1,1.15-1.31,2.93,2.93,0,0,1,1.55-.44c1.71,0,2.58,1.1,2.63,3.31v6.38h-1v-6.32a3.17,3.17,0,0,0-.46-1.84,1.66,1.66,0,0,0-1.44-.6,2.05,2.05,0,0,0-1.53.71,2.85,2.85,0,0,0-.71,1.72v6.33h-1v-6.3a3,3,0,0,0-.47-1.85,1.65,1.65,0,0,0-1.43-.61,2,2,0,0,0-1.39.56,3.15,3.15,0,0,0-.84,1.58v6.62h-1v-9.51Z" transform="translate(0 0)" fill="#4d4d4d"/>
        </g>
        <path d="M489.51,305.7h.56a1.37,1.37,0,0,0,1-.39,1.42,1.42,0,0,0,.39-1.05,1.7,1.7,0,0,0-.34-1.12,1.14,1.14,0,0,0-.94-.4,1.2,1.2,0,0,0-1,.42,1.62,1.62,0,0,0-.37,1.11h-.57a2.26,2.26,0,0,1,.24-1,1.8,1.8,0,0,1,.68-.74,1.83,1.83,0,0,1,1-.27,1.73,1.73,0,0,1,1.34.54,2.17,2.17,0,0,1,.5,1.53,1.75,1.75,0,0,1-.29,1,1.72,1.72,0,0,1-.77.67,1.63,1.63,0,0,1,.87.65,2.06,2.06,0,0,1,.31,1.14,2.21,2.21,0,0,1-.54,1.56,1.82,1.82,0,0,1-1.4.57,2,2,0,0,1-1-.26,1.83,1.83,0,0,1-.72-.74,2.34,2.34,0,0,1-.25-1.12h.57a1.64,1.64,0,0,0,.39,1.14,1.33,1.33,0,0,0,1,.45,1.28,1.28,0,0,0,1-.4,1.75,1.75,0,0,0,.36-1.18,1.54,1.54,0,0,0-.39-1.13,1.52,1.52,0,0,0-1.13-.39h-.55Z" transform="translate(0 0)" fill="#4d4d4d"/>
        <g>
          <path d="M353,28.09V15.29h3.39a4.69,4.69,0,0,1,3.57,1.42,5.59,5.59,0,0,1,1.36,3.91v2.07a5.64,5.64,0,0,1-1.33,4,4.75,4.75,0,0,1-3.67,1.44Zm2.59-10.65v8.5h.77a2.15,2.15,0,0,0,1.82-.68,4,4,0,0,0,.55-2.35V20.69a4.48,4.48,0,0,0-.5-2.5,2,2,0,0,0-1.7-.75Z" transform="translate(0 0)" fill="#fff"/>
          <path d="M363.13,28.09V15.29h4a4.58,4.58,0,0,1,3,.89,3.26,3.26,0,0,1,1.05,2.62,3.14,3.14,0,0,1-.44,1.68,2.47,2.47,0,0,1-1.17,1,2.28,2.28,0,0,1,1.32,1,3.42,3.42,0,0,1,.47,1.84,3.65,3.65,0,0,1-1,2.81,4.25,4.25,0,0,1-3,.95Zm2.59-7.45h1.34c1,0,1.52-.52,1.52-1.57a1.78,1.78,0,0,0-.35-1.25,1.49,1.49,0,0,0-1.14-.38h-1.37Zm0,1.88v3.42h1.65a1.28,1.28,0,0,0,1.05-.43,1.83,1.83,0,0,0,.36-1.22c0-1.15-.41-1.74-1.24-1.77Z" transform="translate(0 0)" fill="#fff"/>
          <path d="M373.85,31.31l-1.33-.69.33-.63a4.4,4.4,0,0,0,.58-2.09v-2h2.17v1.76a4.81,4.81,0,0,1-.48,1.94A4.92,4.92,0,0,1,373.85,31.31Z" transform="translate(0 0)" fill="#fff"/>
          <path d="M390.12,23.33l1.21-8h2.56l-2.28,12.8H389l-1.5-7.54-1.47,7.54h-2.61l-2.28-12.8h2.57l1.21,8,1.5-8h2.17Z" transform="translate(0 0)" fill="#fff"/>
          <path d="M398.32,24.42l-.67.75v2.92h-2.49V14.59h2.49v7.29l.31-.45,1.72-2.85h3l-2.76,3.92,3,5.59h-2.84Z" transform="translate(0 0)" fill="#fff"/>
          <path d="M413.33,28.09h-2.5V18.31l-2.43.94V17.18l4.66-1.91h.27Z" transform="translate(0 0)" fill="#fff"/>
          <path d="M424.13,18.69a3.3,3.3,0,0,1-.4,1.65,3,3,0,0,1-1.09,1.16,3.21,3.21,0,0,1,1.25,1.23,3.58,3.58,0,0,1,.46,1.85,3.69,3.69,0,1,1-7.37,0,3.65,3.65,0,0,1,.46-1.85,3.17,3.17,0,0,1,1.26-1.23,3.06,3.06,0,0,1-1.1-1.16,3.41,3.41,0,0,1-.4-1.65,3.61,3.61,0,0,1,.94-2.63,3.42,3.42,0,0,1,2.53-.95,3.37,3.37,0,0,1,2.53,1A3.6,3.6,0,0,1,424.13,18.69Zm-3.45,7.51a1,1,0,0,0,.87-.48,2.5,2.5,0,0,0,.3-1.33,2.44,2.44,0,0,0-.31-1.34,1,1,0,0,0-.87-.48,1,1,0,0,0-.88.48,2.44,2.44,0,0,0-.32,1.34,2.4,2.4,0,0,0,.32,1.33A1,1,0,0,0,420.68,26.2Zm1-7.38a2.54,2.54,0,0,0-.24-1.19.79.79,0,0,0-.74-.45.78.78,0,0,0-.72.44,2.38,2.38,0,0,0-.25,1.2A2.52,2.52,0,0,0,420,20a.78.78,0,0,0,.73.46.76.76,0,0,0,.73-.46A2.65,2.65,0,0,0,421.65,18.82Z" transform="translate(0 0)" fill="#fff"/>
        </g>
        <path d="M434.26,22.87h-7.7V20.78h7.7Z" transform="translate(0 0)" fill="#fff"/>
        <g>
          <path d="M442.47,23.25h1.09v2.07h-1.09v2.77H440V25.32h-4.23l-.12-1.61L440,15.29h2.5Zm-4.42,0H440V19l-.05.1Z" transform="translate(0 0)" fill="#fff"/>
          <path d="M451.57,23.25h1.09v2.07h-1.09v2.77h-2.48V25.32h-4.24l-.11-1.61,4.34-8.42h2.49Zm-4.42,0h1.94V19l-.06.1Z" transform="translate(0 0)" fill="#fff"/>
        </g>
      </g>
    </g>
  </g>
</svg>
