<svg xmlns="http://www.w3.org/2000/svg" xmlns:xlink="http://www.w3.org/1999/xlink" width="503.29" height="399.02" viewBox="0 0 503.29 399.02">
  <defs>
    <clipPath id="clip-path" transform="translate(0 0)">
      <rect x="0.6" width="210.53" height="113.44" fill="none"/>
    </clipPath>
    <clipPath id="clip-path-2" transform="translate(0 0)">
      <rect x="211.14" width="292.15" height="40.64" fill="none"/>
    </clipPath>
    <clipPath id="clip-path-3" transform="translate(0 0)">
      <rect x="0.79" y="145.09" width="502.5" height="39.55" fill="none"/>
    </clipPath>
    <clipPath id="clip-path-4" transform="translate(0 0)">
      <rect y="288.81" width="502.5" height="110.21" fill="none"/>
    </clipPath>
  </defs>
  <g id="Layer_2" data-name="Layer 2">
    <g id="Layer_1-2" data-name="Layer 1">
      <g>
        <g>
          <g opacity="0.7">
            <g clip-path="url(#clip-path)">
              <rect x="0.6" width="210.53" height="113.45" fill="#bf6b04"/>
            </g>
          </g>
          <g opacity="0.7">
            <g clip-path="url(#clip-path-2)">
              <rect x="211.13" width="292.15" height="40.64" fill="#bf6b04"/>
            </g>
          </g>
          <g opacity="0.3">
            <g clip-path="url(#clip-path-3)">
              <rect x="0.79" y="145.09" width="502.5" height="39.55" fill="#bf6b04"/>
            </g>
          </g>
          <g opacity="0.3">
            <g clip-path="url(#clip-path-4)">
              <rect y="288.81" width="502.5" height="110.21" fill="#bf6b04"/>
            </g>
          </g>
        </g>
        <g>
          <path d="M14.64,59.59v4.5H11.91V51.29h4.61a4.37,4.37,0,0,1,3.21,1.18,4.11,4.11,0,0,1,1.19,3.06,3.84,3.84,0,0,1-1.18,3,4.68,4.68,0,0,1-3.27,1.09Zm0-2.16h1.88A1.53,1.53,0,0,0,17.73,57a2,2,0,0,0,.43-1.41A2.45,2.45,0,0,0,17.72,54a1.43,1.43,0,0,0-1.17-.58H14.64Z" transform="translate(0 0)" fill="#fff"/>
          <path d="M27.3,64.09a4.05,4.05,0,0,1-.22-.74,2.29,2.29,0,0,1-1.92.91,2.89,2.89,0,0,1-2.09-.79,2.68,2.68,0,0,1-.84-2,2.83,2.83,0,0,1,1-2.31,4.64,4.64,0,0,1,2.91-.83H27v-.77a1.39,1.39,0,0,0-.23-.9.85.85,0,0,0-.68-.27c-.66,0-1,.37-1,1.09H22.42a2.69,2.69,0,0,1,1-2.17,4,4,0,0,1,2.64-.86,3.69,3.69,0,0,1,2.57.82,3,3,0,0,1,.9,2.32V62A4.51,4.51,0,0,0,30,63.94v.15Zm-1.55-1.78a1.53,1.53,0,0,0,.74-.16,1.32,1.32,0,0,0,.46-.4v-2h-.63a1.4,1.4,0,0,0-1.06.41,1.49,1.49,0,0,0-.38,1.08Q24.88,62.31,25.75,62.31Z" transform="translate(0 0)" fill="#fff"/>
          <path d="M34.55,52.24v2.34H35.9v1.86H34.55v4.73a1.4,1.4,0,0,0,.16.77.77.77,0,0,0,.63.21,2.68,2.68,0,0,0,.63-.06L36,64a4.54,4.54,0,0,1-1.45.23q-2.55,0-2.58-2.76V56.44H30.76V54.58h1.16V52.24Z" transform="translate(0 0)" fill="#fff"/>
          <path d="M37.34,52.12a1.24,1.24,0,0,1,.39-.95,1.66,1.66,0,0,1,2.09,0,1.24,1.24,0,0,1,.39.95,1.28,1.28,0,0,1-.39,1,1.42,1.42,0,0,1-1,.37,1.45,1.45,0,0,1-1.05-.37A1.28,1.28,0,0,1,37.34,52.12Zm2.77,12H37.46V54.58h2.65Z" transform="translate(0 0)" fill="#fff"/>
          <path d="M46.21,64.26a4.25,4.25,0,0,1-3.16-1.14,4.43,4.43,0,0,1-1.14-3.27V59.1a5.26,5.26,0,0,1,1-3.48,3.73,3.73,0,0,1,3-1.22,3.51,3.51,0,0,1,2.86,1.15,5.27,5.27,0,0,1,1,3.39v1.22H44.54A2.46,2.46,0,0,0,45,61.71a1.74,1.74,0,0,0,1.35.49,3.07,3.07,0,0,0,2.2-.85l1,1.5a3.48,3.48,0,0,1-1.41,1A5.06,5.06,0,0,1,46.21,64.26Zm-1.66-5.83h2.64V58.2a2.55,2.55,0,0,0-.3-1.29,1,1,0,0,0-1-.44,1.11,1.11,0,0,0-1,.46A3.08,3.08,0,0,0,44.55,58.43Z" transform="translate(0 0)" fill="#fff"/>
          <path d="M53.67,54.58l.08.94a2.82,2.82,0,0,1,2.33-1.12q2.6,0,2.67,3.44v6.25H56.11V58a2.06,2.06,0,0,0-.26-1.17,1,1,0,0,0-.89-.36,1.24,1.24,0,0,0-1.12.69v6.91H51.2V54.58Z" transform="translate(0 0)" fill="#fff"/>
          <path d="M63.7,52.24v2.34h1.35v1.86H63.7v4.73a1.4,1.4,0,0,0,.16.77.77.77,0,0,0,.63.21,2.74,2.74,0,0,0,.63-.06l0,1.94a4.54,4.54,0,0,1-1.45.23q-2.55,0-2.58-2.76V56.44H59.91V54.58h1.16V52.24Z" transform="translate(0 0)" fill="#fff"/>
          <path d="M71,61.54a.79.79,0,0,0-.32-.59,6.85,6.85,0,0,0-1.43-.72A6.14,6.14,0,0,1,67,58.94a2.41,2.41,0,0,1-.61-1.66,2.57,2.57,0,0,1,1-2.06,3.69,3.69,0,0,1,2.52-.82,4.05,4.05,0,0,1,2.65.81,2.64,2.64,0,0,1,1,2.17H70.85c0-.77-.34-1.16-1-1.16a.94.94,0,0,0-.68.25.87.87,0,0,0-.27.68.7.7,0,0,0,.29.56,6.88,6.88,0,0,0,1.41.69,5.93,5.93,0,0,1,2.27,1.25,2.64,2.64,0,0,1-.35,3.84,4.22,4.22,0,0,1-2.66.77,4.31,4.31,0,0,1-2-.41,3.21,3.21,0,0,1-1.33-1.13,2.82,2.82,0,0,1-.48-1.58h2.51a1.45,1.45,0,0,0,.32,1,1.28,1.28,0,0,0,1,.32C70.6,62.44,71,62.14,71,61.54Z" transform="translate(0 0)" fill="#fff"/>
          <path d="M86.87,59.91l.9-5.33h2.52l-2.08,9.51H86l-1.42-5.5-1.43,5.5H81l-2.09-9.51h2.54l.89,5.34,1.34-5.34h1.87Z" transform="translate(0 0)" fill="#fff"/>
          <path d="M91.6,52.12a1.24,1.24,0,0,1,.39-.95,1.42,1.42,0,0,1,1-.37,1.44,1.44,0,0,1,1,.37,1.24,1.24,0,0,1,.39.95,1.28,1.28,0,0,1-.39,1,1.41,1.41,0,0,1-1,.37,1.45,1.45,0,0,1-1-.37A1.27,1.27,0,0,1,91.6,52.12Zm2.76,12H91.72V54.58h2.64Z" transform="translate(0 0)" fill="#fff"/>
          <path d="M99.46,52.24v2.34h1.35v1.86H99.46v4.73a1.32,1.32,0,0,0,.16.77.77.77,0,0,0,.63.21,2.65,2.65,0,0,0,.62-.06l0,1.94a4.5,4.5,0,0,1-1.45.23q-2.55,0-2.58-2.76V56.44H95.66V54.58h1.16V52.24Z" transform="translate(0 0)" fill="#fff"/>
          <path d="M104.82,55.41a2.66,2.66,0,0,1,2.1-1,2.5,2.5,0,0,1,2.09.92,4.39,4.39,0,0,1,.73,2.72v6.05H107.1v-6a2.09,2.09,0,0,0-.28-1.21,1,1,0,0,0-.89-.37,1.23,1.23,0,0,0-1.11.62v7h-2.64V50.59h2.64Z" transform="translate(0 0)" fill="#fff"/>
          <path d="M120.08,64.26a4.27,4.27,0,0,1-3.16-1.14,4.42,4.42,0,0,1-1.13-3.27V59.1a5.2,5.2,0,0,1,1-3.48,3.71,3.71,0,0,1,3-1.22,3.5,3.5,0,0,1,2.86,1.15,5.21,5.21,0,0,1,1,3.39v1.22h-5.24a2.52,2.52,0,0,0,.49,1.55,1.74,1.74,0,0,0,1.35.49,3.1,3.1,0,0,0,2.21-.85l1,1.5a3.35,3.35,0,0,1-1.41,1A5.06,5.06,0,0,1,120.08,64.26Zm-1.65-5.83h2.63V58.2a2.45,2.45,0,0,0-.3-1.29,1,1,0,0,0-1-.44,1.1,1.1,0,0,0-1,.46A3.08,3.08,0,0,0,118.43,58.43Z" transform="translate(0 0)" fill="#fff"/>
          <path d="M128.33,60.57l1.27-6h2.74l-2.76,9.51h-2.51l-2.77-9.51h2.75Z" transform="translate(0 0)" fill="#fff"/>
          <path d="M137.53,64.26a4.27,4.27,0,0,1-3.16-1.14,4.43,4.43,0,0,1-1.14-3.27V59.1a5.2,5.2,0,0,1,1.05-3.48,3.71,3.71,0,0,1,3-1.22,3.5,3.5,0,0,1,2.86,1.15,5.27,5.27,0,0,1,1,3.39v1.22h-5.24a2.52,2.52,0,0,0,.49,1.55,1.74,1.74,0,0,0,1.35.49,3.1,3.1,0,0,0,2.21-.85l1,1.5a3.35,3.35,0,0,1-1.41,1A5.06,5.06,0,0,1,137.53,64.26Zm-1.65-5.83h2.63V58.2a2.45,2.45,0,0,0-.3-1.29,1,1,0,0,0-1-.44,1.13,1.13,0,0,0-1,.46A3.09,3.09,0,0,0,135.88,58.43Z" transform="translate(0 0)" fill="#fff"/>
          <path d="M145,54.58l.07.94a2.84,2.84,0,0,1,2.34-1.12q2.59,0,2.67,3.44v6.25h-2.65V58a2.07,2.07,0,0,0-.25-1.17,1,1,0,0,0-.9-.36,1.24,1.24,0,0,0-1.12.69v6.91h-2.64V54.58Z" transform="translate(0 0)" fill="#fff"/>
          <path d="M155,52.24v2.34h1.35v1.86H155v4.73a1.3,1.3,0,0,0,.17.77.77.77,0,0,0,.63.21,2.65,2.65,0,0,0,.62-.06l0,1.94a4.54,4.54,0,0,1-1.45.23q-2.55,0-2.58-2.76V56.44h-1.16V54.58h1.16V52.24Z" transform="translate(0 0)" fill="#fff"/>
          <path d="M162.27,61.54A.76.76,0,0,0,162,61a6.58,6.58,0,0,0-1.43-.72,6.08,6.08,0,0,1-2.23-1.29,2.36,2.36,0,0,1-.61-1.66,2.56,2.56,0,0,1,.95-2.06,3.74,3.74,0,0,1,2.53-.82,4.09,4.09,0,0,1,2.65.81,2.66,2.66,0,0,1,1,2.17h-2.63c0-.77-.34-1.16-1-1.16a1,1,0,0,0-.69.25.87.87,0,0,0-.27.68.71.71,0,0,0,.3.56,6.44,6.44,0,0,0,1.4.69,6.06,6.06,0,0,1,2.28,1.25,2.66,2.66,0,0,1-.35,3.84,4.26,4.26,0,0,1-2.66.77,4.38,4.38,0,0,1-2-.41,3.25,3.25,0,0,1-1.32-1.13,2.82,2.82,0,0,1-.48-1.58h2.5a1.45,1.45,0,0,0,.32,1,1.28,1.28,0,0,0,1,.32C161.92,62.44,162.27,62.14,162.27,61.54Z" transform="translate(0 0)" fill="#fff"/>
          <path d="M167.25,67.31l-1.4-.69.35-.63a4.23,4.23,0,0,0,.61-2.09v-2h2.29v1.76a4.4,4.4,0,0,1-.5,1.94A4.89,4.89,0,0,1,167.25,67.31Z" transform="translate(0 0)" fill="#fff"/>
        </g>
        <g>
          <path d="M14.19,90.58l.07.94A2.85,2.85,0,0,1,16.6,90.4q2.59,0,2.67,3.44v6.25H16.62V94a2.07,2.07,0,0,0-.25-1.17,1,1,0,0,0-.9-.36,1.24,1.24,0,0,0-1.12.69v6.91H11.71V90.58Z" transform="translate(0 0)" fill="#fff"/>
          <path d="M25.71,94.88a14.59,14.59,0,0,1,.48-3.77,10.65,10.65,0,0,1,1.47-3.24,5.65,5.65,0,0,1,2.07-2l.5,1.37a6.36,6.36,0,0,0-1.67,2.87,15.26,15.26,0,0,0-.64,4.46v.52a15.81,15.81,0,0,0,.61,4.64,6.44,6.44,0,0,0,1.7,3l-.5,1.36a5.76,5.76,0,0,1-2.06-2A10.51,10.51,0,0,1,26.22,99a14.27,14.27,0,0,1-.51-3.72Z" transform="translate(0 0)" fill="#fff"/>
          <path d="M31.65,89.75a2.74,2.74,0,0,1,.68-1.91,2.42,2.42,0,0,1,1.85-.73,2.46,2.46,0,0,1,1.86.72,2.73,2.73,0,0,1,.69,2v.64A2.65,2.65,0,0,1,36,92.34a2.43,2.43,0,0,1-1.84.72,2.48,2.48,0,0,1-1.85-.72,2.73,2.73,0,0,1-.7-2Zm1.71.68a1.35,1.35,0,0,0,.24.84.72.72,0,0,0,.6.31.67.67,0,0,0,.59-.33A1.45,1.45,0,0,0,35,90.4v-.65a1.46,1.46,0,0,0-.22-.84.7.7,0,0,0-.61-.33.68.68,0,0,0-.59.33,1.52,1.52,0,0,0-.23.87Zm1.31,8.7-1.24-.67,5.55-10,1.26.67ZM37,97a2.61,2.61,0,0,1,.7-1.91,2.41,2.41,0,0,1,1.84-.73,2.45,2.45,0,0,1,1.85.72,2.67,2.67,0,0,1,.7,2v.65a2.7,2.7,0,0,1-.68,1.9,2.75,2.75,0,0,1-3.72,0A2.68,2.68,0,0,1,37,97.6Zm1.72.69a1.31,1.31,0,0,0,.25.82.73.73,0,0,0,.59.34q.77,0,.81-1V97a1.42,1.42,0,0,0-.23-.84.71.71,0,0,0-.6-.32c-.54,0-.82.45-.82,1.34Z" transform="translate(0 0)" fill="#fff"/>
          <path d="M48.09,95.1A13.26,13.26,0,0,1,47.54,99,10.86,10.86,0,0,1,46,102.18a5.58,5.58,0,0,1-2.08,1.91l-.48-1.36a6.4,6.4,0,0,0,1.67-2.93,15.59,15.59,0,0,0,.64-4.47v-.46a16.07,16.07,0,0,0-.61-4.58,6.88,6.88,0,0,0-1.7-3l.48-1.36A5,5,0,0,1,45.39,87a8.52,8.52,0,0,1,1.35,2,12.35,12.35,0,0,1,1,2.65A14.05,14.05,0,0,1,48.09,95.1Z" transform="translate(0 0)" fill="#fff"/>
        </g>
        <g>
          <path d="M18.58,132.51H13.5l-1.15,3.58H11.24l4.32-12.8h1l4.32,12.8H19.75Zm-4.77-.94h4.46L16,124.71Z" transform="translate(0 0)" fill="#4d4d4d"/>
          <path d="M29.19,130H23.93v5.2H30v.93H22.87v-12.8h7.06v.95h-6V129h5.26Z" transform="translate(0 0)" fill="#4d4d4d"/>
          <path d="M37.15,133.74a1.39,1.39,0,0,0-.54-1.07,7.52,7.52,0,0,0-1.83-1,10.26,10.26,0,0,1-1.8-.91,2.44,2.44,0,0,1-.75-.8,2,2,0,0,1-.24-1,2.3,2.3,0,0,1,.83-1.81A3.21,3.21,0,0,1,35,126.4a3.3,3.3,0,0,1,2.29.77,2.58,2.58,0,0,1,.86,2h-1a1.72,1.72,0,0,0-.58-1.34,2.16,2.16,0,0,0-1.53-.53,2.18,2.18,0,0,0-1.45.44A1.41,1.41,0,0,0,33,128.9a1.19,1.19,0,0,0,.41.93,8,8,0,0,0,1.77,1,10.64,10.64,0,0,1,1.93.95,2.86,2.86,0,0,1,.8.84,2.16,2.16,0,0,1,.27,1.1,2.29,2.29,0,0,1-.86,1.87,3.56,3.56,0,0,1-2.28.69,3.65,3.65,0,0,1-2.43-.77,2.5,2.5,0,0,1-.92-2h1a1.8,1.8,0,0,0,.63,1.37,2.51,2.51,0,0,0,1.68.49,2.45,2.45,0,0,0,1.52-.44A1.38,1.38,0,0,0,37.15,133.74Z" transform="translate(0 0)" fill="#4d4d4d"/>
        </g>
        <g>
          <path d="M18.78,168.94a2.23,2.23,0,0,0-.64-1.69,6.49,6.49,0,0,0-2.42-1.17,7.87,7.87,0,0,1-2.59-1.26A2.94,2.94,0,0,1,12,162.43,3,3,0,0,1,13.11,160a4,4,0,0,1,2.76-.92,3.85,3.85,0,0,1,2.83,1.07A3.68,3.68,0,0,1,19.8,163H18.73a2.9,2.9,0,0,0-.77-2.09,2.77,2.77,0,0,0-2.09-.8,2.93,2.93,0,0,0-2,.66,2.14,2.14,0,0,0-.74,1.69,2,2,0,0,0,.7,1.58,6.16,6.16,0,0,0,2.22,1.1,9.64,9.64,0,0,1,2.31,1,3.15,3.15,0,0,1,1.52,2.84,3.06,3.06,0,0,1-1.07,2.43,4.25,4.25,0,0,1-2.84.91,5,5,0,0,1-2.18-.46,3.61,3.61,0,0,1-1.53-1.33,3.67,3.67,0,0,1-.56-2h1.07a2.71,2.71,0,0,0,.86,2.13,3.42,3.42,0,0,0,2.34.77,3.08,3.08,0,0,0,2.06-.65A2.16,2.16,0,0,0,18.78,168.94Z" transform="translate(0 0)" fill="#4d4d4d"/>
          <path d="M25.37,172.26a3.56,3.56,0,0,1-2.78-1.1,4.5,4.5,0,0,1-1-3.12v-1.16a5.11,5.11,0,0,1,1-3.29,3.26,3.26,0,0,1,2.66-1.19,3.1,3.1,0,0,1,2.5,1,4.74,4.74,0,0,1,.88,3.1v.91h-6V168a3.84,3.84,0,0,0,.74,2.52,2.57,2.57,0,0,0,2.09.89,3.11,3.11,0,0,0,2.41-1l.54.65A3.56,3.56,0,0,1,25.37,172.26Zm-.18-8.94a2.27,2.27,0,0,0-1.87.81,3.94,3.94,0,0,0-.72,2.38h4.94v-.26C27.49,164.29,26.71,163.32,25.19,163.32Z" transform="translate(0 0)" fill="#4d4d4d"/>
          <path d="M34.71,163.49a4.12,4.12,0,0,0-.65-.06,2.05,2.05,0,0,0-1.44.55,3.16,3.16,0,0,0-.82,1.54v6.57h-1v-9.51h1l0,1.42a2.43,2.43,0,0,1,2.31-1.6,1.28,1.28,0,0,1,.62.12Z" transform="translate(0 0)" fill="#4d4d4d"/>
          <path d="M36.49,159.84a.76.76,0,0,1,.18-.51.6.6,0,0,1,.5-.21.65.65,0,0,1,.51.21.76.76,0,0,1,.18.51.75.75,0,0,1-.18.5.65.65,0,0,1-.51.21.6.6,0,0,1-.5-.21A.75.75,0,0,1,36.49,159.84Zm1.19,12.25h-1v-9.51h1Z" transform="translate(0 0)" fill="#4d4d4d"/>
          <path d="M40.15,166.85a4.93,4.93,0,0,1,1-3.25,3.64,3.64,0,0,1,5.38,0,5,5,0,0,1,1,3.24v1a4.82,4.82,0,0,1-1,3.26,3.32,3.32,0,0,1-2.67,1.17,3.36,3.36,0,0,1-2.67-1.14,4.76,4.76,0,0,1-1-3.15Zm1,1a4.23,4.23,0,0,0,.7,2.58,2.53,2.53,0,0,0,3.9,0,4.29,4.29,0,0,0,.68-2.59v-1a4.24,4.24,0,0,0-.7-2.59,2.31,2.31,0,0,0-2-.94,2.27,2.27,0,0,0-1.91.92,4.14,4.14,0,0,0-.72,2.54Z" transform="translate(0 0)" fill="#4d4d4d"/>
          <path d="M55.28,171a2.92,2.92,0,0,1-2.65,1.31,2.46,2.46,0,0,1-2.06-.89,4.28,4.28,0,0,1-.71-2.64v-6.15h1v6.12a3.24,3.24,0,0,0,.49,2,1.59,1.59,0,0,0,1.39.67,2.38,2.38,0,0,0,2.51-1.79v-7h1v9.51h-1Z" transform="translate(0 0)" fill="#4d4d4d"/>
          <path d="M64.09,169.74a1.41,1.41,0,0,0-.53-1.07,7.52,7.52,0,0,0-1.83-1,10.26,10.26,0,0,1-1.8-.91,2.38,2.38,0,0,1-.76-.8,2,2,0,0,1-.24-1,2.28,2.28,0,0,1,.84-1.81,3.21,3.21,0,0,1,2.17-.72,3.34,3.34,0,0,1,2.29.77,2.57,2.57,0,0,1,.85,2h-1a1.73,1.73,0,0,0-.59-1.34,2.15,2.15,0,0,0-1.52-.53,2.18,2.18,0,0,0-1.45.44A1.39,1.39,0,0,0,60,164.9a1.19,1.19,0,0,0,.41.93,8.55,8.55,0,0,0,1.77,1,10.82,10.82,0,0,1,1.94.95,3,3,0,0,1,.8.84,2.16,2.16,0,0,1,.27,1.1,2.27,2.27,0,0,1-.87,1.87,3.56,3.56,0,0,1-2.28.69,3.6,3.6,0,0,1-2.42-.77,2.48,2.48,0,0,1-.93-2h1a1.84,1.84,0,0,0,.63,1.37,2.53,2.53,0,0,0,1.68.49,2.5,2.5,0,0,0,1.53-.44A1.4,1.4,0,0,0,64.09,169.74Z" transform="translate(0 0)" fill="#4d4d4d"/>
          <path d="M78.23,168.51H73.15L72,172.09h-1.1l4.31-12.8h1l4.32,12.8H79.4Zm-4.78-.94h4.47l-2.23-6.86Z" transform="translate(0 0)" fill="#4d4d4d"/>
          <path d="M88.83,166H83.58v5.2h6v.93h-7.1v-12.8h7.06v1h-6V165h5.25Z" transform="translate(0 0)" fill="#4d4d4d"/>
          <path d="M96.8,169.74a1.39,1.39,0,0,0-.54-1.07,7.52,7.52,0,0,0-1.83-1,10.26,10.26,0,0,1-1.8-.91,2.44,2.44,0,0,1-.75-.8,1.93,1.93,0,0,1-.25-1,2.28,2.28,0,0,1,.84-1.81,3.21,3.21,0,0,1,2.17-.72,3.32,3.32,0,0,1,2.29.77,2.57,2.57,0,0,1,.85,2h-1a1.72,1.72,0,0,0-.58-1.34,2.54,2.54,0,0,0-3-.09,1.41,1.41,0,0,0-.53,1.14,1.16,1.16,0,0,0,.41.93,8.12,8.12,0,0,0,1.76,1,10.47,10.47,0,0,1,1.94.95,3,3,0,0,1,.8.84,2.16,2.16,0,0,1,.27,1.1,2.29,2.29,0,0,1-.86,1.87,3.56,3.56,0,0,1-2.28.69,3.65,3.65,0,0,1-2.43-.77,2.47,2.47,0,0,1-.92-2h1a1.8,1.8,0,0,0,.63,1.37,2.5,2.5,0,0,0,1.68.49,2.45,2.45,0,0,0,1.52-.44A1.38,1.38,0,0,0,96.8,169.74Z" transform="translate(0 0)" fill="#4d4d4d"/>
        </g>
        <g>
          <path d="M13.48,202.88v5.21H12.42v-12.8h3.94a3.83,3.83,0,0,1,2.82,1,4.35,4.35,0,0,1,0,5.6,4,4,0,0,1-2.88,1Zm0-.94h2.88a2.8,2.8,0,0,0,2.07-.73,2.85,2.85,0,0,0,.73-2.08,3,3,0,0,0-.74-2.12,2.75,2.75,0,0,0-2.06-.77H13.48Z" transform="translate(0 0)" fill="#4d4d4d"/>
          <path d="M25.68,208.26a3.57,3.57,0,0,1-2.79-1.1,4.5,4.5,0,0,1-1-3.12v-1.16a5.06,5.06,0,0,1,1-3.29,3.24,3.24,0,0,1,2.66-1.19,3.13,3.13,0,0,1,2.5,1,4.85,4.85,0,0,1,.88,3.1v.91h-6V204a3.84,3.84,0,0,0,.74,2.52,2.59,2.59,0,0,0,2.09.89,3.1,3.1,0,0,0,2.41-1l.54.65A3.54,3.54,0,0,1,25.68,208.26Zm-.18-8.94a2.29,2.29,0,0,0-1.88.81,4.08,4.08,0,0,0-.72,2.38h4.94v-.26C27.79,200.29,27,199.32,25.5,199.32Z" transform="translate(0 0)" fill="#4d4d4d"/>
          <path d="M35,199.49a4.23,4.23,0,0,0-.65-.06,2,2,0,0,0-1.44.55,3.17,3.17,0,0,0-.83,1.54v6.57h-1v-9.51h1V200a2.43,2.43,0,0,1,2.31-1.6,1.36,1.36,0,0,1,.63.12Z" transform="translate(0 0)" fill="#4d4d4d"/>
          <path d="M37.78,198.58l0,1.42a3,3,0,0,1,2.7-1.6A2.4,2.4,0,0,1,43,200.15a3.16,3.16,0,0,1,2.85-1.75c1.82,0,2.74,1.1,2.79,3.31v6.38h-1v-6.32a3,3,0,0,0-.48-1.83,1.79,1.79,0,0,0-1.53-.61A2.24,2.24,0,0,0,44,200a2.68,2.68,0,0,0-.76,1.72v6.33h-1v-6.3a2.88,2.88,0,0,0-.49-1.85,1.84,1.84,0,0,0-1.52-.61,2.16,2.16,0,0,0-1.47.56,3.12,3.12,0,0,0-.89,1.58v6.62h-1v-9.51Z" transform="translate(0 0)" fill="#4d4d4d"/>
          <path d="M56.68,208.09a5.49,5.49,0,0,1-.19-1.32,3.29,3.29,0,0,1-2.78,1.49,2.82,2.82,0,0,1-2-.69,2.62,2.62,0,0,1-.73-2,2.69,2.69,0,0,1,1-2.21,4.37,4.37,0,0,1,2.79-.83h1.73v-1.33a1.82,1.82,0,0,0-.53-1.46,2.39,2.39,0,0,0-1.57-.44,2.32,2.32,0,0,0-1.57.52,1.74,1.74,0,0,0-.62,1.37h-1a2.53,2.53,0,0,1,.93-2,3.38,3.38,0,0,1,2.33-.82,3.27,3.27,0,0,1,2.3.72,2.72,2.72,0,0,1,.78,2.1v4.67a6.09,6.09,0,0,0,.27,2.09v.11Zm-2.84-.77a2.91,2.91,0,0,0,1.61-.45,2.59,2.59,0,0,0,1-1.19v-2.31H54.84a3.44,3.44,0,0,0-2.13.59,1.91,1.91,0,0,0-.71,1.55A1.61,1.61,0,0,0,53.84,207.32Z" transform="translate(0 0)" fill="#4d4d4d"/>
          <path d="M61.31,198.58l0,1.51a3.56,3.56,0,0,1,1.14-1.23,2.76,2.76,0,0,1,1.57-.46q2.64,0,2.7,3.32v6.37h-1v-6.27a3.14,3.14,0,0,0-.48-1.88,1.73,1.73,0,0,0-1.46-.61,2.14,2.14,0,0,0-1.45.58,3.53,3.53,0,0,0-1,1.58v6.6h-1v-9.51Z" transform="translate(0 0)" fill="#4d4d4d"/>
          <path d="M72.82,208.26a3.54,3.54,0,0,1-2.78-1.1A4.55,4.55,0,0,1,69,204v-1.16a5.12,5.12,0,0,1,1-3.29,3.26,3.26,0,0,1,2.66-1.19,3.11,3.11,0,0,1,2.5,1,4.79,4.79,0,0,1,.88,3.1v.91H70V204a3.79,3.79,0,0,0,.74,2.52,2.57,2.57,0,0,0,2.09.89,3.11,3.11,0,0,0,2.41-1l.53.65A3.53,3.53,0,0,1,72.82,208.26Zm-.18-8.94a2.26,2.26,0,0,0-1.87.81,3.94,3.94,0,0,0-.72,2.38H75v-.26C74.94,200.29,74.16,199.32,72.64,199.32Z" transform="translate(0 0)" fill="#4d4d4d"/>
          <path d="M79.2,198.58l0,1.51a3.56,3.56,0,0,1,1.14-1.23A2.76,2.76,0,0,1,82,198.4q2.63,0,2.69,3.32v6.37h-1v-6.27a3.14,3.14,0,0,0-.47-1.88,1.74,1.74,0,0,0-1.46-.61,2.16,2.16,0,0,0-1.46.58,3.53,3.53,0,0,0-1,1.58v6.6h-1v-9.51Z" transform="translate(0 0)" fill="#4d4d4d"/>
          <path d="M88.94,196.15v2.43h1.72v.88H88.94v6.32a2.1,2.1,0,0,0,.25,1.16.89.89,0,0,0,.82.38,5.64,5.64,0,0,0,.75-.08l0,.87a2.74,2.74,0,0,1-1,.15c-1.21,0-1.83-.78-1.86-2.35v-6.45H86.36v-.88h1.55v-2.43Z" transform="translate(0 0)" fill="#4d4d4d"/>
        </g>
        <g>
          <path d="M11.82,238.89a5.68,5.68,0,0,1,.83-3.36,2.86,2.86,0,0,1,2.46-1.13,2.79,2.79,0,0,1,2.56,1.45v-5.26h1v13.5h-1l0-1.22a2.83,2.83,0,0,1-2.59,1.39,2.8,2.8,0,0,1-2.42-1.14,5.53,5.53,0,0,1-.86-3.24Zm1.06.89a4.86,4.86,0,0,0,.58,2.69,2.06,2.06,0,0,0,1.84.86,2.47,2.47,0,0,0,2.37-1.47v-4.93a2.41,2.41,0,0,0-2.36-1.59,2.06,2.06,0,0,0-1.84.86,4.67,4.67,0,0,0-.59,2.63Z" transform="translate(0 0)" fill="#4d4d4d"/>
          <path d="M21.45,231.84a.76.76,0,0,1,.18-.51.63.63,0,0,1,.5-.21.64.64,0,0,1,.51.21.76.76,0,0,1,.18.51.75.75,0,0,1-.18.5.64.64,0,0,1-.51.21.63.63,0,0,1-.5-.21A.75.75,0,0,1,21.45,231.84Zm1.19,12.25h-1v-9.51h1Z" transform="translate(0 0)" fill="#4d4d4d"/>
          <path d="M30.53,241.74a1.41,1.41,0,0,0-.53-1.07,7.52,7.52,0,0,0-1.83-1,10.26,10.26,0,0,1-1.8-.91,2.38,2.38,0,0,1-.76-.8,2,2,0,0,1-.24-1,2.28,2.28,0,0,1,.84-1.81,3.21,3.21,0,0,1,2.17-.72,3.29,3.29,0,0,1,2.28.77,2.55,2.55,0,0,1,.86,2h-1a1.73,1.73,0,0,0-.59-1.34,2.15,2.15,0,0,0-1.52-.53,2.18,2.18,0,0,0-1.45.44,1.39,1.39,0,0,0-.54,1.14,1.19,1.19,0,0,0,.41.93,8.55,8.55,0,0,0,1.77,1,10.82,10.82,0,0,1,1.94.95,3,3,0,0,1,.8.84,2.16,2.16,0,0,1,.27,1.1,2.27,2.27,0,0,1-.87,1.87,3.56,3.56,0,0,1-2.28.69,3.6,3.6,0,0,1-2.42-.77,2.48,2.48,0,0,1-.93-2h1a1.84,1.84,0,0,0,.63,1.37,2.53,2.53,0,0,0,1.68.49,2.5,2.5,0,0,0,1.53-.44A1.4,1.4,0,0,0,30.53,241.74Z" transform="translate(0 0)" fill="#4d4d4d"/>
          <path d="M37.19,243.35a2.23,2.23,0,0,0,1.65-.57,2.32,2.32,0,0,0,.63-1.64h1a3.18,3.18,0,0,1-1,2.29,3.26,3.26,0,0,1-2.29.83,3.38,3.38,0,0,1-2.72-1.08,5,5,0,0,1-.93-3.22V238.8a5.06,5.06,0,0,1,.92-3.29,3.31,3.31,0,0,1,2.72-1.11,3.15,3.15,0,0,1,2.36.89,3.64,3.64,0,0,1,.92,2.5h-1a2.8,2.8,0,0,0-.64-1.83,2.11,2.11,0,0,0-1.65-.64,2.27,2.27,0,0,0-2,.85,4.4,4.4,0,0,0-.63,2.61v1.08a4.43,4.43,0,0,0,.63,2.66A2.35,2.35,0,0,0,37.19,243.35Z" transform="translate(0 0)" fill="#4d4d4d"/>
          <path d="M42.26,238.85a5,5,0,0,1,1-3.25,3.65,3.65,0,0,1,5.39,0,5,5,0,0,1,1,3.24v1a4.87,4.87,0,0,1-1,3.26,3.68,3.68,0,0,1-5.35,0,4.76,4.76,0,0,1-1-3.15Zm1,1a4.23,4.23,0,0,0,.7,2.58,2.53,2.53,0,0,0,3.9,0,4.29,4.29,0,0,0,.68-2.59v-1a4.24,4.24,0,0,0-.7-2.59,2.29,2.29,0,0,0-2-.94,2.25,2.25,0,0,0-1.9.92,4.08,4.08,0,0,0-.73,2.54Z" transform="translate(0 0)" fill="#4d4d4d"/>
          <path d="M53,234.58l0,1.51a3.56,3.56,0,0,1,1.14-1.23,2.76,2.76,0,0,1,1.58-.46c1.76,0,2.65,1.11,2.7,3.32v6.37h-1v-6.27a3.07,3.07,0,0,0-.47-1.88,1.74,1.74,0,0,0-1.46-.61,2.16,2.16,0,0,0-1.46.58,3.62,3.62,0,0,0-1,1.58v6.6H52v-9.51Z" transform="translate(0 0)" fill="#4d4d4d"/>
          <path d="M62.73,232.15v2.43h1.72v.88H62.73v6.32a2.21,2.21,0,0,0,.24,1.16.9.9,0,0,0,.83.38,5.7,5.7,0,0,0,.74-.08l0,.87a2.71,2.71,0,0,1-1,.15c-1.2,0-1.82-.78-1.86-2.35v-6.45H60.14v-.88h1.55v-2.43Z" transform="translate(0 0)" fill="#4d4d4d"/>
          <path d="M66.66,231.84a.76.76,0,0,1,.18-.51.61.61,0,0,1,.5-.21.64.64,0,0,1,.51.21.76.76,0,0,1,.18.51.75.75,0,0,1-.18.5.64.64,0,0,1-.51.21.61.61,0,0,1-.5-.21A.75.75,0,0,1,66.66,231.84Zm1.19,12.25h-1v-9.51h1Z" transform="translate(0 0)" fill="#4d4d4d"/>
          <path d="M71.7,234.58l0,1.51a3.56,3.56,0,0,1,1.14-1.23,2.79,2.79,0,0,1,1.58-.46q2.64,0,2.7,3.32v6.37h-1v-6.27a3.14,3.14,0,0,0-.48-1.88,1.74,1.74,0,0,0-1.46-.61,2.16,2.16,0,0,0-1.46.58,3.62,3.62,0,0,0-1,1.58v6.6h-1v-9.51Z" transform="translate(0 0)" fill="#4d4d4d"/>
          <path d="M85.28,243a2.92,2.92,0,0,1-2.65,1.31,2.49,2.49,0,0,1-2.07-.89,4.28,4.28,0,0,1-.7-2.64v-6.15h1v6.12a3.31,3.31,0,0,0,.48,2,1.61,1.61,0,0,0,1.4.67,2.37,2.37,0,0,0,2.5-1.79v-7h1v9.51h-1Z" transform="translate(0 0)" fill="#4d4d4d"/>
          <path d="M94.38,244.09a6,6,0,0,1-.19-1.32,3.3,3.3,0,0,1-1.19,1.1,3.34,3.34,0,0,1-1.59.39,2.84,2.84,0,0,1-2-.69,2.61,2.61,0,0,1-.72-2,2.67,2.67,0,0,1,1-2.21,4.32,4.32,0,0,1,2.78-.83h1.73v-1.33a1.79,1.79,0,0,0-.53-1.46,2.39,2.39,0,0,0-1.57-.44,2.32,2.32,0,0,0-1.57.52,1.74,1.74,0,0,0-.62,1.37h-1a2.53,2.53,0,0,1,.93-2,3.39,3.39,0,0,1,2.34-.82,3.3,3.3,0,0,1,2.3.72,2.72,2.72,0,0,1,.78,2.1v4.67a6.09,6.09,0,0,0,.27,2.09v.11Zm-2.84-.77a3,3,0,0,0,1.62-.45,2.57,2.57,0,0,0,1-1.19v-2.31H92.55a3.4,3.4,0,0,0-2.13.59,1.89,1.89,0,0,0-.72,1.55A1.61,1.61,0,0,0,91.54,243.32Z" transform="translate(0 0)" fill="#4d4d4d"/>
          <path d="M99.58,232.15v2.43h1.72v.88H99.58v6.32a2.1,2.1,0,0,0,.25,1.16.89.89,0,0,0,.82.38,5.37,5.37,0,0,0,.74-.08l0,.87a2.65,2.65,0,0,1-1,.15c-1.21,0-1.83-.78-1.86-2.35v-6.45H97v-.88h1.56v-2.43Z" transform="translate(0 0)" fill="#4d4d4d"/>
          <path d="M103.52,231.84a.75.75,0,0,1,.17-.51.64.64,0,0,1,.51-.21.63.63,0,0,1,.5.21.76.76,0,0,1,.18.51.75.75,0,0,1-.18.5.63.63,0,0,1-.5.21.64.64,0,0,1-.51-.21A.74.74,0,0,1,103.52,231.84Zm1.19,12.25h-1v-9.51h1Z" transform="translate(0 0)" fill="#4d4d4d"/>
          <path d="M107.17,238.85a4.93,4.93,0,0,1,1-3.25,3.64,3.64,0,0,1,5.38,0,4.9,4.9,0,0,1,1,3.24v1a4.87,4.87,0,0,1-1,3.26,3.66,3.66,0,0,1-5.34,0,4.82,4.82,0,0,1-1-3.15Zm1,1a4.23,4.23,0,0,0,.71,2.58,2.53,2.53,0,0,0,3.9,0,4.44,4.44,0,0,0,.68-2.59v-1a4.24,4.24,0,0,0-.71-2.59,2.46,2.46,0,0,0-3.85,0,4.21,4.21,0,0,0-.73,2.54Z" transform="translate(0 0)" fill="#4d4d4d"/>
          <path d="M117.9,234.58l0,1.51a3.47,3.47,0,0,1,1.14-1.23,2.76,2.76,0,0,1,1.57-.46q2.64,0,2.7,3.32v6.37h-1v-6.27a3.22,3.22,0,0,0-.47-1.88,1.76,1.76,0,0,0-1.47-.61,2.14,2.14,0,0,0-1.45.58,3.53,3.53,0,0,0-1,1.58v6.6h-1v-9.51Z" transform="translate(0 0)" fill="#4d4d4d"/>
          <path d="M131.12,241.74a1.39,1.39,0,0,0-.54-1.07,7.52,7.52,0,0,0-1.83-1,10.26,10.26,0,0,1-1.8-.91,2.44,2.44,0,0,1-.75-.8,2,2,0,0,1-.24-1,2.3,2.3,0,0,1,.83-1.81,3.23,3.23,0,0,1,2.17-.72,3.3,3.3,0,0,1,2.29.77,2.58,2.58,0,0,1,.86,2h-1a1.72,1.72,0,0,0-.58-1.34,2.16,2.16,0,0,0-1.53-.53,2.14,2.14,0,0,0-1.44.44,1.39,1.39,0,0,0-.54,1.14,1.19,1.19,0,0,0,.41.93,8,8,0,0,0,1.77,1,10.64,10.64,0,0,1,1.93.95,2.86,2.86,0,0,1,.8.84,2.16,2.16,0,0,1,.27,1.1,2.29,2.29,0,0,1-.86,1.87,3.56,3.56,0,0,1-2.28.69,3.65,3.65,0,0,1-2.43-.77,2.5,2.5,0,0,1-.92-2h1a1.8,1.8,0,0,0,.63,1.37,2.53,2.53,0,0,0,1.68.49,2.45,2.45,0,0,0,1.52-.44A1.38,1.38,0,0,0,131.12,241.74Z" transform="translate(0 0)" fill="#4d4d4d"/>
          <path d="M138.5,238.89a5.68,5.68,0,0,1,.83-3.36,2.85,2.85,0,0,1,2.45-1.13,2.77,2.77,0,0,1,2.56,1.45v-5.26h1v13.5h-1l0-1.22a3.12,3.12,0,0,1-5,.25,5.53,5.53,0,0,1-.85-3.24Zm1.05.89a4.86,4.86,0,0,0,.58,2.69,2.09,2.09,0,0,0,1.85.86,2.47,2.47,0,0,0,2.36-1.47v-4.93a2.4,2.4,0,0,0-2.35-1.59,2.08,2.08,0,0,0-1.85.86,4.76,4.76,0,0,0-.59,2.63Z" transform="translate(0 0)" fill="#4d4d4d"/>
          <path d="M153.56,243a2.92,2.92,0,0,1-2.65,1.31,2.46,2.46,0,0,1-2.06-.89,4.22,4.22,0,0,1-.71-2.64v-6.15h1v6.12a3.24,3.24,0,0,0,.49,2,1.59,1.59,0,0,0,1.39.67,2.36,2.36,0,0,0,2.5-1.79v-7h1.05v9.51h-1Z" transform="translate(0 0)" fill="#4d4d4d"/>
          <path d="M160.66,244.26a3.56,3.56,0,0,1-2.78-1.1,4.5,4.5,0,0,1-1-3.12v-1.16a5.11,5.11,0,0,1,1-3.29,3.27,3.27,0,0,1,2.66-1.19,3.1,3.1,0,0,1,2.5,1,4.74,4.74,0,0,1,.88,3.1v.91h-6V240a3.84,3.84,0,0,0,.74,2.52,2.57,2.57,0,0,0,2.09.89,3.11,3.11,0,0,0,2.41-1l.54.65A3.56,3.56,0,0,1,160.66,244.26Zm-.18-8.94a2.27,2.27,0,0,0-1.87.81,3.94,3.94,0,0,0-.72,2.38h4.94v-.26C162.78,236.29,162,235.32,160.48,235.32Z" transform="translate(0 0)" fill="#4d4d4d"/>
          <path d="M171.89,232.15v2.43h1.72v.88h-1.72v6.32a2.1,2.1,0,0,0,.25,1.16.89.89,0,0,0,.82.38,5.64,5.64,0,0,0,.75-.08l0,.87a2.65,2.65,0,0,1-1,.15c-1.21,0-1.83-.78-1.86-2.35v-6.45h-1.55v-.88h1.55v-2.43Z" transform="translate(0 0)" fill="#4d4d4d"/>
          <path d="M175.3,238.85a4.93,4.93,0,0,1,1-3.25,3.64,3.64,0,0,1,5.38,0,5,5,0,0,1,1,3.24v1a4.87,4.87,0,0,1-1,3.26,3.66,3.66,0,0,1-5.34,0,4.82,4.82,0,0,1-1-3.15Zm1,1a4.23,4.23,0,0,0,.71,2.58,2.28,2.28,0,0,0,1.95.94,2.26,2.26,0,0,0,1.94-.9,4.36,4.36,0,0,0,.69-2.59v-1a4.24,4.24,0,0,0-.71-2.59,2.46,2.46,0,0,0-3.85,0,4.21,4.21,0,0,0-.73,2.54Z" transform="translate(0 0)" fill="#4d4d4d"/>
        </g>
        <g>
          <path d="M18.58,276.51H13.5l-1.15,3.58H11.24l4.32-12.8h1l4.32,12.8H19.75Zm-4.77-.94h4.46L16,268.71Z" transform="translate(0 0)" fill="#4d4d4d"/>
          <path d="M29.19,274H23.93v5.2H30v.93H22.87v-12.8h7.06v.95h-6V273h5.26Z" transform="translate(0 0)" fill="#4d4d4d"/>
          <path d="M37.15,277.74a1.39,1.39,0,0,0-.54-1.07,7.52,7.52,0,0,0-1.83-1,10.26,10.26,0,0,1-1.8-.91,2.44,2.44,0,0,1-.75-.8,2,2,0,0,1-.24-1,2.3,2.3,0,0,1,.83-1.81A3.21,3.21,0,0,1,35,270.4a3.3,3.3,0,0,1,2.29.77,2.58,2.58,0,0,1,.86,2h-1a1.72,1.72,0,0,0-.58-1.34,2.16,2.16,0,0,0-1.53-.53,2.18,2.18,0,0,0-1.45.44A1.41,1.41,0,0,0,33,272.9a1.19,1.19,0,0,0,.41.93,8,8,0,0,0,1.77,1,10.64,10.64,0,0,1,1.93.95,2.86,2.86,0,0,1,.8.84,2.16,2.16,0,0,1,.27,1.1,2.29,2.29,0,0,1-.86,1.87,3.56,3.56,0,0,1-2.28.69,3.65,3.65,0,0,1-2.43-.77,2.5,2.5,0,0,1-.92-2h1a1.8,1.8,0,0,0,.63,1.37,2.51,2.51,0,0,0,1.68.49,2.45,2.45,0,0,0,1.52-.44A1.38,1.38,0,0,0,37.15,277.74Z" transform="translate(0 0)" fill="#4d4d4d"/>
        </g>
        <g>
          <path d="M20.17,304.24H16.32v11.85H15.25V304.24H11.41v-.95h8.76Z" transform="translate(0 0)" fill="#4d4d4d"/>
          <path d="M24.53,316.26a3.56,3.56,0,0,1-2.78-1.1,4.5,4.5,0,0,1-1-3.12v-1.16a5.11,5.11,0,0,1,1-3.29,3.26,3.26,0,0,1,2.66-1.19,3.1,3.1,0,0,1,2.5,1,4.74,4.74,0,0,1,.88,3.1v.91h-6V312a3.84,3.84,0,0,0,.74,2.52,2.57,2.57,0,0,0,2.09.89,3.11,3.11,0,0,0,2.41-1l.54.65A3.56,3.56,0,0,1,24.53,316.26Zm-.18-8.94a2.27,2.27,0,0,0-1.87.81,3.94,3.94,0,0,0-.72,2.38H26.7v-.26C26.65,308.29,25.87,307.32,24.35,307.32Z" transform="translate(0 0)" fill="#4d4d4d"/>
          <path d="M30.88,306.58l0,1.42a3,3,0,0,1,2.7-1.6,2.38,2.38,0,0,1,2.51,1.75,3.32,3.32,0,0,1,1.23-1.31A3.19,3.19,0,0,1,39,306.4q2.72,0,2.78,3.31v6.38h-1v-6.32a3,3,0,0,0-.48-1.83,1.79,1.79,0,0,0-1.53-.61,2.25,2.25,0,0,0-1.62.71,2.72,2.72,0,0,0-.75,1.72v6.33h-1v-6.3a2.94,2.94,0,0,0-.49-1.85,1.87,1.87,0,0,0-1.52-.61,2.12,2.12,0,0,0-1.47.56,3.2,3.2,0,0,0-.9,1.58v6.62h-1v-9.51Z" transform="translate(0 0)" fill="#4d4d4d"/>
          <path d="M51.32,311.78a5.74,5.74,0,0,1-.81,3.34,2.78,2.78,0,0,1-2.42,1.14A2.94,2.94,0,0,1,45.47,315v4.79h-1V306.58h.95l.05,1.3a3.15,3.15,0,0,1,5-.39,5.66,5.66,0,0,1,.82,3.33Zm-1-.89a4.78,4.78,0,0,0-.6-2.69,2.13,2.13,0,0,0-1.87-.86,2.42,2.42,0,0,0-2.34,1.57v5a2.43,2.43,0,0,0,2.36,1.43,2.09,2.09,0,0,0,1.84-.86,4.59,4.59,0,0,0,.61-2.65Z" transform="translate(0 0)" fill="#4d4d4d"/>
          <path d="M53.33,310.85a5,5,0,0,1,1-3.25,3.65,3.65,0,0,1,5.39,0,5,5,0,0,1,1,3.24v1a4.87,4.87,0,0,1-1,3.26,3.68,3.68,0,0,1-5.35,0,4.76,4.76,0,0,1-1-3.15Zm1,1a4.23,4.23,0,0,0,.7,2.58,2.53,2.53,0,0,0,3.9,0,4.29,4.29,0,0,0,.68-2.59v-1a4.24,4.24,0,0,0-.7-2.59,2.47,2.47,0,0,0-3.86,0,4.14,4.14,0,0,0-.72,2.54Z" transform="translate(0 0)" fill="#4d4d4d"/>
          <path d="M67,307.49a4,4,0,0,0-.65-.06,2.05,2.05,0,0,0-1.44.55,3.16,3.16,0,0,0-.82,1.54v6.57h-1v-9.51h1l0,1.42a2.43,2.43,0,0,1,2.31-1.6,1.28,1.28,0,0,1,.62.12Z" transform="translate(0 0)" fill="#4d4d4d"/>
          <path d="M73.79,316.09a5.49,5.49,0,0,1-.19-1.32,3.3,3.3,0,0,1-1.19,1.1,3.34,3.34,0,0,1-1.59.39,2.82,2.82,0,0,1-2-.69,2.61,2.61,0,0,1-.72-2,2.69,2.69,0,0,1,1-2.21,4.37,4.37,0,0,1,2.79-.83h1.73v-1.33a1.82,1.82,0,0,0-.53-1.46,2.39,2.39,0,0,0-1.57-.44,2.32,2.32,0,0,0-1.57.52,1.74,1.74,0,0,0-.62,1.37h-1a2.53,2.53,0,0,1,.93-2,3.39,3.39,0,0,1,2.34-.82,3.26,3.26,0,0,1,2.29.72,2.72,2.72,0,0,1,.79,2.1v4.67a5.86,5.86,0,0,0,.27,2.09v.11ZM71,315.32a2.89,2.89,0,0,0,1.61-.45,2.59,2.59,0,0,0,1-1.19v-2.31H72a3.44,3.44,0,0,0-2.13.59,1.91,1.91,0,0,0-.71,1.55A1.61,1.61,0,0,0,71,315.32Z" transform="translate(0 0)" fill="#4d4d4d"/>
          <path d="M81.38,307.49a4.23,4.23,0,0,0-.65-.06,2.05,2.05,0,0,0-1.44.55,3.08,3.08,0,0,0-.82,1.54v6.57h-1v-9.51h1l0,1.42a2.43,2.43,0,0,1,2.3-1.6,1.3,1.3,0,0,1,.63.12Z" transform="translate(0 0)" fill="#4d4d4d"/>
          <path d="M86,314.48l2.4-7.9h1.1l-3.54,11-.2.53a2.36,2.36,0,0,1-2.19,1.79,2.55,2.55,0,0,1-.75-.12v-.9a1.8,1.8,0,0,0,.48.06,1.62,1.62,0,0,0,1.1-.38,2.75,2.75,0,0,0,.7-1.22l.43-1.34-3.16-9.45h1.13Z" transform="translate(0 0)" fill="#4d4d4d"/>
          <path d="M95.23,310.89a5.61,5.61,0,0,1,.83-3.36,2.85,2.85,0,0,1,2.45-1.13,2.78,2.78,0,0,1,2.56,1.45v-5.26h1v13.5h-1l0-1.22a3.12,3.12,0,0,1-5,.25,5.46,5.46,0,0,1-.85-3.24Zm1,.89a4.86,4.86,0,0,0,.58,2.69,2.08,2.08,0,0,0,1.85.86,2.47,2.47,0,0,0,2.36-1.47v-4.93a2.4,2.4,0,0,0-2.35-1.59,2.08,2.08,0,0,0-1.85.86,4.76,4.76,0,0,0-.59,2.63Z" transform="translate(0 0)" fill="#4d4d4d"/>
          <path d="M104.5,310.85a4.93,4.93,0,0,1,1-3.25,3.64,3.64,0,0,1,5.38,0,4.9,4.9,0,0,1,1,3.24v1a4.87,4.87,0,0,1-1,3.26,3.66,3.66,0,0,1-5.34,0,4.82,4.82,0,0,1-1-3.15Zm1,1a4.23,4.23,0,0,0,.7,2.58,2.53,2.53,0,0,0,3.9,0,4.36,4.36,0,0,0,.68-2.59v-1a4.24,4.24,0,0,0-.71-2.59,2.46,2.46,0,0,0-3.85,0,4.14,4.14,0,0,0-.72,2.54Z" transform="translate(0 0)" fill="#4d4d4d"/>
          <path d="M119.28,313.74a1.39,1.39,0,0,0-.54-1.07,7.52,7.52,0,0,0-1.83-1,10.26,10.26,0,0,1-1.8-.91,2.44,2.44,0,0,1-.75-.8,2,2,0,0,1-.25-1,2.28,2.28,0,0,1,.84-1.81,3.21,3.21,0,0,1,2.17-.72,3.32,3.32,0,0,1,2.29.77,2.57,2.57,0,0,1,.85,2h-1a1.72,1.72,0,0,0-.58-1.34,2.54,2.54,0,0,0-3-.09,1.41,1.41,0,0,0-.53,1.14,1.16,1.16,0,0,0,.41.93,8.12,8.12,0,0,0,1.76,1,10.47,10.47,0,0,1,1.94.95,3,3,0,0,1,.8.84,2.16,2.16,0,0,1,.27,1.1,2.29,2.29,0,0,1-.86,1.87,3.56,3.56,0,0,1-2.28.69,3.65,3.65,0,0,1-2.43-.77,2.47,2.47,0,0,1-.92-2h1a1.8,1.8,0,0,0,.63,1.37,2.5,2.5,0,0,0,1.68.49,2.45,2.45,0,0,0,1.52-.44A1.38,1.38,0,0,0,119.28,313.74Z" transform="translate(0 0)" fill="#4d4d4d"/>
          <path d="M126.07,316.26a3.56,3.56,0,0,1-2.78-1.1,4.5,4.5,0,0,1-1-3.12v-1.16a5.11,5.11,0,0,1,1-3.29,3.27,3.27,0,0,1,2.66-1.19,3.1,3.1,0,0,1,2.5,1,4.74,4.74,0,0,1,.88,3.1v.91h-6V312a3.84,3.84,0,0,0,.74,2.52,2.57,2.57,0,0,0,2.09.89,3.11,3.11,0,0,0,2.41-1l.54.65A3.56,3.56,0,0,1,126.07,316.26Zm-.18-8.94a2.27,2.27,0,0,0-1.87.81,3.94,3.94,0,0,0-.72,2.38h4.94v-.26C128.19,308.29,127.41,307.32,125.89,307.32Z" transform="translate(0 0)" fill="#4d4d4d"/>
        </g>
        <g>
          <path d="M16.14,343.49a4.12,4.12,0,0,0-.65-.06,2.05,2.05,0,0,0-1.44.55,3.08,3.08,0,0,0-.82,1.54v6.57h-1v-9.51h1l0,1.42a2.43,2.43,0,0,1,2.31-1.6,1.28,1.28,0,0,1,.62.12Z" transform="translate(0 0)" fill="#4d4d4d"/>
          <path d="M21.11,352.26a3.57,3.57,0,0,1-2.79-1.1,4.5,4.5,0,0,1-1-3.12v-1.16a5.06,5.06,0,0,1,1-3.29,3.24,3.24,0,0,1,2.66-1.19,3.13,3.13,0,0,1,2.5,1,4.85,4.85,0,0,1,.88,3.1v.91h-6V348a3.84,3.84,0,0,0,.74,2.52,2.59,2.59,0,0,0,2.09.89,3.1,3.1,0,0,0,2.41-1l.54.65A3.54,3.54,0,0,1,21.11,352.26Zm-.18-8.94a2.29,2.29,0,0,0-1.88.81,4.08,4.08,0,0,0-.72,2.38h4.94v-.26C23.22,344.29,22.44,343.32,20.93,343.32Z" transform="translate(0 0)" fill="#4d4d4d"/>
          <path d="M26.13,346.89a5.68,5.68,0,0,1,.83-3.36,2.85,2.85,0,0,1,2.45-1.13A2.77,2.77,0,0,1,32,343.85v-5.26h1v13.5H32L32,350.87a2.82,2.82,0,0,1-2.59,1.39A2.81,2.81,0,0,1,27,351.12a5.53,5.53,0,0,1-.85-3.24Zm1.05.89a4.86,4.86,0,0,0,.58,2.69,2.09,2.09,0,0,0,1.85.86A2.47,2.47,0,0,0,32,349.86v-4.93a2.4,2.4,0,0,0-2.35-1.59,2.09,2.09,0,0,0-1.85.86,4.76,4.76,0,0,0-.59,2.63Z" transform="translate(0 0)" fill="#4d4d4d"/>
          <path d="M41.19,351a2.92,2.92,0,0,1-2.65,1.31,2.46,2.46,0,0,1-2.06-.89,4.22,4.22,0,0,1-.71-2.64v-6.15h1v6.12a3.24,3.24,0,0,0,.49,2,1.59,1.59,0,0,0,1.39.67,2.36,2.36,0,0,0,2.5-1.79v-7h1v9.51h-1Z" transform="translate(0 0)" fill="#4d4d4d"/>
          <path d="M48.15,351.35a2.28,2.28,0,0,0,1.66-.57,2.36,2.36,0,0,0,.62-1.64h1a3.15,3.15,0,0,1-1,2.29,3.24,3.24,0,0,1-2.29.83,3.36,3.36,0,0,1-2.71-1.08,5,5,0,0,1-.93-3.22V346.8a5.06,5.06,0,0,1,.91-3.29,3.33,3.33,0,0,1,2.72-1.11,3.17,3.17,0,0,1,2.37.89,3.69,3.69,0,0,1,.92,2.5h-1A2.8,2.8,0,0,0,49.8,344a2.12,2.12,0,0,0-1.66-.64,2.25,2.25,0,0,0-2,.85,4.4,4.4,0,0,0-.63,2.61v1.08a4.43,4.43,0,0,0,.63,2.66A2.33,2.33,0,0,0,48.15,351.35Z" transform="translate(0 0)" fill="#4d4d4d"/>
          <path d="M55.17,340.15v2.43h1.72v.88H55.17v6.32a2.21,2.21,0,0,0,.24,1.16.9.9,0,0,0,.83.38,5.53,5.53,0,0,0,.74-.08l0,.87a2.68,2.68,0,0,1-1,.15c-1.21,0-1.83-.78-1.86-2.35v-6.45H52.58v-.88h1.56v-2.43Z" transform="translate(0 0)" fill="#4d4d4d"/>
          <path d="M59.1,339.84a.76.76,0,0,1,.18-.51.63.63,0,0,1,.5-.21.64.64,0,0,1,.51.21.76.76,0,0,1,.18.51.75.75,0,0,1-.18.5.64.64,0,0,1-.51.21.63.63,0,0,1-.5-.21A.75.75,0,0,1,59.1,339.84Zm1.19,12.25h-1v-9.51h1Z" transform="translate(0 0)" fill="#4d4d4d"/>
          <path d="M62.76,346.85a4.93,4.93,0,0,1,1-3.25,3.27,3.27,0,0,1,2.68-1.2,3.31,3.31,0,0,1,2.7,1.18,5,5,0,0,1,1,3.24v1a4.87,4.87,0,0,1-1,3.26,3.68,3.68,0,0,1-5.35,0,4.81,4.81,0,0,1-1-3.15Zm1,1a4.29,4.29,0,0,0,.7,2.58,2.53,2.53,0,0,0,3.9,0,4.36,4.36,0,0,0,.69-2.59v-1a4.24,4.24,0,0,0-.71-2.59,2.29,2.29,0,0,0-1.95-.94,2.26,2.26,0,0,0-1.9.92,4.15,4.15,0,0,0-.73,2.54Z" transform="translate(0 0)" fill="#4d4d4d"/>
          <path d="M73.49,342.58l0,1.51a3.38,3.38,0,0,1,1.14-1.23,2.73,2.73,0,0,1,1.57-.46q2.64,0,2.7,3.32v6.37h-1v-6.27a3.14,3.14,0,0,0-.48-1.88,1.73,1.73,0,0,0-1.46-.61,2.14,2.14,0,0,0-1.45.58,3.54,3.54,0,0,0-1,1.58v6.6h-1v-9.51Z" transform="translate(0 0)" fill="#4d4d4d"/>
          <path d="M86.71,349.74a1.39,1.39,0,0,0-.54-1.07,7.52,7.52,0,0,0-1.83-1,10.26,10.26,0,0,1-1.8-.91,2.44,2.44,0,0,1-.75-.8,2,2,0,0,1-.25-1,2.28,2.28,0,0,1,.84-1.81,3.21,3.21,0,0,1,2.17-.72,3.3,3.3,0,0,1,2.29.77,2.58,2.58,0,0,1,.86,2h-1a1.72,1.72,0,0,0-.58-1.34,2.16,2.16,0,0,0-1.53-.53,2.18,2.18,0,0,0-1.45.44,1.41,1.41,0,0,0-.53,1.14,1.16,1.16,0,0,0,.41.93,8,8,0,0,0,1.77,1,10.64,10.64,0,0,1,1.93.95,3,3,0,0,1,.8.84,2.16,2.16,0,0,1,.27,1.1,2.29,2.29,0,0,1-.86,1.87,3.56,3.56,0,0,1-2.28.69,3.65,3.65,0,0,1-2.43-.77,2.47,2.47,0,0,1-.92-2h1a1.8,1.8,0,0,0,.63,1.37,2.5,2.5,0,0,0,1.68.49,2.45,2.45,0,0,0,1.52-.44A1.38,1.38,0,0,0,86.71,349.74Z" transform="translate(0 0)" fill="#4d4d4d"/>
          <path d="M94.07,346.85a5,5,0,0,1,1-3.25,3.65,3.65,0,0,1,5.39,0,5,5,0,0,1,1,3.24v1a4.87,4.87,0,0,1-1,3.26,3.68,3.68,0,0,1-5.35,0,4.76,4.76,0,0,1-1-3.15Zm1,1a4.23,4.23,0,0,0,.7,2.58,2.53,2.53,0,0,0,3.9,0,4.29,4.29,0,0,0,.68-2.59v-1a4.24,4.24,0,0,0-.7-2.59,2.29,2.29,0,0,0-2-.94,2.25,2.25,0,0,0-1.9.92,4.08,4.08,0,0,0-.73,2.54Z" transform="translate(0 0)" fill="#4d4d4d"/>
          <path d="M107.75,343.49a4,4,0,0,0-.65-.06,2,2,0,0,0-1.43.55,3.1,3.1,0,0,0-.83,1.54v6.57h-1v-9.51h1l0,1.42a2.43,2.43,0,0,1,2.31-1.6,1.28,1.28,0,0,1,.62.12Z" transform="translate(0 0)" fill="#4d4d4d"/>
          <path d="M115.4,340.15v2.43h1.72v.88H115.4v6.32a2.1,2.1,0,0,0,.25,1.16.89.89,0,0,0,.82.38,5.64,5.64,0,0,0,.75-.08l0,.87a2.65,2.65,0,0,1-1,.15c-1.21,0-1.83-.78-1.86-2.35v-6.45h-1.55v-.88h1.55v-2.43Z" transform="translate(0 0)" fill="#4d4d4d"/>
          <path d="M122.7,352.26a3.54,3.54,0,0,1-2.78-1.1,4.51,4.51,0,0,1-1-3.12v-1.16a5.06,5.06,0,0,1,1-3.29,3.24,3.24,0,0,1,2.66-1.19,3.13,3.13,0,0,1,2.5,1,4.79,4.79,0,0,1,.88,3.1v.91h-6V348a3.84,3.84,0,0,0,.73,2.52,2.59,2.59,0,0,0,2.09.89,3.09,3.09,0,0,0,2.41-1l.54.65A3.53,3.53,0,0,1,122.7,352.26Zm-.18-8.94a2.26,2.26,0,0,0-1.87.81,4,4,0,0,0-.73,2.38h4.94v-.26C124.81,344.29,124,343.32,122.52,343.32Z" transform="translate(0 0)" fill="#4d4d4d"/>
          <path d="M129,342.58l0,1.42a3,3,0,0,1,2.7-1.6,2.4,2.4,0,0,1,2.51,1.75,3.3,3.3,0,0,1,1.22-1.31,3.22,3.22,0,0,1,1.64-.44q2.72,0,2.78,3.31v6.38h-1v-6.32a3.1,3.1,0,0,0-.49-1.83,1.79,1.79,0,0,0-1.52-.61,2.25,2.25,0,0,0-1.62.71,2.79,2.79,0,0,0-.76,1.72v6.33h-1v-6.3a2.88,2.88,0,0,0-.49-1.85,1.84,1.84,0,0,0-1.52-.61,2.12,2.12,0,0,0-1.46.56,3.06,3.06,0,0,0-.9,1.58v6.62h-1v-9.51Z" transform="translate(0 0)" fill="#4d4d4d"/>
          <path d="M149.48,347.78a5.74,5.74,0,0,1-.81,3.34,2.77,2.77,0,0,1-2.42,1.14,2.93,2.93,0,0,1-2.61-1.31v4.79h-1V342.58h.95l0,1.3a3.15,3.15,0,0,1,5-.39,5.59,5.59,0,0,1,.82,3.33Zm-1-.89a4.78,4.78,0,0,0-.6-2.69,2.13,2.13,0,0,0-1.87-.86,2.4,2.4,0,0,0-2.34,1.57v5a2.42,2.42,0,0,0,2.35,1.43,2.1,2.1,0,0,0,1.85-.86,4.75,4.75,0,0,0,.61-2.65Z" transform="translate(0 0)" fill="#4d4d4d"/>
          <path d="M151.49,346.85a4.93,4.93,0,0,1,1-3.25,3.64,3.64,0,0,1,5.38,0,4.9,4.9,0,0,1,1,3.24v1a4.87,4.87,0,0,1-1,3.26,3.66,3.66,0,0,1-5.34,0,4.82,4.82,0,0,1-1-3.15Zm1,1a4.23,4.23,0,0,0,.7,2.58,2.53,2.53,0,0,0,3.9,0,4.36,4.36,0,0,0,.68-2.59v-1a4.24,4.24,0,0,0-.71-2.59,2.46,2.46,0,0,0-3.85,0,4.14,4.14,0,0,0-.72,2.54Z" transform="translate(0 0)" fill="#4d4d4d"/>
          <path d="M165.18,343.49a4.23,4.23,0,0,0-.65-.06,2.05,2.05,0,0,0-1.44.55,3.08,3.08,0,0,0-.82,1.54v6.57h-1v-9.51h1l0,1.42a2.43,2.43,0,0,1,2.3-1.6,1.3,1.3,0,0,1,.63.12Z" transform="translate(0 0)" fill="#4d4d4d"/>
          <path d="M172,352.09a6.15,6.15,0,0,1-.18-1.32,3.25,3.25,0,0,1-1.2,1.1,3.31,3.31,0,0,1-1.59.39,2.81,2.81,0,0,1-2-.69,2.58,2.58,0,0,1-.73-2,2.69,2.69,0,0,1,1-2.21,4.34,4.34,0,0,1,2.79-.83h1.73v-1.33a1.79,1.79,0,0,0-.54-1.46,2.37,2.37,0,0,0-1.57-.44,2.34,2.34,0,0,0-1.57.52,1.73,1.73,0,0,0-.61,1.37h-1a2.53,2.53,0,0,1,.93-2,3.38,3.38,0,0,1,2.33-.82,3.29,3.29,0,0,1,2.3.72,2.72,2.72,0,0,1,.78,2.1v4.67a6.09,6.09,0,0,0,.27,2.09v.11Zm-2.83-.77a2.94,2.94,0,0,0,1.61-.45,2.59,2.59,0,0,0,1-1.19v-2.31h-1.64A3.44,3.44,0,0,0,168,348a1.89,1.89,0,0,0-.72,1.55A1.62,1.62,0,0,0,169.12,351.32Z" transform="translate(0 0)" fill="#4d4d4d"/>
          <path d="M179.55,343.49a4.24,4.24,0,0,0-.66-.06,2,2,0,0,0-1.43.55,3.17,3.17,0,0,0-.83,1.54v6.57h-1v-9.51h1V344a2.43,2.43,0,0,1,2.31-1.6,1.28,1.28,0,0,1,.62.12Z" transform="translate(0 0)" fill="#4d4d4d"/>
          <path d="M184.19,350.48l2.4-7.9h1.11l-3.55,11-.19.53a2.37,2.37,0,0,1-2.2,1.79,2.54,2.54,0,0,1-.74-.12v-.9a1.73,1.73,0,0,0,.47.06,1.6,1.6,0,0,0,1.1-.38,2.75,2.75,0,0,0,.71-1.22l.43-1.34-3.17-9.45h1.14Z" transform="translate(0 0)" fill="#4d4d4d"/>
        </g>
        <g>
          <path d="M13.23,380.07a3.69,3.69,0,0,1,1.13-1.22,2.8,2.8,0,0,1,1.57-.45q2.63,0,2.7,3.32v6.37h-1v-6.27a3.07,3.07,0,0,0-.47-1.88,1.74,1.74,0,0,0-1.46-.61,2.16,2.16,0,0,0-1.46.58,3.53,3.53,0,0,0-1,1.58v6.6h-1v-13.5h1Z" transform="translate(0 0)" fill="#4d4d4d"/>
          <path d="M21,382.85a4.93,4.93,0,0,1,1-3.25,3.27,3.27,0,0,1,2.68-1.2,3.31,3.31,0,0,1,2.7,1.18,5,5,0,0,1,1,3.24v1a4.87,4.87,0,0,1-1,3.26,3.32,3.32,0,0,1-2.68,1.17A3.36,3.36,0,0,1,22,387.12,4.81,4.81,0,0,1,21,384Zm1,1a4.29,4.29,0,0,0,.7,2.58,2.53,2.53,0,0,0,3.9,0,4.36,4.36,0,0,0,.69-2.59v-1a4.24,4.24,0,0,0-.71-2.59,2.29,2.29,0,0,0-1.95-.94,2.26,2.26,0,0,0-1.9.92,4.15,4.15,0,0,0-.73,2.54Z" transform="translate(0 0)" fill="#4d4d4d"/>
          <path d="M31.87,388.09H30.82v-13.5h1.05Z" transform="translate(0 0)" fill="#4d4d4d"/>
          <path d="M34.35,382.89a5.68,5.68,0,0,1,.83-3.36,2.85,2.85,0,0,1,2.45-1.13,2.78,2.78,0,0,1,2.56,1.45v-5.26h1v13.5h-1l0-1.22a3.12,3.12,0,0,1-5,.25,5.53,5.53,0,0,1-.85-3.24Zm1,.89a4.86,4.86,0,0,0,.58,2.69,2.09,2.09,0,0,0,1.85.86,2.47,2.47,0,0,0,2.36-1.47v-4.93a2.4,2.4,0,0,0-2.35-1.59,2.09,2.09,0,0,0-1.85.86,4.76,4.76,0,0,0-.59,2.63Z" transform="translate(0 0)" fill="#4d4d4d"/>
          <path d="M47.92,382.89a5.68,5.68,0,0,1,.83-3.36,2.86,2.86,0,0,1,2.46-1.13,2.79,2.79,0,0,1,2.56,1.45v-5.26h1v13.5h-1l0-1.22a3.12,3.12,0,0,1-5,.25,5.53,5.53,0,0,1-.86-3.24Zm1.06.89a4.86,4.86,0,0,0,.58,2.69,2.06,2.06,0,0,0,1.84.86,2.47,2.47,0,0,0,2.37-1.47v-4.93a2.41,2.41,0,0,0-2.36-1.59,2.06,2.06,0,0,0-1.84.86,4.67,4.67,0,0,0-.59,2.63Z" transform="translate(0 0)" fill="#4d4d4d"/>
          <path d="M63,387a2.93,2.93,0,0,1-2.65,1.31,2.48,2.48,0,0,1-2.07-.89,4.28,4.28,0,0,1-.71-2.64v-6.15h1v6.12a3.31,3.31,0,0,0,.48,2,1.61,1.61,0,0,0,1.4.67,2.37,2.37,0,0,0,2.5-1.79v-7h1v9.51H63Z" transform="translate(0 0)" fill="#4d4d4d"/>
          <path d="M70.09,388.26a3.57,3.57,0,0,1-2.79-1.1,4.5,4.5,0,0,1-1-3.12v-1.16a5.06,5.06,0,0,1,1-3.29,3.24,3.24,0,0,1,2.66-1.19,3.13,3.13,0,0,1,2.5,1,4.85,4.85,0,0,1,.88,3.1v.91h-6V384a3.84,3.84,0,0,0,.74,2.52,2.59,2.59,0,0,0,2.09.89,3.1,3.1,0,0,0,2.41-1l.54.65A3.54,3.54,0,0,1,70.09,388.26Zm-.18-8.94a2.29,2.29,0,0,0-1.88.81,4.08,4.08,0,0,0-.72,2.38h4.94v-.26C72.2,380.29,71.42,379.32,69.91,379.32Z" transform="translate(0 0)" fill="#4d4d4d"/>
          <path d="M81.32,376.15v2.43H83v.88H81.32v6.32a2.21,2.21,0,0,0,.24,1.16.9.9,0,0,0,.83.38,5.7,5.7,0,0,0,.74-.08l0,.87a2.74,2.74,0,0,1-1,.15c-1.21,0-1.83-.78-1.86-2.35v-6.45H78.73v-.88h1.55v-2.43Z" transform="translate(0 0)" fill="#4d4d4d"/>
          <path d="M84.73,382.85a5,5,0,0,1,1-3.25,3.65,3.65,0,0,1,5.39,0,5,5,0,0,1,1,3.24v1a4.87,4.87,0,0,1-1,3.26,3.68,3.68,0,0,1-5.35,0,4.76,4.76,0,0,1-1-3.15Zm1,1a4.23,4.23,0,0,0,.7,2.58,2.53,2.53,0,0,0,3.9,0,4.29,4.29,0,0,0,.68-2.59v-1a4.24,4.24,0,0,0-.7-2.59,2.31,2.31,0,0,0-1.95-.94,2.28,2.28,0,0,0-1.91.92,4.14,4.14,0,0,0-.72,2.54Z" transform="translate(0 0)" fill="#4d4d4d"/>
          <path d="M105.13,384.51h-5.08l-1.15,3.58H97.79l4.32-12.8h1l4.32,12.8H106.3Zm-4.77-.94h4.46l-2.23-6.86Z" transform="translate(0 0)" fill="#4d4d4d"/>
          <path d="M115.74,382h-5.26v5.2h6v.93h-7.11v-12.8h7.06v.95h-6V381h5.26Z" transform="translate(0 0)" fill="#4d4d4d"/>
          <path d="M123.7,385.74a1.39,1.39,0,0,0-.54-1.07,7.52,7.52,0,0,0-1.83-1,10.65,10.65,0,0,1-1.8-.91,2.44,2.44,0,0,1-.75-.8,2,2,0,0,1-.24-1,2.28,2.28,0,0,1,.84-1.81,3.18,3.18,0,0,1,2.16-.72,3.3,3.3,0,0,1,2.29.77,2.58,2.58,0,0,1,.86,2h-1a1.73,1.73,0,0,0-.59-1.34,2.16,2.16,0,0,0-1.53-.53,2.14,2.14,0,0,0-1.44.44,1.39,1.39,0,0,0-.54,1.14,1.19,1.19,0,0,0,.41.93,8,8,0,0,0,1.77,1,10.3,10.3,0,0,1,1.93.95,2.86,2.86,0,0,1,.8.84,2.16,2.16,0,0,1,.27,1.1,2.26,2.26,0,0,1-.86,1.87,3.56,3.56,0,0,1-2.28.69,3.6,3.6,0,0,1-2.42-.77,2.48,2.48,0,0,1-.93-2h1a1.8,1.8,0,0,0,.63,1.37,2.53,2.53,0,0,0,1.68.49,2.5,2.5,0,0,0,1.53-.44A1.4,1.4,0,0,0,123.7,385.74Z" transform="translate(0 0)" fill="#4d4d4d"/>
        </g>
        <g>
          <path d="M240.8,22.84a6,6,0,0,1-1.22,4,4.2,4.2,0,0,1-3.38,1.42,4.26,4.26,0,0,1-3.38-1.41,5.88,5.88,0,0,1-1.25-4V20.71a6.28,6.28,0,0,1,1.22-4.11,4.61,4.61,0,0,1,6.76,0,6.19,6.19,0,0,1,1.25,4.08Zm-2.59-2.14a5.35,5.35,0,0,0-.49-2.58,1.82,1.82,0,0,0-3.05,0,5,5,0,0,0-.51,2.47v2.28a4.68,4.68,0,0,0,.5,2.47,1.7,1.7,0,0,0,1.54.8,1.66,1.66,0,0,0,1.51-.78,4.79,4.79,0,0,0,.5-2.41Z" transform="translate(0 0)" fill="#fff"/>
          <path d="M245.24,25.94h4.53v2.15h-7.12V15.29h2.59Z" transform="translate(0 0)" fill="#fff"/>
          <path d="M251.88,31.31l-1.32-.69.33-.63a4.4,4.4,0,0,0,.58-2.09v-2h2.16v1.77a4.56,4.56,0,0,1-.47,1.93A4.77,4.77,0,0,1,251.88,31.31Z" transform="translate(0 0)" fill="#fff"/>
          <path d="M265.12,28.09h-2.5V18.31l-2.43.94V17.18l4.67-1.91h.26Z" transform="translate(0 0)" fill="#fff"/>
          <path d="M275.92,18.69a3.41,3.41,0,0,1-.39,1.65,3.09,3.09,0,0,1-1.09,1.15,3.35,3.35,0,0,1,1.24,1.24,3.55,3.55,0,0,1,.46,1.85,3.66,3.66,0,0,1-1,2.69,3.62,3.62,0,0,1-2.68,1,3.68,3.68,0,0,1-2.7-1,3.59,3.59,0,0,1-1-2.69,3.65,3.65,0,0,1,.45-1.85,3.33,3.33,0,0,1,1.26-1.24,3,3,0,0,1-1.1-1.15,3.41,3.41,0,0,1-.39-1.65,3.57,3.57,0,0,1,.94-2.63,3.82,3.82,0,0,1,5.05,0A3.6,3.6,0,0,1,275.92,18.69Zm-3.44,7.51a1,1,0,0,0,.86-.48,2.52,2.52,0,0,0,.3-1.33,2.44,2.44,0,0,0-.31-1.34,1,1,0,0,0-.87-.48,1,1,0,0,0-.88.48,2.44,2.44,0,0,0-.32,1.34,2.42,2.42,0,0,0,.32,1.33A1,1,0,0,0,272.48,26.2Zm1-7.38a2.54,2.54,0,0,0-.24-1.19.79.79,0,0,0-.74-.45.77.77,0,0,0-.72.43,2.42,2.42,0,0,0-.25,1.21,2.52,2.52,0,0,0,.25,1.22.82.82,0,0,0,1.47,0A2.79,2.79,0,0,0,273.44,18.82Z" transform="translate(0 0)" fill="#fff"/>
          <path d="M290.51,23.33l1.21-8h2.56L292,28.09h-2.6l-1.49-7.54-1.48,7.54h-2.6l-2.28-12.8h2.57l1.2,8,1.51-8H289Z" transform="translate(0 0)" fill="#fff"/>
          <path d="M298.71,24.42l-.67.75v2.92h-2.48V14.59H298v7.29l.31-.46,1.72-2.84h3l-2.76,3.92,3,5.59h-2.85Z" transform="translate(0 0)" fill="#fff"/>
        </g>
        <g>
          <path d="M236.33,52.67H233V64.09h-1.61V52.67H228V51.29h8.33Z" transform="translate(0 0)" fill="#4d4d4d"/>
          <path d="M236.81,58.89a4.93,4.93,0,0,1,1-3.28,3.26,3.26,0,0,1,2.65-1.21,3.3,3.3,0,0,1,2.66,1.18,4.88,4.88,0,0,1,1,3.21v1a4.94,4.94,0,0,1-1,3.27,3.58,3.58,0,0,1-5.32,0,4.85,4.85,0,0,1-1-3.16Zm1.55.9a4.07,4.07,0,0,0,.58,2.31,1.78,1.78,0,0,0,1.55.84c1.37,0,2.08-1,2.12-3V58.89a4,4,0,0,0-.58-2.3,1.8,1.8,0,0,0-1.56-.85,1.76,1.76,0,0,0-1.53.85,4,4,0,0,0-.58,2.29Z" transform="translate(0 0)" fill="#4d4d4d"/>
          <path d="M246.85,64.09V55.83h-1.23V54.58h1.23v-1.1a3.44,3.44,0,0,1,.74-2.26,2.49,2.49,0,0,1,2-.82,3.13,3.13,0,0,1,.94.15l-.08,1.31a3.22,3.22,0,0,0-.71-.08c-.89,0-1.33.63-1.33,1.9v.9H250v1.25h-1.63v8.26Z" transform="translate(0 0)" fill="#4d4d4d"/>
          <path d="M256.76,64.09a3.56,3.56,0,0,1-.2-1,2.47,2.47,0,0,1-2.11,1.21,2.76,2.76,0,0,1-2-.72,2.8,2.8,0,0,1-.72-2,2.88,2.88,0,0,1,1-2.3,4,4,0,0,1,2.7-.87h1.14v-1a1.58,1.58,0,0,0-.38-1.21,1.9,1.9,0,0,0-2.29,0,1.43,1.43,0,0,0-.44,1.06h-1.56a2.51,2.51,0,0,1,.44-1.39,2.92,2.92,0,0,1,1.16-1,3.46,3.46,0,0,1,1.62-.38,3.08,3.08,0,0,1,2.22.73,2.8,2.8,0,0,1,.78,2.11V62a5.51,5.51,0,0,0,.3,1.91v.14Zm-2.07-1.24a2.09,2.09,0,0,0,1.09-.32,2,2,0,0,0,.75-.79V59.47h-.88a2.93,2.93,0,0,0-1.75.5,1.6,1.6,0,0,0-.64,1.34,1.7,1.7,0,0,0,.33,1.17A1.38,1.38,0,0,0,254.69,62.85Z" transform="translate(0 0)" fill="#4d4d4d"/>
          <path d="M263.79,62.94a1.64,1.64,0,0,0,1.24-.48,2.05,2.05,0,0,0,.51-1.37H267a3.26,3.26,0,0,1-1,2.27,3.1,3.1,0,0,1-2.25.9,3.3,3.3,0,0,1-2.69-1.11,5,5,0,0,1-.93-3.31v-1a5.09,5.09,0,0,1,.92-3.28,3.28,3.28,0,0,1,2.69-1.12,3,3,0,0,1,2.32.92,3.81,3.81,0,0,1,.91,2.53h-1.47a2.59,2.59,0,0,0-.5-1.59,1.58,1.58,0,0,0-1.26-.52,1.78,1.78,0,0,0-1.54.68,4,4,0,0,0-.51,2.24v1.21a4.23,4.23,0,0,0,.49,2.37A1.81,1.81,0,0,0,263.79,62.94Z" transform="translate(0 0)" fill="#4d4d4d"/>
          <path d="M270.6,52.05a1,1,0,0,1-.22.66.8.8,0,0,1-.66.27.78.78,0,0,1-.66-.27,1,1,0,0,1-.22-.66,1,1,0,0,1,.22-.66.76.76,0,0,1,.66-.28.82.82,0,0,1,.66.28A1,1,0,0,1,270.6,52.05Zm-.12,12h-1.56V54.58h1.56Z" transform="translate(0 0)" fill="#4d4d4d"/>
          <path d="M275,52.27v2.31h1.43v1.25H275v5.91a1.53,1.53,0,0,0,.19.85.67.67,0,0,0,.63.29,2,2,0,0,0,.62-.1v1.31a3.69,3.69,0,0,1-1.08.17,1.63,1.63,0,0,1-1.41-.66,3.12,3.12,0,0,1-.48-1.86V55.83H272V54.58h1.45V52.27Z" transform="translate(0 0)" fill="#4d4d4d"/>
          <path d="M280,52.05a1,1,0,0,1-.22.66.8.8,0,0,1-.67.27.78.78,0,0,1-.65-.27,1,1,0,0,1-.22-.66,1,1,0,0,1,.22-.66.76.76,0,0,1,.65-.28.82.82,0,0,1,.67.28A1,1,0,0,1,280,52.05Zm-.12,12h-1.56V54.58h1.56Z" transform="translate(0 0)" fill="#4d4d4d"/>
          <path d="M283.83,54.58l0,1a2.78,2.78,0,0,1,2.32-1.21c1.68,0,2.53,1.12,2.55,3.37v6.32H287.2V57.84a2.57,2.57,0,0,0-.38-1.59,1.35,1.35,0,0,0-1.12-.47,1.58,1.58,0,0,0-1,.39,2.76,2.76,0,0,0-.74,1v6.91h-1.56V54.58Z" transform="translate(0 0)" fill="#4d4d4d"/>
          <path d="M292.87,52.05a1,1,0,0,1-.22.66.94.94,0,0,1-1.32,0,1,1,0,0,1-.22-.66,1,1,0,0,1,.22-.66.76.76,0,0,1,.66-.28.82.82,0,0,1,.66.28A1,1,0,0,1,292.87,52.05Zm-.12,12H291.2V54.58h1.55Z" transform="translate(0 0)" fill="#4d4d4d"/>
          <path d="M302.09,59.79a5.81,5.81,0,0,1-.8,3.35A2.68,2.68,0,0,1,299,64.26,2.45,2.45,0,0,1,296.7,63l-.08,1.13H295.2V50.59h1.55v5A2.45,2.45,0,0,1,299,54.4a2.67,2.67,0,0,1,2.34,1.11,5.81,5.81,0,0,1,.8,3.34Zm-1.55-.89a4.56,4.56,0,0,0-.47-2.4,1.69,1.69,0,0,0-1.53-.72,1.9,1.9,0,0,0-1.79,1.3V61.6a1.9,1.9,0,0,0,1.81,1.28,1.63,1.63,0,0,0,1.51-.73,4.55,4.55,0,0,0,.47-2.3Z" transform="translate(0 0)" fill="#4d4d4d"/>
        </g>
        <path d="M306.15,55.59a3.38,3.38,0,0,1-.47,1.95,1.55,1.55,0,0,1-1.35.66,1.44,1.44,0,0,1-1.32-.76l-.05.65h-.82V50.22h.9v2.94a1.4,1.4,0,0,1,1.28-.71,1.57,1.57,0,0,1,1.37.64,3.5,3.5,0,0,1,.46,1.95Zm-.9-.52a2.67,2.67,0,0,0-.28-1.4,1,1,0,0,0-.89-.42,1.1,1.1,0,0,0-1,.76v2.63a1.1,1.1,0,0,0,1,.75A.94.94,0,0,0,305,57a2.68,2.68,0,0,0,.28-1.34Z" transform="translate(0 0)" fill="#4d4d4d"/>
        <g>
          <path d="M235.85,94.89a14.86,14.86,0,0,1,.62-4.33A11.75,11.75,0,0,1,238.24,87a5.67,5.67,0,0,1,1.33-1.35l.31,1.07a7.4,7.4,0,0,0-1.73,3,15.57,15.57,0,0,0-.74,4.53V95a15.8,15.8,0,0,0,.87,5.46,7.83,7.83,0,0,0,1.61,2.76l-.31,1a6.69,6.69,0,0,1-1.64-1.8A13.28,13.28,0,0,1,235.85,94.89Z" transform="translate(0 0)" fill="#4d4d4d"/>
          <path d="M250.1,100.09h-1.61l-5.13-9.86v9.86h-1.61V87.29h1.61l5.14,9.91V87.29h1.6Z" transform="translate(0 0)" fill="#4d4d4d"/>
          <path d="M263.09,92.93h-6.16V91.52h6.16Zm0,3.65h-6.16V95.17h6.16Z" transform="translate(0 0)" fill="#4d4d4d"/>
          <path d="M276.56,100.09H269.4V98.92l3.65-4.84a10.86,10.86,0,0,0,1.15-1.83,3.72,3.72,0,0,0,.32-1.51,2.74,2.74,0,0,0-.47-1.66,1.5,1.5,0,0,0-1.25-.63,1.8,1.8,0,0,0-1.51.67,3,3,0,0,0-.53,1.94H269.2a4.13,4.13,0,0,1,1-2.86,3.35,3.35,0,0,1,2.63-1.09,3.17,3.17,0,0,1,2.41.94,3.5,3.5,0,0,1,.87,2.49,7.86,7.86,0,0,1-2,4.49l-2.85,3.73h5.3Z" transform="translate(0 0)" fill="#4d4d4d"/>
          <path d="M285.44,100.09h-7.15V98.92l3.65-4.84a10.08,10.08,0,0,0,1.14-1.83,3.57,3.57,0,0,0,.33-1.51,2.68,2.68,0,0,0-.48-1.66,1.49,1.49,0,0,0-1.25-.63,1.78,1.78,0,0,0-1.5.67,3,3,0,0,0-.54,1.94h-1.55a4.13,4.13,0,0,1,1-2.86,3.34,3.34,0,0,1,2.62-1.09,3.15,3.15,0,0,1,2.41.94,3.46,3.46,0,0,1,.88,2.49A7.89,7.89,0,0,1,283,95l-2.85,3.73h5.3Z" transform="translate(0 0)" fill="#4d4d4d"/>
          <path d="M287.81,93.67l.55-6.38h5.57v1.5h-4.26l-.3,3.49a2.92,2.92,0,0,1,1.71-.55,2.78,2.78,0,0,1,2.35,1.16,5.2,5.2,0,0,1,.85,3.12,4.8,4.8,0,0,1-.93,3.12,3.41,3.41,0,0,1-4.89.19,4.09,4.09,0,0,1-1-2.6h1.46a3,3,0,0,0,.63,1.66,1.66,1.66,0,0,0,1.3.56,1.61,1.61,0,0,0,1.41-.79,3.87,3.87,0,0,0,.51-2.12,3.5,3.5,0,0,0-.55-2,1.71,1.71,0,0,0-1.48-.79,1.81,1.81,0,0,0-1.24.4l-.41.41Z" transform="translate(0 0)" fill="#4d4d4d"/>
          <path d="M299.54,95a13.4,13.4,0,0,1-1.76,6.93,7,7,0,0,1-2,2.31l-.31-1a7.44,7.44,0,0,0,1.78-3.24,16.49,16.49,0,0,0,.7-4.79v-.32a15.46,15.46,0,0,0-1.1-6,7.68,7.68,0,0,0-1.38-2.26l.31-1a6.83,6.83,0,0,1,1.87,2.13A13.68,13.68,0,0,1,299.54,95Z" transform="translate(0 0)" fill="#4d4d4d"/>
        </g>
        <g>
          <path d="M236.65,136.09h-1V124.58l-2.89,1.29v-1l3.71-1.62h.17Z" transform="translate(0 0)" fill="#4d4d4d"/>
          <path d="M241.81,129.53l.53-6.24h5.41v1h-4.57l-.36,4.29a3,3,0,0,1,2-.7,2.75,2.75,0,0,1,2.33,1.13,4.84,4.84,0,0,1,.86,3,5.15,5.15,0,0,1-.85,3.13,2.81,2.81,0,0,1-2.4,1.12,3,3,0,0,1-2.29-.94,4.05,4.05,0,0,1-1-2.6h.93a3.28,3.28,0,0,0,.73,2,2.05,2.05,0,0,0,1.62.67,1.91,1.91,0,0,0,1.7-.87A4.48,4.48,0,0,0,247,132a3.74,3.74,0,0,0-.65-2.28,2,2,0,0,0-1.74-.88,2.42,2.42,0,0,0-2,.92Z" transform="translate(0 0)" fill="#4d4d4d"/>
          <path d="M251.93,129.11h1a2.36,2.36,0,0,0,1.73-.68,2.43,2.43,0,0,0,.67-1.8,2.89,2.89,0,0,0-.57-1.92,2,2,0,0,0-1.62-.68,2.09,2.09,0,0,0-1.65.72,2.81,2.81,0,0,0-.63,1.9h-1a3.86,3.86,0,0,1,.41-1.81,3,3,0,0,1,1.16-1.26,3.15,3.15,0,0,1,1.68-.47,3,3,0,0,1,2.3.94,3.69,3.69,0,0,1,.86,2.61,3.14,3.14,0,0,1-.49,1.73,3.07,3.07,0,0,1-1.33,1.14,2.76,2.76,0,0,1,1.49,1.11,3.51,3.51,0,0,1,.53,2,3.77,3.77,0,0,1-.92,2.66,3.12,3.12,0,0,1-2.41,1,3.52,3.52,0,0,1-1.76-.45,3.16,3.16,0,0,1-1.24-1.27,4,4,0,0,1-.43-1.92h1a2.85,2.85,0,0,0,.68,2,2.29,2.29,0,0,0,1.78.77,2.17,2.17,0,0,0,1.73-.7,3,3,0,0,0,.62-2,2.35,2.35,0,0,0-2.6-2.62h-.95Z" transform="translate(0 0)" fill="#4d4d4d"/>
          <path d="M262.79,130.92a15.63,15.63,0,0,1,.47-3.83,13,13,0,0,1,1.25-3.29,6.23,6.23,0,0,1,1.68-2.07l.23.74a5.62,5.62,0,0,0-1.34,1.92,13.38,13.38,0,0,0-.95,3,17.82,17.82,0,0,0-.35,3.7,17.39,17.39,0,0,0,.34,3.5,13.54,13.54,0,0,0,1,3,5.82,5.82,0,0,0,1.34,2l-.23.7a5.53,5.53,0,0,1-1.22-1.3,10.36,10.36,0,0,1-1.1-2.08,14.74,14.74,0,0,1-.78-2.65A16.12,16.12,0,0,1,262.79,130.92Z" transform="translate(0 0)" fill="#4d4d4d"/>
          <path d="M273.24,123.2v.94h-.14a3.64,3.64,0,0,0-2.94,1.32,6.31,6.31,0,0,0-1.19,3.7,3.15,3.15,0,0,1,1.12-1.09,2.87,2.87,0,0,1,1.48-.39,2.63,2.63,0,0,1,2.25,1.17,5.09,5.09,0,0,1,.84,3,5.22,5.22,0,0,1-.89,3.17,2.75,2.75,0,0,1-2.32,1.2,3,3,0,0,1-2.5-1.32,5.65,5.65,0,0,1-1-3.46v-1a9.22,9.22,0,0,1,1.3-5.36A4.39,4.39,0,0,1,273,123.2Zm-1.83,5.4a2.35,2.35,0,0,0-1.53.59,2.87,2.87,0,0,0-.92,1.47v.91a4.81,4.81,0,0,0,.7,2.73,2.1,2.1,0,0,0,1.79,1,1.88,1.88,0,0,0,1.63-1,4.49,4.49,0,0,0,.62-2.46,4.2,4.2,0,0,0-.62-2.42A1.91,1.91,0,0,0,271.41,128.6Z" transform="translate(0 0)" fill="#4d4d4d"/>
          <path d="M283.12,126.59a3.31,3.31,0,0,1-.47,1.75,3,3,0,0,1-1.28,1.18,3.21,3.21,0,0,1,1.49,1.25,3.47,3.47,0,0,1,.54,1.92,3.62,3.62,0,0,1-.93,2.6,3.68,3.68,0,0,1-5,0,3.6,3.6,0,0,1-.93-2.6,3.48,3.48,0,0,1,.53-1.93,3.16,3.16,0,0,1,1.46-1.24,2.93,2.93,0,0,1-1.27-1.17,3.47,3.47,0,0,1-.46-1.76,3.65,3.65,0,0,1,.86-2.54,3,3,0,0,1,2.29-.94,3,3,0,0,1,2.29,1A3.61,3.61,0,0,1,283.12,126.59Zm-.7,6.1a2.8,2.8,0,0,0-.69-1.95A2.28,2.28,0,0,0,280,130a2.32,2.32,0,0,0-1.76.74,2.8,2.8,0,0,0-.69,2,2.77,2.77,0,0,0,.67,1.94,2.57,2.57,0,0,0,3.57,0A2.75,2.75,0,0,0,282.42,132.69Zm-.27-6.11a2.74,2.74,0,0,0-.62-1.83A2,2,0,0,0,280,124a1.94,1.94,0,0,0-1.57.7,2.76,2.76,0,0,0-.59,1.85,2.6,2.6,0,0,0,.61,1.82,2,2,0,0,0,1.56.66,2,2,0,0,0,1.56-.68A2.61,2.61,0,0,0,282.15,126.58Z" transform="translate(0 0)" fill="#4d4d4d"/>
          <path d="M285.62,135.45a.74.74,0,0,1,.2-.54.71.71,0,0,1,.55-.21.72.72,0,0,1,.55.21.74.74,0,0,1,.2.54.65.65,0,0,1-.2.5.72.72,0,0,1-.55.21.71.71,0,0,1-.55-.21A.65.65,0,0,1,285.62,135.45Z" transform="translate(0 0)" fill="#4d4d4d"/>
          <path d="M296.34,130.74a8.17,8.17,0,0,1-.84,4.13,2.89,2.89,0,0,1-4.94,0,8,8,0,0,1-.86-4V128.6a8.18,8.18,0,0,1,.83-4.08,2.9,2.9,0,0,1,4.94,0,7.8,7.8,0,0,1,.87,4Zm-1-2.29a7.36,7.36,0,0,0-.59-3.31,1.94,1.94,0,0,0-3.49,0,7,7,0,0,0-.62,3.17v2.59a7.31,7.31,0,0,0,.61,3.32,1.9,1.9,0,0,0,1.76,1.17,1.87,1.87,0,0,0,1.72-1.11,7.3,7.3,0,0,0,.61-3.27Z" transform="translate(0 0)" fill="#4d4d4d"/>
          <path d="M301.44,131.05a15.67,15.67,0,0,1-.44,3.79,12.82,12.82,0,0,1-1.23,3.27,6.36,6.36,0,0,1-1.72,2.11l-.22-.7a6.5,6.5,0,0,0,1.54-2.4,16.35,16.35,0,0,0,1.09-6.23,17.09,17.09,0,0,0-.34-3.47,13.9,13.9,0,0,0-1-3,5.79,5.79,0,0,0-1.32-2l.22-.7a6.7,6.7,0,0,1,1.81,2.32A15,15,0,0,1,301.44,131.05Z" transform="translate(0 0)" fill="#4d4d4d"/>
        </g>
        <g>
          <path d="M252.27,159.91l-4.58,12.18h-1l4.54-11.89h-6.06v-.91h7.11Z" transform="translate(0 0)" fill="#4d4d4d"/>
          <path d="M258.41,166.92a15.63,15.63,0,0,1,.46-3.83,13.42,13.42,0,0,1,1.26-3.29,6.34,6.34,0,0,1,1.67-2.07l.23.74a5.76,5.76,0,0,0-1.34,1.92,13.38,13.38,0,0,0-.95,3,18.53,18.53,0,0,0-.35,3.7,17.38,17.38,0,0,0,.35,3.5,13,13,0,0,0,.95,3,6,6,0,0,0,1.34,2l-.23.7a5.51,5.51,0,0,1-1.21-1.3,10.36,10.36,0,0,1-1.11-2.08,15.61,15.61,0,0,1-.78-2.65A16.92,16.92,0,0,1,258.41,166.92Z" transform="translate(0 0)" fill="#4d4d4d"/>
          <path d="M265.58,165.11h1a2.36,2.36,0,0,0,1.73-.68,2.43,2.43,0,0,0,.67-1.8,2.89,2.89,0,0,0-.57-1.92,2,2,0,0,0-1.62-.68,2.09,2.09,0,0,0-1.65.72,2.81,2.81,0,0,0-.63,1.9h-1a3.86,3.86,0,0,1,.41-1.81,3,3,0,0,1,1.16-1.26,3.13,3.13,0,0,1,1.68-.47,3,3,0,0,1,2.3.94,3.69,3.69,0,0,1,.86,2.61,3.14,3.14,0,0,1-.49,1.73,3.07,3.07,0,0,1-1.33,1.14,2.76,2.76,0,0,1,1.49,1.11,3.51,3.51,0,0,1,.53,2,3.77,3.77,0,0,1-.92,2.66,3.12,3.12,0,0,1-2.41,1,3.52,3.52,0,0,1-1.76-.45,3.1,3.1,0,0,1-1.24-1.27,4,4,0,0,1-.43-1.92h1a2.85,2.85,0,0,0,.68,2,2.29,2.29,0,0,0,1.78.77,2.17,2.17,0,0,0,1.73-.7,3,3,0,0,0,.62-2,2.35,2.35,0,0,0-2.6-2.62h-.95Z" transform="translate(0 0)" fill="#4d4d4d"/>
          <path d="M272.48,171.45a.78.78,0,0,1,.2-.54.71.71,0,0,1,.55-.21.72.72,0,0,1,.55.21.74.74,0,0,1,.2.54.65.65,0,0,1-.2.5.72.72,0,0,1-.55.21.71.71,0,0,1-.55-.21A.69.69,0,0,1,272.48,171.45Z" transform="translate(0 0)" fill="#4d4d4d"/>
          <path d="M280.86,172.09h-1V160.58L277,161.87v-1l3.71-1.62h.17Z" transform="translate(0 0)" fill="#4d4d4d"/>
          <path d="M288.3,167.05a15.67,15.67,0,0,1-.44,3.79,12.82,12.82,0,0,1-1.23,3.27,6.36,6.36,0,0,1-1.72,2.11l-.22-.7a6.5,6.5,0,0,0,1.54-2.4,16.35,16.35,0,0,0,1.09-6.23,17.09,17.09,0,0,0-.34-3.47,13.9,13.9,0,0,0-1-3,5.79,5.79,0,0,0-1.32-2l.22-.7a6.7,6.7,0,0,1,1.81,2.32A15,15,0,0,1,288.3,167.05Z" transform="translate(0 0)" fill="#4d4d4d"/>
        </g>
        <g>
          <path d="M243.62,280.09h-6.78v-.84l3.64-4.9a11.5,11.5,0,0,0,1.27-2.09,4,4,0,0,0,.36-1.61,2.94,2.94,0,0,0-.57-1.91,1.94,1.94,0,0,0-1.6-.71,2.05,2.05,0,0,0-1.72.82,3.35,3.35,0,0,0-.64,2.13h-1a4.21,4.21,0,0,1,.92-2.77,3.29,3.29,0,0,1,4.73-.19,3.55,3.55,0,0,1,.85,2.53,6.78,6.78,0,0,1-1.38,3.6l-.57.8L238,279.17h5.6Z" transform="translate(0 0)" fill="#4d4d4d"/>
          <path d="M250.83,267.2v.94h-.15a3.62,3.62,0,0,0-2.93,1.32,6.24,6.24,0,0,0-1.19,3.7,3.21,3.21,0,0,1,1.11-1.09,2.9,2.9,0,0,1,1.48-.39,2.62,2.62,0,0,1,2.25,1.17,5.09,5.09,0,0,1,.84,3,5.22,5.22,0,0,1-.88,3.17,2.76,2.76,0,0,1-2.32,1.2,3,3,0,0,1-2.51-1.32,5.72,5.72,0,0,1-1-3.46v-1a9.22,9.22,0,0,1,1.31-5.36,4.38,4.38,0,0,1,3.73-1.88ZM249,272.6a2.31,2.31,0,0,0-1.52.59,2.82,2.82,0,0,0-.93,1.47v.91a4.81,4.81,0,0,0,.7,2.73,2.1,2.1,0,0,0,1.8,1.05,1.87,1.87,0,0,0,1.62-1,4.4,4.4,0,0,0,.63-2.46,4.28,4.28,0,0,0-.62-2.42A1.93,1.93,0,0,0,249,272.6Z" transform="translate(0 0)" fill="#4d4d4d"/>
          <path d="M258.41,274.92a15.63,15.63,0,0,1,.47-3.83,13,13,0,0,1,1.25-3.29,6.23,6.23,0,0,1,1.68-2.07l.23.74a5.62,5.62,0,0,0-1.34,1.92,13.38,13.38,0,0,0-.95,3,17.82,17.82,0,0,0-.35,3.7,17.39,17.39,0,0,0,.34,3.5,13.54,13.54,0,0,0,1,3,6,6,0,0,0,1.34,1.95l-.23.7a5.53,5.53,0,0,1-1.22-1.3,10.36,10.36,0,0,1-1.1-2.08,14.74,14.74,0,0,1-.78-2.65A16.12,16.12,0,0,1,258.41,274.92Z" transform="translate(0 0)" fill="#4d4d4d"/>
          <path d="M267.81,280.09h-1V268.58l-2.9,1.29v-1l3.71-1.62h.17Z" transform="translate(0 0)" fill="#4d4d4d"/>
          <path d="M276.56,280.09h-1V268.58l-2.89,1.29v-1l3.71-1.62h.16Z" transform="translate(0 0)" fill="#4d4d4d"/>
          <path d="M281.24,279.45a.78.78,0,0,1,.2-.54.71.71,0,0,1,.55-.21.72.72,0,0,1,.55.21.74.74,0,0,1,.2.54.65.65,0,0,1-.2.5.72.72,0,0,1-.55.21.71.71,0,0,1-.55-.21A.69.69,0,0,1,281.24,279.45Z" transform="translate(0 0)" fill="#4d4d4d"/>
          <path d="M290.67,267.2v.94h-.15a3.62,3.62,0,0,0-2.93,1.32,6.24,6.24,0,0,0-1.19,3.7,3.15,3.15,0,0,1,1.12-1.09,2.84,2.84,0,0,1,1.47-.39,2.65,2.65,0,0,1,2.26,1.17,5.09,5.09,0,0,1,.84,3,5.22,5.22,0,0,1-.89,3.17,2.76,2.76,0,0,1-2.32,1.2,3,3,0,0,1-2.51-1.32,5.72,5.72,0,0,1-1-3.46v-1a9.22,9.22,0,0,1,1.3-5.36,4.38,4.38,0,0,1,3.73-1.88Zm-1.84,5.4a2.31,2.31,0,0,0-1.52.59,2.82,2.82,0,0,0-.93,1.47v.91a4.89,4.89,0,0,0,.7,2.73,2.1,2.1,0,0,0,1.8,1.05,1.86,1.86,0,0,0,1.62-1,4.4,4.4,0,0,0,.63-2.46,4.28,4.28,0,0,0-.62-2.42A1.92,1.92,0,0,0,288.83,272.6Z" transform="translate(0 0)" fill="#4d4d4d"/>
          <path d="M297.06,275.05a15.67,15.67,0,0,1-.44,3.79,12.82,12.82,0,0,1-1.23,3.27,6.36,6.36,0,0,1-1.72,2.11l-.22-.7a6.5,6.5,0,0,0,1.54-2.4,16.35,16.35,0,0,0,1.09-6.23,17.09,17.09,0,0,0-.34-3.47,13.9,13.9,0,0,0-1-3,5.79,5.79,0,0,0-1.32-2l.22-.7a6.7,6.7,0,0,1,1.81,2.32A15,15,0,0,1,297.06,275.05Z" transform="translate(0 0)" fill="#4d4d4d"/>
        </g>
        <g>
          <path d="M248,388.09h-6.79v-.84l3.64-4.9a11.5,11.5,0,0,0,1.27-2.09,4,4,0,0,0,.36-1.61,2.94,2.94,0,0,0-.57-1.91,1.94,1.94,0,0,0-1.6-.71,2.06,2.06,0,0,0-1.72.82A3.35,3.35,0,0,0,242,379h-1a4.16,4.16,0,0,1,.93-2.77,3,3,0,0,1,2.41-1.1,3,3,0,0,1,2.32.91,3.6,3.6,0,0,1,.85,2.53,6.73,6.73,0,0,1-1.39,3.6l-.56.8-3.13,4.22H248Z" transform="translate(0 0)" fill="#4d4d4d"/>
          <path d="M256.5,382.74a8.17,8.17,0,0,1-.84,4.13,2.89,2.89,0,0,1-4.94,0,7.84,7.84,0,0,1-.87-4V380.6a8.06,8.06,0,0,1,.84-4.08,2.69,2.69,0,0,1,2.47-1.41,2.76,2.76,0,0,1,2.47,1.36,7.8,7.8,0,0,1,.87,4Zm-1-2.29a7.38,7.38,0,0,0-.58-3.31,1.89,1.89,0,0,0-1.77-1.11,1.86,1.86,0,0,0-1.72,1.07,6.84,6.84,0,0,0-.62,3.17v2.59a7.46,7.46,0,0,0,.6,3.32,1.9,1.9,0,0,0,1.76,1.17,1.86,1.86,0,0,0,1.72-1.11,7.17,7.17,0,0,0,.61-3.27Z" transform="translate(0 0)" fill="#4d4d4d"/>
          <path d="M262.79,382.92a15.63,15.63,0,0,1,.46-3.83,13.42,13.42,0,0,1,1.26-3.29,6.34,6.34,0,0,1,1.67-2.07l.23.74a5.76,5.76,0,0,0-1.34,1.92,13.38,13.38,0,0,0-.95,3,18.53,18.53,0,0,0-.35,3.7,17.38,17.38,0,0,0,.35,3.5,13,13,0,0,0,.95,3,6,6,0,0,0,1.34,1.95l-.23.7a5.51,5.51,0,0,1-1.21-1.3,10.36,10.36,0,0,1-1.11-2.08,15.61,15.61,0,0,1-.78-2.65A16.92,16.92,0,0,1,262.79,382.92Z" transform="translate(0 0)" fill="#4d4d4d"/>
          <path d="M274.36,378.59a3.31,3.31,0,0,1-.47,1.75,3,3,0,0,1-1.28,1.18,3.21,3.21,0,0,1,1.49,1.25,3.47,3.47,0,0,1,.54,1.92,3.62,3.62,0,0,1-.93,2.6,3.68,3.68,0,0,1-5,0,3.6,3.6,0,0,1-.93-2.6,3.56,3.56,0,0,1,.53-1.93,3.16,3.16,0,0,1,1.46-1.24,2.93,2.93,0,0,1-1.27-1.17,3.47,3.47,0,0,1-.46-1.76,3.65,3.65,0,0,1,.86-2.54,3,3,0,0,1,2.29-.94,3,3,0,0,1,2.29.95A3.61,3.61,0,0,1,274.36,378.59Zm-.7,6.1a2.8,2.8,0,0,0-.69-1.95,2.28,2.28,0,0,0-1.76-.76,2.32,2.32,0,0,0-1.76.74,2.8,2.8,0,0,0-.68,2,2.77,2.77,0,0,0,.66,1.94,2.57,2.57,0,0,0,3.57,0A2.75,2.75,0,0,0,273.66,384.69Zm-.27-6.11a2.74,2.74,0,0,0-.62-1.83,2,2,0,0,0-1.56-.72,1.94,1.94,0,0,0-1.57.7,2.76,2.76,0,0,0-.59,1.85,2.6,2.6,0,0,0,.61,1.82,2,2,0,0,0,1.56.66,2,2,0,0,0,1.56-.68A2.61,2.61,0,0,0,273.39,378.58Z" transform="translate(0 0)" fill="#4d4d4d"/>
          <path d="M276.86,387.45a.78.78,0,0,1,.2-.54.71.71,0,0,1,.55-.21.72.72,0,0,1,.55.21.74.74,0,0,1,.2.54.65.65,0,0,1-.2.5.72.72,0,0,1-.55.21.71.71,0,0,1-.55-.21A.69.69,0,0,1,276.86,387.45Z" transform="translate(0 0)" fill="#4d4d4d"/>
          <path d="M286.51,382.25a3.49,3.49,0,0,1-1.15,1.2,2.75,2.75,0,0,1-1.48.44,2.62,2.62,0,0,1-2.22-1.21,5.19,5.19,0,0,1-.85-3.08,5.44,5.44,0,0,1,.89-3.22,2.77,2.77,0,0,1,2.37-1.27,2.86,2.86,0,0,1,2.51,1.35,6.85,6.85,0,0,1,.91,3.82v1a9,9,0,0,1-1.23,5.21,4.29,4.29,0,0,1-3.71,1.73h-.27v-.93h.28a3.53,3.53,0,0,0,2.89-1.25A6.13,6.13,0,0,0,286.51,382.25ZM284,383a2.23,2.23,0,0,0,1.51-.6,3.42,3.42,0,0,0,1-1.62v-.64a5.79,5.79,0,0,0-.66-3,2,2,0,0,0-1.78-1.09,1.94,1.94,0,0,0-1.67,1,4.59,4.59,0,0,0-.65,2.53,4.4,4.4,0,0,0,.63,2.44A1.86,1.86,0,0,0,284,383Z" transform="translate(0 0)" fill="#4d4d4d"/>
          <path d="M292.68,383.05a15.67,15.67,0,0,1-.44,3.79,12.82,12.82,0,0,1-1.23,3.27,6.36,6.36,0,0,1-1.72,2.11l-.22-.7a6.5,6.5,0,0,0,1.54-2.4,16.35,16.35,0,0,0,1.09-6.23,17.09,17.09,0,0,0-.34-3.47,13.9,13.9,0,0,0-1-3,5.79,5.79,0,0,0-1.32-2l.22-.7a6.7,6.7,0,0,1,1.81,2.32A15,15,0,0,1,292.68,383.05Z" transform="translate(0 0)" fill="#4d4d4d"/>
        </g>
        <g>
          <path d="M333.38,52.35H330V63.76H328.4V52.35H325V51h8.34Z" transform="translate(0 0)" fill="#4d4d4d"/>
          <path d="M333.86,58.57a5,5,0,0,1,1-3.28,3.28,3.28,0,0,1,2.66-1.21,3.34,3.34,0,0,1,2.66,1.17,4.92,4.92,0,0,1,1,3.21v1a4.93,4.93,0,0,1-1,3.27,3.57,3.57,0,0,1-5.32,0,4.79,4.79,0,0,1-1-3.16Zm1.55.89a4,4,0,0,0,.58,2.31,1.78,1.78,0,0,0,1.55.84c1.37,0,2.08-1,2.12-3V58.57a4.11,4.11,0,0,0-.58-2.31,1.82,1.82,0,0,0-1.56-.85,1.77,1.77,0,0,0-1.53.85,4,4,0,0,0-.58,2.3Z" transform="translate(0 0)" fill="#4d4d4d"/>
          <path d="M343.9,63.76V55.51h-1.24V54.25h1.24v-1.1a3.41,3.41,0,0,1,.74-2.26,2.5,2.5,0,0,1,2-.81,3.13,3.13,0,0,1,.94.15l-.08,1.31a2.79,2.79,0,0,0-.72-.08q-1.32,0-1.32,1.89v.9h1.62v1.26h-1.62v8.25Z" transform="translate(0 0)" fill="#4d4d4d"/>
          <path d="M353.81,63.76a3.41,3.41,0,0,1-.21-1,2.48,2.48,0,0,1-2.1,1.21,2.69,2.69,0,0,1-2-.73,2.76,2.76,0,0,1-.73-2,2.88,2.88,0,0,1,1-2.3,4,4,0,0,1,2.7-.87h1.14V57a1.65,1.65,0,0,0-.38-1.22,1.62,1.62,0,0,0-1.15-.36,1.57,1.57,0,0,0-1.14.42,1.37,1.37,0,0,0-.44,1.06h-1.56a2.55,2.55,0,0,1,.43-1.39,3.09,3.09,0,0,1,1.16-1,3.52,3.52,0,0,1,1.63-.37,3.12,3.12,0,0,1,2.22.72,2.92,2.92,0,0,1,.78,2.12v4.79a5.73,5.73,0,0,0,.29,1.91v.14Zm-2.08-1.24a2,2,0,0,0,1.09-.31,2,2,0,0,0,.76-.79V59.15h-.88a3,3,0,0,0-1.75.49,1.58,1.58,0,0,0-.64,1.35,1.78,1.78,0,0,0,.32,1.17A1.44,1.44,0,0,0,351.73,62.52Z" transform="translate(0 0)" fill="#4d4d4d"/>
          <path d="M360.84,62.61a1.66,1.66,0,0,0,1.24-.48,2,2,0,0,0,.51-1.36h1.47a3.23,3.23,0,0,1-1,2.27,3.08,3.08,0,0,1-2.24.9,3.32,3.32,0,0,1-2.7-1.11,5.12,5.12,0,0,1-.92-3.31V58.47a5,5,0,0,1,.92-3.27,3.28,3.28,0,0,1,2.69-1.12,3,3,0,0,1,2.31.92,3.75,3.75,0,0,1,.92,2.52h-1.47a2.62,2.62,0,0,0-.51-1.58,1.57,1.57,0,0,0-1.25-.53,1.81,1.81,0,0,0-1.54.68,4,4,0,0,0-.52,2.24v1.21a4.28,4.28,0,0,0,.5,2.38A1.8,1.8,0,0,0,360.84,62.61Z" transform="translate(0 0)" fill="#4d4d4d"/>
          <path d="M367.65,51.73a1,1,0,0,1-.22.66.81.81,0,0,1-.67.26.8.8,0,0,1-.66-.26,1,1,0,0,1-.22-.66,1.08,1.08,0,0,1,.22-.67.81.81,0,0,1,.66-.27.79.79,0,0,1,.67.28A1,1,0,0,1,367.65,51.73Zm-.12,12H366V54.25h1.56Z" transform="translate(0 0)" fill="#4d4d4d"/>
          <path d="M372,52v2.3h1.43v1.26H372v5.9a1.67,1.67,0,0,0,.18.86.72.72,0,0,0,.64.29,2,2,0,0,0,.62-.11l0,1.31a3.31,3.31,0,0,1-1.08.18,1.63,1.63,0,0,1-1.4-.66,3,3,0,0,1-.49-1.86V55.51H369V54.25h1.45V52Z" transform="translate(0 0)" fill="#4d4d4d"/>
          <path d="M377.09,51.73a1,1,0,0,1-.22.66.81.81,0,0,1-.67.26.8.8,0,0,1-.66-.26,1,1,0,0,1-.22-.66,1.08,1.08,0,0,1,.22-.67.94.94,0,0,1,1.33,0A1,1,0,0,1,377.09,51.73Zm-.12,12h-1.56V54.25H377Z" transform="translate(0 0)" fill="#4d4d4d"/>
          <path d="M380.88,54.25l0,1a2.78,2.78,0,0,1,2.31-1.2c1.68,0,2.54,1.12,2.56,3.36v6.32h-1.55V57.51a2.57,2.57,0,0,0-.37-1.58,1.32,1.32,0,0,0-1.12-.47,1.61,1.61,0,0,0-1,.38,2.73,2.73,0,0,0-.74,1v6.91h-1.56V54.25Z" transform="translate(0 0)" fill="#4d4d4d"/>
          <path d="M389.92,51.73a1,1,0,0,1-.22.66,1,1,0,0,1-1.33,0,1,1,0,0,1-.22-.66,1.08,1.08,0,0,1,.22-.67.81.81,0,0,1,.66-.27.79.79,0,0,1,.67.28A1,1,0,0,1,389.92,51.73Zm-.12,12h-1.56V54.25h1.56Z" transform="translate(0 0)" fill="#4d4d4d"/>
          <path d="M399.13,59.46a5.71,5.71,0,0,1-.8,3.35A2.66,2.66,0,0,1,396,63.94a2.48,2.48,0,0,1-2.27-1.3l-.07,1.12h-1.42V50.26h1.55v5A2.43,2.43,0,0,1,396,54.08a2.69,2.69,0,0,1,2.35,1.1,5.84,5.84,0,0,1,.79,3.34Zm-1.54-.89a4.5,4.5,0,0,0-.48-2.4,1.69,1.69,0,0,0-1.52-.71,1.9,1.9,0,0,0-1.79,1.3v4.52a1.9,1.9,0,0,0,1.81,1.28,1.65,1.65,0,0,0,1.51-.74,4.58,4.58,0,0,0,.47-2.29Z" transform="translate(0 0)" fill="#4d4d4d"/>
        </g>
        <path d="M403.19,55.27a3.38,3.38,0,0,1-.46,1.95,1.55,1.55,0,0,1-1.36.65,1.45,1.45,0,0,1-1.32-.75l0,.65h-.83V49.9h.9v2.94a1.42,1.42,0,0,1,1.28-.71,1.56,1.56,0,0,1,1.37.64,3.34,3.34,0,0,1,.46,1.95Zm-.9-.52a2.69,2.69,0,0,0-.27-1.4,1,1,0,0,0-.89-.42,1.11,1.11,0,0,0-1.05.76v2.63a1.12,1.12,0,0,0,1.06.75,1,1,0,0,0,.88-.43,2.59,2.59,0,0,0,.27-1.34Z" transform="translate(0 0)" fill="#4d4d4d"/>
        <g>
          <path d="M337.29,94.57a14.86,14.86,0,0,1,.62-4.33,11.75,11.75,0,0,1,1.77-3.56A5.51,5.51,0,0,1,341,85.33l.3,1.07a7.4,7.4,0,0,0-1.73,3,15.57,15.57,0,0,0-.74,4.53v.71a15.8,15.8,0,0,0,.87,5.46,7.83,7.83,0,0,0,1.61,2.76l-.3,1a6.54,6.54,0,0,1-1.65-1.8A13.28,13.28,0,0,1,337.29,94.57Z" transform="translate(0 0)" fill="#4d4d4d"/>
          <path d="M351.54,99.77h-1.61l-5.13-9.86v9.86h-1.61V87h1.61l5.14,9.9V87h1.6Z" transform="translate(0 0)" fill="#4d4d4d"/>
          <path d="M364.53,92.61h-6.16V91.2h6.16Zm0,3.65h-6.16V94.85h6.16Z" transform="translate(0 0)" fill="#4d4d4d"/>
          <path d="M377.43,90.31A3.28,3.28,0,0,1,377,92a3,3,0,0,1-1.15,1.17,3.32,3.32,0,0,1,1.34,1.26,4.07,4.07,0,0,1-.45,4.51,3.61,3.61,0,0,1-5,0,3.7,3.7,0,0,1-.93-2.64,3.77,3.77,0,0,1,.47-1.88,3.18,3.18,0,0,1,1.31-1.26A2.93,2.93,0,0,1,371.49,92a3.4,3.4,0,0,1-.42-1.7,3.63,3.63,0,0,1,.88-2.57,3.27,3.27,0,0,1,4.6,0A3.62,3.62,0,0,1,377.43,90.31Zm-1.31,6a2.78,2.78,0,0,0-.52-1.77,1.65,1.65,0,0,0-1.36-.66,1.59,1.59,0,0,0-1.36.67,2.87,2.87,0,0,0-.5,1.76,2.73,2.73,0,0,0,.49,1.72,1.86,1.86,0,0,0,2.77,0A2.73,2.73,0,0,0,376.12,96.28Zm-.24-5.94a2.61,2.61,0,0,0-.46-1.6,1.44,1.44,0,0,0-2.35,0,2.66,2.66,0,0,0-.44,1.6,2.59,2.59,0,0,0,.45,1.59,1.42,1.42,0,0,0,1.18.59,1.39,1.39,0,0,0,1.18-.6A2.64,2.64,0,0,0,375.88,90.34Z" transform="translate(0 0)" fill="#4d4d4d"/>
          <path d="M386.31,90.31a3.37,3.37,0,0,1-.42,1.7,3.15,3.15,0,0,1-1.15,1.17,3.39,3.39,0,0,1,1.34,1.26,4.05,4.05,0,0,1-.46,4.51,3.6,3.6,0,0,1-5,0,4.07,4.07,0,0,1-.46-4.52,3.18,3.18,0,0,1,1.31-1.26A3,3,0,0,1,380.37,92a3.5,3.5,0,0,1-.41-1.7,3.67,3.67,0,0,1,.87-2.57,3.28,3.28,0,0,1,4.61,0A3.66,3.66,0,0,1,386.31,90.31Zm-1.31,6a2.84,2.84,0,0,0-.51-1.77,1.66,1.66,0,0,0-1.37-.66,1.58,1.58,0,0,0-1.35.67,2.81,2.81,0,0,0-.5,1.76,2.67,2.67,0,0,0,.49,1.72,1.85,1.85,0,0,0,2.76,0A2.73,2.73,0,0,0,385,96.28Zm-.23-5.94a2.68,2.68,0,0,0-.46-1.6,1.45,1.45,0,0,0-2.36,0,2.66,2.66,0,0,0-.43,1.6,2.58,2.58,0,0,0,.44,1.59,1.48,1.48,0,0,0,2.37,0A2.64,2.64,0,0,0,384.77,90.34Z" transform="translate(0 0)" fill="#4d4d4d"/>
          <path d="M392.1,94.66a13.52,13.52,0,0,1-1.76,6.93,7,7,0,0,1-2,2.31l-.31-1a7.45,7.45,0,0,0,1.79-3.24,16.49,16.49,0,0,0,.69-4.79v-.32a15.27,15.27,0,0,0-1.1-6,7.28,7.28,0,0,0-1.38-2.26l.31-1a6.59,6.59,0,0,1,1.87,2.13A13.59,13.59,0,0,1,392.1,94.66Z" transform="translate(0 0)" fill="#4d4d4d"/>
        </g>
        <g>
          <path d="M339.12,122.88v.94H339a3.64,3.64,0,0,0-2.94,1.32,6.24,6.24,0,0,0-1.19,3.7,3.15,3.15,0,0,1,1.12-1.09,2.87,2.87,0,0,1,1.48-.39,2.63,2.63,0,0,1,2.25,1.17,5.07,5.07,0,0,1,.84,3,5.22,5.22,0,0,1-.89,3.17,2.75,2.75,0,0,1-2.32,1.2,3,3,0,0,1-2.5-1.32,5.67,5.67,0,0,1-1-3.46v-1a9.22,9.22,0,0,1,1.3-5.36,4.39,4.39,0,0,1,3.74-1.88Zm-1.83,5.4a2.35,2.35,0,0,0-1.53.59,2.87,2.87,0,0,0-.92,1.47v.91a4.81,4.81,0,0,0,.7,2.73,2.09,2.09,0,0,0,1.79,1.05,1.88,1.88,0,0,0,1.63-1,4.49,4.49,0,0,0,.62-2.46,4.2,4.2,0,0,0-.62-2.42A1.91,1.91,0,0,0,337.29,128.28Z" transform="translate(0 0)" fill="#4d4d4d"/>
          <path d="M349,126.27a3.31,3.31,0,0,1-.47,1.75,3,3,0,0,1-1.28,1.18,3.21,3.21,0,0,1,1.49,1.25,3.47,3.47,0,0,1,.54,1.92,3.62,3.62,0,0,1-.93,2.6,3.68,3.68,0,0,1-5,0,3.6,3.6,0,0,1-.93-2.6,3.48,3.48,0,0,1,.53-1.93,3.16,3.16,0,0,1,1.46-1.24,2.93,2.93,0,0,1-1.27-1.17,3.47,3.47,0,0,1-.46-1.76,3.63,3.63,0,0,1,.86-2.54,3,3,0,0,1,2.29-.94,3,3,0,0,1,2.29.95A3.61,3.61,0,0,1,349,126.27Zm-.7,6.1a2.8,2.8,0,0,0-.69-2,2.28,2.28,0,0,0-1.76-.76,2.32,2.32,0,0,0-1.76.74,2.8,2.8,0,0,0-.69,2,2.77,2.77,0,0,0,.67,1.94,2.57,2.57,0,0,0,3.57,0A2.75,2.75,0,0,0,348.3,132.37Zm-.27-6.11a2.74,2.74,0,0,0-.62-1.83,2,2,0,0,0-1.56-.72,1.94,1.94,0,0,0-1.57.7,2.74,2.74,0,0,0-.59,1.85,2.6,2.6,0,0,0,.61,1.82,2,2,0,0,0,1.56.66,2,2,0,0,0,1.56-.68A2.61,2.61,0,0,0,348,126.26Z" transform="translate(0 0)" fill="#4d4d4d"/>
          <path d="M355.46,130.6a16.13,16.13,0,0,1,.46-3.83,13.42,13.42,0,0,1,1.26-3.29,6.23,6.23,0,0,1,1.68-2.07l.22.74a5.75,5.75,0,0,0-1.33,1.92,12.88,12.88,0,0,0-.95,3,17.82,17.82,0,0,0-.35,3.7,17.39,17.39,0,0,0,.34,3.5,13.54,13.54,0,0,0,1,3,6,6,0,0,0,1.33,1.95l-.22.7a5.53,5.53,0,0,1-1.22-1.3,10.36,10.36,0,0,1-1.1-2.08,14.74,14.74,0,0,1-.78-2.65A16.12,16.12,0,0,1,355.46,130.6Z" transform="translate(0 0)" fill="#4d4d4d"/>
          <path d="M367.35,123.58l-4.57,12.19h-1l4.54-11.89h-6.06V123h7.1Z" transform="translate(0 0)" fill="#4d4d4d"/>
          <path d="M376.11,123.58l-4.57,12.19h-1l4.54-11.89H369V123h7.1Z" transform="translate(0 0)" fill="#4d4d4d"/>
          <path d="M378.29,135.12a.73.73,0,0,1,.2-.53.71.71,0,0,1,.55-.21.74.74,0,0,1,.55.21.78.78,0,0,1,.2.53.69.69,0,0,1-.2.51.74.74,0,0,1-.55.21.71.71,0,0,1-.55-.21A.66.66,0,0,1,378.29,135.12Z" transform="translate(0 0)" fill="#4d4d4d"/>
          <path d="M384.44,128.79h1a2.4,2.4,0,0,0,1.73-.68,2.43,2.43,0,0,0,.67-1.8,2.89,2.89,0,0,0-.57-1.92,2,2,0,0,0-1.62-.68,2.09,2.09,0,0,0-1.65.72,2.81,2.81,0,0,0-.63,1.9h-1a3.86,3.86,0,0,1,.41-1.81,3,3,0,0,1,1.16-1.26,3.13,3.13,0,0,1,1.68-.47,3,3,0,0,1,2.3.94,3.69,3.69,0,0,1,.86,2.61,3.14,3.14,0,0,1-.49,1.73,3.07,3.07,0,0,1-1.33,1.14,2.76,2.76,0,0,1,1.49,1.11,3.51,3.51,0,0,1,.53,2,3.77,3.77,0,0,1-.92,2.66,3.12,3.12,0,0,1-2.41,1,3.52,3.52,0,0,1-1.76-.45,3.16,3.16,0,0,1-1.24-1.27,4,4,0,0,1-.43-1.92h1a2.85,2.85,0,0,0,.68,2,2.29,2.29,0,0,0,1.78.77,2.17,2.17,0,0,0,1.73-.7,3,3,0,0,0,.62-2,2.35,2.35,0,0,0-2.6-2.62h-.95Z" transform="translate(0 0)" fill="#4d4d4d"/>
          <path d="M394.11,130.73a16.19,16.19,0,0,1-.44,3.79,12.83,12.83,0,0,1-1.24,3.27,6.33,6.33,0,0,1-1.71,2.11l-.22-.7a6.37,6.37,0,0,0,1.53-2.4,16.16,16.16,0,0,0,1.1-6.23,17.09,17.09,0,0,0-.34-3.47,14.47,14.47,0,0,0-1-3,5.79,5.79,0,0,0-1.32-2l.22-.7a6.82,6.82,0,0,1,1.81,2.32A15,15,0,0,1,394.11,130.73Z" transform="translate(0 0)" fill="#4d4d4d"/>
        </g>
        <g>
          <path d="M346.82,171.77h-1V160.26l-2.89,1.29v-1l3.71-1.62h.17Z" transform="translate(0 0)" fill="#4d4d4d"/>
          <path d="M355.46,166.6a15.63,15.63,0,0,1,.46-3.83,13,13,0,0,1,1.26-3.29,6.1,6.1,0,0,1,1.67-2.07l.23.74a5.76,5.76,0,0,0-1.34,1.92,13.38,13.38,0,0,0-.95,3,18.53,18.53,0,0,0-.35,3.7,18.14,18.14,0,0,0,.34,3.5,13.54,13.54,0,0,0,1,3,6,6,0,0,0,1.34,1.95l-.23.7a5.51,5.51,0,0,1-1.21-1.3,10.36,10.36,0,0,1-1.11-2.08,15.61,15.61,0,0,1-.78-2.65A16.16,16.16,0,0,1,355.46,166.6Z" transform="translate(0 0)" fill="#4d4d4d"/>
          <path d="M364.85,171.77h-1V160.26L361,161.55v-1l3.7-1.62h.17Z" transform="translate(0 0)" fill="#4d4d4d"/>
          <path d="M369.53,171.12a.73.73,0,0,1,.2-.53.7.7,0,0,1,.54-.21.75.75,0,0,1,.56.21.78.78,0,0,1,.2.53.69.69,0,0,1-.2.51.75.75,0,0,1-.56.21.7.7,0,0,1-.54-.21A.66.66,0,0,1,369.53,171.12Z" transform="translate(0 0)" fill="#4d4d4d"/>
          <path d="M377.9,171.77h-1V160.26L374,161.55v-1l3.71-1.62h.16Z" transform="translate(0 0)" fill="#4d4d4d"/>
          <path d="M385.35,166.73a16.19,16.19,0,0,1-.44,3.79,12.83,12.83,0,0,1-1.24,3.27A6.45,6.45,0,0,1,382,175.9l-.22-.7a6.37,6.37,0,0,0,1.53-2.4,16.16,16.16,0,0,0,1.1-6.23,17.09,17.09,0,0,0-.34-3.47,14.47,14.47,0,0,0-1-3,6.09,6.09,0,0,0-1.32-2l.22-.7a6.82,6.82,0,0,1,1.81,2.32A15,15,0,0,1,385.35,166.73Z" transform="translate(0 0)" fill="#4d4d4d"/>
        </g>
        <g>
          <path d="M338.07,279.77h-1V268.26l-2.9,1.29v-1l3.71-1.62h.17Z" transform="translate(0 0)" fill="#4d4d4d"/>
          <path d="M347.88,266.88v.94h-.15a3.62,3.62,0,0,0-2.93,1.32,6.24,6.24,0,0,0-1.19,3.7,3.21,3.21,0,0,1,1.11-1.09,2.9,2.9,0,0,1,1.48-.39,2.63,2.63,0,0,1,2.25,1.17,5.07,5.07,0,0,1,.84,3,5.22,5.22,0,0,1-.88,3.17,2.77,2.77,0,0,1-2.32,1.2,3,3,0,0,1-2.51-1.32,5.74,5.74,0,0,1-1-3.46v-1a9.3,9.3,0,0,1,1.3-5.36,4.41,4.41,0,0,1,3.74-1.88Zm-1.84,5.4a2.31,2.31,0,0,0-1.52.59,2.82,2.82,0,0,0-.93,1.47v.91a4.81,4.81,0,0,0,.7,2.73,2.1,2.1,0,0,0,1.8,1,1.87,1.87,0,0,0,1.62-1,4.4,4.4,0,0,0,.63-2.46,4.28,4.28,0,0,0-.62-2.42A1.94,1.94,0,0,0,346,272.28Z" transform="translate(0 0)" fill="#4d4d4d"/>
          <path d="M355.46,274.6a16.13,16.13,0,0,1,.46-3.83,13.42,13.42,0,0,1,1.26-3.29,6.23,6.23,0,0,1,1.68-2.07l.22.74a5.75,5.75,0,0,0-1.33,1.92,12.88,12.88,0,0,0-.95,3,17.82,17.82,0,0,0-.35,3.7,17.39,17.39,0,0,0,.34,3.5,13.54,13.54,0,0,0,1,3,6,6,0,0,0,1.33,1.95l-.22.7a5.53,5.53,0,0,1-1.22-1.3,10.36,10.36,0,0,1-1.1-2.08,14.74,14.74,0,0,1-.78-2.65A16.12,16.12,0,0,1,355.46,274.6Z" transform="translate(0 0)" fill="#4d4d4d"/>
          <path d="M364.86,279.77h-1V268.26L361,269.55v-1l3.71-1.62h.17Z" transform="translate(0 0)" fill="#4d4d4d"/>
          <path d="M375.79,270.27a3.31,3.31,0,0,1-.47,1.75A3,3,0,0,1,374,273.2a3.21,3.21,0,0,1,1.49,1.25,3.47,3.47,0,0,1,.54,1.92,3.62,3.62,0,0,1-.93,2.6,3.68,3.68,0,0,1-5,0,3.6,3.6,0,0,1-.93-2.6,3.48,3.48,0,0,1,.53-1.93,3.16,3.16,0,0,1,1.46-1.24A2.93,2.93,0,0,1,370,272a3.38,3.38,0,0,1-.46-1.76,3.63,3.63,0,0,1,.86-2.54,3,3,0,0,1,2.29-.94,3,3,0,0,1,2.29.95A3.61,3.61,0,0,1,375.79,270.27Zm-.7,6.1a2.76,2.76,0,0,0-.7-1.95,2.24,2.24,0,0,0-1.75-.76,2.32,2.32,0,0,0-1.76.74,2.8,2.8,0,0,0-.69,2,2.73,2.73,0,0,0,.67,1.94,2.57,2.57,0,0,0,3.57,0A2.75,2.75,0,0,0,375.09,276.37Zm-.27-6.11a2.74,2.74,0,0,0-.62-1.83,2,2,0,0,0-1.56-.72,1.94,1.94,0,0,0-1.57.7,2.74,2.74,0,0,0-.59,1.85,2.6,2.6,0,0,0,.61,1.82,2,2,0,0,0,1.56.66,2,2,0,0,0,1.56-.68A2.61,2.61,0,0,0,374.82,270.26Z" transform="translate(0 0)" fill="#4d4d4d"/>
          <path d="M378.29,279.12a.73.73,0,0,1,.2-.53.71.71,0,0,1,.55-.21.74.74,0,0,1,.55.21.78.78,0,0,1,.2.53.69.69,0,0,1-.2.51.74.74,0,0,1-.55.21.71.71,0,0,1-.55-.21A.66.66,0,0,1,378.29,279.12Z" transform="translate(0 0)" fill="#4d4d4d"/>
          <path d="M389.27,279.77h-6.79v-.84l3.64-4.9a11.85,11.85,0,0,0,1.27-2.09,4,4,0,0,0,.36-1.61,2.94,2.94,0,0,0-.57-1.91,1.94,1.94,0,0,0-1.6-.71,2.06,2.06,0,0,0-1.72.82,3.35,3.35,0,0,0-.64,2.13h-1a4.14,4.14,0,0,1,.93-2.77,3.28,3.28,0,0,1,4.72-.19,3.56,3.56,0,0,1,.86,2.53,6.81,6.81,0,0,1-1.39,3.6l-.56.8-3.13,4.22h5.6Z" transform="translate(0 0)" fill="#4d4d4d"/>
          <path d="M394.11,274.73a16.19,16.19,0,0,1-.44,3.79,12.83,12.83,0,0,1-1.24,3.27,6.33,6.33,0,0,1-1.71,2.11l-.22-.7a6.37,6.37,0,0,0,1.53-2.4,16.16,16.16,0,0,0,1.1-6.23,17.09,17.09,0,0,0-.34-3.47,14.47,14.47,0,0,0-1-3,5.79,5.79,0,0,0-1.32-2l.22-.7a6.82,6.82,0,0,1,1.81,2.32A15,15,0,0,1,394.11,274.73Z" transform="translate(0 0)" fill="#4d4d4d"/>
        </g>
        <g>
          <path d="M343.72,381.93a3.58,3.58,0,0,1-1.15,1.2,2.77,2.77,0,0,1-1.48.44,2.61,2.61,0,0,1-2.22-1.21,5.19,5.19,0,0,1-.86-3.08,5.51,5.51,0,0,1,.89-3.22,2.79,2.79,0,0,1,2.37-1.27,2.86,2.86,0,0,1,2.52,1.35,6.83,6.83,0,0,1,.9,3.82v1a9,9,0,0,1-1.22,5.21,4.29,4.29,0,0,1-3.72,1.73h-.26v-.93h.28a3.53,3.53,0,0,0,2.89-1.25A6.13,6.13,0,0,0,343.72,381.93Zm-2.5.72a2.25,2.25,0,0,0,1.51-.6,3.5,3.5,0,0,0,1-1.62v-.64a5.78,5.78,0,0,0-.67-3,2,2,0,0,0-1.78-1.09,1.93,1.93,0,0,0-1.66,1,4.59,4.59,0,0,0-.65,2.53,4.4,4.4,0,0,0,.63,2.44A1.85,1.85,0,0,0,341.22,382.65Z" transform="translate(0 0)" fill="#4d4d4d"/>
          <path d="M351.08,382.6a16.13,16.13,0,0,1,.46-3.83,13.42,13.42,0,0,1,1.26-3.29,6.23,6.23,0,0,1,1.68-2.07l.22.74a5.75,5.75,0,0,0-1.33,1.92,12.88,12.88,0,0,0-1,3,18.56,18.56,0,0,0-.34,3.7,17.39,17.39,0,0,0,.34,3.5,13.54,13.54,0,0,0,1,3,6,6,0,0,0,1.33,1.95l-.22.7a5.53,5.53,0,0,1-1.22-1.3,9.87,9.87,0,0,1-1.1-2.08,14,14,0,0,1-.78-2.65A16.12,16.12,0,0,1,351.08,382.6Z" transform="translate(0 0)" fill="#4d4d4d"/>
          <path d="M360.48,387.77h-1V376.26l-2.89,1.29v-1l3.71-1.62h.17Z" transform="translate(0 0)" fill="#4d4d4d"/>
          <path d="M371.58,382.42a8.1,8.1,0,0,1-.84,4.12,2.88,2.88,0,0,1-4.94,0,7.94,7.94,0,0,1-.87-4v-2.25a8.06,8.06,0,0,1,.84-4.08,2.9,2.9,0,0,1,4.94-.05,7.8,7.8,0,0,1,.87,4Zm-1-2.29a7.38,7.38,0,0,0-.58-3.31,1.95,1.95,0,0,0-3.49-.05,7,7,0,0,0-.62,3.18v2.59a7.46,7.46,0,0,0,.6,3.32,1.9,1.9,0,0,0,1.77,1.17,1.85,1.85,0,0,0,1.71-1.11,7.17,7.17,0,0,0,.61-3.27Z" transform="translate(0 0)" fill="#4d4d4d"/>
          <path d="M373.91,387.12a.73.73,0,0,1,.2-.53.7.7,0,0,1,.54-.21.75.75,0,0,1,.56.21.78.78,0,0,1,.2.53.69.69,0,0,1-.2.51.75.75,0,0,1-.56.21.7.7,0,0,1-.54-.21A.66.66,0,0,1,373.91,387.12Z" transform="translate(0 0)" fill="#4d4d4d"/>
          <path d="M384.89,387.77H378.1v-.84l3.64-4.9a11.85,11.85,0,0,0,1.27-2.09,4,4,0,0,0,.36-1.61,2.94,2.94,0,0,0-.57-1.91,1.94,1.94,0,0,0-1.6-.71,2.06,2.06,0,0,0-1.72.82,3.35,3.35,0,0,0-.64,2.13h-1a4.14,4.14,0,0,1,.93-2.77,3.28,3.28,0,0,1,4.72-.19,3.56,3.56,0,0,1,.86,2.53,6.81,6.81,0,0,1-1.39,3.6l-.56.8-3.13,4.22h5.6Z" transform="translate(0 0)" fill="#4d4d4d"/>
          <path d="M389.73,382.73a16.19,16.19,0,0,1-.44,3.79,12.83,12.83,0,0,1-1.24,3.27,6.45,6.45,0,0,1-1.71,2.11l-.22-.7a6.37,6.37,0,0,0,1.53-2.4,16.16,16.16,0,0,0,1.1-6.23,17.09,17.09,0,0,0-.34-3.47,14.47,14.47,0,0,0-1-3,6.09,6.09,0,0,0-1.32-2l.22-.7a6.82,6.82,0,0,1,1.81,2.32A15,15,0,0,1,389.73,382.73Z" transform="translate(0 0)" fill="#4d4d4d"/>
        </g>
        <g>
          <path d="M431.34,58.76v5h-1.61V51h4.08a3.69,3.69,0,0,1,2.8,1.07,3.94,3.94,0,0,1,1,2.84,3.88,3.88,0,0,1-1,2.84,3.77,3.77,0,0,1-2.74,1Zm0-1.38h2.47a2.08,2.08,0,0,0,1.64-.65,2.67,2.67,0,0,0,.57-1.84,2.71,2.71,0,0,0-.59-1.84,2,2,0,0,0-1.61-.7h-2.48Z" transform="translate(0 0)" fill="#4d4d4d"/>
          <path d="M441.17,63.77h-1.56V50.27h1.56Z" transform="translate(0 0)" fill="#4d4d4d"/>
          <path d="M448.5,63.77a3.56,3.56,0,0,1-.2-1,2.46,2.46,0,0,1-2.11,1.21,2.72,2.72,0,0,1-2-.72,2.76,2.76,0,0,1-.73-2,2.91,2.91,0,0,1,1-2.3,4,4,0,0,1,2.7-.87h1.15V57a1.34,1.34,0,0,0-1.53-1.57,1.65,1.65,0,0,0-1.15.41,1.43,1.43,0,0,0-.44,1.06h-1.55A2.5,2.5,0,0,1,444,55.5a3,3,0,0,1,1.16-1,3.53,3.53,0,0,1,1.63-.38,3,3,0,0,1,2.21.73,2.8,2.8,0,0,1,.78,2.11v4.8a6,6,0,0,0,.3,1.91v.14Zm-2.07-1.24a2.09,2.09,0,0,0,1.09-.32,1.92,1.92,0,0,0,.76-.79V59.15h-.88a2.93,2.93,0,0,0-1.75.5A1.56,1.56,0,0,0,445,61a1.71,1.71,0,0,0,.32,1.17A1.39,1.39,0,0,0,446.43,62.53Z" transform="translate(0 0)" fill="#4d4d4d"/>
          <path d="M455.54,62.62a1.63,1.63,0,0,0,1.23-.48,2,2,0,0,0,.51-1.37h1.47a3.22,3.22,0,0,1-1,2.27,3.08,3.08,0,0,1-2.24.9,3.32,3.32,0,0,1-2.7-1.11,5,5,0,0,1-.93-3.31v-1a5,5,0,0,1,.93-3.28,3.27,3.27,0,0,1,2.69-1.12,3,3,0,0,1,2.31.92,3.76,3.76,0,0,1,.91,2.53h-1.47a2.59,2.59,0,0,0-.5-1.59,1.56,1.56,0,0,0-1.25-.52,1.77,1.77,0,0,0-1.54.68,3.85,3.85,0,0,0-.52,2.23v1.22a4.21,4.21,0,0,0,.5,2.37A1.8,1.8,0,0,0,455.54,62.62Z" transform="translate(0 0)" fill="#4d4d4d"/>
          <path d="M464,63.94a3.46,3.46,0,0,1-2.73-1.06,4.56,4.56,0,0,1-1-3.1V58.62a5.35,5.35,0,0,1,.92-3.33,3.07,3.07,0,0,1,2.59-1.21,3,3,0,0,1,2.5,1.06,5.48,5.48,0,0,1,.84,3.32v1H461.8v.22a3.41,3.41,0,0,0,.58,2.22,2,2,0,0,0,1.65.7,2.73,2.73,0,0,0,1.21-.26,3,3,0,0,0,1-.83l.81,1A3.51,3.51,0,0,1,464,63.94Zm-.18-8.52a1.63,1.63,0,0,0-1.43.66,3.93,3.93,0,0,0-.53,2.06h3.75v-.21a3.73,3.73,0,0,0-.49-1.93A1.51,1.51,0,0,0,463.77,55.42Z" transform="translate(0 0)" fill="#4d4d4d"/>
          <path d="M475.86,59.47a5.73,5.73,0,0,1-.8,3.35,2.65,2.65,0,0,1-2.32,1.12,2.45,2.45,0,0,1-2.26-1.3l-.08,1.13H469V50.27h1.55v5a2.45,2.45,0,0,1,2.2-1.22,2.67,2.67,0,0,1,2.34,1.11,5.74,5.74,0,0,1,.79,3.34Zm-1.54-.89a4.56,4.56,0,0,0-.47-2.4,1.69,1.69,0,0,0-1.53-.72,1.9,1.9,0,0,0-1.79,1.3v4.52a1.9,1.9,0,0,0,1.81,1.28,1.63,1.63,0,0,0,1.51-.73,4.55,4.55,0,0,0,.47-2.3Z" transform="translate(0 0)" fill="#4d4d4d"/>
          <path d="M477.53,58.57a5,5,0,0,1,1-3.28,3.28,3.28,0,0,1,2.66-1.21,3.32,3.32,0,0,1,2.66,1.18,4.88,4.88,0,0,1,1,3.21v1a4.93,4.93,0,0,1-1,3.27,3.58,3.58,0,0,1-5.32,0,4.79,4.79,0,0,1-1-3.16Zm1.55.9a4,4,0,0,0,.58,2.31,1.78,1.78,0,0,0,1.55.84c1.37,0,2.08-1,2.12-3V58.57a4.11,4.11,0,0,0-.58-2.31,1.81,1.81,0,0,0-1.56-.84,1.76,1.76,0,0,0-1.53.84,4,4,0,0,0-.58,2.3Z" transform="translate(0 0)" fill="#4d4d4d"/>
        </g>
        <g>
          <path d="M429.66,94.57a14.53,14.53,0,0,1,.63-4.33,11.31,11.31,0,0,1,1.77-3.56,5.49,5.49,0,0,1,1.33-1.35l.31,1.07a7.4,7.4,0,0,0-1.73,3,15.57,15.57,0,0,0-.74,4.53v.71a15.8,15.8,0,0,0,.87,5.46,7.83,7.83,0,0,0,1.61,2.76l-.31,1a6.38,6.38,0,0,1-1.64-1.8A13.29,13.29,0,0,1,429.66,94.57Z" transform="translate(0 0)" fill="#4d4d4d"/>
          <path d="M443.92,99.77H442.3l-5.12-9.86v9.86h-1.62V87h1.62l5.14,9.9V87h1.6Z" transform="translate(0 0)" fill="#4d4d4d"/>
          <path d="M456.91,92.61h-6.16V91.2h6.16Zm0,3.65h-6.16V94.85h6.16Z" transform="translate(0 0)" fill="#4d4d4d"/>
          <path d="M469.8,90.31a3.37,3.37,0,0,1-.42,1.7,3.15,3.15,0,0,1-1.15,1.17,3.39,3.39,0,0,1,1.34,1.26,4.05,4.05,0,0,1-.46,4.51,3.6,3.6,0,0,1-5,0,4.07,4.07,0,0,1-.46-4.52A3.18,3.18,0,0,1,465,93.17,3,3,0,0,1,463.86,92a3.5,3.5,0,0,1-.41-1.7,3.67,3.67,0,0,1,.87-2.57,3.28,3.28,0,0,1,4.61,0A3.66,3.66,0,0,1,469.8,90.31Zm-1.31,6a2.84,2.84,0,0,0-.51-1.77,1.66,1.66,0,0,0-1.37-.66,1.58,1.58,0,0,0-1.35.67,2.81,2.81,0,0,0-.5,1.76,2.67,2.67,0,0,0,.49,1.72A1.85,1.85,0,0,0,468,98,2.73,2.73,0,0,0,468.49,96.28Zm-.23-5.94a2.68,2.68,0,0,0-.46-1.6,1.45,1.45,0,0,0-2.36,0,2.66,2.66,0,0,0-.43,1.6,2.58,2.58,0,0,0,.44,1.59,1.48,1.48,0,0,0,2.37,0A2.64,2.64,0,0,0,468.26,90.34Z" transform="translate(0 0)" fill="#4d4d4d"/>
          <path d="M472.74,93.35l.55-6.38h5.57v1.5H474.6L474.3,92a2.92,2.92,0,0,1,1.71-.55,2.74,2.74,0,0,1,2.35,1.16,5.2,5.2,0,0,1,.85,3.12,4.8,4.8,0,0,1-.93,3.12,3.41,3.41,0,0,1-4.89.19,4.11,4.11,0,0,1-1-2.6h1.46a3,3,0,0,0,.63,1.66,1.66,1.66,0,0,0,1.3.56,1.61,1.61,0,0,0,1.41-.79,3.87,3.87,0,0,0,.51-2.12,3.5,3.5,0,0,0-.55-2,1.7,1.7,0,0,0-1.48-.79,1.83,1.83,0,0,0-1.24.4l-.41.41Z" transform="translate(0 0)" fill="#4d4d4d"/>
          <path d="M484.47,94.66a13.52,13.52,0,0,1-1.75,6.93,7.1,7.1,0,0,1-2,2.31l-.31-1a7.44,7.44,0,0,0,1.78-3.24,16.49,16.49,0,0,0,.7-4.79v-.32a15.46,15.46,0,0,0-1.1-6,7.68,7.68,0,0,0-1.38-2.26l.31-1a6.71,6.71,0,0,1,1.87,2.13A13.68,13.68,0,0,1,484.47,94.66Z" transform="translate(0 0)" fill="#4d4d4d"/>
        </g>
        <g>
          <path d="M431.5,122.88v.94h-.15a3.62,3.62,0,0,0-2.93,1.32,6.24,6.24,0,0,0-1.19,3.7,3.15,3.15,0,0,1,1.12-1.09,2.84,2.84,0,0,1,1.47-.39,2.64,2.64,0,0,1,2.26,1.17,5.07,5.07,0,0,1,.84,3,5.22,5.22,0,0,1-.89,3.17,2.76,2.76,0,0,1-2.32,1.2,3,3,0,0,1-2.51-1.32,5.74,5.74,0,0,1-1-3.46v-1a9.22,9.22,0,0,1,1.3-5.36,4.38,4.38,0,0,1,3.73-1.88Zm-1.84,5.4a2.31,2.31,0,0,0-1.52.59,2.82,2.82,0,0,0-.93,1.47v.91a4.89,4.89,0,0,0,.7,2.73,2.1,2.1,0,0,0,1.8,1.05,1.86,1.86,0,0,0,1.62-1,4.4,4.4,0,0,0,.63-2.46,4.28,4.28,0,0,0-.62-2.42A1.92,1.92,0,0,0,429.66,128.28Z" transform="translate(0 0)" fill="#4d4d4d"/>
          <path d="M437,128.79h.95a2.41,2.41,0,0,0,1.74-.68,2.46,2.46,0,0,0,.66-1.8,2.89,2.89,0,0,0-.57-1.92,2,2,0,0,0-1.62-.68,2.08,2.08,0,0,0-1.64.72,2.81,2.81,0,0,0-.63,1.9h-1a4,4,0,0,1,.41-1.81,3,3,0,0,1,1.17-1.26,3.12,3.12,0,0,1,1.67-.47,3,3,0,0,1,2.31.94,3.73,3.73,0,0,1,.86,2.61,3.15,3.15,0,0,1-.5,1.73,3,3,0,0,1-1.33,1.14,2.78,2.78,0,0,1,1.5,1.11,3.51,3.51,0,0,1,.52,2,3.77,3.77,0,0,1-.91,2.66,3.14,3.14,0,0,1-2.42,1,3.55,3.55,0,0,1-1.76-.45,3.13,3.13,0,0,1-1.23-1.27,4,4,0,0,1-.44-1.92h1a2.85,2.85,0,0,0,.68,2,2.25,2.25,0,0,0,1.77.77,2.2,2.2,0,0,0,1.74-.7,3,3,0,0,0,.62-2,2.36,2.36,0,0,0-2.6-2.62H437Z" transform="translate(0 0)" fill="#4d4d4d"/>
          <path d="M447.84,130.6a15.63,15.63,0,0,1,.46-3.83,13.42,13.42,0,0,1,1.26-3.29,6.34,6.34,0,0,1,1.67-2.07l.23.74a5.76,5.76,0,0,0-1.34,1.92,13.38,13.38,0,0,0-.95,3,18.53,18.53,0,0,0-.35,3.7,17.38,17.38,0,0,0,.35,3.5,13,13,0,0,0,.95,3,6,6,0,0,0,1.34,1.95l-.23.7a5.51,5.51,0,0,1-1.21-1.3,9.87,9.87,0,0,1-1.1-2.08,14.74,14.74,0,0,1-.79-2.65A16.92,16.92,0,0,1,447.84,130.6Z" transform="translate(0 0)" fill="#4d4d4d"/>
          <path d="M459.73,123.58l-4.57,12.19h-1l4.54-11.89h-6.05V123h7.1Z" transform="translate(0 0)" fill="#4d4d4d"/>
          <path d="M467.29,131.64h1.64v.91h-1.64v3.22h-1v-3.22h-5v-.62l4.94-9h1.06Zm-4.83,0h3.85v-7.19l-.35.71Z" transform="translate(0 0)" fill="#4d4d4d"/>
          <path d="M470.66,135.12a.78.78,0,0,1,.2-.53.72.72,0,0,1,.55-.21.75.75,0,0,1,.56.21.78.78,0,0,1,.2.53.69.69,0,0,1-.2.51.75.75,0,0,1-.56.21.72.72,0,0,1-.55-.21A.69.69,0,0,1,470.66,135.12Z" transform="translate(0 0)" fill="#4d4d4d"/>
          <path d="M479,135.77h-1V124.26l-2.9,1.29v-1l3.71-1.62H479Z" transform="translate(0 0)" fill="#4d4d4d"/>
          <path d="M486.48,130.73a16.19,16.19,0,0,1-.43,3.79,12.83,12.83,0,0,1-1.24,3.27,6.46,6.46,0,0,1-1.72,2.11l-.22-.7a6.26,6.26,0,0,0,1.54-2.4,16.35,16.35,0,0,0,1.1-6.23,17.09,17.09,0,0,0-.35-3.47,13.9,13.9,0,0,0-1-3,5.94,5.94,0,0,0-1.33-2l.22-.7a6.7,6.7,0,0,1,1.81,2.32A14.89,14.89,0,0,1,486.48,130.73Z" transform="translate(0 0)" fill="#4d4d4d"/>
        </g>
        <g>
          <path d="M441.79,171.77H435v-.84l3.64-4.9a11.85,11.85,0,0,0,1.27-2.09,4,4,0,0,0,.36-1.61,2.94,2.94,0,0,0-.57-1.91,1.94,1.94,0,0,0-1.6-.71,2.06,2.06,0,0,0-1.72.82,3.35,3.35,0,0,0-.64,2.13h-1a4.19,4.19,0,0,1,.92-2.77,3.29,3.29,0,0,1,4.73-.19,3.56,3.56,0,0,1,.86,2.53,6.81,6.81,0,0,1-1.39,3.6l-.57.8-3.12,4.22h5.59Z" transform="translate(0 0)" fill="#4d4d4d"/>
          <path d="M447.83,166.6a16.13,16.13,0,0,1,.46-3.83,13.42,13.42,0,0,1,1.26-3.29,6.23,6.23,0,0,1,1.68-2.07l.22.74a5.75,5.75,0,0,0-1.33,1.92,12.88,12.88,0,0,0-1,3,18.56,18.56,0,0,0-.34,3.7,17.39,17.39,0,0,0,.34,3.5,13.54,13.54,0,0,0,1,3,6,6,0,0,0,1.33,1.95l-.22.7a5.53,5.53,0,0,1-1.22-1.3,9.87,9.87,0,0,1-1.1-2.08,14,14,0,0,1-.78-2.65A16.12,16.12,0,0,1,447.83,166.6Z" transform="translate(0 0)" fill="#4d4d4d"/>
          <path d="M459.83,171.77H453v-.84l3.64-4.9a12,12,0,0,0,1.28-2.09,4,4,0,0,0,.36-1.61,2.89,2.89,0,0,0-.58-1.91,1.91,1.91,0,0,0-1.59-.71,2.08,2.08,0,0,0-1.73.82,3.42,3.42,0,0,0-.64,2.13h-1a4.14,4.14,0,0,1,.92-2.77,3.29,3.29,0,0,1,4.73-.19,3.55,3.55,0,0,1,.85,2.53,6.73,6.73,0,0,1-1.39,3.6l-.56.8-3.13,4.22h5.6Z" transform="translate(0 0)" fill="#4d4d4d"/>
          <path d="M461.9,171.12a.78.78,0,0,1,.2-.53.72.72,0,0,1,.55-.21.71.71,0,0,1,.55.21.74.74,0,0,1,.21.53.66.66,0,0,1-.21.51.71.71,0,0,1-.55.21.72.72,0,0,1-.55-.21A.69.69,0,0,1,461.9,171.12Z" transform="translate(0 0)" fill="#4d4d4d"/>
          <path d="M471.58,167.64h1.64v.91h-1.64v3.22h-1v-3.22h-5v-.62l4.95-9h1.05Zm-4.83,0h3.85v-7.19l-.35.71Z" transform="translate(0 0)" fill="#4d4d4d"/>
          <path d="M477.72,166.73a16.19,16.19,0,0,1-.43,3.79,12.83,12.83,0,0,1-1.24,3.27,6.46,6.46,0,0,1-1.72,2.11l-.22-.7a6.26,6.26,0,0,0,1.54-2.4,16.35,16.35,0,0,0,1.1-6.23,17.09,17.09,0,0,0-.35-3.47,13.38,13.38,0,0,0-1-3,5.79,5.79,0,0,0-1.32-2l.22-.7a6.7,6.7,0,0,1,1.81,2.32A14.89,14.89,0,0,1,477.72,166.73Z" transform="translate(0 0)" fill="#4d4d4d"/>
        </g>
        <g>
          <path d="M433.05,279.77h-6.79v-.84l3.64-4.9a12.67,12.67,0,0,0,1.28-2.09,4,4,0,0,0,.36-1.61,2.94,2.94,0,0,0-.58-1.91,1.93,1.93,0,0,0-1.6-.71,2.06,2.06,0,0,0-1.72.82,3.35,3.35,0,0,0-.64,2.13h-1a4.14,4.14,0,0,1,.93-2.77,3,3,0,0,1,2.41-1.1,3,3,0,0,1,2.32.91,3.6,3.6,0,0,1,.85,2.53,6.73,6.73,0,0,1-1.39,3.6l-.56.8-3.13,4.22h5.6Z" transform="translate(0 0)" fill="#4d4d4d"/>
          <path d="M440.47,273.93a3.4,3.4,0,0,1-1.15,1.2,2.72,2.72,0,0,1-1.47.44,2.63,2.63,0,0,1-2.23-1.21,5.19,5.19,0,0,1-.85-3.08,5.51,5.51,0,0,1,.89-3.22,2.79,2.79,0,0,1,2.37-1.27,2.86,2.86,0,0,1,2.52,1.35,6.83,6.83,0,0,1,.9,3.82v1a9,9,0,0,1-1.22,5.21,4.32,4.32,0,0,1-3.72,1.73h-.26v-.93h.28a3.51,3.51,0,0,0,2.88-1.25A6.13,6.13,0,0,0,440.47,273.93Zm-2.49.72a2.25,2.25,0,0,0,1.51-.6,3.48,3.48,0,0,0,1-1.62v-.64a5.79,5.79,0,0,0-.66-3,2,2,0,0,0-1.78-1.09,1.92,1.92,0,0,0-1.66,1,5.18,5.18,0,0,0,0,5A1.87,1.87,0,0,0,438,274.65Z" transform="translate(0 0)" fill="#4d4d4d"/>
          <path d="M447.84,274.6a15.63,15.63,0,0,1,.46-3.83,13.42,13.42,0,0,1,1.26-3.29,6.34,6.34,0,0,1,1.67-2.07l.23.74a5.76,5.76,0,0,0-1.34,1.92,13.38,13.38,0,0,0-.95,3,18.53,18.53,0,0,0-.35,3.7,17.38,17.38,0,0,0,.35,3.5,13,13,0,0,0,.95,3,6,6,0,0,0,1.34,1.95l-.23.7a5.51,5.51,0,0,1-1.21-1.3,9.87,9.87,0,0,1-1.1-2.08,14.74,14.74,0,0,1-.79-2.65A16.92,16.92,0,0,1,447.84,274.6Z" transform="translate(0 0)" fill="#4d4d4d"/>
          <path d="M455,272.79h1a2.4,2.4,0,0,0,1.73-.68,2.43,2.43,0,0,0,.67-1.8,2.89,2.89,0,0,0-.57-1.92,2,2,0,0,0-1.62-.68,2.09,2.09,0,0,0-1.65.72,2.81,2.81,0,0,0-.63,1.9h-1a3.86,3.86,0,0,1,.41-1.81,3,3,0,0,1,1.16-1.26,3.15,3.15,0,0,1,1.68-.47,3,3,0,0,1,2.3.94,3.69,3.69,0,0,1,.86,2.61,3.14,3.14,0,0,1-.49,1.73,3.07,3.07,0,0,1-1.33,1.14,2.76,2.76,0,0,1,1.49,1.11,3.51,3.51,0,0,1,.53,2,3.77,3.77,0,0,1-.92,2.66,3.12,3.12,0,0,1-2.41,1,3.52,3.52,0,0,1-1.76-.45,3.16,3.16,0,0,1-1.24-1.27,4,4,0,0,1-.43-1.92h1a2.85,2.85,0,0,0,.68,2,2.29,2.29,0,0,0,1.78.77,2.17,2.17,0,0,0,1.73-.7,3,3,0,0,0,.62-2,2.35,2.35,0,0,0-2.6-2.62H455Z" transform="translate(0 0)" fill="#4d4d4d"/>
          <path d="M467.29,275.64h1.64v.91h-1.64v3.22h-1v-3.22h-5v-.62l4.94-9h1.06Zm-4.83,0h3.85v-7.19l-.35.71Z" transform="translate(0 0)" fill="#4d4d4d"/>
          <path d="M470.66,279.12a.78.78,0,0,1,.2-.53.72.72,0,0,1,.55-.21.75.75,0,0,1,.56.21.78.78,0,0,1,.2.53.69.69,0,0,1-.2.51.75.75,0,0,1-.56.21.72.72,0,0,1-.55-.21A.69.69,0,0,1,470.66,279.12Z" transform="translate(0 0)" fill="#4d4d4d"/>
          <path d="M479,279.77h-1V268.26l-2.9,1.29v-1l3.71-1.62H479Z" transform="translate(0 0)" fill="#4d4d4d"/>
          <path d="M486.48,274.73a16.19,16.19,0,0,1-.43,3.79,12.83,12.83,0,0,1-1.24,3.27,6.46,6.46,0,0,1-1.72,2.11l-.22-.7a6.26,6.26,0,0,0,1.54-2.4,16.35,16.35,0,0,0,1.1-6.23,17.09,17.09,0,0,0-.35-3.47,13.9,13.9,0,0,0-1-3,5.94,5.94,0,0,0-1.33-2l.22-.7a6.7,6.7,0,0,1,1.81,2.32A14.89,14.89,0,0,1,486.48,274.73Z" transform="translate(0 0)" fill="#4d4d4d"/>
        </g>
        <g>
          <path d="M441.37,378.27a3.31,3.31,0,0,1-.47,1.75,3,3,0,0,1-1.28,1.18,3.21,3.21,0,0,1,1.49,1.25,3.47,3.47,0,0,1,.54,1.92,3.62,3.62,0,0,1-.93,2.6,3.68,3.68,0,0,1-5,0,3.6,3.6,0,0,1-.93-2.6,3.48,3.48,0,0,1,.53-1.93,3.16,3.16,0,0,1,1.46-1.24,2.93,2.93,0,0,1-1.27-1.17,3.47,3.47,0,0,1-.46-1.76,3.63,3.63,0,0,1,.86-2.54,3,3,0,0,1,2.29-.94,3,3,0,0,1,2.29.95A3.61,3.61,0,0,1,441.37,378.27Zm-.7,6.1a2.8,2.8,0,0,0-.69-1.95,2.28,2.28,0,0,0-1.76-.76,2.32,2.32,0,0,0-1.76.74,2.8,2.8,0,0,0-.69,2,2.73,2.73,0,0,0,.67,1.94,2.57,2.57,0,0,0,3.57,0A2.75,2.75,0,0,0,440.67,384.37Zm-.27-6.11a2.74,2.74,0,0,0-.62-1.83,2,2,0,0,0-1.56-.72,1.94,1.94,0,0,0-1.57.7,2.74,2.74,0,0,0-.59,1.85,2.6,2.6,0,0,0,.61,1.82,2,2,0,0,0,1.56.66,2,2,0,0,0,1.56-.68A2.61,2.61,0,0,0,440.4,378.26Z" transform="translate(0 0)" fill="#4d4d4d"/>
          <path d="M447.83,382.6a16.13,16.13,0,0,1,.46-3.83,13.42,13.42,0,0,1,1.26-3.29,6.23,6.23,0,0,1,1.68-2.07l.22.74a5.75,5.75,0,0,0-1.33,1.92,12.88,12.88,0,0,0-1,3,18.56,18.56,0,0,0-.34,3.7,17.39,17.39,0,0,0,.34,3.5,13.54,13.54,0,0,0,1,3,6,6,0,0,0,1.33,1.95l-.22.7a5.53,5.53,0,0,1-1.22-1.3,9.87,9.87,0,0,1-1.1-2.08,14,14,0,0,1-.78-2.65A16.12,16.12,0,0,1,447.83,382.6Z" transform="translate(0 0)" fill="#4d4d4d"/>
          <path d="M458.5,381.93a3.49,3.49,0,0,1-1.15,1.2,2.72,2.72,0,0,1-1.48.44,2.62,2.62,0,0,1-2.22-1.21,5.19,5.19,0,0,1-.85-3.08,5.51,5.51,0,0,1,.89-3.22,2.77,2.77,0,0,1,2.37-1.27,2.86,2.86,0,0,1,2.52,1.35,6.83,6.83,0,0,1,.9,3.82v1a9,9,0,0,1-1.22,5.21,4.32,4.32,0,0,1-3.72,1.73h-.27v-.93h.28a3.53,3.53,0,0,0,2.89-1.25A6.13,6.13,0,0,0,458.5,381.93Zm-2.49.72a2.2,2.2,0,0,0,1.5-.6,3.42,3.42,0,0,0,1-1.62v-.64a5.79,5.79,0,0,0-.66-3,2,2,0,0,0-1.78-1.09,1.91,1.91,0,0,0-1.66,1,4.51,4.51,0,0,0-.65,2.53,4.4,4.4,0,0,0,.62,2.44A1.87,1.87,0,0,0,456,382.65Z" transform="translate(0 0)" fill="#4d4d4d"/>
          <path d="M461.9,387.12a.78.78,0,0,1,.2-.53.72.72,0,0,1,.55-.21.71.71,0,0,1,.55.21.74.74,0,0,1,.21.53.66.66,0,0,1-.21.51.71.71,0,0,1-.55.21.72.72,0,0,1-.55-.21A.69.69,0,0,1,461.9,387.12Z" transform="translate(0 0)" fill="#4d4d4d"/>
          <path d="M471.58,383.64h1.64v.91h-1.64v3.22h-1v-3.22h-5v-.62l4.95-9h1.05Zm-4.83,0h3.85v-7.19l-.35.71Z" transform="translate(0 0)" fill="#4d4d4d"/>
          <path d="M477.72,382.73a16.19,16.19,0,0,1-.43,3.79,12.83,12.83,0,0,1-1.24,3.27,6.46,6.46,0,0,1-1.72,2.11l-.22-.7a6.26,6.26,0,0,0,1.54-2.4,16.35,16.35,0,0,0,1.1-6.23,17.09,17.09,0,0,0-.35-3.47,13.38,13.38,0,0,0-1-3,5.79,5.79,0,0,0-1.32-2l.22-.7a6.7,6.7,0,0,1,1.81,2.32A14.89,14.89,0,0,1,477.72,382.73Z" transform="translate(0 0)" fill="#4d4d4d"/>
        </g>
        <g>
          <path d="M353.55,28.09V15.29h3.38a4.66,4.66,0,0,1,3.57,1.43,5.58,5.58,0,0,1,1.36,3.9v2.07a5.56,5.56,0,0,1-1.33,4,4.75,4.75,0,0,1-3.67,1.44Zm2.58-10.64V26h.77a2.15,2.15,0,0,0,1.82-.69,4,4,0,0,0,.56-2.35V20.69a4.46,4.46,0,0,0-.51-2.5,2,2,0,0,0-1.7-.74Z" transform="translate(0 0)" fill="#fff"/>
          <path d="M363.71,28.09V15.29h4a4.55,4.55,0,0,1,3.05.9,3.25,3.25,0,0,1,1,2.61,3.23,3.23,0,0,1-.43,1.68,2.57,2.57,0,0,1-1.18,1,2.25,2.25,0,0,1,1.33,1,3.36,3.36,0,0,1,.46,1.83,3.65,3.65,0,0,1-1,2.81,4.24,4.24,0,0,1-3,.95Zm2.59-7.44h1.34c1,0,1.52-.53,1.52-1.58a1.75,1.75,0,0,0-.35-1.24,1.45,1.45,0,0,0-1.14-.38H366.3Zm0,1.88V26H368a1.33,1.33,0,0,0,1.06-.43,1.88,1.88,0,0,0,.36-1.23c0-1.14-.42-1.73-1.25-1.76Z" transform="translate(0 0)" fill="#fff"/>
          <path d="M374.43,31.32l-1.33-.7.33-.62a4.56,4.56,0,0,0,.59-2.09v-2h2.16V27.7a4.77,4.77,0,0,1-.48,1.93A5,5,0,0,1,374.43,31.32Z" transform="translate(0 0)" fill="#fff"/>
          <path d="M390.7,23.34l1.21-8h2.56l-2.28,12.8H389.6l-1.5-7.54-1.47,7.54H384l-2.29-12.8h2.58l1.2,8,1.5-8h2.17Z" transform="translate(0 0)" fill="#fff"/>
          <path d="M398.9,24.43l-.67.74v2.92h-2.49V14.59h2.49v7.3l.31-.46,1.72-2.85h3l-2.76,3.92,3,5.59h-2.84Z" transform="translate(0 0)" fill="#fff"/>
          <path d="M413.91,28.09h-2.5V18.32l-2.43.94V17.18l4.66-1.9h.27Z" transform="translate(0 0)" fill="#fff"/>
          <path d="M424.71,18.7a3.3,3.3,0,0,1-.4,1.65,3.06,3.06,0,0,1-1.08,1.15,3.33,3.33,0,0,1,1.24,1.23,3.58,3.58,0,0,1,.46,1.85,3.68,3.68,0,0,1-1,2.7,3.7,3.7,0,0,1-6.39-2.7,3.68,3.68,0,0,1,.46-1.85,3.24,3.24,0,0,1,1.26-1.23,3,3,0,0,1-1.1-1.15,3.41,3.41,0,0,1-.4-1.65,3.56,3.56,0,0,1,1-2.63,3.82,3.82,0,0,1,5,0A3.58,3.58,0,0,1,424.71,18.7Zm-3.44,7.5a1,1,0,0,0,.86-.48,2.5,2.5,0,0,0,.3-1.33,2.46,2.46,0,0,0-.31-1.34,1,1,0,0,0-.87-.48,1,1,0,0,0-.88.48,2.46,2.46,0,0,0-.32,1.34,2.4,2.4,0,0,0,.32,1.33A1,1,0,0,0,421.27,26.2Zm1-7.37a2.56,2.56,0,0,0-.24-1.2.79.79,0,0,0-.74-.45.78.78,0,0,0-.72.44,2.4,2.4,0,0,0-.25,1.21,2.47,2.47,0,0,0,.25,1.21.79.79,0,0,0,.74.47A.76.76,0,0,0,422,20,2.6,2.6,0,0,0,422.23,18.83Z" transform="translate(0 0)" fill="#fff"/>
        </g>
        <path d="M434.84,22.87h-7.7V20.78h7.7Z" transform="translate(0 0)" fill="#fff"/>
        <g>
          <path d="M443.05,23.26h1.09v2.06h-1.09v2.77h-2.49V25.32h-4.23l-.12-1.61,4.34-8.42h2.5Zm-4.42,0h1.93V19l-.05.09Z" transform="translate(0 0)" fill="#fff"/>
          <path d="M452.16,23.26h1.09v2.06h-1.09v2.77h-2.49V25.32h-4.24l-.11-1.61,4.34-8.42h2.5Zm-4.43,0h1.94V19l-.05.09Z" transform="translate(0 0)" fill="#fff"/>
        </g>
      </g>
    </g>
  </g>
</svg>
