<svg xmlns="http://www.w3.org/2000/svg" xmlns:xlink="http://www.w3.org/1999/xlink" width="503.29" height="428.22" viewBox="0 0 503.29 428.22">
  <defs>
    <clipPath id="clip-path" transform="translate(0)">
      <rect x="0.6" width="210.53" height="113.45" fill="none"/>
    </clipPath>
    <clipPath id="clip-path-2" transform="translate(0)">
      <rect x="211.14" width="292.15" height="40.64" fill="none"/>
    </clipPath>
    <clipPath id="clip-path-3" transform="translate(0)">
      <rect x="0.79" y="182.66" width="502.5" height="106.34" fill="none"/>
    </clipPath>
    <clipPath id="clip-path-4" transform="translate(0)">
      <rect y="329.45" width="502.5" height="35" fill="none"/>
    </clipPath>
  </defs>
  <g id="Layer_2" data-name="Layer 2">
    <g id="Layer_1-2" data-name="Layer 1">
      <g>
        <g>
          <g opacity="0.7">
            <g clip-path="url(#clip-path)">
              <rect x="0.6" width="210.53" height="113.45" fill="#bf6b04"/>
            </g>
          </g>
          <g opacity="0.7">
            <g clip-path="url(#clip-path-2)">
              <rect x="211.13" width="292.15" height="40.64" fill="#bf6b04"/>
            </g>
          </g>
          <g opacity="0.3">
            <g clip-path="url(#clip-path-3)">
              <rect x="0.79" y="182.66" width="502.5" height="106.34" fill="#bf6b04"/>
            </g>
          </g>
          <g opacity="0.3">
            <g clip-path="url(#clip-path-4)">
              <rect y="329.44" width="502.5" height="35" fill="#bf6b04"/>
            </g>
          </g>
        </g>
        <g>
          <path d="M18.71,59.59v4.5H16V51.29h4.62a4.33,4.33,0,0,1,3.2,1.18A4.08,4.08,0,0,1,25,55.53a3.88,3.88,0,0,1-1.18,3,4.69,4.69,0,0,1-3.28,1.09Zm0-2.16h1.88A1.55,1.55,0,0,0,21.8,57a2.08,2.08,0,0,0,.43-1.41A2.45,2.45,0,0,0,21.79,54a1.43,1.43,0,0,0-1.17-.58H18.71Z" transform="translate(0)" fill="#fff"/>
          <path d="M31.37,64.09a3,3,0,0,1-.22-.74,2.3,2.3,0,0,1-1.92.91,2.93,2.93,0,0,1-2.1-.79,2.72,2.72,0,0,1-.83-2,2.8,2.8,0,0,1,1-2.31,4.6,4.6,0,0,1,2.91-.83H31v-.77a1.33,1.33,0,0,0-.24-.9.84.84,0,0,0-.68-.27c-.65,0-1,.37-1,1.09H26.48a2.68,2.68,0,0,1,1.05-2.17,4.06,4.06,0,0,1,2.65-.86,3.71,3.71,0,0,1,2.56.81,3,3,0,0,1,.91,2.33V62A4.41,4.41,0,0,0,34,63.94v.15Zm-1.56-1.78a1.46,1.46,0,0,0,.75-.17,1.29,1.29,0,0,0,.46-.39v-2h-.64a1.38,1.38,0,0,0-1.05.41,1.49,1.49,0,0,0-.39,1.08Q28.94,62.31,29.81,62.31Z" transform="translate(0)" fill="#fff"/>
          <path d="M38.62,52.24v2.34H40v1.86H38.62v4.73a1.32,1.32,0,0,0,.16.77.77.77,0,0,0,.63.21,2.65,2.65,0,0,0,.62-.06L40,64a4.5,4.5,0,0,1-1.45.23Q36,64.26,36,61.5V56.44H34.82V54.58H36V52.24Z" transform="translate(0)" fill="#fff"/>
          <path d="M41.41,52.12a1.24,1.24,0,0,1,.39-.95,1.65,1.65,0,0,1,2.08,0,1.24,1.24,0,0,1,.39.95,1.31,1.31,0,0,1-.38,1,1.67,1.67,0,0,1-2.1,0A1.31,1.31,0,0,1,41.41,52.12Zm2.76,12H41.53V54.58h2.64Z" transform="translate(0)" fill="#fff"/>
          <path d="M50.27,64.26a4.27,4.27,0,0,1-3.16-1.14A4.42,4.42,0,0,1,46,59.85v-.76a5.17,5.17,0,0,1,1-3.47,3.72,3.72,0,0,1,3-1.22,3.49,3.49,0,0,1,2.85,1.15,5.21,5.21,0,0,1,1,3.39v1.22H48.6a2.54,2.54,0,0,0,.49,1.55,1.74,1.74,0,0,0,1.35.49,3.06,3.06,0,0,0,2.21-.86l1,1.51a3.35,3.35,0,0,1-1.41,1A5.06,5.06,0,0,1,50.27,64.26Zm-1.65-5.83h2.63V58.2a2.45,2.45,0,0,0-.3-1.29,1,1,0,0,0-1-.44,1.1,1.1,0,0,0-1,.46A3.08,3.08,0,0,0,48.62,58.43Z" transform="translate(0)" fill="#fff"/>
          <path d="M57.74,54.58l.07.94a2.84,2.84,0,0,1,2.34-1.12q2.6,0,2.67,3.44v6.25H60.17V58a2.07,2.07,0,0,0-.25-1.17,1,1,0,0,0-.9-.37,1.25,1.25,0,0,0-1.12.7v6.91H55.26V54.58Z" transform="translate(0)" fill="#fff"/>
          <path d="M67.77,52.24v2.34h1.35v1.86H67.77v4.73a1.32,1.32,0,0,0,.16.77.77.77,0,0,0,.63.21,2.65,2.65,0,0,0,.62-.06l0,1.94a4.5,4.5,0,0,1-1.45.23q-2.55,0-2.58-2.76V56.44H64V54.58h1.16V52.24Z" transform="translate(0)" fill="#fff"/>
          <path d="M75,61.54a.76.76,0,0,0-.32-.59,6.68,6.68,0,0,0-1.42-.72A6.05,6.05,0,0,1,71,58.94a2.36,2.36,0,0,1-.61-1.66,2.62,2.62,0,0,1,1-2.07,3.79,3.79,0,0,1,2.53-.81,4.07,4.07,0,0,1,2.65.81,2.66,2.66,0,0,1,1,2.17H74.91c0-.77-.34-1.16-1-1.16a1,1,0,0,0-.69.25.87.87,0,0,0-.27.68.71.71,0,0,0,.3.56,6.71,6.71,0,0,0,1.4.69,6,6,0,0,1,2.28,1.25,2.66,2.66,0,0,1-.35,3.84,4.24,4.24,0,0,1-2.66.77,4.38,4.38,0,0,1-2-.41,3.25,3.25,0,0,1-1.32-1.13,2.82,2.82,0,0,1-.48-1.58h2.5a1.45,1.45,0,0,0,.32,1,1.28,1.28,0,0,0,1,.32C74.66,62.44,75,62.14,75,61.54Z" transform="translate(0)" fill="#fff"/>
          <path d="M90.93,59.91l.91-5.33h2.52l-2.09,9.51H90.09l-1.43-5.5-1.42,5.5H85L83,54.58h2.53l.89,5.34,1.34-5.34h1.87Z" transform="translate(0)" fill="#fff"/>
          <path d="M95.66,52.12a1.24,1.24,0,0,1,.39-.95,1.44,1.44,0,0,1,1-.37,1.46,1.46,0,0,1,1,.37,1.35,1.35,0,0,1,0,1.9,1.45,1.45,0,0,1-1,.37,1.41,1.41,0,0,1-1-.37A1.28,1.28,0,0,1,95.66,52.12Zm2.76,12H95.78V54.58h2.64Z" transform="translate(0)" fill="#fff"/>
          <path d="M103.52,52.24v2.34h1.35v1.86h-1.35v4.73a1.4,1.4,0,0,0,.16.77.77.77,0,0,0,.63.21,2.74,2.74,0,0,0,.63-.06l0,1.94a4.54,4.54,0,0,1-1.45.23q-2.55,0-2.58-2.76V56.44H99.73V54.58h1.16V52.24Z" transform="translate(0)" fill="#fff"/>
          <path d="M108.88,55.41a2.66,2.66,0,0,1,2.1-1,2.52,2.52,0,0,1,2.1.92A4.33,4.33,0,0,1,113.8,58v6.05h-2.64v-6a2.1,2.1,0,0,0-.27-1.21,1,1,0,0,0-.89-.38,1.26,1.26,0,0,0-1.12.63v7h-2.63V50.59h2.63Z" transform="translate(0)" fill="#fff"/>
          <path d="M122.85,64.09H120.2V50.59h2.65Z" transform="translate(0)" fill="#fff"/>
          <path d="M129.67,64.09a3.45,3.45,0,0,1-.23-.74,2.28,2.28,0,0,1-1.91.91,2.9,2.9,0,0,1-2.1-.79,2.68,2.68,0,0,1-.83-2,2.8,2.8,0,0,1,1-2.31,4.59,4.59,0,0,1,2.9-.83h.8v-.77a1.33,1.33,0,0,0-.23-.9.84.84,0,0,0-.68-.27c-.66,0-1,.37-1,1.09h-2.64a2.68,2.68,0,0,1,1-2.17,4.06,4.06,0,0,1,2.65-.86,3.73,3.73,0,0,1,2.56.81,3,3,0,0,1,.91,2.33V62a4.41,4.41,0,0,0,.37,1.93v.15Zm-1.56-1.78a1.49,1.49,0,0,0,.75-.17,1.25,1.25,0,0,0,.45-.39v-2h-.63a1.4,1.4,0,0,0-1.06.41,1.53,1.53,0,0,0-.38,1.08Q127.24,62.31,128.11,62.31Z" transform="translate(0)" fill="#fff"/>
          <path d="M141.71,59.64a6.16,6.16,0,0,1-.79,3.47,2.75,2.75,0,0,1-2.45,1.15,2.44,2.44,0,0,1-2.1-1.11l-.09.94h-2.43V50.59h2.64v4.76a2.37,2.37,0,0,1,2-1,2.75,2.75,0,0,1,2.46,1.15,6.12,6.12,0,0,1,.8,3.36ZM139.07,59a4.5,4.5,0,0,0-.3-2,1.17,1.17,0,0,0-1.07-.52,1.26,1.26,0,0,0-1.21.72v4.33a1.27,1.27,0,0,0,1.22.67,1.13,1.13,0,0,0,1-.47,3.78,3.78,0,0,0,.31-1.81Z" transform="translate(0)" fill="#fff"/>
          <path d="M143,59a5,5,0,0,1,1.08-3.39,4.26,4.26,0,0,1,6,0A5,5,0,0,1,151.13,59v.61A5,5,0,0,1,150.06,63a4.3,4.3,0,0,1-6,0A5,5,0,0,1,143,59.63Zm2.64.63q0,2.55,1.44,2.55t1.44-2.13V59a3.82,3.82,0,0,0-.38-1.92,1.21,1.21,0,0,0-1.08-.63,1.17,1.17,0,0,0-1.05.63,3.82,3.82,0,0,0-.38,1.92Z" transform="translate(0)" fill="#fff"/>
          <path d="M157.74,57l-.88-.07a1.45,1.45,0,0,0-1.46.89v6.29h-2.64V54.58h2.48l.08,1a1.91,1.91,0,0,1,2.45-1.09Z" transform="translate(0)" fill="#fff"/>
          <path d="M163.6,64.09a3.57,3.57,0,0,1-.22-.74,2.29,2.29,0,0,1-1.92.91,2.93,2.93,0,0,1-2.1-.79,2.72,2.72,0,0,1-.83-2,2.83,2.83,0,0,1,1-2.31,4.6,4.6,0,0,1,2.91-.83h.8v-.77a1.39,1.39,0,0,0-.23-.9.87.87,0,0,0-.68-.27c-.66,0-1,.37-1,1.09h-2.63a2.69,2.69,0,0,1,1-2.17,4.06,4.06,0,0,1,2.65-.86,3.71,3.71,0,0,1,2.56.81,3,3,0,0,1,.91,2.33V62a4.56,4.56,0,0,0,.37,1.93v.15Zm-1.55-1.78a1.42,1.42,0,0,0,.74-.17,1.21,1.21,0,0,0,.46-.39v-2h-.63a1.4,1.4,0,0,0-1.06.41,1.49,1.49,0,0,0-.39,1.08C161.17,62,161.46,62.31,162.05,62.31Z" transform="translate(0)" fill="#fff"/>
          <path d="M170.85,52.24v2.34h1.35v1.86h-1.35v4.73a1.32,1.32,0,0,0,.16.77.77.77,0,0,0,.63.21,2.65,2.65,0,0,0,.62-.06V64a4.61,4.61,0,0,1-1.46.23c-1.7,0-2.55-.92-2.57-2.76V56.44h-1.17V54.58h1.17V52.24Z" transform="translate(0)" fill="#fff"/>
          <path d="M173.07,59a5,5,0,0,1,1.08-3.39,4.26,4.26,0,0,1,6,0A5,5,0,0,1,181.22,59v.61A5,5,0,0,1,180.15,63a3.78,3.78,0,0,1-3,1.22,3.82,3.82,0,0,1-3-1.22,5,5,0,0,1-1.07-3.41Zm2.64.63q0,2.55,1.44,2.55c.89,0,1.37-.71,1.43-2.13V59a3.71,3.71,0,0,0-.38-1.92,1.19,1.19,0,0,0-1.08-.63,1.16,1.16,0,0,0-1,.63,3.71,3.71,0,0,0-.38,1.92Z" transform="translate(0)" fill="#fff"/>
          <path d="M187.82,57l-.87-.07a1.44,1.44,0,0,0-1.46.89v6.29h-2.64V54.58h2.48l.07,1a1.91,1.91,0,0,1,1.73-1.21,1.83,1.83,0,0,1,.72.12Z" transform="translate(0)" fill="#fff"/>
          <path d="M192.55,60l1.34-5.37h2.81l-3.31,10.93c-.5,1.61-1.43,2.42-2.8,2.42a4.14,4.14,0,0,1-1.08-.17V65.82h.31a1.54,1.54,0,0,0,.92-.23,1.36,1.36,0,0,0,.47-.77l.21-.65-2.9-9.6h2.82Z" transform="translate(0)" fill="#fff"/>
        </g>
        <g>
          <path d="M59.25,100.09a3,3,0,0,1-.22-.74,2.3,2.3,0,0,1-1.92.91,2.93,2.93,0,0,1-2.1-.79,2.72,2.72,0,0,1-.83-2,2.8,2.8,0,0,1,1-2.31,4.6,4.6,0,0,1,2.91-.83h.79v-.77a1.33,1.33,0,0,0-.23-.9.84.84,0,0,0-.68-.27c-.65,0-1,.37-1,1.09H54.36a2.68,2.68,0,0,1,1-2.17,4.06,4.06,0,0,1,2.65-.86,3.71,3.71,0,0,1,2.56.81,3,3,0,0,1,.91,2.33V98a4.41,4.41,0,0,0,.37,1.93v.15Zm-1.56-1.78a1.46,1.46,0,0,0,.75-.17,1.17,1.17,0,0,0,.45-.39v-2h-.63a1.38,1.38,0,0,0-1,.41,1.49,1.49,0,0,0-.39,1.08Q56.82,98.31,57.69,98.31Z" transform="translate(0)" fill="#fff"/>
          <path d="M71.29,95.64a6.25,6.25,0,0,1-.78,3.47,2.75,2.75,0,0,1-2.46,1.15A2.47,2.47,0,0,1,66,99.15l-.09.94H63.43V86.59h2.64v4.76a2.37,2.37,0,0,1,2-.95,2.75,2.75,0,0,1,2.46,1.15,6,6,0,0,1,.8,3.36ZM68.65,95a4.5,4.5,0,0,0-.3-2,1.16,1.16,0,0,0-1.07-.52,1.27,1.27,0,0,0-1.21.72v4.33a1.27,1.27,0,0,0,1.23.67,1.13,1.13,0,0,0,1-.47,3.78,3.78,0,0,0,.31-1.81Z" transform="translate(0)" fill="#fff"/>
          <path d="M75.28,90.58l.07.94a2.85,2.85,0,0,1,2.34-1.12q2.59,0,2.67,3.44v6.25H77.72V94a2.06,2.06,0,0,0-.26-1.17,1,1,0,0,0-.9-.37,1.24,1.24,0,0,0-1.11.7v6.91H72.81V90.58Z" transform="translate(0)" fill="#fff"/>
          <path d="M81.94,95A5,5,0,0,1,83,91.63a4.26,4.26,0,0,1,6,0A5,5,0,0,1,90.09,95v.61A4.92,4.92,0,0,1,89,99a3.74,3.74,0,0,1-3,1.22A3.8,3.8,0,0,1,83,99a5,5,0,0,1-1.08-3.41Zm2.64.63c0,1.7.48,2.55,1.45,2.55s1.36-.71,1.43-2.13V95a3.82,3.82,0,0,0-.38-1.92A1.21,1.21,0,0,0,86,92.47,1.17,1.17,0,0,0,85,93.1,3.82,3.82,0,0,0,84.58,95Z" transform="translate(0)" fill="#fff"/>
          <path d="M96.7,93l-.88-.07a1.45,1.45,0,0,0-1.46.89v6.29H91.72V90.58H94.2l.08,1a1.91,1.91,0,0,1,2.45-1.09Z" transform="translate(0)" fill="#fff"/>
          <path d="M100.52,90.58l.08.88a2.85,2.85,0,0,1,2.33-1.06,2.18,2.18,0,0,1,2.13,1.28,2.82,2.82,0,0,1,2.47-1.28q2.64,0,2.7,3.46v6.23H107.6V94a2.13,2.13,0,0,0-.24-1.17.91.91,0,0,0-.82-.36,1.18,1.18,0,0,0-1.1.86l0,.3v6.45h-2.63V94a2.33,2.33,0,0,0-.23-1.18.92.92,0,0,0-.83-.37,1.23,1.23,0,0,0-1.08.7v6.91H98.06V90.58Z" transform="translate(0)" fill="#fff"/>
          <path d="M117,100.09a3.57,3.57,0,0,1-.22-.74,2.29,2.29,0,0,1-1.92.91,2.93,2.93,0,0,1-2.1-.79,2.72,2.72,0,0,1-.83-2,2.83,2.83,0,0,1,1-2.31,4.6,4.6,0,0,1,2.91-.83h.8v-.77a1.39,1.39,0,0,0-.23-.9.87.87,0,0,0-.68-.27c-.66,0-1,.37-1,1.09h-2.63a2.69,2.69,0,0,1,1-2.17,4.06,4.06,0,0,1,2.65-.86,3.71,3.71,0,0,1,2.56.81,3,3,0,0,1,.91,2.33V98a4.56,4.56,0,0,0,.37,1.93v.15Zm-1.55-1.78a1.42,1.42,0,0,0,.74-.17,1.21,1.21,0,0,0,.46-.39v-2H116a1.4,1.4,0,0,0-1.06.41,1.49,1.49,0,0,0-.39,1.08C114.53,98,114.82,98.31,115.41,98.31Z" transform="translate(0)" fill="#fff"/>
          <path d="M123.91,100.09h-2.64V86.59h2.64Z" transform="translate(0)" fill="#fff"/>
          <path d="M126,88.12a1.24,1.24,0,0,1,.39-1,1.44,1.44,0,0,1,1-.37,1.46,1.46,0,0,1,1.05.37,1.35,1.35,0,0,1,0,1.9,1.45,1.45,0,0,1-1.05.37,1.41,1.41,0,0,1-1-.37A1.28,1.28,0,0,1,126,88.12Zm2.76,12h-2.64V90.58h2.64Z" transform="translate(0)" fill="#fff"/>
          <path d="M133.81,88.24v2.34h1.35v1.86h-1.35v4.73a1.3,1.3,0,0,0,.17.77.73.73,0,0,0,.62.21,2.74,2.74,0,0,0,.63-.06l0,1.94a4.54,4.54,0,0,1-1.45.23q-2.55,0-2.58-2.76V92.44H130V90.58h1.16V88.24Z" transform="translate(0)" fill="#fff"/>
          <path d="M136.6,88.12a1.24,1.24,0,0,1,.39-1,1.66,1.66,0,0,1,2.09,0,1.24,1.24,0,0,1,.39,1,1.28,1.28,0,0,1-.39.95,1.41,1.41,0,0,1-1,.37,1.45,1.45,0,0,1-1-.37A1.28,1.28,0,0,1,136.6,88.12Zm2.77,12h-2.65V90.58h2.65Z" transform="translate(0)" fill="#fff"/>
          <path d="M145.47,100.26a4.25,4.25,0,0,1-3.16-1.14,4.43,4.43,0,0,1-1.14-3.27v-.76a5.23,5.23,0,0,1,1-3.47,3.73,3.73,0,0,1,3-1.22,3.5,3.5,0,0,1,2.86,1.15,5.21,5.21,0,0,1,1,3.39v1.22H143.8a2.48,2.48,0,0,0,.49,1.55,1.74,1.74,0,0,0,1.35.49,3,3,0,0,0,2.2-.86l1,1.51a3.48,3.48,0,0,1-1.41,1A5.06,5.06,0,0,1,145.47,100.26Zm-1.66-5.83h2.64V94.2a2.55,2.55,0,0,0-.3-1.29,1,1,0,0,0-1-.44,1.11,1.11,0,0,0-1,.46A3.08,3.08,0,0,0,143.81,94.43Z" transform="translate(0)" fill="#fff"/>
          <path d="M155,97.54a.79.79,0,0,0-.32-.59,6.85,6.85,0,0,0-1.43-.72A6.14,6.14,0,0,1,151,94.94a2.41,2.41,0,0,1-.61-1.66,2.6,2.6,0,0,1,1-2.07,3.74,3.74,0,0,1,2.52-.81,4.05,4.05,0,0,1,2.65.81,2.64,2.64,0,0,1,1,2.17h-2.63c0-.77-.34-1.16-1-1.16a1,1,0,0,0-.69.25.87.87,0,0,0-.27.68.71.71,0,0,0,.3.56,6.88,6.88,0,0,0,1.41.69,5.93,5.93,0,0,1,2.27,1.25,2.64,2.64,0,0,1-.35,3.84,4.22,4.22,0,0,1-2.66.77,4.31,4.31,0,0,1-2-.41,3.21,3.21,0,0,1-1.33-1.13,2.82,2.82,0,0,1-.48-1.58h2.51a1.45,1.45,0,0,0,.32,1,1.28,1.28,0,0,0,1,.32C154.63,98.44,155,98.14,155,97.54Z" transform="translate(0)" fill="#fff"/>
        </g>
        <g>
          <path d="M28.1,136.09H27V130H20.67v6.13H19.61v-12.8h1.06V129H27v-5.74H28.1Z" transform="translate(0)" fill="#4d4d4d"/>
          <path d="M34.42,136.26a3.56,3.56,0,0,1-2.78-1.1,4.5,4.5,0,0,1-1-3.12v-1.16a5.11,5.11,0,0,1,1-3.29,3.26,3.26,0,0,1,2.66-1.19,3.1,3.1,0,0,1,2.5,1,4.74,4.74,0,0,1,.88,3.1v.91h-6V132a3.84,3.84,0,0,0,.74,2.52,2.57,2.57,0,0,0,2.09.89,3.11,3.11,0,0,0,2.41-1l.54.65A3.56,3.56,0,0,1,34.42,136.26Zm-.18-8.94a2.27,2.27,0,0,0-1.87.81,3.94,3.94,0,0,0-.72,2.38h4.94v-.26C36.54,128.29,35.76,127.32,34.24,127.32Z" transform="translate(0)" fill="#4d4d4d"/>
          <path d="M40.77,126.58l0,1.42a3,3,0,0,1,2.7-1.6A2.37,2.37,0,0,1,46,128.15a3.32,3.32,0,0,1,1.23-1.31,3.19,3.19,0,0,1,1.63-.44q2.72,0,2.78,3.31v6.38h-1v-6.32a3,3,0,0,0-.48-1.83,1.79,1.79,0,0,0-1.53-.61A2.21,2.21,0,0,0,47,128a2.72,2.72,0,0,0-.75,1.72v6.33h-1v-6.3a3,3,0,0,0-.48-1.85,1.87,1.87,0,0,0-1.52-.61,2.12,2.12,0,0,0-1.47.56,3.2,3.2,0,0,0-.9,1.58v6.62h-1v-9.51Z" transform="translate(0)" fill="#4d4d4d"/>
          <path d="M54,130.85a4.93,4.93,0,0,1,1-3.25,3.27,3.27,0,0,1,2.68-1.2,3.31,3.31,0,0,1,2.7,1.18,5,5,0,0,1,1,3.24v1a4.88,4.88,0,0,1-1,3.26,3.68,3.68,0,0,1-5.35,0A4.81,4.81,0,0,1,54,132Zm1,1a4.29,4.29,0,0,0,.7,2.58,2.52,2.52,0,0,0,3.9,0,4.32,4.32,0,0,0,.69-2.59v-1a4.23,4.23,0,0,0-.71-2.58,2.29,2.29,0,0,0-2-.94,2.25,2.25,0,0,0-1.9.92,4.13,4.13,0,0,0-.73,2.53Z" transform="translate(0)" fill="#4d4d4d"/>
          <path d="M63.33,130.89a5.68,5.68,0,0,1,.82-3.37,2.85,2.85,0,0,1,2.45-1.12,2.78,2.78,0,0,1,2.59,1.5l.06-1.32h1v9.78a3.62,3.62,0,0,1-.87,2.62,3.3,3.3,0,0,1-2.5.9,3.92,3.92,0,0,1-1.67-.39,3.41,3.41,0,0,1-1.28-.94l.48-.71A3.16,3.16,0,0,0,66.75,139a2.36,2.36,0,0,0,1.83-.63,2.79,2.79,0,0,0,.58-1.92V134.9a3.13,3.13,0,0,1-5,.25,5.45,5.45,0,0,1-.86-3.23Zm1,.89a4.85,4.85,0,0,0,.59,2.69,2.07,2.07,0,0,0,1.84.86,2.41,2.41,0,0,0,2.36-1.5V129a2.39,2.39,0,0,0-2.34-1.63,2.09,2.09,0,0,0-1.85.85,4.72,4.72,0,0,0-.6,2.64Z" transform="translate(0)" fill="#4d4d4d"/>
          <path d="M74.11,136.09h-1v-13.5h1Z" transform="translate(0)" fill="#4d4d4d"/>
          <path d="M76.58,130.85a5,5,0,0,1,1-3.25,3.65,3.65,0,0,1,5.39,0,5,5,0,0,1,1,3.24v1a4.88,4.88,0,0,1-1,3.26,3.68,3.68,0,0,1-5.35,0,4.76,4.76,0,0,1-1-3.15Zm1,1a4.23,4.23,0,0,0,.7,2.58,2.52,2.52,0,0,0,3.9,0,4.25,4.25,0,0,0,.68-2.59v-1a4.23,4.23,0,0,0-.7-2.58,2.29,2.29,0,0,0-2-.94,2.25,2.25,0,0,0-1.9.92,4.07,4.07,0,0,0-.73,2.53Z" transform="translate(0)" fill="#4d4d4d"/>
          <path d="M93.19,131.78a5.74,5.74,0,0,1-.81,3.34A2.78,2.78,0,0,1,90,136.26a2.85,2.85,0,0,1-2.64-1.45l0,1.28h-1v-13.5h1v5.31a2.79,2.79,0,0,1,2.6-1.5,2.82,2.82,0,0,1,2.43,1.09,5.51,5.51,0,0,1,.82,3.24Zm-1-.89a5,5,0,0,0-.57-2.68,2,2,0,0,0-1.86-.87,2.41,2.41,0,0,0-2.39,1.72v4.71a2.54,2.54,0,0,0,.93,1.15,2.57,2.57,0,0,0,1.48.41,2,2,0,0,0,1.82-.85,4.69,4.69,0,0,0,.59-2.64Z" transform="translate(0)" fill="#4d4d4d"/>
          <path d="M95.55,123.84a.76.76,0,0,1,.18-.51.58.58,0,0,1,.5-.22.61.61,0,0,1,.5.22.72.72,0,0,1,.19.51.71.71,0,0,1-.19.5.63.63,0,0,1-.5.21.6.6,0,0,1-.5-.21A.75.75,0,0,1,95.55,123.84Zm1.19,12.25h-1v-9.51h1Z" transform="translate(0)" fill="#4d4d4d"/>
          <path d="M100.58,126.58l0,1.51a3.56,3.56,0,0,1,1.14-1.23,2.76,2.76,0,0,1,1.58-.46c1.75,0,2.65,1.11,2.69,3.32v6.37h-1v-6.27a3.07,3.07,0,0,0-.47-1.88,1.74,1.74,0,0,0-1.46-.61,2.16,2.16,0,0,0-1.46.58,3.53,3.53,0,0,0-1,1.58v6.6h-1v-9.51Z" transform="translate(0)" fill="#4d4d4d"/>
          <path d="M113.54,130.33,118.9,133v1.13l-6.45-3.33v-.87l6.45-3.32v1.13Z" transform="translate(0)" fill="#4d4d4d"/>
          <path d="M128.37,130.74a7.73,7.73,0,0,1-.89,4.13,3.15,3.15,0,0,1-5.22,0,7.51,7.51,0,0,1-.92-4V128.6a7.73,7.73,0,0,1,.88-4.08,3.16,3.16,0,0,1,5.23,0,7.37,7.37,0,0,1,.92,4Zm-1-2.29a6.93,6.93,0,0,0-.62-3.31,2.11,2.11,0,0,0-3.69,0,6.55,6.55,0,0,0-.66,3.17v2.59a7.14,7.14,0,0,0,.64,3.32,2,2,0,0,0,1.87,1.17,2,2,0,0,0,1.81-1.11,6.84,6.84,0,0,0,.65-3.26Z" transform="translate(0)" fill="#4d4d4d"/>
          <path d="M130.84,135.45a.75.75,0,0,1,.21-.54.78.78,0,0,1,.58-.21.82.82,0,0,1,.59.21.75.75,0,0,1,.21.54.69.69,0,0,1-.21.51.86.86,0,0,1-.59.2.82.82,0,0,1-.58-.2A.69.69,0,0,1,130.84,135.45Z" transform="translate(0)" fill="#4d4d4d"/>
          <path d="M142,126.59a3.15,3.15,0,0,1-1.85,2.93,3.4,3.4,0,0,1,1.58,1.25,3.34,3.34,0,0,1,.57,1.92,3.49,3.49,0,0,1-1,2.6,4.06,4.06,0,0,1-5.27,0,3.47,3.47,0,0,1-1-2.6,3.35,3.35,0,0,1,.57-1.93,3.3,3.3,0,0,1,1.55-1.24,3,3,0,0,1-1.35-1.17,3.31,3.31,0,0,1-.49-1.76,3.54,3.54,0,0,1,.91-2.54,3.58,3.58,0,0,1,4.85,0A3.51,3.51,0,0,1,142,126.59Zm-.74,6.1a2.7,2.7,0,0,0-.74-1.95,2.67,2.67,0,0,0-3.71,0,2.7,2.7,0,0,0-.73,2,2.66,2.66,0,0,0,.7,1.94,2.84,2.84,0,0,0,3.78,0A2.68,2.68,0,0,0,141.27,132.69Zm-.29-6.11a2.62,2.62,0,0,0-.66-1.83,2.28,2.28,0,0,0-3.31,0,2.68,2.68,0,0,0-.63,1.85,2.53,2.53,0,0,0,.65,1.82,2.21,2.21,0,0,0,1.65.66,2.15,2.15,0,0,0,1.65-.68A2.46,2.46,0,0,0,141,126.58Z" transform="translate(0)" fill="#4d4d4d"/>
          <path d="M148.49,134.46l2.78-3.19-2.68-3.08.68-.72,2.65,3.05,2.66-3.05.67.72-2.68,3.08,2.78,3.19-.67.71L151.92,132l-2.75,3.15Z" transform="translate(0)" fill="#4d4d4d"/>
          <path d="M163.32,135.16h5.58v.93h-6.65v-12.8h1.07Z" transform="translate(0)" fill="#4d4d4d"/>
          <path d="M172.16,135.16h5.58v.93h-6.65v-12.8h1.07Z" transform="translate(0)" fill="#4d4d4d"/>
          <path d="M188.45,136.09h-1.06L181,125.19v10.9h-1.07v-12.8H181l6.4,10.92V123.29h1Z" transform="translate(0)" fill="#4d4d4d"/>
          <path d="M191.29,138.49l-.66-.47a3.73,3.73,0,0,0,.87-2.23v-1.37h1.09v1.08A3.74,3.74,0,0,1,191.29,138.49Z" transform="translate(0)" fill="#4d4d4d"/>
        </g>
        <path d="M92,162.58l0,1.51a3.56,3.56,0,0,1,1.14-1.23,2.76,2.76,0,0,1,1.58-.46c1.75,0,2.65,1.11,2.69,3.32v6.37h-1v-6.27a3.14,3.14,0,0,0-.47-1.88,1.74,1.74,0,0,0-1.46-.61,2.16,2.16,0,0,0-1.46.58,3.53,3.53,0,0,0-1,1.58v6.6H91v-9.51Zm8.07,4.34a14.73,14.73,0,0,1,.49-3.83,12.86,12.86,0,0,1,1.33-3.29,6.46,6.46,0,0,1,1.77-2.07l.24.74a5.94,5.94,0,0,0-1.41,1.92,12.4,12.4,0,0,0-1,3,17.12,17.12,0,0,0-.37,3.7,16.69,16.69,0,0,0,.36,3.5,13,13,0,0,0,1,3,5.88,5.88,0,0,0,1.41,2l-.24.7a5.64,5.64,0,0,1-1.28-1.3,9.51,9.51,0,0,1-1.17-2.08,14,14,0,0,1-.83-2.65A15.39,15.39,0,0,1,100,166.92Zm5.31-5.17a2.87,2.87,0,0,1,.63-1.89,2,2,0,0,1,1.61-.75,2,2,0,0,1,1.62.75,2.9,2.9,0,0,1,.63,1.94v.63a2.8,2.8,0,0,1-.62,1.87,2,2,0,0,1-1.61.76,2,2,0,0,1-1.62-.75,2.83,2.83,0,0,1-.64-1.93Zm.82.68a2.18,2.18,0,0,0,.39,1.33,1.24,1.24,0,0,0,1,.52,1.18,1.18,0,0,0,1-.53,2.24,2.24,0,0,0,.39-1.36v-.63a2.2,2.2,0,0,0-.39-1.33,1.25,1.25,0,0,0-1-.53,1.21,1.21,0,0,0-1,.53,2.26,2.26,0,0,0-.39,1.36Zm1.74,8.6-.62-.43,5.55-10,.63.43ZM111,169a2.86,2.86,0,0,1,.63-1.89,2,2,0,0,1,1.61-.75,2,2,0,0,1,1.62.75,2.9,2.9,0,0,1,.64,1.95v.63a2.84,2.84,0,0,1-.64,1.89,2.11,2.11,0,0,1-3.21,0,2.87,2.87,0,0,1-.65-1.95Zm.81.69a2.14,2.14,0,0,0,.4,1.33,1.25,1.25,0,0,0,1.05.53,1.21,1.21,0,0,0,1-.53,2.26,2.26,0,0,0,.39-1.38V169a2.15,2.15,0,0,0-.39-1.34,1.33,1.33,0,0,0-2.09,0,2.23,2.23,0,0,0-.39,1.39Zm7.25-9.59a14.24,14.24,0,0,1,1.67,7,15.19,15.19,0,0,1-.46,3.79,12.23,12.23,0,0,1-1.31,3.27,6.38,6.38,0,0,1-1.82,2.11l-.23-.7a6.32,6.32,0,0,0,1.63-2.4,15.6,15.6,0,0,0,1.16-6.23,15.77,15.77,0,0,0-.37-3.47,12.91,12.91,0,0,0-1-3,5.94,5.94,0,0,0-1.4-2l.23-.7a6.72,6.72,0,0,1,1.92,2.32Z" transform="translate(0)" fill="#4d4d4d"/>
        <g>
          <path d="M37.76,206.71h5.31v1.38h-7v-12.8h1.71Z" transform="translate(0)" fill="#4d4d4d"/>
          <path d="M46.4,205.5l1.83-6.92H50l-3.29,10.85a4.14,4.14,0,0,1-1,1.86,2.18,2.18,0,0,1-1.55.64,3.61,3.61,0,0,1-.85-.14v-1.32l.36,0a1.72,1.72,0,0,0,1.12-.32,2.24,2.24,0,0,0,.66-1.11L45.7,208l-3-9.43h1.8Z" transform="translate(0)" fill="#4d4d4d"/>
          <path d="M53.14,198.58l0,.88a3,3,0,0,1,2.42-1.06A2.4,2.4,0,0,1,58,199.78a3,3,0,0,1,2.64-1.38q2.77,0,2.85,3.28v6.41H61.81v-6.26a2.49,2.49,0,0,0-.39-1.54,1.56,1.56,0,0,0-1.32-.51,1.5,1.5,0,0,0-1.21.55,2.38,2.38,0,0,0-.54,1.39v6.37H56.69v-6.33c0-1.32-.58-2-1.7-2A1.79,1.79,0,0,0,53.23,201v7.13H51.59v-9.51Z" transform="translate(0)" fill="#4d4d4d"/>
          <path d="M73.2,203.79a5.48,5.48,0,0,1-.86,3.37,2.94,2.94,0,0,1-2.44,1.1,2.74,2.74,0,0,1-2.33-1.08v4.56H65.93V198.58h1.49l.08,1a2.71,2.71,0,0,1,2.38-1.23,2.88,2.88,0,0,1,2.47,1.09,5.5,5.5,0,0,1,.85,3.26Zm-1.64-.89a4.23,4.23,0,0,0-.52-2.36,1.89,1.89,0,0,0-1.68-.76,1.94,1.94,0,0,0-1.79,1.12v4.95a2,2,0,0,0,1.81,1.09,1.86,1.86,0,0,0,1.64-.76,4.15,4.15,0,0,0,.54-2.33Z" transform="translate(0)" fill="#4d4d4d"/>
          <path d="M77,199.55a3,3,0,0,1,2.4-1.15q2.67,0,2.7,3.37v6.32H80.44v-6.25a2.45,2.45,0,0,0-.4-1.59,1.47,1.47,0,0,0-1.19-.47,1.74,1.74,0,0,0-1.1.39,2.74,2.74,0,0,0-.78,1v6.91H75.32v-13.5H77Z" transform="translate(0)" fill="#4d4d4d"/>
          <path d="M84.18,202.89a4.79,4.79,0,0,1,1.06-3.28,3.91,3.91,0,0,1,5.63,0A4.7,4.7,0,0,1,92,202.79v1a4.75,4.75,0,0,1-1.06,3.27,3.94,3.94,0,0,1-5.63,0,4.67,4.67,0,0,1-1.09-3.16Zm1.64.9a3.91,3.91,0,0,0,.61,2.31,1.94,1.94,0,0,0,1.64.84c1.46,0,2.2-1,2.25-3v-1.08a3.83,3.83,0,0,0-.62-2.3,2,2,0,0,0-3.27,0,3.89,3.89,0,0,0-.61,2.29Z" transform="translate(0)" fill="#4d4d4d"/>
          <path d="M97.58,206.94a1.78,1.78,0,0,0,1.31-.48,2,2,0,0,0,.54-1.37H101a3.16,3.16,0,0,1-1,2.27,3.37,3.37,0,0,1-2.38.9,3.62,3.62,0,0,1-2.85-1.11,4.88,4.88,0,0,1-1-3.31v-1a4.87,4.87,0,0,1,1-3.28,3.59,3.59,0,0,1,2.84-1.12,3.33,3.33,0,0,1,2.46.92,3.69,3.69,0,0,1,1,2.53H99.43a2.47,2.47,0,0,0-.53-1.59,1.7,1.7,0,0,0-1.33-.52,1.9,1.9,0,0,0-1.62.68,3.69,3.69,0,0,0-.55,2.24v1.21a4,4,0,0,0,.52,2.37A2,2,0,0,0,97.58,206.94Z" transform="translate(0)" fill="#4d4d4d"/>
          <path d="M105.64,205.5l1.83-6.92h1.75l-3.29,10.85a4.14,4.14,0,0,1-1.05,1.86,2.18,2.18,0,0,1-1.55.64,3.53,3.53,0,0,1-.85-.14v-1.32l.36,0a1.72,1.72,0,0,0,1.12-.32,2.24,2.24,0,0,0,.66-1.11l.32-1.06-3-9.43h1.8Z" transform="translate(0)" fill="#4d4d4d"/>
          <path d="M113,196.27v2.31h1.52v1.25H113v5.91a1.52,1.52,0,0,0,.2.85.73.73,0,0,0,.67.29,2.25,2.25,0,0,0,.66-.1l0,1.31a4,4,0,0,1-1.14.17,1.76,1.76,0,0,1-1.49-.66,3,3,0,0,1-.52-1.86v-5.91h-1.53v-1.25h1.53v-2.31Z" transform="translate(0)" fill="#4d4d4d"/>
          <path d="M120.05,208.26a3.77,3.77,0,0,1-2.88-1.06,4.43,4.43,0,0,1-1-3.1V203a5.13,5.13,0,0,1,1-3.34,3.31,3.31,0,0,1,2.74-1.21,3.21,3.21,0,0,1,2.64,1.07,5.22,5.22,0,0,1,.89,3.31v1h-5.62V204a3.35,3.35,0,0,0,.61,2.22,2.23,2.23,0,0,0,1.76.7,3,3,0,0,0,1.28-.26,3.25,3.25,0,0,0,1-.83l.86,1A3.83,3.83,0,0,1,120.05,208.26Zm-.18-8.52a1.77,1.77,0,0,0-1.52.66,3.81,3.81,0,0,0-.56,2.06h4v-.21a3.51,3.51,0,0,0-.52-1.93A1.62,1.62,0,0,0,119.87,199.74Z" transform="translate(0)" fill="#4d4d4d"/>
          <path d="M130.27,205.65a1.11,1.11,0,0,0-.4-.86,6,6,0,0,0-1.55-.84,10.39,10.39,0,0,1-1.87-.89,2.68,2.68,0,0,1-.81-.84,2.21,2.21,0,0,1-.27-1.12,2.43,2.43,0,0,1,.89-1.93,3.44,3.44,0,0,1,2.3-.77,3.38,3.38,0,0,1,2.36.81,2.65,2.65,0,0,1,.89,2.07h-1.63a1.5,1.5,0,0,0-.46-1.09,1.58,1.58,0,0,0-1.16-.45,1.71,1.71,0,0,0-1.14.35,1.19,1.19,0,0,0-.42.95,1,1,0,0,0,.31.77,5.61,5.61,0,0,0,1.45.76,7.6,7.6,0,0,1,2.5,1.32,2.2,2.2,0,0,1,.66,1.64,2.46,2.46,0,0,1-.91,2,4.27,4.27,0,0,1-5-.11,2.72,2.72,0,0,1-1-2.16h1.65a1.67,1.67,0,0,0,.52,1.24,1.9,1.9,0,0,0,1.35.45,1.94,1.94,0,0,0,1.25-.35A1.13,1.13,0,0,0,130.27,205.65Z" transform="translate(0)" fill="#4d4d4d"/>
          <path d="M134.07,210.64l-1-.64a4.14,4.14,0,0,0,.91-2.37v-1.47h1.68v1.28a3.77,3.77,0,0,1-.46,1.77A4.13,4.13,0,0,1,134.07,210.64Z" transform="translate(0)" fill="#4d4d4d"/>
          <path d="M143.71,198.58l0,1a3,3,0,0,1,2.45-1.21q2.67,0,2.7,3.37v6.32h-1.63v-6.25a2.51,2.51,0,0,0-.4-1.59,1.47,1.47,0,0,0-1.19-.47,1.74,1.74,0,0,0-1.1.39,2.74,2.74,0,0,0-.78,1v6.91h-1.65v-9.51Z" transform="translate(0)" fill="#4d4d4d"/>
          <path d="M155.72,202.89a13.63,13.63,0,0,1,.66-4.33,11.29,11.29,0,0,1,1.87-3.56,6,6,0,0,1,1.41-1.35l.33,1.07a7.27,7.27,0,0,0-1.84,3,14.91,14.91,0,0,0-.78,4.53V203a15.18,15.18,0,0,0,.92,5.47,7.81,7.81,0,0,0,1.71,2.75l-.33,1a6.77,6.77,0,0,1-1.74-1.79A12.8,12.8,0,0,1,155.72,202.89Z" transform="translate(0)" fill="#4d4d4d"/>
          <path d="M161.49,197.75a2.76,2.76,0,0,1,.66-1.89,2.33,2.33,0,0,1,3.41,0,2.78,2.78,0,0,1,.67,1.95v.64a2.72,2.72,0,0,1-.66,1.89,2.16,2.16,0,0,1-1.7.74,2.23,2.23,0,0,1-1.71-.74,2.8,2.8,0,0,1-.67-1.94Zm1.2.67a1.89,1.89,0,0,0,.33,1.15,1,1,0,0,0,.85.43,1,1,0,0,0,.84-.43,2,2,0,0,0,.32-1.18v-.64a1.85,1.85,0,0,0-.33-1.15,1,1,0,0,0-1.69,0,2,2,0,0,0-.32,1.17Zm1.52,8.7-.9-.58,5.55-10,.91.58ZM167,205a2.72,2.72,0,0,1,.66-1.89,2.17,2.17,0,0,1,1.71-.75,2.23,2.23,0,0,1,1.71.74,2.79,2.79,0,0,1,.67,2v.63a2.68,2.68,0,0,1-.67,1.89,2.16,2.16,0,0,1-1.69.74,2.2,2.2,0,0,1-1.72-.74,2.8,2.8,0,0,1-.67-1.94Zm1.2.68a1.85,1.85,0,0,0,.33,1.15,1,1,0,0,0,.86.44,1,1,0,0,0,.83-.44,2,2,0,0,0,.32-1.18v-.66a1.84,1.84,0,0,0-.33-1.14,1,1,0,0,0-.84-.43,1,1,0,0,0-.84.42,1.9,1.9,0,0,0-.33,1.18Z" transform="translate(0)" fill="#4d4d4d"/>
          <path d="M177.33,203a13,13,0,0,1-1.86,6.94,7.21,7.21,0,0,1-2.09,2.3l-.32-1A7.41,7.41,0,0,0,175,208a15.52,15.52,0,0,0,.73-4.79v-.31a14.77,14.77,0,0,0-1.16-6,7.54,7.54,0,0,0-1.46-2.26l.32-1a6.78,6.78,0,0,1,2,2.13A13.11,13.11,0,0,1,177.33,203Z" transform="translate(0)" fill="#4d4d4d"/>
        </g>
        <g>
          <path d="M68.54,238.33,73.9,241v1.13l-6.44-3.33v-.87l6.44-3.32v1.13Z" transform="translate(0)" fill="#4d4d4d"/>
          <path d="M83.38,238.74a7.82,7.82,0,0,1-.89,4.13,3.15,3.15,0,0,1-5.23,0,7.51,7.51,0,0,1-.92-4V236.6a7.72,7.72,0,0,1,.89-4.08,2.88,2.88,0,0,1,2.62-1.41,2.92,2.92,0,0,1,2.6,1.36,7.37,7.37,0,0,1,.93,4Zm-1-2.29a6.93,6.93,0,0,0-.62-3.31,2.11,2.11,0,0,0-3.69,0,6.55,6.55,0,0,0-.66,3.17v2.59a7.14,7.14,0,0,0,.64,3.32,2,2,0,0,0,1.87,1.17,2,2,0,0,0,1.82-1.11,6.85,6.85,0,0,0,.64-3.26Z" transform="translate(0)" fill="#4d4d4d"/>
          <path d="M85.84,243.45a.75.75,0,0,1,.21-.54.78.78,0,0,1,.58-.21.82.82,0,0,1,.59.21.75.75,0,0,1,.21.54.69.69,0,0,1-.21.51.86.86,0,0,1-.59.2.82.82,0,0,1-.58-.2A.69.69,0,0,1,85.84,243.45Z" transform="translate(0)" fill="#4d4d4d"/>
          <path d="M97,234.59a3.22,3.22,0,0,1-.5,1.75,3.18,3.18,0,0,1-1.36,1.18,3.4,3.4,0,0,1,1.58,1.25,3.34,3.34,0,0,1,.57,1.92,3.49,3.49,0,0,1-1,2.6,4.06,4.06,0,0,1-5.27,0,3.47,3.47,0,0,1-1-2.6,3.35,3.35,0,0,1,.57-1.93,3.3,3.3,0,0,1,1.55-1.24,3.07,3.07,0,0,1-1.35-1.17,3.31,3.31,0,0,1-.49-1.76,3.5,3.5,0,0,1,.92-2.54,3.57,3.57,0,0,1,4.84,0A3.51,3.51,0,0,1,97,234.59Zm-.75,6.1a2.7,2.7,0,0,0-.73-1.95,2.47,2.47,0,0,0-1.86-.76,2.51,2.51,0,0,0-1.86.74,2.7,2.7,0,0,0-.73,2,2.66,2.66,0,0,0,.7,1.94,2.53,2.53,0,0,0,1.9.72,2.5,2.5,0,0,0,1.88-.72A2.64,2.64,0,0,0,96.27,240.69ZM96,234.58a2.66,2.66,0,0,0-.65-1.83,2.3,2.3,0,0,0-3.32,0,2.72,2.72,0,0,0-.62,1.85A2.53,2.53,0,0,0,92,236.4a2.38,2.38,0,0,0,3.31,0A2.49,2.49,0,0,0,96,234.58Z" transform="translate(0)" fill="#4d4d4d"/>
          <path d="M103.49,242.46l2.78-3.19-2.68-3.08.68-.72,2.65,3.05,2.67-3.05.67.72-2.68,3.08,2.78,3.19-.68.71L106.92,240l-2.75,3.15Z" transform="translate(0)" fill="#4d4d4d"/>
          <path d="M118.32,243.16h5.58v.93h-6.65v-12.8h1.07Z" transform="translate(0)" fill="#4d4d4d"/>
          <path d="M127.16,243.16h5.58v.93h-6.65v-12.8h1.07Z" transform="translate(0)" fill="#4d4d4d"/>
          <path d="M143.45,244.09h-1.06L136,233.19v10.9h-1.07v-12.8H136l6.4,10.92V231.29h1Z" transform="translate(0)" fill="#4d4d4d"/>
        </g>
        <g>
          <path d="M72.24,274.3l-5.48-2.64v-1.12l6.62,3.32v.87l-6.62,3.34V277Z" transform="translate(0)" fill="#4d4d4d"/>
          <path d="M79.93,280.09h-1V268.58l-3.06,1.29v-1l3.93-1.62h.17Z" transform="translate(0)" fill="#4d4d4d"/>
          <path d="M84.88,279.45a.75.75,0,0,1,.21-.54.8.8,0,0,1,.59-.21.79.79,0,0,1,.58.21.76.76,0,0,1,.22.54.7.7,0,0,1-.22.51.83.83,0,0,1-.58.2.84.84,0,0,1-.59-.2A.69.69,0,0,1,84.88,279.45Z" transform="translate(0)" fill="#4d4d4d"/>
          <path d="M96.51,280.09H89.32v-.84l3.85-4.9a11,11,0,0,0,1.35-2.09,3.73,3.73,0,0,0,.39-1.61,2.84,2.84,0,0,0-.61-1.91,2.09,2.09,0,0,0-1.69-.71,2.25,2.25,0,0,0-1.83.82A3.26,3.26,0,0,0,90.1,271h-1a4,4,0,0,1,1-2.77,3.26,3.26,0,0,1,2.56-1.1,3.3,3.3,0,0,1,2.44.91,3.41,3.41,0,0,1,.91,2.53,6.54,6.54,0,0,1-1.47,3.6l-.6.8-3.31,4.22h5.93Z" transform="translate(0)" fill="#4d4d4d"/>
          <path d="M102.53,278.46l2.79-3.19-2.68-3.08.68-.72,2.65,3,2.66-3,.67.72-2.68,3.08,2.78,3.19-.68.71L106,276l-2.76,3.15Z" transform="translate(0)" fill="#4d4d4d"/>
          <path d="M124.17,267.29v9.08a3.85,3.85,0,0,1-1.06,2.87,4.9,4.9,0,0,1-6,0,3.91,3.91,0,0,1-1-2.93v-9h1.06v9q0,3,3,3a2.63,2.63,0,0,0,3-2.94v-9.1Z" transform="translate(0)" fill="#4d4d4d"/>
          <path d="M128.23,279.16h5.59v.93h-6.66v-12.8h1.07Z" transform="translate(0)" fill="#4d4d4d"/>
          <path d="M144.52,280.09h-1.06l-6.39-10.9v10.9H136v-12.8h1.07l6.4,10.92V267.29h1.05Z" transform="translate(0)" fill="#4d4d4d"/>
        </g>
        <path d="M33.9,312.51H28.82l-1.15,3.58H26.56l4.32-12.8h1l4.31,12.8h-1.1Zm-4.77-.94H33.6l-2.24-6.86Zm15.42,1.37a2.2,2.2,0,0,0-.65-1.69,6.43,6.43,0,0,0-2.41-1.17,8,8,0,0,1-2.6-1.26,3.19,3.19,0,0,1,0-4.78,4,4,0,0,1,2.76-.93,3.87,3.87,0,0,1,2.83,1.08,3.68,3.68,0,0,1,1.1,2.76H44.5a2.9,2.9,0,0,0-.77-2.09,2.77,2.77,0,0,0-2.09-.8,2.91,2.91,0,0,0-2,.66,2.14,2.14,0,0,0-.74,1.69,2,2,0,0,0,.69,1.58,6.3,6.3,0,0,0,2.23,1.1,9.72,9.72,0,0,1,2.3,1,3.33,3.33,0,0,1,1.16,1.21,3.38,3.38,0,0,1,.37,1.63,3,3,0,0,1-1.07,2.42,4.21,4.21,0,0,1-2.85.92,5,5,0,0,1-2.17-.46A3.61,3.61,0,0,1,38,314.47a3.67,3.67,0,0,1-.56-2h1.06a2.72,2.72,0,0,0,.87,2.13,3.39,3.39,0,0,0,2.33.77,3.1,3.1,0,0,0,2.06-.65A2.14,2.14,0,0,0,44.55,312.94Zm11.24-8.7H51.94v11.85H50.87V304.24H47v-.95h8.77Zm11.14,6.06-5.48-2.64v-1.12l6.62,3.32v.87l-6.62,3.34V313Zm5.35-1.19h1a2.57,2.57,0,0,0,1.83-.68,2.38,2.38,0,0,0,.71-1.8,2.75,2.75,0,0,0-.61-1.92,2.17,2.17,0,0,0-1.71-.68,2.25,2.25,0,0,0-1.74.72,2.69,2.69,0,0,0-.67,1.9h-1a3.75,3.75,0,0,1,.43-1.81,3.17,3.17,0,0,1,1.23-1.26,3.51,3.51,0,0,1,1.78-.47,3.27,3.27,0,0,1,2.44.94,3.59,3.59,0,0,1,.91,2.62,3,3,0,0,1-.53,1.72,3.17,3.17,0,0,1-1.41,1.14,2.93,2.93,0,0,1,1.59,1.11,3.36,3.36,0,0,1,.55,2,3.66,3.66,0,0,1-1,2.66,3.43,3.43,0,0,1-2.56,1,3.88,3.88,0,0,1-1.86-.45,3.15,3.15,0,0,1-1.31-1.27,3.79,3.79,0,0,1-.46-1.92h1a2.74,2.74,0,0,0,.72,2,2.47,2.47,0,0,0,1.88.77,2.39,2.39,0,0,0,1.84-.7,2.84,2.84,0,0,0,.65-2,2.56,2.56,0,0,0-.7-1.94,2.94,2.94,0,0,0-2-.68h-1Zm7.3,6.34a.75.75,0,0,1,.21-.54.78.78,0,0,1,.58-.21.82.82,0,0,1,.59.21.75.75,0,0,1,.21.54A.69.69,0,0,1,81,316a.86.86,0,0,1-.59.2.82.82,0,0,1-.58-.2A.69.69,0,0,1,79.58,315.45Zm11.36-4.71a7.82,7.82,0,0,1-.89,4.13,3.15,3.15,0,0,1-5.23,0,7.51,7.51,0,0,1-.92-4V308.6a7.72,7.72,0,0,1,.89-4.08,2.88,2.88,0,0,1,2.62-1.41,2.92,2.92,0,0,1,2.6,1.36,7.37,7.37,0,0,1,.93,4Zm-1-2.29a6.93,6.93,0,0,0-.62-3.31,2.11,2.11,0,0,0-3.69,0,6.44,6.44,0,0,0-.65,3.17v2.59a7.15,7.15,0,0,0,.63,3.32,2,2,0,0,0,1.87,1.17,2,2,0,0,0,1.82-1.11,6.85,6.85,0,0,0,.64-3.26Zm7.35,6,2.78-3.19-2.68-3.08.68-.72,2.65,3,2.66-3,.67.72-2.68,3.08,2.78,3.19-.68.71L100.67,312l-2.76,3.15Zm21.64-11.17v9.08a3.85,3.85,0,0,1-1.06,2.87,4.9,4.9,0,0,1-6,0,3.87,3.87,0,0,1-1-2.93v-9h1.06v9q0,3,3,3a2.63,2.63,0,0,0,3-2.94v-9.1Zm4.06,11.87h5.58v.93h-6.65v-12.8h1.07Zm16.29.93h-1.06l-6.39-10.9v10.9h-1.07v-12.8h1.07l6.4,10.92V303.29h1Zm4.14-.59a3.75,3.75,0,0,1-1.31,3l-.66-.47a3.68,3.68,0,0,0,.88-2.23v-1.37h1.09v1.08Zm7.77-8.92,0,1.51a3.56,3.56,0,0,1,1.14-1.23,2.79,2.79,0,0,1,1.58-.46c1.76,0,2.65,1.11,2.7,3.32v6.37h-1v-6.27a3.07,3.07,0,0,0-.47-1.88,1.74,1.74,0,0,0-1.46-.61,2.16,2.16,0,0,0-1.46.58,3.62,3.62,0,0,0-1,1.58v6.6h-1v-9.51Zm12.35,4.34a14.73,14.73,0,0,1,.49-3.83,12.86,12.86,0,0,1,1.33-3.29,6.46,6.46,0,0,1,1.77-2.07l.24.74a5.94,5.94,0,0,0-1.41,1.92,12.85,12.85,0,0,0-1,3,17.12,17.12,0,0,0-.37,3.7,16,16,0,0,0,.37,3.5,13,13,0,0,0,1,3,6,6,0,0,0,1.41,1.95l-.24.7a5.64,5.64,0,0,1-1.28-1.3,9.51,9.51,0,0,1-1.17-2.08,14.72,14.72,0,0,1-.83-2.65A15.39,15.39,0,0,1,163.49,310.92Zm5.31-5.17a2.87,2.87,0,0,1,.63-1.89,2.11,2.11,0,0,1,3.23,0,2.91,2.91,0,0,1,.64,1.94v.63a2.8,2.8,0,0,1-.63,1.87,2,2,0,0,1-1.61.76,2,2,0,0,1-1.62-.75,2.88,2.88,0,0,1-.64-1.93Zm.82.68a2.18,2.18,0,0,0,.39,1.33,1.24,1.24,0,0,0,1.05.52,1.2,1.2,0,0,0,1-.53,2.3,2.3,0,0,0,.38-1.36v-.63a2.2,2.2,0,0,0-.39-1.33,1.29,1.29,0,0,0-2.08,0,2.26,2.26,0,0,0-.39,1.36Zm1.74,8.6-.62-.43,5.55-10,.64.43ZM174.5,313a2.9,2.9,0,0,1,.62-1.89,2,2,0,0,1,1.61-.75,2,2,0,0,1,1.62.75A2.85,2.85,0,0,1,179,313v.63a2.79,2.79,0,0,1-.64,1.89,2.11,2.11,0,0,1-3.21,0,2.86,2.86,0,0,1-.64-1.95Zm.81.69a2.2,2.2,0,0,0,.39,1.33,1.3,1.3,0,0,0,2.09,0,2.32,2.32,0,0,0,.38-1.38V313a2.22,2.22,0,0,0-.38-1.34,1.34,1.34,0,0,0-2.1,0,2.29,2.29,0,0,0-.38,1.39Zm7.24-9.59a14.24,14.24,0,0,1,1.68,7,15.67,15.67,0,0,1-.46,3.79,12.58,12.58,0,0,1-1.32,3.27,6.27,6.27,0,0,1-1.82,2.11l-.23-.7a6.32,6.32,0,0,0,1.63-2.4,15.43,15.43,0,0,0,1.16-6.23,16.4,16.4,0,0,0-.36-3.47,13.39,13.39,0,0,0-1-3,5.81,5.81,0,0,0-1.4-2l.23-.7a6.72,6.72,0,0,1,1.92,2.32Z" transform="translate(0)" fill="#4d4d4d"/>
        <path d="M35.7,348.51H30.62l-1.16,3.58H28.35l4.32-12.8h1L38,352.09H36.87Zm-4.78-.94h4.47l-2.23-6.86Zm10.13,3.59h5.58v.93H40v-12.8h1.07Zm13-10.92H50.16v11.85H49.09V340.24H45.25v-.95H54Zm11.14,6.06-5.48-2.64v-1.12l6.62,3.32v.87l-6.62,3.34V349Zm5.35-1.19h1a2.61,2.61,0,0,0,1.84-.68,2.41,2.41,0,0,0,.7-1.8,2.75,2.75,0,0,0-.61-1.92,2.17,2.17,0,0,0-1.71-.68,2.25,2.25,0,0,0-1.74.72,2.69,2.69,0,0,0-.67,1.9h-1a3.75,3.75,0,0,1,.43-1.81A3.17,3.17,0,0,1,70,339.58a3.51,3.51,0,0,1,1.78-.47,3.27,3.27,0,0,1,2.44.94,3.59,3.59,0,0,1,.91,2.62,3,3,0,0,1-.53,1.72,3.2,3.2,0,0,1-1.4,1.14,2.94,2.94,0,0,1,1.58,1.11,3.37,3.37,0,0,1,.56,2,3.67,3.67,0,0,1-1,2.66,3.43,3.43,0,0,1-2.56,1,3.88,3.88,0,0,1-1.86-.45,3.15,3.15,0,0,1-1.31-1.27,3.79,3.79,0,0,1-.46-1.92h1a2.74,2.74,0,0,0,.72,2,2.47,2.47,0,0,0,1.88.77,2.39,2.39,0,0,0,1.84-.7,2.84,2.84,0,0,0,.65-2,2.56,2.56,0,0,0-.7-1.94,2.94,2.94,0,0,0-2-.68h-1Zm7.3,6.34a.75.75,0,0,1,.21-.54.78.78,0,0,1,.58-.21.82.82,0,0,1,.59.21.75.75,0,0,1,.21.54.69.69,0,0,1-.21.51.86.86,0,0,1-.59.2A.82.82,0,0,1,78,352,.69.69,0,0,1,77.8,351.45Zm11.36-4.71a7.82,7.82,0,0,1-.89,4.13,3.15,3.15,0,0,1-5.23,0,7.51,7.51,0,0,1-.92-4V344.6a7.72,7.72,0,0,1,.89-4.08,2.89,2.89,0,0,1,2.62-1.41,2.92,2.92,0,0,1,2.6,1.36,7.37,7.37,0,0,1,.93,4Zm-1-2.29a7.07,7.07,0,0,0-.61-3.31A2,2,0,0,0,85.63,340a2,2,0,0,0-1.83,1.07,6.44,6.44,0,0,0-.65,3.17v2.59a7.15,7.15,0,0,0,.63,3.32,2,2,0,0,0,1.87,1.17,2,2,0,0,0,1.82-1.11,6.85,6.85,0,0,0,.64-3.26Zm7.35,6,2.78-3.19-2.68-3.08.68-.72,2.65,3,2.66-3,.67.72-2.68,3.08,2.78,3.19-.68.71L98.89,348l-2.75,3.15Zm21.64-11.17v9.08a3.85,3.85,0,0,1-1.06,2.87,4.9,4.9,0,0,1-6,0,3.91,3.91,0,0,1-1-2.93v-9h1.06v9q0,3,3,3a2.63,2.63,0,0,0,3-2.94v-9.1Zm4.06,11.87h5.58v.93h-6.65v-12.8h1.07Zm16.29.93h-1.06L130,341.19v10.9h-1.07v-12.8H130l6.4,10.92V339.29h1Zm4.14-.59a3.75,3.75,0,0,1-1.31,3l-.66-.47a3.68,3.68,0,0,0,.88-2.23v-1.37h1.09v1.08Zm7.77-8.92,0,1.51a3.56,3.56,0,0,1,1.14-1.23,2.79,2.79,0,0,1,1.58-.46q2.64,0,2.7,3.32v6.37h-1v-6.27a3.14,3.14,0,0,0-.48-1.88,1.74,1.74,0,0,0-1.46-.61,2.18,2.18,0,0,0-1.46.58,3.62,3.62,0,0,0-1,1.58v6.6h-1v-9.51Zm12.35,4.34a14.73,14.73,0,0,1,.49-3.83,13.23,13.23,0,0,1,1.33-3.29,6.46,6.46,0,0,1,1.77-2.07l.24.74a5.94,5.94,0,0,0-1.41,1.92,12.85,12.85,0,0,0-1,3,17.77,17.77,0,0,0-.37,3.7,16,16,0,0,0,.37,3.5,13,13,0,0,0,1,3,6,6,0,0,0,1.41,1.95l-.24.7a5.64,5.64,0,0,1-1.28-1.3,9.51,9.51,0,0,1-1.17-2.08,14.72,14.72,0,0,1-.83-2.65A15.39,15.39,0,0,1,161.71,346.92Zm5.31-5.17a2.87,2.87,0,0,1,.63-1.89,2.11,2.11,0,0,1,3.23,0,2.91,2.91,0,0,1,.64,1.94v.63a2.8,2.8,0,0,1-.63,1.87,2,2,0,0,1-1.61.76,2,2,0,0,1-1.61-.75,2.83,2.83,0,0,1-.65-1.93Zm.82.68a2.18,2.18,0,0,0,.39,1.33,1.24,1.24,0,0,0,1.05.52,1.2,1.2,0,0,0,1-.53,2.3,2.3,0,0,0,.38-1.36v-.63a2.2,2.2,0,0,0-.39-1.33,1.29,1.29,0,0,0-2.08,0,2.26,2.26,0,0,0-.39,1.36Zm1.74,8.6-.62-.43,5.55-10,.64.43Zm3.14-2.08a2.86,2.86,0,0,1,.63-1.89,2,2,0,0,1,1.6-.75,2,2,0,0,1,1.62.75,2.85,2.85,0,0,1,.64,1.95v.63a2.79,2.79,0,0,1-.64,1.89,2.11,2.11,0,0,1-3.21,0,2.86,2.86,0,0,1-.64-1.95Zm.81.69a2.2,2.2,0,0,0,.39,1.33,1.3,1.3,0,0,0,2.09,0,2.32,2.32,0,0,0,.38-1.38V349a2.22,2.22,0,0,0-.38-1.34,1.34,1.34,0,0,0-2.1,0,2.29,2.29,0,0,0-.38,1.39Zm7.24-9.59a14.24,14.24,0,0,1,1.68,7,15.67,15.67,0,0,1-.46,3.79,12.58,12.58,0,0,1-1.32,3.27,6.37,6.37,0,0,1-1.81,2.11l-.24-.7a6.32,6.32,0,0,0,1.63-2.4,15.43,15.43,0,0,0,1.16-6.23,16.4,16.4,0,0,0-.36-3.47,13.39,13.39,0,0,0-1-3,5.81,5.81,0,0,0-1.4-2l.24-.7a6.82,6.82,0,0,1,1.91,2.32Z" transform="translate(0)" fill="#4d4d4d"/>
        <g>
          <path d="M41.66,384.1a4.6,4.6,0,0,1-1.23,3.16,4.2,4.2,0,0,1-3,1,3.75,3.75,0,0,1-3.1-1.4,5.91,5.91,0,0,1-1.15-3.81v-2.78a5.68,5.68,0,0,1,1.16-3.78,3.92,3.92,0,0,1,3.17-1.38,4,4,0,0,1,2.94,1,4.8,4.8,0,0,1,1.19,3.16H40.58a4.05,4.05,0,0,0-.87-2.49,3.34,3.34,0,0,0-4.57.33,5,5,0,0,0-.86,3.14V383a5.34,5.34,0,0,0,.83,3.18,2.73,2.73,0,0,0,2.34,1.13,3,3,0,0,0,2.28-.75,3.94,3.94,0,0,0,.85-2.48Z" transform="translate(0)" fill="#4d4d4d"/>
          <path d="M45.12,380.07a3.79,3.79,0,0,1,1.13-1.22,2.8,2.8,0,0,1,1.57-.45q2.64,0,2.7,3.32v6.37h-1v-6.27a3.07,3.07,0,0,0-.47-1.88,1.74,1.74,0,0,0-1.46-.61,2.16,2.16,0,0,0-1.46.58,3.62,3.62,0,0,0-1,1.58v6.6h-1v-13.5h1Z" transform="translate(0)" fill="#4d4d4d"/>
          <path d="M52.86,382.85a4.93,4.93,0,0,1,1-3.25,3.64,3.64,0,0,1,5.38,0,4.88,4.88,0,0,1,1,3.24v1a4.88,4.88,0,0,1-1,3.26,3.66,3.66,0,0,1-5.34,0,4.82,4.82,0,0,1-1-3.15Zm1,1a4.23,4.23,0,0,0,.71,2.58,2.52,2.52,0,0,0,3.9,0,4.32,4.32,0,0,0,.68-2.59v-1a4.23,4.23,0,0,0-.71-2.58,2.46,2.46,0,0,0-3.85,0,4.2,4.2,0,0,0-.73,2.53Z" transform="translate(0)" fill="#4d4d4d"/>
          <path d="M63.76,388.09h-1v-13.5h1Z" transform="translate(0)" fill="#4d4d4d"/>
          <path d="M69.94,388.26a3.57,3.57,0,0,1-2.79-1.1,4.5,4.5,0,0,1-1-3.12v-1.16a5.06,5.06,0,0,1,1-3.29,3.24,3.24,0,0,1,2.66-1.19,3.13,3.13,0,0,1,2.5,1,4.85,4.85,0,0,1,.88,3.1v.91h-6V384a3.84,3.84,0,0,0,.74,2.52,2.59,2.59,0,0,0,2.09.89,3.09,3.09,0,0,0,2.41-1l.54.65A3.54,3.54,0,0,1,69.94,388.26Zm-.18-8.94a2.26,2.26,0,0,0-1.87.81,4,4,0,0,0-.73,2.38H72.1v-.26C72.05,380.29,71.27,379.32,69.76,379.32Z" transform="translate(0)" fill="#4d4d4d"/>
          <path d="M80.37,385.74a1.37,1.37,0,0,0-.54-1.07,7.52,7.52,0,0,0-1.83-1,10.26,10.26,0,0,1-1.8-.91,2.59,2.59,0,0,1-.76-.8,2,2,0,0,1-.24-1,2.28,2.28,0,0,1,.84-1.81,3.21,3.21,0,0,1,2.17-.72,3.32,3.32,0,0,1,2.29.77,2.57,2.57,0,0,1,.85,2h-1a1.73,1.73,0,0,0-.59-1.34,2.15,2.15,0,0,0-1.52-.53,2.18,2.18,0,0,0-1.45.44,1.38,1.38,0,0,0-.53,1.14,1.16,1.16,0,0,0,.41.93,8.22,8.22,0,0,0,1.76,1,11.4,11.4,0,0,1,1.94,1,2.75,2.75,0,0,1,.8.84,2.14,2.14,0,0,1,.27,1.1,2.27,2.27,0,0,1-.87,1.87,3.52,3.52,0,0,1-2.28.69,3.62,3.62,0,0,1-2.42-.77,2.48,2.48,0,0,1-.93-2h1a1.83,1.83,0,0,0,.62,1.37,2.53,2.53,0,0,0,1.68.49,2.48,2.48,0,0,0,1.53-.44A1.4,1.4,0,0,0,80.37,385.74Z" transform="translate(0)" fill="#4d4d4d"/>
          <path d="M85.39,376.15v2.43h1.72v.88H85.39v6.32a2.1,2.1,0,0,0,.25,1.16.89.89,0,0,0,.82.38,4.37,4.37,0,0,0,.74-.09l0,.88a2.65,2.65,0,0,1-1,.15c-1.21,0-1.83-.78-1.86-2.35v-6.45H82.8v-.88h1.56v-2.43Z" transform="translate(0)" fill="#4d4d4d"/>
          <path d="M92.68,388.26a3.56,3.56,0,0,1-2.78-1.1,4.5,4.5,0,0,1-1-3.12v-1.16a5.06,5.06,0,0,1,1-3.29,3.24,3.24,0,0,1,2.66-1.19,3.13,3.13,0,0,1,2.5,1,4.85,4.85,0,0,1,.88,3.1v.91h-6V384a3.84,3.84,0,0,0,.74,2.52,2.59,2.59,0,0,0,2.09.89,3.1,3.1,0,0,0,2.41-1l.54.65A3.56,3.56,0,0,1,92.68,388.26Zm-.17-8.94a2.28,2.28,0,0,0-1.88.81,4.08,4.08,0,0,0-.72,2.38h4.94v-.26C94.8,380.29,94,379.32,92.51,379.32Z" transform="translate(0)" fill="#4d4d4d"/>
          <path d="M102,379.49a4.24,4.24,0,0,0-.66-.06,2,2,0,0,0-1.43.55,3.1,3.1,0,0,0-.83,1.54v6.57h-1v-9.51h1V380a2.42,2.42,0,0,1,2.31-1.6,1.28,1.28,0,0,1,.62.12Z" transform="translate(0)" fill="#4d4d4d"/>
          <path d="M103.28,382.85a5,5,0,0,1,1-3.25,3.65,3.65,0,0,1,5.39,0,5,5,0,0,1,1,3.24v1a4.88,4.88,0,0,1-1,3.26,3.68,3.68,0,0,1-5.35,0,4.76,4.76,0,0,1-1-3.15Zm1,1a4.23,4.23,0,0,0,.7,2.58,2.52,2.52,0,0,0,3.9,0,4.25,4.25,0,0,0,.68-2.59v-1a4.23,4.23,0,0,0-.7-2.58,2.29,2.29,0,0,0-2-.94,2.25,2.25,0,0,0-1.9.92,4.07,4.07,0,0,0-.73,2.53Z" transform="translate(0)" fill="#4d4d4d"/>
          <path d="M114.17,388.09h-1v-13.5h1Z" transform="translate(0)" fill="#4d4d4d"/>
          <path d="M121.2,382.92a14.73,14.73,0,0,1,.49-3.83A12.51,12.51,0,0,1,123,375.8a6.35,6.35,0,0,1,1.77-2.07l.24.74a5.69,5.69,0,0,0-1.41,1.92,12.4,12.4,0,0,0-1,3,17.12,17.12,0,0,0-.37,3.7,16.69,16.69,0,0,0,.36,3.5,12.58,12.58,0,0,0,1,3,5.88,5.88,0,0,0,1.41,1.95l-.24.7a5.64,5.64,0,0,1-1.28-1.3,9.51,9.51,0,0,1-1.17-2.08,14,14,0,0,1-.83-2.65A15.39,15.39,0,0,1,121.2,382.92Z" transform="translate(0)" fill="#4d4d4d"/>
          <path d="M127.8,378.58l0,1.42a3,3,0,0,1,2.7-1.6,2.38,2.38,0,0,1,2.51,1.75,3.32,3.32,0,0,1,1.23-1.31,3.16,3.16,0,0,1,1.63-.44q2.72,0,2.78,3.31v6.38h-1v-6.32a3.1,3.1,0,0,0-.49-1.83,1.79,1.79,0,0,0-1.52-.61A2.21,2.21,0,0,0,134,380a2.79,2.79,0,0,0-.76,1.72v6.33h-1v-6.3a2.88,2.88,0,0,0-.49-1.85,1.84,1.84,0,0,0-1.52-.61,2.12,2.12,0,0,0-1.46.56,3.13,3.13,0,0,0-.9,1.58v6.62h-1v-9.51Z" transform="translate(0)" fill="#4d4d4d"/>
          <path d="M141,382.89a5.75,5.75,0,0,1,.82-3.37,2.88,2.88,0,0,1,2.46-1.12,2.79,2.79,0,0,1,2.59,1.5l.05-1.32h1v9.78A3.71,3.71,0,0,1,147,391a3.31,3.31,0,0,1-2.51.9,4,4,0,0,1-1.67-.39,3.41,3.41,0,0,1-1.28-.94l.49-.71a3.15,3.15,0,0,0,2.39,1.12,2.36,2.36,0,0,0,1.83-.63,2.84,2.84,0,0,0,.58-1.92V386.9a3.13,3.13,0,0,1-5,.25,5.45,5.45,0,0,1-.87-3.23Zm1.05.89a4.86,4.86,0,0,0,.58,2.69,2.08,2.08,0,0,0,1.84.86,2.41,2.41,0,0,0,2.37-1.5V381a2.41,2.41,0,0,0-2.35-1.63,2.11,2.11,0,0,0-1.85.85,4.73,4.73,0,0,0-.59,2.64Z" transform="translate(0)" fill="#4d4d4d"/>
          <path d="M150.6,389.19h-.93l4.75-13.9h.92Z" transform="translate(0)" fill="#4d4d4d"/>
          <path d="M157.05,382.89a5.66,5.66,0,0,1,.82-3.36,2.88,2.88,0,0,1,2.46-1.13,2.79,2.79,0,0,1,2.56,1.45v-5.26h1v13.5h-1l0-1.22a3.12,3.12,0,0,1-5,.25,5.46,5.46,0,0,1-.85-3.24Zm1,.89a4.86,4.86,0,0,0,.58,2.69,2.08,2.08,0,0,0,1.85.86,2.47,2.47,0,0,0,2.36-1.47v-4.93a2.41,2.41,0,0,0-2.35-1.59,2.09,2.09,0,0,0-1.85.85,4.73,4.73,0,0,0-.59,2.64Z" transform="translate(0)" fill="#4d4d4d"/>
          <path d="M168,387.16h5.58v.93h-6.65v-12.8H168Z" transform="translate(0)" fill="#4d4d4d"/>
          <path d="M178.46,383.05a15.19,15.19,0,0,1-.47,3.79,12.23,12.23,0,0,1-1.31,3.27,6.38,6.38,0,0,1-1.82,2.11l-.23-.7a6.32,6.32,0,0,0,1.63-2.4,15.6,15.6,0,0,0,1.16-6.23,16.4,16.4,0,0,0-.36-3.47,13.39,13.39,0,0,0-1-3,5.84,5.84,0,0,0-1.4-2l.23-.7a6.72,6.72,0,0,1,1.92,2.32A14.24,14.24,0,0,1,178.46,383.05Z" transform="translate(0)" fill="#4d4d4d"/>
        </g>
        <path d="M49.87,418.3l-5.48-2.64v-1.12L51,417.86v.87l-6.62,3.34V421Zm7.7,5.79h-1V412.58l-3.06,1.29v-1l3.93-1.62h.17Zm5-.64a.75.75,0,0,1,.21-.54.91.91,0,0,1,1.16,0,.72.72,0,0,1,.22.54.67.67,0,0,1-.22.51.94.94,0,0,1-1.16,0A.69.69,0,0,1,62.52,423.45ZM69,417.11h1a2.61,2.61,0,0,0,1.84-.68,2.41,2.41,0,0,0,.7-1.8,2.75,2.75,0,0,0-.61-1.92,2.17,2.17,0,0,0-1.71-.68,2.25,2.25,0,0,0-1.74.72,2.69,2.69,0,0,0-.67,1.9h-1a3.75,3.75,0,0,1,.43-1.81,3.17,3.17,0,0,1,1.23-1.26,3.51,3.51,0,0,1,1.78-.47,3.27,3.27,0,0,1,2.44.94,3.59,3.59,0,0,1,.91,2.62,3,3,0,0,1-.52,1.72,3.28,3.28,0,0,1-1.41,1.14,2.9,2.9,0,0,1,1.58,1.11,3.37,3.37,0,0,1,.56,2,3.67,3.67,0,0,1-1,2.66,3.43,3.43,0,0,1-2.56,1,3.88,3.88,0,0,1-1.86-.45,3.15,3.15,0,0,1-1.31-1.27,3.79,3.79,0,0,1-.46-1.92h1a2.74,2.74,0,0,0,.72,2,2.49,2.49,0,0,0,1.88.77,2.39,2.39,0,0,0,1.84-.7,2.84,2.84,0,0,0,.65-2,2.56,2.56,0,0,0-.7-1.94,2.94,2.94,0,0,0-2-.68H69Zm11.14,5.35L83,419.27l-2.68-3.08.68-.72,2.66,3,2.66-3,.67.72-2.68,3.08L87,422.46l-.68.71L83.61,420l-2.76,3.15Zm21.64-11.17v9.08a3.84,3.84,0,0,1-1,2.87,4.92,4.92,0,0,1-6,0,3.9,3.9,0,0,1-1-2.93v-9h1.06v9c0,2,1,3,3,3a2.62,2.62,0,0,0,3-2.94v-9.1Zm4.06,11.87h5.59v.93H104.8v-12.8h1.07Zm16.3.93h-1.06l-6.4-10.9v10.9h-1.07v-12.8h1.07l6.41,10.92V411.29h1Zm4.13-.59a3.74,3.74,0,0,1-1.3,3l-.66-.47a3.67,3.67,0,0,0,.87-2.23v-1.37h1.09v1.08Zm7.77-8.92,0,1.51a3.56,3.56,0,0,1,1.14-1.23,2.76,2.76,0,0,1,1.58-.46q2.63,0,2.69,3.32v6.37h-1v-6.27a3.07,3.07,0,0,0-.47-1.88,1.74,1.74,0,0,0-1.46-.61,2.16,2.16,0,0,0-1.46.58,3.53,3.53,0,0,0-1,1.58v6.6h-1v-9.51Zm12.36,4.34a14.73,14.73,0,0,1,.49-3.83,12.51,12.51,0,0,1,1.33-3.29,6.46,6.46,0,0,1,1.77-2.07l.24.74a5.8,5.8,0,0,0-1.41,1.92,12.4,12.4,0,0,0-1,3,17.12,17.12,0,0,0-.37,3.7,16.69,16.69,0,0,0,.36,3.5,12.58,12.58,0,0,0,1,3,5.88,5.88,0,0,0,1.41,1.95l-.24.7a5.87,5.87,0,0,1-1.29-1.3,9.93,9.93,0,0,1-1.16-2.08,14,14,0,0,1-.83-2.65A15.39,15.39,0,0,1,146.43,418.92Zm5.31-5.17a2.87,2.87,0,0,1,.63-1.89,2,2,0,0,1,1.61-.75,2,2,0,0,1,1.62.75,2.9,2.9,0,0,1,.63,1.94v.63a2.85,2.85,0,0,1-.62,1.87,2,2,0,0,1-1.61.76,2,2,0,0,1-1.62-.75,2.83,2.83,0,0,1-.64-1.93Zm.82.68a2.18,2.18,0,0,0,.39,1.33,1.24,1.24,0,0,0,1.05.52,1.19,1.19,0,0,0,1-.53,2.23,2.23,0,0,0,.38-1.36v-.63a2.2,2.2,0,0,0-.38-1.33,1.3,1.3,0,0,0-2.09,0,2.32,2.32,0,0,0-.38,1.36Zm1.74,8.6-.63-.43,5.56-10,.63.43Zm3.13-2.08a2.86,2.86,0,0,1,.63-1.89,2,2,0,0,1,1.61-.75,2,2,0,0,1,1.62.75,2.9,2.9,0,0,1,.64,1.95v.63a2.84,2.84,0,0,1-.64,1.89,2.06,2.06,0,0,1-1.61.74,2,2,0,0,1-1.6-.74,2.87,2.87,0,0,1-.65-1.95Zm.81.69a2.2,2.2,0,0,0,.39,1.33,1.25,1.25,0,0,0,1.05.53,1.23,1.23,0,0,0,1-.53,2.26,2.26,0,0,0,.39-1.38V421a2.15,2.15,0,0,0-.39-1.34,1.25,1.25,0,0,0-1.05-.51,1.24,1.24,0,0,0-1,.51,2.23,2.23,0,0,0-.39,1.39Zm7.25-9.59a14.35,14.35,0,0,1,1.67,7,15.19,15.19,0,0,1-.46,3.79,12.56,12.56,0,0,1-1.31,3.27,6.38,6.38,0,0,1-1.82,2.11l-.23-.7a6.32,6.32,0,0,0,1.63-2.4,15.6,15.6,0,0,0,1.16-6.23,15.77,15.77,0,0,0-.37-3.47,12.91,12.91,0,0,0-1-3,6.09,6.09,0,0,0-1.4-2l.23-.7a6.72,6.72,0,0,1,1.92,2.32Z" transform="translate(0)" fill="#4d4d4d"/>
        <g>
          <path d="M240.8,22.84a6,6,0,0,1-1.22,4,4.2,4.2,0,0,1-3.38,1.42,4.26,4.26,0,0,1-3.38-1.41,5.86,5.86,0,0,1-1.25-4V20.71a6.29,6.29,0,0,1,1.22-4.11,4.63,4.63,0,0,1,6.76,0,6.19,6.19,0,0,1,1.25,4.08Zm-2.59-2.14a5.35,5.35,0,0,0-.49-2.58,1.82,1.82,0,0,0-3.05,0,5,5,0,0,0-.51,2.47v2.28a4.75,4.75,0,0,0,.5,2.48,1.69,1.69,0,0,0,1.54.79,1.66,1.66,0,0,0,1.51-.78,4.79,4.79,0,0,0,.5-2.41Z" transform="translate(0)" fill="#fff"/>
          <path d="M245.24,25.94h4.53v2.15h-7.12V15.29h2.59Z" transform="translate(0)" fill="#fff"/>
          <path d="M251.88,31.31l-1.32-.69.33-.62a4.47,4.47,0,0,0,.58-2.1v-2h2.16v1.76a4.63,4.63,0,0,1-.47,1.94A4.83,4.83,0,0,1,251.88,31.31Z" transform="translate(0)" fill="#fff"/>
          <path d="M265.12,28.09h-2.5V18.31l-2.43,1V17.18l4.67-1.91h.26Z" transform="translate(0)" fill="#fff"/>
          <path d="M275.92,18.69a3.41,3.41,0,0,1-.39,1.65,3.12,3.12,0,0,1-1.09,1.16,3.33,3.33,0,0,1,1.24,1.23,3.58,3.58,0,0,1,.46,1.85,3.81,3.81,0,0,1-6.36,2.7,3.61,3.61,0,0,1-1-2.7,3.65,3.65,0,0,1,.45-1.85,3.24,3.24,0,0,1,1.26-1.23,3,3,0,0,1-1.1-1.16,3.41,3.41,0,0,1-.39-1.65,3.57,3.57,0,0,1,.94-2.63,3.85,3.85,0,0,1,5.05,0A3.62,3.62,0,0,1,275.92,18.69Zm-3.44,7.51a1,1,0,0,0,.86-.48,2.5,2.5,0,0,0,.3-1.33,2.44,2.44,0,0,0-.31-1.34,1,1,0,0,0-.87-.48,1,1,0,0,0-.88.48,2.44,2.44,0,0,0-.32,1.34,2.4,2.4,0,0,0,.32,1.33A1,1,0,0,0,272.48,26.2Zm1-7.38a2.54,2.54,0,0,0-.24-1.19.79.79,0,0,0-.74-.45.78.78,0,0,0-.72.44,2.38,2.38,0,0,0-.25,1.2,2.52,2.52,0,0,0,.25,1.22.82.82,0,0,0,1.47,0A2.79,2.79,0,0,0,273.44,18.82Z" transform="translate(0)" fill="#fff"/>
          <path d="M290.51,23.33l1.21-8h2.56L292,28.09h-2.6l-1.49-7.54-1.48,7.54h-2.6l-2.28-12.8h2.57l1.2,8,1.51-8H289Z" transform="translate(0)" fill="#fff"/>
          <path d="M298.71,24.42l-.67.75v2.92h-2.48V14.59H298v7.29l.31-.45,1.72-2.85h3l-2.76,3.92,3,5.59h-2.85Z" transform="translate(0)" fill="#fff"/>
        </g>
        <g>
          <path d="M236.44,52.67h-3.37V64.09h-1.61V52.67H228.1V51.29h8.34Z" transform="translate(0)" fill="#4d4d4d"/>
          <path d="M236.92,58.89a5,5,0,0,1,1-3.28,3.31,3.31,0,0,1,2.66-1.21,3.35,3.35,0,0,1,2.66,1.18,4.85,4.85,0,0,1,1,3.21v1a4.93,4.93,0,0,1-1,3.27,3.58,3.58,0,0,1-5.32,0,4.78,4.78,0,0,1-1-3.16Zm1.55.9a4,4,0,0,0,.58,2.31,1.78,1.78,0,0,0,1.55.84c1.37,0,2.08-1,2.12-3V58.89a4.05,4.05,0,0,0-.58-2.3,1.8,1.8,0,0,0-1.56-.85,1.75,1.75,0,0,0-1.53.85,4,4,0,0,0-.58,2.3Z" transform="translate(0)" fill="#4d4d4d"/>
          <path d="M247,64.09V55.84h-1.24V54.58H247v-1.1a3.44,3.44,0,0,1,.74-2.26,2.49,2.49,0,0,1,2-.82,3.13,3.13,0,0,1,.94.15l-.08,1.31a3.22,3.22,0,0,0-.71-.08c-.89,0-1.33.64-1.33,1.9v.9h1.62v1.26h-1.62v8.25Z" transform="translate(0)" fill="#4d4d4d"/>
          <path d="M256.87,64.09a3.25,3.25,0,0,1-.2-1,2.47,2.47,0,0,1-2.11,1.21,2.74,2.74,0,0,1-2-.72,2.78,2.78,0,0,1-.73-2,2.9,2.9,0,0,1,1-2.31,4,4,0,0,1,2.7-.87h1.14v-1a1.62,1.62,0,0,0-.38-1.21,1.6,1.6,0,0,0-1.15-.36,1.57,1.57,0,0,0-1.14.42,1.39,1.39,0,0,0-.44,1.06H252a2.58,2.58,0,0,1,.43-1.4,3.07,3.07,0,0,1,1.16-1,3.53,3.53,0,0,1,1.63-.38,3.08,3.08,0,0,1,2.22.73,2.81,2.81,0,0,1,.78,2.11V62a5.51,5.51,0,0,0,.3,1.91v.14Zm-2.08-1.24a2,2,0,0,0,1.09-.32,1.92,1.92,0,0,0,.76-.79V59.47h-.88A3,3,0,0,0,254,60a1.58,1.58,0,0,0-.64,1.34,1.7,1.7,0,0,0,.33,1.17A1.37,1.37,0,0,0,254.79,62.85Z" transform="translate(0)" fill="#4d4d4d"/>
          <path d="M263.9,62.94a1.64,1.64,0,0,0,1.24-.48,2.05,2.05,0,0,0,.51-1.37h1.47a3.25,3.25,0,0,1-1,2.27,3.12,3.12,0,0,1-2.25.9,3.29,3.29,0,0,1-2.69-1.11,5,5,0,0,1-.93-3.31v-1a5.09,5.09,0,0,1,.92-3.28,3.31,3.31,0,0,1,2.69-1.12,3,3,0,0,1,2.32.93,3.76,3.76,0,0,1,.91,2.52h-1.47a2.6,2.6,0,0,0-.51-1.58,1.54,1.54,0,0,0-1.25-.53,1.81,1.81,0,0,0-1.54.68,4,4,0,0,0-.52,2.24v1.21a4.21,4.21,0,0,0,.5,2.37A1.78,1.78,0,0,0,263.9,62.94Z" transform="translate(0)" fill="#4d4d4d"/>
          <path d="M270.71,52.06a1,1,0,0,1-.22.66,1,1,0,0,1-1.33,0,1.12,1.12,0,0,1,0-1.33,1,1,0,0,1,1.33,0A1,1,0,0,1,270.71,52.06Zm-.12,12H269V54.58h1.56Z" transform="translate(0)" fill="#4d4d4d"/>
          <path d="M275.07,52.28v2.3h1.43v1.26h-1.43v5.9a1.51,1.51,0,0,0,.19.85.67.67,0,0,0,.63.29,2,2,0,0,0,.62-.1l0,1.31a3.3,3.3,0,0,1-1.08.17,1.63,1.63,0,0,1-1.4-.66,3,3,0,0,1-.49-1.86v-5.9h-1.45V54.58h1.45v-2.3Z" transform="translate(0)" fill="#4d4d4d"/>
          <path d="M280.15,52.06a1,1,0,0,1-.22.66,1,1,0,0,1-1.33,0,1.12,1.12,0,0,1,0-1.33,1,1,0,0,1,1.33,0A1,1,0,0,1,280.15,52.06Zm-.12,12h-1.56V54.58H280Z" transform="translate(0)" fill="#4d4d4d"/>
          <path d="M283.94,54.58l0,1a2.78,2.78,0,0,1,2.31-1.21c1.69,0,2.54,1.12,2.56,3.37v6.32h-1.54V57.84a2.59,2.59,0,0,0-.38-1.59,1.35,1.35,0,0,0-1.12-.47,1.57,1.57,0,0,0-1,.39,2.66,2.66,0,0,0-.74,1v6.91h-1.56V54.58Z" transform="translate(0)" fill="#4d4d4d"/>
          <path d="M293,52.06a1,1,0,0,1-.22.66.82.82,0,0,1-.66.26.81.81,0,0,1-.66-.26,1.12,1.12,0,0,1,0-1.33.78.78,0,0,1,.66-.27.81.81,0,0,1,.66.27A1,1,0,0,1,293,52.06Zm-.12,12H291.3V54.58h1.56Z" transform="translate(0)" fill="#4d4d4d"/>
          <path d="M302.19,59.79a5.73,5.73,0,0,1-.8,3.35,2.65,2.65,0,0,1-2.32,1.12,2.45,2.45,0,0,1-2.26-1.3l-.08,1.13h-1.42V50.59h1.55v5a2.45,2.45,0,0,1,2.2-1.22,2.67,2.67,0,0,1,2.34,1.11,5.81,5.81,0,0,1,.79,3.34Zm-1.54-.89a4.59,4.59,0,0,0-.47-2.4,1.71,1.71,0,0,0-1.53-.72,1.91,1.91,0,0,0-1.79,1.3V61.6a1.9,1.9,0,0,0,1.81,1.28,1.63,1.63,0,0,0,1.51-.73,4.5,4.5,0,0,0,.47-2.29Z" transform="translate(0)" fill="#4d4d4d"/>
        </g>
        <path d="M305.09,58.09a1.72,1.72,0,0,1-.12-.6,1.44,1.44,0,0,1-1.23.71,1.59,1.59,0,0,1-1.18-.43,1.61,1.61,0,0,1-.42-1.19,1.69,1.69,0,0,1,.57-1.34,2.41,2.41,0,0,1,1.58-.51H305v-.59a.92.92,0,0,0-.22-.7,1.1,1.1,0,0,0-1.33,0,.82.82,0,0,0-.26.62h-.91a1.54,1.54,0,0,1,.25-.82,1.79,1.79,0,0,1,.68-.6,2,2,0,0,1,.95-.22,1.79,1.79,0,0,1,1.29.42,1.6,1.6,0,0,1,.45,1.23v2.8A3.58,3.58,0,0,0,306,58v.08Zm-1.21-.72a1.23,1.23,0,0,0,1.07-.64V55.4h-.51a1.79,1.79,0,0,0-1,.29.92.92,0,0,0-.37.78,1,1,0,0,0,.19.69A.82.82,0,0,0,303.88,57.37Z" transform="translate(0)" fill="#4d4d4d"/>
        <g>
          <path d="M235.85,94.89a14.86,14.86,0,0,1,.62-4.33A11.75,11.75,0,0,1,238.24,87a5.87,5.87,0,0,1,1.33-1.35l.31,1.07a7.38,7.38,0,0,0-1.73,3,15.44,15.44,0,0,0-.74,4.52V95a15.9,15.9,0,0,0,.87,5.47,7.83,7.83,0,0,0,1.61,2.76l-.31,1a6.62,6.62,0,0,1-1.64-1.79A13.34,13.34,0,0,1,235.85,94.89Z" transform="translate(0)" fill="#4d4d4d"/>
          <path d="M250.1,100.09h-1.61l-5.13-9.86v9.86h-1.61V87.29h1.61l5.14,9.91V87.29h1.6Z" transform="translate(0)" fill="#4d4d4d"/>
          <path d="M263.09,92.93h-6.16V91.52h6.16Zm0,3.65h-6.16v-1.4h6.16Z" transform="translate(0)" fill="#4d4d4d"/>
          <path d="M276.56,100.09H269.4V98.92l3.65-4.83a11.28,11.28,0,0,0,1.15-1.84,3.69,3.69,0,0,0,.32-1.51,2.76,2.76,0,0,0-.47-1.66,1.5,1.5,0,0,0-1.25-.63,1.83,1.83,0,0,0-1.51.67,3,3,0,0,0-.53,1.94H269.2a4.09,4.09,0,0,1,1-2.85,3.32,3.32,0,0,1,2.63-1.09,3.16,3.16,0,0,1,2.41.93,3.53,3.53,0,0,1,.87,2.49,7.83,7.83,0,0,1-2,4.49l-2.85,3.73h5.3Z" transform="translate(0)" fill="#4d4d4d"/>
          <path d="M285.44,100.09h-7.15V98.92l3.65-4.83a10.45,10.45,0,0,0,1.14-1.84,3.54,3.54,0,0,0,.33-1.51,2.7,2.7,0,0,0-.48-1.66,1.49,1.49,0,0,0-1.25-.63,1.81,1.81,0,0,0-1.5.67,3,3,0,0,0-.54,1.94h-1.55a4.09,4.09,0,0,1,1-2.85,3.31,3.31,0,0,1,2.62-1.09,3.15,3.15,0,0,1,2.41.93,3.49,3.49,0,0,1,.88,2.49A7.86,7.86,0,0,1,283,95l-2.85,3.73h5.3Z" transform="translate(0)" fill="#4d4d4d"/>
          <path d="M287.81,93.67l.55-6.38h5.57v1.5h-4.26l-.3,3.49a2.92,2.92,0,0,1,1.71-.55,2.78,2.78,0,0,1,2.35,1.16,5.2,5.2,0,0,1,.85,3.12,4.8,4.8,0,0,1-.93,3.12,3.41,3.41,0,0,1-4.89.19,4.09,4.09,0,0,1-1-2.6h1.46a3,3,0,0,0,.63,1.66,1.66,1.66,0,0,0,1.3.56,1.61,1.61,0,0,0,1.41-.79,3.84,3.84,0,0,0,.51-2.12,3.5,3.5,0,0,0-.55-2,1.71,1.71,0,0,0-1.48-.79,1.81,1.81,0,0,0-1.24.4l-.41.42Z" transform="translate(0)" fill="#4d4d4d"/>
          <path d="M299.54,95a13.46,13.46,0,0,1-1.76,6.94,7,7,0,0,1-2,2.3l-.31-1a7.54,7.54,0,0,0,1.78-3.25,16.49,16.49,0,0,0,.7-4.79v-.31a15.47,15.47,0,0,0-1.1-6,7.82,7.82,0,0,0-1.38-2.26l.31-1a6.83,6.83,0,0,1,1.87,2.13A13.68,13.68,0,0,1,299.54,95Z" transform="translate(0)" fill="#4d4d4d"/>
        </g>
        <g>
          <path d="M249.79,172.09h-1V160.58l-2.89,1.3v-1l3.71-1.62h.17Z" transform="translate(0)" fill="#4d4d4d"/>
          <path d="M258.43,166.92a15.63,15.63,0,0,1,.46-3.83,13.57,13.57,0,0,1,1.25-3.29,6.18,6.18,0,0,1,1.68-2.06l.23.73a6,6,0,0,0-1.34,1.92,13.55,13.55,0,0,0-.95,3,18.53,18.53,0,0,0-.35,3.7,17.39,17.39,0,0,0,.34,3.5,13.54,13.54,0,0,0,1,3,5.86,5.86,0,0,0,1.34,2l-.23.7a5.51,5.51,0,0,1-1.21-1.3,10.36,10.36,0,0,1-1.11-2.08,15.61,15.61,0,0,1-.78-2.65A16.16,16.16,0,0,1,258.43,166.92Z" transform="translate(0)" fill="#4d4d4d"/>
          <path d="M270.17,166.74a8.17,8.17,0,0,1-.84,4.13,2.89,2.89,0,0,1-4.94,0,7.94,7.94,0,0,1-.87-4V164.6a8.06,8.06,0,0,1,.84-4.08,2.91,2.91,0,0,1,4.94-.05,7.8,7.8,0,0,1,.87,4Zm-1-2.28a7.4,7.4,0,0,0-.58-3.32,1.94,1.94,0,0,0-3.49,0,7,7,0,0,0-.62,3.17v2.59a7.43,7.43,0,0,0,.6,3.32,1.9,1.9,0,0,0,1.76,1.17,1.86,1.86,0,0,0,1.72-1.11,7.15,7.15,0,0,0,.61-3.26Z" transform="translate(0)" fill="#4d4d4d"/>
          <path d="M272.5,171.45a.76.76,0,0,1,.2-.54.7.7,0,0,1,.54-.21.75.75,0,0,1,.56.21.8.8,0,0,1,.2.54.73.73,0,0,1-.2.51.78.78,0,0,1-.56.2.73.73,0,0,1-.54-.2A.69.69,0,0,1,272.5,171.45Z" transform="translate(0)" fill="#4d4d4d"/>
          <path d="M282.17,168h1.65v.91h-1.65v3.22h-1v-3.22h-5v-.62l4.95-9h1.05Zm-4.83,0h3.86v-7.19l-.35.71Z" transform="translate(0)" fill="#4d4d4d"/>
          <path d="M288.32,167.05a16.19,16.19,0,0,1-.44,3.79,12.83,12.83,0,0,1-1.24,3.27,6.34,6.34,0,0,1-1.71,2.11l-.22-.7a6.4,6.4,0,0,0,1.53-2.39,16.25,16.25,0,0,0,1.1-6.24,17.09,17.09,0,0,0-.34-3.47,14.66,14.66,0,0,0-1-3,6.21,6.21,0,0,0-1.32-2l.22-.69a6.63,6.63,0,0,1,1.81,2.32A14.94,14.94,0,0,1,288.32,167.05Z" transform="translate(0)" fill="#4d4d4d"/>
        </g>
        <g>
          <path d="M252.28,231.91l-4.57,12.18h-1l4.55-11.88h-6.06v-.92h7.1Z" transform="translate(0)" fill="#4d4d4d"/>
          <path d="M258.43,238.92a15.63,15.63,0,0,1,.46-3.83,13.57,13.57,0,0,1,1.25-3.29,6.18,6.18,0,0,1,1.68-2.06l.23.73a6,6,0,0,0-1.34,1.92,13.55,13.55,0,0,0-.95,3,18.53,18.53,0,0,0-.35,3.7,17.39,17.39,0,0,0,.34,3.5,13.54,13.54,0,0,0,1,3,5.86,5.86,0,0,0,1.34,2l-.23.7a5.51,5.51,0,0,1-1.21-1.3,10.36,10.36,0,0,1-1.11-2.08,15.61,15.61,0,0,1-.78-2.65A16.16,16.16,0,0,1,258.43,238.92Z" transform="translate(0)" fill="#4d4d4d"/>
          <path d="M265.6,237.11h1a2.36,2.36,0,0,0,1.73-.68,2.47,2.47,0,0,0,.67-1.8,2.84,2.84,0,0,0-.58-1.92,2,2,0,0,0-1.61-.68,2.09,2.09,0,0,0-1.65.72,2.81,2.81,0,0,0-.63,1.9h-1a4,4,0,0,1,.4-1.81,3.16,3.16,0,0,1,2.85-1.72,3,3,0,0,1,2.3.93,3.76,3.76,0,0,1,.86,2.62,3.06,3.06,0,0,1-.5,1.72,3,3,0,0,1-1.33,1.14,2.74,2.74,0,0,1,1.5,1.11,3.51,3.51,0,0,1,.52,2,3.77,3.77,0,0,1-.91,2.66,3.13,3.13,0,0,1-2.42,1,3.48,3.48,0,0,1-1.75-.45,3,3,0,0,1-1.24-1.27,4,4,0,0,1-.43-1.91h1a2.84,2.84,0,0,0,.68,2,2.28,2.28,0,0,0,1.77.77,2.18,2.18,0,0,0,1.74-.7,2.93,2.93,0,0,0,.62-2,2.63,2.63,0,0,0-.67-1.94,2.66,2.66,0,0,0-1.93-.68h-.95Z" transform="translate(0)" fill="#4d4d4d"/>
          <path d="M272.5,243.45a.76.76,0,0,1,.2-.54.7.7,0,0,1,.54-.21.75.75,0,0,1,.56.21.8.8,0,0,1,.2.54.73.73,0,0,1-.2.51.78.78,0,0,1-.56.2.73.73,0,0,1-.54-.2A.69.69,0,0,1,272.5,243.45Z" transform="translate(0)" fill="#4d4d4d"/>
          <path d="M280.87,244.09h-1V232.58l-2.89,1.3v-1l3.71-1.62h.16Z" transform="translate(0)" fill="#4d4d4d"/>
          <path d="M288.32,239.05a16.19,16.19,0,0,1-.44,3.79,12.83,12.83,0,0,1-1.24,3.27,6.34,6.34,0,0,1-1.71,2.11l-.22-.7a6.4,6.4,0,0,0,1.53-2.39,16.25,16.25,0,0,0,1.1-6.24,17.09,17.09,0,0,0-.34-3.47,14.66,14.66,0,0,0-1-3,6.21,6.21,0,0,0-1.32-2l.22-.69a6.63,6.63,0,0,1,1.81,2.32A14.94,14.94,0,0,1,288.32,239.05Z" transform="translate(0)" fill="#4d4d4d"/>
        </g>
        <g>
          <path d="M252.39,280.09H245.6v-.84l3.64-4.9a12,12,0,0,0,1.28-2.08,4,4,0,0,0,.36-1.62,3,3,0,0,0-.58-1.91,1.93,1.93,0,0,0-1.59-.71,2.07,2.07,0,0,0-1.73.82,3.42,3.42,0,0,0-.64,2.13h-1a4.15,4.15,0,0,1,.92-2.77A3.3,3.3,0,0,1,251,268a3.51,3.51,0,0,1,.85,2.52,6.7,6.7,0,0,1-1.39,3.6l-.56.8-3.13,4.22h5.6Z" transform="translate(0)" fill="#4d4d4d"/>
          <path d="M258.43,274.92a15.63,15.63,0,0,1,.46-3.83,13.57,13.57,0,0,1,1.25-3.29,6.18,6.18,0,0,1,1.68-2.06l.23.73a6,6,0,0,0-1.34,1.92,13.55,13.55,0,0,0-.95,3,18.53,18.53,0,0,0-.35,3.7,17.39,17.39,0,0,0,.34,3.5,13.54,13.54,0,0,0,1,3,5.86,5.86,0,0,0,1.34,1.95l-.23.7a5.51,5.51,0,0,1-1.21-1.3,10.36,10.36,0,0,1-1.11-2.08,15.61,15.61,0,0,1-.78-2.65A16.16,16.16,0,0,1,258.43,274.92Z" transform="translate(0)" fill="#4d4d4d"/>
          <path d="M270.17,274.74a8.17,8.17,0,0,1-.84,4.13,2.89,2.89,0,0,1-4.94,0,7.94,7.94,0,0,1-.87-4V272.6a8.06,8.06,0,0,1,.84-4.08,2.91,2.91,0,0,1,4.94,0,7.8,7.8,0,0,1,.87,4Zm-1-2.28a7.4,7.4,0,0,0-.58-3.32,1.94,1.94,0,0,0-3.49,0,7,7,0,0,0-.62,3.17v2.59a7.43,7.43,0,0,0,.6,3.32,1.9,1.9,0,0,0,1.76,1.17,1.86,1.86,0,0,0,1.72-1.11,7.15,7.15,0,0,0,.61-3.26Z" transform="translate(0)" fill="#4d4d4d"/>
          <path d="M272.5,279.45a.76.76,0,0,1,.2-.54.7.7,0,0,1,.54-.21.75.75,0,0,1,.56.21.8.8,0,0,1,.2.54.73.73,0,0,1-.2.51.78.78,0,0,1-.56.2.73.73,0,0,1-.54-.2A.69.69,0,0,1,272.5,279.45Z" transform="translate(0)" fill="#4d4d4d"/>
          <path d="M282.15,274.25a3.49,3.49,0,0,1-1.15,1.2,2.77,2.77,0,0,1-1.48.44,2.59,2.59,0,0,1-2.22-1.21,5.19,5.19,0,0,1-.86-3.08,5.44,5.44,0,0,1,.9-3.22,2.75,2.75,0,0,1,2.36-1.26,2.85,2.85,0,0,1,2.52,1.34,6.85,6.85,0,0,1,.9,3.82v1a9,9,0,0,1-1.22,5.21,4.32,4.32,0,0,1-3.72,1.74h-.26v-.94h.28A3.53,3.53,0,0,0,281.1,278,6.13,6.13,0,0,0,282.15,274.25Zm-2.5.72a2.25,2.25,0,0,0,1.51-.6,3.52,3.52,0,0,0,1-1.61v-.65a5.74,5.74,0,0,0-.67-3,2,2,0,0,0-1.78-1.1,1.93,1.93,0,0,0-1.66,1,4.59,4.59,0,0,0-.65,2.53A4.4,4.4,0,0,0,278,274,1.85,1.85,0,0,0,279.65,275Z" transform="translate(0)" fill="#4d4d4d"/>
          <path d="M288.32,275.05a16.19,16.19,0,0,1-.44,3.79,12.83,12.83,0,0,1-1.24,3.27,6.34,6.34,0,0,1-1.71,2.11l-.22-.7a6.4,6.4,0,0,0,1.53-2.39,16.25,16.25,0,0,0,1.1-6.24,17.09,17.09,0,0,0-.34-3.47,14.66,14.66,0,0,0-1-3,6.21,6.21,0,0,0-1.32-2l.22-.69a6.63,6.63,0,0,1,1.81,2.32A14.94,14.94,0,0,1,288.32,275.05Z" transform="translate(0)" fill="#4d4d4d"/>
        </g>
        <g>
          <path d="M251.09,312h1.64v.91h-1.64v3.22h-1v-3.22h-5v-.62l4.95-9h1.06Zm-4.84,0h3.86v-7.19l-.35.71Z" transform="translate(0)" fill="#4d4d4d"/>
          <path d="M258.43,310.92a15.63,15.63,0,0,1,.46-3.83,13.57,13.57,0,0,1,1.25-3.29,6.18,6.18,0,0,1,1.68-2.06l.23.73a6,6,0,0,0-1.34,1.92,13.55,13.55,0,0,0-.95,3,18.53,18.53,0,0,0-.35,3.7,17.39,17.39,0,0,0,.34,3.5,13.54,13.54,0,0,0,1,3,5.86,5.86,0,0,0,1.34,1.95l-.23.7a5.51,5.51,0,0,1-1.21-1.3,10.36,10.36,0,0,1-1.11-2.08,15.61,15.61,0,0,1-.78-2.65A16.16,16.16,0,0,1,258.43,310.92Z" transform="translate(0)" fill="#4d4d4d"/>
          <path d="M267.82,316.09h-1V304.58l-2.89,1.3v-1l3.7-1.62h.17Z" transform="translate(0)" fill="#4d4d4d"/>
          <path d="M272.5,315.45a.76.76,0,0,1,.2-.54.7.7,0,0,1,.54-.21.75.75,0,0,1,.56.21.8.8,0,0,1,.2.54.73.73,0,0,1-.2.51.78.78,0,0,1-.56.2.73.73,0,0,1-.54-.2A.69.69,0,0,1,272.5,315.45Z" transform="translate(0)" fill="#4d4d4d"/>
          <path d="M283.05,306.59a3.28,3.28,0,0,1-.47,1.75,3,3,0,0,1-1.28,1.18,3.21,3.21,0,0,1,1.49,1.25,3.48,3.48,0,0,1,.54,1.93,3.61,3.61,0,0,1-.93,2.59,3.68,3.68,0,0,1-5,0,3.57,3.57,0,0,1-.93-2.59,3.49,3.49,0,0,1,.53-1.94,3.22,3.22,0,0,1,1.46-1.24,2.93,2.93,0,0,1-1.27-1.17,3.47,3.47,0,0,1-.46-1.76,3.61,3.61,0,0,1,.86-2.53,3.26,3.26,0,0,1,4.58,0A3.61,3.61,0,0,1,283.05,306.59Zm-.7,6.11a2.81,2.81,0,0,0-.69-2,2.43,2.43,0,0,0-3.52,0,3.14,3.14,0,0,0,0,3.9,2.57,2.57,0,0,0,3.57,0A2.74,2.74,0,0,0,282.35,312.7Zm-.27-6.12a2.76,2.76,0,0,0-.62-1.83,2,2,0,0,0-1.56-.72,1.94,1.94,0,0,0-1.57.7,2.76,2.76,0,0,0-.59,1.85,2.59,2.59,0,0,0,.61,1.82,2.13,2.13,0,0,0,3.12,0A2.61,2.61,0,0,0,282.08,306.58Z" transform="translate(0)" fill="#4d4d4d"/>
          <path d="M288.32,311.05a16.19,16.19,0,0,1-.44,3.79,12.83,12.83,0,0,1-1.24,3.27,6.34,6.34,0,0,1-1.71,2.11l-.22-.7a6.4,6.4,0,0,0,1.53-2.39,16.25,16.25,0,0,0,1.1-6.24,17.09,17.09,0,0,0-.34-3.47,14.66,14.66,0,0,0-1-3,6.21,6.21,0,0,0-1.32-2l.22-.69a6.63,6.63,0,0,1,1.81,2.32A14.94,14.94,0,0,1,288.32,311.05Z" transform="translate(0)" fill="#4d4d4d"/>
        </g>
        <g>
          <path d="M246.2,345.53l.53-6.24h5.4v1h-4.57l-.36,4.29a3.05,3.05,0,0,1,2-.7A2.76,2.76,0,0,1,251.5,345a4.77,4.77,0,0,1,.86,3,5.13,5.13,0,0,1-.84,3.13,2.81,2.81,0,0,1-2.4,1.12,3,3,0,0,1-2.3-.94,4.17,4.17,0,0,1-1-2.6h.93a3.41,3.41,0,0,0,.73,2,2.09,2.09,0,0,0,1.63.67,1.9,1.9,0,0,0,1.69-.87,4.47,4.47,0,0,0,.58-2.46,3.74,3.74,0,0,0-.65-2.28,2,2,0,0,0-1.74-.88,2.72,2.72,0,0,0-1.09.2,2.78,2.78,0,0,0-.94.72Z" transform="translate(0)" fill="#4d4d4d"/>
          <path d="M258.43,346.92a15.63,15.63,0,0,1,.46-3.83,13.57,13.57,0,0,1,1.25-3.29,6.18,6.18,0,0,1,1.68-2.06l.23.73a6,6,0,0,0-1.34,1.92,13.55,13.55,0,0,0-.95,3,18.53,18.53,0,0,0-.35,3.7,17.39,17.39,0,0,0,.34,3.5,13.54,13.54,0,0,0,1,3,5.86,5.86,0,0,0,1.34,1.95l-.23.7a5.51,5.51,0,0,1-1.21-1.3,10.36,10.36,0,0,1-1.11-2.08,15.61,15.61,0,0,1-.78-2.65A16.16,16.16,0,0,1,258.43,346.92Z" transform="translate(0)" fill="#4d4d4d"/>
          <path d="M270.42,352.09h-6.78v-.84l3.64-4.9a11.83,11.83,0,0,0,1.27-2.08,4,4,0,0,0,.36-1.62,3,3,0,0,0-.57-1.91,2,2,0,0,0-1.6-.71,2.06,2.06,0,0,0-1.72.82,3.35,3.35,0,0,0-.64,2.13h-1a4.21,4.21,0,0,1,.92-2.77,3.3,3.3,0,0,1,4.73-.18,3.51,3.51,0,0,1,.85,2.52,6.76,6.76,0,0,1-1.38,3.6l-.57.8-3.13,4.22h5.6Z" transform="translate(0)" fill="#4d4d4d"/>
          <path d="M272.5,351.45a.76.76,0,0,1,.2-.54.7.7,0,0,1,.54-.21.75.75,0,0,1,.56.21.8.8,0,0,1,.2.54.73.73,0,0,1-.2.51.78.78,0,0,1-.56.2.73.73,0,0,1-.54-.2A.69.69,0,0,1,272.5,351.45Z" transform="translate(0)" fill="#4d4d4d"/>
          <path d="M283.48,352.09h-6.79v-.84l3.64-4.9a11.83,11.83,0,0,0,1.27-2.08,4,4,0,0,0,.36-1.62,3,3,0,0,0-.57-1.91,2,2,0,0,0-1.6-.71,2.06,2.06,0,0,0-1.72.82,3.35,3.35,0,0,0-.64,2.13h-1a4.16,4.16,0,0,1,.93-2.77,3.29,3.29,0,0,1,4.72-.18,3.51,3.51,0,0,1,.86,2.52,6.78,6.78,0,0,1-1.39,3.6l-.56.8-3.13,4.22h5.6Z" transform="translate(0)" fill="#4d4d4d"/>
          <path d="M288.32,347.05a16.19,16.19,0,0,1-.44,3.79,12.83,12.83,0,0,1-1.24,3.27,6.34,6.34,0,0,1-1.71,2.11l-.22-.7a6.4,6.4,0,0,0,1.53-2.39,16.25,16.25,0,0,0,1.1-6.24,17.09,17.09,0,0,0-.34-3.47,14.66,14.66,0,0,0-1-3,6.21,6.21,0,0,0-1.32-2l.22-.69a6.63,6.63,0,0,1,1.81,2.32A14.94,14.94,0,0,1,288.32,347.05Z" transform="translate(0)" fill="#4d4d4d"/>
        </g>
        <g>
          <path d="M252.39,424.09H245.6v-.84l3.64-4.9a12,12,0,0,0,1.28-2.08,4,4,0,0,0,.36-1.62,3,3,0,0,0-.58-1.91,1.93,1.93,0,0,0-1.59-.71,2.07,2.07,0,0,0-1.73.82,3.42,3.42,0,0,0-.64,2.13h-1a4.15,4.15,0,0,1,.92-2.77A3.3,3.3,0,0,1,251,412a3.51,3.51,0,0,1,.85,2.52,6.7,6.7,0,0,1-1.39,3.6l-.56.8-3.13,4.22h5.6Z" transform="translate(0)" fill="#4d4d4d"/>
          <path d="M258.43,418.92a15.63,15.63,0,0,1,.46-3.83,13.57,13.57,0,0,1,1.25-3.29,6.18,6.18,0,0,1,1.68-2.06l.23.73a6,6,0,0,0-1.34,1.92,13.55,13.55,0,0,0-.95,3,18.53,18.53,0,0,0-.35,3.7,17.39,17.39,0,0,0,.34,3.5,13.54,13.54,0,0,0,1,3,5.86,5.86,0,0,0,1.34,1.95l-.23.7a5.51,5.51,0,0,1-1.21-1.3,10.36,10.36,0,0,1-1.11-2.08,15.61,15.61,0,0,1-.78-2.65A16.16,16.16,0,0,1,258.43,418.92Z" transform="translate(0)" fill="#4d4d4d"/>
          <path d="M270.17,418.74a8.17,8.17,0,0,1-.84,4.13,2.89,2.89,0,0,1-4.94,0,7.94,7.94,0,0,1-.87-4V416.6a8.06,8.06,0,0,1,.84-4.08,2.91,2.91,0,0,1,4.94,0,7.8,7.8,0,0,1,.87,4Zm-1-2.28a7.4,7.4,0,0,0-.58-3.32,1.94,1.94,0,0,0-3.49,0,7,7,0,0,0-.62,3.17v2.59a7.43,7.43,0,0,0,.6,3.32,1.9,1.9,0,0,0,1.76,1.17,1.86,1.86,0,0,0,1.72-1.11,7.15,7.15,0,0,0,.61-3.26Z" transform="translate(0)" fill="#4d4d4d"/>
          <path d="M272.5,423.45a.76.76,0,0,1,.2-.54.7.7,0,0,1,.54-.21.75.75,0,0,1,.56.21.8.8,0,0,1,.2.54.73.73,0,0,1-.2.51.78.78,0,0,1-.56.2.73.73,0,0,1-.54-.2A.69.69,0,0,1,272.5,423.45Z" transform="translate(0)" fill="#4d4d4d"/>
          <path d="M282.15,418.25a3.49,3.49,0,0,1-1.15,1.2,2.77,2.77,0,0,1-1.48.44,2.59,2.59,0,0,1-2.22-1.21,5.19,5.19,0,0,1-.86-3.08,5.44,5.44,0,0,1,.9-3.22,2.75,2.75,0,0,1,2.36-1.26,2.85,2.85,0,0,1,2.52,1.34,6.85,6.85,0,0,1,.9,3.82v1a9,9,0,0,1-1.22,5.21,4.32,4.32,0,0,1-3.72,1.74h-.26v-.94h.28A3.53,3.53,0,0,0,281.1,422,6.13,6.13,0,0,0,282.15,418.25Zm-2.5.72a2.25,2.25,0,0,0,1.51-.6,3.52,3.52,0,0,0,1-1.61v-.65a5.74,5.74,0,0,0-.67-3,2,2,0,0,0-1.78-1.1,1.93,1.93,0,0,0-1.66,1,4.59,4.59,0,0,0-.65,2.53A4.4,4.4,0,0,0,278,418,1.85,1.85,0,0,0,279.65,419Z" transform="translate(0)" fill="#4d4d4d"/>
          <path d="M288.32,419.05a16.19,16.19,0,0,1-.44,3.79,12.83,12.83,0,0,1-1.24,3.27,6.34,6.34,0,0,1-1.71,2.11l-.22-.7a6.4,6.4,0,0,0,1.53-2.39,16.25,16.25,0,0,0,1.1-6.24,17.09,17.09,0,0,0-.34-3.47,14.66,14.66,0,0,0-1-3,6.21,6.21,0,0,0-1.32-2l.22-.69a6.63,6.63,0,0,1,1.81,2.32A14.94,14.94,0,0,1,288.32,419.05Z" transform="translate(0)" fill="#4d4d4d"/>
        </g>
        <g>
          <path d="M333.48,52.35h-3.36V63.76h-1.61V52.35h-3.36V51h8.33Z" transform="translate(0)" fill="#4d4d4d"/>
          <path d="M334,58.57a5,5,0,0,1,1-3.28,3.28,3.28,0,0,1,2.66-1.21,3.32,3.32,0,0,1,2.66,1.18,4.87,4.87,0,0,1,1,3.2v1a5,5,0,0,1-1,3.27,3.58,3.58,0,0,1-5.32,0,4.85,4.85,0,0,1-1-3.16Zm1.56.9a4,4,0,0,0,.58,2.3,1.78,1.78,0,0,0,1.55.84c1.37,0,2.07-1,2.12-3V58.57a4,4,0,0,0-.59-2.31,1.79,1.79,0,0,0-1.55-.85,1.77,1.77,0,0,0-1.53.85,4,4,0,0,0-.58,2.3Z" transform="translate(0)" fill="#4d4d4d"/>
          <path d="M344,63.76V55.51h-1.24V54.25H344V53.16a3.47,3.47,0,0,1,.73-2.27,2.53,2.53,0,0,1,2-.81,3.08,3.08,0,0,1,.94.15l-.08,1.31a3.22,3.22,0,0,0-.71-.08q-1.32,0-1.32,1.89v.9h1.62v1.26h-1.62v8.25Z" transform="translate(0)" fill="#4d4d4d"/>
          <path d="M353.92,63.76a3.12,3.12,0,0,1-.21-1,2.46,2.46,0,0,1-2.11,1.21,2.68,2.68,0,0,1-2-.73,2.72,2.72,0,0,1-.73-2,2.88,2.88,0,0,1,1-2.3,4,4,0,0,1,2.69-.87h1.15V57a1.65,1.65,0,0,0-.38-1.22,1.62,1.62,0,0,0-1.15-.36,1.57,1.57,0,0,0-1.14.42,1.37,1.37,0,0,0-.44,1.06H349a2.47,2.47,0,0,1,.43-1.39,3,3,0,0,1,1.16-1,3.41,3.41,0,0,1,1.63-.38,3.12,3.12,0,0,1,2.22.72,2.87,2.87,0,0,1,.77,2.12v4.8a6,6,0,0,0,.3,1.9v.14Zm-2.08-1.24a2,2,0,0,0,1.09-.31,2,2,0,0,0,.76-.79V59.15h-.88a2.93,2.93,0,0,0-1.75.5,1.56,1.56,0,0,0-.64,1.34,1.76,1.76,0,0,0,.32,1.17A1.44,1.44,0,0,0,351.84,62.52Z" transform="translate(0)" fill="#4d4d4d"/>
          <path d="M361,62.61a1.66,1.66,0,0,0,1.24-.48,2,2,0,0,0,.51-1.36h1.46a3.22,3.22,0,0,1-1,2.27,3.08,3.08,0,0,1-2.24.9,3.32,3.32,0,0,1-2.7-1.11,5.06,5.06,0,0,1-.92-3.31V58.47a5,5,0,0,1,.92-3.27,3.27,3.27,0,0,1,2.69-1.12,3,3,0,0,1,2.31.92,3.7,3.7,0,0,1,.91,2.52H362.7a2.62,2.62,0,0,0-.51-1.58,1.57,1.57,0,0,0-1.25-.53,1.77,1.77,0,0,0-1.54.69,3.93,3.93,0,0,0-.52,2.23v1.22a4.24,4.24,0,0,0,.5,2.37A1.8,1.8,0,0,0,361,62.61Z" transform="translate(0)" fill="#4d4d4d"/>
          <path d="M367.76,51.73a1,1,0,0,1-.22.66.81.81,0,0,1-.67.26.8.8,0,0,1-.66-.26,1,1,0,0,1-.22-.66,1,1,0,0,1,.22-.67.81.81,0,0,1,.66-.27.79.79,0,0,1,.66.28A1,1,0,0,1,367.76,51.73Zm-.12,12h-1.56V54.25h1.56Z" transform="translate(0)" fill="#4d4d4d"/>
          <path d="M372.12,52v2.3h1.43v1.26h-1.43v5.91a1.63,1.63,0,0,0,.18.85.71.71,0,0,0,.63.29,2,2,0,0,0,.63-.11l0,1.31a3.31,3.31,0,0,1-1.08.18,1.66,1.66,0,0,1-1.41-.66,3.12,3.12,0,0,1-.48-1.86V55.51h-1.45V54.25h1.45V52Z" transform="translate(0)" fill="#4d4d4d"/>
          <path d="M377.2,51.73a1,1,0,0,1-.22.66.81.81,0,0,1-.67.26.8.8,0,0,1-.66-.26,1,1,0,0,1-.22-.66,1,1,0,0,1,.22-.67.81.81,0,0,1,.66-.27.79.79,0,0,1,.66.28A1,1,0,0,1,377.2,51.73Zm-.13,12h-1.55V54.25h1.55Z" transform="translate(0)" fill="#4d4d4d"/>
          <path d="M381,54.25l0,1a2.77,2.77,0,0,1,2.31-1.2c1.68,0,2.54,1.12,2.56,3.36v6.32h-1.55V57.51a2.57,2.57,0,0,0-.37-1.58,1.32,1.32,0,0,0-1.12-.47,1.59,1.59,0,0,0-1,.38,2.82,2.82,0,0,0-.75,1v6.9h-1.55V54.25Z" transform="translate(0)" fill="#4d4d4d"/>
          <path d="M390,51.73a1,1,0,0,1-.22.66.81.81,0,0,1-.67.26.8.8,0,0,1-.66-.26,1,1,0,0,1-.22-.66,1.1,1.1,0,0,1,.22-.67.94.94,0,0,1,1.33,0A1,1,0,0,1,390,51.73Zm-.12,12h-1.56V54.25h1.56Z" transform="translate(0)" fill="#4d4d4d"/>
          <path d="M399.24,59.47a5.77,5.77,0,0,1-.8,3.34,2.67,2.67,0,0,1-2.32,1.13,2.46,2.46,0,0,1-2.27-1.3l-.08,1.12h-1.41V50.26h1.55v5a2.45,2.45,0,0,1,2.19-1.22,2.68,2.68,0,0,1,2.35,1.11,5.87,5.87,0,0,1,.79,3.34Zm-1.55-.9a4.51,4.51,0,0,0-.47-2.4,1.69,1.69,0,0,0-1.52-.71,1.9,1.9,0,0,0-1.79,1.3v4.52a1.9,1.9,0,0,0,1.81,1.28,1.65,1.65,0,0,0,1.51-.74,4.49,4.49,0,0,0,.46-2.29Z" transform="translate(0)" fill="#4d4d4d"/>
        </g>
        <path d="M402.13,57.77a2.06,2.06,0,0,1-.11-.6,1.47,1.47,0,0,1-1.24.71,1.59,1.59,0,0,1-1.17-.43,1.61,1.61,0,0,1-.42-1.19,1.69,1.69,0,0,1,.57-1.34,2.38,2.38,0,0,1,1.57-.51H402v-.59a1,1,0,0,0-.22-.71.94.94,0,0,0-.67-.2.93.93,0,0,0-.67.24.82.82,0,0,0-.26.62h-.9a1.46,1.46,0,0,1,.25-.82,1.72,1.72,0,0,1,.68-.6,2,2,0,0,1,.94-.22,1.83,1.83,0,0,1,1.3.42,1.68,1.68,0,0,1,.45,1.23v2.8a3.07,3.07,0,0,0,.18,1.11v.08Zm-1.21-.72a1.24,1.24,0,0,0,.64-.18,1.16,1.16,0,0,0,.44-.47V55.08h-.51a1.79,1.79,0,0,0-1,.29.93.93,0,0,0-.38.78,1.05,1.05,0,0,0,.19.69A.84.84,0,0,0,400.92,57.05Z" transform="translate(0)" fill="#4d4d4d"/>
        <g>
          <path d="M337.29,94.57a14.86,14.86,0,0,1,.62-4.33,11.75,11.75,0,0,1,1.77-3.56A5.51,5.51,0,0,1,341,85.33l.3,1.07a7.4,7.4,0,0,0-1.73,3,15.57,15.57,0,0,0-.74,4.53v.71a15.8,15.8,0,0,0,.87,5.46,7.83,7.83,0,0,0,1.61,2.76l-.3,1a6.54,6.54,0,0,1-1.65-1.8A13.28,13.28,0,0,1,337.29,94.57Z" transform="translate(0)" fill="#4d4d4d"/>
          <path d="M351.54,99.77h-1.61l-5.13-9.86v9.86h-1.61V87h1.61l5.14,9.91V87h1.6Z" transform="translate(0)" fill="#4d4d4d"/>
          <path d="M364.53,92.61h-6.16V91.2h6.16Zm0,3.65h-6.16V94.85h6.16Z" transform="translate(0)" fill="#4d4d4d"/>
          <path d="M377.43,90.31A3.28,3.28,0,0,1,377,92a3,3,0,0,1-1.15,1.17,3.28,3.28,0,0,1,1.34,1.27,3.6,3.6,0,0,1,.48,1.86,3.7,3.7,0,0,1-.93,2.64,3.61,3.61,0,0,1-5,0,3.7,3.7,0,0,1-.93-2.64,3.77,3.77,0,0,1,.47-1.88,3.09,3.09,0,0,1,1.31-1.25A3,3,0,0,1,371.49,92a3.37,3.37,0,0,1-.42-1.7,3.63,3.63,0,0,1,.88-2.57,3.27,3.27,0,0,1,4.6,0A3.62,3.62,0,0,1,377.43,90.31Zm-1.31,6a2.75,2.75,0,0,0-.52-1.76,1.64,1.64,0,0,0-1.36-.67,1.59,1.59,0,0,0-1.36.67,2.89,2.89,0,0,0-.5,1.76,2.73,2.73,0,0,0,.49,1.72,1.86,1.86,0,0,0,2.77,0A2.73,2.73,0,0,0,376.12,96.28Zm-.24-5.94a2.56,2.56,0,0,0-.46-1.59,1.43,1.43,0,0,0-2.35,0,2.66,2.66,0,0,0-.44,1.6,2.59,2.59,0,0,0,.45,1.59,1.42,1.42,0,0,0,1.18.59,1.39,1.39,0,0,0,1.18-.6A2.64,2.64,0,0,0,375.88,90.34Z" transform="translate(0)" fill="#4d4d4d"/>
          <path d="M386.31,90.31a3.37,3.37,0,0,1-.42,1.7,3.15,3.15,0,0,1-1.15,1.17,3.34,3.34,0,0,1,1.34,1.27,3.6,3.6,0,0,1,.48,1.86,3.66,3.66,0,0,1-.94,2.64,3.6,3.6,0,0,1-5,0,4.07,4.07,0,0,1-.46-4.52,3.09,3.09,0,0,1,1.31-1.25A3.12,3.12,0,0,1,380.37,92a3.48,3.48,0,0,1-.41-1.7,3.67,3.67,0,0,1,.87-2.57,3.28,3.28,0,0,1,4.61,0A3.66,3.66,0,0,1,386.31,90.31Zm-1.31,6a2.81,2.81,0,0,0-.51-1.76,1.64,1.64,0,0,0-1.37-.67,1.58,1.58,0,0,0-1.35.67,2.83,2.83,0,0,0-.5,1.76,2.67,2.67,0,0,0,.49,1.72,1.85,1.85,0,0,0,2.76,0A2.73,2.73,0,0,0,385,96.28Zm-.23-5.94a2.63,2.63,0,0,0-.46-1.59,1.44,1.44,0,0,0-2.36,0,2.66,2.66,0,0,0-.43,1.6,2.58,2.58,0,0,0,.44,1.59,1.48,1.48,0,0,0,2.37,0A2.64,2.64,0,0,0,384.77,90.34Z" transform="translate(0)" fill="#4d4d4d"/>
          <path d="M392.1,94.66a13.5,13.5,0,0,1-1.76,6.93,7,7,0,0,1-2,2.31l-.31-1a7.45,7.45,0,0,0,1.79-3.24,16.49,16.49,0,0,0,.69-4.79v-.32a15.27,15.27,0,0,0-1.1-6,7.28,7.28,0,0,0-1.38-2.26l.31-1a6.59,6.59,0,0,1,1.87,2.13A13.59,13.59,0,0,1,392.1,94.66Z" transform="translate(0)" fill="#4d4d4d"/>
        </g>
        <g>
          <path d="M346.82,171.77h-1V160.26l-2.89,1.29v-1l3.71-1.62h.17Z" transform="translate(0)" fill="#4d4d4d"/>
          <path d="M355.46,166.6a15.63,15.63,0,0,1,.46-3.83,13,13,0,0,1,1.26-3.29,6.1,6.1,0,0,1,1.67-2.07l.23.74a5.76,5.76,0,0,0-1.34,1.92,13.38,13.38,0,0,0-.95,3,18.53,18.53,0,0,0-.35,3.7,18.14,18.14,0,0,0,.34,3.5,13.54,13.54,0,0,0,1,3,6,6,0,0,0,1.34,1.95l-.23.7a5.51,5.51,0,0,1-1.21-1.3,10.36,10.36,0,0,1-1.11-2.08,15.61,15.61,0,0,1-.78-2.65A16.16,16.16,0,0,1,355.46,166.6Z" transform="translate(0)" fill="#4d4d4d"/>
          <path d="M364.85,171.77h-1V160.26L361,161.55v-1l3.7-1.62h.17Z" transform="translate(0)" fill="#4d4d4d"/>
          <path d="M369.53,171.13a.74.74,0,0,1,.2-.54.7.7,0,0,1,.54-.21.75.75,0,0,1,.56.21.78.78,0,0,1,.2.54.73.73,0,0,1-.2.51.78.78,0,0,1-.56.2.73.73,0,0,1-.54-.2A.69.69,0,0,1,369.53,171.13Z" transform="translate(0)" fill="#4d4d4d"/>
          <path d="M377.9,171.77h-1V160.26L374,161.55v-1l3.71-1.62h.16Z" transform="translate(0)" fill="#4d4d4d"/>
          <path d="M385.35,166.73a16.19,16.19,0,0,1-.44,3.79,12.83,12.83,0,0,1-1.24,3.27A6.34,6.34,0,0,1,382,175.9l-.22-.7a6.37,6.37,0,0,0,1.53-2.4,16.16,16.16,0,0,0,1.1-6.23,17.09,17.09,0,0,0-.34-3.47,14.47,14.47,0,0,0-1-3,6.09,6.09,0,0,0-1.32-2l.22-.7a6.82,6.82,0,0,1,1.81,2.32A15,15,0,0,1,385.35,166.73Z" transform="translate(0)" fill="#4d4d4d"/>
        </g>
        <g>
          <path d="M343.23,237.21l.53-6.24h5.4v1h-4.57l-.36,4.29a3.05,3.05,0,0,1,2-.7,2.73,2.73,0,0,1,2.32,1.13,4.77,4.77,0,0,1,.86,3,5.15,5.15,0,0,1-.84,3.13,2.81,2.81,0,0,1-2.4,1.12,3,3,0,0,1-2.3-.94,4.17,4.17,0,0,1-1-2.6h.93a3.41,3.41,0,0,0,.73,2,2.09,2.09,0,0,0,1.63.67,1.9,1.9,0,0,0,1.69-.87,4.47,4.47,0,0,0,.58-2.46,3.74,3.74,0,0,0-.65-2.28,2,2,0,0,0-1.74-.88,2.72,2.72,0,0,0-1.09.2,2.78,2.78,0,0,0-.94.72Z" transform="translate(0)" fill="#4d4d4d"/>
          <path d="M355.46,238.6a15.63,15.63,0,0,1,.46-3.83,13,13,0,0,1,1.26-3.29,6.1,6.1,0,0,1,1.67-2.07l.23.74a5.76,5.76,0,0,0-1.34,1.92,13.38,13.38,0,0,0-.95,3,18.53,18.53,0,0,0-.35,3.7,18.14,18.14,0,0,0,.34,3.5,13.54,13.54,0,0,0,1,3,6,6,0,0,0,1.34,1.95l-.23.7a5.51,5.51,0,0,1-1.21-1.3,10.36,10.36,0,0,1-1.11-2.08,15.61,15.61,0,0,1-.78-2.65A16.16,16.16,0,0,1,355.46,238.6Z" transform="translate(0)" fill="#4d4d4d"/>
          <path d="M361.27,237.21l.52-6.24h5.41v1h-4.57l-.36,4.29a3,3,0,0,1,2-.7,2.75,2.75,0,0,1,2.32,1.13,4.84,4.84,0,0,1,.86,3,5.08,5.08,0,0,1-.85,3.13,2.81,2.81,0,0,1-2.4,1.12,3,3,0,0,1-2.29-.94,4.05,4.05,0,0,1-1-2.6h.93a3.28,3.28,0,0,0,.73,2,2.05,2.05,0,0,0,1.62.67,1.91,1.91,0,0,0,1.7-.87,4.48,4.48,0,0,0,.57-2.46,3.73,3.73,0,0,0-.64-2.28,2.07,2.07,0,0,0-1.75-.88,2.79,2.79,0,0,0-1.09.2,2.86,2.86,0,0,0-.93.72Z" transform="translate(0)" fill="#4d4d4d"/>
          <path d="M369.53,243.13a.74.74,0,0,1,.2-.54.7.7,0,0,1,.54-.21.75.75,0,0,1,.56.21.78.78,0,0,1,.2.54.73.73,0,0,1-.2.51.78.78,0,0,1-.56.2.73.73,0,0,1-.54-.2A.69.69,0,0,1,369.53,243.13Z" transform="translate(0)" fill="#4d4d4d"/>
          <path d="M380.4,231.59l-4.57,12.18h-1l4.54-11.89H373.3V231h7.1Z" transform="translate(0)" fill="#4d4d4d"/>
          <path d="M385.35,238.73a16.19,16.19,0,0,1-.44,3.79,12.83,12.83,0,0,1-1.24,3.27A6.34,6.34,0,0,1,382,247.9l-.22-.7a6.37,6.37,0,0,0,1.53-2.4,16.16,16.16,0,0,0,1.1-6.23,17.09,17.09,0,0,0-.34-3.47,14.47,14.47,0,0,0-1-3,6.09,6.09,0,0,0-1.32-2l.22-.7a6.82,6.82,0,0,1,1.81,2.32A15,15,0,0,1,385.35,238.73Z" transform="translate(0)" fill="#4d4d4d"/>
        </g>
        <g>
          <path d="M346.82,279.77h-1V268.26l-2.89,1.29v-1l3.71-1.62h.17Z" transform="translate(0)" fill="#4d4d4d"/>
          <path d="M355.46,274.6a15.63,15.63,0,0,1,.46-3.83,13,13,0,0,1,1.26-3.29,6.1,6.1,0,0,1,1.67-2.07l.23.74a5.76,5.76,0,0,0-1.34,1.92,13.38,13.38,0,0,0-.95,3,18.53,18.53,0,0,0-.35,3.7,18.14,18.14,0,0,0,.34,3.5,13.54,13.54,0,0,0,1,3,6,6,0,0,0,1.34,1.95l-.23.7a5.51,5.51,0,0,1-1.21-1.3,10.36,10.36,0,0,1-1.11-2.08,15.61,15.61,0,0,1-.78-2.65A16.16,16.16,0,0,1,355.46,274.6Z" transform="translate(0)" fill="#4d4d4d"/>
          <path d="M364.85,279.77h-1V268.26L361,269.55v-1l3.7-1.62h.17Z" transform="translate(0)" fill="#4d4d4d"/>
          <path d="M369.53,279.13a.74.74,0,0,1,.2-.54.7.7,0,0,1,.54-.21.75.75,0,0,1,.56.21.78.78,0,0,1,.2.54.73.73,0,0,1-.2.51.78.78,0,0,1-.56.2.73.73,0,0,1-.54-.2A.69.69,0,0,1,369.53,279.13Z" transform="translate(0)" fill="#4d4d4d"/>
          <path d="M377.9,279.77h-1V268.26L374,269.55v-1l3.71-1.62h.16Z" transform="translate(0)" fill="#4d4d4d"/>
          <path d="M385.35,274.73a16.19,16.19,0,0,1-.44,3.79,12.83,12.83,0,0,1-1.24,3.27A6.34,6.34,0,0,1,382,283.9l-.22-.7a6.37,6.37,0,0,0,1.53-2.4,16.16,16.16,0,0,0,1.1-6.23,17.09,17.09,0,0,0-.34-3.47,14.47,14.47,0,0,0-1-3,6.09,6.09,0,0,0-1.32-2l.22-.7a6.82,6.82,0,0,1,1.81,2.32A15,15,0,0,1,385.35,274.73Z" transform="translate(0)" fill="#4d4d4d"/>
        </g>
        <path d="M367.38,310.42a8.17,8.17,0,0,1-.84,4.13,2.89,2.89,0,0,1-4.94,0,8,8,0,0,1-.86-4v-2.25a8.07,8.07,0,0,1,.83-4.08,2.9,2.9,0,0,1,4.94-.05,7.8,7.8,0,0,1,.87,4Zm-1-2.29a7.36,7.36,0,0,0-.59-3.31,1.94,1.94,0,0,0-3.49,0,7,7,0,0,0-.62,3.17v2.59a7.46,7.46,0,0,0,.6,3.32,1.91,1.91,0,0,0,1.77,1.17,1.85,1.85,0,0,0,1.71-1.11,7.27,7.27,0,0,0,.62-3.26Z" transform="translate(0)" fill="#4d4d4d"/>
        <g>
          <path d="M346.82,351.77h-1V340.26l-2.89,1.29v-1l3.71-1.62h.17Z" transform="translate(0)" fill="#4d4d4d"/>
          <path d="M355.46,346.6a15.63,15.63,0,0,1,.46-3.83,13,13,0,0,1,1.26-3.29,6.1,6.1,0,0,1,1.67-2.07l.23.74a5.76,5.76,0,0,0-1.34,1.92,13.38,13.38,0,0,0-.95,3,18.53,18.53,0,0,0-.35,3.7,18.14,18.14,0,0,0,.34,3.5,13.54,13.54,0,0,0,1,3,6,6,0,0,0,1.34,1.95l-.23.7a5.51,5.51,0,0,1-1.21-1.3,10.36,10.36,0,0,1-1.11-2.08,15.61,15.61,0,0,1-.78-2.65A16.16,16.16,0,0,1,355.46,346.6Z" transform="translate(0)" fill="#4d4d4d"/>
          <path d="M364.85,351.77h-1V340.26L361,341.55v-1l3.7-1.62h.17Z" transform="translate(0)" fill="#4d4d4d"/>
          <path d="M369.53,351.13a.74.74,0,0,1,.2-.54.7.7,0,0,1,.54-.21.75.75,0,0,1,.56.21.78.78,0,0,1,.2.54.73.73,0,0,1-.2.51.78.78,0,0,1-.56.2.73.73,0,0,1-.54-.2A.69.69,0,0,1,369.53,351.13Z" transform="translate(0)" fill="#4d4d4d"/>
          <path d="M377.9,351.77h-1V340.26L374,341.55v-1l3.71-1.62h.16Z" transform="translate(0)" fill="#4d4d4d"/>
          <path d="M385.35,346.73a16.19,16.19,0,0,1-.44,3.79,12.83,12.83,0,0,1-1.24,3.27A6.34,6.34,0,0,1,382,355.9l-.22-.7a6.37,6.37,0,0,0,1.53-2.4,16.16,16.16,0,0,0,1.1-6.23,17.09,17.09,0,0,0-.34-3.47,14.47,14.47,0,0,0-1-3,6.09,6.09,0,0,0-1.32-2l.22-.7a6.82,6.82,0,0,1,1.81,2.32A15,15,0,0,1,385.35,346.73Z" transform="translate(0)" fill="#4d4d4d"/>
        </g>
        <path d="M367.38,418.42a8.17,8.17,0,0,1-.84,4.13,2.89,2.89,0,0,1-4.94,0,8,8,0,0,1-.86-4v-2.25a8.07,8.07,0,0,1,.83-4.08,2.9,2.9,0,0,1,4.94-.05,7.8,7.8,0,0,1,.87,4Zm-1-2.29a7.36,7.36,0,0,0-.59-3.31,1.94,1.94,0,0,0-3.49,0,7,7,0,0,0-.62,3.17v2.59a7.46,7.46,0,0,0,.6,3.32,1.91,1.91,0,0,0,1.77,1.17,1.85,1.85,0,0,0,1.71-1.11,7.27,7.27,0,0,0,.62-3.26Z" transform="translate(0)" fill="#4d4d4d"/>
        <g>
          <path d="M431.36,58.76v5h-1.61V51h4.08a3.69,3.69,0,0,1,2.8,1.07,3.94,3.94,0,0,1,1,2.84,3.88,3.88,0,0,1-1,2.84,3.77,3.77,0,0,1-2.74,1Zm0-1.38h2.47a2.08,2.08,0,0,0,1.64-.65,2.67,2.67,0,0,0,.57-1.84,2.71,2.71,0,0,0-.59-1.84,2,2,0,0,0-1.61-.7h-2.48Z" transform="translate(0)" fill="#4d4d4d"/>
          <path d="M441.18,63.77h-1.55V50.27h1.55Z" transform="translate(0)" fill="#4d4d4d"/>
          <path d="M448.52,63.77a3.56,3.56,0,0,1-.2-1,2.46,2.46,0,0,1-2.11,1.21,2.76,2.76,0,0,1-2-.72,2.8,2.8,0,0,1-.72-2,2.91,2.91,0,0,1,1-2.3,4,4,0,0,1,2.7-.87h1.14V57a1.62,1.62,0,0,0-.37-1.21,1.65,1.65,0,0,0-1.16-.36,1.63,1.63,0,0,0-1.14.41,1.43,1.43,0,0,0-.44,1.06h-1.55a2.5,2.5,0,0,1,.43-1.39,2.92,2.92,0,0,1,1.16-1,3.49,3.49,0,0,1,1.62-.38,3,3,0,0,1,2.22.73,2.8,2.8,0,0,1,.78,2.11v4.8a6,6,0,0,0,.3,1.91v.14Zm-2.07-1.24a2.09,2.09,0,0,0,1.09-.32,1.89,1.89,0,0,0,.75-.79V59.15h-.88a2.9,2.9,0,0,0-1.74.5A1.58,1.58,0,0,0,445,61a1.7,1.7,0,0,0,.33,1.17A1.39,1.39,0,0,0,446.45,62.53Z" transform="translate(0)" fill="#4d4d4d"/>
          <path d="M455.55,62.62a1.64,1.64,0,0,0,1.24-.48,2.05,2.05,0,0,0,.51-1.37h1.47a3.26,3.26,0,0,1-1,2.27,3.08,3.08,0,0,1-2.25.9,3.32,3.32,0,0,1-2.69-1.11,5,5,0,0,1-.93-3.31v-1a5.09,5.09,0,0,1,.92-3.28,3.29,3.29,0,0,1,2.69-1.12,3,3,0,0,1,2.32.92,3.81,3.81,0,0,1,.91,2.53H457.3a2.59,2.59,0,0,0-.5-1.59,1.58,1.58,0,0,0-1.26-.52,1.75,1.75,0,0,0-1.53.68,3.86,3.86,0,0,0-.52,2.24v1.21a4.23,4.23,0,0,0,.49,2.37A1.81,1.81,0,0,0,455.55,62.62Z" transform="translate(0)" fill="#4d4d4d"/>
          <path d="M464,63.94a3.45,3.45,0,0,1-2.72-1.06,4.56,4.56,0,0,1-1-3.1V58.63a5.37,5.37,0,0,1,.93-3.34,3.07,3.07,0,0,1,2.59-1.21,3,3,0,0,1,2.49,1.06,5.41,5.41,0,0,1,.85,3.32v1h-5.31v.22a3.48,3.48,0,0,0,.57,2.22,2.06,2.06,0,0,0,1.66.7,2.73,2.73,0,0,0,1.21-.26,3,3,0,0,0,1-.83l.81,1A3.52,3.52,0,0,1,464,63.94Zm-.17-8.52a1.62,1.62,0,0,0-1.43.66,3.93,3.93,0,0,0-.53,2.06h3.74v-.21a3.54,3.54,0,0,0-.49-1.93A1.48,1.48,0,0,0,463.79,55.42Z" transform="translate(0)" fill="#4d4d4d"/>
          <path d="M475.88,59.47a5.73,5.73,0,0,1-.8,3.35,2.65,2.65,0,0,1-2.32,1.12,2.46,2.46,0,0,1-2.27-1.3l-.07,1.13H469V50.27h1.55v5a2.45,2.45,0,0,1,2.19-1.22,2.68,2.68,0,0,1,2.35,1.11,5.81,5.81,0,0,1,.79,3.34Zm-1.54-.89a4.45,4.45,0,0,0-.48-2.4,1.68,1.68,0,0,0-1.52-.72,1.9,1.9,0,0,0-1.79,1.3v4.52a1.89,1.89,0,0,0,1.81,1.28,1.64,1.64,0,0,0,1.51-.73,4.65,4.65,0,0,0,.47-2.3Z" transform="translate(0)" fill="#4d4d4d"/>
          <path d="M477.54,58.57a5,5,0,0,1,1-3.28,3.28,3.28,0,0,1,2.66-1.21,3.32,3.32,0,0,1,2.66,1.18,4.88,4.88,0,0,1,1,3.21v1a4.93,4.93,0,0,1-1,3.27,3.58,3.58,0,0,1-5.32,0,4.85,4.85,0,0,1-1-3.16Zm1.56.9a4,4,0,0,0,.58,2.31,1.78,1.78,0,0,0,1.55.84c1.37,0,2.07-1,2.11-3V58.57a4,4,0,0,0-.58-2.3,1.77,1.77,0,0,0-1.55-.85,1.75,1.75,0,0,0-1.53.85,4,4,0,0,0-.58,2.29Z" transform="translate(0)" fill="#4d4d4d"/>
        </g>
        <g>
          <path d="M429.68,94.57a14.53,14.53,0,0,1,.63-4.33,11.51,11.51,0,0,1,1.76-3.56,5.69,5.69,0,0,1,1.34-1.35l.31,1.07a7.4,7.4,0,0,0-1.74,3,15.57,15.57,0,0,0-.73,4.53v.71a15.8,15.8,0,0,0,.87,5.46,7.68,7.68,0,0,0,1.61,2.76l-.31,1a6.38,6.38,0,0,1-1.64-1.8A13.29,13.29,0,0,1,429.68,94.57Z" transform="translate(0)" fill="#4d4d4d"/>
          <path d="M443.94,99.77h-1.62l-5.12-9.86v9.86h-1.62V87h1.62l5.14,9.91V87h1.6Z" transform="translate(0)" fill="#4d4d4d"/>
          <path d="M456.93,92.61h-6.16V91.2h6.16Zm0,3.65h-6.16V94.85h6.16Z" transform="translate(0)" fill="#4d4d4d"/>
          <path d="M469.82,90.31a3.37,3.37,0,0,1-.42,1.7,3.15,3.15,0,0,1-1.15,1.17,3.26,3.26,0,0,1,1.33,1.27,3.52,3.52,0,0,1,.49,1.86,3.66,3.66,0,0,1-.94,2.64,3.6,3.6,0,0,1-5,0,4.07,4.07,0,0,1-.46-4.52,3.07,3.07,0,0,1,1.3-1.25A3.1,3.1,0,0,1,463.88,92a3.37,3.37,0,0,1-.41-1.7,3.67,3.67,0,0,1,.87-2.57,3,3,0,0,1,2.31-.95,3,3,0,0,1,2.3.94A3.66,3.66,0,0,1,469.82,90.31Zm-1.31,6a2.75,2.75,0,0,0-.52-1.76,1.62,1.62,0,0,0-1.36-.67,1.6,1.6,0,0,0-1.36.67,2.89,2.89,0,0,0-.49,1.76,2.67,2.67,0,0,0,.49,1.72A1.85,1.85,0,0,0,468,98,2.73,2.73,0,0,0,468.51,96.28Zm-.24-5.94a2.63,2.63,0,0,0-.45-1.59,1.42,1.42,0,0,0-1.17-.62,1.39,1.39,0,0,0-1.19.61,2.66,2.66,0,0,0-.44,1.6,2.59,2.59,0,0,0,.45,1.59,1.48,1.48,0,0,0,2.37,0A2.64,2.64,0,0,0,468.27,90.34Z" transform="translate(0)" fill="#4d4d4d"/>
          <path d="M472.76,93.35l.55-6.38h5.56v1.5h-4.25l-.3,3.49a2.92,2.92,0,0,1,1.71-.55,2.75,2.75,0,0,1,2.34,1.16,5.13,5.13,0,0,1,.86,3.12,4.8,4.8,0,0,1-.93,3.12,3.13,3.13,0,0,1-2.55,1.13,3.08,3.08,0,0,1-2.34-.94,4,4,0,0,1-1-2.6h1.46a3,3,0,0,0,.63,1.66,1.65,1.65,0,0,0,1.29.56,1.61,1.61,0,0,0,1.42-.79,3.87,3.87,0,0,0,.51-2.12,3.5,3.5,0,0,0-.55-2,1.71,1.71,0,0,0-1.48-.79,1.81,1.81,0,0,0-1.24.4l-.41.41Z" transform="translate(0)" fill="#4d4d4d"/>
          <path d="M484.49,94.66a13.5,13.5,0,0,1-1.76,6.93,7,7,0,0,1-2,2.31l-.3-1a7.54,7.54,0,0,0,1.78-3.24,16.49,16.49,0,0,0,.69-4.79v-.32a15.46,15.46,0,0,0-1.09-6,7.68,7.68,0,0,0-1.38-2.26l.3-1a6.72,6.72,0,0,1,1.88,2.13A13.68,13.68,0,0,1,484.49,94.66Z" transform="translate(0)" fill="#4d4d4d"/>
        </g>
        <g>
          <path d="M437,164.79h1a2.36,2.36,0,0,0,1.73-.68,2.47,2.47,0,0,0,.67-1.8,2.9,2.9,0,0,0-.58-1.92,2,2,0,0,0-1.61-.68,2.09,2.09,0,0,0-1.65.72,2.81,2.81,0,0,0-.63,1.9h-1a4,4,0,0,1,.41-1.81,3.09,3.09,0,0,1,1.17-1.26,3.13,3.13,0,0,1,1.68-.47,3,3,0,0,1,2.3.94,3.73,3.73,0,0,1,.86,2.61,3.15,3.15,0,0,1-.5,1.73,3,3,0,0,1-1.33,1.14,2.74,2.74,0,0,1,1.5,1.11,3.51,3.51,0,0,1,.52,2,3.77,3.77,0,0,1-.91,2.66,3.14,3.14,0,0,1-2.42,1,3.48,3.48,0,0,1-1.75-.45,3.1,3.1,0,0,1-1.24-1.27,4,4,0,0,1-.43-1.92h1a2.85,2.85,0,0,0,.68,2,2.28,2.28,0,0,0,1.77.77,2.18,2.18,0,0,0,1.74-.7,3,3,0,0,0,.62-2,2.36,2.36,0,0,0-2.6-2.62H437Z" transform="translate(0)" fill="#4d4d4d"/>
          <path d="M447.85,166.6a16.13,16.13,0,0,1,.46-3.83,13.42,13.42,0,0,1,1.26-3.29,6.34,6.34,0,0,1,1.67-2.07l.23.74a5.75,5.75,0,0,0-1.33,1.92,12.88,12.88,0,0,0-1,3,18.56,18.56,0,0,0-.34,3.7,17.39,17.39,0,0,0,.34,3.5,13.54,13.54,0,0,0,1,3,6,6,0,0,0,1.33,1.95l-.23.7a5.73,5.73,0,0,1-1.21-1.3,9.87,9.87,0,0,1-1.1-2.08,14,14,0,0,1-.78-2.65A16.12,16.12,0,0,1,447.85,166.6Z" transform="translate(0)" fill="#4d4d4d"/>
          <path d="M455,164.79h1a2.38,2.38,0,0,0,1.74-.68,2.46,2.46,0,0,0,.66-1.8,2.89,2.89,0,0,0-.57-1.92,2,2,0,0,0-1.62-.68,2.09,2.09,0,0,0-1.65.72,2.81,2.81,0,0,0-.62,1.9h-1a4,4,0,0,1,.41-1.81,3.07,3.07,0,0,1,1.16-1.26,3.18,3.18,0,0,1,1.68-.47,3,3,0,0,1,2.3.94,3.69,3.69,0,0,1,.87,2.61,3.15,3.15,0,0,1-.5,1.73,3.07,3.07,0,0,1-1.33,1.14,2.76,2.76,0,0,1,1.49,1.11,3.51,3.51,0,0,1,.53,2,3.81,3.81,0,0,1-.91,2.66,3.14,3.14,0,0,1-2.42,1,3.52,3.52,0,0,1-1.76-.45,3.13,3.13,0,0,1-1.23-1.27,3.89,3.89,0,0,1-.44-1.92h1a2.8,2.8,0,0,0,.68,2,2.25,2.25,0,0,0,1.77.77,2.17,2.17,0,0,0,1.73-.7,2.9,2.9,0,0,0,.62-2,2.35,2.35,0,0,0-2.6-2.62h-1Z" transform="translate(0)" fill="#4d4d4d"/>
          <path d="M461.92,171.13a.78.78,0,0,1,.2-.54.71.71,0,0,1,.55-.21.72.72,0,0,1,.55.21.75.75,0,0,1,.21.54.69.69,0,0,1-.21.51.76.76,0,0,1-.55.2.74.74,0,0,1-.55-.2A.73.73,0,0,1,461.92,171.13Z" transform="translate(0)" fill="#4d4d4d"/>
          <path d="M466.71,165.21l.53-6.24h5.4v1h-4.57l-.36,4.29a3.05,3.05,0,0,1,2-.7,2.75,2.75,0,0,1,2.33,1.13,4.83,4.83,0,0,1,.85,3,5.15,5.15,0,0,1-.84,3.13,2.81,2.81,0,0,1-2.4,1.12,3,3,0,0,1-2.29-.94,4.12,4.12,0,0,1-1-2.6h.93a3.41,3.41,0,0,0,.73,2,2.09,2.09,0,0,0,1.63.67,1.9,1.9,0,0,0,1.69-.87,4.39,4.39,0,0,0,.58-2.46,3.74,3.74,0,0,0-.65-2.28,2,2,0,0,0-1.74-.88,2.75,2.75,0,0,0-1.09.2,2.66,2.66,0,0,0-.93.72Z" transform="translate(0)" fill="#4d4d4d"/>
          <path d="M477.74,166.73a16.19,16.19,0,0,1-.43,3.79,13.22,13.22,0,0,1-1.24,3.27,6.36,6.36,0,0,1-1.72,2.11l-.22-.7a6.37,6.37,0,0,0,1.54-2.4,16.35,16.35,0,0,0,1.1-6.23,17.09,17.09,0,0,0-.35-3.47,13.38,13.38,0,0,0-1-3,5.79,5.79,0,0,0-1.32-2l.22-.7a6.7,6.7,0,0,1,1.81,2.32A14.89,14.89,0,0,1,477.74,166.73Z" transform="translate(0)" fill="#4d4d4d"/>
        </g>
        <g>
          <path d="M439.21,243.77h-1V232.26l-2.89,1.29v-1l3.7-1.62h.17Z" transform="translate(0)" fill="#4d4d4d"/>
          <path d="M447.85,238.6a16.13,16.13,0,0,1,.46-3.83,13.42,13.42,0,0,1,1.26-3.29,6.34,6.34,0,0,1,1.67-2.07l.23.74a5.75,5.75,0,0,0-1.33,1.92,12.88,12.88,0,0,0-1,3,18.56,18.56,0,0,0-.34,3.7,17.39,17.39,0,0,0,.34,3.5,13.54,13.54,0,0,0,1,3,6,6,0,0,0,1.33,1.95l-.23.7a5.73,5.73,0,0,1-1.21-1.3,9.87,9.87,0,0,1-1.1-2.08,14,14,0,0,1-.78-2.65A16.12,16.12,0,0,1,447.85,238.6Z" transform="translate(0)" fill="#4d4d4d"/>
          <path d="M457.25,243.77h-1V232.26l-2.89,1.29v-1l3.71-1.62h.17Z" transform="translate(0)" fill="#4d4d4d"/>
          <path d="M461.92,243.13a.78.78,0,0,1,.2-.54.71.71,0,0,1,.55-.21.72.72,0,0,1,.55.21.75.75,0,0,1,.21.54.69.69,0,0,1-.21.51.76.76,0,0,1-.55.2.74.74,0,0,1-.55-.2A.73.73,0,0,1,461.92,243.13Z" transform="translate(0)" fill="#4d4d4d"/>
          <path d="M472.9,243.77h-6.79v-.84l3.64-4.9a11.65,11.65,0,0,0,1.28-2.09,4,4,0,0,0,.36-1.61,2.89,2.89,0,0,0-.58-1.91,1.91,1.91,0,0,0-1.59-.71,2.08,2.08,0,0,0-1.73.82,3.42,3.42,0,0,0-.64,2.13h-1a4.15,4.15,0,0,1,.92-2.77,3.29,3.29,0,0,1,4.73-.19,3.55,3.55,0,0,1,.85,2.53,6.73,6.73,0,0,1-1.39,3.6l-.56.8-3.13,4.22h5.6Z" transform="translate(0)" fill="#4d4d4d"/>
          <path d="M477.74,238.73a16.19,16.19,0,0,1-.43,3.79,13.22,13.22,0,0,1-1.24,3.27,6.36,6.36,0,0,1-1.72,2.11l-.22-.7a6.37,6.37,0,0,0,1.54-2.4,16.35,16.35,0,0,0,1.1-6.23,17.09,17.09,0,0,0-.35-3.47,13.38,13.38,0,0,0-1-3,5.79,5.79,0,0,0-1.32-2l.22-.7a6.7,6.7,0,0,1,1.81,2.32A14.89,14.89,0,0,1,477.74,238.73Z" transform="translate(0)" fill="#4d4d4d"/>
        </g>
        <path d="M459.77,274.42a8.17,8.17,0,0,1-.84,4.13,2.89,2.89,0,0,1-4.94,0,8,8,0,0,1-.86-4v-2.25a8.18,8.18,0,0,1,.83-4.08,2.9,2.9,0,0,1,4.94-.05,7.6,7.6,0,0,1,.87,4Zm-1-2.29a7.52,7.52,0,0,0-.58-3.31,1.9,1.9,0,0,0-1.77-1.11,1.86,1.86,0,0,0-1.72,1.07,6.72,6.72,0,0,0-.62,3.17v2.59a7.46,7.46,0,0,0,.6,3.32,1.9,1.9,0,0,0,1.76,1.17,1.87,1.87,0,0,0,1.72-1.11,7.29,7.29,0,0,0,.61-3.26Z" transform="translate(0)" fill="#4d4d4d"/>
        <path d="M459.77,310.42a8.17,8.17,0,0,1-.84,4.13,2.89,2.89,0,0,1-4.94,0,8,8,0,0,1-.86-4v-2.25a8.18,8.18,0,0,1,.83-4.08,2.9,2.9,0,0,1,4.94-.05,7.6,7.6,0,0,1,.87,4Zm-1-2.29a7.52,7.52,0,0,0-.58-3.31,1.9,1.9,0,0,0-1.77-1.11,1.86,1.86,0,0,0-1.72,1.07,6.72,6.72,0,0,0-.62,3.17v2.59a7.46,7.46,0,0,0,.6,3.32,1.9,1.9,0,0,0,1.76,1.17,1.87,1.87,0,0,0,1.72-1.11,7.29,7.29,0,0,0,.61-3.26Z" transform="translate(0)" fill="#4d4d4d"/>
        <g>
          <path d="M441.81,351.77H435v-.84l3.64-4.9a11.5,11.5,0,0,0,1.27-2.09,4,4,0,0,0,.36-1.61,2.94,2.94,0,0,0-.57-1.91,1.94,1.94,0,0,0-1.6-.71,2.06,2.06,0,0,0-1.72.82,3.35,3.35,0,0,0-.64,2.13h-1a4.21,4.21,0,0,1,.92-2.77,3.29,3.29,0,0,1,4.73-.19,3.55,3.55,0,0,1,.85,2.53,6.78,6.78,0,0,1-1.38,3.6l-.57.8-3.13,4.22h5.6Z" transform="translate(0)" fill="#4d4d4d"/>
          <path d="M447.85,346.6a16.13,16.13,0,0,1,.46-3.83,13.42,13.42,0,0,1,1.26-3.29,6.34,6.34,0,0,1,1.67-2.07l.23.74a5.75,5.75,0,0,0-1.33,1.92,12.88,12.88,0,0,0-1,3,18.56,18.56,0,0,0-.34,3.7,17.39,17.39,0,0,0,.34,3.5,13.54,13.54,0,0,0,1,3,6,6,0,0,0,1.33,1.95l-.23.7a5.73,5.73,0,0,1-1.21-1.3,9.87,9.87,0,0,1-1.1-2.08,14,14,0,0,1-.78-2.65A16.12,16.12,0,0,1,447.85,346.6Z" transform="translate(0)" fill="#4d4d4d"/>
          <path d="M459.85,351.77h-6.79v-.84l3.64-4.9a11.65,11.65,0,0,0,1.28-2.09,4,4,0,0,0,.36-1.61,2.94,2.94,0,0,0-.58-1.91,1.91,1.91,0,0,0-1.59-.71,2.07,2.07,0,0,0-1.73.82,3.42,3.42,0,0,0-.64,2.13h-1a4.15,4.15,0,0,1,.92-2.77,3,3,0,0,1,2.42-1.1,3,3,0,0,1,2.31.91,3.55,3.55,0,0,1,.85,2.53,6.73,6.73,0,0,1-1.39,3.6l-.56.8-3.13,4.22h5.6Z" transform="translate(0)" fill="#4d4d4d"/>
          <path d="M461.92,351.13a.78.78,0,0,1,.2-.54.71.71,0,0,1,.55-.21.72.72,0,0,1,.55.21.75.75,0,0,1,.21.54.69.69,0,0,1-.21.51.76.76,0,0,1-.55.2.74.74,0,0,1-.55-.2A.73.73,0,0,1,461.92,351.13Z" transform="translate(0)" fill="#4d4d4d"/>
          <path d="M471.6,347.64h1.64v.91H471.6v3.22h-1v-3.22h-5v-.62l4.94-9h1.06Zm-4.83,0h3.85v-7.19l-.35.71Z" transform="translate(0)" fill="#4d4d4d"/>
          <path d="M477.74,346.73a16.19,16.19,0,0,1-.43,3.79,13.22,13.22,0,0,1-1.24,3.27,6.36,6.36,0,0,1-1.72,2.11l-.22-.7a6.37,6.37,0,0,0,1.54-2.4,16.35,16.35,0,0,0,1.1-6.23,17.09,17.09,0,0,0-.35-3.47,13.38,13.38,0,0,0-1-3,5.79,5.79,0,0,0-1.32-2l.22-.7a6.7,6.7,0,0,1,1.81,2.32A14.89,14.89,0,0,1,477.74,346.73Z" transform="translate(0)" fill="#4d4d4d"/>
        </g>
        <path d="M459.77,418.42a8.17,8.17,0,0,1-.84,4.13,2.89,2.89,0,0,1-4.94,0,8,8,0,0,1-.86-4v-2.25a8.18,8.18,0,0,1,.83-4.08,2.9,2.9,0,0,1,4.94-.05,7.6,7.6,0,0,1,.87,4Zm-1-2.29a7.52,7.52,0,0,0-.58-3.31,1.9,1.9,0,0,0-1.77-1.11,1.86,1.86,0,0,0-1.72,1.07,6.72,6.72,0,0,0-.62,3.17v2.59a7.46,7.46,0,0,0,.6,3.32,1.9,1.9,0,0,0,1.76,1.17,1.87,1.87,0,0,0,1.72-1.11,7.29,7.29,0,0,0,.61-3.26Z" transform="translate(0)" fill="#4d4d4d"/>
        <g>
          <path d="M353.58,28.09V15.29H357a4.66,4.66,0,0,1,3.57,1.43,5.58,5.58,0,0,1,1.36,3.9v2.07a5.57,5.57,0,0,1-1.34,4,4.74,4.74,0,0,1-3.67,1.44Zm2.59-10.64V26h.77a2.18,2.18,0,0,0,1.82-.68,4.12,4.12,0,0,0,.55-2.36V20.69a4.59,4.59,0,0,0-.5-2.5,2,2,0,0,0-1.7-.74Z" transform="translate(0)" fill="#fff"/>
          <path d="M363.75,28.09V15.29h4a4.52,4.52,0,0,1,3,.9,3.25,3.25,0,0,1,1,2.61,3.13,3.13,0,0,1-.43,1.68,2.57,2.57,0,0,1-1.18,1,2.19,2.19,0,0,1,1.33,1,3.36,3.36,0,0,1,.47,1.83,3.62,3.62,0,0,1-1,2.81,4.21,4.21,0,0,1-3,.95Zm2.58-7.44h1.35a1.37,1.37,0,0,0,1.52-1.58,1.8,1.8,0,0,0-.35-1.24,1.48,1.48,0,0,0-1.14-.38h-1.38Zm0,1.88V26H368a1.31,1.31,0,0,0,1.05-.43,1.88,1.88,0,0,0,.36-1.23c0-1.14-.41-1.73-1.25-1.76Z" transform="translate(0)" fill="#fff"/>
          <path d="M374.46,31.32l-1.32-.7.33-.62a4.43,4.43,0,0,0,.58-2.09v-2h2.16V27.7a4.59,4.59,0,0,1-.47,1.93A4.86,4.86,0,0,1,374.46,31.32Z" transform="translate(0)" fill="#fff"/>
          <path d="M390.73,23.34l1.22-8h2.55l-2.27,12.8h-2.6l-1.49-7.54-1.48,7.54h-2.6l-2.28-12.8h2.57l1.21,8,1.5-8h2.17Z" transform="translate(0)" fill="#fff"/>
          <path d="M398.93,24.43l-.66.74v2.92h-2.49V14.59h2.49v7.3l.3-.46,1.73-2.85h3L400.5,22.5l3,5.59h-2.85Z" transform="translate(0)" fill="#fff"/>
          <path d="M413.94,28.09h-2.49V18.32l-2.44.94V17.18l4.67-1.9h.26Z" transform="translate(0)" fill="#fff"/>
          <path d="M424.75,18.7a3.41,3.41,0,0,1-.4,1.65,3.09,3.09,0,0,1-1.09,1.15,3.35,3.35,0,0,1,1.25,1.23,3.7,3.7,0,0,1,.46,1.85,3.65,3.65,0,0,1-1,2.7,3.6,3.6,0,0,1-2.68,1,3.68,3.68,0,0,1-2.7-1,3.61,3.61,0,0,1-1-2.7,3.6,3.6,0,0,1,.46-1.85,3.15,3.15,0,0,1,1.25-1.23,3.09,3.09,0,0,1-1.09-1.15,3.3,3.3,0,0,1-.4-1.65,3.56,3.56,0,0,1,.94-2.63,3.82,3.82,0,0,1,5.05,0A3.56,3.56,0,0,1,424.75,18.7Zm-3.45,7.5a1,1,0,0,0,.87-.48,2.5,2.5,0,0,0,.3-1.33,2.46,2.46,0,0,0-.32-1.34,1,1,0,0,0-1.74,0,2.37,2.37,0,0,0-.32,1.34,2.32,2.32,0,0,0,.32,1.33A1,1,0,0,0,421.3,26.2Zm1-7.37a2.56,2.56,0,0,0-.24-1.2.83.83,0,0,0-1.47,0,2.52,2.52,0,0,0-.24,1.21,2.6,2.6,0,0,0,.24,1.21.8.8,0,0,0,.74.47A.78.78,0,0,0,422,20,2.6,2.6,0,0,0,422.27,18.83Z" transform="translate(0)" fill="#fff"/>
        </g>
        <path d="M434.87,22.87h-7.69V20.78h7.69Z" transform="translate(0)" fill="#fff"/>
        <g>
          <path d="M443.09,23.26h1.09v2.06h-1.09v2.77H440.6V25.32h-4.24l-.11-1.61,4.34-8.42h2.5Zm-4.42,0h1.93V19l-.05.09Z" transform="translate(0)" fill="#fff"/>
          <path d="M452.19,23.26h1.09v2.06h-1.09v2.77H449.7V25.32h-4.23l-.12-1.61,4.35-8.42h2.49Zm-4.42,0h1.93V19l-.05.09Z" transform="translate(0)" fill="#fff"/>
        </g>
      </g>
    </g>
  </g>
</svg>
