<svg xmlns="http://www.w3.org/2000/svg" width="427.83" height="340.42" viewBox="0 0 427.83 340.42">
  <g id="Layer_2" data-name="Layer 2">
    <g id="Layer_1-2" data-name="Layer 1">
      <g>
        <g>
          <g opacity="0.7">
            <rect width="427.83" height="71.86" fill="#bf6b04"/>
          </g>
          <g opacity="0.3">
            <rect x="0.67" y="102.66" width="427.17" height="29.72" fill="#bf6b04"/>
          </g>
          <g opacity="0.3">
            <rect x="0.67" y="162.82" width="427.17" height="29.72" fill="#bf6b04"/>
          </g>
        </g>
        <g>
          <path d="M7.7,90.37h4.08V92.2H5.37V81.32H7.7Z" fill="#4d4d4d"/>
          <path d="M14.79,88.68l1.13-4.57h2.39l-2.81,9.3a2.44,2.44,0,0,1-2.38,2,3.68,3.68,0,0,1-.92-.14V93.67h.26a1.41,1.41,0,0,0,.79-.19,1.24,1.24,0,0,0,.4-.67l.17-.54-2.47-8.17h2.41Z" fill="#4d4d4d"/>
          <path d="M21.37,84.11l.07.75a2.45,2.45,0,0,1,2-.9,1.86,1.86,0,0,1,1.81,1.09A2.4,2.4,0,0,1,27.33,84c1.5,0,2.26,1,2.3,2.94v5.3H27.39V87a1.92,1.92,0,0,0-.2-1,.79.79,0,0,0-.7-.3,1,1,0,0,0-.93.73V92.2H23.34V87.05a2,2,0,0,0-.2-1,.79.79,0,0,0-.71-.31,1,1,0,0,0-.91.59V92.2H19.28V84.11Z" fill="#4d4d4d"/>
          <path d="M38,88.41a5.19,5.19,0,0,1-.69,2.92,2.33,2.33,0,0,1-2.06,1,2,2,0,0,1-1.68-.8V95.3H31.28V84.11h2.08l.08.74A2,2,0,0,1,35.18,84a2.4,2.4,0,0,1,2.06.94A5,5,0,0,1,38,87.79Zm-2.23-.53a3.66,3.66,0,0,0-.27-1.66,1,1,0,0,0-.92-.49,1.09,1.09,0,0,0-1,.55v3.79a1.07,1.07,0,0,0,1,.52.93.93,0,0,0,.92-.53,3.82,3.82,0,0,0,.26-1.65Z" fill="#4d4d4d"/>
          <path d="M41.49,84.82A2.25,2.25,0,0,1,43.27,84a2.11,2.11,0,0,1,1.78.78,3.69,3.69,0,0,1,.62,2.32V92.2H43.42V87.08a1.74,1.74,0,0,0-.23-1,.87.87,0,0,0-.75-.32,1.07,1.07,0,0,0-.95.53V92.2H39.25V80.72h2.24Z" fill="#4d4d4d"/>
          <path d="M47,87.89A4.23,4.23,0,0,1,47.93,85,3.2,3.2,0,0,1,50.47,84,3.24,3.24,0,0,1,53,85a4.25,4.25,0,0,1,.91,2.9v.51A4.23,4.23,0,0,1,53,91.31a3.63,3.63,0,0,1-5.1,0A4.23,4.23,0,0,1,47,88.41Zm2.24.53c0,1.45.41,2.17,1.23,2.17s1.16-.6,1.22-1.81v-.89a3.23,3.23,0,0,0-.32-1.64,1,1,0,0,0-.92-.53,1,1,0,0,0-.89.53,3.34,3.34,0,0,0-.32,1.64Z" fill="#4d4d4d"/>
          <path d="M58.43,90.59q1,0,1-1.2h2.1a2.88,2.88,0,0,1-.86,2.14,3,3,0,0,1-2.18.82,3.21,3.21,0,0,1-2.53-1,4.2,4.2,0,0,1-.88-2.86v-.64A4.32,4.32,0,0,1,55.93,85a3.16,3.16,0,0,1,2.53-1,3,3,0,0,1,2.23.83,3.25,3.25,0,0,1,.83,2.34h-2.1a2.07,2.07,0,0,0-.24-1,.82.82,0,0,0-.76-.37.93.93,0,0,0-.84.39,3.16,3.16,0,0,0-.27,1.52v.82a6,6,0,0,0,.11,1.38,1,1,0,0,0,.34.58A1.07,1.07,0,0,0,58.43,90.59Z" fill="#4d4d4d"/>
          <path d="M65.53,88.68l1.14-4.57h2.39l-2.82,9.3a2.43,2.43,0,0,1-2.38,2,3.75,3.75,0,0,1-.92-.14V93.67h.27a1.38,1.38,0,0,0,.78-.19,1.18,1.18,0,0,0,.4-.67l.18-.54L62.1,84.11h2.4Z" fill="#4d4d4d"/>
          <path d="M72.62,82.13v2h1.14V85.7H72.62v4a1.06,1.06,0,0,0,.14.65.64.64,0,0,0,.53.18,2,2,0,0,0,.53,0l0,1.64a3.53,3.53,0,0,1-1.23.21c-1.44,0-2.17-.79-2.19-2.35V85.7h-1V84.11h1v-2Z" fill="#4d4d4d"/>
          <path d="M78.45,92.35a3.61,3.61,0,0,1-2.69-1,3.73,3.73,0,0,1-1-2.78V88a4.42,4.42,0,0,1,.89-3,3.17,3.17,0,0,1,2.54-1,3,3,0,0,1,2.43,1,4.47,4.47,0,0,1,.83,2.88v1H77a2.06,2.06,0,0,0,.42,1.31,1.46,1.46,0,0,0,1.15.42,2.59,2.59,0,0,0,1.87-.72l.88,1.27a2.82,2.82,0,0,1-1.19.87A4.34,4.34,0,0,1,78.45,92.35Zm-1.41-5h2.24v-.2a2.15,2.15,0,0,0-.26-1.1.88.88,0,0,0-.82-.37,1,1,0,0,0-.85.39A2.59,2.59,0,0,0,77,87.39Z" fill="#4d4d4d"/>
          <path d="M86.53,90a.65.65,0,0,0-.27-.5A5.68,5.68,0,0,0,85,88.92a5.22,5.22,0,0,1-1.9-1.1,2,2,0,0,1-.52-1.41,2.21,2.21,0,0,1,.81-1.76A3.21,3.21,0,0,1,85.58,84a3.44,3.44,0,0,1,2.25.69,2.24,2.24,0,0,1,.85,1.85H86.44q0-1-.87-1a.83.83,0,0,0-.58.21.72.72,0,0,0-.23.58.61.61,0,0,0,.25.48,6,6,0,0,0,1.2.58,5.05,5.05,0,0,1,1.93,1.07,2.26,2.26,0,0,1-.3,3.26,3.61,3.61,0,0,1-2.26.66A3.79,3.79,0,0,1,83.92,92a2.75,2.75,0,0,1-1.13-1,2.39,2.39,0,0,1-.4-1.34h2.12a1.18,1.18,0,0,0,.28.83,1.08,1.08,0,0,0,.84.28C86.23,90.8,86.53,90.54,86.53,90Z" fill="#4d4d4d"/>
        </g>
        <g>
          <path d="M13.42,122.8H11.1l-3.4-7.13v7.13H5.37V111.92H7.7l3.41,7.14v-7.14h2.31Z" fill="#4d4d4d"/>
          <path d="M18.64,123A3.61,3.61,0,0,1,16,122a3.76,3.76,0,0,1-1-2.78v-.64a4.45,4.45,0,0,1,.89-3,3.15,3.15,0,0,1,2.54-1,3,3,0,0,1,2.42,1,4.47,4.47,0,0,1,.84,2.88v1H17.21a2.11,2.11,0,0,0,.42,1.32,1.49,1.49,0,0,0,1.15.41,2.59,2.59,0,0,0,1.87-.72l.88,1.28a2.9,2.9,0,0,1-1.19.87A4.37,4.37,0,0,1,18.64,123Zm-1.41-5h2.24v-.2a2.08,2.08,0,0,0-.26-1.09.89.89,0,0,0-.82-.38.94.94,0,0,0-.85.4A2.55,2.55,0,0,0,17.23,118Z" fill="#4d4d4d"/>
          <path d="M27.14,122.06a2.27,2.27,0,0,1-1.87.89,2.17,2.17,0,0,1-1.79-.77,3.55,3.55,0,0,1-.6-2.23v-5.23h2.23V120c0,.78.29,1.18.83,1.18a1.16,1.16,0,0,0,1.11-.63v-5.84h2.26v8.08H27.2Z" fill="#4d4d4d"/>
          <path d="M33.51,112.73v2h1.14v1.58H33.51v4a1.17,1.17,0,0,0,.13.66.66.66,0,0,0,.54.18,2,2,0,0,0,.53-.06l0,1.65a3.78,3.78,0,0,1-1.23.2c-1.45,0-2.18-.78-2.19-2.35v-4.3h-1v-1.58h1v-2Z" fill="#4d4d4d"/>
          <path d="M40.1,116.76l-.74-.06a1.21,1.21,0,0,0-1.24.76v5.34H35.87v-8.08H38l.07.87a1.61,1.61,0,0,1,1.46-1,1.81,1.81,0,0,1,.62.09Z" fill="#4d4d4d"/>
          <path d="M40.71,118.5a4.25,4.25,0,0,1,.92-2.89,3.63,3.63,0,0,1,5.09,0,4.27,4.27,0,0,1,.92,2.9V119a4.2,4.2,0,0,1-.91,2.88,3.65,3.65,0,0,1-5.1,0,4.26,4.26,0,0,1-.92-2.9ZM43,119c0,1.44.41,2.16,1.22,2.16s1.16-.6,1.22-1.8v-.89a3.29,3.29,0,0,0-.32-1.64,1,1,0,0,0-.92-.54,1,1,0,0,0-.89.54A3.29,3.29,0,0,0,43,118.5Z" fill="#4d4d4d"/>
          <path d="M55.7,119a5.16,5.16,0,0,1-.69,2.92A2.33,2.33,0,0,1,53,123a2,2,0,0,1-1.68-.8v3.76H49V114.72h2.08l.07.74a2,2,0,0,1,1.75-.89,2.39,2.39,0,0,1,2.06.94,5,5,0,0,1,.71,2.88Zm-2.23-.53a3.69,3.69,0,0,0-.27-1.66,1,1,0,0,0-.92-.48,1.09,1.09,0,0,0-1,.54v3.79a1.07,1.07,0,0,0,1,.52.92.92,0,0,0,.92-.53,4,4,0,0,0,.26-1.65Z" fill="#4d4d4d"/>
          <path d="M59.24,115.43a2.22,2.22,0,0,1,1.78-.86,2.14,2.14,0,0,1,1.78.77,3.76,3.76,0,0,1,.62,2.32v5.14H61.17v-5.12a1.76,1.76,0,0,0-.23-1,.89.89,0,0,0-.76-.31,1,1,0,0,0-.94.53v5.93H57V111.32h2.24Z" fill="#4d4d4d"/>
          <path d="M65,112.62a1.06,1.06,0,0,1,.33-.8,1.22,1.22,0,0,1,.88-.32,1.24,1.24,0,0,1,.89.32,1.15,1.15,0,0,1,0,1.61,1.23,1.23,0,0,1-.89.32,1.24,1.24,0,0,1-.89-.32A1.06,1.06,0,0,1,65,112.62Zm2.34,10.18H65.13v-8.08h2.24Z" fill="#4d4d4d"/>
          <path d="M71.46,122.8H69.21V111.32h2.25Z" fill="#4d4d4d"/>
          <path d="M77,120.63a.62.62,0,0,0-.28-.49,5,5,0,0,0-1.21-.62,5,5,0,0,1-1.9-1.1,2,2,0,0,1-.52-1.41,2.19,2.19,0,0,1,.81-1.75,3.21,3.21,0,0,1,2.15-.69,3.49,3.49,0,0,1,2.25.68,2.26,2.26,0,0,1,.85,1.85H76.89q0-1-.87-1a.85.85,0,0,0-.59.21.78.78,0,0,0-.23.59.62.62,0,0,0,.26.47,5.68,5.68,0,0,0,1.19.59A5,5,0,0,1,78.59,119a2.13,2.13,0,0,1,.56,1.52,2.1,2.1,0,0,1-.86,1.74A3.63,3.63,0,0,1,76,123a3.79,3.79,0,0,1-1.66-.35,2.68,2.68,0,0,1-1.13-1,2.37,2.37,0,0,1-.41-1.33H75a1.25,1.25,0,0,0,.27.83,1.11,1.11,0,0,0,.84.27C76.68,121.4,77,121.15,77,120.63Z" fill="#4d4d4d"/>
        </g>
        <g>
          <path d="M13.45,153.4H11.13v-4.65H7.7v4.65H5.37V142.52H7.7v4.41h3.43v-4.41h2.32Z" fill="#4d4d4d"/>
          <path d="M18.66,153.55a3.61,3.61,0,0,1-2.69-1,3.79,3.79,0,0,1-1-2.78v-.64a4.4,4.4,0,0,1,.88-2.95,3.13,3.13,0,0,1,2.54-1,3,3,0,0,1,2.43,1,4.48,4.48,0,0,1,.83,2.89v1H17.24a2.11,2.11,0,0,0,.42,1.32,1.44,1.44,0,0,0,1.14.42,2.62,2.62,0,0,0,1.88-.73l.87,1.28a2.82,2.82,0,0,1-1.19.87A4.33,4.33,0,0,1,18.66,153.55Zm-1.41-5h2.24v-.19a2.13,2.13,0,0,0-.25-1.1.91.91,0,0,0-.83-.37,1,1,0,0,0-.85.39A2.7,2.7,0,0,0,17.25,148.59Z" fill="#4d4d4d"/>
          <path d="M25.06,145.32l.06.75a2.46,2.46,0,0,1,2-.9,1.86,1.86,0,0,1,1.81,1.09A2.37,2.37,0,0,1,31,145.17q2.25,0,2.31,2.94v5.29H31.08v-5.16a1.79,1.79,0,0,0-.21-1,.78.78,0,0,0-.69-.3,1,1,0,0,0-.94.72l0,.26v5.48H27v-5.14a2,2,0,0,0-.2-1,.75.75,0,0,0-.7-.31,1,1,0,0,0-.92.59v5.87H23v-8.08Z" fill="#4d4d4d"/>
          <path d="M34.71,149.1a4.15,4.15,0,0,1,.92-2.88,3.17,3.17,0,0,1,2.53-1.05,3.21,3.21,0,0,1,2.56,1.05,4.23,4.23,0,0,1,.92,2.89v.52a4.25,4.25,0,0,1-.91,2.88,3.2,3.2,0,0,1-2.55,1,3.24,3.24,0,0,1-2.56-1,4.25,4.25,0,0,1-.91-2.9Zm2.24.53c0,1.44.41,2.17,1.23,2.17s1.16-.61,1.22-1.81v-.89a3.2,3.2,0,0,0-.33-1.64,1,1,0,0,0-.92-.53,1,1,0,0,0-.89.53A3.32,3.32,0,0,0,37,149.1Z" fill="#4d4d4d"/>
          <path d="M42.76,149.11a4.76,4.76,0,0,1,.76-3,2.53,2.53,0,0,1,2.13-1,2.08,2.08,0,0,1,1.79.87l.09-.72h2v8.08a3,3,0,0,1-.92,2.37,3.86,3.86,0,0,1-2.64.82,4.41,4.41,0,0,1-1.47-.27,2.72,2.72,0,0,1-1.16-.68l.75-1.46a2.39,2.39,0,0,0,.82.51,2.71,2.71,0,0,0,1,.2,1.44,1.44,0,0,0,1.08-.34,1.58,1.58,0,0,0,.34-1.09v-.7a2.05,2.05,0,0,1-1.67.79,2.49,2.49,0,0,1-2.12-1,4.75,4.75,0,0,1-.76-2.84Zm2.24.53a3.25,3.25,0,0,0,.31,1.64,1.05,1.05,0,0,0,1,.51,1.17,1.17,0,0,0,1-.47v-3.86a1.13,1.13,0,0,0-1-.52,1.06,1.06,0,0,0-1,.52,3.15,3.15,0,0,0-.32,1.65Z" fill="#4d4d4d"/>
          <path d="M53.52,153.4H51.28V141.93h2.24Z" fill="#4d4d4d"/>
          <path d="M55,149.1a4.2,4.2,0,0,1,.92-2.88,3.2,3.2,0,0,1,2.54-1.05A3.24,3.24,0,0,1,61,146.22a4.23,4.23,0,0,1,.91,2.89v.52a4.2,4.2,0,0,1-.91,2.88,3.16,3.16,0,0,1-2.54,1,3.24,3.24,0,0,1-2.56-1,4.26,4.26,0,0,1-.92-2.9Zm2.25.53c0,1.44.41,2.17,1.23,2.17s1.16-.61,1.21-1.81v-.89a3.32,3.32,0,0,0-.32-1.64,1,1,0,0,0-.92-.53,1,1,0,0,0-.89.53,3.32,3.32,0,0,0-.32,1.64Z" fill="#4d4d4d"/>
          <path d="M70,149.62a5.35,5.35,0,0,1-.66,2.95,2.36,2.36,0,0,1-2.09,1,2.07,2.07,0,0,1-1.79-1l-.07.8H63.32V141.93h2.23v4a2,2,0,0,1,1.67-.81,2.34,2.34,0,0,1,2.09,1A5.2,5.2,0,0,1,70,149Zm-2.24-.53a3.66,3.66,0,0,0-.26-1.71,1,1,0,0,0-.91-.44,1.08,1.08,0,0,0-1,.61v3.68a1.08,1.08,0,0,0,1,.57,1,1,0,0,0,.89-.4,3.39,3.39,0,0,0,.26-1.54Z" fill="#4d4d4d"/>
          <path d="M71.34,143.23a1.07,1.07,0,0,1,.33-.81,1.21,1.21,0,0,1,.88-.31,1.24,1.24,0,0,1,.89.31,1.15,1.15,0,0,1,0,1.61,1.19,1.19,0,0,1-.89.32,1.2,1.2,0,0,1-.89-.32A1.06,1.06,0,0,1,71.34,143.23Zm2.34,10.17H71.44v-8.08h2.24Z" fill="#4d4d4d"/>
          <path d="M77.46,145.32l.07.8a2.42,2.42,0,0,1,2-1c1.47,0,2.23,1,2.27,2.92v5.31H79.54v-5.15a1.83,1.83,0,0,0-.22-1,.86.86,0,0,0-.76-.31,1,1,0,0,0-1,.59v5.87H75.36v-8.08Z" fill="#4d4d4d"/>
        </g>
        <g>
          <path d="M7.7,182.18h4.08V184H5.37V173.13H7.7Z" fill="#4d4d4d"/>
          <path d="M13,173.83a1.07,1.07,0,0,1,.33-.81,1.25,1.25,0,0,1,.89-.31,1.24,1.24,0,0,1,.89.31,1.07,1.07,0,0,1,.33.81,1.1,1.1,0,0,1-.33.81,1.23,1.23,0,0,1-.89.32,1.24,1.24,0,0,1-.89-.32A1.1,1.1,0,0,1,13,173.83ZM15.36,184H13.12v-8.09h2.24Z" fill="#4d4d4d"/>
          <path d="M23.76,180.22a5.19,5.19,0,0,1-.69,2.92,2.32,2.32,0,0,1-2.06,1,2,2,0,0,1-1.68-.8v3.76H17.09V175.92h2.08l.08.74a2,2,0,0,1,1.74-.89,2.4,2.4,0,0,1,2.06.94,5,5,0,0,1,.71,2.89Zm-2.23-.53a3.64,3.64,0,0,0-.27-1.66,1,1,0,0,0-.92-.49,1.07,1.07,0,0,0-1,.55v3.79a1.09,1.09,0,0,0,1,.52.93.93,0,0,0,.92-.53,3.88,3.88,0,0,0,.26-1.65Z" fill="#4d4d4d"/>
          <path d="M25.11,173.83a1,1,0,0,1,.34-.81,1.21,1.21,0,0,1,.88-.31,1.24,1.24,0,0,1,.89.31,1.07,1.07,0,0,1,.33.81,1.1,1.1,0,0,1-.33.81,1.23,1.23,0,0,1-.89.32,1.24,1.24,0,0,1-.89-.32A1.1,1.1,0,0,1,25.11,173.83ZM27.46,184H25.22v-8.09h2.24Z" fill="#4d4d4d"/>
          <path d="M28.89,179.72a5,5,0,0,1,.72-3,2.4,2.4,0,0,1,2.07-1,2,2,0,0,1,1.64.81v-4.05h2.26V184h-2l-.11-.83a2.08,2.08,0,0,1-1.77,1,2.36,2.36,0,0,1-2.05-1,5,5,0,0,1-.73-2.85Zm2.25.53a3.69,3.69,0,0,0,.27,1.67,1,1,0,0,0,.91.47,1.1,1.1,0,0,0,1-.56v-3.69a1.06,1.06,0,0,0-1-.6,1,1,0,0,0-.9.47,3.52,3.52,0,0,0-.29,1.68Z" fill="#4d4d4d"/>
          <path d="M41,181.84a.65.65,0,0,0-.27-.5,5.56,5.56,0,0,0-1.22-.62,5.09,5.09,0,0,1-1.9-1.09,2,2,0,0,1-.52-1.41,2.21,2.21,0,0,1,.81-1.76,3.23,3.23,0,0,1,2.15-.69,3.48,3.48,0,0,1,2.26.69,2.26,2.26,0,0,1,.84,1.84H40.92c0-.65-.29-1-.87-1a.83.83,0,0,0-.58.21.75.75,0,0,0-.23.58.58.58,0,0,0,.25.47,5.36,5.36,0,0,0,1.2.59,4.93,4.93,0,0,1,1.93,1.07,2.23,2.23,0,0,1-.3,3.26,3.59,3.59,0,0,1-2.26.65,3.79,3.79,0,0,1-1.66-.34,2.82,2.82,0,0,1-1.13-1,2.39,2.39,0,0,1-.4-1.34H39a1.28,1.28,0,0,0,.28.83,1.08,1.08,0,0,0,.84.28C40.71,182.61,41,182.35,41,181.84Z" fill="#4d4d4d"/>
        </g>
        <path d="M46.61,178.91a1.17,1.17,0,0,1-.11-.37,1.13,1.13,0,0,1-1,.46,1.44,1.44,0,0,1-1-.39,1.33,1.33,0,0,1-.41-1,1.4,1.4,0,0,1,.5-1.15A2.35,2.35,0,0,1,46,176h.39v-.38a.74.74,0,0,0-.11-.45.46.46,0,0,0-.34-.13c-.32,0-.49.18-.49.54h-1.3a1.31,1.31,0,0,1,.52-1.07,2,2,0,0,1,1.31-.43,1.83,1.83,0,0,1,1.27.4,1.48,1.48,0,0,1,.45,1.16v2.21a2.25,2.25,0,0,0,.18,1v.07Zm-.77-.88a.84.84,0,0,0,.37-.08.62.62,0,0,0,.22-.2v-1h-.31a.69.69,0,0,0-.52.2.74.74,0,0,0-.19.54C45.41,177.86,45.55,178,45.84,178Z" fill="#4d4d4d"/>
        <g>
          <path d="M7.7,212.79h4.08v1.82H5.37V203.73H7.7Z" fill="#4d4d4d"/>
          <path d="M13,204.43a1,1,0,0,1,.33-.8,1.26,1.26,0,0,1,.89-.32,1.24,1.24,0,0,1,.89.32,1,1,0,0,1,.33.8,1.07,1.07,0,0,1-.33.81,1.23,1.23,0,0,1-.89.32,1.24,1.24,0,0,1-.89-.32A1.07,1.07,0,0,1,13,204.43Zm2.35,10.18H13.12v-8.09h2.24Z" fill="#4d4d4d"/>
          <path d="M19.9,211.62l1.09-5.1h2.33L21,214.61H18.83l-2.35-8.09h2.34Z" fill="#4d4d4d"/>
          <path d="M27.73,214.76a3.65,3.65,0,0,1-2.69-1,3.8,3.8,0,0,1-1-2.78v-.65a4.44,4.44,0,0,1,.88-3,3.16,3.16,0,0,1,2.54-1,3,3,0,0,1,2.43,1,4.47,4.47,0,0,1,.83,2.88v1H26.31a2.11,2.11,0,0,0,.42,1.32,1.47,1.47,0,0,0,1.14.41,2.61,2.61,0,0,0,1.88-.72l.87,1.27a2.92,2.92,0,0,1-1.19.88A4.33,4.33,0,0,1,27.73,214.76Zm-1.41-5h2.24v-.2a2.15,2.15,0,0,0-.25-1.1.93.93,0,0,0-.83-.37.94.94,0,0,0-.85.4A2.63,2.63,0,0,0,26.32,209.8Z" fill="#4d4d4d"/>
          <path d="M36.25,208.56l-.75-.06a1.23,1.23,0,0,0-1.24.77v5.34H32v-8.09h2.11l.06.88a1.61,1.61,0,0,1,1.46-1,1.77,1.77,0,0,1,.62.09Z" fill="#4d4d4d"/>
          <path d="M44.58,214.76a3.66,3.66,0,0,1-2.69-1,3.8,3.8,0,0,1-1-2.78v-.65a4.44,4.44,0,0,1,.89-3,3.14,3.14,0,0,1,2.53-1,3,3,0,0,1,2.43,1,4.41,4.41,0,0,1,.83,2.88v1H43.16a2.11,2.11,0,0,0,.42,1.32,1.49,1.49,0,0,0,1.15.41,2.59,2.59,0,0,0,1.87-.72l.88,1.27a3,3,0,0,1-1.2.88A4.29,4.29,0,0,1,44.58,214.76Zm-1.4-5h2.23v-.2a2.15,2.15,0,0,0-.25-1.1.91.91,0,0,0-.82-.37.94.94,0,0,0-.85.4A2.52,2.52,0,0,0,43.18,209.8Z" fill="#4d4d4d"/>
          <path d="M50.93,206.52l.06.8a2.43,2.43,0,0,1,2-.94c1.47,0,2.22,1,2.27,2.92v5.31H53v-5.16a1.71,1.71,0,0,0-.22-1,.85.85,0,0,0-.76-.31,1,1,0,0,0-1,.59v5.87H48.82v-8.09Z" fill="#4d4d4d"/>
          <path d="M59.33,212.85h3.38v1.76h-6v-1.32l3.31-5H56.75v-1.77h5.91v1.28Z" fill="#4d4d4d"/>
          <path d="M66.93,211.09l1.14-4.57h2.39l-2.82,9.3a2.44,2.44,0,0,1-2.38,2.05,3.27,3.27,0,0,1-.92-.14v-1.65h.26a1.41,1.41,0,0,0,.79-.19,1.19,1.19,0,0,0,.4-.66l.17-.55-2.46-8.17h2.4Z" fill="#4d4d4d"/>
          <path d="M73.52,206.52l.06.75a2.44,2.44,0,0,1,2-.89,1.86,1.86,0,0,1,1.82,1.09,2.36,2.36,0,0,1,2.09-1.09c1.5,0,2.27,1,2.3,2.93v5.3H79.53v-5.16a1.84,1.84,0,0,0-.2-1,.81.81,0,0,0-.7-.29,1,1,0,0,0-.93.72l0,.25v5.49H75.48v-5.15a1.92,1.92,0,0,0-.2-1,.76.76,0,0,0-.7-.31,1,1,0,0,0-.92.59v5.87H71.42v-8.09Z" fill="#4d4d4d"/>
          <path d="M86.88,214.76a3.66,3.66,0,0,1-2.69-1,3.8,3.8,0,0,1-1-2.78v-.65a4.44,4.44,0,0,1,.88-3,3.16,3.16,0,0,1,2.54-1,3,3,0,0,1,2.43,1,4.47,4.47,0,0,1,.83,2.88v1H85.46a2.11,2.11,0,0,0,.42,1.32A1.48,1.48,0,0,0,87,213a2.61,2.61,0,0,0,1.88-.72l.88,1.27a3,3,0,0,1-1.2.88A4.33,4.33,0,0,1,86.88,214.76Zm-1.41-5h2.24v-.2a2.15,2.15,0,0,0-.25-1.1.91.91,0,0,0-.82-.37.93.93,0,0,0-.85.4A2.61,2.61,0,0,0,85.47,209.8Z" fill="#4d4d4d"/>
          <path d="M95,212.44a.65.65,0,0,0-.28-.49,5,5,0,0,0-1.21-.62,5.13,5.13,0,0,1-1.9-1.1,2,2,0,0,1-.52-1.41,2.19,2.19,0,0,1,.81-1.75,3.21,3.21,0,0,1,2.15-.69,3.43,3.43,0,0,1,2.25.68,2.28,2.28,0,0,1,.85,1.85H94.88q0-1-.87-1a.85.85,0,0,0-.59.21.77.77,0,0,0-.23.58.62.62,0,0,0,.26.48,5.32,5.32,0,0,0,1.19.58,5.11,5.11,0,0,1,1.94,1.07,2.13,2.13,0,0,1,.56,1.52,2.1,2.1,0,0,1-.86,1.74,3.63,3.63,0,0,1-2.26.66,3.79,3.79,0,0,1-1.66-.35,2.68,2.68,0,0,1-1.13-1,2.39,2.39,0,0,1-.41-1.33H93a1.22,1.22,0,0,0,.27.82,1.08,1.08,0,0,0,.84.28C94.67,213.21,95,213,95,212.44Z" fill="#4d4d4d"/>
        </g>
        <path d="M102.08,207.31a3.08,3.08,0,0,1-.39,1.72,1.37,1.37,0,0,1-1.22.57,1.21,1.21,0,0,1-1-.55l0,.46h-1.2v-6.69h1.3v2.36a1.19,1.19,0,0,1,1-.47,1.36,1.36,0,0,1,1.21.57,3,3,0,0,1,.4,1.67Zm-1.31-.31a2.21,2.21,0,0,0-.15-1,.56.56,0,0,0-.53-.25.63.63,0,0,0-.6.35v2.15a.63.63,0,0,0,.61.33.58.58,0,0,0,.52-.23,1.86,1.86,0,0,0,.15-.9Z" fill="#4d4d4d"/>
        <g>
          <path d="M164.33,210.21h-2.69v4.53h-.9V203.86h3.15a3.33,3.33,0,0,1,2.44.85,3.13,3.13,0,0,1,.87,2.36,3.22,3.22,0,0,1-.54,1.85,2.8,2.8,0,0,1-1.45,1.1l2.4,4.62v.1h-1Zm-2.69-.79h2.41a2.12,2.12,0,0,0,1.63-.66,2.43,2.43,0,0,0,.61-1.69,2.33,2.33,0,0,0-.64-1.77,2.39,2.39,0,0,0-1.77-.63h-2.24Z" fill="#4d4d4d"/>
          <path d="M169.13,210.29a4.22,4.22,0,0,1,.84-2.77,3.11,3.11,0,0,1,4.58,0,4.2,4.2,0,0,1,.84,2.75v.86a4.15,4.15,0,0,1-.84,2.77,2.81,2.81,0,0,1-2.28,1,2.84,2.84,0,0,1-2.27-1,4.19,4.19,0,0,1-.87-2.68Zm.89.83a3.56,3.56,0,0,0,.6,2.19,2.14,2.14,0,0,0,3.31,0,3.63,3.63,0,0,0,.58-2.2v-.86a3.56,3.56,0,0,0-.6-2.19,1.94,1.94,0,0,0-1.65-.81,1.92,1.92,0,0,0-1.62.79,3.52,3.52,0,0,0-.62,2.15Z" fill="#4d4d4d"/>
          <path d="M182,213.78a2.49,2.49,0,0,1-2.25,1.11,2.09,2.09,0,0,1-1.76-.76,3.71,3.71,0,0,1-.6-2.24v-5.23h.87v5.2a2.88,2.88,0,0,0,.41,1.67,1.38,1.38,0,0,0,1.19.57,2,2,0,0,0,2.13-1.53v-5.91h.88v8.08H182Z" fill="#4d4d4d"/>
          <path d="M186.53,204.59v2.07H188v.74h-1.47v5.37a1.82,1.82,0,0,0,.21,1,.77.77,0,0,0,.7.33,4,4,0,0,0,.64-.08l0,.75a2.19,2.19,0,0,1-.86.13c-1,0-1.56-.67-1.58-2V207.4h-1.32v-.74h1.32v-2.07Z" fill="#4d4d4d"/>
          <path d="M189.88,204.32a.66.66,0,0,1,.15-.43.52.52,0,0,1,.43-.18.54.54,0,0,1,.43.18.66.66,0,0,1,.15.43.63.63,0,0,1-.15.43.54.54,0,0,1-.43.18.52.52,0,0,1-.43-.18A.63.63,0,0,1,189.88,204.32Zm1,10.42H190v-8.08h.88Z" fill="#4d4d4d"/>
          <path d="M194.16,206.66l0,1.28a3.17,3.17,0,0,1,1-1.05,2.44,2.44,0,0,1,1.34-.38c1.49,0,2.26.93,2.3,2.81v5.42h-.87v-5.33a2.67,2.67,0,0,0-.41-1.6,1.46,1.46,0,0,0-1.24-.51,1.81,1.81,0,0,0-1.24.49,3,3,0,0,0-.83,1.34v5.61h-.88v-8.08Z" fill="#4d4d4d"/>
          <path d="M203.94,214.89a3.05,3.05,0,0,1-2.36-.93,3.87,3.87,0,0,1-.87-2.66v-1a4.28,4.28,0,0,1,.82-2.79,2.74,2.74,0,0,1,2.26-1,2.63,2.63,0,0,1,2.13.86,4.06,4.06,0,0,1,.74,2.63v.77h-5.08v.46a3.25,3.25,0,0,0,.63,2.14,2.16,2.16,0,0,0,1.77.76,2.59,2.59,0,0,0,2.05-.88l.46.56A3,3,0,0,1,203.94,214.89Zm-.15-7.61a1.92,1.92,0,0,0-1.59.69,3.38,3.38,0,0,0-.61,2h4.2v-.22C205.74,208.11,205.08,207.28,203.79,207.28Z" fill="#4d4d4d"/>
          <path d="M213,206.66l0,1.21a2.51,2.51,0,0,1,2.29-1.36,2,2,0,0,1,2.14,1.48,2.8,2.8,0,0,1,1-1.11,2.68,2.68,0,0,1,1.39-.37c1.54,0,2.32.93,2.36,2.81v5.42h-.88v-5.37a2.55,2.55,0,0,0-.41-1.56,1.52,1.52,0,0,0-1.29-.51,1.87,1.87,0,0,0-1.38.6,2.26,2.26,0,0,0-.64,1.46v5.38h-.89v-5.35a2.55,2.55,0,0,0-.41-1.58,1.58,1.58,0,0,0-1.3-.51,1.81,1.81,0,0,0-1.24.47,2.7,2.7,0,0,0-.77,1.34v5.63h-.87v-8.08Z" fill="#4d4d4d"/>
          <path d="M224.18,210.29a4.22,4.22,0,0,1,.84-2.77,3.11,3.11,0,0,1,4.58,0,4.26,4.26,0,0,1,.84,2.75v.86a4.15,4.15,0,0,1-.84,2.77,2.81,2.81,0,0,1-2.28,1,2.84,2.84,0,0,1-2.27-1,4.08,4.08,0,0,1-.87-2.68Zm.89.83a3.56,3.56,0,0,0,.6,2.19,2.14,2.14,0,0,0,3.31,0,3.63,3.63,0,0,0,.58-2.2v-.86a3.56,3.56,0,0,0-.6-2.19,1.94,1.94,0,0,0-1.65-.81,1.92,1.92,0,0,0-1.62.79,3.46,3.46,0,0,0-.62,2.15Z" fill="#4d4d4d"/>
          <path d="M233.3,206.66l0,1.28a3,3,0,0,1,1-1.05,2.47,2.47,0,0,1,1.35-.38c1.49,0,2.25.93,2.29,2.81v5.42h-.87v-5.33a2.74,2.74,0,0,0-.4-1.6,1.49,1.49,0,0,0-1.25-.51,1.78,1.78,0,0,0-1.23.49,3,3,0,0,0-.84,1.34v5.61h-.88v-8.08Z" fill="#4d4d4d"/>
          <path d="M240.23,204.32a.66.66,0,0,1,.15-.43.52.52,0,0,1,.43-.18.54.54,0,0,1,.43.18.66.66,0,0,1,.15.43.63.63,0,0,1-.15.43.54.54,0,0,1-.43.18.52.52,0,0,1-.43-.18A.63.63,0,0,1,240.23,204.32Zm1,10.42h-.88v-8.08h.88Z" fill="#4d4d4d"/>
          <path d="M245,204.59v2.07h1.47v.74H245v5.37a1.82,1.82,0,0,0,.21,1,.76.76,0,0,0,.7.33,4.09,4.09,0,0,0,.63-.08l0,.75a2.19,2.19,0,0,1-.86.13c-1,0-1.56-.67-1.59-2V207.4h-1.32v-.74h1.32v-2.07Z" fill="#4d4d4d"/>
          <path d="M247.89,210.29a4.22,4.22,0,0,1,.84-2.77,3.1,3.1,0,0,1,4.57,0,4.2,4.2,0,0,1,.85,2.75v.86a4.1,4.1,0,0,1-.85,2.77,2.79,2.79,0,0,1-2.27,1,2.84,2.84,0,0,1-2.27-1,4.08,4.08,0,0,1-.87-2.68Zm.89.83a3.63,3.63,0,0,0,.59,2.19,2.15,2.15,0,0,0,3.32,0,3.7,3.7,0,0,0,.58-2.2v-.86a3.56,3.56,0,0,0-.6-2.19,2.08,2.08,0,0,0-3.28,0,3.52,3.52,0,0,0-.61,2.15Z" fill="#4d4d4d"/>
          <path d="M259.53,207.43a4.27,4.27,0,0,0-.56-.05,1.72,1.72,0,0,0-1.22.47,2.62,2.62,0,0,0-.7,1.31v5.58h-.88v-8.08H257l0,1.21a2.06,2.06,0,0,1,2-1.36,1.23,1.23,0,0,1,.53.09Z" fill="#4d4d4d"/>
          <path d="M261,204.32a.66.66,0,0,1,.15-.43.52.52,0,0,1,.42-.18.52.52,0,0,1,.43.18.62.62,0,0,1,.16.43.59.59,0,0,1-.16.43.52.52,0,0,1-.43.18.52.52,0,0,1-.42-.18A.63.63,0,0,1,261,204.32Zm1,10.42h-.89v-8.08h.89Z" fill="#4d4d4d"/>
          <path d="M265.32,206.66l0,1.28a3,3,0,0,1,1-1.05,2.44,2.44,0,0,1,1.34-.38c1.49,0,2.26.93,2.29,2.81v5.42h-.87v-5.33a2.67,2.67,0,0,0-.4-1.6,1.48,1.48,0,0,0-1.24-.51,1.81,1.81,0,0,0-1.24.49,3,3,0,0,0-.84,1.34v5.61h-.87v-8.08Z" fill="#4d4d4d"/>
          <path d="M272,210.32a4.86,4.86,0,0,1,.69-2.86,2.41,2.41,0,0,1,2.09-1,2.36,2.36,0,0,1,2.2,1.27l.05-1.12h.81V215a3.09,3.09,0,0,1-.74,2.23,2.82,2.82,0,0,1-2.13.76,3.38,3.38,0,0,1-1.42-.33,2.84,2.84,0,0,1-1.09-.8l.41-.6a2.69,2.69,0,0,0,2,1,2,2,0,0,0,1.55-.53,2.39,2.39,0,0,0,.5-1.63v-1.29a2.66,2.66,0,0,1-4.23.21,4.61,4.61,0,0,1-.73-2.74Zm.88.76a4.12,4.12,0,0,0,.5,2.28,1.77,1.77,0,0,0,1.57.74,2.05,2.05,0,0,0,2-1.28v-4.13a2,2,0,0,0-2-1.38,1.78,1.78,0,0,0-1.57.72,4.09,4.09,0,0,0-.51,2.24Z" fill="#4d4d4d"/>
          <path d="M283.46,210.29a4.22,4.22,0,0,1,.84-2.77,3.1,3.1,0,0,1,4.57,0,4.2,4.2,0,0,1,.85,2.75v.86a4.15,4.15,0,0,1-.85,2.77,3.11,3.11,0,0,1-4.54,0,4.08,4.08,0,0,1-.87-2.68Zm.88.83a3.56,3.56,0,0,0,.6,2.19,2.15,2.15,0,0,0,3.32,0,3.7,3.7,0,0,0,.58-2.2v-.86a3.56,3.56,0,0,0-.6-2.19,2,2,0,0,0-1.66-.81,1.92,1.92,0,0,0-1.62.79,3.59,3.59,0,0,0-.62,2.15Z" fill="#4d4d4d"/>
          <path d="M292.32,214.74V207.4h-1.18v-.74h1.18v-1.07a2.69,2.69,0,0,1,.59-1.84,2,2,0,0,1,1.58-.64,2.86,2.86,0,0,1,.85.12l-.06.77a2.9,2.9,0,0,0-.72-.09,1.2,1.2,0,0,0-1,.46,2,2,0,0,0-.36,1.29v1h1.68v.74H293.2v7.34Z" fill="#4d4d4d"/>
          <path d="M301.22,214.74h-.88V203.26h.88Z" fill="#4d4d4d"/>
          <path d="M303.62,204.32a.66.66,0,0,1,.15-.43.52.52,0,0,1,.43-.18.54.54,0,0,1,.43.18.66.66,0,0,1,.15.43.63.63,0,0,1-.15.43.54.54,0,0,1-.43.18.52.52,0,0,1-.43-.18A.63.63,0,0,1,303.62,204.32Zm1,10.42h-.88v-8.08h.88Z" fill="#4d4d4d"/>
          <path d="M309.33,213.44l2.1-6.78h.91l-2.67,8.08H309l-2.68-8.08h.9Z" fill="#4d4d4d"/>
          <path d="M316.66,214.89a3.06,3.06,0,0,1-2.37-.93,4,4,0,0,1-.87-2.66v-1a4.28,4.28,0,0,1,.83-2.79,2.74,2.74,0,0,1,2.26-1,2.59,2.59,0,0,1,2.12.86,4,4,0,0,1,.75,2.63v.77h-5.09v.46a3.25,3.25,0,0,0,.63,2.14,2.17,2.17,0,0,0,1.78.76,2.61,2.61,0,0,0,2.05-.88l.46.56A3,3,0,0,1,316.66,214.89Zm-.15-7.61a1.92,1.92,0,0,0-1.59.69,3.38,3.38,0,0,0-.62,2h4.2v-.22C318.46,208.11,317.8,207.28,316.51,207.28Z" fill="#4d4d4d"/>
          <path d="M324.6,207.43a4,4,0,0,0-.55-.05,1.73,1.73,0,0,0-1.23.47,2.61,2.61,0,0,0-.69,1.31v5.58h-.88v-8.08h.86l0,1.21a2,2,0,0,1,2-1.36,1.26,1.26,0,0,1,.53.09Z" fill="#4d4d4d"/>
          <path d="M330.36,214.74V207.4h-1.18v-.74h1.18v-1.07a2.74,2.74,0,0,1,.59-1.84,2,2,0,0,1,1.58-.64,2.86,2.86,0,0,1,.85.12l-.06.77a2.9,2.9,0,0,0-.72-.09,1.2,1.2,0,0,0-1,.46,2,2,0,0,0-.36,1.29v1h1.68v.74h-1.68v7.34Z" fill="#4d4d4d"/>
          <path d="M339.23,213.78a2.49,2.49,0,0,1-2.25,1.11,2.09,2.09,0,0,1-1.76-.76,3.71,3.71,0,0,1-.6-2.24v-5.23h.87v5.2a2.88,2.88,0,0,0,.41,1.67,1.38,1.38,0,0,0,1.19.57,2,2,0,0,0,2.13-1.53v-5.91h.88v8.08h-.85Z" fill="#4d4d4d"/>
          <path d="M343.28,206.66l0,1.28a3,3,0,0,1,1-1.05,2.47,2.47,0,0,1,1.35-.38c1.49,0,2.25.93,2.29,2.81v5.42H347v-5.33a2.74,2.74,0,0,0-.4-1.6,1.49,1.49,0,0,0-1.25-.51,1.78,1.78,0,0,0-1.23.49,3,3,0,0,0-.84,1.34v5.61h-.88v-8.08Z" fill="#4d4d4d"/>
          <path d="M353,214.11a1.94,1.94,0,0,0,1.41-.48,2,2,0,0,0,.52-1.39h.85a2.67,2.67,0,0,1-.84,1.94,2.76,2.76,0,0,1-1.94.71,2.87,2.87,0,0,1-2.31-.92,4.22,4.22,0,0,1-.79-2.74v-1a4.3,4.3,0,0,1,.78-2.79,2.82,2.82,0,0,1,2.31-.94,2.69,2.69,0,0,1,2,.75,3.1,3.1,0,0,1,.78,2.12h-.85a2.37,2.37,0,0,0-.53-1.55,1.84,1.84,0,0,0-1.41-.55,1.91,1.91,0,0,0-1.67.73,3.7,3.7,0,0,0-.54,2.22v.92a3.76,3.76,0,0,0,.54,2.26A2,2,0,0,0,353,214.11Z" fill="#4d4d4d"/>
          <path d="M358.91,204.59v2.07h1.46v.74h-1.46v5.37a1.82,1.82,0,0,0,.21,1,.76.76,0,0,0,.7.33,4.09,4.09,0,0,0,.63-.08l0,.75a2.21,2.21,0,0,1-.87.13c-1,0-1.55-.67-1.58-2V207.4h-1.32v-.74H358v-2.07Z" fill="#4d4d4d"/>
          <path d="M362.26,204.32a.66.66,0,0,1,.15-.43.52.52,0,0,1,.42-.18.52.52,0,0,1,.43.18.62.62,0,0,1,.16.43.59.59,0,0,1-.16.43.52.52,0,0,1-.43.18.52.52,0,0,1-.42-.18A.63.63,0,0,1,362.26,204.32Zm1,10.42h-.89v-8.08h.89Z" fill="#4d4d4d"/>
          <path d="M365.36,210.29a4.22,4.22,0,0,1,.84-2.77,3.11,3.11,0,0,1,4.58,0,4.2,4.2,0,0,1,.84,2.75v.86a4.15,4.15,0,0,1-.84,2.77,2.81,2.81,0,0,1-2.28,1,2.84,2.84,0,0,1-2.27-1,4.19,4.19,0,0,1-.87-2.68Zm.89.83a3.56,3.56,0,0,0,.6,2.19,2.14,2.14,0,0,0,3.31,0,3.63,3.63,0,0,0,.58-2.2v-.86a3.56,3.56,0,0,0-.6-2.19,1.94,1.94,0,0,0-1.65-.81,1.92,1.92,0,0,0-1.62.79,3.52,3.52,0,0,0-.62,2.15Z" fill="#4d4d4d"/>
          <path d="M374.48,206.66l0,1.28a3,3,0,0,1,1-1.05,2.44,2.44,0,0,1,1.34-.38c1.49,0,2.25.93,2.29,2.81v5.42h-.87v-5.33a2.67,2.67,0,0,0-.4-1.6,1.48,1.48,0,0,0-1.24-.51,1.79,1.79,0,0,0-1.24.49,3,3,0,0,0-.84,1.34v5.61h-.87v-8.08Z" fill="#4d4d4d"/>
          <path d="M385.05,204.32a.66.66,0,0,1,.15-.43.52.52,0,0,1,.43-.18.54.54,0,0,1,.43.18.66.66,0,0,1,.15.43.63.63,0,0,1-.15.43.54.54,0,0,1-.43.18.52.52,0,0,1-.43-.18A.63.63,0,0,1,385.05,204.32Zm1,10.42h-.88v-8.08h.88Z" fill="#4d4d4d"/>
          <path d="M392.77,212.75a1.17,1.17,0,0,0-.46-.92,6.24,6.24,0,0,0-1.55-.85,8.58,8.58,0,0,1-1.53-.78,2,2,0,0,1-.64-.68,1.69,1.69,0,0,1-.21-.86,2,2,0,0,1,.71-1.55,3.19,3.19,0,0,1,3.79,0,2.16,2.16,0,0,1,.73,1.71h-.88a1.51,1.51,0,0,0-.5-1.14,1.84,1.84,0,0,0-1.29-.45,1.86,1.86,0,0,0-1.23.38,1.18,1.18,0,0,0-.46,1,1,1,0,0,0,.35.79,7.12,7.12,0,0,0,1.5.83,9.6,9.6,0,0,1,1.65.81,2.55,2.55,0,0,1,.68.72,1.83,1.83,0,0,1,.23.93,1.93,1.93,0,0,1-.74,1.59,3,3,0,0,1-1.94.59,3.11,3.11,0,0,1-2.06-.66,2.11,2.11,0,0,1-.78-1.69H389a1.59,1.59,0,0,0,.53,1.16,2.21,2.21,0,0,0,1.43.41,2.09,2.09,0,0,0,1.3-.37A1.18,1.18,0,0,0,392.77,212.75Z" fill="#4d4d4d"/>
        </g>
        <g>
          <path d="M163.91,238a3,3,0,0,0-.55-.06,1.72,1.72,0,0,0-1.22.47,2.66,2.66,0,0,0-.7,1.31v5.58h-.88v-8.08h.86l0,1.21a2.06,2.06,0,0,1,2-1.36,1.09,1.09,0,0,1,.53.1Z" fill="#4d4d4d"/>
          <path d="M168.13,245.49a3.05,3.05,0,0,1-2.36-.93,3.85,3.85,0,0,1-.87-2.66v-1a4.31,4.31,0,0,1,.82-2.79,2.77,2.77,0,0,1,2.26-1,2.66,2.66,0,0,1,2.13.86,4.08,4.08,0,0,1,.75,2.63v.78h-5.09v.45a3.28,3.28,0,0,0,.63,2.15,2.18,2.18,0,0,0,1.77.75,2.62,2.62,0,0,0,2.05-.87l.46.55A3,3,0,0,1,168.13,245.49Zm-.15-7.6a1.92,1.92,0,0,0-1.59.69,3.35,3.35,0,0,0-.61,2H170v-.22C169.94,238.72,169.27,237.89,168,237.89Z" fill="#4d4d4d"/>
          <path d="M175.43,244.72a1.91,1.91,0,0,0,1.4-.49,1.94,1.94,0,0,0,.53-1.39h.85a2.68,2.68,0,0,1-.84,1.95,2.75,2.75,0,0,1-1.94.7,2.87,2.87,0,0,1-2.31-.92,4.22,4.22,0,0,1-.79-2.74v-1a4.3,4.3,0,0,1,.78-2.79,2.81,2.81,0,0,1,2.31-.94,2.65,2.65,0,0,1,2,.76,3.06,3.06,0,0,1,.78,2.12h-.85a2.33,2.33,0,0,0-.53-1.55,1.8,1.8,0,0,0-1.41-.55,1.93,1.93,0,0,0-1.67.72,3.7,3.7,0,0,0-.54,2.22v.92a3.74,3.74,0,0,0,.54,2.26A2,2,0,0,0,175.43,244.72Z" fill="#4d4d4d"/>
          <path d="M179.74,240.89a4.17,4.17,0,0,1,.84-2.76,2.78,2.78,0,0,1,2.28-1,2.82,2.82,0,0,1,2.29,1,4.17,4.17,0,0,1,.84,2.76v.86a4.17,4.17,0,0,1-.84,2.77,3.12,3.12,0,0,1-4.54,0,4.07,4.07,0,0,1-.87-2.67Zm.88.83a3.59,3.59,0,0,0,.6,2.2,2,2,0,0,0,1.66.8,1.94,1.94,0,0,0,1.65-.77,3.67,3.67,0,0,0,.59-2.2v-.86a3.53,3.53,0,0,0-.61-2.2,2.09,2.09,0,0,0-3.27,0,3.53,3.53,0,0,0-.62,2.16Z" fill="#4d4d4d"/>
          <path d="M188.83,237.26l0,1.21a2.51,2.51,0,0,1,2.29-1.36,2,2,0,0,1,2.14,1.49,2.76,2.76,0,0,1,1-1.12,2.68,2.68,0,0,1,1.39-.37c1.54,0,2.32.94,2.36,2.81v5.42h-.88V240a2.55,2.55,0,0,0-.41-1.56,1.53,1.53,0,0,0-1.3-.51,1.87,1.87,0,0,0-1.37.6,2.31,2.31,0,0,0-.64,1.46v5.38h-.89V240a2.52,2.52,0,0,0-.41-1.57,1.56,1.56,0,0,0-1.3-.52,1.81,1.81,0,0,0-1.24.47,2.74,2.74,0,0,0-.77,1.35v5.62H188v-8.08Z" fill="#4d4d4d"/>
          <path d="M201.17,237.26l0,1.21a2.5,2.5,0,0,1,2.29-1.36,2,2,0,0,1,2.13,1.49,2.83,2.83,0,0,1,1-1.12,2.71,2.71,0,0,1,1.39-.37c1.54,0,2.33.94,2.37,2.81v5.42h-.88V240a2.62,2.62,0,0,0-.41-1.56,1.56,1.56,0,0,0-1.3-.51,1.91,1.91,0,0,0-1.38.6,2.42,2.42,0,0,0-.64,1.46v5.38h-.88V240a2.45,2.45,0,0,0-.42-1.57,1.52,1.52,0,0,0-1.29-.52,1.83,1.83,0,0,0-1.25.47,2.73,2.73,0,0,0-.76,1.35v5.62h-.88v-8.08Z" fill="#4d4d4d"/>
          <path d="M215.53,245.49a3.05,3.05,0,0,1-2.36-.93,3.85,3.85,0,0,1-.87-2.66v-1a4.31,4.31,0,0,1,.82-2.79,2.77,2.77,0,0,1,2.26-1,2.66,2.66,0,0,1,2.13.86,4.08,4.08,0,0,1,.75,2.63v.78h-5.09v.45a3.28,3.28,0,0,0,.63,2.15,2.18,2.18,0,0,0,1.77.75,2.62,2.62,0,0,0,2.05-.87l.46.55A3,3,0,0,1,215.53,245.49Zm-.15-7.6a1.92,1.92,0,0,0-1.59.69,3.35,3.35,0,0,0-.61,2h4.2v-.22C217.33,238.72,216.67,237.89,215.38,237.89Z" fill="#4d4d4d"/>
          <path d="M221,237.26l0,1.28a3.23,3.23,0,0,1,1-1,2.39,2.39,0,0,1,1.34-.39c1.5,0,2.26.94,2.3,2.82v5.41h-.87V240a2.62,2.62,0,0,0-.41-1.6,1.44,1.44,0,0,0-1.24-.52,1.81,1.81,0,0,0-1.24.49,3.1,3.1,0,0,0-.83,1.34v5.61h-.88v-8.08Z" fill="#4d4d4d"/>
          <path d="M227.6,240.93a4.8,4.8,0,0,1,.71-2.86,2.42,2.42,0,0,1,2.09-1,2.35,2.35,0,0,1,2.17,1.23v-4.47h.88v11.47h-.82l0-1a2.65,2.65,0,0,1-4.26.22,4.72,4.72,0,0,1-.73-2.76Zm.9.75A4.17,4.17,0,0,0,229,244a1.76,1.76,0,0,0,1.57.73,2.11,2.11,0,0,0,2-1.25v-4.19a2,2,0,0,0-2-1.35,1.77,1.77,0,0,0-1.57.72,4.05,4.05,0,0,0-.5,2.25Z" fill="#4d4d4d"/>
          <path d="M238.65,245.49a3.06,3.06,0,0,1-2.37-.93,3.85,3.85,0,0,1-.87-2.66v-1a4.31,4.31,0,0,1,.82-2.79,2.79,2.79,0,0,1,2.27-1,2.65,2.65,0,0,1,2.12.86,4,4,0,0,1,.75,2.63v.78h-5.09v.45a3.28,3.28,0,0,0,.63,2.15,2.18,2.18,0,0,0,1.77.75,2.62,2.62,0,0,0,2-.87l.46.55A3,3,0,0,1,238.65,245.49Zm-.15-7.6a1.93,1.93,0,0,0-1.6.69,3.41,3.41,0,0,0-.61,2h4.2v-.22C240.45,238.72,239.78,237.89,238.5,237.89Z" fill="#4d4d4d"/>
          <path d="M242.92,240.93a4.81,4.81,0,0,1,.7-2.86,2.43,2.43,0,0,1,2.09-1,2.35,2.35,0,0,1,2.17,1.23v-4.47h.88v11.47h-.82l0-1a2.65,2.65,0,0,1-4.26.22,4.72,4.72,0,0,1-.72-2.76Zm.89.75a4.17,4.17,0,0,0,.49,2.29,1.76,1.76,0,0,0,1.57.73,2.09,2.09,0,0,0,2-1.25v-4.19a2,2,0,0,0-2-1.35,1.78,1.78,0,0,0-1.57.72,4.14,4.14,0,0,0-.5,2.25Z" fill="#4d4d4d"/>
          <path d="M251,247.38l-.56-.39a3.12,3.12,0,0,0,.74-1.9v-1.17h.93v.92A3.17,3.17,0,0,1,251,247.38Z" fill="#4d4d4d"/>
          <path d="M262.4,245.34a4.56,4.56,0,0,1-.16-1.12,2.7,2.7,0,0,1-1,.94,2.81,2.81,0,0,1-1.35.33,2.37,2.37,0,0,1-1.72-.59,2.21,2.21,0,0,1-.62-1.68,2.29,2.29,0,0,1,.86-1.88,3.68,3.68,0,0,1,2.37-.7h1.47v-1.13a1.56,1.56,0,0,0-.45-1.25,2.08,2.08,0,0,0-1.34-.37,2,2,0,0,0-1.33.45,1.43,1.43,0,0,0-.53,1.15h-.87a2.14,2.14,0,0,1,.79-1.69,2.9,2.9,0,0,1,2-.69,2.81,2.81,0,0,1,2,.61,2.33,2.33,0,0,1,.66,1.79v4a5.23,5.23,0,0,0,.23,1.78v.09Zm-2.42-.65a2.47,2.47,0,0,0,1.38-.38,2.24,2.24,0,0,0,.87-1v-2h-1.39a2.87,2.87,0,0,0-1.81.51,1.57,1.57,0,0,0-.61,1.31A1.37,1.37,0,0,0,260,244.69Z" fill="#4d4d4d"/>
          <path d="M266.34,237.26l0,1.28a3.13,3.13,0,0,1,1-1,2.37,2.37,0,0,1,1.34-.39c1.49,0,2.26.94,2.29,2.82v5.41h-.87V240a2.63,2.63,0,0,0-.4-1.6,1.45,1.45,0,0,0-1.24-.52,1.81,1.81,0,0,0-1.24.49,2.92,2.92,0,0,0-.83,1.34v5.61h-.88v-8.08Z" fill="#4d4d4d"/>
          <path d="M273,240.93a4.81,4.81,0,0,1,.7-2.86,2.43,2.43,0,0,1,2.09-1,2.37,2.37,0,0,1,2.18,1.23v-4.47h.87v11.47H278l0-1a2.65,2.65,0,0,1-4.26.22,4.72,4.72,0,0,1-.72-2.76Zm.89.75a4.16,4.16,0,0,0,.5,2.29,1.75,1.75,0,0,0,1.57.73,2.11,2.11,0,0,0,2-1.25v-4.19a2.06,2.06,0,0,0-2-1.35,1.75,1.75,0,0,0-1.57.72,4.13,4.13,0,0,0-.51,2.25Z" fill="#4d4d4d"/>
          <path d="M290.67,241.68a4.88,4.88,0,0,1-.69,2.84,2.33,2.33,0,0,1-2.05,1,2.47,2.47,0,0,1-2.22-1.12v4.08h-.87V237.26h.8l0,1.1a2.46,2.46,0,0,1,2.22-1.25A2.42,2.42,0,0,1,290,238a4.79,4.79,0,0,1,.69,2.83Zm-.88-.76a4,4,0,0,0-.51-2.28,1.8,1.8,0,0,0-1.59-.73,2,2,0,0,0-2,1.33v4.26a2.05,2.05,0,0,0,2,1.22,1.79,1.79,0,0,0,1.57-.74,3.94,3.94,0,0,0,.51-2.25Z" fill="#4d4d4d"/>
          <path d="M296.07,238a3.06,3.06,0,0,0-.56-.06,1.72,1.72,0,0,0-1.22.47,2.66,2.66,0,0,0-.7,1.31v5.58h-.88v-8.08h.86l0,1.21a2.06,2.06,0,0,1,2-1.36,1.09,1.09,0,0,1,.53.1Z" fill="#4d4d4d"/>
          <path d="M297.13,240.89a4.17,4.17,0,0,1,.84-2.76,3.09,3.09,0,0,1,4.57,0,4.23,4.23,0,0,1,.85,2.76v.86a4.12,4.12,0,0,1-.85,2.77,3.12,3.12,0,0,1-4.54,0,4.07,4.07,0,0,1-.87-2.67Zm.89.83a3.66,3.66,0,0,0,.59,2.2,2.15,2.15,0,0,0,3.32,0,3.74,3.74,0,0,0,.58-2.2v-.86a3.59,3.59,0,0,0-.6-2.2,2.1,2.1,0,0,0-3.28,0,3.53,3.53,0,0,0-.61,2.16Z" fill="#4d4d4d"/>
          <path d="M306.22,237.26l0,1.21a2.52,2.52,0,0,1,2.3-1.36,2,2,0,0,1,2.13,1.49,2.83,2.83,0,0,1,1-1.12,2.71,2.71,0,0,1,1.39-.37c1.54,0,2.33.94,2.36,2.81v5.42h-.87V240a2.62,2.62,0,0,0-.41-1.56,1.56,1.56,0,0,0-1.3-.51,1.89,1.89,0,0,0-1.38.6,2.36,2.36,0,0,0-.64,1.46v5.38H310V240a2.45,2.45,0,0,0-.42-1.57,1.55,1.55,0,0,0-1.29-.52,1.83,1.83,0,0,0-1.25.47,2.73,2.73,0,0,0-.76,1.35v5.62h-.88v-8.08Z" fill="#4d4d4d"/>
          <path d="M323.6,241.68a4.88,4.88,0,0,1-.69,2.84,2.36,2.36,0,0,1-2.06,1,2.47,2.47,0,0,1-2.22-1.12v4.08h-.87V237.26h.8l0,1.1a2.46,2.46,0,0,1,2.23-1.25,2.41,2.41,0,0,1,2.07.93,4.79,4.79,0,0,1,.7,2.83Zm-.88-.76a4,4,0,0,0-.51-2.28,1.8,1.8,0,0,0-1.6-.73,2,2,0,0,0-2,1.33v4.26a2.05,2.05,0,0,0,2,1.22,1.78,1.78,0,0,0,1.57-.74,4,4,0,0,0,.52-2.25Z" fill="#4d4d4d"/>
          <path d="M327,235.2v2.06h1.46V238H327v5.37a1.87,1.87,0,0,0,.21,1,.78.78,0,0,0,.7.32,3.8,3.8,0,0,0,.63-.07l0,.75a2.42,2.42,0,0,1-.86.12c-1,0-1.56-.66-1.58-2V238h-1.32v-.75h1.32V235.2Z" fill="#4d4d4d"/>
          <path d="M333.94,234.93a.67.67,0,0,1,.15-.44.55.55,0,0,1,.43-.17.56.56,0,0,1,.43.17.67.67,0,0,1,.15.44.64.64,0,0,1-.15.43.56.56,0,0,1-.43.17.55.55,0,0,1-.43-.17A.64.64,0,0,1,333.94,234.93Zm1,10.41h-.88v-8.08H335Z" fill="#4d4d4d"/>
          <path d="M338.22,237.26l0,1.28a3.23,3.23,0,0,1,1-1,2.37,2.37,0,0,1,1.34-.39c1.49,0,2.26.94,2.3,2.82v5.41H342V240a2.62,2.62,0,0,0-.41-1.6,1.44,1.44,0,0,0-1.24-.52,1.81,1.81,0,0,0-1.24.49,3.1,3.1,0,0,0-.83,1.34v5.61h-.88v-8.08Z" fill="#4d4d4d"/>
          <path d="M347.45,244l2.1-6.78h.9l-2.66,8.08h-.7l-2.68-8.08h.9Z" fill="#4d4d4d"/>
          <path d="M354.78,245.49a3.06,3.06,0,0,1-2.37-.93,3.85,3.85,0,0,1-.87-2.66v-1a4.32,4.32,0,0,1,.83-2.79,2.75,2.75,0,0,1,2.26-1,2.64,2.64,0,0,1,2.12.86,4,4,0,0,1,.75,2.63v.78h-5.09v.45A3.28,3.28,0,0,0,353,244a2.19,2.19,0,0,0,1.78.75,2.65,2.65,0,0,0,2.05-.87l.46.55A3,3,0,0,1,354.78,245.49Zm-.15-7.6a2,2,0,0,0-1.6.69,3.41,3.41,0,0,0-.61,2h4.2v-.22C356.58,238.72,355.91,237.89,354.63,237.89Z" fill="#4d4d4d"/>
          <path d="M363.65,243.35a1.18,1.18,0,0,0-.46-.91,6.5,6.5,0,0,0-1.56-.86,8.58,8.58,0,0,1-1.53-.78,2.12,2.12,0,0,1-.64-.67,1.75,1.75,0,0,1-.2-.87,1.91,1.91,0,0,1,.71-1.54,2.71,2.71,0,0,1,1.84-.61,2.85,2.85,0,0,1,1.95.65,2.21,2.21,0,0,1,.72,1.72h-.87a1.48,1.48,0,0,0-.5-1.14,1.89,1.89,0,0,0-1.3-.45,1.86,1.86,0,0,0-1.23.37,1.2,1.2,0,0,0-.45,1,1,1,0,0,0,.34.79,7.09,7.09,0,0,0,1.51.83,8.94,8.94,0,0,1,1.64.82,2.28,2.28,0,0,1,.68.71,1.83,1.83,0,0,1,.23.93,1.92,1.92,0,0,1-.73,1.59,3,3,0,0,1-1.94.59,3.14,3.14,0,0,1-2.06-.65,2.11,2.11,0,0,1-.79-1.7h.89a1.5,1.5,0,0,0,.53,1.16,2.16,2.16,0,0,0,1.43.42,2,2,0,0,0,1.29-.38A1.19,1.19,0,0,0,363.65,243.35Z" fill="#4d4d4d"/>
          <path d="M367.92,235.2v2.06h1.46V238h-1.46v5.37a1.87,1.87,0,0,0,.21,1,.78.78,0,0,0,.7.32,3.8,3.8,0,0,0,.63-.07l0,.75a2.42,2.42,0,0,1-.86.12c-1,0-1.56-.66-1.58-2V238h-1.32v-.75H367V235.2Z" fill="#4d4d4d"/>
          <path d="M371.26,234.93a.67.67,0,0,1,.15-.44.55.55,0,0,1,.43-.17.56.56,0,0,1,.43.17.67.67,0,0,1,.15.44.64.64,0,0,1-.15.43.56.56,0,0,1-.43.17.55.55,0,0,1-.43-.17A.64.64,0,0,1,371.26,234.93Zm1,10.41h-.88v-8.08h.88Z" fill="#4d4d4d"/>
          <path d="M374.39,240.93a4.89,4.89,0,0,1,.7-2.87,2.43,2.43,0,0,1,2.09-.95,2.37,2.37,0,0,1,2.2,1.28l0-1.13h.82v8.31a3.14,3.14,0,0,1-.74,2.23,2.82,2.82,0,0,1-2.13.76,3.34,3.34,0,0,1-1.42-.33,2.74,2.74,0,0,1-1.09-.8l.41-.59a2.71,2.71,0,0,0,2,.95,2,2,0,0,0,1.56-.54,2.39,2.39,0,0,0,.49-1.63v-1.29a2.65,2.65,0,0,1-4.22.21,4.59,4.59,0,0,1-.74-2.74Zm.89.75a4.16,4.16,0,0,0,.5,2.29,1.74,1.74,0,0,0,1.56.73,2.05,2.05,0,0,0,2-1.28v-4.13a2,2,0,0,0-2-1.38,1.77,1.77,0,0,0-1.57.72,4,4,0,0,0-.51,2.25Z" fill="#4d4d4d"/>
          <path d="M387.1,245.34a4.65,4.65,0,0,1-.15-1.12,2.78,2.78,0,0,1-1,.94,2.81,2.81,0,0,1-1.35.33,2.35,2.35,0,0,1-1.72-.59,2.21,2.21,0,0,1-.62-1.68,2.29,2.29,0,0,1,.86-1.88,3.68,3.68,0,0,1,2.37-.7h1.47v-1.13a1.53,1.53,0,0,0-.46-1.25,2,2,0,0,0-1.33-.37,2,2,0,0,0-1.34.45,1.45,1.45,0,0,0-.52,1.15h-.88a2.18,2.18,0,0,1,.79-1.69,2.92,2.92,0,0,1,2-.69,2.76,2.76,0,0,1,1.95.61,2.3,2.3,0,0,1,.67,1.79v4a5,5,0,0,0,.23,1.78v.09Zm-2.41-.65a2.41,2.41,0,0,0,1.37-.38,2.27,2.27,0,0,0,.88-1v-2h-1.39a2.9,2.9,0,0,0-1.82.51,1.59,1.59,0,0,0-.6,1.31A1.37,1.37,0,0,0,384.69,244.69Z" fill="#4d4d4d"/>
          <path d="M391.52,235.2v2.06H393V238h-1.47v5.37a1.87,1.87,0,0,0,.21,1,.79.79,0,0,0,.7.32,3.8,3.8,0,0,0,.64-.07l0,.75a2.42,2.42,0,0,1-.86.12c-1,0-1.56-.66-1.58-2V238h-1.32v-.75h1.32V235.2Z" fill="#4d4d4d"/>
          <path d="M394.87,234.93a.67.67,0,0,1,.15-.44.55.55,0,0,1,.43-.17.56.56,0,0,1,.43.17.67.67,0,0,1,.15.44.64.64,0,0,1-.15.43.56.56,0,0,1-.43.17.55.55,0,0,1-.43-.17A.64.64,0,0,1,394.87,234.93Zm1,10.41H395v-8.08h.88Z" fill="#4d4d4d"/>
          <path d="M398,240.89a4.17,4.17,0,0,1,.84-2.76,3.09,3.09,0,0,1,4.57,0,4.17,4.17,0,0,1,.84,2.76v.86a4.17,4.17,0,0,1-.84,2.77,3.12,3.12,0,0,1-4.54,0,4.07,4.07,0,0,1-.87-2.67Zm.88.83a3.59,3.59,0,0,0,.6,2.2,2.15,2.15,0,0,0,3.32,0,3.74,3.74,0,0,0,.58-2.2v-.86a3.59,3.59,0,0,0-.6-2.2,2.1,2.1,0,0,0-3.28,0,3.6,3.6,0,0,0-.62,2.16Z" fill="#4d4d4d"/>
          <path d="M407.1,237.26l0,1.28a3.23,3.23,0,0,1,1-1,2.37,2.37,0,0,1,1.34-.39c1.49,0,2.26.94,2.3,2.82v5.41h-.87V240a2.62,2.62,0,0,0-.41-1.6,1.45,1.45,0,0,0-1.24-.52,1.81,1.81,0,0,0-1.24.49,3.1,3.1,0,0,0-.83,1.34v5.61h-.88v-8.08Z" fill="#4d4d4d"/>
        </g>
        <g>
          <path d="M160.23,271.49a4.21,4.21,0,0,1,.84-2.76,2.8,2.8,0,0,1,2.28-1,2.83,2.83,0,0,1,2.29,1,4.23,4.23,0,0,1,.85,2.76v.86a4.17,4.17,0,0,1-.85,2.77,3.12,3.12,0,0,1-4.54,0,4.05,4.05,0,0,1-.87-2.67Zm.88.84a3.56,3.56,0,0,0,.6,2.19,2.15,2.15,0,0,0,3.32,0,3.72,3.72,0,0,0,.58-2.2v-.86a3.61,3.61,0,0,0-.6-2.2,2,2,0,0,0-1.66-.8,1.94,1.94,0,0,0-1.62.78,3.62,3.62,0,0,0-.62,2.16Z" fill="#4d4d4d"/>
          <path d="M169.09,276v-7.34h-1.18v-.75h1.18V266.8a2.67,2.67,0,0,1,.59-1.84,2,2,0,0,1,1.58-.65,2.57,2.57,0,0,1,.85.13l-.06.76a3.45,3.45,0,0,0-.72-.08,1.22,1.22,0,0,0-1,.45,2,2,0,0,0-.36,1.3v1h1.68v.75H170V276Z" fill="#4d4d4d"/>
          <path d="M178.33,265.8v2.06h1.47v.75h-1.47V274a1.87,1.87,0,0,0,.21,1,.77.77,0,0,0,.7.33,4.18,4.18,0,0,0,.64-.08l0,.75a2.42,2.42,0,0,1-.86.12c-1,0-1.56-.66-1.58-2v-5.48h-1.33v-.75h1.33V265.8Z" fill="#4d4d4d"/>
          <path d="M182.59,269.13a3,3,0,0,1,1-1,2.34,2.34,0,0,1,1.33-.39c1.49,0,2.26.94,2.3,2.82V276h-.87v-5.33a2.64,2.64,0,0,0-.41-1.6,1.48,1.48,0,0,0-1.24-.52,1.85,1.85,0,0,0-1.24.49,3.16,3.16,0,0,0-.83,1.34V276h-.88V264.47h.88Z" fill="#4d4d4d"/>
          <path d="M192.32,276.09a3.05,3.05,0,0,1-2.36-.93,3.85,3.85,0,0,1-.87-2.66v-1a4.31,4.31,0,0,1,.82-2.79,2.77,2.77,0,0,1,2.26-1,2.66,2.66,0,0,1,2.13.86,4.08,4.08,0,0,1,.75,2.63V272H190v.45a3.26,3.26,0,0,0,.63,2.15,2.18,2.18,0,0,0,1.77.75,2.62,2.62,0,0,0,2-.87l.46.55A3,3,0,0,1,192.32,276.09Zm-.15-7.6a1.92,1.92,0,0,0-1.59.69,3.35,3.35,0,0,0-.61,2h4.2V271C194.13,269.32,193.46,268.49,192.17,268.49Z" fill="#4d4d4d"/>
          <path d="M203.25,275.32a1.87,1.87,0,0,0,1.41-.49,1.94,1.94,0,0,0,.53-1.39H206a2.68,2.68,0,0,1-.84,1.95,2.78,2.78,0,0,1-1.95.7,2.83,2.83,0,0,1-2.3-.92,4.26,4.26,0,0,1-.8-2.74v-1a4.31,4.31,0,0,1,.78-2.8,2.86,2.86,0,0,1,2.32-.94,2.69,2.69,0,0,1,2,.76,3.08,3.08,0,0,1,.78,2.12h-.85a2.28,2.28,0,0,0-.54-1.55,1.78,1.78,0,0,0-1.4-.55,2,2,0,0,0-1.68.72,3.84,3.84,0,0,0-.53,2.23v.91a3.74,3.74,0,0,0,.54,2.26A2,2,0,0,0,203.25,275.32Z" fill="#4d4d4d"/>
          <path d="M212.42,276a5.22,5.22,0,0,1-.16-1.13,2.67,2.67,0,0,1-1,.94,2.87,2.87,0,0,1-1.35.33,2.43,2.43,0,0,1-1.73-.58,2.56,2.56,0,0,1,.25-3.57,3.67,3.67,0,0,1,2.36-.7h1.48v-1.13a1.53,1.53,0,0,0-.46-1.24,2.36,2.36,0,0,0-2.67.07,1.44,1.44,0,0,0-.52,1.16h-.88a2.19,2.19,0,0,1,.79-1.69,2.92,2.92,0,0,1,2-.69,2.81,2.81,0,0,1,2,.61,2.34,2.34,0,0,1,.67,1.79v4a5.07,5.07,0,0,0,.23,1.78V276ZM210,275.3a2.44,2.44,0,0,0,1.37-.39,2.27,2.27,0,0,0,.88-1v-2h-1.4a2.89,2.89,0,0,0-1.81.51,1.61,1.61,0,0,0-.61,1.32A1.38,1.38,0,0,0,210,275.3Z" fill="#4d4d4d"/>
          <path d="M220.11,275a2.51,2.51,0,0,1-2.25,1.11,2.08,2.08,0,0,1-1.76-.76,3.56,3.56,0,0,1-.6-2.24v-5.23h.87v5.21a2.88,2.88,0,0,0,.41,1.67,1.39,1.39,0,0,0,1.19.56,2,2,0,0,0,2.12-1.52v-5.92H221V276h-.85Z" fill="#4d4d4d"/>
          <path d="M227.6,274a1.16,1.16,0,0,0-.46-.91,6.4,6.4,0,0,0-1.55-.86,9.48,9.48,0,0,1-1.53-.77,2.14,2.14,0,0,1-.64-.68,1.7,1.7,0,0,1-.21-.87,2,2,0,0,1,.71-1.54,2.78,2.78,0,0,1,1.84-.61,2.82,2.82,0,0,1,2,.65,2.19,2.19,0,0,1,.73,1.72h-.88a1.48,1.48,0,0,0-.5-1.14,1.85,1.85,0,0,0-1.3-.45,1.9,1.9,0,0,0-1.23.37,1.21,1.21,0,0,0-.45,1,1,1,0,0,0,.35.8,7.12,7.12,0,0,0,1.5.83,8.91,8.91,0,0,1,1.65.81,2.39,2.39,0,0,1,.68.71,1.83,1.83,0,0,1,.23.93,2,2,0,0,1-.74,1.6,3,3,0,0,1-1.94.58,3.1,3.1,0,0,1-2.06-.65,2.14,2.14,0,0,1-.79-1.7h.89a1.58,1.58,0,0,0,.53,1.17,2.21,2.21,0,0,0,1.43.41,2.15,2.15,0,0,0,1.3-.37A1.18,1.18,0,0,0,227.6,274Z" fill="#4d4d4d"/>
          <path d="M233.37,276.09a3.05,3.05,0,0,1-2.36-.93,3.85,3.85,0,0,1-.87-2.66v-1a4.31,4.31,0,0,1,.82-2.79,2.77,2.77,0,0,1,2.26-1,2.66,2.66,0,0,1,2.13.86,4.08,4.08,0,0,1,.74,2.63V272H231v.45a3.26,3.26,0,0,0,.63,2.15,2.18,2.18,0,0,0,1.77.75,2.62,2.62,0,0,0,2.05-.87l.46.55A3,3,0,0,1,233.37,276.09Zm-.15-7.6a1.92,1.92,0,0,0-1.59.69,3.35,3.35,0,0,0-.61,2h4.2V271C235.17,269.32,234.51,268.49,233.22,268.49Z" fill="#4d4d4d"/>
          <path d="M242.24,274a1.16,1.16,0,0,0-.46-.91,6.4,6.4,0,0,0-1.55-.86,9.48,9.48,0,0,1-1.53-.77,2.14,2.14,0,0,1-.64-.68,1.7,1.7,0,0,1-.21-.87,2,2,0,0,1,.71-1.54,2.78,2.78,0,0,1,1.84-.61,2.82,2.82,0,0,1,1.95.65,2.19,2.19,0,0,1,.73,1.72h-.88a1.48,1.48,0,0,0-.5-1.14,1.85,1.85,0,0,0-1.3-.45,1.9,1.9,0,0,0-1.23.37,1.21,1.21,0,0,0-.45,1,1,1,0,0,0,.35.8,7.12,7.12,0,0,0,1.5.83,8.91,8.91,0,0,1,1.65.81,2.39,2.39,0,0,1,.68.71,1.83,1.83,0,0,1,.23.93,2,2,0,0,1-.74,1.6,3,3,0,0,1-1.94.58,3.1,3.1,0,0,1-2.06-.65,2.14,2.14,0,0,1-.79-1.7h.89a1.58,1.58,0,0,0,.53,1.17,2.21,2.21,0,0,0,1.43.41,2.15,2.15,0,0,0,1.3-.37A1.18,1.18,0,0,0,242.24,274Z" fill="#4d4d4d"/>
          <path d="M248.5,271.49a4.21,4.21,0,0,1,.83-2.76,2.8,2.8,0,0,1,2.29-1,2.85,2.85,0,0,1,2.29,1,4.17,4.17,0,0,1,.84,2.76v.86a4.17,4.17,0,0,1-.84,2.77,3.12,3.12,0,0,1-4.54,0,4.05,4.05,0,0,1-.87-2.67Zm.88.84a3.56,3.56,0,0,0,.6,2.19,2,2,0,0,0,1.66.8,1.94,1.94,0,0,0,1.65-.77,3.65,3.65,0,0,0,.58-2.2v-.86a3.61,3.61,0,0,0-.6-2.2,2,2,0,0,0-1.65-.8,1.94,1.94,0,0,0-1.62.78,3.55,3.55,0,0,0-.62,2.16Z" fill="#4d4d4d"/>
          <path d="M257.35,276v-7.34h-1.17v-.75h1.17V266.8a2.72,2.72,0,0,1,.59-1.84,2,2,0,0,1,1.59-.65,2.61,2.61,0,0,1,.85.13l-.07.76a3.36,3.36,0,0,0-.71-.08,1.2,1.2,0,0,0-1,.45,2,2,0,0,0-.36,1.3v1h1.68v.75h-1.68V276Z" fill="#4d4d4d"/>
          <path d="M266.26,276h-.89V264.47h.89Z" fill="#4d4d4d"/>
          <path d="M268.66,265.53a.64.64,0,0,1,.15-.43.52.52,0,0,1,.42-.18.52.52,0,0,1,.43.18.66.66,0,0,1,0,.86.52.52,0,0,1-.43.18.52.52,0,0,1-.42-.18A.64.64,0,0,1,268.66,265.53Zm1,10.42h-.89v-8.09h.89Z" fill="#4d4d4d"/>
          <path d="M274.37,274.65l2.1-6.79h.9L274.71,276H274l-2.68-8.09h.9Z" fill="#4d4d4d"/>
          <path d="M281.7,276.09a3.06,3.06,0,0,1-2.37-.93,3.85,3.85,0,0,1-.87-2.66v-1a4.37,4.37,0,0,1,.82-2.79,2.79,2.79,0,0,1,2.27-1,2.65,2.65,0,0,1,2.12.86,4,4,0,0,1,.75,2.63V272h-5.09v.45a3.26,3.26,0,0,0,.63,2.15,2.19,2.19,0,0,0,1.78.75,2.61,2.61,0,0,0,2-.87l.46.55A3,3,0,0,1,281.7,276.09Zm-.15-7.6a1.94,1.94,0,0,0-1.6.69,3.41,3.41,0,0,0-.61,2h4.2V271C283.5,269.32,282.83,268.49,281.55,268.49Z" fill="#4d4d4d"/>
          <path d="M289.64,268.64a3,3,0,0,0-.56-.05,1.68,1.68,0,0,0-1.22.47,2.63,2.63,0,0,0-.7,1.3V276h-.88v-8.09h.87v1.21a2.07,2.07,0,0,1,2-1.36,1.06,1.06,0,0,1,.53.1Z" fill="#4d4d4d"/>
          <path d="M297.64,276.09a3,3,0,0,1-2.36-.93,3.85,3.85,0,0,1-.87-2.66v-1a4.31,4.31,0,0,1,.82-2.79,2.77,2.77,0,0,1,2.26-1,2.62,2.62,0,0,1,2.12.86,4,4,0,0,1,.75,2.63V272h-5.08v.45a3.26,3.26,0,0,0,.63,2.15,2.17,2.17,0,0,0,1.77.75,2.63,2.63,0,0,0,2.05-.87l.46.55A3,3,0,0,1,297.64,276.09Zm-.15-7.6a1.92,1.92,0,0,0-1.59.69,3.41,3.41,0,0,0-.62,2h4.2V271C299.44,269.32,298.78,268.49,297.49,268.49Z" fill="#4d4d4d"/>
          <path d="M303.07,267.86l0,1.29a3.07,3.07,0,0,1,1-1,2.37,2.37,0,0,1,1.34-.39c1.49,0,2.26.94,2.29,2.82V276h-.87v-5.33a2.65,2.65,0,0,0-.4-1.6,1.48,1.48,0,0,0-1.24-.52,1.85,1.85,0,0,0-1.24.49,3.07,3.07,0,0,0-.83,1.34V276h-.88v-8.09Z" fill="#4d4d4d"/>
          <path d="M310.64,275.17h4.62V276h-5.67v-.68l4.33-6.63h-4.21v-.78H315v.68Z" fill="#4d4d4d"/>
          <path d="M319.27,274.58l2-6.72h.94l-3,9.38-.16.45a2,2,0,0,1-1.87,1.52,2.06,2.06,0,0,1-.63-.1v-.77a1.29,1.29,0,0,0,.4.06,1.37,1.37,0,0,0,.94-.33,2.37,2.37,0,0,0,.6-1l.36-1.15-2.69-8h1Z" fill="#4d4d4d"/>
          <path d="M324.57,267.86l0,1.21a2.52,2.52,0,0,1,2.29-1.36A2,2,0,0,1,329,269.2a2.73,2.73,0,0,1,1-1.11,2.65,2.65,0,0,1,1.38-.38c1.54,0,2.33.94,2.37,2.81V276h-.88v-5.38a2.61,2.61,0,0,0-.41-1.55,1.55,1.55,0,0,0-1.3-.52,1.87,1.87,0,0,0-1.37.6,2.31,2.31,0,0,0-.64,1.47V276h-.89V270.6a2.47,2.47,0,0,0-.42-1.58,1.55,1.55,0,0,0-1.29-.52,1.81,1.81,0,0,0-1.24.47,2.71,2.71,0,0,0-.77,1.35V276h-.88v-8.09Z" fill="#4d4d4d"/>
          <path d="M338.94,276.09a3.06,3.06,0,0,1-2.37-.93,3.85,3.85,0,0,1-.87-2.66v-1a4.31,4.31,0,0,1,.82-2.79,2.79,2.79,0,0,1,2.27-1,2.65,2.65,0,0,1,2.12.86,4,4,0,0,1,.75,2.63V272h-5.09v.45a3.26,3.26,0,0,0,.63,2.15,2.18,2.18,0,0,0,1.77.75,2.62,2.62,0,0,0,2-.87l.46.55A3,3,0,0,1,338.94,276.09Zm-.15-7.6a1.93,1.93,0,0,0-1.6.69,3.41,3.41,0,0,0-.61,2h4.2V271C340.74,269.32,340.07,268.49,338.79,268.49Z" fill="#4d4d4d"/>
          <path d="M350,276.09a3.05,3.05,0,0,1-2.36-.93,3.85,3.85,0,0,1-.87-2.66v-1a4.31,4.31,0,0,1,.82-2.79,2.77,2.77,0,0,1,2.26-1,2.66,2.66,0,0,1,2.13.86,4.08,4.08,0,0,1,.75,2.63V272h-5.09v.45a3.26,3.26,0,0,0,.63,2.15,2.18,2.18,0,0,0,1.77.75,2.62,2.62,0,0,0,2.05-.87l.46.55A3,3,0,0,1,350,276.09Zm-.15-7.6a1.92,1.92,0,0,0-1.59.69,3.35,3.35,0,0,0-.61,2h4.2V271C351.79,269.32,351.12,268.49,349.83,268.49Z" fill="#4d4d4d"/>
          <path d="M355.55,276h-.88V264.47h.88Z" fill="#4d4d4d"/>
          <path d="M360.8,276.09a3.05,3.05,0,0,1-2.36-.93,3.85,3.85,0,0,1-.87-2.66v-1a4.31,4.31,0,0,1,.82-2.79,2.77,2.77,0,0,1,2.26-1,2.66,2.66,0,0,1,2.13.86,4.08,4.08,0,0,1,.75,2.63V272h-5.09v.45a3.26,3.26,0,0,0,.63,2.15,2.18,2.18,0,0,0,1.77.75,2.62,2.62,0,0,0,2.05-.87l.46.55A3,3,0,0,1,360.8,276.09Zm-.15-7.6a1.92,1.92,0,0,0-1.59.69,3.35,3.35,0,0,0-.61,2h4.2V271C362.61,269.32,361.94,268.49,360.65,268.49Z" fill="#4d4d4d"/>
          <path d="M367.56,274.65l2.11-6.79h.9L367.9,276h-.69l-2.68-8.09h.9Z" fill="#4d4d4d"/>
          <path d="M376.58,276a5.22,5.22,0,0,1-.16-1.13,2.63,2.63,0,0,1-1,.94,2.8,2.8,0,0,1-1.34.33,2.41,2.41,0,0,1-1.73-.58,2.25,2.25,0,0,1-.62-1.69,2.29,2.29,0,0,1,.86-1.88,3.68,3.68,0,0,1,2.37-.7h1.47v-1.13a1.53,1.53,0,0,0-.45-1.24,2,2,0,0,0-1.34-.38,2,2,0,0,0-1.33.45,1.44,1.44,0,0,0-.52,1.16h-.88a2.16,2.16,0,0,1,.79-1.69,2.91,2.91,0,0,1,2-.69,2.86,2.86,0,0,1,2,.61,2.33,2.33,0,0,1,.66,1.79v4a5.31,5.31,0,0,0,.23,1.78V276Zm-2.41-.65a2.47,2.47,0,0,0,1.37-.39,2.19,2.19,0,0,0,.87-1v-2H375a2.87,2.87,0,0,0-1.81.51,1.58,1.58,0,0,0-.61,1.32A1.38,1.38,0,0,0,374.17,275.3Z" fill="#4d4d4d"/>
          <path d="M381,265.8v2.06h1.46v.75H381V274a1.87,1.87,0,0,0,.21,1,.76.76,0,0,0,.7.33,4.09,4.09,0,0,0,.63-.08l0,.75a2.45,2.45,0,0,1-.87.12c-1,0-1.55-.66-1.58-2v-5.48H378.8v-.75h1.32V265.8Z" fill="#4d4d4d"/>
          <path d="M384.35,265.53a.64.64,0,0,1,.15-.43.52.52,0,0,1,.42-.18.52.52,0,0,1,.43.18.66.66,0,0,1,0,.86.52.52,0,0,1-.43.18.52.52,0,0,1-.42-.18A.64.64,0,0,1,384.35,265.53Zm1,10.42h-.89v-8.09h.89Z" fill="#4d4d4d"/>
          <path d="M387.45,271.49a4.21,4.21,0,0,1,.84-2.76,2.8,2.8,0,0,1,2.29-1,2.85,2.85,0,0,1,2.29,1,4.29,4.29,0,0,1,.84,2.76v.86a4.17,4.17,0,0,1-.84,2.77,3.13,3.13,0,0,1-4.55,0,4.05,4.05,0,0,1-.87-2.67Zm.89.84a3.56,3.56,0,0,0,.6,2.19,2.14,2.14,0,0,0,3.31,0,3.65,3.65,0,0,0,.58-2.2v-.86a3.61,3.61,0,0,0-.6-2.2,2,2,0,0,0-1.65-.8,1.94,1.94,0,0,0-1.62.78,3.55,3.55,0,0,0-.62,2.16Z" fill="#4d4d4d"/>
          <path d="M396.57,267.86l0,1.29a3,3,0,0,1,1-1,2.37,2.37,0,0,1,1.34-.39c1.49,0,2.25.94,2.29,2.82V276h-.87v-5.33a2.72,2.72,0,0,0-.4-1.6,1.5,1.5,0,0,0-1.25-.52,1.83,1.83,0,0,0-1.23.49,3.08,3.08,0,0,0-.84,1.34V276h-.88v-8.09Z" fill="#4d4d4d"/>
          <path d="M407.81,274a1.16,1.16,0,0,0-.46-.91,6.2,6.2,0,0,0-1.55-.86,9.48,9.48,0,0,1-1.53-.77,2.14,2.14,0,0,1-.64-.68,1.7,1.7,0,0,1-.21-.87,2,2,0,0,1,.71-1.54,3.17,3.17,0,0,1,3.79,0,2.19,2.19,0,0,1,.73,1.72h-.88a1.45,1.45,0,0,0-.5-1.14,2.15,2.15,0,0,0-2.52-.08,1.19,1.19,0,0,0-.46,1,1,1,0,0,0,.35.8,7.12,7.12,0,0,0,1.5.83,8.91,8.91,0,0,1,1.65.81,2.28,2.28,0,0,1,.68.71,1.83,1.83,0,0,1,.23.93,2,2,0,0,1-.74,1.6,3,3,0,0,1-1.94.58,3.12,3.12,0,0,1-2.06-.65,2.13,2.13,0,0,1-.78-1.7h.88a1.58,1.58,0,0,0,.54,1.17,2.18,2.18,0,0,0,1.42.41,2.15,2.15,0,0,0,1.3-.37A1.18,1.18,0,0,0,407.81,274Z" fill="#4d4d4d"/>
        </g>
        <g>
          <path d="M160.53,296.13a.64.64,0,0,1,.15-.43.52.52,0,0,1,.43-.18.55.55,0,0,1,.43.18.64.64,0,0,1,.15.43.63.63,0,0,1-.15.43.55.55,0,0,1-.43.18.52.52,0,0,1-.43-.18A.63.63,0,0,1,160.53,296.13Zm1,10.42h-.88v-8.09h.88Z" fill="#4d4d4d"/>
          <path d="M168.25,304.56a1.17,1.17,0,0,0-.46-.92,6.44,6.44,0,0,0-1.55-.85,9.31,9.31,0,0,1-1.53-.78,2.19,2.19,0,0,1-.65-.68,1.79,1.79,0,0,1-.2-.86,2,2,0,0,1,.71-1.55,3.15,3.15,0,0,1,3.79.05,2.19,2.19,0,0,1,.73,1.71h-.88a1.48,1.48,0,0,0-.5-1.14,1.85,1.85,0,0,0-1.3-.45,1.9,1.9,0,0,0-1.23.38,1.19,1.19,0,0,0-.45,1,1,1,0,0,0,.35.79,7.12,7.12,0,0,0,1.5.83,10,10,0,0,1,1.65.81,2.42,2.42,0,0,1,.68.72,1.83,1.83,0,0,1,.22.93,2,2,0,0,1-.73,1.59,3,3,0,0,1-1.94.59,3.11,3.11,0,0,1-2.06-.66,2.12,2.12,0,0,1-.79-1.7h.89a1.58,1.58,0,0,0,.53,1.17,2.21,2.21,0,0,0,1.43.41,2.09,2.09,0,0,0,1.3-.37A1.18,1.18,0,0,0,168.25,304.56Z" fill="#4d4d4d"/>
          <path d="M178.19,299.24a4,4,0,0,0-.55-.05,1.69,1.69,0,0,0-1.22.47,2.54,2.54,0,0,0-.7,1.31v5.58h-.88v-8.09h.86l0,1.21a2.06,2.06,0,0,1,2-1.36,1.25,1.25,0,0,1,.53.1Z" fill="#4d4d4d"/>
          <path d="M182.41,306.7a3,3,0,0,1-2.36-.94,3.85,3.85,0,0,1-.87-2.66v-1a4.28,4.28,0,0,1,.82-2.79,2.75,2.75,0,0,1,2.26-1,2.62,2.62,0,0,1,2.12.86,4,4,0,0,1,.75,2.63v.78h-5.08V303a3.31,3.31,0,0,0,.62,2.14,2.21,2.21,0,0,0,1.78.76,2.64,2.64,0,0,0,2.05-.88l.46.55A3,3,0,0,1,182.41,306.7Zm-.15-7.61a1.92,1.92,0,0,0-1.59.69,3.37,3.37,0,0,0-.62,2h4.2v-.21C184.21,299.92,183.55,299.09,182.26,299.09Z" fill="#4d4d4d"/>
          <path d="M189.7,305.92a1.94,1.94,0,0,0,1.41-.48,2,2,0,0,0,.53-1.39h.85a2.71,2.71,0,0,1-.84,1.94,2.8,2.8,0,0,1-2,.71,2.84,2.84,0,0,1-2.3-.93,4.17,4.17,0,0,1-.8-2.73v-1a4.26,4.26,0,0,1,.78-2.79,2.83,2.83,0,0,1,2.32-.95,2.68,2.68,0,0,1,2,.76,3.08,3.08,0,0,1,.79,2.12h-.85a2.35,2.35,0,0,0-.54-1.55,1.78,1.78,0,0,0-1.4-.55,1.94,1.94,0,0,0-1.68.73,3.78,3.78,0,0,0-.53,2.22V303a3.76,3.76,0,0,0,.54,2.26A2,2,0,0,0,189.7,305.92Z" fill="#4d4d4d"/>
          <path d="M194,302.09a4.21,4.21,0,0,1,.84-2.76,3.09,3.09,0,0,1,4.58,0,4.24,4.24,0,0,1,.84,2.75v.86a4.15,4.15,0,0,1-.84,2.77,2.81,2.81,0,0,1-2.28,1,2.87,2.87,0,0,1-2.27-1,4.08,4.08,0,0,1-.87-2.68Zm.89.84a3.56,3.56,0,0,0,.6,2.19,2.14,2.14,0,0,0,3.31,0,3.63,3.63,0,0,0,.58-2.2v-.86a3.61,3.61,0,0,0-.6-2.2,2,2,0,0,0-1.65-.8,1.92,1.92,0,0,0-1.62.79,3.52,3.52,0,0,0-.62,2.15Z" fill="#4d4d4d"/>
          <path d="M203.1,298.46l0,1.21a2.52,2.52,0,0,1,2.29-1.36,2,2,0,0,1,2.13,1.49,2.87,2.87,0,0,1,1-1.11,2.71,2.71,0,0,1,1.39-.38c1.54,0,2.33.94,2.37,2.81v5.43h-.88v-5.37a2.62,2.62,0,0,0-.41-1.56,1.56,1.56,0,0,0-1.3-.51,1.94,1.94,0,0,0-1.38.59,2.42,2.42,0,0,0-.64,1.47v5.38h-.88V301.2a2.48,2.48,0,0,0-.42-1.58,1.55,1.55,0,0,0-1.29-.51,1.79,1.79,0,0,0-1.25.47,2.69,2.69,0,0,0-.76,1.34v5.63h-.88v-8.09Z" fill="#4d4d4d"/>
          <path d="M215.45,298.46l0,1.21a2.53,2.53,0,0,1,2.29-1.36,2,2,0,0,1,2.14,1.49,2.87,2.87,0,0,1,1-1.11,2.69,2.69,0,0,1,1.39-.38c1.54,0,2.33.94,2.36,2.81v5.43h-.87v-5.37a2.62,2.62,0,0,0-.42-1.56,1.52,1.52,0,0,0-1.29-.51,1.92,1.92,0,0,0-1.38.59,2.36,2.36,0,0,0-.64,1.47v5.38h-.89V301.2a2.49,2.49,0,0,0-.41-1.58,1.57,1.57,0,0,0-1.29-.51,1.79,1.79,0,0,0-1.25.47,2.69,2.69,0,0,0-.76,1.34v5.63h-.88v-8.09Z" fill="#4d4d4d"/>
          <path d="M229.81,306.7a3,3,0,0,1-2.36-.94,3.85,3.85,0,0,1-.87-2.66v-1a4.28,4.28,0,0,1,.82-2.79,2.75,2.75,0,0,1,2.26-1,2.62,2.62,0,0,1,2.12.86,4,4,0,0,1,.75,2.63v.78h-5.08V303a3.31,3.31,0,0,0,.62,2.14,2.21,2.21,0,0,0,1.78.76,2.64,2.64,0,0,0,2.05-.88l.46.55A3,3,0,0,1,229.81,306.7Zm-.15-7.61a1.92,1.92,0,0,0-1.59.69,3.44,3.44,0,0,0-.62,2h4.2v-.21C231.61,299.92,231,299.09,229.66,299.09Z" fill="#4d4d4d"/>
          <path d="M235.24,298.46l0,1.29a3.07,3.07,0,0,1,1-1.05,2.37,2.37,0,0,1,1.34-.39c1.49,0,2.26.94,2.29,2.82v5.42H239v-5.33a2.67,2.67,0,0,0-.4-1.6,1.47,1.47,0,0,0-1.24-.51,1.81,1.81,0,0,0-1.24.49,3,3,0,0,0-.83,1.34v5.61h-.88v-8.09Z" fill="#4d4d4d"/>
          <path d="M241.88,302.13a4.83,4.83,0,0,1,.7-2.86,2.46,2.46,0,0,1,2.09-1,2.37,2.37,0,0,1,2.18,1.24v-4.48h.88v11.48h-.83l0-1a2.65,2.65,0,0,1-4.26.22,4.72,4.72,0,0,1-.72-2.76Zm.89.76a4.14,4.14,0,0,0,.5,2.28,1.76,1.76,0,0,0,1.57.74,2.11,2.11,0,0,0,2-1.25v-4.19a2.05,2.05,0,0,0-2-1.36,1.77,1.77,0,0,0-1.57.73,4.09,4.09,0,0,0-.51,2.24Z" fill="#4d4d4d"/>
          <path d="M252.92,306.7a3,3,0,0,1-2.36-.94,3.85,3.85,0,0,1-.87-2.66v-1a4.28,4.28,0,0,1,.82-2.79,2.75,2.75,0,0,1,2.26-1,2.62,2.62,0,0,1,2.12.86,4,4,0,0,1,.75,2.63v.78h-5.08V303a3.25,3.25,0,0,0,.63,2.14,2.18,2.18,0,0,0,1.77.76,2.64,2.64,0,0,0,2-.88l.46.55A3,3,0,0,1,252.92,306.7Zm-.15-7.61a1.92,1.92,0,0,0-1.59.69,3.44,3.44,0,0,0-.62,2h4.2v-.21C254.72,299.92,254.06,299.09,252.77,299.09Z" fill="#4d4d4d"/>
          <path d="M257.19,302.13a4.82,4.82,0,0,1,.71-2.86,2.44,2.44,0,0,1,2.08-1,2.37,2.37,0,0,1,2.18,1.24v-4.48H263v11.48h-.83l0-1a2.65,2.65,0,0,1-4.26.22,4.65,4.65,0,0,1-.73-2.76Zm.9.76a4.15,4.15,0,0,0,.49,2.28,1.76,1.76,0,0,0,1.57.74,2.11,2.11,0,0,0,2-1.25v-4.19a2,2,0,0,0-2-1.36,1.77,1.77,0,0,0-1.57.73,4,4,0,0,0-.5,2.24Z" fill="#4d4d4d"/>
          <path d="M270.37,296.4v2.06h1.46v.75h-1.46v5.37a1.82,1.82,0,0,0,.21,1,.76.76,0,0,0,.7.33,4.09,4.09,0,0,0,.63-.08l0,.75a2.24,2.24,0,0,1-.87.13c-1,0-1.55-.67-1.58-2v-5.49h-1.32v-.75h1.32V296.4Z" fill="#4d4d4d"/>
          <path d="M273.27,302.09a4.21,4.21,0,0,1,.84-2.76,3.08,3.08,0,0,1,4.57,0,4.13,4.13,0,0,1,.84,2.75v.86a4.15,4.15,0,0,1-.84,2.77,2.81,2.81,0,0,1-2.27,1,2.86,2.86,0,0,1-2.27-1,4.08,4.08,0,0,1-.87-2.68Zm.88.84a3.56,3.56,0,0,0,.6,2.19,2.15,2.15,0,0,0,3.32,0,3.7,3.7,0,0,0,.58-2.2v-.86a3.61,3.61,0,0,0-.6-2.2,2,2,0,0,0-1.66-.8,1.92,1.92,0,0,0-1.62.79,3.52,3.52,0,0,0-.62,2.15Z" fill="#4d4d4d"/>
          <path d="M285.16,296.13a.64.64,0,0,1,.15-.43.52.52,0,0,1,.42-.18.52.52,0,0,1,.43.18.6.6,0,0,1,.16.43.59.59,0,0,1-.16.43.52.52,0,0,1-.43.18.52.52,0,0,1-.42-.18A.63.63,0,0,1,285.16,296.13Zm1,10.42h-.89v-8.09h.89Z" fill="#4d4d4d"/>
          <path d="M288.28,302.13a4.83,4.83,0,0,1,.7-2.86,2.46,2.46,0,0,1,2.09-1,2.37,2.37,0,0,1,2.18,1.24v-4.48h.88v11.48h-.83l0-1a2.65,2.65,0,0,1-4.26.22,4.72,4.72,0,0,1-.72-2.76Zm.89.76a4.14,4.14,0,0,0,.5,2.28,1.76,1.76,0,0,0,1.57.74,2.11,2.11,0,0,0,2-1.25v-4.19a2.05,2.05,0,0,0-2-1.36,1.77,1.77,0,0,0-1.57.73,4.09,4.09,0,0,0-.51,2.24Z" fill="#4d4d4d"/>
          <path d="M299.32,306.7a3,3,0,0,1-2.36-.94,3.85,3.85,0,0,1-.87-2.66v-1a4.28,4.28,0,0,1,.82-2.79,2.75,2.75,0,0,1,2.26-1,2.62,2.62,0,0,1,2.12.86,4,4,0,0,1,.75,2.63v.78H297V303a3.25,3.25,0,0,0,.63,2.14,2.18,2.18,0,0,0,1.77.76,2.64,2.64,0,0,0,2.05-.88l.46.55A3,3,0,0,1,299.32,306.7Zm-.15-7.61a1.92,1.92,0,0,0-1.59.69,3.44,3.44,0,0,0-.62,2h4.2v-.21C301.12,299.92,300.46,299.09,299.17,299.09Z" fill="#4d4d4d"/>
          <path d="M304.75,298.46l0,1.29a3.07,3.07,0,0,1,1-1.05,2.37,2.37,0,0,1,1.34-.39c1.49,0,2.26.94,2.29,2.82v5.42h-.87v-5.33a2.67,2.67,0,0,0-.4-1.6,1.47,1.47,0,0,0-1.24-.51,1.81,1.81,0,0,0-1.24.49,3,3,0,0,0-.83,1.34v5.61h-.88v-8.09Z" fill="#4d4d4d"/>
          <path d="M313,296.4v2.06h1.46v.75H313v5.37a1.82,1.82,0,0,0,.21,1,.76.76,0,0,0,.7.33,4.09,4.09,0,0,0,.63-.08l0,.75a2.15,2.15,0,0,1-.86.13c-1,0-1.55-.67-1.58-2v-5.49h-1.32v-.75h1.32V296.4Z" fill="#4d4d4d"/>
          <path d="M316.37,296.13a.64.64,0,0,1,.15-.43.54.54,0,0,1,.43-.18.52.52,0,0,1,.43.18.6.6,0,0,1,.16.43.59.59,0,0,1-.16.43.52.52,0,0,1-.43.18.54.54,0,0,1-.43-.18A.63.63,0,0,1,316.37,296.13Zm1,10.42h-.89v-8.09h.89Z" fill="#4d4d4d"/>
          <path d="M320.39,306.55v-7.34h-1.18v-.75h1.18V297.4a2.74,2.74,0,0,1,.59-1.84,2,2,0,0,1,1.59-.64,2.84,2.84,0,0,1,.84.12l-.06.76a3.36,3.36,0,0,0-.71-.08,1.2,1.2,0,0,0-1,.45,2.07,2.07,0,0,0-.36,1.3v1H323v.75h-1.67v7.34Z" fill="#4d4d4d"/>
          <path d="M327,305.18l2-6.72h.94l-3,9.38-.16.45a2,2,0,0,1-1.87,1.52,2.06,2.06,0,0,1-.63-.1V309a1.68,1.68,0,0,0,.4.05,1.39,1.39,0,0,0,.94-.32,2.42,2.42,0,0,0,.6-1l.36-1.14-2.69-8h1Z" fill="#4d4d4d"/>
          <path d="M340.93,302.89a4.9,4.9,0,0,1-.69,2.84,2.35,2.35,0,0,1-2.05,1,2.52,2.52,0,0,1-2.23-1.12v4.08h-.86v-11.2h.8l0,1.11a2.45,2.45,0,0,1,2.22-1.26,2.42,2.42,0,0,1,2.08.93,4.81,4.81,0,0,1,.69,2.83Zm-.88-.76a4.06,4.06,0,0,0-.51-2.29,1.82,1.82,0,0,0-1.59-.73,2,2,0,0,0-2,1.34v4.25a2.08,2.08,0,0,0,2,1.22,1.78,1.78,0,0,0,1.57-.73,4,4,0,0,0,.51-2.26Z" fill="#4d4d4d"/>
          <path d="M342.64,302.09a4.21,4.21,0,0,1,.84-2.76,3.08,3.08,0,0,1,4.57,0,4.18,4.18,0,0,1,.85,2.75v.86a4.1,4.1,0,0,1-.85,2.77,2.81,2.81,0,0,1-2.27,1,2.87,2.87,0,0,1-2.27-1,4.08,4.08,0,0,1-.87-2.68Zm.89.84a3.63,3.63,0,0,0,.59,2.19,2.15,2.15,0,0,0,3.32,0A3.7,3.7,0,0,0,348,303v-.86a3.61,3.61,0,0,0-.6-2.2,2,2,0,0,0-1.66-.8,1.92,1.92,0,0,0-1.62.79,3.52,3.52,0,0,0-.61,2.15Z" fill="#4d4d4d"/>
          <path d="M352.24,296.4v2.06h1.47v.75h-1.47v5.37a1.82,1.82,0,0,0,.21,1,.76.76,0,0,0,.7.33,4.09,4.09,0,0,0,.63-.08l0,.75a2.19,2.19,0,0,1-.86.13c-1,0-1.56-.67-1.59-2v-5.49H350v-.75h1.32V296.4Z" fill="#4d4d4d"/>
          <path d="M358.44,306.7a3,3,0,0,1-2.36-.94,3.85,3.85,0,0,1-.87-2.66v-1a4.28,4.28,0,0,1,.82-2.79,2.75,2.75,0,0,1,2.26-1,2.66,2.66,0,0,1,2.13.86,4.1,4.1,0,0,1,.74,2.63v.78h-5.08V303a3.25,3.25,0,0,0,.63,2.14,2.19,2.19,0,0,0,1.77.76,2.62,2.62,0,0,0,2-.88l.46.55A3,3,0,0,1,358.44,306.7Zm-.15-7.61a1.92,1.92,0,0,0-1.59.69,3.37,3.37,0,0,0-.61,2h4.2v-.21C360.24,299.92,359.58,299.09,358.29,299.09Z" fill="#4d4d4d"/>
          <path d="M363.87,298.46l0,1.29a3.17,3.17,0,0,1,1-1.05,2.37,2.37,0,0,1,1.34-.39c1.49,0,2.26.94,2.3,2.82v5.42h-.87v-5.33a2.67,2.67,0,0,0-.41-1.6,1.47,1.47,0,0,0-1.24-.51,1.81,1.81,0,0,0-1.24.49,3,3,0,0,0-.83,1.34v5.61H363v-8.09Z" fill="#4d4d4d"/>
          <path d="M372.15,296.4v2.06h1.46v.75h-1.46v5.37a1.82,1.82,0,0,0,.21,1,.76.76,0,0,0,.7.33,4.09,4.09,0,0,0,.63-.08l0,.75a2.21,2.21,0,0,1-.87.13c-1,0-1.55-.67-1.58-2v-5.49H370v-.75h1.32V296.4Z" fill="#4d4d4d"/>
          <path d="M375.5,296.13a.64.64,0,0,1,.15-.43.52.52,0,0,1,.42-.18.52.52,0,0,1,.43.18.6.6,0,0,1,.16.43.59.59,0,0,1-.16.43.52.52,0,0,1-.43.18.52.52,0,0,1-.42-.18A.63.63,0,0,1,375.5,296.13Zm1,10.42h-.89v-8.09h.89Z" fill="#4d4d4d"/>
          <path d="M383.46,306.55a5.11,5.11,0,0,1-.16-1.12,2.75,2.75,0,0,1-2.36,1.27,2.42,2.42,0,0,1-1.73-.59,2.24,2.24,0,0,1-.61-1.68,2.31,2.31,0,0,1,.85-1.89,3.78,3.78,0,0,1,2.37-.7h1.47v-1.13a1.54,1.54,0,0,0-.45-1.24,2,2,0,0,0-1.33-.38,2,2,0,0,0-1.34.45,1.44,1.44,0,0,0-.52,1.16h-.88a2.14,2.14,0,0,1,.79-1.68,2.93,2.93,0,0,1,2-.7,2.77,2.77,0,0,1,1.95.62,2.31,2.31,0,0,1,.66,1.78v4a5.31,5.31,0,0,0,.23,1.78v.09Zm-2.41-.65a2.54,2.54,0,0,0,1.37-.38,2.26,2.26,0,0,0,.87-1v-2H381.9a2.89,2.89,0,0,0-1.81.5,1.6,1.6,0,0,0-.61,1.32A1.37,1.37,0,0,0,381.05,305.9Z" fill="#4d4d4d"/>
          <path d="M387.54,306.55h-.88V295.07h.88Z" fill="#4d4d4d"/>
        </g>
        <g>
          <path d="M163.27,336.52a1.9,1.9,0,0,0,1.4-.48,2,2,0,0,0,.53-1.39h.85a2.67,2.67,0,0,1-.84,1.94,2.78,2.78,0,0,1-1.94.71,2.87,2.87,0,0,1-2.31-.92,4.22,4.22,0,0,1-.79-2.74v-1a4.36,4.36,0,0,1,.77-2.79,2.84,2.84,0,0,1,2.32-.94,2.65,2.65,0,0,1,2,.76,3.05,3.05,0,0,1,.78,2.11h-.85a2.37,2.37,0,0,0-.53-1.55,1.85,1.85,0,0,0-1.41-.55,1.94,1.94,0,0,0-1.67.73,3.7,3.7,0,0,0-.54,2.22v.92a3.76,3.76,0,0,0,.54,2.26A2,2,0,0,0,163.27,336.52Z" fill="#4d4d4d"/>
          <path d="M172.43,337.15a5.11,5.11,0,0,1-.16-1.12,2.76,2.76,0,0,1-1,.94,2.87,2.87,0,0,1-1.35.33,2.39,2.39,0,0,1-1.72-.59,2.17,2.17,0,0,1-.62-1.68,2.27,2.27,0,0,1,.86-1.88,3.68,3.68,0,0,1,2.37-.71h1.47v-1.12a1.52,1.52,0,0,0-.46-1.25,2,2,0,0,0-1.33-.38,2,2,0,0,0-1.34.45,1.46,1.46,0,0,0-.52,1.16h-.88a2.17,2.17,0,0,1,.79-1.68,2.92,2.92,0,0,1,2-.69,2.76,2.76,0,0,1,1.95.61,2.29,2.29,0,0,1,.67,1.79v4a5,5,0,0,0,.23,1.78v.09ZM170,336.5a2.52,2.52,0,0,0,1.37-.38,2.24,2.24,0,0,0,.88-1v-2h-1.4a3,3,0,0,0-1.81.5,1.63,1.63,0,0,0-.61,1.32A1.38,1.38,0,0,0,170,336.5Z" fill="#4d4d4d"/>
          <path d="M179.81,335.16a1.15,1.15,0,0,0-.46-.91,5.9,5.9,0,0,0-1.55-.86,8.58,8.58,0,0,1-1.53-.78,2.12,2.12,0,0,1-.64-.67,1.75,1.75,0,0,1-.21-.87,1.94,1.94,0,0,1,.71-1.54,3.17,3.17,0,0,1,3.79,0,2.17,2.17,0,0,1,.73,1.72h-.88a1.45,1.45,0,0,0-.5-1.14,1.8,1.8,0,0,0-1.29-.46,1.86,1.86,0,0,0-1.23.38,1.18,1.18,0,0,0-.46,1,1,1,0,0,0,.35.79,6.69,6.69,0,0,0,1.5.83,9.6,9.6,0,0,1,1.65.81,2.41,2.41,0,0,1,.68.72,1.83,1.83,0,0,1,.23.93,1.93,1.93,0,0,1-.74,1.59,3,3,0,0,1-1.94.59,3.12,3.12,0,0,1-2.06-.66,2.11,2.11,0,0,1-.78-1.69h.88a1.54,1.54,0,0,0,.54,1.16,2.13,2.13,0,0,0,1.42.41,2.09,2.09,0,0,0,1.3-.37A1.18,1.18,0,0,0,179.81,335.16Z" fill="#4d4d4d"/>
          <path d="M185.59,337.3a3.06,3.06,0,0,1-2.37-.93,3.87,3.87,0,0,1-.87-2.66v-1a4.33,4.33,0,0,1,.82-2.79,2.79,2.79,0,0,1,2.27-1,2.62,2.62,0,0,1,2.12.86,4,4,0,0,1,.75,2.63v.77h-5.09v.46a3.23,3.23,0,0,0,.63,2.14,2.17,2.17,0,0,0,1.78.76,2.59,2.59,0,0,0,2-.88l.46.56A3,3,0,0,1,185.59,337.3Zm-.15-7.61a1.94,1.94,0,0,0-1.6.7,3.41,3.41,0,0,0-.61,2h4.2v-.22C187.39,330.53,186.72,329.69,185.44,329.69Z" fill="#4d4d4d"/>
          <path d="M194.45,335.16a1.15,1.15,0,0,0-.46-.91,5.9,5.9,0,0,0-1.55-.86,8.58,8.58,0,0,1-1.53-.78,2.12,2.12,0,0,1-.64-.67,1.75,1.75,0,0,1-.21-.87,1.94,1.94,0,0,1,.71-1.54,3.17,3.17,0,0,1,3.79,0,2.17,2.17,0,0,1,.73,1.72h-.88a1.45,1.45,0,0,0-.5-1.14,1.8,1.8,0,0,0-1.29-.46,1.86,1.86,0,0,0-1.23.38,1.18,1.18,0,0,0-.46,1,1,1,0,0,0,.35.79,6.69,6.69,0,0,0,1.5.83,9.6,9.6,0,0,1,1.65.81,2.41,2.41,0,0,1,.68.72,1.83,1.83,0,0,1,.23.93,1.93,1.93,0,0,1-.74,1.59,3,3,0,0,1-1.94.59,3.12,3.12,0,0,1-2.06-.66,2.11,2.11,0,0,1-.78-1.69h.88a1.54,1.54,0,0,0,.54,1.16,2.13,2.13,0,0,0,1.42.41,2.09,2.09,0,0,0,1.3-.37A1.18,1.18,0,0,0,194.45,335.16Z" fill="#4d4d4d"/>
          <path d="M200.71,332.7a4.22,4.22,0,0,1,.84-2.77,3.1,3.1,0,0,1,4.57,0,4.17,4.17,0,0,1,.84,2.76v.85a4.2,4.2,0,0,1-.84,2.78,3.12,3.12,0,0,1-4.54,0,4.08,4.08,0,0,1-.87-2.68Zm.88.83a3.56,3.56,0,0,0,.6,2.19,2.15,2.15,0,0,0,3.32,0,3.7,3.7,0,0,0,.58-2.2v-.86a3.56,3.56,0,0,0-.6-2.19,2,2,0,0,0-1.66-.81,2,2,0,0,0-1.62.79,3.53,3.53,0,0,0-.62,2.16Z" fill="#4d4d4d"/>
          <path d="M209.57,337.15v-7.34h-1.18v-.74h1.18V328a2.7,2.7,0,0,1,.59-1.85,2,2,0,0,1,1.58-.64,2.86,2.86,0,0,1,.85.12l-.07.77a2.76,2.76,0,0,0-.71-.09,1.2,1.2,0,0,0-1,.46,2,2,0,0,0-.36,1.29v1h1.68v.74h-1.68v7.34Z" fill="#4d4d4d"/>
          <path d="M217.18,332.73a4.79,4.79,0,0,1,.7-2.85,2.42,2.42,0,0,1,2.09-1,2.35,2.35,0,0,1,2.17,1.23v-4.47H223v11.47h-.82l0-1a2.65,2.65,0,0,1-4.26.22,4.72,4.72,0,0,1-.72-2.76Zm.89.76a4.17,4.17,0,0,0,.49,2.29,1.78,1.78,0,0,0,1.57.73,2.09,2.09,0,0,0,2-1.25v-4.19a2,2,0,0,0-2-1.35,1.77,1.77,0,0,0-1.57.72,4,4,0,0,0-.5,2.24Z" fill="#4d4d4d"/>
          <path d="M228.75,329.84a4.13,4.13,0,0,0-.56,0,1.72,1.72,0,0,0-1.22.47,2.66,2.66,0,0,0-.7,1.31v5.58h-.88v-8.08h.87v1.21a2.06,2.06,0,0,1,2-1.36,1.23,1.23,0,0,1,.53.09Z" fill="#4d4d4d"/>
          <path d="M234.88,336.19a2.52,2.52,0,0,1-2.26,1.11,2.07,2.07,0,0,1-1.75-.76,3.64,3.64,0,0,1-.61-2.24v-5.23h.88v5.2a2.78,2.78,0,0,0,.41,1.67,1.36,1.36,0,0,0,1.18.57,2,2,0,0,0,2.13-1.53v-5.91h.89v8.08h-.86Z" fill="#4d4d4d"/>
          <path d="M237.78,332.73a4.88,4.88,0,0,1,.69-2.86,2.41,2.41,0,0,1,2.09-.95,2.36,2.36,0,0,1,2.2,1.27l.05-1.12h.81v8.31a3.09,3.09,0,0,1-.74,2.23,2.79,2.79,0,0,1-2.13.76,3.38,3.38,0,0,1-1.42-.33,2.8,2.8,0,0,1-1.08-.8l.41-.6a2.66,2.66,0,0,0,2,.95,2,2,0,0,0,1.55-.53,2.39,2.39,0,0,0,.5-1.63v-1.29a2.66,2.66,0,0,1-4.23.21,4.61,4.61,0,0,1-.73-2.74Zm.88.76a4.16,4.16,0,0,0,.5,2.29,1.78,1.78,0,0,0,1.57.73,2.05,2.05,0,0,0,2-1.28V331.1a2,2,0,0,0-2-1.38,1.78,1.78,0,0,0-1.57.72,4.09,4.09,0,0,0-.51,2.24Z" fill="#4d4d4d"/>
          <path d="M248.46,332.75h-3.2V332h3.2Z" fill="#4d4d4d"/>
          <path d="M250.12,326.74a.67.67,0,0,1,.15-.44.52.52,0,0,1,.42-.18.56.56,0,0,1,.44.18.67.67,0,0,1,.15.44.66.66,0,0,1-.15.43.59.59,0,0,1-.44.17.54.54,0,0,1-.42-.17A.66.66,0,0,1,250.12,326.74Zm1,10.41h-.89v-8.08h.89Z" fill="#4d4d4d"/>
          <path d="M254.4,329.07l0,1.28a3,3,0,0,1,1-1,2.37,2.37,0,0,1,1.34-.39c1.49,0,2.26.94,2.29,2.81v5.42h-.87v-5.33a2.67,2.67,0,0,0-.4-1.6,1.47,1.47,0,0,0-1.24-.51,1.81,1.81,0,0,0-1.24.49,3,3,0,0,0-.83,1.34v5.61h-.88v-8.08Z" fill="#4d4d4d"/>
          <path d="M261,332.73a4.79,4.79,0,0,1,.7-2.85,2.43,2.43,0,0,1,2.09-1,2.37,2.37,0,0,1,2.18,1.23v-4.47h.87v11.47h-.82l0-1a2.65,2.65,0,0,1-4.26.22,4.72,4.72,0,0,1-.72-2.76Zm.89.76a4.16,4.16,0,0,0,.5,2.29,1.77,1.77,0,0,0,1.57.73,2.11,2.11,0,0,0,2-1.25v-4.19a2.06,2.06,0,0,0-2-1.35,1.77,1.77,0,0,0-1.57.72,4.09,4.09,0,0,0-.51,2.24Z" fill="#4d4d4d"/>
          <path d="M273.84,336.19a2.49,2.49,0,0,1-2.25,1.11,2.1,2.1,0,0,1-1.76-.76,3.71,3.71,0,0,1-.6-2.24v-5.23h.87v5.2a2.78,2.78,0,0,0,.42,1.67,1.35,1.35,0,0,0,1.18.57,2,2,0,0,0,2.13-1.53v-5.91h.88v8.08h-.85Z" fill="#4d4d4d"/>
          <path d="M279.76,336.52a1.94,1.94,0,0,0,1.41-.48,2,2,0,0,0,.53-1.39h.84a2.71,2.71,0,0,1-.83,1.94,2.8,2.8,0,0,1-1.95.71,2.83,2.83,0,0,1-2.3-.92,4.22,4.22,0,0,1-.8-2.74v-1a4.3,4.3,0,0,1,.78-2.79,2.82,2.82,0,0,1,2.31-.94,2.65,2.65,0,0,1,2,.76,3.05,3.05,0,0,1,.78,2.11h-.84a2.43,2.43,0,0,0-.54-1.55,1.82,1.82,0,0,0-1.41-.55,2,2,0,0,0-1.67.73,3.71,3.71,0,0,0-.53,2.22v.92a3.84,3.84,0,0,0,.53,2.26A2,2,0,0,0,279.76,336.52Z" fill="#4d4d4d"/>
          <path d="M287.23,337.3a3.06,3.06,0,0,1-2.37-.93,3.87,3.87,0,0,1-.87-2.66v-1a4.33,4.33,0,0,1,.82-2.79,2.79,2.79,0,0,1,2.27-1,2.61,2.61,0,0,1,2.12.86,4,4,0,0,1,.75,2.63v.77h-5.09v.46a3.23,3.23,0,0,0,.63,2.14,2.17,2.17,0,0,0,1.78.76,2.62,2.62,0,0,0,2.05-.88l.45.56A3,3,0,0,1,287.23,337.3Zm-.15-7.61a2,2,0,0,0-1.6.7,3.41,3.41,0,0,0-.61,2h4.2v-.22C289,330.53,288.36,329.69,287.08,329.69Z" fill="#4d4d4d"/>
          <path d="M291.5,332.73a4.79,4.79,0,0,1,.7-2.85,2.43,2.43,0,0,1,2.09-1,2.37,2.37,0,0,1,2.18,1.23v-4.47h.87v11.47h-.82l0-1a2.65,2.65,0,0,1-4.26.22,4.72,4.72,0,0,1-.72-2.76Zm.89.76a4.16,4.16,0,0,0,.5,2.29,1.77,1.77,0,0,0,1.57.73,2.11,2.11,0,0,0,2-1.25v-4.19a2.06,2.06,0,0,0-2-1.35,1.78,1.78,0,0,0-1.57.72,4.1,4.1,0,0,0-.5,2.24Z" fill="#4d4d4d"/>
          <path d="M304.33,337.15h-.88V325.68h.88Z" fill="#4d4d4d"/>
          <path d="M306.73,326.74a.67.67,0,0,1,.15-.44.52.52,0,0,1,.43-.18.54.54,0,0,1,.43.18.67.67,0,0,1,.15.44.66.66,0,0,1-.15.43.56.56,0,0,1-.43.17.55.55,0,0,1-.43-.17A.66.66,0,0,1,306.73,326.74Zm1,10.41h-.88v-8.08h.88Z" fill="#4d4d4d"/>
          <path d="M312.44,335.85l2.11-6.78h.9l-2.67,8.08h-.69l-2.69-8.08h.91Z" fill="#4d4d4d"/>
          <path d="M319.77,337.3a3,3,0,0,1-2.36-.93,3.87,3.87,0,0,1-.87-2.66v-1a4.28,4.28,0,0,1,.82-2.79,2.77,2.77,0,0,1,2.26-1,2.59,2.59,0,0,1,2.12.86,4,4,0,0,1,.75,2.63v.77h-5.08v.46a3.23,3.23,0,0,0,.63,2.14,2.15,2.15,0,0,0,1.77.76,2.61,2.61,0,0,0,2.05-.88l.46.56A3,3,0,0,1,319.77,337.3Zm-.15-7.61a1.93,1.93,0,0,0-1.59.7,3.41,3.41,0,0,0-.62,2h4.2v-.22C321.57,330.53,320.91,329.69,319.62,329.69Z" fill="#4d4d4d"/>
          <path d="M327.71,329.84a4,4,0,0,0-.55,0,1.71,1.71,0,0,0-1.22.47,2.59,2.59,0,0,0-.7,1.31v5.58h-.88v-8.08h.86l0,1.21a2,2,0,0,1,2-1.36,1.23,1.23,0,0,1,.53.09Z" fill="#4d4d4d"/>
          <path d="M332.86,326.74a.67.67,0,0,1,.15-.44.52.52,0,0,1,.43-.18.54.54,0,0,1,.43.18.67.67,0,0,1,.15.44.66.66,0,0,1-.15.43.56.56,0,0,1-.43.17.55.55,0,0,1-.43-.17A.66.66,0,0,1,332.86,326.74Zm1,10.41H333v-8.08h.88Z" fill="#4d4d4d"/>
          <path d="M337.14,329.07l0,1.28a3,3,0,0,1,1-1,2.39,2.39,0,0,1,1.34-.39c1.5,0,2.26.94,2.3,2.81v5.42h-.87v-5.33a2.67,2.67,0,0,0-.41-1.6,1.46,1.46,0,0,0-1.24-.51,1.81,1.81,0,0,0-1.24.49,3,3,0,0,0-.83,1.34v5.61h-.88v-8.08Z" fill="#4d4d4d"/>
          <path d="M345,329.07v9q0,2.37-1.89,2.37a1.66,1.66,0,0,1-.7-.15v-.75a2.21,2.21,0,0,0,.59.1c.75,0,1.12-.51,1.12-1.52v-9Zm-1-2.33a.67.67,0,0,1,.15-.44.49.49,0,0,1,.42-.18.54.54,0,0,1,.43.18.67.67,0,0,1,.15.44.66.66,0,0,1-.15.43.56.56,0,0,1-.43.17.51.51,0,0,1-.42-.17A.66.66,0,0,1,344,326.74Z" fill="#4d4d4d"/>
          <path d="M352.14,336.19a2.52,2.52,0,0,1-2.26,1.11,2.07,2.07,0,0,1-1.75-.76,3.64,3.64,0,0,1-.61-2.24v-5.23h.87v5.2a2.78,2.78,0,0,0,.42,1.67,1.36,1.36,0,0,0,1.18.57,2,2,0,0,0,2.13-1.53v-5.91H353v8.08h-.86Z" fill="#4d4d4d"/>
          <path d="M358.7,329.84a4,4,0,0,0-.55,0,1.69,1.69,0,0,0-1.22.47,2.59,2.59,0,0,0-.7,1.31v5.58h-.88v-8.08h.86l0,1.21a2,2,0,0,1,2-1.36,1.23,1.23,0,0,1,.53.09Z" fill="#4d4d4d"/>
          <path d="M362.65,335.78l2-6.71h.94l-3,9.37-.17.45a2,2,0,0,1-1.86,1.53,2.15,2.15,0,0,1-.64-.11v-.76a1.62,1.62,0,0,0,.4.05,1.36,1.36,0,0,0,.93-.32,2.36,2.36,0,0,0,.6-1l.37-1.14-2.69-8h1Z" fill="#4d4d4d"/>
          <path d="M366.28,336.6a.64.64,0,0,1,.18-.45.68.68,0,0,1,.5-.18.7.7,0,0,1,.5.18.64.64,0,0,1,.18.45.59.59,0,0,1-.18.44.74.74,0,0,1-.5.17.72.72,0,0,1-.5-.17A.59.59,0,0,1,366.28,336.6Z" fill="#4d4d4d"/>
        </g>
        <g>
          <path d="M165.29,59.64h-3l-.59,2.23h-2.32L162.79,51h2l3.42,10.88h-2.34Zm-2.51-1.83h2l-1-3.88Z" fill="#fff"/>
          <path d="M171.47,51.8v2h1.08v1.59h-1.08v4a1.15,1.15,0,0,0,.13.65.6.6,0,0,0,.5.18,1.71,1.71,0,0,0,.5,0v1.64a3.2,3.2,0,0,1-1.17.21c-1.36,0-2-.79-2.07-2.35v-4.3h-.93V53.78h.93v-2Z" fill="#fff"/>
          <path d="M183.54,58.09a5.59,5.59,0,0,1-.62,2.94,2.18,2.18,0,0,1-2,1,2,2,0,0,1-1.69-1l-.06.8h-1.95V50.39h2.11v4a1.88,1.88,0,0,1,1.58-.81,2.18,2.18,0,0,1,2,1,5.38,5.38,0,0,1,.64,2.86Zm-2.11-.53a3.86,3.86,0,0,0-.25-1.72.9.9,0,0,0-.86-.44,1,1,0,0,0-1,.61v3.68a1,1,0,0,0,1,.57.89.89,0,0,0,.84-.4,3.52,3.52,0,0,0,.25-1.53Z" fill="#fff"/>
          <path d="M188.65,61.87a3.16,3.16,0,0,1-.18-.63,1.79,1.79,0,0,1-1.54.78,2.28,2.28,0,0,1-1.68-.68,2.35,2.35,0,0,1-.67-1.74,2.44,2.44,0,0,1,.81-2,3.52,3.52,0,0,1,2.34-.71h.64v-.65a1.17,1.17,0,0,0-.19-.77.65.65,0,0,0-.54-.23c-.53,0-.79.31-.79.93h-2.12a2.34,2.34,0,0,1,.84-1.85,3.16,3.16,0,0,1,2.13-.73,2.9,2.9,0,0,1,2.06.69,2.61,2.61,0,0,1,.72,2v3.8a4,4,0,0,0,.3,1.64v.13Zm-1.24-1.51a1.2,1.2,0,0,0,.59-.14,1,1,0,0,0,.37-.34V58.2h-.51a1.09,1.09,0,0,0-.85.34,1.36,1.36,0,0,0-.31.92C186.7,60.06,186.94,60.36,187.41,60.36Z" fill="#fff"/>
          <path d="M195.59,59.7a.66.66,0,0,0-.25-.5,5.63,5.63,0,0,0-1.15-.61,4.9,4.9,0,0,1-1.8-1.1,2.12,2.12,0,0,1-.49-1.41,2.27,2.27,0,0,1,.77-1.76,2.92,2.92,0,0,1,2-.69,3.17,3.17,0,0,1,2.13.69,2.32,2.32,0,0,1,.8,1.85h-2.12c0-.66-.27-1-.82-1a.75.75,0,0,0-.55.21.75.75,0,0,0-.22.58.63.63,0,0,0,.24.48,5.62,5.62,0,0,0,1.13.58,4.63,4.63,0,0,1,1.82,1.07,2.16,2.16,0,0,1,.54,1.52,2.11,2.11,0,0,1-.82,1.74,3.27,3.27,0,0,1-2.13.66,3.4,3.4,0,0,1-1.57-.35,2.71,2.71,0,0,1-1.07-1,2.54,2.54,0,0,1-.38-1.34h2a1.23,1.23,0,0,0,.26.83,1,1,0,0,0,.79.28C195.31,60.47,195.59,60.21,195.59,59.7Z" fill="#fff"/>
          <path d="M202.23,62a3.31,3.31,0,0,1-2.54-1,3.88,3.88,0,0,1-.91-2.78v-.64a4.65,4.65,0,0,1,.83-2.95,2.92,2.92,0,0,1,2.4-1,2.76,2.76,0,0,1,2.3,1,4.66,4.66,0,0,1,.78,2.88v1h-4.21a2.19,2.19,0,0,0,.4,1.31,1.33,1.33,0,0,0,1.08.42,2.37,2.37,0,0,0,1.77-.72l.83,1.27a2.67,2.67,0,0,1-1.13.87A3.86,3.86,0,0,1,202.23,62Zm-1.33-5H203v-.19a2.27,2.27,0,0,0-.24-1.1.81.81,0,0,0-.77-.37.9.9,0,0,0-.81.39A2.86,2.86,0,0,0,200.9,57.05Z" fill="#fff"/>
          <path d="M208.5,61.87h-2.12V50.39h2.12Z" fill="#fff"/>
          <path d="M210.14,51.69a1.19,1.19,0,0,1,2-.81,1.09,1.09,0,0,1,.31.81,1.12,1.12,0,0,1-.31.81,1.11,1.11,0,0,1-.84.32,1.14,1.14,0,0,1-.84-.32A1.12,1.12,0,0,1,210.14,51.69Zm2.22,10.18h-2.12V53.78h2.12Z" fill="#fff"/>
          <path d="M215.93,53.78l.06.8a2.25,2.25,0,0,1,1.88-.95c1.39,0,2.1,1,2.14,2.92v5.32h-2.12V56.71a1.84,1.84,0,0,0-.21-1,.8.8,0,0,0-.72-.31,1,1,0,0,0-.89.59v5.88h-2.13V53.78Z" fill="#fff"/>
          <path d="M224.79,62a3.32,3.32,0,0,1-2.54-1,3.88,3.88,0,0,1-.91-2.78v-.64a4.59,4.59,0,0,1,.84-2.95,2.9,2.9,0,0,1,2.4-1,2.74,2.74,0,0,1,2.29,1,4.66,4.66,0,0,1,.78,2.88v1h-4.2a2.19,2.19,0,0,0,.39,1.31,1.35,1.35,0,0,0,1.09.42,2.41,2.41,0,0,0,1.77-.72l.83,1.27a2.74,2.74,0,0,1-1.13.87A3.9,3.9,0,0,1,224.79,62Zm-1.33-5h2.12v-.19a2.27,2.27,0,0,0-.24-1.1.83.83,0,0,0-.78-.37.87.87,0,0,0-.8.39A2.71,2.71,0,0,0,223.46,57.05Z" fill="#fff"/>
        </g>
        <path d="M186.23,87.24a.76.76,0,0,1,0-1.08l1.08-1.09a.78.78,0,0,1,1.08,0l3.35,3.35,7.18-7.17a.76.76,0,0,1,1.08,0l1.08,1.08a.76.76,0,0,1,0,1.08l-8.8,8.8a.76.76,0,0,1-1.08,0Z" fill="#4d4d4d"/>
        <path d="M186.23,117.84a.76.76,0,0,1,0-1.08l1.08-1.08a.76.76,0,0,1,1.08,0l3.35,3.35,7.18-7.18a.76.76,0,0,1,1.08,0l1.08,1.08a.77.77,0,0,1,0,1.09l-8.8,8.8a.78.78,0,0,1-1.08,0Z" fill="#4d4d4d"/>
        <path d="M186.23,148.44a.76.76,0,0,1,0-1.08l1.08-1.08a.76.76,0,0,1,1.08,0l3.35,3.35,7.18-7.18a.76.76,0,0,1,1.08,0l1.08,1.09a.76.76,0,0,1,0,1.08l-8.8,8.8a.76.76,0,0,1-1.08,0Z" fill="#4d4d4d"/>
        <path d="M242.22,57.76h.92v1.75h-.92v2.36H240.1V59.51h-3.6l-.1-1.36L240.09,51h2.13Zm-3.76,0h1.64V54.12l0,.08Z" fill="#fff"/>
        <path d="M251.35,57.43H244.8V55.65h6.55Z" fill="#fff"/>
        <g>
          <path d="M258.85,53.88a2.77,2.77,0,0,1-.34,1.4,2.55,2.55,0,0,1-.92,1,2.89,2.89,0,0,1,1.06,1.05A3.05,3.05,0,0,1,255.92,62a3.12,3.12,0,0,1-2.29-.84,3.46,3.46,0,0,1-.46-3.87,2.68,2.68,0,0,1,1.06-1.05,2.58,2.58,0,0,1-.93-1,2.87,2.87,0,0,1-.34-1.4,3,3,0,0,1,.8-2.23,3.26,3.26,0,0,1,4.3,0A3.07,3.07,0,0,1,258.85,53.88Zm-2.93,6.38a.83.83,0,0,0,.74-.41,2.12,2.12,0,0,0,.26-1.13,2,2,0,0,0-.27-1.13.84.84,0,0,0-.74-.42.86.86,0,0,0-.75.42,2.5,2.5,0,0,0,0,2.26A.89.89,0,0,0,255.92,60.26Zm.82-6.27a2.09,2.09,0,0,0-.2-1,.68.68,0,0,0-.63-.39.69.69,0,0,0-.62.37,2.24,2.24,0,0,0-.2,1,2.38,2.38,0,0,0,.2,1,.68.68,0,0,0,.63.39.65.65,0,0,0,.62-.39A2.24,2.24,0,0,0,256.74,54Z" fill="#fff"/>
          <path d="M270,58.32l.72-4.54h2L271,61.87h-1.75l-1.14-4.68L267,61.87h-1.76l-1.67-8.09h2l.71,4.55,1.08-4.55h1.5Z" fill="#fff"/>
          <path d="M277,62a3.31,3.31,0,0,1-2.54-1,3.88,3.88,0,0,1-.91-2.78v-.64a4.65,4.65,0,0,1,.83-2.95,2.92,2.92,0,0,1,2.4-1,2.76,2.76,0,0,1,2.3,1,4.66,4.66,0,0,1,.78,2.88v1h-4.21a2.19,2.19,0,0,0,.4,1.31,1.33,1.33,0,0,0,1.08.42,2.37,2.37,0,0,0,1.77-.72l.83,1.27a2.7,2.7,0,0,1-1.12.87A3.94,3.94,0,0,1,277,62Zm-1.33-5h2.11v-.19a2.27,2.27,0,0,0-.24-1.1.81.81,0,0,0-.77-.37.9.9,0,0,0-.81.39A2.86,2.86,0,0,0,275.7,57.05Z" fill="#fff"/>
          <path d="M284.35,62a3.32,3.32,0,0,1-2.54-1,3.88,3.88,0,0,1-.91-2.78v-.64a4.59,4.59,0,0,1,.84-2.95,2.88,2.88,0,0,1,2.39-1,2.75,2.75,0,0,1,2.3,1,4.66,4.66,0,0,1,.78,2.88v1H283a2.19,2.19,0,0,0,.39,1.31,1.35,1.35,0,0,0,1.09.42,2.41,2.41,0,0,0,1.77-.72l.83,1.27a2.74,2.74,0,0,1-1.13.87A3.94,3.94,0,0,1,284.35,62Zm-1.33-5h2.12v-.19a2.27,2.27,0,0,0-.24-1.1.83.83,0,0,0-.78-.37.87.87,0,0,0-.8.39A2.71,2.71,0,0,0,283,57.05Z" fill="#fff"/>
          <path d="M291.09,58.75l-.57.64v2.48h-2.11V50.39h2.11v6.2l.26-.39,1.47-2.42h2.52l-2.35,3.33L295,61.87h-2.42Z" fill="#fff"/>
          <path d="M299.31,59.7a.67.67,0,0,0-.26-.5,5.1,5.1,0,0,0-1.15-.61,4.76,4.76,0,0,1-1.79-1.1,2.07,2.07,0,0,1-.49-1.41,2.27,2.27,0,0,1,.76-1.76,2.92,2.92,0,0,1,2-.69,3.14,3.14,0,0,1,2.13.69,2.32,2.32,0,0,1,.8,1.85h-2.11c0-.66-.28-1-.83-1a.77.77,0,0,0-.55.21.78.78,0,0,0-.21.58.61.61,0,0,0,.23.48A5.62,5.62,0,0,0,299,57a4.76,4.76,0,0,1,1.83,1.07,2.35,2.35,0,0,1-.28,3.26,3.3,3.3,0,0,1-2.14.66,3.46,3.46,0,0,1-1.57-.35,2.62,2.62,0,0,1-1.06-1,2.46,2.46,0,0,1-.39-1.34h2a1.28,1.28,0,0,0,.26.83,1,1,0,0,0,.8.28C299,60.47,299.31,60.21,299.31,59.7Z" fill="#fff"/>
        </g>
        <path d="M261.5,117.84a.76.76,0,0,1,0-1.08l1.08-1.08a.76.76,0,0,1,1.08,0L267,119l7.18-7.18a.76.76,0,0,1,1.08,0l1.08,1.08a.77.77,0,0,1,0,1.09l-8.8,8.8a.78.78,0,0,1-1.08,0Z" fill="#4d4d4d"/>
        <path d="M261.5,148.44a.76.76,0,0,1,0-1.08l1.08-1.08a.76.76,0,0,1,1.08,0l3.35,3.35,7.18-7.18a.76.76,0,0,1,1.08,0l1.08,1.09a.76.76,0,0,1,0,1.08l-8.8,8.8a.76.76,0,0,1-1.08,0Z" fill="#4d4d4d"/>
        <path d="M261.5,179.05a.77.77,0,0,1,0-1.09l1.08-1.08a.76.76,0,0,1,1.08,0l3.35,3.35,7.18-7.17a.76.76,0,0,1,1.08,0l1.08,1.08a.76.76,0,0,1,0,1.08l-8.8,8.8a.76.76,0,0,1-1.08,0Z" fill="#4d4d4d"/>
        <g>
          <path d="M318.18,57.16h-3.42V60h4.05v1.83h-6.25V51h6.23v1.83h-4v2.57h3.42Z" fill="#fff"/>
          <path d="M322.44,58.88l1-5.1h2.2l-2.21,8.09h-2l-2.23-8.09h2.21Z" fill="#fff"/>
          <path d="M329.83,62a3.32,3.32,0,0,1-2.54-1,3.88,3.88,0,0,1-.91-2.78v-.64a4.59,4.59,0,0,1,.84-2.95,2.88,2.88,0,0,1,2.39-1,2.75,2.75,0,0,1,2.3,1,4.66,4.66,0,0,1,.78,2.88v1h-4.2a2.19,2.19,0,0,0,.39,1.31,1.35,1.35,0,0,0,1.09.42,2.41,2.41,0,0,0,1.77-.72l.83,1.27a2.74,2.74,0,0,1-1.13.87A3.94,3.94,0,0,1,329.83,62Zm-1.33-5h2.12v-.19a2.27,2.27,0,0,0-.24-1.1.83.83,0,0,0-.78-.37.87.87,0,0,0-.8.39A2.71,2.71,0,0,0,328.5,57.05Z" fill="#fff"/>
          <path d="M337.88,55.82l-.7-.06a1.17,1.17,0,0,0-1.18.76v5.35h-2.12V53.78h2l.06.88a1.52,1.52,0,0,1,1.38-1,1.55,1.55,0,0,1,.58.1Z" fill="#fff"/>
          <path d="M341.68,58.35l1.07-4.57H345l-2.66,9.3c-.4,1.37-1.15,2-2.25,2a3.39,3.39,0,0,1-.87-.14V63.34h.25a1.24,1.24,0,0,0,.74-.19,1.17,1.17,0,0,0,.38-.67l.16-.54-2.33-8.17h2.27Z" fill="#fff"/>
          <path d="M351.26,55.46h1a1,1,0,0,0,.85-.4,2,2,0,0,0,.27-1.09,1.6,1.6,0,0,0-.28-1,.93.93,0,0,0-1.47,0,1.31,1.31,0,0,0-.28.86h-2.11a3,3,0,0,1,.39-1.52,2.74,2.74,0,0,1,1.1-1.06,3.62,3.62,0,0,1,3.92.45,3,3,0,0,1,.85,2.27,2.56,2.56,0,0,1-.39,1.37,2.61,2.61,0,0,1-1,1,2.38,2.38,0,0,1,1.15,1,3.11,3.11,0,0,1,.38,1.56,3,3,0,0,1-.93,2.32,3.38,3.38,0,0,1-2.42.88,3.08,3.08,0,0,1-2.27-.87,3,3,0,0,1-.87-2.26h2.11a1.56,1.56,0,0,0,.31,1,.92.92,0,0,0,.78.4,1,1,0,0,0,.86-.4,1.71,1.71,0,0,0,.32-1.08c0-1.07-.42-1.61-1.25-1.61h-1Z" fill="#fff"/>
          <path d="M362.69,53.78l.06.75a2.28,2.28,0,0,1,1.88-.9,1.75,1.75,0,0,1,1.71,1.09,2.22,2.22,0,0,1,2-1.09c1.41,0,2.14,1,2.17,2.94v5.3h-2.11V56.7a1.92,1.92,0,0,0-.2-1,.71.71,0,0,0-.65-.3c-.4,0-.69.25-.88.73v5.74h-2.11V56.72a2.12,2.12,0,0,0-.19-1,.74.74,0,0,0-.67-.31,1,1,0,0,0-.86.59v5.88h-2.12V53.78Z" fill="#fff"/>
          <path d="M371.81,57.56a4.43,4.43,0,0,1,.86-2.88,3.29,3.29,0,0,1,4.82,0,4.46,4.46,0,0,1,.86,2.9v.51a4.37,4.37,0,0,1-.86,2.89,3.3,3.3,0,0,1-4.82,0,4.43,4.43,0,0,1-.86-2.89Zm2.12.53c0,1.45.39,2.17,1.16,2.17s1.09-.6,1.15-1.81v-.89a3.48,3.48,0,0,0-.31-1.64,1,1,0,0,0-.87-.53.93.93,0,0,0-.84.53,3.49,3.49,0,0,0-.3,1.64Z" fill="#fff"/>
          <path d="M381.6,53.78l.06.8a2.26,2.26,0,0,1,1.88-.95c1.39,0,2.1,1,2.14,2.92v5.32h-2.12V56.71a2,2,0,0,0-.2-1,.83.83,0,0,0-.73-.31,1,1,0,0,0-.89.59v5.88h-2.12V53.78Z" fill="#fff"/>
          <path d="M389.66,51.8v2h1.08v1.59h-1.08v4a1.15,1.15,0,0,0,.13.65.58.58,0,0,0,.5.18,1.75,1.75,0,0,0,.5,0v1.64a3.2,3.2,0,0,1-1.17.21c-1.36,0-2.05-.79-2.07-2.35v-4.3h-.93V53.78h.93v-2Z" fill="#fff"/>
          <path d="M394,54.49a2.1,2.1,0,0,1,1.69-.86,2,2,0,0,1,1.68.78,3.91,3.91,0,0,1,.58,2.32v5.14h-2.12V56.75a1.83,1.83,0,0,0-.22-1,.81.81,0,0,0-.71-.32,1,1,0,0,0-.9.53v5.94h-2.11V50.39H394Z" fill="#fff"/>
          <path d="M403,59.7a.67.67,0,0,0-.26-.5,5.1,5.1,0,0,0-1.15-.61,4.76,4.76,0,0,1-1.79-1.1,2.07,2.07,0,0,1-.49-1.41,2.27,2.27,0,0,1,.76-1.76,2.92,2.92,0,0,1,2-.69,3.14,3.14,0,0,1,2.13.69,2.32,2.32,0,0,1,.8,1.85h-2.11c0-.66-.28-1-.83-1a.77.77,0,0,0-.55.21.78.78,0,0,0-.22.58.63.63,0,0,0,.24.48,5.62,5.62,0,0,0,1.13.58,4.76,4.76,0,0,1,1.83,1.07,2.35,2.35,0,0,1-.28,3.26,3.3,3.3,0,0,1-2.14.66,3.46,3.46,0,0,1-1.57-.35,2.62,2.62,0,0,1-1.06-1,2.46,2.46,0,0,1-.39-1.34h2a1.28,1.28,0,0,0,.26.83,1,1,0,0,0,.8.28C402.72,60.47,403,60.21,403,59.7Z" fill="#fff"/>
        </g>
        <path d="M351.22,87.24a.76.76,0,0,1,0-1.08l1.09-1.09a.78.78,0,0,1,1.08,0l3.35,3.35,7.17-7.17a.77.77,0,0,1,1.09,0l1.08,1.08a.76.76,0,0,1,0,1.08l-8.8,8.8a.76.76,0,0,1-1.08,0Z" fill="#4d4d4d"/>
        <path d="M351.22,117.84a.76.76,0,0,1,0-1.08l1.09-1.08a.76.76,0,0,1,1.08,0l3.35,3.35,7.17-7.18a.77.77,0,0,1,1.09,0l1.08,1.08a.77.77,0,0,1,0,1.09l-8.8,8.8a.78.78,0,0,1-1.08,0Z" fill="#4d4d4d"/>
        <path d="M351.22,148.44a.76.76,0,0,1,0-1.08l1.09-1.08a.76.76,0,0,1,1.08,0l3.35,3.35,7.17-7.18a.77.77,0,0,1,1.09,0l1.08,1.09a.76.76,0,0,1,0,1.08l-8.8,8.8a.76.76,0,0,1-1.08,0Z" fill="#4d4d4d"/>
        <g>
          <path d="M17.73,20.41h5.16v1.17h-6.6V10.7h1.44Z" fill="#fff"/>
          <path d="M29.3,21.58a2.84,2.84,0,0,1-.2-.85,3.11,3.11,0,0,1-2.3,1,2.85,2.85,0,0,1-2-.68,2.19,2.19,0,0,1-.77-1.71,2.28,2.28,0,0,1,1-2,4.49,4.49,0,0,1,2.7-.7h1.35V16a1.57,1.57,0,0,0-.43-1.15,1.74,1.74,0,0,0-1.28-.43,2,2,0,0,0-1.24.37,1.09,1.09,0,0,0-.5.91H24.24a1.86,1.86,0,0,1,.43-1.17,2.86,2.86,0,0,1,1.16-.9,3.91,3.91,0,0,1,1.62-.33,3.23,3.23,0,0,1,2.19.7A2.53,2.53,0,0,1,30.46,16v3.72a4.53,4.53,0,0,0,.29,1.77v.12ZM27,20.52a2.48,2.48,0,0,0,1.24-.33,2.08,2.08,0,0,0,.84-.88V17.66H28c-1.7,0-2.54.49-2.54,1.48a1.25,1.25,0,0,0,.43,1A1.68,1.68,0,0,0,27,20.52Z" fill="#fff"/>
          <path d="M39.47,17.63a4.78,4.78,0,0,1-.85,3,2.73,2.73,0,0,1-2.29,1.13A2.78,2.78,0,0,1,34,20.64l-.07.94H32.63V10.1H34v4.28a2.82,2.82,0,0,1,2.31-1,2.75,2.75,0,0,1,2.31,1.12,5,5,0,0,1,.84,3.05Zm-1.38-.16a3.68,3.68,0,0,0-.55-2.18A1.77,1.77,0,0,0,36,14.52a2,2,0,0,0-2,1.27v3.49a2.07,2.07,0,0,0,2,1.27,1.81,1.81,0,0,0,1.55-.76A4,4,0,0,0,38.09,17.47Z" fill="#fff"/>
          <path d="M40.85,17.46a4.83,4.83,0,0,1,.46-2.14,3.56,3.56,0,0,1,1.3-1.46,3.6,3.6,0,0,1,1.91-.52,3.42,3.42,0,0,1,2.67,1.15,4.38,4.38,0,0,1,1,3v.1a4.67,4.67,0,0,1-.46,2.11,3.34,3.34,0,0,1-1.29,1.46,3.56,3.56,0,0,1-1.93.53,3.37,3.37,0,0,1-2.66-1.15,4.37,4.37,0,0,1-1-3Zm1.39.17a3.46,3.46,0,0,0,.62,2.16,2,2,0,0,0,1.67.81,2,2,0,0,0,1.67-.83,3.73,3.73,0,0,0,.62-2.31,3.45,3.45,0,0,0-.63-2.15,2,2,0,0,0-1.67-.83,2,2,0,0,0-1.66.82A3.78,3.78,0,0,0,42.24,17.63Z" fill="#fff"/>
          <path d="M53.85,14.73a4.83,4.83,0,0,0-.68-.05,1.83,1.83,0,0,0-1.85,1.16v5.74H49.94V13.49h1.34l0,.94a2.15,2.15,0,0,1,1.92-1.09,1.43,1.43,0,0,1,.62.11Z" fill="#fff"/>
          <path d="M60.11,21.58a2.84,2.84,0,0,1-.2-.85,3.11,3.11,0,0,1-2.3,1,2.87,2.87,0,0,1-2-.68,2.18,2.18,0,0,1-.76-1.71,2.28,2.28,0,0,1,1-2,4.49,4.49,0,0,1,2.7-.7h1.34V16a1.53,1.53,0,0,0-.43-1.15,1.74,1.74,0,0,0-1.28-.43,2,2,0,0,0-1.24.37,1.11,1.11,0,0,0-.5.91H55.05a1.86,1.86,0,0,1,.43-1.17,2.89,2.89,0,0,1,1.17-.9,3.86,3.86,0,0,1,1.61-.33,3.23,3.23,0,0,1,2.19.7A2.53,2.53,0,0,1,61.27,16v3.72a4.53,4.53,0,0,0,.29,1.77v.12Zm-2.3-1.06a2.48,2.48,0,0,0,1.24-.33,2,2,0,0,0,.84-.88V17.66H58.81c-1.7,0-2.54.49-2.54,1.48a1.25,1.25,0,0,0,.43,1A1.68,1.68,0,0,0,57.81,20.52Z" fill="#fff"/>
          <path d="M65.32,11.54v2h1.5v1.07h-1.5v5a1.08,1.08,0,0,0,.2.73.84.84,0,0,0,.68.24,4.11,4.11,0,0,0,.66-.08v1.11a3.93,3.93,0,0,1-1.06.15,1.74,1.74,0,0,1-1.4-.56,2.45,2.45,0,0,1-.47-1.59v-5H62.46V13.49h1.47v-2Z" fill="#fff"/>
          <path d="M68.07,17.46a4.84,4.84,0,0,1,.47-2.14,3.43,3.43,0,0,1,1.3-1.46,3.59,3.59,0,0,1,1.9-.52,3.42,3.42,0,0,1,2.67,1.15,4.38,4.38,0,0,1,1,3v.1A4.8,4.8,0,0,1,75,19.74a3.34,3.34,0,0,1-1.29,1.46,3.58,3.58,0,0,1-1.93.53,3.39,3.39,0,0,1-2.67-1.15,4.37,4.37,0,0,1-1-3Zm1.39.17a3.46,3.46,0,0,0,.63,2.16,2.11,2.11,0,0,0,3.34,0,3.8,3.8,0,0,0,.62-2.31,3.45,3.45,0,0,0-.63-2.15,2,2,0,0,0-1.68-.83,2,2,0,0,0-1.65.82A3.72,3.72,0,0,0,69.46,17.63Z" fill="#fff"/>
          <path d="M81.07,14.73a4.72,4.72,0,0,0-.68-.05,1.82,1.82,0,0,0-1.84,1.16v5.74H77.17V13.49h1.34l0,.94a2.18,2.18,0,0,1,1.93-1.09,1.38,1.38,0,0,1,.61.11Z" fill="#fff"/>
          <path d="M85.11,19.55,87,13.49h1.48l-3.25,9.34q-.75,2-2.4,2l-.26,0-.51-.1V23.6l.37,0a1.87,1.87,0,0,0,1.1-.28,2.09,2.09,0,0,0,.64-1l.31-.82-2.89-8h1.51Z" fill="#fff"/>
          <path d="M95.56,10.7l3.56,8.88,3.56-8.88h1.86V21.58H103.1V17.34l.14-4.57-3.58,8.81H98.57L95,12.79l.14,4.55v4.24H93.71V10.7Z" fill="#fff"/>
          <path d="M106.49,17.46a4.83,4.83,0,0,1,.46-2.14,3.49,3.49,0,0,1,1.3-1.46,3.59,3.59,0,0,1,1.9-.52,3.43,3.43,0,0,1,2.68,1.15,4.38,4.38,0,0,1,1,3v.1a4.81,4.81,0,0,1-.46,2.11,3.34,3.34,0,0,1-1.29,1.46,3.56,3.56,0,0,1-1.93.53,3.37,3.37,0,0,1-2.66-1.15,4.37,4.37,0,0,1-1-3Zm1.39.17a3.46,3.46,0,0,0,.62,2.16,2,2,0,0,0,1.67.81,2,2,0,0,0,1.67-.83,3.73,3.73,0,0,0,.62-2.31,3.45,3.45,0,0,0-.63-2.15,2,2,0,0,0-1.68-.83,2,2,0,0,0-1.65.82A3.72,3.72,0,0,0,107.88,17.63Z" fill="#fff"/>
          <path d="M116.89,13.49l0,1a3,3,0,0,1,2.42-1.17c1.71,0,2.57,1,2.59,2.9v5.34h-1.39V16.23a1.8,1.8,0,0,0-.4-1.29,1.58,1.58,0,0,0-1.22-.42,2,2,0,0,0-1.18.36,2.42,2.42,0,0,0-.79.94v5.76h-1.38V13.49Z" fill="#fff"/>
          <path d="M124,11.35a.88.88,0,0,1,.2-.57.79.79,0,0,1,.61-.23.81.81,0,0,1,.62.23.84.84,0,0,1,.21.57.79.79,0,0,1-.21.56.81.81,0,0,1-.62.23.79.79,0,0,1-.61-.23A.83.83,0,0,1,124,11.35Zm1.49,10.23h-1.38V13.49h1.38Z" fill="#fff"/>
          <path d="M129.61,11.54v2h1.51v1.07h-1.51v5a1.14,1.14,0,0,0,.2.73.87.87,0,0,0,.69.24,4.11,4.11,0,0,0,.66-.08v1.11a4,4,0,0,1-1.06.15,1.73,1.73,0,0,1-1.4-.56,2.39,2.39,0,0,1-.47-1.59v-5h-1.47V13.49h1.47v-2Z" fill="#fff"/>
          <path d="M132.37,17.46a4.83,4.83,0,0,1,.46-2.14,3.56,3.56,0,0,1,1.3-1.46,3.6,3.6,0,0,1,1.91-.52,3.42,3.42,0,0,1,2.67,1.15,4.38,4.38,0,0,1,1,3v.1a4.67,4.67,0,0,1-.46,2.11A3.34,3.34,0,0,1,138,21.2a3.56,3.56,0,0,1-1.93.53,3.37,3.37,0,0,1-2.66-1.15,4.37,4.37,0,0,1-1-3Zm1.39.17a3.46,3.46,0,0,0,.62,2.16,2,2,0,0,0,1.67.81,2,2,0,0,0,1.67-.83,3.73,3.73,0,0,0,.62-2.31,3.45,3.45,0,0,0-.63-2.15,2,2,0,0,0-1.67-.83,2,2,0,0,0-1.66.82A3.78,3.78,0,0,0,133.76,17.63Z" fill="#fff"/>
          <path d="M145.37,14.73a4.83,4.83,0,0,0-.68-.05,1.83,1.83,0,0,0-1.85,1.16v5.74h-1.38V13.49h1.34l0,.94a2.15,2.15,0,0,1,1.92-1.09,1.43,1.43,0,0,1,.62.11Z" fill="#fff"/>
          <path d="M146.64,11.35a.84.84,0,0,1,.21-.57.92.92,0,0,1,1.22,0,.84.84,0,0,1,.21.57.82.82,0,1,1-1.64,0Zm1.5,10.23h-1.38V13.49h1.38Z" fill="#fff"/>
          <path d="M151.66,13.49l0,1a3,3,0,0,1,2.42-1.17c1.71,0,2.57,1,2.59,2.9v5.34h-1.38V16.23a1.89,1.89,0,0,0-.4-1.29,1.6,1.6,0,0,0-1.22-.42,2,2,0,0,0-1.19.36,2.51,2.51,0,0,0-.79.94v5.76h-1.38V13.49Z" fill="#fff"/>
          <path d="M158.46,17.47a4.79,4.79,0,0,1,.88-3,3,3,0,0,1,4.62-.07l.07-.9h1.26v7.89a3.31,3.31,0,0,1-.93,2.48,3.44,3.44,0,0,1-2.5.9,4.15,4.15,0,0,1-1.71-.37,2.92,2.92,0,0,1-1.27-1l.71-.83a2.7,2.7,0,0,0,2.18,1.1,2,2,0,0,0,2.13-2.16v-.7a2.82,2.82,0,0,1-2.26,1,2.75,2.75,0,0,1-2.3-1.15A5,5,0,0,1,158.46,17.47Zm1.39.16a3.63,3.63,0,0,0,.56,2.14,1.83,1.83,0,0,0,1.57.78,2,2,0,0,0,1.92-1.18V15.68a2,2,0,0,0-1.9-1.16,1.85,1.85,0,0,0-1.58.78A4,4,0,0,0,159.85,17.63Z" fill="#fff"/>
          <path d="M175.37,17.18h-2.55v4.4h-1.44V10.7H175a4.24,4.24,0,0,1,2.82.84,3,3,0,0,1,1,2.43,2.89,2.89,0,0,1-.55,1.77,3.2,3.2,0,0,1-1.52,1.13l2.55,4.62v.09h-1.54ZM172.82,16H175a2.49,2.49,0,0,0,1.7-.56,1.87,1.87,0,0,0,.63-1.48,2,2,0,0,0-.6-1.55,2.57,2.57,0,0,0-1.74-.55h-2.19Z" fill="#fff"/>
          <path d="M183.94,21.73a3.52,3.52,0,0,1-2.67-1.08,4,4,0,0,1-1-2.89v-.25a4.79,4.79,0,0,1,.46-2.15A3.56,3.56,0,0,1,182,13.88a3.21,3.21,0,0,1,1.79-.54,3,3,0,0,1,2.45,1,4.54,4.54,0,0,1,.87,3v.57h-5.47a2.84,2.84,0,0,0,.7,1.93,2.19,2.19,0,0,0,1.7.74,2.42,2.42,0,0,0,1.24-.3,3.17,3.17,0,0,0,.89-.79l.84.66A3.4,3.4,0,0,1,183.94,21.73Zm-.17-7.25a1.81,1.81,0,0,0-1.4.61,3,3,0,0,0-.71,1.71h4.05v-.11a2.63,2.63,0,0,0-.57-1.63A1.7,1.7,0,0,0,183.77,14.48Z" fill="#fff"/>
          <path d="M191.94,20.6a2,2,0,0,0,1.29-.45,1.57,1.57,0,0,0,.61-1.12h1.31a2.6,2.6,0,0,1-.48,1.32,3.13,3.13,0,0,1-1.18,1,3.57,3.57,0,0,1-4.18-.72,4.41,4.41,0,0,1-1-3v-.23a4.84,4.84,0,0,1,.44-2.1A3.33,3.33,0,0,1,190,13.85a3.53,3.53,0,0,1,1.92-.51,3.25,3.25,0,0,1,2.26.82,2.91,2.91,0,0,1,1,2.11h-1.31a2,2,0,0,0-.59-1.29,1.89,1.89,0,0,0-1.32-.5,1.92,1.92,0,0,0-1.63.76,3.53,3.53,0,0,0-.58,2.19v.26a3.51,3.51,0,0,0,.57,2.15A1.94,1.94,0,0,0,191.94,20.6Z" fill="#fff"/>
          <path d="M196.34,17.46a4.83,4.83,0,0,1,.46-2.14,3.56,3.56,0,0,1,1.3-1.46,3.6,3.6,0,0,1,1.91-.52,3.42,3.42,0,0,1,2.67,1.15,4.38,4.38,0,0,1,1,3v.1a4.67,4.67,0,0,1-.46,2.11A3.34,3.34,0,0,1,202,21.2a3.56,3.56,0,0,1-1.93.53,3.37,3.37,0,0,1-2.66-1.15,4.37,4.37,0,0,1-1-3Zm1.39.17a3.46,3.46,0,0,0,.62,2.16,2,2,0,0,0,1.67.81,2,2,0,0,0,1.67-.83,3.73,3.73,0,0,0,.62-2.31,3.45,3.45,0,0,0-.63-2.15,2,2,0,0,0-1.67-.83,2,2,0,0,0-1.66.82A3.78,3.78,0,0,0,197.73,17.63Z" fill="#fff"/>
          <path d="M206.73,13.49l0,.9a3,3,0,0,1,2.4-1.05,2.3,2.3,0,0,1,2.3,1.3,3.18,3.18,0,0,1,1.05-.94,3.09,3.09,0,0,1,1.53-.36c1.77,0,2.68.94,2.71,2.82v5.42h-1.39V16.24A1.86,1.86,0,0,0,215,15a1.74,1.74,0,0,0-1.33-.43,1.79,1.79,0,0,0-1.87,1.69v5.37h-1.39v-5.3a1.54,1.54,0,0,0-1.73-1.76,1.85,1.85,0,0,0-1.86,1.16v5.9h-1.38V13.49Z" fill="#fff"/>
          <path d="M220.14,13.49l0,.9a3,3,0,0,1,2.4-1.05,2.32,2.32,0,0,1,2.31,1.3,3,3,0,0,1,1-.94,3.12,3.12,0,0,1,1.53-.36c1.78,0,2.68.94,2.71,2.82v5.42h-1.38V16.24a1.86,1.86,0,0,0-.4-1.29,1.73,1.73,0,0,0-1.33-.43,1.83,1.83,0,0,0-1.28.46,1.87,1.87,0,0,0-.59,1.23v5.37H223.8v-5.3a1.54,1.54,0,0,0-1.72-1.76,1.83,1.83,0,0,0-1.86,1.16v5.9h-1.39V13.49Z" fill="#fff"/>
          <path d="M235.61,21.73a3.54,3.54,0,0,1-2.68-1.08,4,4,0,0,1-1-2.89v-.25a4.79,4.79,0,0,1,.46-2.15,3.58,3.58,0,0,1,1.29-1.48,3.18,3.18,0,0,1,1.78-.54,3.05,3.05,0,0,1,2.46,1,4.54,4.54,0,0,1,.87,3v.57h-5.48a2.89,2.89,0,0,0,.7,1.93,2.2,2.2,0,0,0,1.7.74,2.4,2.4,0,0,0,1.24-.3,3,3,0,0,0,.89-.79l.84.66A3.38,3.38,0,0,1,235.61,21.73Zm-.18-7.25a1.83,1.83,0,0,0-1.4.61,3,3,0,0,0-.7,1.71h4v-.11a2.63,2.63,0,0,0-.57-1.63A1.73,1.73,0,0,0,235.43,14.48Z" fill="#fff"/>
          <path d="M241.67,13.49l0,1a3,3,0,0,1,2.42-1.17c1.71,0,2.57,1,2.59,2.9v5.34h-1.39V16.23a1.8,1.8,0,0,0-.4-1.29,1.58,1.58,0,0,0-1.22-.42,2,2,0,0,0-1.18.36,2.42,2.42,0,0,0-.79.94v5.76h-1.38V13.49Z" fill="#fff"/>
          <path d="M248.46,17.47a4.71,4.71,0,0,1,.89-3,3,3,0,0,1,4.55-.16V10.1h1.39V21.58H254l-.07-.87a2.8,2.8,0,0,1-2.31,1,2.77,2.77,0,0,1-2.29-1.15,4.81,4.81,0,0,1-.89-3Zm1.39.16a3.66,3.66,0,0,0,.56,2.15,1.84,1.84,0,0,0,1.57.77,2,2,0,0,0,1.92-1.18V15.66a2,2,0,0,0-1.9-1.14,1.86,1.86,0,0,0-1.59.78A4,4,0,0,0,249.85,17.63Z" fill="#fff"/>
          <path d="M262.42,21.58a2.91,2.91,0,0,1-.19-.85,3.12,3.12,0,0,1-2.3,1,2.89,2.89,0,0,1-2-.68,2.18,2.18,0,0,1-.76-1.71,2.28,2.28,0,0,1,1-2,4.49,4.49,0,0,1,2.7-.7h1.34V16a1.53,1.53,0,0,0-.43-1.15,1.72,1.72,0,0,0-1.28-.43,2,2,0,0,0-1.24.37,1.11,1.11,0,0,0-.5.91h-1.39a1.92,1.92,0,0,1,.43-1.17,3,3,0,0,1,1.17-.9,3.91,3.91,0,0,1,1.62-.33,3.19,3.19,0,0,1,2.18.7,2.53,2.53,0,0,1,.83,1.93v3.72a4.55,4.55,0,0,0,.28,1.77v.12Zm-2.29-1.06a2.47,2.47,0,0,0,1.23-.33,2,2,0,0,0,.84-.88V17.66h-1.08c-1.69,0-2.54.49-2.54,1.48a1.28,1.28,0,0,0,.43,1A1.69,1.69,0,0,0,260.13,20.52Z" fill="#fff"/>
          <path d="M267.63,11.54v2h1.51v1.07h-1.51v5a1.14,1.14,0,0,0,.2.73.86.86,0,0,0,.69.24,4.11,4.11,0,0,0,.66-.08v1.11a4.06,4.06,0,0,1-1.07.15,1.72,1.72,0,0,1-1.39-.56,2.39,2.39,0,0,1-.47-1.59v-5h-1.48V13.49h1.48v-2Z" fill="#fff"/>
          <path d="M270.76,11.35a.88.88,0,0,1,.2-.57.79.79,0,0,1,.61-.23.81.81,0,0,1,.62.23.84.84,0,0,1,.21.57.79.79,0,0,1-.21.56.81.81,0,0,1-.62.23.79.79,0,0,1-.61-.23A.83.83,0,0,1,270.76,11.35Zm1.49,10.23h-1.38V13.49h1.38Z" fill="#fff"/>
          <path d="M274.1,17.46a4.7,4.7,0,0,1,.47-2.14,3.43,3.43,0,0,1,1.3-1.46,3.56,3.56,0,0,1,1.9-.52,3.42,3.42,0,0,1,2.67,1.15,4.38,4.38,0,0,1,1,3v.1a4.8,4.8,0,0,1-.45,2.11,3.36,3.36,0,0,1-1.3,1.46,3.56,3.56,0,0,1-1.93.53,3.38,3.38,0,0,1-2.66-1.15,4.37,4.37,0,0,1-1-3Zm1.39.17a3.53,3.53,0,0,0,.62,2.16,2.12,2.12,0,0,0,3.35,0,3.8,3.8,0,0,0,.62-2.31,3.39,3.39,0,0,0-.64-2.15,2,2,0,0,0-1.67-.83,2,2,0,0,0-1.65.82A3.72,3.72,0,0,0,275.49,17.63Z" fill="#fff"/>
          <path d="M284.5,13.49l0,1A3,3,0,0,1,287,13.34c1.71,0,2.57,1,2.59,2.9v5.34h-1.38V16.23a1.89,1.89,0,0,0-.4-1.29,1.6,1.6,0,0,0-1.22-.42,2,2,0,0,0-1.18.36,2.44,2.44,0,0,0-.8.94v5.76h-1.38V13.49Z" fill="#fff"/>
          <path d="M296.34,19.43a1,1,0,0,0-.42-.87,4.19,4.19,0,0,0-1.47-.53,7,7,0,0,1-1.67-.54,2.4,2.4,0,0,1-.91-.75,1.74,1.74,0,0,1-.3-1,2.08,2.08,0,0,1,.85-1.68,3.25,3.25,0,0,1,2.14-.69,3.39,3.39,0,0,1,2.23.71,2.27,2.27,0,0,1,.86,1.82h-1.39a1.26,1.26,0,0,0-.48-1,1.84,1.84,0,0,0-1.22-.41,1.9,1.9,0,0,0-1.18.33,1,1,0,0,0-.42.86.84.84,0,0,0,.39.75,5.06,5.06,0,0,0,1.43.49,7.51,7.51,0,0,1,1.68.55,2.43,2.43,0,0,1,1,.77,1.91,1.91,0,0,1,.31,1.11,2.07,2.07,0,0,1-.86,1.73,3.62,3.62,0,0,1-2.25.66,4.06,4.06,0,0,1-1.72-.35,2.65,2.65,0,0,1-1.17-1,2.3,2.3,0,0,1-.42-1.33h1.38a1.44,1.44,0,0,0,.56,1.1,2.15,2.15,0,0,0,1.37.41,2.26,2.26,0,0,0,1.26-.32A1,1,0,0,0,296.34,19.43Z" fill="#fff"/>
        </g>
      </g>
    </g>
  </g>
</svg>
