<svg xmlns="http://www.w3.org/2000/svg" xmlns:xlink="http://www.w3.org/1999/xlink" width="414.97" height="310.76" viewBox="0 0 414.97 310.76">
  <defs>
    <clipPath id="clip-path" transform="translate(0)">
      <rect x="0.5" width="173.59" height="88.32" fill="none"/>
    </clipPath>
    <clipPath id="clip-path-2" transform="translate(0)">
      <rect x="174.08" width="240.88" height="28.29" fill="none"/>
    </clipPath>
    <clipPath id="clip-path-3" transform="translate(0)">
      <rect x="0.65" y="114.41" width="414.32" height="32.61" fill="none"/>
    </clipPath>
    <clipPath id="clip-path-4" transform="translate(0)">
      <rect y="232.91" width="414.31" height="77.85" fill="none"/>
    </clipPath>
  </defs>
  <g id="Layer_2" data-name="Layer 2">
    <g id="Layer_1-2" data-name="Layer 1">
      <g>
        <g>
          <g opacity="0.7">
            <g clip-path="url(#clip-path)">
              <rect x="0.5" width="173.59" height="88.32" fill="#bf6b04"/>
            </g>
          </g>
          <g opacity="0.7">
            <g clip-path="url(#clip-path-2)">
              <rect x="174.08" width="240.88" height="28.29" fill="#bf6b04"/>
            </g>
          </g>
          <g opacity="0.3">
            <g clip-path="url(#clip-path-3)">
              <rect x="0.65" y="114.41" width="414.32" height="32.61" fill="#bf6b04"/>
            </g>
          </g>
          <g opacity="0.3">
            <g clip-path="url(#clip-path-4)">
              <rect y="232.91" width="414.32" height="77.85" fill="#bf6b04"/>
            </g>
          </g>
        </g>
        <g>
          <path d="M7.46,52.16v3.71H5.21V45.32H9a3.6,3.6,0,0,1,2.65,1,3.4,3.4,0,0,1,1,2.52,3.17,3.17,0,0,1-1,2.45,3.83,3.83,0,0,1-2.7.9Zm0-1.78H9a1.25,1.25,0,0,0,1-.4,1.66,1.66,0,0,0,.35-1.16A2,2,0,0,0,10,47.57a1.17,1.17,0,0,0-1-.48H7.46Z" transform="translate(0)" fill="#fff"/>
          <path d="M17.9,55.87a2.89,2.89,0,0,1-.18-.61,1.9,1.9,0,0,1-1.58.75,2.39,2.39,0,0,1-1.73-.65,2.22,2.22,0,0,1-.69-1.69,2.3,2.3,0,0,1,.83-1.9,3.81,3.81,0,0,1,2.4-.69h.66v-.63a1.13,1.13,0,0,0-.19-.75.72.72,0,0,0-.56-.22q-.81,0-.81.9H13.88a2.2,2.2,0,0,1,.86-1.79,3.32,3.32,0,0,1,2.18-.71,3.07,3.07,0,0,1,2.11.67,2.45,2.45,0,0,1,.75,1.92v3.69a3.57,3.57,0,0,0,.31,1.58v.13ZM16.62,54.4a1.32,1.32,0,0,0,.62-.13,1.09,1.09,0,0,0,.37-.33V52.31h-.52a1.15,1.15,0,0,0-.87.33,1.24,1.24,0,0,0-.32.89Q15.9,54.4,16.62,54.4Z" transform="translate(0)" fill="#fff"/>
          <path d="M23.88,46.1V48H25v1.53H23.88v3.9a1.11,1.11,0,0,0,.13.64.66.66,0,0,0,.52.17,2,2,0,0,0,.52-.05l0,1.6a3.59,3.59,0,0,1-1.2.19c-1.4,0-2.11-.76-2.12-2.28V49.56h-1V48h1V46.1Z" transform="translate(0)" fill="#fff"/>
          <path d="M26.18,46a1.07,1.07,0,0,1,.32-.79,1.22,1.22,0,0,1,.86-.3,1.2,1.2,0,0,1,.86.3,1,1,0,0,1,.32.79,1.06,1.06,0,0,1-.31.78,1.19,1.19,0,0,1-.87.31,1.16,1.16,0,0,1-.86-.31A1.06,1.06,0,0,1,26.18,46Zm2.28,9.87H26.28V48h2.18Z" transform="translate(0)" fill="#fff"/>
          <path d="M33.49,56a3.52,3.52,0,0,1-2.61-.94,3.69,3.69,0,0,1-.93-2.7v-.62a4.23,4.23,0,0,1,.86-2.86,3.05,3.05,0,0,1,2.46-1,2.88,2.88,0,0,1,2.35.95,4.3,4.3,0,0,1,.81,2.79v1H32.11a2.07,2.07,0,0,0,.41,1.28,1.44,1.44,0,0,0,1.11.4,2.55,2.55,0,0,0,1.82-.7l.85,1.24a2.91,2.91,0,0,1-1.16.84A4.29,4.29,0,0,1,33.49,56ZM32.13,51.2H34.3V51A2.09,2.09,0,0,0,34.05,50a.88.88,0,0,0-.8-.37.91.91,0,0,0-.82.39A2.53,2.53,0,0,0,32.13,51.2Z" transform="translate(0)" fill="#fff"/>
          <path d="M39.64,48l.06.77a2.38,2.38,0,0,1,1.93-.92c1.43,0,2.16.95,2.2,2.83v5.16H41.65v-5a1.72,1.72,0,0,0-.21-1,.84.84,0,0,0-.74-.3,1,1,0,0,0-.92.57v5.7H37.6V48Z" transform="translate(0)" fill="#fff"/>
          <path d="M47.91,46.1V48H49v1.53H47.91v3.9a1.1,1.1,0,0,0,.14.64.65.65,0,0,0,.52.17,1.82,1.82,0,0,0,.51-.05l0,1.6a3.5,3.5,0,0,1-1.19.19q-2.1,0-2.13-2.28V49.56h-1V48h1V46.1Z" transform="translate(0)" fill="#fff"/>
          <path d="M53.89,53.77a.65.65,0,0,0-.26-.49,5.82,5.82,0,0,0-1.18-.59,5,5,0,0,1-1.85-1.07,2,2,0,0,1-.5-1.37,2.14,2.14,0,0,1,.79-1.7A3.11,3.11,0,0,1,53,47.88a3.35,3.35,0,0,1,2.19.67A2.2,2.2,0,0,1,56,50.34H53.8q0-1-.84-1a.84.84,0,0,0-.57.2.78.78,0,0,0-.22.57.57.57,0,0,0,.25.46,5.72,5.72,0,0,0,1.16.57,4.9,4.9,0,0,1,1.87,1A2,2,0,0,1,56,53.69a2,2,0,0,1-.84,1.68A3.48,3.48,0,0,1,53,56a3.7,3.7,0,0,1-1.61-.33,2.74,2.74,0,0,1-1.1-.94,2.36,2.36,0,0,1-.39-1.3h2.06a1.15,1.15,0,0,0,.27.8,1.05,1.05,0,0,0,.81.27C53.6,54.51,53.89,54.26,53.89,53.77Z" transform="translate(0)" fill="#fff"/>
          <path d="M67,52.42,67.76,48h2.08l-1.72,7.84h-1.8l-1.18-4.54L64,55.87H62.16L60.44,48h2.09l.73,4.4L64.37,48h1.54Z" transform="translate(0)" fill="#fff"/>
          <path d="M70.91,46a1.07,1.07,0,0,1,.32-.79,1.23,1.23,0,0,1,.86-.3,1.2,1.2,0,0,1,.86.3,1,1,0,0,1,.33.79,1.06,1.06,0,0,1-.32.78,1.19,1.19,0,0,1-.87.31,1.16,1.16,0,0,1-.86-.31A1.06,1.06,0,0,1,70.91,46Zm2.28,9.87H71V48h2.18Z" transform="translate(0)" fill="#fff"/>
          <path d="M77.39,46.1V48h1.12v1.53H77.39v3.9a1.1,1.1,0,0,0,.14.64.65.65,0,0,0,.52.17,1.82,1.82,0,0,0,.51-.05l0,1.6a3.5,3.5,0,0,1-1.19.19q-2.1,0-2.13-2.28V49.56h-1V48h1V46.1Z" transform="translate(0)" fill="#fff"/>
          <path d="M81.81,48.71a2.21,2.21,0,0,1,1.74-.83,2,2,0,0,1,1.72.76,3.54,3.54,0,0,1,.6,2.24v5H83.69v-5a1.69,1.69,0,0,0-.22-1,.85.85,0,0,0-.74-.31,1,1,0,0,0-.92.51v5.76H79.64V44.74h2.17Z" transform="translate(0)" fill="#fff"/>
          <path d="M94.4,56a3.52,3.52,0,0,1-2.61-.94,3.69,3.69,0,0,1-.93-2.7v-.62a4.23,4.23,0,0,1,.86-2.86,3.05,3.05,0,0,1,2.46-1,2.88,2.88,0,0,1,2.35.95,4.3,4.3,0,0,1,.81,2.79v1H93a2.07,2.07,0,0,0,.41,1.28,1.44,1.44,0,0,0,1.11.4,2.55,2.55,0,0,0,1.82-.7l.85,1.24a2.91,2.91,0,0,1-1.16.84A4.29,4.29,0,0,1,94.4,56ZM93,51.2h2.17V51A2.09,2.09,0,0,0,95,50a.88.88,0,0,0-.8-.37.91.91,0,0,0-.82.39A2.53,2.53,0,0,0,93,51.2Z" transform="translate(0)" fill="#fff"/>
          <path d="M101.2,53l1-4.94h2.26l-2.28,7.84h-2.07L97.87,48h2.28Z" transform="translate(0)" fill="#fff"/>
          <path d="M108.79,56a3.49,3.49,0,0,1-2.61-.94,3.69,3.69,0,0,1-.94-2.7v-.62a4.28,4.28,0,0,1,.86-2.86,3.09,3.09,0,0,1,2.47-1,2.9,2.9,0,0,1,2.35.95,4.3,4.3,0,0,1,.81,2.79v1h-4.32a2.07,2.07,0,0,0,.4,1.28,1.45,1.45,0,0,0,1.12.4,2.53,2.53,0,0,0,1.81-.7l.86,1.24a3,3,0,0,1-1.16.84A4.29,4.29,0,0,1,108.79,56Zm-1.37-4.81h2.17V51a2.1,2.1,0,0,0-.24-1.06.89.89,0,0,0-.8-.37.9.9,0,0,0-.82.39A2.41,2.41,0,0,0,107.42,51.2Z" transform="translate(0)" fill="#fff"/>
          <path d="M114.94,48l.06.77a2.36,2.36,0,0,1,1.93-.92c1.42,0,2.16.95,2.2,2.83v5.16H117v-5a1.72,1.72,0,0,0-.21-1,.84.84,0,0,0-.74-.3,1,1,0,0,0-.92.57v5.7H112.9V48Z" transform="translate(0)" fill="#fff"/>
          <path d="M123.21,46.1V48h1.11v1.53h-1.11v3.9a1.11,1.11,0,0,0,.13.64.66.66,0,0,0,.52.17,2,2,0,0,0,.52-.05l0,1.6a3.59,3.59,0,0,1-1.2.19c-1.4,0-2.11-.76-2.12-2.28V49.56h-1V48h1V46.1Z" transform="translate(0)" fill="#fff"/>
          <path d="M129.19,53.77a.63.63,0,0,0-.27-.49,5.54,5.54,0,0,0-1.18-.59,5,5,0,0,1-1.84-1.07,1.93,1.93,0,0,1-.5-1.37,2.16,2.16,0,0,1,.78-1.7,3.16,3.16,0,0,1,2.09-.67,3.3,3.3,0,0,1,2.18.67,2.17,2.17,0,0,1,.82,1.79H129.1q0-1-.84-1a.84.84,0,0,0-.57.2.74.74,0,0,0-.22.57.59.59,0,0,0,.24.46,6,6,0,0,0,1.16.57,4.87,4.87,0,0,1,1.88,1,2.06,2.06,0,0,1,.55,1.48,2,2,0,0,1-.84,1.68,3.5,3.5,0,0,1-2.19.64,3.7,3.7,0,0,1-1.61-.33,2.74,2.74,0,0,1-1.1-.94,2.36,2.36,0,0,1-.39-1.3h2.06a1.15,1.15,0,0,0,.27.8,1,1,0,0,0,.81.27C128.89,54.51,129.19,54.26,129.19,53.77Z" transform="translate(0)" fill="#fff"/>
          <path d="M133.29,58.53,132.13,58l.29-.51a3.52,3.52,0,0,0,.51-1.73V54.08h1.89v1.46a3.71,3.71,0,0,1-.42,1.6A4.16,4.16,0,0,1,133.29,58.53Z" transform="translate(0)" fill="#fff"/>
        </g>
        <g>
          <path d="M7.09,73l.06.78a2.36,2.36,0,0,1,1.93-.92c1.42,0,2.16.94,2.2,2.83v5.15H9.1v-5a1.71,1.71,0,0,0-.21-1,.84.84,0,0,0-.74-.3,1,1,0,0,0-.92.57v5.69H5.05V73Z" transform="translate(0)" fill="#fff"/>
          <path d="M16.59,76.58a11.79,11.79,0,0,1,.4-3.11,8.78,8.78,0,0,1,1.2-2.67,4.67,4.67,0,0,1,1.72-1.63l.4,1.13a5.26,5.26,0,0,0-1.37,2.36,12.69,12.69,0,0,0-.53,3.68v.43a13.37,13.37,0,0,0,.5,3.83,5.56,5.56,0,0,0,1.4,2.46l-.4,1.11a4.62,4.62,0,0,1-1.7-1.6A8.6,8.6,0,0,1,17,80a12,12,0,0,1-.42-3.07Z" transform="translate(0)" fill="#fff"/>
          <path d="M21.49,72.35a2.21,2.21,0,0,1,.56-1.57,2,2,0,0,1,1.52-.61,2,2,0,0,1,1.53.6,2.21,2.21,0,0,1,.58,1.61v.53a2.16,2.16,0,0,1-.57,1.57,2.23,2.23,0,0,1-3,0,2.18,2.18,0,0,1-.58-1.61Zm1.41.56a1.11,1.11,0,0,0,.19.69.61.61,0,0,0,.5.26.57.57,0,0,0,.49-.27,1.23,1.23,0,0,0,.18-.7v-.54a1.15,1.15,0,0,0-.19-.69.57.57,0,0,0-.5-.27.58.58,0,0,0-.49.27,1.27,1.27,0,0,0-.18.71ZM24,80.08l-1-.55,4.58-8.24,1,.55Zm1.91-1.79a2.17,2.17,0,0,1,.58-1.58,2,2,0,0,1,1.51-.6,2,2,0,0,1,1.53.59,2.26,2.26,0,0,1,.58,1.62v.53a2.22,2.22,0,0,1-.56,1.57,2.26,2.26,0,0,1-3.07,0,2.22,2.22,0,0,1-.57-1.6Zm1.42.56a1.14,1.14,0,0,0,.2.68.59.59,0,0,0,.49.28c.42,0,.65-.29.67-.86v-.66a1.18,1.18,0,0,0-.19-.69.58.58,0,0,0-.5-.27c-.44,0-.67.37-.67,1.11Z" transform="translate(0)" fill="#fff"/>
          <path d="M35,76.76A11.08,11.08,0,0,1,34.59,80a9.17,9.17,0,0,1-1.27,2.65,4.68,4.68,0,0,1-1.71,1.57l-.4-1.11a5.42,5.42,0,0,0,1.38-2.42A12.64,12.64,0,0,0,33.11,77v-.38a13.19,13.19,0,0,0-.5-3.77,5.61,5.61,0,0,0-1.4-2.51l.4-1.12a4.2,4.2,0,0,1,1.2.94,7,7,0,0,1,1.12,1.63,10.83,10.83,0,0,1,.81,2.19A11.87,11.87,0,0,1,35,76.76Z" transform="translate(0)" fill="#fff"/>
        </g>
        <g>
          <path d="M10.71,107.61H6.52l-.95,3H4.66L8.22,100H9l3.56,10.55h-.91Zm-3.94-.78h3.69l-1.84-5.66Z" transform="translate(0)" fill="#4d4d4d"/>
          <path d="M19.46,105.51H15.12v4.28h5v.77H14.25V100h5.82v.78h-5v3.95h4.34Z" transform="translate(0)" fill="#4d4d4d"/>
          <path d="M26,108.62a1.15,1.15,0,0,0-.44-.88,6.29,6.29,0,0,0-1.51-.83,8.16,8.16,0,0,1-1.49-.76,2.1,2.1,0,0,1-.62-.65,1.74,1.74,0,0,1-.2-.84,1.89,1.89,0,0,1,.69-1.5,2.68,2.68,0,0,1,1.79-.59,2.73,2.73,0,0,1,1.89.63,2.13,2.13,0,0,1,.7,1.67H26a1.45,1.45,0,0,0-.48-1.11,2.06,2.06,0,0,0-2.45-.07,1.13,1.13,0,0,0-.44.94,1,1,0,0,0,.33.77,7.17,7.17,0,0,0,1.46.8A9,9,0,0,1,26,107a2.38,2.38,0,0,1,.66.69,1.78,1.78,0,0,1,.22.91,1.89,1.89,0,0,1-.71,1.54,3,3,0,0,1-1.88.57,3,3,0,0,1-2-.64,2,2,0,0,1-.76-1.64h.85a1.53,1.53,0,0,0,.52,1.13,2.15,2.15,0,0,0,1.39.4,2,2,0,0,0,1.25-.36A1.16,1.16,0,0,0,26,108.62Z" transform="translate(0)" fill="#4d4d4d"/>
        </g>
        <g>
          <path d="M10.88,137.64a1.83,1.83,0,0,0-.54-1.39,5.42,5.42,0,0,0-2-1,6.55,6.55,0,0,1-2.14-1,2.47,2.47,0,0,1-.89-2,2.49,2.49,0,0,1,.88-2,3.41,3.41,0,0,1,2.28-.76,3.19,3.19,0,0,1,2.33.89,3.05,3.05,0,0,1,.9,2.27h-.88A2.38,2.38,0,0,0,10.2,131a2.27,2.27,0,0,0-1.72-.65,2.41,2.41,0,0,0-1.67.54,1.76,1.76,0,0,0-.61,1.39,1.65,1.65,0,0,0,.57,1.3,5.31,5.31,0,0,0,1.84.91,7.42,7.42,0,0,1,1.9.82,2.71,2.71,0,0,1,1,1,2.75,2.75,0,0,1,.31,1.35,2.51,2.51,0,0,1-.89,2,3.5,3.5,0,0,1-2.34.75A4,4,0,0,1,6.75,140a3,3,0,0,1-1.27-1.09A3.11,3.11,0,0,1,5,137.22H5.9A2.26,2.26,0,0,0,6.61,139a2.83,2.83,0,0,0,1.93.64,2.57,2.57,0,0,0,1.7-.54A1.81,1.81,0,0,0,10.88,137.64Z" transform="translate(0)" fill="#4d4d4d"/>
          <path d="M18.83,137.29H14.64l-1,3h-.91l3.56-10.55h.81l3.56,10.55H19.8Zm-3.93-.78h3.68l-1.84-5.66Z" transform="translate(0)" fill="#4d4d4d"/>
          <path d="M27.58,135.19H23.24v4.28h5v.77H22.37V129.69h5.82v.78h-5v3.95h4.34Z" transform="translate(0)" fill="#4d4d4d"/>
          <path d="M34.14,138.31a1.12,1.12,0,0,0-.44-.89,6.29,6.29,0,0,0-1.51-.83,8.42,8.42,0,0,1-1.48-.75,2,2,0,0,1-.62-.66,1.63,1.63,0,0,1-.2-.84,1.91,1.91,0,0,1,.69-1.5,2.66,2.66,0,0,1,1.79-.59,2.72,2.72,0,0,1,1.88.63,2.14,2.14,0,0,1,.71,1.67h-.85a1.44,1.44,0,0,0-.49-1.11,1.79,1.79,0,0,0-1.25-.43,1.85,1.85,0,0,0-1.2.36,1.16,1.16,0,0,0-.44.94,1,1,0,0,0,.34.77,6.23,6.23,0,0,0,1.46.8,9.51,9.51,0,0,1,1.59.79,2.29,2.29,0,0,1,.66.7,1.72,1.72,0,0,1,.22.9,1.85,1.85,0,0,1-.71,1.54,2.91,2.91,0,0,1-1.88.57,3.05,3.05,0,0,1-2-.63,2.06,2.06,0,0,1-.76-1.65h.86a1.48,1.48,0,0,0,.52,1.13,2.08,2.08,0,0,0,1.38.4,2,2,0,0,0,1.26-.36A1.13,1.13,0,0,0,34.14,138.31Z" transform="translate(0)" fill="#4d4d4d"/>
        </g>
        <g>
          <path d="M6.51,165.63v4.29H5.63V159.37H8.88a3.19,3.19,0,0,1,2.33.84,3.6,3.6,0,0,1,0,4.62,3.28,3.28,0,0,1-2.37.8Zm0-.77H8.88a2.31,2.31,0,0,0,1.7-.61,2.31,2.31,0,0,0,.6-1.71,2.46,2.46,0,0,0-.6-1.75,2.28,2.28,0,0,0-1.7-.64H6.51Z" transform="translate(0)" fill="#4d4d4d"/>
          <path d="M16.56,170.07a3,3,0,0,1-2.29-.91,3.69,3.69,0,0,1-.85-2.58v-1a4.16,4.16,0,0,1,.8-2.7,2.65,2.65,0,0,1,2.2-1,2.53,2.53,0,0,1,2,.83,3.86,3.86,0,0,1,.73,2.55v.75H14.27v.45a3.12,3.12,0,0,0,.61,2.07,2.11,2.11,0,0,0,1.72.74,2.57,2.57,0,0,0,2-.85L19,169A2.92,2.92,0,0,1,16.56,170.07Zm-.14-7.38a1.87,1.87,0,0,0-1.55.67,3.33,3.33,0,0,0-.6,2h4.08v-.21C18.31,163.5,17.66,162.69,16.42,162.69Z" transform="translate(0)" fill="#4d4d4d"/>
          <path d="M24.26,162.83a3.74,3.74,0,0,0-.54-.05,1.66,1.66,0,0,0-1.18.46,2.51,2.51,0,0,0-.68,1.27v5.41H21v-7.84h.84v1.17a2,2,0,0,1,1.9-1.31,1.18,1.18,0,0,1,.52.09Z" transform="translate(0)" fill="#4d4d4d"/>
          <path d="M26.54,162.08l0,1.17a2.46,2.46,0,0,1,2.23-1.31,2,2,0,0,1,2.07,1.44,2.71,2.71,0,0,1,1-1.08,2.61,2.61,0,0,1,1.34-.36c1.5,0,2.26.9,2.3,2.72v5.26h-.85v-5.21a2.55,2.55,0,0,0-.4-1.51,1.51,1.51,0,0,0-1.26-.5,1.84,1.84,0,0,0-1.33.58A2.25,2.25,0,0,0,31,164.7v5.22h-.86v-5.19a2.43,2.43,0,0,0-.4-1.53,1.51,1.51,0,0,0-1.25-.5,1.77,1.77,0,0,0-1.21.46,2.58,2.58,0,0,0-.74,1.3v5.46h-.85v-7.84Z" transform="translate(0)" fill="#4d4d4d"/>
          <path d="M42.12,169.92a4.36,4.36,0,0,1-.15-1.09,2.61,2.61,0,0,1-1,.91,2.68,2.68,0,0,1-1.31.33,2.29,2.29,0,0,1-1.67-.58,2.14,2.14,0,0,1-.6-1.63,2.2,2.2,0,0,1,.84-1.82,3.53,3.53,0,0,1,2.29-.68H42v-1.1a1.51,1.51,0,0,0-.44-1.21,2,2,0,0,0-1.29-.36,1.92,1.92,0,0,0-1.3.43,1.42,1.42,0,0,0-.51,1.13h-.85a2.08,2.08,0,0,1,.77-1.63,2.79,2.79,0,0,1,1.92-.67,2.69,2.69,0,0,1,1.9.59,2.23,2.23,0,0,1,.64,1.73v3.85a4.92,4.92,0,0,0,.23,1.72v.09Zm-2.34-.63a2.38,2.38,0,0,0,1.33-.37,2.18,2.18,0,0,0,.85-1V166H40.61a2.82,2.82,0,0,0-1.76.49,1.57,1.57,0,0,0-.59,1.28A1.33,1.33,0,0,0,39.78,169.29Z" transform="translate(0)" fill="#4d4d4d"/>
        </g>
        <g>
          <path d="M45.93,162.08l0,1.25a2.8,2.8,0,0,1,.94-1,2.3,2.3,0,0,1,1.3-.37q2.16,0,2.22,2.73v5.25h-.84v-5.17a2.67,2.67,0,0,0-.39-1.55,1.44,1.44,0,0,0-1.21-.5,1.76,1.76,0,0,0-1.2.48,2.93,2.93,0,0,0-.81,1.3v5.44h-.85v-7.84Z" transform="translate(0)" fill="#4d4d4d"/>
          <path d="M55.42,170.07a3,3,0,0,1-2.29-.91,3.74,3.74,0,0,1-.85-2.58v-1a4.16,4.16,0,0,1,.8-2.7,2.67,2.67,0,0,1,2.2-1,2.55,2.55,0,0,1,2.06.83,3.92,3.92,0,0,1,.72,2.55v.75H53.13v.45a3.12,3.12,0,0,0,.61,2.07,2.11,2.11,0,0,0,1.72.74,2.57,2.57,0,0,0,2-.85l.44.54A2.92,2.92,0,0,1,55.42,170.07Zm-.14-7.38a1.87,1.87,0,0,0-1.55.67,3.26,3.26,0,0,0-.59,2h4.07v-.21C57.17,163.5,56.52,162.69,55.28,162.69Z" transform="translate(0)" fill="#4d4d4d"/>
          <path d="M60.68,162.08l0,1.25a2.89,2.89,0,0,1,.94-1,2.3,2.3,0,0,1,1.3-.37q2.17,0,2.22,2.73v5.25h-.84v-5.17a2.67,2.67,0,0,0-.39-1.55,1.44,1.44,0,0,0-1.21-.5,1.76,1.76,0,0,0-1.2.48,3,3,0,0,0-.81,1.3v5.44h-.85v-7.84Z" transform="translate(0)" fill="#4d4d4d"/>
          <path d="M68.72,160.08v2h1.42v.72H68.72V168a1.76,1.76,0,0,0,.2,1,.74.74,0,0,0,.68.31,3.51,3.51,0,0,0,.61-.07l0,.72a2.11,2.11,0,0,1-.84.13q-1.5,0-1.53-1.95V162.8H66.58v-.72h1.29v-2Z" transform="translate(0)" fill="#4d4d4d"/>
        </g>
        <g>
          <path d="M5.14,190.65a4.73,4.73,0,0,1,.68-2.78,2.36,2.36,0,0,1,2-.93,2.29,2.29,0,0,1,2.11,1.2V183.8h.85v11.13H10l0-1a2.3,2.3,0,0,1-2.13,1.15,2.32,2.32,0,0,1-2-.94,4.54,4.54,0,0,1-.7-2.67Zm.87.73a4,4,0,0,0,.48,2.21,1.69,1.69,0,0,0,1.52.72,2.05,2.05,0,0,0,2-1.22V189A2,2,0,0,0,8,187.72a1.72,1.72,0,0,0-1.53.7A3.9,3.9,0,0,0,6,190.59Z" transform="translate(0)" fill="#4d4d4d"/>
          <path d="M13.08,184.83a.6.6,0,0,1,.15-.42.48.48,0,0,1,.41-.18.52.52,0,0,1,.42.18.6.6,0,0,1,.15.42.59.59,0,0,1-.15.41.51.51,0,0,1-.42.17.48.48,0,0,1-.41-.17A.59.59,0,0,1,13.08,184.83Zm1,10.1H13.2v-7.84h.86Z" transform="translate(0)" fill="#4d4d4d"/>
          <path d="M20.57,193a1.13,1.13,0,0,0-.45-.89,6.09,6.09,0,0,0-1.51-.83,8.81,8.81,0,0,1-1.48-.75,2,2,0,0,1-.62-.66,1.74,1.74,0,0,1-.2-.84,1.91,1.91,0,0,1,.69-1.5,2.68,2.68,0,0,1,1.79-.59,2.72,2.72,0,0,1,1.88.63,2.14,2.14,0,0,1,.71,1.67h-.85a1.44,1.44,0,0,0-.49-1.11,1.79,1.79,0,0,0-1.25-.43,1.87,1.87,0,0,0-1.2.36,1.16,1.16,0,0,0-.44.94,1,1,0,0,0,.34.77,6.89,6.89,0,0,0,1.46.8,9.51,9.51,0,0,1,1.59.79,2.29,2.29,0,0,1,.66.7,1.72,1.72,0,0,1,.23.9,1.87,1.87,0,0,1-.72,1.54,2.91,2.91,0,0,1-1.88.57,3.05,3.05,0,0,1-2-.63,2.09,2.09,0,0,1-.76-1.65h.86a1.51,1.51,0,0,0,.52,1.13,2.08,2.08,0,0,0,1.38.4,2,2,0,0,0,1.26-.36A1.14,1.14,0,0,0,20.57,193Z" transform="translate(0)" fill="#4d4d4d"/>
          <path d="M26.05,194.32a1.88,1.88,0,0,0,1.37-.47,1.93,1.93,0,0,0,.51-1.35h.82a2.63,2.63,0,0,1-.81,1.89,2.72,2.72,0,0,1-1.89.68,2.73,2.73,0,0,1-2.23-.89,4.06,4.06,0,0,1-.78-2.66v-1a4.17,4.17,0,0,1,.76-2.71,2.73,2.73,0,0,1,2.24-.92,2.58,2.58,0,0,1,1.95.74,3,3,0,0,1,.76,2h-.82a2.28,2.28,0,0,0-.52-1.5A1.74,1.74,0,0,0,26,187.7a1.88,1.88,0,0,0-1.62.7,3.69,3.69,0,0,0-.52,2.16v.89a3.64,3.64,0,0,0,.53,2.19A1.91,1.91,0,0,0,26.05,194.32Z" transform="translate(0)" fill="#4d4d4d"/>
          <path d="M30.23,190.61a4,4,0,0,1,.82-2.68,2.71,2.71,0,0,1,2.21-1,2.76,2.76,0,0,1,2.22,1,4.07,4.07,0,0,1,.82,2.68v.83a4,4,0,0,1-.82,2.69,3,3,0,0,1-4.4,0,4,4,0,0,1-.85-2.59Zm.86.81a3.54,3.54,0,0,0,.58,2.13,2.09,2.09,0,0,0,3.22,0,3.56,3.56,0,0,0,.56-2.13v-.83a3.55,3.55,0,0,0-.58-2.14,1.92,1.92,0,0,0-1.61-.77,1.87,1.87,0,0,0-1.57.76,3.39,3.39,0,0,0-.6,2.09Z" transform="translate(0)" fill="#4d4d4d"/>
          <path d="M39.08,187.09l0,1.24a3,3,0,0,1,.94-1,2.31,2.31,0,0,1,1.3-.38c1.45,0,2.19.91,2.23,2.73v5.26h-.85v-5.17a2.51,2.51,0,0,0-.39-1.55,1.44,1.44,0,0,0-1.2-.5,1.77,1.77,0,0,0-1.21.48,2.91,2.91,0,0,0-.8,1.3v5.44h-.86v-7.84Z" transform="translate(0)" fill="#4d4d4d"/>
          <path d="M47.11,185.09v2h1.42v.72H47.11V193a1.86,1.86,0,0,0,.2,1,.75.75,0,0,0,.68.32,5.24,5.24,0,0,0,.62-.07l0,.72a2.3,2.3,0,0,1-.84.12c-1,0-1.51-.64-1.53-1.94v-5.32H45v-.72h1.28v-2Z" transform="translate(0)" fill="#4d4d4d"/>
          <path d="M50.35,184.83a.6.6,0,0,1,.15-.42.52.52,0,0,1,.42-.18.51.51,0,0,1,.41.18.6.6,0,0,1,.15.42.59.59,0,0,1-.15.41.5.5,0,0,1-.41.17.51.51,0,0,1-.42-.17A.59.59,0,0,1,50.35,184.83Zm1,10.1h-.86v-7.84h.86Z" transform="translate(0)" fill="#4d4d4d"/>
          <path d="M54.5,187.09l0,1.24a3,3,0,0,1,.94-1,2.31,2.31,0,0,1,1.3-.38q2.17,0,2.22,2.73v5.26h-.84v-5.17a2.65,2.65,0,0,0-.39-1.55,1.44,1.44,0,0,0-1.21-.5,1.76,1.76,0,0,0-1.2.48,3,3,0,0,0-.81,1.3v5.44h-.85v-7.84Z" transform="translate(0)" fill="#4d4d4d"/>
          <path d="M65.71,194a2.44,2.44,0,0,1-2.19,1.08,2,2,0,0,1-1.7-.74,3.49,3.49,0,0,1-.59-2.17v-5.07h.85v5a2.67,2.67,0,0,0,.4,1.61,1.33,1.33,0,0,0,1.15.56,2,2,0,0,0,2.06-1.48v-5.74h.86v7.84h-.83Z" transform="translate(0)" fill="#4d4d4d"/>
          <path d="M73.21,194.93a4.79,4.79,0,0,1-.16-1.09,2.59,2.59,0,0,1-1,.91,2.67,2.67,0,0,1-1.31.32,2.32,2.32,0,0,1-1.67-.57,2.14,2.14,0,0,1-.6-1.63,2.24,2.24,0,0,1,.83-1.83,3.62,3.62,0,0,1,2.3-.68h1.43v-1.09a1.49,1.49,0,0,0-.45-1.21,2,2,0,0,0-1.29-.36,1.9,1.9,0,0,0-1.29.43,1.41,1.41,0,0,0-.51,1.12h-.85a2.09,2.09,0,0,1,.76-1.64,2.89,2.89,0,0,1,1.93-.67,2.71,2.71,0,0,1,1.9.6,2.26,2.26,0,0,1,.64,1.73v3.85a5,5,0,0,0,.22,1.72v.09Zm-2.34-.63a2.48,2.48,0,0,0,1.33-.37,2.27,2.27,0,0,0,.85-1V191H71.7a2.8,2.8,0,0,0-1.76.49,1.53,1.53,0,0,0-.59,1.28A1.33,1.33,0,0,0,70.87,194.3Z" transform="translate(0)" fill="#4d4d4d"/>
          <path d="M77.5,185.09v2h1.42v.72H77.5V193a1.76,1.76,0,0,0,.2,1,.74.74,0,0,0,.68.32,4.91,4.91,0,0,0,.61-.07l0,.72a2.24,2.24,0,0,1-.83.12c-1,0-1.51-.64-1.54-1.94v-5.32H75.36v-.72h1.28v-2Z" transform="translate(0)" fill="#4d4d4d"/>
          <path d="M80.74,184.83a.6.6,0,0,1,.15-.42.48.48,0,0,1,.41-.18.52.52,0,0,1,.42.18.6.6,0,0,1,.15.42.59.59,0,0,1-.15.41.51.51,0,0,1-.42.17.48.48,0,0,1-.41-.17A.59.59,0,0,1,80.74,184.83Zm1,10.1h-.86v-7.84h.86Z" transform="translate(0)" fill="#4d4d4d"/>
          <path d="M83.76,190.61a4.1,4.1,0,0,1,.81-2.68,2.71,2.71,0,0,1,2.22-1,2.76,2.76,0,0,1,2.22,1,4.06,4.06,0,0,1,.81,2.68v.83a4.06,4.06,0,0,1-.81,2.69,3,3,0,0,1-4.41,0,4,4,0,0,1-.84-2.59Zm.85.81a3.54,3.54,0,0,0,.58,2.13,1.92,1.92,0,0,0,1.61.77,1.88,1.88,0,0,0,1.61-.75,3.49,3.49,0,0,0,.56-2.13v-.83a3.49,3.49,0,0,0-.58-2.14,1.9,1.9,0,0,0-1.6-.77,1.88,1.88,0,0,0-1.58.76,3.46,3.46,0,0,0-.6,2.09Z" transform="translate(0)" fill="#4d4d4d"/>
          <path d="M92.6,187.09l0,1.24a3,3,0,0,1,.94-1,2.33,2.33,0,0,1,1.3-.38c1.45,0,2.19.91,2.23,2.73v5.26h-.85v-5.17a2.51,2.51,0,0,0-.39-1.55,1.41,1.41,0,0,0-1.2-.5,1.73,1.73,0,0,0-1.2.48,2.84,2.84,0,0,0-.81,1.3v5.44h-.85v-7.84Z" transform="translate(0)" fill="#4d4d4d"/>
          <path d="M103.5,193a1.15,1.15,0,0,0-.44-.89,6.29,6.29,0,0,0-1.51-.83,9,9,0,0,1-1.49-.75,2.13,2.13,0,0,1-.62-.66,1.74,1.74,0,0,1-.2-.84,1.91,1.91,0,0,1,.69-1.5,2.68,2.68,0,0,1,1.79-.59,2.73,2.73,0,0,1,1.89.63,2.13,2.13,0,0,1,.7,1.67h-.85a1.46,1.46,0,0,0-.48-1.11,2.1,2.1,0,0,0-2.45-.07,1.13,1.13,0,0,0-.44.94,1,1,0,0,0,.33.77,7.17,7.17,0,0,0,1.46.8,9.31,9.31,0,0,1,1.6.79,2.29,2.29,0,0,1,.66.7,1.72,1.72,0,0,1,.22.9,1.89,1.89,0,0,1-.71,1.54,3,3,0,0,1-1.88.57,3,3,0,0,1-2-.63,2.06,2.06,0,0,1-.76-1.65h.86a1.47,1.47,0,0,0,.51,1.13,2.1,2.1,0,0,0,1.39.4A2,2,0,0,0,103,194,1.16,1.16,0,0,0,103.5,193Z" transform="translate(0)" fill="#4d4d4d"/>
        </g>
        <g>
          <path d="M5.14,215.65a4.71,4.71,0,0,1,.68-2.77,2.36,2.36,0,0,1,2-.93,2.29,2.29,0,0,1,2.11,1.2V208.8h.85v11.14H10l0-1a2.3,2.3,0,0,1-2.13,1.15,2.32,2.32,0,0,1-2-.94,4.55,4.55,0,0,1-.7-2.68Zm.87.73a4,4,0,0,0,.48,2.22,1.68,1.68,0,0,0,1.52.71,2,2,0,0,0,2-1.21V214A2,2,0,0,0,8,212.73a1.72,1.72,0,0,0-1.53.7A3.9,3.9,0,0,0,6,215.6Z" transform="translate(0)" fill="#4d4d4d"/>
          <path d="M17.56,219a2.43,2.43,0,0,1-2.19,1.08,2,2,0,0,1-1.7-.74,3.51,3.51,0,0,1-.58-2.17v-5.08h.84v5.06a2.69,2.69,0,0,0,.4,1.61,1.33,1.33,0,0,0,1.15.55,1.94,1.94,0,0,0,2.06-1.48v-5.74h.86v7.85h-.82Z" transform="translate(0)" fill="#4d4d4d"/>
          <path d="M23.41,220.08a2.93,2.93,0,0,1-2.29-.91,3.74,3.74,0,0,1-.84-2.58v-1a4.2,4.2,0,0,1,.79-2.71,2.71,2.71,0,0,1,2.2-1,2.58,2.58,0,0,1,2.06.83,4,4,0,0,1,.72,2.55v.76H21.12v.44a3.15,3.15,0,0,0,.61,2.08,2.11,2.11,0,0,0,1.72.73,2.54,2.54,0,0,0,2-.85l.44.54A2.92,2.92,0,0,1,23.41,220.08Zm-.14-7.38a1.9,1.9,0,0,0-1.55.67,3.26,3.26,0,0,0-.59,2H25.2v-.21C25.16,213.51,24.51,212.7,23.27,212.7Z" transform="translate(0)" fill="#4d4d4d"/>
          <path d="M32.67,210.09v2h1.42v.73H32.67V218a1.75,1.75,0,0,0,.21,1,.74.74,0,0,0,.67.32,3.86,3.86,0,0,0,.62-.08l0,.73a2.24,2.24,0,0,1-.83.12c-1,0-1.51-.65-1.54-1.94v-5.32H30.54v-.73h1.28v-2Z" transform="translate(0)" fill="#4d4d4d"/>
          <path d="M35.48,215.62a4,4,0,0,1,.82-2.68,2.71,2.71,0,0,1,2.21-1,2.73,2.73,0,0,1,2.23,1,4.11,4.11,0,0,1,.81,2.67v.84a4.07,4.07,0,0,1-.81,2.69,3,3,0,0,1-4.41,0,4,4,0,0,1-.85-2.6Zm.86.8a3.5,3.5,0,0,0,.58,2.13,2.08,2.08,0,0,0,3.22,0,3.53,3.53,0,0,0,.56-2.13v-.84a3.47,3.47,0,0,0-.58-2.13,2,2,0,0,0-3.18,0,3.45,3.45,0,0,0-.6,2.1Z" transform="translate(0)" fill="#4d4d4d"/>
          <path d="M52.31,217H48.12l-.95,2.95h-.92l3.56-10.56h.82l3.56,10.56h-.92Zm-3.94-.78h3.68l-1.84-5.66Z" transform="translate(0)" fill="#4d4d4d"/>
          <path d="M61.05,214.88H56.72v4.29h5v.77H55.84V209.38h5.83v.79h-5v4h4.33Z" transform="translate(0)" fill="#4d4d4d"/>
          <path d="M67.62,218a1.13,1.13,0,0,0-.45-.88,5.69,5.69,0,0,0-1.5-.83,9.23,9.23,0,0,1-1.49-.76,2.1,2.1,0,0,1-.62-.65,1.74,1.74,0,0,1-.2-.84,1.88,1.88,0,0,1,.69-1.5,2.68,2.68,0,0,1,1.79-.59,2.73,2.73,0,0,1,1.89.63,2.13,2.13,0,0,1,.7,1.67h-.85a1.43,1.43,0,0,0-.48-1.11,1.81,1.81,0,0,0-1.26-.44,1.77,1.77,0,0,0-1.19.37,1.13,1.13,0,0,0-.44.94,1,1,0,0,0,.33.77,7.39,7.39,0,0,0,1.46.8,9.34,9.34,0,0,1,1.6.79,2.38,2.38,0,0,1,.66.69,1.87,1.87,0,0,1,.22.9,1.9,1.9,0,0,1-.71,1.55,3,3,0,0,1-1.88.57,3,3,0,0,1-2-.64,2,2,0,0,1-.77-1.64H64a1.53,1.53,0,0,0,.52,1.13,2.15,2.15,0,0,0,1.39.4,2,2,0,0,0,1.25-.36A1.17,1.17,0,0,0,67.62,218Z" transform="translate(0)" fill="#4d4d4d"/>
        </g>
        <g>
          <path d="M12,239.85H8.85v9.77H8v-9.77H4.79v-.78H12Z" transform="translate(0)" fill="#4d4d4d"/>
          <path d="M15.62,249.76a3,3,0,0,1-2.3-.9,3.77,3.77,0,0,1-.84-2.58v-1a4.15,4.15,0,0,1,.8-2.71,2.68,2.68,0,0,1,2.19-1,2.54,2.54,0,0,1,2.06.84,3.86,3.86,0,0,1,.72,2.55v.75H13.32v.44a3.2,3.2,0,0,0,.61,2.08,2.11,2.11,0,0,0,1.72.73,2.56,2.56,0,0,0,2-.84l.45.53A2.94,2.94,0,0,1,15.62,249.76Zm-.15-7.37a1.88,1.88,0,0,0-1.55.67,3.31,3.31,0,0,0-.59,2H17.4v-.21C17.36,243.19,16.72,242.39,15.47,242.39Z" transform="translate(0)" fill="#4d4d4d"/>
          <path d="M20.85,241.78l0,1.17a2.45,2.45,0,0,1,2.23-1.32,2,2,0,0,1,2.07,1.44,2.78,2.78,0,0,1,1-1.08,2.61,2.61,0,0,1,1.34-.36c1.5,0,2.26.91,2.3,2.73v5.26H29v-5.21a2.55,2.55,0,0,0-.39-1.51,1.51,1.51,0,0,0-1.26-.5A1.84,1.84,0,0,0,26,243a2.29,2.29,0,0,0-.62,1.42v5.22h-.86v-5.19a2.39,2.39,0,0,0-.4-1.53,1.54,1.54,0,0,0-1.26-.5,1.72,1.72,0,0,0-1.2.46,2.58,2.58,0,0,0-.74,1.3v5.46H20v-7.84Z" transform="translate(0)" fill="#4d4d4d"/>
          <path d="M37.7,246.07a4.71,4.71,0,0,1-.67,2.75,2.27,2.27,0,0,1-2,.94,2.42,2.42,0,0,1-2.16-1.08v3.95H32V241.78h.78l0,1.07a2.6,2.6,0,0,1,4.17-.32,4.66,4.66,0,0,1,.67,2.75Zm-.85-.74a3.91,3.91,0,0,0-.49-2.21,1.75,1.75,0,0,0-1.55-.71,2,2,0,0,0-1.93,1.29v4.13A2,2,0,0,0,34.83,249a1.74,1.74,0,0,0,1.52-.71,3.85,3.85,0,0,0,.5-2.19Z" transform="translate(0)" fill="#4d4d4d"/>
        </g>
        <g>
          <path d="M39.35,245.3a4,4,0,0,1,.82-2.68,2.71,2.71,0,0,1,2.21-1,2.76,2.76,0,0,1,2.22,1,4.07,4.07,0,0,1,.82,2.68v.83a4,4,0,0,1-.82,2.69,3,3,0,0,1-4.4,0,3.91,3.91,0,0,1-.85-2.59Zm.86.81a3.42,3.42,0,0,0,.58,2.12,1.89,1.89,0,0,0,1.61.78,1.86,1.86,0,0,0,1.6-.75,3.51,3.51,0,0,0,.57-2.13v-.83a3.55,3.55,0,0,0-.58-2.14,1.92,1.92,0,0,0-1.61-.77,1.87,1.87,0,0,0-1.57.76,3.39,3.39,0,0,0-.6,2.09Z" transform="translate(0)" fill="#4d4d4d"/>
          <path d="M50.64,242.53a4,4,0,0,0-.54-.05,1.61,1.61,0,0,0-1.18.46,2.4,2.4,0,0,0-.68,1.26v5.42h-.86v-7.84h.84l0,1.17a2,2,0,0,1,1.9-1.32,1,1,0,0,1,.51.1Z" transform="translate(0)" fill="#4d4d4d"/>
          <path d="M56.22,249.62a4.44,4.44,0,0,1-.15-1.09,2.69,2.69,0,0,1-1,.91,2.65,2.65,0,0,1-1.31.32,2.33,2.33,0,0,1-1.67-.57,2.14,2.14,0,0,1-.6-1.63,2.22,2.22,0,0,1,.84-1.83,3.59,3.59,0,0,1,2.29-.68h1.43V244a1.51,1.51,0,0,0-.44-1.21,2,2,0,0,0-1.29-.36,1.92,1.92,0,0,0-1.3.43,1.4,1.4,0,0,0-.51,1.12h-.85a2.1,2.1,0,0,1,.77-1.64,2.85,2.85,0,0,1,1.93-.67,2.68,2.68,0,0,1,1.89.6A2.22,2.22,0,0,1,56.9,244v3.85a5,5,0,0,0,.23,1.72v.09ZM53.88,249a2.46,2.46,0,0,0,1.33-.37,2.2,2.2,0,0,0,.85-1v-1.9H54.71a2.82,2.82,0,0,0-1.76.49,1.55,1.55,0,0,0-.59,1.27A1.34,1.34,0,0,0,53.88,249Z" transform="translate(0)" fill="#4d4d4d"/>
          <path d="M62.48,242.53a3.74,3.74,0,0,0-.54-.05,1.62,1.62,0,0,0-1.18.46,2.47,2.47,0,0,0-.68,1.26v5.42h-.85v-7.84h.84V243a2,2,0,0,1,1.9-1.32,1,1,0,0,1,.52.1Z" transform="translate(0)" fill="#4d4d4d"/>
          <path d="M66.31,248.29l2-6.51h.91l-2.92,9.09-.16.44a1.86,1.86,0,0,1-2.42,1.37v-.74a1.23,1.23,0,0,0,.39.05,1.32,1.32,0,0,0,.91-.31,2.24,2.24,0,0,0,.58-1l.35-1.11-2.61-7.79h.94Z" transform="translate(0)" fill="#4d4d4d"/>
          <path d="M73.9,245.34a4.73,4.73,0,0,1,.68-2.78,2.36,2.36,0,0,1,2-.93,2.29,2.29,0,0,1,2.11,1.2v-4.34h.85v11.13h-.8l0-1a2.57,2.57,0,0,1-4.13.21,4.54,4.54,0,0,1-.7-2.67Zm.87.73a4,4,0,0,0,.48,2.21,1.68,1.68,0,0,0,1.52.71,2,2,0,0,0,2-1.21v-4.06a2,2,0,0,0-1.94-1.31,1.72,1.72,0,0,0-1.53.7,3.9,3.9,0,0,0-.48,2.17Z" transform="translate(0)" fill="#4d4d4d"/>
          <path d="M81.55,245.3a4.08,4.08,0,0,1,.81-2.68,2.71,2.71,0,0,1,2.22-1,2.76,2.76,0,0,1,2.22,1,4.12,4.12,0,0,1,.82,2.68v.83a4.06,4.06,0,0,1-.82,2.69,3,3,0,0,1-4.41,0,4,4,0,0,1-.84-2.59Zm.86.81a3.42,3.42,0,0,0,.58,2.12,2.07,2.07,0,0,0,3.21,0,3.51,3.51,0,0,0,.56-2.13v-.83a3.49,3.49,0,0,0-.58-2.14,1.9,1.9,0,0,0-1.6-.77,1.88,1.88,0,0,0-1.58.76,3.46,3.46,0,0,0-.59,2.09Z" transform="translate(0)" fill="#4d4d4d"/>
          <path d="M93.73,247.69a1.15,1.15,0,0,0-.44-.89,6.29,6.29,0,0,0-1.51-.83,8.61,8.61,0,0,1-1.49-.75,2,2,0,0,1-.62-.66,1.74,1.74,0,0,1-.2-.84,1.91,1.91,0,0,1,.69-1.5,2.68,2.68,0,0,1,1.79-.59,2.73,2.73,0,0,1,1.89.63,2.13,2.13,0,0,1,.7,1.67h-.85a1.45,1.45,0,0,0-.48-1.11,2.1,2.1,0,0,0-2.45-.07,1.13,1.13,0,0,0-.44.94,1,1,0,0,0,.33.77,6.89,6.89,0,0,0,1.46.8,9,9,0,0,1,1.6.79,2.38,2.38,0,0,1,.66.69,2,2,0,0,1-.49,2.45,3,3,0,0,1-1.88.57,3,3,0,0,1-2-.63,2.07,2.07,0,0,1-.77-1.65h.86a1.51,1.51,0,0,0,.52,1.13A2.1,2.1,0,0,0,92,249a2,2,0,0,0,1.25-.36A1.14,1.14,0,0,0,93.73,247.69Z" transform="translate(0)" fill="#4d4d4d"/>
          <path d="M99.33,249.76a3,3,0,0,1-2.29-.9,3.73,3.73,0,0,1-.85-2.58v-1a4.21,4.21,0,0,1,.8-2.71,2.68,2.68,0,0,1,2.19-1,2.54,2.54,0,0,1,2.06.84A3.86,3.86,0,0,1,102,245v.75H97v.44a3.15,3.15,0,0,0,.61,2.08,2.1,2.1,0,0,0,1.72.73,2.56,2.56,0,0,0,2-.84l.44.53A2.93,2.93,0,0,1,99.33,249.76Zm-.15-7.37a1.85,1.85,0,0,0-1.54.67,3.31,3.31,0,0,0-.6,2h4.08v-.21C101.08,243.19,100.43,242.39,99.18,242.39Z" transform="translate(0)" fill="#4d4d4d"/>
        </g>
        <g>
          <path d="M8.7,267.54a2.71,2.71,0,0,0-.54-.05,1.65,1.65,0,0,0-1.18.45,2.55,2.55,0,0,0-.68,1.27v5.42H5.45v-7.85h.83l0,1.18a2,2,0,0,1,1.9-1.32,1.11,1.11,0,0,1,.51.09Z" transform="translate(0)" fill="#4d4d4d"/>
          <path d="M12.79,274.77a2.93,2.93,0,0,1-2.29-.91,3.74,3.74,0,0,1-.84-2.58v-.95a4.2,4.2,0,0,1,.79-2.71,2.71,2.71,0,0,1,2.2-1,2.58,2.58,0,0,1,2.06.83,4,4,0,0,1,.72,2.55v.76H10.5v.44a3.15,3.15,0,0,0,.61,2.08,2.11,2.11,0,0,0,1.72.73,2.54,2.54,0,0,0,2-.85l.44.54A2.92,2.92,0,0,1,12.79,274.77Zm-.14-7.38a1.9,1.9,0,0,0-1.55.67,3.26,3.26,0,0,0-.59,2h4.07v-.21C14.54,268.2,13.89,267.39,12.65,267.39Z" transform="translate(0)" fill="#4d4d4d"/>
          <path d="M16.93,270.34a4.64,4.64,0,0,1,.69-2.77,2.34,2.34,0,0,1,2-.93,2.28,2.28,0,0,1,2.11,1.2v-4.35h.85v11.14h-.79l0-1a2.33,2.33,0,0,1-2.14,1.15,2.29,2.29,0,0,1-2-.94,4.62,4.62,0,0,1-.71-2.68Zm.87.73a4,4,0,0,0,.48,2.22,1.69,1.69,0,0,0,1.52.71,2,2,0,0,0,1.95-1.21v-4.06a2,2,0,0,0-1.94-1.32,1.71,1.71,0,0,0-1.52.71,4,4,0,0,0-.49,2.17Z" transform="translate(0)" fill="#4d4d4d"/>
          <path d="M29.36,273.69a2.44,2.44,0,0,1-2.19,1.08,2,2,0,0,1-1.7-.74,3.51,3.51,0,0,1-.59-2.17v-5.08h.85v5.06a2.69,2.69,0,0,0,.4,1.61,1.32,1.32,0,0,0,1.15.55,2,2,0,0,0,2.06-1.48v-5.74h.86v7.85h-.83Z" transform="translate(0)" fill="#4d4d4d"/>
          <path d="M35.09,274a1.88,1.88,0,0,0,1.37-.47A1.92,1.92,0,0,0,37,272.2h.82a2.63,2.63,0,0,1-.81,1.89,2.72,2.72,0,0,1-1.89.68,2.77,2.77,0,0,1-2.23-.89,4.08,4.08,0,0,1-.77-2.66v-1a4.19,4.19,0,0,1,.75-2.71,2.73,2.73,0,0,1,2.24-.91,2.57,2.57,0,0,1,2,.73,3,3,0,0,1,.76,2.06H37a2.26,2.26,0,0,0-.52-1.5,1.74,1.74,0,0,0-1.37-.54,1.89,1.89,0,0,0-1.62.71,3.64,3.64,0,0,0-.51,2.15v.89a3.6,3.6,0,0,0,.52,2.19A1.89,1.89,0,0,0,35.09,274Z" transform="translate(0)" fill="#4d4d4d"/>
          <path d="M40.88,264.78v2H42.3v.73H40.88v5.21a1.86,1.86,0,0,0,.2,1,.75.75,0,0,0,.68.31,3.51,3.51,0,0,0,.61-.07l0,.73a2.34,2.34,0,0,1-.84.12c-1,0-1.51-.65-1.53-1.94v-5.32H38.75v-.73H40v-2Z" transform="translate(0)" fill="#4d4d4d"/>
          <path d="M44.12,264.52a.64.64,0,0,1,.15-.42.52.52,0,0,1,.41-.17.54.54,0,0,1,.42.17.64.64,0,0,1,.15.42.6.6,0,0,1-.15.42.54.54,0,0,1-.42.17.52.52,0,0,1-.41-.17A.6.6,0,0,1,44.12,264.52Zm1,10.11h-.85v-7.85h.85Z" transform="translate(0)" fill="#4d4d4d"/>
          <path d="M47.14,270.31a4.13,4.13,0,0,1,.81-2.69,3,3,0,0,1,4.44,0,4.11,4.11,0,0,1,.82,2.67v.84a4.08,4.08,0,0,1-.82,2.69,3,3,0,0,1-4.41,0,4,4,0,0,1-.84-2.6Zm.86.8a3.44,3.44,0,0,0,.58,2.13,2.07,2.07,0,0,0,3.21,0,3.53,3.53,0,0,0,.56-2.13v-.84a3.47,3.47,0,0,0-.58-2.13,1.89,1.89,0,0,0-1.6-.78,1.91,1.91,0,0,0-1.58.76,3.5,3.5,0,0,0-.59,2.09Z" transform="translate(0)" fill="#4d4d4d"/>
          <path d="M56,266.78,56,268a3,3,0,0,1,.94-1,2.36,2.36,0,0,1,1.31-.38q2.16,0,2.22,2.73v5.26h-.84v-5.17a2.57,2.57,0,0,0-.4-1.55,1.38,1.38,0,0,0-1.2-.5,1.76,1.76,0,0,0-1.2.47,2.89,2.89,0,0,0-.81,1.3v5.45h-.85v-7.85Z" transform="translate(0)" fill="#4d4d4d"/>
          <path d="M66.88,272.69a1.15,1.15,0,0,0-.44-.88,6,6,0,0,0-1.51-.83,9,9,0,0,1-1.48-.76,2.1,2.1,0,0,1-.62-.65,1.63,1.63,0,0,1-.2-.84,1.88,1.88,0,0,1,.69-1.5,2.65,2.65,0,0,1,1.78-.59,2.73,2.73,0,0,1,1.89.63,2.14,2.14,0,0,1,.71,1.67h-.86a1.43,1.43,0,0,0-.48-1.11,1.81,1.81,0,0,0-1.26-.44,1.77,1.77,0,0,0-1.19.37,1.16,1.16,0,0,0-.44.94,1,1,0,0,0,.34.77,7.22,7.22,0,0,0,1.45.8,8.62,8.62,0,0,1,1.6.79,2.38,2.38,0,0,1,.66.69,1.77,1.77,0,0,1,.22.9A1.9,1.9,0,0,1,67,274.2a2.93,2.93,0,0,1-1.88.57,3,3,0,0,1-2-.64,2,2,0,0,1-.76-1.64h.86a1.52,1.52,0,0,0,.51,1.13,2.17,2.17,0,0,0,1.39.4,2,2,0,0,0,1.26-.37A1.16,1.16,0,0,0,66.88,272.69Z" transform="translate(0)" fill="#4d4d4d"/>
          <path d="M73,270.31a4.13,4.13,0,0,1,.81-2.69,3,3,0,0,1,4.44,0,4.11,4.11,0,0,1,.82,2.67v.84a4,4,0,0,1-.82,2.69,2.74,2.74,0,0,1-2.2,1,2.77,2.77,0,0,1-2.21-.94,4,4,0,0,1-.84-2.6Zm.86.8a3.44,3.44,0,0,0,.58,2.13A1.89,1.89,0,0,0,76,274a1.86,1.86,0,0,0,1.6-.75,3.6,3.6,0,0,0,.57-2.13v-.84a3.48,3.48,0,0,0-.59-2.13,2,2,0,0,0-3.17,0,3.44,3.44,0,0,0-.6,2.09Z" transform="translate(0)" fill="#4d4d4d"/>
          <path d="M84.24,267.54a2.84,2.84,0,0,0-.54-.05,1.68,1.68,0,0,0-1.19.45,2.63,2.63,0,0,0-.68,1.27v5.42H81v-7.85h.84V268a2,2,0,0,1,1.91-1.32,1.16,1.16,0,0,1,.51.09Z" transform="translate(0)" fill="#4d4d4d"/>
          <path d="M90.54,264.78v2H92v.73H90.54v5.21a1.75,1.75,0,0,0,.21,1,.73.73,0,0,0,.67.31,3.61,3.61,0,0,0,.62-.07l0,.73a2.26,2.26,0,0,1-.84.12c-1,0-1.5-.65-1.53-1.94v-5.32H88.41v-.73h1.28v-2Z" transform="translate(0)" fill="#4d4d4d"/>
          <path d="M96.56,274.77a2.94,2.94,0,0,1-2.3-.91,3.74,3.74,0,0,1-.84-2.58v-.95a4.15,4.15,0,0,1,.8-2.71,2.68,2.68,0,0,1,2.19-1,2.57,2.57,0,0,1,2.06.83,4,4,0,0,1,.72,2.55v.76H94.26v.44a3.15,3.15,0,0,0,.61,2.08,2.11,2.11,0,0,0,1.72.73,2.54,2.54,0,0,0,2-.85l.45.54A2.94,2.94,0,0,1,96.56,274.77Zm-.15-7.38a1.9,1.9,0,0,0-1.55.67,3.33,3.33,0,0,0-.59,2h4.07v-.21C98.3,268.2,97.66,267.39,96.41,267.39Z" transform="translate(0)" fill="#4d4d4d"/>
          <path d="M101.79,266.78l0,1.18a2.45,2.45,0,0,1,2.22-1.32,2,2,0,0,1,2.08,1.44,2.69,2.69,0,0,1,1-1.08,2.65,2.65,0,0,1,1.35-.36c1.49,0,2.26.91,2.29,2.72v5.27h-.85v-5.22a2.5,2.5,0,0,0-.4-1.51,1.47,1.47,0,0,0-1.25-.49,1.82,1.82,0,0,0-1.34.58,2.26,2.26,0,0,0-.62,1.42v5.22h-.86v-5.19a2.39,2.39,0,0,0-.4-1.53,1.51,1.51,0,0,0-1.26-.5,1.76,1.76,0,0,0-1.2.45,2.62,2.62,0,0,0-.74,1.31v5.46H101v-7.85Z" transform="translate(0)" fill="#4d4d4d"/>
          <path d="M118.64,271.07a4.73,4.73,0,0,1-.67,2.76,2.27,2.27,0,0,1-2,.94,2.41,2.41,0,0,1-2.16-1.09v4H113V266.78h.78l0,1.08a2.6,2.6,0,0,1,4.17-.32,4.62,4.62,0,0,1,.67,2.74Zm-.85-.73a4,4,0,0,0-.5-2.22,1.75,1.75,0,0,0-1.54-.71,2,2,0,0,0-1.93,1.3v4.13a2,2,0,0,0,1.94,1.18,1.74,1.74,0,0,0,1.53-.71,4,4,0,0,0,.5-2.19Z" transform="translate(0)" fill="#4d4d4d"/>
          <path d="M120.3,270.31a4.13,4.13,0,0,1,.81-2.69,3,3,0,0,1,4.44,0,4.11,4.11,0,0,1,.82,2.67v.84a4.08,4.08,0,0,1-.82,2.69,3,3,0,0,1-4.41,0,4,4,0,0,1-.84-2.6Zm.86.8a3.44,3.44,0,0,0,.58,2.13,2.07,2.07,0,0,0,3.21,0,3.53,3.53,0,0,0,.56-2.13v-.84a3.47,3.47,0,0,0-.58-2.13,1.89,1.89,0,0,0-1.6-.78,1.91,1.91,0,0,0-1.58.76,3.5,3.5,0,0,0-.59,2.09Z" transform="translate(0)" fill="#4d4d4d"/>
          <path d="M131.58,267.54a2.71,2.71,0,0,0-.54-.05,1.67,1.67,0,0,0-1.18.45,2.55,2.55,0,0,0-.68,1.27v5.42h-.85v-7.85h.84V268a2,2,0,0,1,1.9-1.32,1.18,1.18,0,0,1,.52.09Z" transform="translate(0)" fill="#4d4d4d"/>
          <path d="M137.17,274.63a5,5,0,0,1-.16-1.09,2.67,2.67,0,0,1-1,.91,2.79,2.79,0,0,1-1.31.32,2.32,2.32,0,0,1-1.67-.57,2.15,2.15,0,0,1-.6-1.63,2.24,2.24,0,0,1,.83-1.83,3.56,3.56,0,0,1,2.3-.68H137V269a1.49,1.49,0,0,0-.44-1.21,2,2,0,0,0-1.3-.37,1.9,1.9,0,0,0-1.29.44,1.4,1.4,0,0,0-.51,1.12h-.85a2.07,2.07,0,0,1,.77-1.63,2.79,2.79,0,0,1,1.92-.67,2.75,2.75,0,0,1,1.9.59,2.26,2.26,0,0,1,.64,1.74v3.84a5,5,0,0,0,.22,1.73v.09Zm-2.34-.64a2.48,2.48,0,0,0,1.33-.36,2.27,2.27,0,0,0,.85-1v-1.91h-1.35a2.86,2.86,0,0,0-1.76.49,1.58,1.58,0,0,0-.59,1.28A1.33,1.33,0,0,0,134.83,274Z" transform="translate(0)" fill="#4d4d4d"/>
          <path d="M143.43,267.54a2.84,2.84,0,0,0-.54-.05,1.64,1.64,0,0,0-1.18.45,2.47,2.47,0,0,0-.68,1.27v5.42h-.86v-7.85H141l0,1.18a2,2,0,0,1,1.9-1.32,1.16,1.16,0,0,1,.51.09Z" transform="translate(0)" fill="#4d4d4d"/>
          <path d="M147.26,273.3l2-6.52h.91l-2.92,9.1-.16.43c-.4,1-1,1.48-1.81,1.48a2,2,0,0,1-.62-.1V277a1.62,1.62,0,0,0,.4.05,1.3,1.3,0,0,0,.9-.31,2.19,2.19,0,0,0,.58-1l.36-1.11-2.61-7.79h.94Z" transform="translate(0)" fill="#4d4d4d"/>
        </g>
        <g>
          <path d="M6.3,293a2.89,2.89,0,0,1,.93-1,2.29,2.29,0,0,1,1.29-.37c1.45,0,2.19.91,2.23,2.73v5.25H9.9v-5.16a2.56,2.56,0,0,0-.39-1.56,1.41,1.41,0,0,0-1.2-.5,1.73,1.73,0,0,0-1.2.48,2.89,2.89,0,0,0-.81,1.3v5.44H5.45V288.5H6.3Z" transform="translate(0)" fill="#4d4d4d"/>
          <path d="M12.68,295.31a4.1,4.1,0,0,1,.81-2.68,2.76,2.76,0,0,1,2.22-1,2.73,2.73,0,0,1,2.22,1,4.11,4.11,0,0,1,.82,2.67v.84a4,4,0,0,1-.82,2.68,2.71,2.71,0,0,1-2.2,1,2.77,2.77,0,0,1-2.2-.94,3.94,3.94,0,0,1-.85-2.6Zm.86.81a3.47,3.47,0,0,0,.58,2.13,1.89,1.89,0,0,0,1.61.77,1.86,1.86,0,0,0,1.6-.74,3.54,3.54,0,0,0,.57-2.14v-.83a3.48,3.48,0,0,0-.59-2.13,2,2,0,0,0-3.17,0,3.42,3.42,0,0,0-.6,2.09Z" transform="translate(0)" fill="#4d4d4d"/>
          <path d="M21.66,299.63H20.8V288.5h.86Z" transform="translate(0)" fill="#4d4d4d"/>
          <path d="M23.71,295.35a4.62,4.62,0,0,1,.69-2.77,2.34,2.34,0,0,1,2-.93,2.3,2.3,0,0,1,2.11,1.19V288.5h.85v11.13h-.8l0-1a2.32,2.32,0,0,1-2.13,1.15,2.35,2.35,0,0,1-2-.94,4.62,4.62,0,0,1-.7-2.68Zm.87.73a4,4,0,0,0,.48,2.22,1.71,1.71,0,0,0,1.52.71,2,2,0,0,0,2-1.21v-4.07a2,2,0,0,0-1.94-1.31,1.7,1.7,0,0,0-1.52.71,3.87,3.87,0,0,0-.49,2.17Z" transform="translate(0)" fill="#4d4d4d"/>
          <path d="M34.9,295.35a4.62,4.62,0,0,1,.69-2.77,2.34,2.34,0,0,1,2-.93,2.29,2.29,0,0,1,2.11,1.19V288.5h.85v11.13h-.79l0-1a2.35,2.35,0,0,1-2.14,1.15,2.32,2.32,0,0,1-2-.94,4.62,4.62,0,0,1-.71-2.68Zm.87.73a4,4,0,0,0,.48,2.22,1.71,1.71,0,0,0,1.52.71,2,2,0,0,0,1.95-1.21v-4.07a2,2,0,0,0-1.94-1.31,1.71,1.71,0,0,0-1.52.71,4,4,0,0,0-.49,2.17Z" transform="translate(0)" fill="#4d4d4d"/>
          <path d="M47.32,298.7a2.41,2.41,0,0,1-2.18,1.08,2.06,2.06,0,0,1-1.71-.74,3.59,3.59,0,0,1-.58-2.18v-5.07h.85v5a2.81,2.81,0,0,0,.39,1.62,1.34,1.34,0,0,0,1.16.55,2,2,0,0,0,2.06-1.48v-5.74h.86v7.84h-.83Z" transform="translate(0)" fill="#4d4d4d"/>
          <path d="M53.18,299.78a3,3,0,0,1-2.3-.91,3.74,3.74,0,0,1-.84-2.58v-1a4.19,4.19,0,0,1,.8-2.71,2.65,2.65,0,0,1,2.19-1,2.54,2.54,0,0,1,2.06.83,4,4,0,0,1,.73,2.55v.75H50.88v.45a3.2,3.2,0,0,0,.61,2.08,2.15,2.15,0,0,0,1.73.73,2.52,2.52,0,0,0,2-.85l.45.54A2.93,2.93,0,0,1,53.18,299.78ZM53,292.4a1.85,1.85,0,0,0-1.54.67,3.33,3.33,0,0,0-.6,2H55v-.21C54.92,293.21,54.28,292.4,53,292.4Z" transform="translate(0)" fill="#4d4d4d"/>
          <path d="M62.44,289.79v2h1.42v.73H62.44v5.21a1.76,1.76,0,0,0,.2,1,.75.75,0,0,0,.68.31,3.51,3.51,0,0,0,.61-.07l0,.72a2.11,2.11,0,0,1-.84.13c-1,0-1.51-.65-1.53-1.94v-5.32H60.3v-.73h1.29v-2Z" transform="translate(0)" fill="#4d4d4d"/>
          <path d="M65.25,295.31a4.1,4.1,0,0,1,.81-2.68,3,3,0,0,1,4.44,0,4.11,4.11,0,0,1,.82,2.67v.84a4,4,0,0,1-.82,2.68,2.72,2.72,0,0,1-2.21,1,2.78,2.78,0,0,1-2.2-.94,4,4,0,0,1-.84-2.6Zm.86.81a3.47,3.47,0,0,0,.58,2.13,2.08,2.08,0,0,0,3.21,0,3.54,3.54,0,0,0,.56-2.14v-.83a3.47,3.47,0,0,0-.58-2.13,1.89,1.89,0,0,0-1.6-.78,1.85,1.85,0,0,0-1.57.76,3.42,3.42,0,0,0-.6,2.09Z" transform="translate(0)" fill="#4d4d4d"/>
          <path d="M82.07,296.68H77.88l-.95,2.95H76l3.56-10.55h.81L84,299.63H83Zm-3.93-.77h3.68L80,290.25Z" transform="translate(0)" fill="#4d4d4d"/>
          <path d="M90.82,294.58H86.48v4.28h5v.77H85.61V289.08h5.82v.78h-5v3.95h4.34Z" transform="translate(0)" fill="#4d4d4d"/>
          <path d="M97.38,297.7a1.13,1.13,0,0,0-.44-.89,6.29,6.29,0,0,0-1.51-.83,8.42,8.42,0,0,1-1.48-.75,2,2,0,0,1-.62-.66,1.58,1.58,0,0,1-.2-.84,1.87,1.87,0,0,1,.69-1.49,2.6,2.6,0,0,1,1.78-.59,2.73,2.73,0,0,1,1.89.63,2.12,2.12,0,0,1,.71,1.66h-.85a1.43,1.43,0,0,0-.49-1.1,1.81,1.81,0,0,0-1.26-.44,1.84,1.84,0,0,0-1.19.36,1.18,1.18,0,0,0-.44.94,1,1,0,0,0,.34.77,6.53,6.53,0,0,0,1.46.81,8.78,8.78,0,0,1,1.59.79,2.38,2.38,0,0,1,.66.69,1.72,1.72,0,0,1,.22.9,1.85,1.85,0,0,1-.71,1.54,2.87,2.87,0,0,1-1.88.58,3,3,0,0,1-2-.64,2,2,0,0,1-.76-1.65h.86a1.46,1.46,0,0,0,.52,1.13,2.48,2.48,0,0,0,2.64,0A1.13,1.13,0,0,0,97.38,297.7Z" transform="translate(0)" fill="#4d4d4d"/>
        </g>
        <g>
          <path d="M199.4,17.23a4.91,4.91,0,0,1-1,3.3,3.92,3.92,0,0,1-5.58,0,4.88,4.88,0,0,1-1-3.26v-1.8a5.22,5.22,0,0,1,1-3.4,3.81,3.81,0,0,1,5.57,0,5.1,5.1,0,0,1,1,3.37Zm-2.14-1.77a4.33,4.33,0,0,0-.4-2.12,1.51,1.51,0,0,0-2.52,0,4.09,4.09,0,0,0-.42,2v1.87a3.84,3.84,0,0,0,.42,2,1.54,1.54,0,0,0,2.51,0,3.81,3.81,0,0,0,.41-2Z" transform="translate(0)" fill="#fff"/>
          <path d="M203.06,19.79h3.74v1.77h-5.87V11h2.13Z" transform="translate(0)" fill="#fff"/>
          <path d="M208.54,24.22l-1.09-.57.27-.52a3.7,3.7,0,0,0,.48-1.72V19.78H210v1.45a3.93,3.93,0,0,1-.4,1.6A4,4,0,0,1,208.54,24.22Z" transform="translate(0)" fill="#fff"/>
          <path d="M219.45,21.56h-2V13.5l-2,.78V12.57L219.24,11h.21Z" transform="translate(0)" fill="#fff"/>
          <path d="M228.36,13.81a2.74,2.74,0,0,1-.33,1.36,2.4,2.4,0,0,1-.89,1,2.88,2.88,0,0,1,1,1,3,3,0,0,1,.37,1.53,3,3,0,0,1-.81,2.22,3,3,0,0,1-2.21.81,3.07,3.07,0,0,1-2.23-.81,3,3,0,0,1-.82-2.22,2.9,2.9,0,0,1,.38-1.53,2.66,2.66,0,0,1,1-1,2.42,2.42,0,0,1-.9-1,2.74,2.74,0,0,1-.33-1.36,2.92,2.92,0,0,1,.78-2.16,2.75,2.75,0,0,1,2.07-.79,2.8,2.8,0,0,1,2.09.79A3,3,0,0,1,228.36,13.81ZM225.52,20a.79.79,0,0,0,.71-.39,2,2,0,0,0,.25-1.1,1.93,1.93,0,0,0-.26-1.1.8.8,0,0,0-.72-.4.82.82,0,0,0-.72.4,2,2,0,0,0-.26,1.1,2,2,0,0,0,.26,1.1A.86.86,0,0,0,225.52,20Zm.8-6.08a2.07,2.07,0,0,0-.2-1,.69.69,0,0,0-1.21,0,2.13,2.13,0,0,0-.2,1,2.16,2.16,0,0,0,.2,1,.65.65,0,0,0,.61.38.63.63,0,0,0,.6-.38A2.16,2.16,0,0,0,226.32,13.92Z" transform="translate(0)" fill="#fff"/>
          <path d="M239.14,18.12l.71-4.4h2l-1.62,7.84h-1.71L237.38,17l-1.11,4.54h-1.71l-1.63-7.84h2l.7,4.4,1-4.4h1.46Z" transform="translate(0)" fill="#fff"/>
          <path d="M245.43,18.54l-.55.61v2.41h-2.06V10.43h2.06v6l.25-.37,1.42-2.35H249L246.72,17l2.49,4.61h-2.35Z" transform="translate(0)" fill="#fff"/>
        </g>
        <path d="M194.85,41.83h-2.77v9.41h-1.33V41.83H188V40.69h6.87Z" transform="translate(0)" fill="#4d4d4d"/>
        <g>
          <path d="M194.9,47a4.14,4.14,0,0,1,.83-2.71,2.95,2.95,0,0,1,4.39,0,4.05,4.05,0,0,1,.85,2.64v.83a4.08,4.08,0,0,1-.83,2.69,2.72,2.72,0,0,1-2.2,1,2.75,2.75,0,0,1-2.19-1,4,4,0,0,1-.85-2.61Zm1.28.74a3.3,3.3,0,0,0,.48,1.9,1.48,1.48,0,0,0,1.28.69c1.13,0,1.71-.81,1.75-2.45V47a3.3,3.3,0,0,0-.48-1.9,1.48,1.48,0,0,0-1.29-.7,1.46,1.46,0,0,0-1.26.7,3.26,3.26,0,0,0-.48,1.89Z" transform="translate(0)" fill="#4d4d4d"/>
          <path d="M203.18,51.24v-6.8h-1v-1h1v-.91a2.84,2.84,0,0,1,.61-1.86,2.06,2.06,0,0,1,1.65-.67,2.63,2.63,0,0,1,.77.12l-.06,1.08a2.81,2.81,0,0,0-.59-.06c-.73,0-1.09.52-1.09,1.56v.74h1.34v1h-1.34v6.8Z" transform="translate(0)" fill="#4d4d4d"/>
          <path d="M211.35,51.24a3,3,0,0,1-.16-.85,2.07,2.07,0,0,1-1.74,1,2.07,2.07,0,0,1-2.26-2.29,2.4,2.4,0,0,1,.81-1.9,3.37,3.37,0,0,1,2.22-.71h.94v-.84a1.35,1.35,0,0,0-.31-1,1.37,1.37,0,0,0-.95-.29,1.31,1.31,0,0,0-.94.34,1.15,1.15,0,0,0-.36.87h-1.28a2,2,0,0,1,.35-1.14,2.42,2.42,0,0,1,1-.86,2.84,2.84,0,0,1,1.34-.31,2.55,2.55,0,0,1,1.83.59,2.34,2.34,0,0,1,.64,1.75v3.95a4.68,4.68,0,0,0,.25,1.58v.11Zm-1.71-1a1.71,1.71,0,0,0,.9-.26,1.6,1.6,0,0,0,.62-.65V47.44h-.72a2.37,2.37,0,0,0-1.44.41,1.27,1.27,0,0,0-.53,1.1,1.42,1.42,0,0,0,.27,1A1.16,1.16,0,0,0,209.64,50.22Z" transform="translate(0)" fill="#4d4d4d"/>
          <path d="M217.15,50.29a1.36,1.36,0,0,0,1-.39,1.65,1.65,0,0,0,.42-1.13h1.21a2.68,2.68,0,0,1-.8,1.87,2.52,2.52,0,0,1-1.85.75,2.73,2.73,0,0,1-2.22-.92,4.17,4.17,0,0,1-.77-2.73v-.86a4.2,4.2,0,0,1,.76-2.7,2.7,2.7,0,0,1,2.22-.92,2.47,2.47,0,0,1,1.91.76,3.09,3.09,0,0,1,.75,2.08h-1.21a2.15,2.15,0,0,0-.42-1.31,1.27,1.27,0,0,0-1-.43,1.46,1.46,0,0,0-1.27.56,3.28,3.28,0,0,0-.42,1.84v1a3.42,3.42,0,0,0,.41,2A1.47,1.47,0,0,0,217.15,50.29Z" transform="translate(0)" fill="#4d4d4d"/>
          <path d="M222.77,41.32a.76.76,0,0,1-.19.54.66.66,0,0,1-.55.22.65.65,0,0,1-.54-.22.8.8,0,0,1-.18-.54.85.85,0,0,1,.18-.55.65.65,0,0,1,.54-.22.66.66,0,0,1,.55.22A.89.89,0,0,1,222.77,41.32Zm-.11,9.92h-1.28V43.4h1.28Z" transform="translate(0)" fill="#4d4d4d"/>
          <path d="M226.36,41.5v1.9h1.18v1h-1.18V49.3a1.36,1.36,0,0,0,.15.71.57.57,0,0,0,.52.24,1.63,1.63,0,0,0,.52-.09l0,1.08a2.68,2.68,0,0,1-.89.15,1.36,1.36,0,0,1-1.16-.55,2.58,2.58,0,0,1-.4-1.53V44.44h-1.19v-1h1.19V41.5Z" transform="translate(0)" fill="#4d4d4d"/>
          <path d="M230.55,41.32a.8.8,0,0,1-.18.54.8.8,0,0,1-1.1,0,.8.8,0,0,1-.18-.54.85.85,0,0,1,.18-.55.67.67,0,0,1,.55-.22.65.65,0,0,1,.54.22A.84.84,0,0,1,230.55,41.32Zm-.1,9.92h-1.29V43.4h1.29Z" transform="translate(0)" fill="#4d4d4d"/>
          <path d="M233.67,43.4l0,.85a2.29,2.29,0,0,1,1.9-1c1.39,0,2.09.92,2.11,2.77v5.21h-1.27V46.09a2.19,2.19,0,0,0-.31-1.31,1.11,1.11,0,0,0-.93-.39,1.3,1.3,0,0,0-.85.32,2.25,2.25,0,0,0-.62.84v5.69h-1.28V43.4Z" transform="translate(0)" fill="#4d4d4d"/>
          <path d="M241.13,41.32a.8.8,0,0,1-.18.54.8.8,0,0,1-1.1,0,.8.8,0,0,1-.18-.54.85.85,0,0,1,.18-.55.67.67,0,0,1,.55-.22.65.65,0,0,1,.54.22A.84.84,0,0,1,241.13,41.32Zm-.1,9.92h-1.29V43.4H241Z" transform="translate(0)" fill="#4d4d4d"/>
          <path d="M248.72,47.7a4.76,4.76,0,0,1-.66,2.76,2.19,2.19,0,0,1-1.91.93,2,2,0,0,1-1.87-1.08l-.06.93h-1.17V40.11h1.27v4.15a2,2,0,0,1,1.82-1,2.2,2.2,0,0,1,1.93.91,4.77,4.77,0,0,1,.65,2.75ZM247.45,47a3.78,3.78,0,0,0-.39-2,1.41,1.41,0,0,0-1.26-.59,1.59,1.59,0,0,0-1.48,1.07v3.73a1.57,1.57,0,0,0,1.5,1.06,1.33,1.33,0,0,0,1.24-.61,3.78,3.78,0,0,0,.39-1.89Z" transform="translate(0)" fill="#4d4d4d"/>
        </g>
        <path d="M253.42,44.23a2.73,2.73,0,0,1-.39,1.61,1.28,1.28,0,0,1-1.11.54,1.18,1.18,0,0,1-1.09-.62l0,.54h-.68V39.81h.74v2.42a1.19,1.19,0,0,1,1.06-.59,1.29,1.29,0,0,1,1.13.54,2.86,2.86,0,0,1,.38,1.6Zm-.75-.43a2.19,2.19,0,0,0-.22-1.15.82.82,0,0,0-.74-.34.91.91,0,0,0-.86.62V45.1a.93.93,0,0,0,.87.62.81.81,0,0,0,.73-.35,2.15,2.15,0,0,0,.22-1.11Z" transform="translate(0)" fill="#4d4d4d"/>
        <g>
          <path d="M194.46,72a12.25,12.25,0,0,1,.51-3.58,9.47,9.47,0,0,1,1.46-2.93,4.88,4.88,0,0,1,1.1-1.12l.25.89a6,6,0,0,0-1.42,2.51,12.4,12.4,0,0,0-.61,3.73V72a13,13,0,0,0,.72,4.51,6.47,6.47,0,0,0,1.32,2.28l-.25.82a5.38,5.38,0,0,1-1.36-1.48A11,11,0,0,1,194.46,72Z" transform="translate(0)" fill="#4d4d4d"/>
          <path d="M206.21,76.24h-1.33l-4.23-8.13v8.13h-1.33V65.69h1.33l4.24,8.17V65.69h1.32Z" transform="translate(0)" fill="#4d4d4d"/>
          <path d="M216.92,70.34h-5.08V69.17h5.08Zm0,3h-5.08V72.19h5.08Z" transform="translate(0)" fill="#4d4d4d"/>
          <path d="M228,76.24h-5.89v-1l3-4a8.7,8.7,0,0,0,1-1.51,3.11,3.11,0,0,0,.26-1.25,2.22,2.22,0,0,0-.39-1.36,1.21,1.21,0,0,0-1-.52,1.49,1.49,0,0,0-1.24.55,2.54,2.54,0,0,0-.44,1.6H222a3.39,3.39,0,0,1,.8-2.36,2.74,2.74,0,0,1,2.16-.9,2.6,2.6,0,0,1,2,.78,2.88,2.88,0,0,1,.72,2.05,6.48,6.48,0,0,1-1.63,3.7l-2.35,3.08H228Z" transform="translate(0)" fill="#4d4d4d"/>
          <path d="M235.35,76.24h-5.9v-1l3-4a8.53,8.53,0,0,0,.94-1.51,3,3,0,0,0,.27-1.25,2.22,2.22,0,0,0-.39-1.36,1.23,1.23,0,0,0-1-.52,1.48,1.48,0,0,0-1.24.55,2.48,2.48,0,0,0-.44,1.6h-1.28a3.44,3.44,0,0,1,.79-2.36,2.76,2.76,0,0,1,2.17-.9,2.56,2.56,0,0,1,2,.78,2.84,2.84,0,0,1,.73,2.05,6.48,6.48,0,0,1-1.63,3.7L231,75.15h4.37Z" transform="translate(0)" fill="#4d4d4d"/>
          <path d="M237.3,71l.46-5.26h4.58v1.24h-3.5l-.25,2.88a2.35,2.35,0,0,1,1.41-.46,2.26,2.26,0,0,1,1.93,1,4.21,4.21,0,0,1,.7,2.57,3.94,3.94,0,0,1-.76,2.57,2.58,2.58,0,0,1-2.1.94,2.54,2.54,0,0,1-1.93-.78,3.35,3.35,0,0,1-.86-2.15h1.2a2.54,2.54,0,0,0,.52,1.37,1.35,1.35,0,0,0,1.07.46,1.33,1.33,0,0,0,1.17-.65,3.17,3.17,0,0,0,.42-1.75,2.86,2.86,0,0,0-.46-1.69,1.41,1.41,0,0,0-1.22-.65,1.53,1.53,0,0,0-1,.33l-.34.35Z" transform="translate(0)" fill="#4d4d4d"/>
          <path d="M247,72a11.13,11.13,0,0,1-1.45,5.72,5.75,5.75,0,0,1-1.62,1.9l-.25-.82a6.21,6.21,0,0,0,1.47-2.68,13.7,13.7,0,0,0,.57-4v-.26a12.73,12.73,0,0,0-.9-4.92,6.38,6.38,0,0,0-1.14-1.87l.25-.82a5.59,5.59,0,0,1,1.54,1.76A11.25,11.25,0,0,1,247,72Z" transform="translate(0)" fill="#4d4d4d"/>
        </g>
        <path d="M195.12,105.92h-.82V96.44l-2.38,1.06v-.82L195,95.34h.14Zm4.25-5.4.44-5.15h4.45v.83H200.5l-.3,3.53a2.52,2.52,0,0,1,1.63-.58,2.28,2.28,0,0,1,1.92.94,4,4,0,0,1,.7,2.47,4.25,4.25,0,0,1-.69,2.58,2.34,2.34,0,0,1-2,.93,2.45,2.45,0,0,1-1.89-.78,3.32,3.32,0,0,1-.82-2.14h.77a2.66,2.66,0,0,0,.6,1.61,1.71,1.71,0,0,0,1.34.55,1.57,1.57,0,0,0,1.39-.71,3.65,3.65,0,0,0,.48-2,3,3,0,0,0-.54-1.88,1.68,1.68,0,0,0-1.43-.72,2.23,2.23,0,0,0-.9.16,2.3,2.3,0,0,0-.77.59Zm8.34-.35h.79a2,2,0,0,0,1.43-.56,2,2,0,0,0,.55-1.48,2.38,2.38,0,0,0-.48-1.59,1.64,1.64,0,0,0-1.33-.56,1.72,1.72,0,0,0-1.36.6,2.33,2.33,0,0,0-.52,1.56H206a3.17,3.17,0,0,1,.34-1.49,2.47,2.47,0,0,1,1-1,2.52,2.52,0,0,1,1.38-.38,2.44,2.44,0,0,1,1.9.77,3.06,3.06,0,0,1,.71,2.15,2.57,2.57,0,0,1-.41,1.42,2.48,2.48,0,0,1-1.1,1,2.31,2.31,0,0,1,1.24.91,3,3,0,0,1,.43,1.62,3.14,3.14,0,0,1-.75,2.2,2.62,2.62,0,0,1-2,.82,2.91,2.91,0,0,1-1.45-.38,2.41,2.41,0,0,1-1-1,3.32,3.32,0,0,1-.36-1.58h.8a2.35,2.35,0,0,0,.56,1.61,1.87,1.87,0,0,0,1.46.63,1.81,1.81,0,0,0,1.43-.57,2.38,2.38,0,0,0,.52-1.66,1.94,1.94,0,0,0-2.15-2.16h-.78Zm9,1.49a12.72,12.72,0,0,1,.38-3.16,10.84,10.84,0,0,1,1-2.71,5.18,5.18,0,0,1,1.38-1.7l.19.61a4.7,4.7,0,0,0-1.1,1.58,11.11,11.11,0,0,0-.79,2.46,15.19,15.19,0,0,0-.28,3,14.31,14.31,0,0,0,.28,2.89,10.85,10.85,0,0,0,.79,2.47,5,5,0,0,0,1.1,1.62l-.19.57a4.76,4.76,0,0,1-1-1.07,8.55,8.55,0,0,1-.91-1.71,13.11,13.11,0,0,1-.64-2.19A13.68,13.68,0,0,1,216.67,101.66Zm8.61-6.36v.77h-.12a3,3,0,0,0-2.42,1.09,5.15,5.15,0,0,0-1,3,2.64,2.64,0,0,1,.92-.9A2.41,2.41,0,0,1,223.9,99a2.19,2.19,0,0,1,1.86,1,4.24,4.24,0,0,1,.69,2.52,4.33,4.33,0,0,1-.73,2.6,2.27,2.27,0,0,1-1.92,1,2.44,2.44,0,0,1-2.06-1.09,4.72,4.72,0,0,1-.8-2.85v-.86A7.65,7.65,0,0,1,222,96.85a3.6,3.6,0,0,1,3.08-1.55Zm-1.51,4.45a1.87,1.87,0,0,0-1.26.49,2.29,2.29,0,0,0-.76,1.21v.75a4,4,0,0,0,.57,2.25,1.74,1.74,0,0,0,1.48.86,1.54,1.54,0,0,0,1.34-.79,4.18,4.18,0,0,0,0-4A1.59,1.59,0,0,0,223.77,99.75Zm9.65-1.66a2.73,2.73,0,0,1-.39,1.44,2.42,2.42,0,0,1-1.05,1,2.64,2.64,0,0,1,1.23,1,2.84,2.84,0,0,1,.44,1.59,2.92,2.92,0,0,1-.77,2.13,3,3,0,0,1-4.1,0,2.94,2.94,0,0,1-.77-2.14,2.85,2.85,0,0,1,.44-1.6,2.6,2.6,0,0,1,1.2-1,2.43,2.43,0,0,1-1-1,2.73,2.73,0,0,1-.38-1.45,2.94,2.94,0,0,1,.71-2.09,2.68,2.68,0,0,1,3.77,0A3,3,0,0,1,233.42,98.09Zm-.58,5a2.32,2.32,0,0,0-.57-1.62,2,2,0,0,0-2.9,0,2.33,2.33,0,0,0-.56,1.62,2.28,2.28,0,0,0,.54,1.6,1.91,1.91,0,0,0,1.48.59,1.86,1.86,0,0,0,1.46-.59A2.23,2.23,0,0,0,232.84,103.13Zm-.22-5a2.24,2.24,0,0,0-.51-1.5,1.62,1.62,0,0,0-1.29-.6,1.58,1.58,0,0,0-1.29.58,2.26,2.26,0,0,0-.49,1.52,2.17,2.17,0,0,0,.5,1.5,1.67,1.67,0,0,0,1.29.55,1.61,1.61,0,0,0,1.28-.56A2.12,2.12,0,0,0,232.62,98.08Zm2.85,7.31a.6.6,0,0,1,.17-.43.58.58,0,0,1,.45-.18.6.6,0,0,1,.46.18.59.59,0,0,1,.16.43.57.57,0,0,1-.16.42.64.64,0,0,1-.46.17.61.61,0,0,1-.45-.17A.57.57,0,0,1,235.47,105.39Zm8.85-3.87a6.75,6.75,0,0,1-.69,3.4,2.38,2.38,0,0,1-4.08,0,6.61,6.61,0,0,1-.71-3.32V99.75a6.63,6.63,0,0,1,.69-3.36,2.39,2.39,0,0,1,4.07,0,6.32,6.32,0,0,1,.72,3.26Zm-.81-1.89A6.07,6.07,0,0,0,243,96.9a1.57,1.57,0,0,0-1.46-.92,1.53,1.53,0,0,0-1.42.88,5.59,5.59,0,0,0-.51,2.62v2.13a6.16,6.16,0,0,0,.49,2.74,1.58,1.58,0,0,0,1.46,1,1.52,1.52,0,0,0,1.41-.91,5.91,5.91,0,0,0,.51-2.69Zm3.7-3.63a12.3,12.3,0,0,1,1.31,5.77,13.35,13.35,0,0,1-.36,3.13,10.89,10.89,0,0,1-1,2.69,5.31,5.31,0,0,1-1.42,1.74l-.18-.57a5.5,5.5,0,0,0,1.27-2,13.6,13.6,0,0,0,.9-5.14,14.18,14.18,0,0,0-.28-2.87,11.55,11.55,0,0,0-.8-2.49,4.89,4.89,0,0,0-1.09-1.62l.18-.57A5.42,5.42,0,0,1,247.21,96Z" transform="translate(0)" fill="#4d4d4d"/>
        <path d="M208,125.56l-3.77,10h-.84l3.75-9.79h-5v-.76H208Zm5.06,5.78a13.27,13.27,0,0,1,.38-3.16,11.24,11.24,0,0,1,1-2.71,5.29,5.29,0,0,1,1.38-1.7l.19.61A4.8,4.8,0,0,0,215,126a10.61,10.61,0,0,0-.79,2.46,15.29,15.29,0,0,0-.28,3.05,14.21,14.21,0,0,0,.28,2.88,11.11,11.11,0,0,0,.79,2.48,4.9,4.9,0,0,0,1.1,1.61l-.19.57a4.56,4.56,0,0,1-1-1.07,8.55,8.55,0,0,1-.91-1.71,12,12,0,0,1-.64-2.19A13.64,13.64,0,0,1,213.07,131.34Zm5.92-1.49h.79a1.93,1.93,0,0,0,1.43-.56,2,2,0,0,0,.55-1.48,2.4,2.4,0,0,0-.48-1.59,1.64,1.64,0,0,0-1.33-.56,1.72,1.72,0,0,0-1.36.6,2.33,2.33,0,0,0-.52,1.56h-.8a3.17,3.17,0,0,1,.34-1.49,2.47,2.47,0,0,1,1-1,2.6,2.6,0,0,1,1.38-.38,2.47,2.47,0,0,1,1.9.77,3.07,3.07,0,0,1,.71,2.16,2.61,2.61,0,0,1-.41,1.42,2.46,2.46,0,0,1-1.1.94,2.25,2.25,0,0,1,1.23.92,2.84,2.84,0,0,1,.44,1.62,3.13,3.13,0,0,1-.75,2.19,2.59,2.59,0,0,1-2,.82,2.9,2.9,0,0,1-1.45-.37,2.49,2.49,0,0,1-1-1,3.32,3.32,0,0,1-.36-1.58h.8a2.35,2.35,0,0,0,.56,1.61A1.85,1.85,0,0,0,220,135a1.82,1.82,0,0,0,1.43-.58,2.42,2.42,0,0,0,.51-1.66,2.17,2.17,0,0,0-.54-1.59,2.21,2.21,0,0,0-1.6-.57H219Zm5.68,5.23a.66.66,0,0,1,.16-.44.59.59,0,0,1,.46-.18.58.58,0,0,1,.45.18.62.62,0,0,1,.17.44.57.57,0,0,1-.62.58.61.61,0,0,1-.46-.16A.65.65,0,0,1,224.67,135.08Zm6.91.52h-.81v-9.48l-2.39,1.06v-.82l3.06-1.34h.14Zm4.83-9.92a12.3,12.3,0,0,1,1.3,5.77,13.35,13.35,0,0,1-.36,3.13,10.36,10.36,0,0,1-1,2.69,5.17,5.17,0,0,1-1.41,1.74l-.19-.57a5.25,5.25,0,0,0,1.27-2,13.36,13.36,0,0,0,.91-5.14,14.08,14.08,0,0,0-.29-2.86,11.54,11.54,0,0,0-.79-2.49,5.11,5.11,0,0,0-1.1-1.63l.19-.57a5.53,5.53,0,0,1,1.49,1.91Z" transform="translate(0)" fill="#4d4d4d"/>
        <path d="M200.88,195h-5.59v-.69l3-4a10.17,10.17,0,0,0,1.05-1.72,3.28,3.28,0,0,0,.3-1.33,2.4,2.4,0,0,0-.48-1.58,1.59,1.59,0,0,0-1.31-.58,1.7,1.7,0,0,0-1.42.67,2.75,2.75,0,0,0-.53,1.76h-.81a3.45,3.45,0,0,1,.76-2.28,2.71,2.71,0,0,1,3.9-.16,2.94,2.94,0,0,1,.7,2.09,5.57,5.57,0,0,1-1.14,3l-.46.67-2.58,3.48h4.61Zm5.94-10.62v.77h-.12a3,3,0,0,0-2.42,1.09,5.12,5.12,0,0,0-1,3,2.55,2.55,0,0,1,.92-.9,2.39,2.39,0,0,1,1.22-.32,2.17,2.17,0,0,1,1.85,1,4.14,4.14,0,0,1,.7,2.51,4.27,4.27,0,0,1-.74,2.61,2.25,2.25,0,0,1-1.91,1,2.45,2.45,0,0,1-2.06-1.08,4.68,4.68,0,0,1-.8-2.86v-.85a7.68,7.68,0,0,1,1.07-4.43,3.59,3.59,0,0,1,3.08-1.54Zm-1.52,4.44a1.92,1.92,0,0,0-1.25.49,2.34,2.34,0,0,0-.77,1.21v.76a4,4,0,0,0,.58,2.24,1.73,1.73,0,0,0,1.48.87,1.54,1.54,0,0,0,1.34-.79,3.67,3.67,0,0,0,.52-2,3.51,3.51,0,0,0-.51-2A1.63,1.63,0,0,0,205.3,188.79Zm7.77,1.92a12.72,12.72,0,0,1,.38-3.16,11.24,11.24,0,0,1,1-2.71,5.08,5.08,0,0,1,1.38-1.7l.19.6a4.75,4.75,0,0,0-1.1,1.59,11.56,11.56,0,0,0-.79,2.45,15.29,15.29,0,0,0-.28,3.05,14.38,14.38,0,0,0,.28,2.89,11,11,0,0,0,.79,2.47,5.06,5.06,0,0,0,1.1,1.61l-.19.58a4.85,4.85,0,0,1-1-1.08,9.1,9.1,0,0,1-.91-1.71,13,13,0,0,1-.64-2.18A13.83,13.83,0,0,1,213.07,190.71Zm7.74,4.26H220v-9.49l-2.38,1.07v-.83l3.06-1.34h.13Zm7.22,0h-.82v-9.49l-2.38,1.07v-.83l3.06-1.34H228Zm3.85-.53A.63.63,0,0,1,232,194a.58.58,0,0,1,.45-.18.59.59,0,0,1,.46.18.64.64,0,0,1,.17.44.57.57,0,0,1-.17.42.62.62,0,0,1-.46.17.61.61,0,0,1-.45-.17A.57.57,0,0,1,231.88,194.44Zm7.77-10.09v.77h-.12a3,3,0,0,0-2.41,1.09,5.13,5.13,0,0,0-1,3,2.72,2.72,0,0,1,.92-.9,2.44,2.44,0,0,1,1.22-.32,2.18,2.18,0,0,1,1.86,1,4.21,4.21,0,0,1,.69,2.51,4.27,4.27,0,0,1-.73,2.61,2.28,2.28,0,0,1-1.91,1,2.46,2.46,0,0,1-2.07-1.08,4.75,4.75,0,0,1-.8-2.86v-.85a7.6,7.6,0,0,1,1.08-4.43,3.58,3.58,0,0,1,3.08-1.54Zm-1.51,4.44a2,2,0,0,0-1.26.49,2.33,2.33,0,0,0-.76,1.21v.76a3.9,3.9,0,0,0,.58,2.24,1.72,1.72,0,0,0,1.48.87,1.55,1.55,0,0,0,1.34-.79,3.67,3.67,0,0,0,.51-2,3.51,3.51,0,0,0-.51-2A1.6,1.6,0,0,0,238.14,188.79Zm5.47-3.74a12.3,12.3,0,0,1,1.31,5.77,13.26,13.26,0,0,1-.36,3.12,10.81,10.81,0,0,1-1,2.7,5.4,5.4,0,0,1-1.42,1.74l-.18-.58a5.21,5.21,0,0,0,1.27-2,13.51,13.51,0,0,0,.9-5.13,14.18,14.18,0,0,0-.28-2.87,11.55,11.55,0,0,0-.8-2.49,4.79,4.79,0,0,0-1.09-1.62l.18-.57a5.22,5.22,0,0,1,1.49,1.91Z" transform="translate(0)" fill="#4d4d4d"/>
        <path d="M204.49,284h-5.6v-.69l3-4.05a9,9,0,0,0,1.05-1.71,3.33,3.33,0,0,0,.3-1.34,2.45,2.45,0,0,0-.47-1.57,1.62,1.62,0,0,0-1.32-.59,1.72,1.72,0,0,0-1.42.68,2.79,2.79,0,0,0-.53,1.76h-.8a3.39,3.39,0,0,1,.76-2.28,2.46,2.46,0,0,1,2-.91,2.5,2.5,0,0,1,1.91.75,2.91,2.91,0,0,1,.7,2.08,5.57,5.57,0,0,1-1.14,3l-.47.66-2.58,3.48h4.62Zm7-4.41a6.72,6.72,0,0,1-.69,3.4,2.38,2.38,0,0,1-4.07,0,6.45,6.45,0,0,1-.72-3.31v-1.86a6.63,6.63,0,0,1,.69-3.36,2.39,2.39,0,0,1,4.07,0,6.25,6.25,0,0,1,.72,3.26Zm-.81-1.89a6.12,6.12,0,0,0-.48-2.73,1.6,1.6,0,0,0-2.88,0,5.59,5.59,0,0,0-.51,2.62v2.14a6.1,6.1,0,0,0,.5,2.73,1.57,1.57,0,0,0,1.45,1,1.55,1.55,0,0,0,1.42-.92,6.07,6.07,0,0,0,.5-2.69Zm6,2a13.13,13.13,0,0,1,.38-3.15,11.32,11.32,0,0,1,1-2.72,5.29,5.29,0,0,1,1.38-1.7l.19.61a4.8,4.8,0,0,0-1.1,1.58,10.61,10.61,0,0,0-.79,2.46,15.26,15.26,0,0,0-.29,3.05,14.38,14.38,0,0,0,.29,2.89,11.19,11.19,0,0,0,.79,2.47,4.9,4.9,0,0,0,1.1,1.61l-.19.57a4.56,4.56,0,0,1-1-1.07,8.55,8.55,0,0,1-.91-1.71,12,12,0,0,1-.64-2.19A12.92,12.92,0,0,1,216.67,279.75Zm9.55-3.57a2.76,2.76,0,0,1-.39,1.45,2.42,2.42,0,0,1-1.06,1,2.6,2.6,0,0,1,1.23,1,2.87,2.87,0,0,1,.45,1.59,3,3,0,0,1-.77,2.14,3,3,0,0,1-4.11,0,3,3,0,0,1-.77-2.14,2.93,2.93,0,0,1,.44-1.6,2.69,2.69,0,0,1,1.21-1,2.38,2.38,0,0,1-1-1,2.86,2.86,0,0,1-.38-1.46,3,3,0,0,1,.71-2.08,2.42,2.42,0,0,1,1.89-.78,2.45,2.45,0,0,1,1.89.78A3,3,0,0,1,226.22,276.18Zm-.58,5a2.24,2.24,0,0,0-.58-1.61,1.86,1.86,0,0,0-1.44-.63,1.88,1.88,0,0,0-1.45.61,2.29,2.29,0,0,0-.57,1.62,2.22,2.22,0,0,0,.55,1.6,2.1,2.1,0,0,0,2.94,0A2.26,2.26,0,0,0,225.64,281.22Zm-.23-5.05a2.24,2.24,0,0,0-.51-1.5,1.62,1.62,0,0,0-1.28-.6,1.64,1.64,0,0,0-1.3.58,2.33,2.33,0,0,0-.49,1.52,2.1,2.1,0,0,0,.51,1.5,1.74,1.74,0,0,0,2.57,0A2.16,2.16,0,0,0,225.41,276.17Zm2.86,7.32a.61.61,0,0,1,.16-.44.59.59,0,0,1,.46-.18.58.58,0,0,1,.45.18.62.62,0,0,1,.17.44.57.57,0,0,1-.17.42.61.61,0,0,1-.45.16.61.61,0,0,1-.46-.16A.57.57,0,0,1,228.27,283.49Zm8-4.29a2.86,2.86,0,0,1-.95,1,2.33,2.33,0,0,1-1.22.35,2.15,2.15,0,0,1-1.83-1,4.28,4.28,0,0,1-.7-2.54,4.48,4.48,0,0,1,.73-2.65,2.28,2.28,0,0,1,2-1.05,2.36,2.36,0,0,1,2.07,1.11,5.6,5.6,0,0,1,.74,3.15v.78a7.44,7.44,0,0,1-1,4.3,3.59,3.59,0,0,1-3.07,1.43h-.22v-.77H233a2.92,2.92,0,0,0,2.38-1A5,5,0,0,0,236.23,279.2Zm-2.06.6a1.82,1.82,0,0,0,1.24-.5,2.86,2.86,0,0,0,.83-1.33v-.53a4.77,4.77,0,0,0-.55-2.46,1.64,1.64,0,0,0-1.47-.91,1.61,1.61,0,0,0-1.37.83,3.82,3.82,0,0,0-.53,2.08,3.72,3.72,0,0,0,.51,2A1.55,1.55,0,0,0,234.17,279.8Zm5.84-5.7a12.23,12.23,0,0,1,1.3,5.76A13.35,13.35,0,0,1,241,283a10.59,10.59,0,0,1-1,2.69,5.07,5.07,0,0,1-1.42,1.74l-.18-.57a5.25,5.25,0,0,0,1.27-2,13.36,13.36,0,0,0,.91-5.14,14.08,14.08,0,0,0-.29-2.86,11.55,11.55,0,0,0-.8-2.49,5,5,0,0,0-1.09-1.63l.18-.57a5.39,5.39,0,0,1,1.5,1.92Z" transform="translate(0)" fill="#4d4d4d"/>
        <g>
          <path d="M275.88,41.94H273.1v9.41h-1.32V41.94H269V40.8h6.87Z" transform="translate(0)" fill="#4d4d4d"/>
          <path d="M276.28,47.07a4.08,4.08,0,0,1,.83-2.71,2.94,2.94,0,0,1,4.38,0,4,4,0,0,1,.85,2.64v.83a4,4,0,0,1-.83,2.69,2.93,2.93,0,0,1-4.38,0,3.93,3.93,0,0,1-.85-2.61Zm1.28.74a3.38,3.38,0,0,0,.47,1.9,1.49,1.49,0,0,0,1.28.69c1.13,0,1.71-.81,1.75-2.45v-.88a3.3,3.3,0,0,0-.48-1.9,1.48,1.48,0,0,0-1.28-.7,1.46,1.46,0,0,0-1.27.7,3.34,3.34,0,0,0-.47,1.89Z" transform="translate(0)" fill="#4d4d4d"/>
          <path d="M284.56,51.35v-6.8h-1v-1h1v-.9a2.81,2.81,0,0,1,.6-1.87,2.06,2.06,0,0,1,1.65-.67,2.64,2.64,0,0,1,.78.12l-.07,1.08a2.74,2.74,0,0,0-.59-.06c-.72,0-1.09.52-1.09,1.56v.74h1.34v1h-1.34v6.8Z" transform="translate(0)" fill="#4d4d4d"/>
          <path d="M292.73,51.35a2.59,2.59,0,0,1-.17-.85,2.07,2.07,0,0,1-1.74,1,2.22,2.22,0,0,1-1.66-.6,2.28,2.28,0,0,1-.6-1.69,2.37,2.37,0,0,1,.81-1.89,3.32,3.32,0,0,1,2.22-.72h1v-.84a1.09,1.09,0,0,0-1.26-1.29,1.33,1.33,0,0,0-.95.34,1.15,1.15,0,0,0-.36.87h-1.28a2.09,2.09,0,0,1,.35-1.14,2.49,2.49,0,0,1,1-.86,2.84,2.84,0,0,1,1.34-.31,2.6,2.6,0,0,1,1.83.59,2.34,2.34,0,0,1,.64,1.75v3.95a4.94,4.94,0,0,0,.25,1.58v.11Zm-1.71-1a1.7,1.7,0,0,0,.89-.26,1.57,1.57,0,0,0,.63-.65V47.55h-.73a2.37,2.37,0,0,0-1.44.41,1.3,1.3,0,0,0-.53,1.1,1.42,1.42,0,0,0,.27,1A1.17,1.17,0,0,0,291,50.33Z" transform="translate(0)" fill="#4d4d4d"/>
          <path d="M298.52,50.4a1.35,1.35,0,0,0,1-.39,1.65,1.65,0,0,0,.42-1.13h1.21a2.6,2.6,0,0,1-.8,1.87,2.52,2.52,0,0,1-1.85.75,2.73,2.73,0,0,1-2.22-.92,4.17,4.17,0,0,1-.76-2.73V47a4.16,4.16,0,0,1,.76-2.7,2.67,2.67,0,0,1,2.21-.92,2.46,2.46,0,0,1,1.91.76,3,3,0,0,1,.75,2.08H300a2.08,2.08,0,0,0-.41-1.31,1.3,1.3,0,0,0-1-.43,1.43,1.43,0,0,0-1.26.56,3.19,3.19,0,0,0-.43,1.84v1a3.51,3.51,0,0,0,.41,2A1.47,1.47,0,0,0,298.52,50.4Z" transform="translate(0)" fill="#4d4d4d"/>
          <path d="M304.14,41.43A.8.8,0,0,1,304,42a.8.8,0,0,1-1.1,0,.8.8,0,0,1-.18-.54.85.85,0,0,1,.18-.55.67.67,0,0,1,.55-.22.65.65,0,0,1,.54.22A.84.84,0,0,1,304.14,41.43Zm-.1,9.92h-1.29V43.51H304Z" transform="translate(0)" fill="#4d4d4d"/>
          <path d="M307.73,41.61v1.9h1.18v1h-1.18v4.87a1.32,1.32,0,0,0,.15.7.59.59,0,0,0,.53.24,1.52,1.52,0,0,0,.51-.09v1.08a2.74,2.74,0,0,1-.9.15,1.32,1.32,0,0,1-1.15-.55,2.51,2.51,0,0,1-.4-1.53V44.55h-1.2v-1h1.2v-1.9Z" transform="translate(0)" fill="#4d4d4d"/>
        </g>
        <g>
          <path d="M310.9,41.43a.8.8,0,0,1-.18.54.66.66,0,0,1-.55.22.65.65,0,0,1-.54-.22.8.8,0,0,1-.18-.54.85.85,0,0,1,.18-.55.65.65,0,0,1,.54-.22.67.67,0,0,1,.55.22A.89.89,0,0,1,310.9,41.43Zm-.1,9.92h-1.28V43.51h1.28Z" transform="translate(0)" fill="#4d4d4d"/>
          <path d="M314,43.51l0,.85a2.3,2.3,0,0,1,1.91-1c1.39,0,2.09.92,2.11,2.77v5.21H316.8V46.2a2.12,2.12,0,0,0-.31-1.31,1.09,1.09,0,0,0-.92-.39,1.33,1.33,0,0,0-.86.32,2.31,2.31,0,0,0-.61.84v5.69h-1.28V43.51Z" transform="translate(0)" fill="#4d4d4d"/>
          <path d="M321.48,41.43a.8.8,0,0,1-.18.54.66.66,0,0,1-.55.22.65.65,0,0,1-.54-.22.8.8,0,0,1-.18-.54.85.85,0,0,1,.18-.55.65.65,0,0,1,.54-.22.67.67,0,0,1,.55.22A.89.89,0,0,1,321.48,41.43Zm-.1,9.92H320.1V43.51h1.28Z" transform="translate(0)" fill="#4d4d4d"/>
          <path d="M329.08,47.81a4.76,4.76,0,0,1-.66,2.76,2.2,2.2,0,0,1-1.91.93,2,2,0,0,1-1.87-1.08l-.07.93H323.4V40.22h1.28v4.15a2,2,0,0,1,1.81-1,2.22,2.22,0,0,1,1.94.91,4.87,4.87,0,0,1,.65,2.75Zm-1.28-.74a3.9,3.9,0,0,0-.38-2,1.41,1.41,0,0,0-1.26-.59,1.58,1.58,0,0,0-1.48,1.07V49.3a1.57,1.57,0,0,0,1.49,1.06,1.35,1.35,0,0,0,1.25-.61,3.67,3.67,0,0,0,.38-1.89Z" transform="translate(0)" fill="#4d4d4d"/>
        </g>
        <path d="M333.43,44.35a2.83,2.83,0,0,1-.38,1.61,1.29,1.29,0,0,1-1.12.54,1.18,1.18,0,0,1-1.09-.63l0,.55h-.68V39.93h.75v2.42a1.16,1.16,0,0,1,1.05-.59,1.29,1.29,0,0,1,1.13.53,2.81,2.81,0,0,1,.38,1.61Zm-.74-.43a2.18,2.18,0,0,0-.23-1.15.81.81,0,0,0-.73-.35.91.91,0,0,0-.86.63v2.17a.91.91,0,0,0,.87.62.76.76,0,0,0,.72-.36,2.07,2.07,0,0,0,.23-1.1Z" transform="translate(0)" fill="#4d4d4d"/>
        <g>
          <path d="M279.1,72.07a12.23,12.23,0,0,1,.51-3.57,9.47,9.47,0,0,1,1.46-2.93,4.88,4.88,0,0,1,1.1-1.12l.25.89A6.12,6.12,0,0,0,281,67.85a12.66,12.66,0,0,0-.6,3.72v.59a13.05,13.05,0,0,0,.72,4.51,6.33,6.33,0,0,0,1.32,2.27l-.25.82a5.32,5.32,0,0,1-1.36-1.47A11,11,0,0,1,279.1,72.07Z" transform="translate(0)" fill="#4d4d4d"/>
          <path d="M290.85,76.36h-1.33l-4.23-8.13v8.13H284V65.81h1.33L289.53,74V65.81h1.32Z" transform="translate(0)" fill="#4d4d4d"/>
          <path d="M301.56,70.46h-5.08V69.29h5.08Zm0,3h-5.08V72.31h5.08Z" transform="translate(0)" fill="#4d4d4d"/>
          <path d="M312.19,68.56a2.83,2.83,0,0,1-.35,1.41,2.5,2.5,0,0,1-.95,1A2.71,2.71,0,0,1,312,72a3.37,3.37,0,0,1-.38,3.72,3,3,0,0,1-4.09,0,3.39,3.39,0,0,1-.38-3.73,2.57,2.57,0,0,1,1.08-1,2.48,2.48,0,0,1-.94-1,2.9,2.9,0,0,1-.34-1.4,3,3,0,0,1,.72-2.12,2.48,2.48,0,0,1,1.91-.78,2.45,2.45,0,0,1,1.89.78A3,3,0,0,1,312.19,68.56Zm-1.08,4.92a2.26,2.26,0,0,0-.43-1.45,1.34,1.34,0,0,0-1.12-.55,1.31,1.31,0,0,0-1.12.55,2.4,2.4,0,0,0-.41,1.45,2.28,2.28,0,0,0,.4,1.42,1.38,1.38,0,0,0,1.15.51,1.34,1.34,0,0,0,1.13-.51A2.22,2.22,0,0,0,311.11,73.48Zm-.19-4.9a2.16,2.16,0,0,0-.38-1.31,1.14,1.14,0,0,0-1-.51,1.16,1.16,0,0,0-1,.5,2.24,2.24,0,0,0-.36,1.32,2.14,2.14,0,0,0,.36,1.31,1.22,1.22,0,0,0,1.95,0A2.19,2.19,0,0,0,310.92,68.58Z" transform="translate(0)" fill="#4d4d4d"/>
          <path d="M319.52,68.56a2.83,2.83,0,0,1-.35,1.41,2.57,2.57,0,0,1-.95,1,2.63,2.63,0,0,1,1.1,1,2.92,2.92,0,0,1,.4,1.54,3.07,3.07,0,0,1-.77,2.18,3,3,0,0,1-4.1,0,3.07,3.07,0,0,1-.77-2.18,3,3,0,0,1,.4-1.55,2.55,2.55,0,0,1,1.07-1,2.52,2.52,0,0,1-.93-1,2.79,2.79,0,0,1-.34-1.4,3,3,0,0,1,.72-2.12,2.7,2.7,0,0,1,3.8,0A3,3,0,0,1,319.52,68.56Zm-1.08,4.92A2.26,2.26,0,0,0,318,72a1.34,1.34,0,0,0-1.12-.55,1.3,1.3,0,0,0-1.12.55,2.4,2.4,0,0,0-.41,1.45,2.22,2.22,0,0,0,.4,1.42,1.53,1.53,0,0,0,2.28,0A2.28,2.28,0,0,0,318.44,73.48Zm-.2-4.9a2.16,2.16,0,0,0-.37-1.31,1.19,1.19,0,0,0-1.95,0,2.24,2.24,0,0,0-.36,1.32,2.08,2.08,0,0,0,.37,1.31,1.15,1.15,0,0,0,1,.49,1.17,1.17,0,0,0,1-.49A2.19,2.19,0,0,0,318.24,68.58Z" transform="translate(0)" fill="#4d4d4d"/>
          <path d="M324.29,72.15a11.17,11.17,0,0,1-1.45,5.71,5.78,5.78,0,0,1-1.63,1.9l-.25-.82a6.11,6.11,0,0,0,1.47-2.67,13.7,13.7,0,0,0,.57-4v-.26a12.78,12.78,0,0,0-.9-4.93A6.45,6.45,0,0,0,321,65.27l.25-.82a5.61,5.61,0,0,1,1.55,1.76A11.22,11.22,0,0,1,324.29,72.15Z" transform="translate(0)" fill="#4d4d4d"/>
        </g>
        <path d="M280.61,95.42v.77h-.12a3,3,0,0,0-2.42,1.09,5.15,5.15,0,0,0-1,3,2.55,2.55,0,0,1,.92-.9,2.39,2.39,0,0,1,1.22-.32,2.17,2.17,0,0,1,1.85,1,4.14,4.14,0,0,1,.7,2.51,4.27,4.27,0,0,1-.74,2.61,2.25,2.25,0,0,1-1.91,1,2.45,2.45,0,0,1-2.06-1.08,4.68,4.68,0,0,1-.8-2.86v-.85A7.71,7.71,0,0,1,277.34,97a3.62,3.62,0,0,1,3.08-1.54Zm-1.52,4.45a1.87,1.87,0,0,0-1.25.49,2.28,2.28,0,0,0-.77,1.2v.76a4,4,0,0,0,.58,2.24,1.73,1.73,0,0,0,1.48.87,1.54,1.54,0,0,0,1.34-.79,3.67,3.67,0,0,0,.52-2,3.51,3.51,0,0,0-.51-2A1.62,1.62,0,0,0,279.09,99.87Zm9.66-1.66a2.73,2.73,0,0,1-.39,1.44,2.54,2.54,0,0,1-1.05,1,2.64,2.64,0,0,1,1.23,1,2.91,2.91,0,0,1,.44,1.58,3,3,0,0,1-.77,2.14,3,3,0,0,1-4.11,0,3,3,0,0,1-.76-2.14,2.91,2.91,0,0,1,.43-1.59,2.68,2.68,0,0,1,1.21-1,2.52,2.52,0,0,1-1.05-1,2.83,2.83,0,0,1-.38-1.45,3,3,0,0,1,.71-2.09,2.45,2.45,0,0,1,1.89-.78,2.4,2.4,0,0,1,1.89.79A3,3,0,0,1,288.75,98.21Zm-.58,5a2.31,2.31,0,0,0-.57-1.61,2,2,0,0,0-2.9,0,2.59,2.59,0,0,0,0,3.22,1.94,1.94,0,0,0,1.48.59,1.9,1.9,0,0,0,1.46-.59A2.25,2.25,0,0,0,288.17,103.24Zm-.22-5a2.22,2.22,0,0,0-.52-1.5,1.71,1.71,0,0,0-2.58,0,2.29,2.29,0,0,0-.48,1.52,2.13,2.13,0,0,0,.5,1.5,1.77,1.77,0,0,0,2.57,0A2.14,2.14,0,0,0,288,98.2Zm6.12,3.58a13.21,13.21,0,0,1,.38-3.16,10.84,10.84,0,0,1,1-2.71,4.85,4.85,0,0,1,1.38-1.7l.18.6A4.9,4.9,0,0,0,296,96.4a11,11,0,0,0-.78,2.45,15.61,15.61,0,0,0,0,5.94,11.55,11.55,0,0,0,.79,2.47,5.06,5.06,0,0,0,1.1,1.61l-.18.58a4.42,4.42,0,0,1-1-1.08,8.55,8.55,0,0,1-.91-1.71,12.12,12.12,0,0,1-.65-2.18A13.83,13.83,0,0,1,294.07,101.78Zm9.8-5.78-3.76,10h-.85l3.75-9.8h-5v-.75h5.85Zm7.22,0-3.77,10h-.84l3.74-9.8h-5v-.75h5.86Zm1.79,9.51a.63.63,0,0,1,.16-.44.58.58,0,0,1,.45-.18.59.59,0,0,1,.46.18.64.64,0,0,1,.17.44.57.57,0,0,1-.17.42.62.62,0,0,1-.46.17.61.61,0,0,1-.45-.17A.57.57,0,0,1,312.88,105.51Zm5.07-5.22h.79a2,2,0,0,0,1.44-.57,2,2,0,0,0,.54-1.48,2.35,2.35,0,0,0-.47-1.58,1.62,1.62,0,0,0-1.33-.56,1.72,1.72,0,0,0-1.36.6,2.25,2.25,0,0,0-.52,1.56h-.8a3.3,3.3,0,0,1,.33-1.49,2.7,2.7,0,0,1,1-1,2.66,2.66,0,0,1,1.39-.38,2.46,2.46,0,0,1,1.9.78,3.06,3.06,0,0,1,.71,2.15,2.59,2.59,0,0,1-.41,1.42,2.45,2.45,0,0,1-1.1.94,2.3,2.3,0,0,1,1.23.92,2.88,2.88,0,0,1,.44,1.62,3.1,3.1,0,0,1-.76,2.2,2.58,2.58,0,0,1-2,.81,2.87,2.87,0,0,1-1.45-.37,2.58,2.58,0,0,1-1-1,3.26,3.26,0,0,1-.36-1.58h.81a2.36,2.36,0,0,0,.56,1.62,1.86,1.86,0,0,0,1.46.63,1.82,1.82,0,0,0,1.43-.57,2.44,2.44,0,0,0,.51-1.66,2.2,2.2,0,0,0-.54-1.6,2.16,2.16,0,0,0-1.6-.56H318Zm6.67-4.17a12.3,12.3,0,0,1,1.3,5.77,13.26,13.26,0,0,1-.36,3.12,10.81,10.81,0,0,1-1,2.7,5.27,5.27,0,0,1-1.42,1.74l-.18-.58a5.09,5.09,0,0,0,1.27-2,13.5,13.5,0,0,0,.91-5.13,14.18,14.18,0,0,0-.29-2.87,11.55,11.55,0,0,0-.8-2.49,4.79,4.79,0,0,0-1.09-1.62l.18-.57a5.43,5.43,0,0,1,1.5,1.91Z" transform="translate(0)" fill="#4d4d4d"/>
        <path d="M287,135.72h-.81v-9.48l-2.38,1.06v-.82l3.05-1.35H287Zm7.13-4.26a12.72,12.72,0,0,1,.38-3.16,11.24,11.24,0,0,1,1-2.71,5.18,5.18,0,0,1,1.38-1.7l.19.61a4.6,4.6,0,0,0-1.1,1.58,11.66,11.66,0,0,0-.79,2.46,15.19,15.19,0,0,0-.28,3,14.31,14.31,0,0,0,.28,2.89,10.85,10.85,0,0,0,.79,2.47,5.12,5.12,0,0,0,1.1,1.62l-.19.57a5,5,0,0,1-1-1.07,9.1,9.1,0,0,1-.91-1.71,13.11,13.11,0,0,1-.64-2.19A13.68,13.68,0,0,1,294.08,131.46Zm7.74,4.26H301v-9.48l-2.38,1.06v-.82l3.06-1.35h.13Zm3.85-.53a.64.64,0,0,1,.17-.44.61.61,0,0,1,.45-.17.65.65,0,0,1,.46.17.63.63,0,0,1,.16.44.57.57,0,0,1-.16.42.65.65,0,0,1-.46.17.61.61,0,0,1-.45-.17A.57.57,0,0,1,305.67,135.19Zm6.91.53h-.81v-9.48l-2.38,1.06v-.82l3.06-1.35h.13Zm4.83-9.92a12.3,12.3,0,0,1,1.31,5.77,13.35,13.35,0,0,1-.36,3.13,10.89,10.89,0,0,1-1,2.69,5.31,5.31,0,0,1-1.42,1.74l-.18-.57a5.5,5.5,0,0,0,1.27-2,13.6,13.6,0,0,0,.9-5.14,14.18,14.18,0,0,0-.28-2.87,12.12,12.12,0,0,0-.8-2.49,4.93,4.93,0,0,0-1.09-1.62l.18-.57a5.42,5.42,0,0,1,1.49,1.91Z" transform="translate(0)" fill="#4d4d4d"/>
        <path d="M279.74,195.09h-.81V185.6l-2.39,1.07v-.83l3.06-1.34h.14Zm8.08-10.63v.78h-.12a3,3,0,0,0-2.42,1.09,5.19,5.19,0,0,0-1,3,2.58,2.58,0,0,1,.92-.91,2.41,2.41,0,0,1,1.22-.31,2.18,2.18,0,0,1,1.86,1,4.21,4.21,0,0,1,.69,2.51,4.34,4.34,0,0,1-.73,2.61,2.28,2.28,0,0,1-1.92,1,2.44,2.44,0,0,1-2.06-1.09,4.7,4.7,0,0,1-.8-2.85v-.86a7.67,7.67,0,0,1,1.07-4.42,3.64,3.64,0,0,1,3.08-1.55Zm-1.51,4.45a1.92,1.92,0,0,0-1.26.49,2.33,2.33,0,0,0-.76,1.21v.75a4,4,0,0,0,.58,2.25,1.7,1.7,0,0,0,1.47.87,1.56,1.56,0,0,0,1.34-.79,3.62,3.62,0,0,0,.52-2,3.5,3.5,0,0,0-.51-2A1.58,1.58,0,0,0,286.31,188.91Zm7.76,1.92a13.21,13.21,0,0,1,.38-3.16,10.7,10.7,0,0,1,1-2.71,5,5,0,0,1,1.38-1.71l.18.61a5,5,0,0,0-1.1,1.58,11.11,11.11,0,0,0-.78,2.46,15.61,15.61,0,0,0,0,5.94,11.55,11.55,0,0,0,.79,2.47,5.06,5.06,0,0,0,1.1,1.61l-.18.57a4.18,4.18,0,0,1-1-1.07,8.55,8.55,0,0,1-.91-1.71,12,12,0,0,1-.65-2.19A13.65,13.65,0,0,1,294.07,190.83Zm7.75,4.26H301V185.6l-2.38,1.07v-.83l3.06-1.34h.14Zm9-7.84a2.76,2.76,0,0,1-.39,1.45,2.42,2.42,0,0,1-1.06,1,2.71,2.71,0,0,1,1.23,1,2.87,2.87,0,0,1,.45,1.59,3,3,0,0,1-.77,2.14,3,3,0,0,1-4.11,0,3.26,3.26,0,0,1-.33-3.74,2.75,2.75,0,0,1,1.21-1,2.38,2.38,0,0,1-1.05-1,2.86,2.86,0,0,1-.38-1.46,3,3,0,0,1,.71-2.08,2.42,2.42,0,0,1,1.88-.78,2.46,2.46,0,0,1,1.9.78A3,3,0,0,1,310.83,187.25Zm-.58,5a2.29,2.29,0,0,0-.58-1.61,2,2,0,0,0-2.89,0,2.31,2.31,0,0,0-.57,1.63,2.21,2.21,0,0,0,.55,1.59,2.11,2.11,0,0,0,2.94,0A2.3,2.3,0,0,0,310.25,192.29Zm-.23-5a2.24,2.24,0,0,0-.51-1.51,1.71,1.71,0,0,0-2.58,0,2.29,2.29,0,0,0-.49,1.53,2.17,2.17,0,0,0,.5,1.5,1.71,1.71,0,0,0,1.29.55,1.66,1.66,0,0,0,1.29-.57A2.16,2.16,0,0,0,310,187.25Zm2.86,7.31a.61.61,0,0,1,.16-.44.58.58,0,0,1,.45-.18.59.59,0,0,1,.46.18.62.62,0,0,1,.17.44.57.57,0,0,1-.17.42.61.61,0,0,1-.46.16A.61.61,0,0,1,313,195,.57.57,0,0,1,312.88,194.56Zm9.05.53h-5.59v-.69l3-4.05a10.16,10.16,0,0,0,1.05-1.71,3.33,3.33,0,0,0,.3-1.34,2.39,2.39,0,0,0-.48-1.57,1.59,1.59,0,0,0-1.31-.59,1.7,1.7,0,0,0-1.42.68,2.73,2.73,0,0,0-.53,1.76h-.81a3.45,3.45,0,0,1,.76-2.28,2.71,2.71,0,0,1,3.9-.16,2.91,2.91,0,0,1,.71,2.08,5.59,5.59,0,0,1-1.15,3l-.46.66-2.58,3.48h4.61Zm2.69-9.92a12.26,12.26,0,0,1,1.3,5.76,13.35,13.35,0,0,1-.36,3.13,10.59,10.59,0,0,1-1,2.69,5.07,5.07,0,0,1-1.42,1.74l-.18-.57a5.25,5.25,0,0,0,1.27-2,13.52,13.52,0,0,0,.91-5.14,14.08,14.08,0,0,0-.29-2.86,11.55,11.55,0,0,0-.8-2.49,4.79,4.79,0,0,0-1.09-1.62l.18-.58a5.39,5.39,0,0,1,1.5,1.92Z" transform="translate(0)" fill="#4d4d4d"/>
        <path d="M284.4,279.32a2.91,2.91,0,0,1-.95,1,2.25,2.25,0,0,1-1.22.36,2.15,2.15,0,0,1-1.83-1,4.28,4.28,0,0,1-.71-2.54,4.52,4.52,0,0,1,.74-2.66,2.29,2.29,0,0,1,1.95-1,2.37,2.37,0,0,1,2.08,1.11,5.66,5.66,0,0,1,.74,3.15v.78a7.34,7.34,0,0,1-1,4.29,3.58,3.58,0,0,1-3.06,1.44h-.22v-.77h.23a2.94,2.94,0,0,0,2.38-1A5.11,5.11,0,0,0,284.4,279.32Zm-2.06.6a1.84,1.84,0,0,0,1.24-.5,2.82,2.82,0,0,0,.82-1.33v-.53a4.84,4.84,0,0,0-.54-2.47,1.67,1.67,0,0,0-1.47-.9A1.59,1.59,0,0,0,281,275a3.72,3.72,0,0,0-.54,2.08,3.66,3.66,0,0,0,.52,2A1.54,1.54,0,0,0,282.34,279.92Zm8.13-.05a13.21,13.21,0,0,1,.38-3.16,10.84,10.84,0,0,1,1-2.71,4.94,4.94,0,0,1,1.38-1.7l.19.61a4.85,4.85,0,0,0-1.11,1.58,11.11,11.11,0,0,0-.78,2.46,15.19,15.19,0,0,0-.29,3.05,15,15,0,0,0,.28,2.88,11.37,11.37,0,0,0,.79,2.47,5,5,0,0,0,1.11,1.62l-.19.57a4.76,4.76,0,0,1-1-1.07,8.55,8.55,0,0,1-.91-1.71,13.11,13.11,0,0,1-.65-2.19A13.68,13.68,0,0,1,290.47,279.87Zm7.75,4.26h-.81v-9.48L295,275.71v-.82l3.06-1.34h.14Zm9.14-4.4a6.75,6.75,0,0,1-.69,3.4,2.38,2.38,0,0,1-4.07,0,6.5,6.5,0,0,1-.71-3.32V278a6.75,6.75,0,0,1,.68-3.36,2.22,2.22,0,0,1,2.05-1.16,2.25,2.25,0,0,1,2,1.12,6.33,6.33,0,0,1,.71,3.26Zm-.81-1.89a6.07,6.07,0,0,0-.48-2.73,1.6,1.6,0,0,0-2.88,0,5.85,5.85,0,0,0-.51,2.62v2.13a6.15,6.15,0,0,0,.5,2.74,1.56,1.56,0,0,0,1.45,1,1.54,1.54,0,0,0,1.42-.91,5.93,5.93,0,0,0,.5-2.69Zm2.73,5.76a.58.58,0,0,1,.62-.61.58.58,0,0,1,.45.18.6.6,0,0,1,.17.43.58.58,0,0,1-.62.59.58.58,0,0,1-.46-.17A.57.57,0,0,1,309.28,283.6Zm9.05.53h-5.59v-.69l3-4a9.79,9.79,0,0,0,1.05-1.72,3.28,3.28,0,0,0,.3-1.33,2.42,2.42,0,0,0-.48-1.58,1.61,1.61,0,0,0-1.31-.58,1.7,1.7,0,0,0-1.42.68,2.73,2.73,0,0,0-.53,1.76h-.81a3.45,3.45,0,0,1,.77-2.29,2.71,2.71,0,0,1,3.89-.15,2.91,2.91,0,0,1,.71,2.08,5.57,5.57,0,0,1-1.15,3l-.46.67-2.58,3.48h4.61Zm2.69-9.92a12.3,12.3,0,0,1,1.3,5.77,13.35,13.35,0,0,1-.36,3.13,10.74,10.74,0,0,1-1,2.69,5.07,5.07,0,0,1-1.42,1.74l-.18-.57a5.25,5.25,0,0,0,1.27-2,13.4,13.4,0,0,0,.91-5.14,14.18,14.18,0,0,0-.29-2.87,11.55,11.55,0,0,0-.8-2.49,4.89,4.89,0,0,0-1.09-1.62l.18-.57a5.43,5.43,0,0,1,1.5,1.91Z" transform="translate(0)" fill="#4d4d4d"/>
        <g>
          <path d="M366.44,47.23v4.14h-1.33V40.81h3.36a3.07,3.07,0,0,1,2.31.88,3.27,3.27,0,0,1,.85,2.35,3.18,3.18,0,0,1-.81,2.34,3,3,0,0,1-2.25.85Zm0-1.13h2a1.75,1.75,0,0,0,1.36-.53,2.65,2.65,0,0,0,0-3,1.63,1.63,0,0,0-1.33-.58h-2Z" transform="translate(0)" fill="#4d4d4d"/>
          <path d="M373.33,51.37V40.81h3a3,3,0,0,1,2.17.71,2.79,2.79,0,0,1,.73,2.11,2.3,2.3,0,0,1-.37,1.3,2.44,2.44,0,0,1-1,.88,2,2,0,0,1,1.15.89,3,3,0,0,1,.42,1.62,3.11,3.11,0,0,1-.77,2.23,3,3,0,0,1-2.23.82Zm1.33-6.06h1.7a1.46,1.46,0,0,0,1.12-.46,2.15,2.15,0,0,0,0-2.5,1.56,1.56,0,0,0-1.18-.4h-1.68Zm0,1.12v3.8h1.81a1.53,1.53,0,0,0,1.2-.5,2,2,0,0,0,.44-1.39c0-1.27-.54-1.91-1.61-1.91Z" transform="translate(0)" fill="#4d4d4d"/>
          <path d="M388.29,47a5.19,5.19,0,0,1-.92,3.32,3.12,3.12,0,0,1-2.61,1.17,3.19,3.19,0,0,1-2.58-1.13,5,5,0,0,1-1-3.21v-2a5.27,5.27,0,0,1,.93-3.31,3.48,3.48,0,0,1,5.21,0,5.15,5.15,0,0,1,1,3.28ZM387,45.17a4.55,4.55,0,0,0-.55-2.49,1.89,1.89,0,0,0-1.68-.82,1.86,1.86,0,0,0-1.65.83,4.29,4.29,0,0,0-.57,2.44V47a4.41,4.41,0,0,0,.56,2.46,2.11,2.11,0,0,0,3.33.07,4.44,4.44,0,0,0,.56-2.4Z" transform="translate(0)" fill="#4d4d4d"/>
        </g>
        <g>
          <path d="M354.27,72.09a12.13,12.13,0,0,1,.51-3.57,9.41,9.41,0,0,1,1.46-2.94,4.61,4.61,0,0,1,1.1-1.11l.25.88a6.19,6.19,0,0,0-1.43,2.51,12.73,12.73,0,0,0-.6,3.73v.59a13,13,0,0,0,.72,4.5A6.47,6.47,0,0,0,357.59,79l-.25.82A5.24,5.24,0,0,1,356,78.3,11,11,0,0,1,354.27,72.09Z" transform="translate(0)" fill="#4d4d4d"/>
          <path d="M366,76.37h-1.33l-4.23-8.13v8.13h-1.33V65.82h1.33L364.7,74V65.82H366Z" transform="translate(0)" fill="#4d4d4d"/>
          <path d="M376.73,70.47h-5.08V69.31h5.08Zm0,3h-5.08V72.32h5.08Z" transform="translate(0)" fill="#4d4d4d"/>
          <path d="M387.36,68.57A2.83,2.83,0,0,1,387,70a2.5,2.5,0,0,1-.95,1,2.78,2.78,0,0,1,1.11,1,3.07,3.07,0,0,1,.39,1.54,3,3,0,0,1-.77,2.18,3,3,0,0,1-4.09,0,3,3,0,0,1-.77-2.18,3.08,3.08,0,0,1,.39-1.55,2.5,2.5,0,0,1,1.08-1,2.48,2.48,0,0,1-.94-1,2.94,2.94,0,0,1-.34-1.41,3,3,0,0,1,.72-2.11,2.48,2.48,0,0,1,1.91-.78,2.44,2.44,0,0,1,1.89.77A3,3,0,0,1,387.36,68.57Zm-1.08,4.93a2.29,2.29,0,0,0-.43-1.46,1.36,1.36,0,0,0-1.12-.54,1.31,1.31,0,0,0-1.12.55,2.38,2.38,0,0,0-.41,1.45,2.3,2.3,0,0,0,.4,1.42,1.4,1.4,0,0,0,1.15.5,1.36,1.36,0,0,0,1.13-.5A2.24,2.24,0,0,0,386.28,73.5Zm-.19-4.9a2.17,2.17,0,0,0-.38-1.32,1.16,1.16,0,0,0-1-.5,1.12,1.12,0,0,0-1,.5,2.2,2.2,0,0,0-.36,1.32,2.16,2.16,0,0,0,.36,1.31,1.18,1.18,0,0,0,1,.48,1.13,1.13,0,0,0,1-.49A2.15,2.15,0,0,0,386.09,68.6Z" transform="translate(0)" fill="#4d4d4d"/>
          <path d="M389.78,71.08l.46-5.26h4.59v1.24h-3.51l-.25,2.88a2.38,2.38,0,0,1,1.41-.46,2.26,2.26,0,0,1,1.93,1,4.21,4.21,0,0,1,.71,2.57,3.94,3.94,0,0,1-.77,2.57,2.8,2.8,0,0,1-4,.16,3.4,3.4,0,0,1-.86-2.14h1.21a2.43,2.43,0,0,0,.51,1.36,1.36,1.36,0,0,0,1.07.46,1.31,1.31,0,0,0,1.17-.65,3.17,3.17,0,0,0,.42-1.75,2.88,2.88,0,0,0-.45-1.68,1.42,1.42,0,0,0-1.22-.66,1.49,1.49,0,0,0-1,.34l-.34.34Z" transform="translate(0)" fill="#4d4d4d"/>
          <path d="M399.46,72.16A11.21,11.21,0,0,1,398,77.88a5.88,5.88,0,0,1-1.63,1.9l-.25-.82a6.21,6.21,0,0,0,1.47-2.68,13.63,13.63,0,0,0,.57-3.94v-.27a12.77,12.77,0,0,0-.9-4.92,6.52,6.52,0,0,0-1.14-1.87l.25-.81a5.39,5.39,0,0,1,1.55,1.76A11.21,11.21,0,0,1,399.46,72.16Z" transform="translate(0)" fill="#4d4d4d"/>
        </g>
        <path d="M355.78,95.43v.78h-.12a3,3,0,0,0-2.42,1.08,5.15,5.15,0,0,0-1,3,2.55,2.55,0,0,1,.92-.9,2.41,2.41,0,0,1,1.22-.31,2.17,2.17,0,0,1,1.85,1,4.12,4.12,0,0,1,.7,2.51,4.29,4.29,0,0,1-.74,2.61,2.25,2.25,0,0,1-1.91,1,2.44,2.44,0,0,1-2.06-1.09,4.63,4.63,0,0,1-.8-2.85v-.86A7.67,7.67,0,0,1,352.51,97a3.62,3.62,0,0,1,3.08-1.55Zm-1.52,4.45a1.87,1.87,0,0,0-1.25.49,2.34,2.34,0,0,0-.77,1.21v.75a4,4,0,0,0,.58,2.25,1.73,1.73,0,0,0,1.48.87,1.55,1.55,0,0,0,1.34-.8,3.65,3.65,0,0,0,.52-2,3.47,3.47,0,0,0-.51-2A1.6,1.6,0,0,0,354.26,99.88Zm6,.42h.79a1.91,1.91,0,0,0,1.43-.56,2,2,0,0,0,.55-1.48,2.45,2.45,0,0,0-.47-1.59,1.67,1.67,0,0,0-1.34-.56,1.72,1.72,0,0,0-1.36.6,2.33,2.33,0,0,0-.51,1.56h-.81a3.17,3.17,0,0,1,.34-1.49,2.47,2.47,0,0,1,1-1,2.63,2.63,0,0,1,1.38-.38,2.46,2.46,0,0,1,1.9.77,3,3,0,0,1,.71,2.16,2.53,2.53,0,0,1-.41,1.42,2.46,2.46,0,0,1-1.1.94,2.24,2.24,0,0,1,1.24.92,2.82,2.82,0,0,1,.43,1.61,3.14,3.14,0,0,1-.75,2.2,2.57,2.57,0,0,1-2,.82,2.83,2.83,0,0,1-1.44-.37,2.58,2.58,0,0,1-1-1,3.32,3.32,0,0,1-.36-1.58h.8a2.35,2.35,0,0,0,.56,1.61,1.86,1.86,0,0,0,1.46.64,1.84,1.84,0,0,0,1.44-.58,2.42,2.42,0,0,0,.51-1.66,2.18,2.18,0,0,0-.55-1.59,2.21,2.21,0,0,0-1.6-.57h-.78Zm8.95,1.49a13.27,13.27,0,0,1,.38-3.16,10.84,10.84,0,0,1,1-2.71,5,5,0,0,1,1.38-1.7l.19.61a4.81,4.81,0,0,0-1.11,1.58,11.11,11.11,0,0,0-.78,2.46,15.26,15.26,0,0,0-.29,3,15,15,0,0,0,.28,2.88,11.65,11.65,0,0,0,.79,2.48,4.91,4.91,0,0,0,1.11,1.61l-.19.57a4.36,4.36,0,0,1-1-1.07,8.55,8.55,0,0,1-.91-1.71,12,12,0,0,1-.65-2.19A13.68,13.68,0,0,1,369.24,101.79ZM379,96l-3.76,10h-.84l3.74-9.79h-5V95.5H379Zm6.23,6.64h1.36v.75h-1.36v2.65h-.8V103.4h-4.15v-.51l4.08-7.39h.87Zm-4,0h3.18V96.72l-.29.59Zm6.76,2.88a.61.61,0,0,1,.16-.44.58.58,0,0,1,.45-.18.59.59,0,0,1,.46.18.62.62,0,0,1,.17.44.61.61,0,0,1-.17.42.61.61,0,0,1-.46.16.61.61,0,0,1-.45-.16A.6.6,0,0,1,388.05,105.53Zm6.91.52h-.81V96.57l-2.39,1.06v-.82l3.06-1.34H395Zm4.83-9.92a12.3,12.3,0,0,1,1.3,5.77,13.35,13.35,0,0,1-.36,3.13,10.74,10.74,0,0,1-1,2.69,5.07,5.07,0,0,1-1.42,1.74l-.18-.57a5.25,5.25,0,0,0,1.27-2,13.56,13.56,0,0,0,.91-5.14,14.08,14.08,0,0,0-.29-2.86,11.55,11.55,0,0,0-.8-2.49,5,5,0,0,0-1.09-1.63l.18-.57a5.43,5.43,0,0,1,1.5,1.91Z" transform="translate(0)" fill="#4d4d4d"/>
        <path d="M364.27,135.74h-5.6v-.69l3-4.05a9,9,0,0,0,1.05-1.71A3.33,3.33,0,0,0,363,128a2.45,2.45,0,0,0-.47-1.57,1.62,1.62,0,0,0-1.32-.59,1.72,1.72,0,0,0-1.42.68,2.79,2.79,0,0,0-.53,1.76h-.8a3.39,3.39,0,0,1,.76-2.28,2.46,2.46,0,0,1,2-.91,2.5,2.5,0,0,1,1.91.75,2.93,2.93,0,0,1,.7,2.08,5.57,5.57,0,0,1-1.14,3l-.47.66L359.65,135h4.62Zm5-4.26a12.72,12.72,0,0,1,.38-3.16,11.08,11.08,0,0,1,1-2.71A5.23,5.23,0,0,1,372,123.9l.19.61a4.75,4.75,0,0,0-1.1,1.59,11.37,11.37,0,0,0-.79,2.45,15.29,15.29,0,0,0-.28,3,14.38,14.38,0,0,0,.28,2.89,11,11,0,0,0,.79,2.47,5.06,5.06,0,0,0,1.1,1.61l-.19.57a4.56,4.56,0,0,1-1-1.07,9.1,9.1,0,0,1-.91-1.71,13,13,0,0,1-.64-2.18A13.83,13.83,0,0,1,369.25,131.48Zm9.89,4.26h-5.6v-.69l3-4.05a9,9,0,0,0,1-1.71,3.33,3.33,0,0,0,.3-1.34,2.45,2.45,0,0,0-.47-1.57,1.62,1.62,0,0,0-1.32-.59,1.72,1.72,0,0,0-1.42.68,2.79,2.79,0,0,0-.53,1.76h-.8a3.39,3.39,0,0,1,.76-2.28,2.46,2.46,0,0,1,2-.91,2.5,2.5,0,0,1,1.91.75,2.93,2.93,0,0,1,.7,2.08,5.57,5.57,0,0,1-1.14,3l-.47.66L374.52,135h4.62Zm1.7-.53a.62.62,0,0,1,.17-.44.58.58,0,0,1,.45-.18.6.6,0,0,1,.46.18.61.61,0,0,1,.16.44.57.57,0,0,1-.16.42.63.63,0,0,1-.46.16.61.61,0,0,1-.45-.16A.57.57,0,0,1,380.84,135.21Zm8-2.88h1.35v.75h-1.35v2.66H388v-2.66h-4.14v-.51l4.08-7.38h.87Zm-4,0H388V126.4l-.29.59Zm7.74-6.51a12.26,12.26,0,0,1,1.31,5.76,13.35,13.35,0,0,1-.36,3.13,10.59,10.59,0,0,1-1,2.69,5.31,5.31,0,0,1-1.42,1.74l-.18-.57a5.41,5.41,0,0,0,1.27-2,13.52,13.52,0,0,0,.9-5.14,14.08,14.08,0,0,0-.28-2.86,12.12,12.12,0,0,0-.8-2.49,4.93,4.93,0,0,0-1.09-1.62l.18-.58a5.38,5.38,0,0,1,1.49,1.92Z" transform="translate(0)" fill="#4d4d4d"/>
        <path d="M357.05,195.1h-5.59v-.69l3-4a9.79,9.79,0,0,0,1.05-1.72,3.28,3.28,0,0,0,.3-1.33,2.42,2.42,0,0,0-.48-1.58,1.58,1.58,0,0,0-1.31-.58,1.68,1.68,0,0,0-1.42.68,2.76,2.76,0,0,0-.53,1.75h-.81a3.42,3.42,0,0,1,.77-2.28,2.71,2.71,0,0,1,3.89-.15,2.91,2.91,0,0,1,.71,2.08,5.51,5.51,0,0,1-1.15,3l-.46.67-2.58,3.48h4.61Zm6.12-4.81a2.82,2.82,0,0,1-.95,1,2.22,2.22,0,0,1-1.21.36,2.16,2.16,0,0,1-1.84-1,4.31,4.31,0,0,1-.7-2.55,4.51,4.51,0,0,1,.74-2.65,2.26,2.26,0,0,1,2-1,2.34,2.34,0,0,1,2.07,1.1,5.61,5.61,0,0,1,.75,3.16v.78a7.42,7.42,0,0,1-1,4.29,3.54,3.54,0,0,1-3.06,1.43h-.22v-.76h.24a3,3,0,0,0,2.38-1A5,5,0,0,0,363.17,190.29Zm-2.05.59a1.84,1.84,0,0,0,1.24-.49,2.9,2.9,0,0,0,.82-1.33v-.53a4.71,4.71,0,0,0-.55-2.47,1.65,1.65,0,0,0-1.46-.9,1.56,1.56,0,0,0-1.37.83,3.72,3.72,0,0,0-.54,2.08,3.66,3.66,0,0,0,.51,2A1.54,1.54,0,0,0,361.12,190.88Zm8.12,0a13.21,13.21,0,0,1,.38-3.16,10.84,10.84,0,0,1,1-2.71,4.94,4.94,0,0,1,1.38-1.7l.19.61a4.61,4.61,0,0,0-1.11,1.58,11.11,11.11,0,0,0-.78,2.46,15.56,15.56,0,0,0,0,5.93,11.37,11.37,0,0,0,.79,2.47,4.91,4.91,0,0,0,1.11,1.61l-.19.58a4.42,4.42,0,0,1-1-1.08,8,8,0,0,1-.91-1.71,12.12,12.12,0,0,1-.65-2.18A13.76,13.76,0,0,1,369.24,190.84Zm5.91-1.49h.79a2,2,0,0,0,1.43-.56,2,2,0,0,0,.55-1.49,2.4,2.4,0,0,0-.47-1.58,1.65,1.65,0,0,0-1.33-.56,1.7,1.7,0,0,0-1.36.6,2.28,2.28,0,0,0-.52,1.56h-.8a3.3,3.3,0,0,1,.33-1.49,2.61,2.61,0,0,1,1-1,2.57,2.57,0,0,1,1.39-.38,2.42,2.42,0,0,1,1.89.77,3,3,0,0,1,.72,2.15,2.59,2.59,0,0,1-.41,1.42,2.53,2.53,0,0,1-1.1.95,2.24,2.24,0,0,1,1.23.91,2.88,2.88,0,0,1,.43,1.62,3.14,3.14,0,0,1-.75,2.2,2.6,2.6,0,0,1-2,.82,2.88,2.88,0,0,1-1.45-.38,2.55,2.55,0,0,1-1-1,3.32,3.32,0,0,1-.36-1.58h.81a2.31,2.31,0,0,0,.56,1.61,1.86,1.86,0,0,0,1.46.63,1.82,1.82,0,0,0,1.43-.57,2.44,2.44,0,0,0,.51-1.66,1.94,1.94,0,0,0-2.14-2.16h-.79Zm10.12,2.35h1.36v.75h-1.36v2.65h-.8v-2.65h-4.15v-.52l4.08-7.38h.87Zm-4,0h3.18v-5.93l-.29.58Zm6.76,2.87a.63.63,0,0,1,.16-.44.61.61,0,0,1,.45-.17.62.62,0,0,1,.46.17.64.64,0,0,1,.17.44.57.57,0,0,1-.17.42.62.62,0,0,1-.46.17.61.61,0,0,1-.45-.17A.57.57,0,0,1,388.05,194.57Zm6.91.53h-.81v-9.48l-2.39,1.06v-.83l3.06-1.34H395Zm4.83-9.92a12.3,12.3,0,0,1,1.3,5.77,13.35,13.35,0,0,1-.36,3.13,10.89,10.89,0,0,1-1,2.69,5.17,5.17,0,0,1-1.42,1.74l-.18-.58a5.12,5.12,0,0,0,1.27-2,13.59,13.59,0,0,0,.91-5.14A14.18,14.18,0,0,0,400,188a11.55,11.55,0,0,0-.8-2.49,4.79,4.79,0,0,0-1.09-1.62l.18-.57a5.43,5.43,0,0,1,1.5,1.91Z" transform="translate(0)" fill="#4d4d4d"/>
        <path d="M363.92,276.31a2.74,2.74,0,0,1-.39,1.45,2.45,2.45,0,0,1-1,1,2.76,2.76,0,0,1,1.23,1,3.24,3.24,0,0,1-.33,3.73,3,3,0,0,1-4.11,0,3,3,0,0,1-.76-2.14,2.84,2.84,0,0,1,.44-1.59,2.68,2.68,0,0,1,1.2-1,2.49,2.49,0,0,1-1-1,2.84,2.84,0,0,1-.38-1.46,3,3,0,0,1,.71-2.08,2.45,2.45,0,0,1,1.89-.78,2.42,2.42,0,0,1,1.89.78A3,3,0,0,1,363.92,276.31Zm-.58,5a2.3,2.3,0,0,0-.57-1.61,2,2,0,0,0-2.9,0,2.59,2.59,0,0,0,0,3.22,1.94,1.94,0,0,0,1.48.59,1.9,1.9,0,0,0,1.46-.59A2.25,2.25,0,0,0,363.34,281.35Zm-.22-5a2.2,2.2,0,0,0-.52-1.51,1.59,1.59,0,0,0-1.28-.59,1.61,1.61,0,0,0-1.3.58,2.29,2.29,0,0,0-.48,1.52,2.13,2.13,0,0,0,.5,1.5,1.69,1.69,0,0,0,1.29.55,1.64,1.64,0,0,0,1.28-.56A2.14,2.14,0,0,0,363.12,276.31Zm6.13,3.58a12.72,12.72,0,0,1,.38-3.16,11.08,11.08,0,0,1,1-2.71,5.23,5.23,0,0,1,1.38-1.71l.19.61a4.75,4.75,0,0,0-1.1,1.59,11.37,11.37,0,0,0-.79,2.45,15.29,15.29,0,0,0-.28,3.05,14.38,14.38,0,0,0,.28,2.89,11,11,0,0,0,.79,2.47,5.06,5.06,0,0,0,1.1,1.61l-.19.57a4.56,4.56,0,0,1-1-1.07,9.1,9.1,0,0,1-.91-1.71,13,13,0,0,1-.64-2.18A13.83,13.83,0,0,1,369.25,279.89Zm8.79-.55a2.82,2.82,0,0,1-1,1,2.3,2.3,0,0,1-1.21.35,2.16,2.16,0,0,1-1.84-1,4.35,4.35,0,0,1-.7-2.54,4.51,4.51,0,0,1,.74-2.65,2.27,2.27,0,0,1,1.95-1.05,2.37,2.37,0,0,1,2.08,1.11,5.69,5.69,0,0,1,.74,3.15v.79a7.42,7.42,0,0,1-1,4.29,3.54,3.54,0,0,1-3.06,1.43h-.22v-.77h.23a2.94,2.94,0,0,0,2.38-1A5,5,0,0,0,378,279.34Zm-2.05.59a1.85,1.85,0,0,0,1.24-.5,2.85,2.85,0,0,0,.82-1.33v-.53a4.67,4.67,0,0,0-.55-2.46,1.65,1.65,0,0,0-1.46-.9,1.57,1.57,0,0,0-1.37.82,3.75,3.75,0,0,0-.54,2.09,3.62,3.62,0,0,0,.52,2A1.55,1.55,0,0,0,376,279.93Zm4.85,3.69a.62.62,0,0,1,.17-.44.58.58,0,0,1,.45-.18.6.6,0,0,1,.46.18.61.61,0,0,1,.16.44.57.57,0,0,1-.16.42.64.64,0,0,1-.46.17A.61.61,0,0,1,381,284,.57.57,0,0,1,380.84,283.62Zm8-2.88h1.35v.76h-1.35v2.65H388V281.5h-4.14V281L388,273.6h.87Zm-4,0H388v-5.93l-.29.59Zm7.74-6.51a12.27,12.27,0,0,1,1.31,5.77,13.32,13.32,0,0,1-.36,3.12,10.59,10.59,0,0,1-1,2.69,5.31,5.31,0,0,1-1.42,1.74l-.18-.57a5.33,5.33,0,0,0,1.27-2,13.51,13.51,0,0,0,.9-5.13,14.11,14.11,0,0,0-.28-2.87,12.12,12.12,0,0,0-.8-2.49,4.93,4.93,0,0,0-1.09-1.62l.18-.58a5.47,5.47,0,0,1,1.49,1.92Z" transform="translate(0)" fill="#4d4d4d"/>
        <g>
          <path d="M292.38,21V10.4h2.79a3.88,3.88,0,0,1,2.95,1.18,4.62,4.62,0,0,1,1.12,3.22v1.71a4.63,4.63,0,0,1-1.1,3.26,3.92,3.92,0,0,1-3,1.19Zm2.13-8.78v7h.64a1.8,1.8,0,0,0,1.5-.56,3.39,3.39,0,0,0,.46-1.94V14.85a3.7,3.7,0,0,0-.42-2.06,1.65,1.65,0,0,0-1.4-.61Z" transform="translate(0)" fill="#fff"/>
          <path d="M300.77,21V10.4H304a3.78,3.78,0,0,1,2.51.74,2.69,2.69,0,0,1,.86,2.16,2.58,2.58,0,0,1-.36,1.38,2.1,2.1,0,0,1-1,.85,1.88,1.88,0,0,1,1.1.81,2.87,2.87,0,0,1,.38,1.51,3,3,0,0,1-.85,2.32,3.46,3.46,0,0,1-2.44.79Zm2.13-6.14H304a1.13,1.13,0,0,0,1.26-1.3,1.51,1.51,0,0,0-.29-1,1.22,1.22,0,0,0-.94-.31H302.9Zm0,1.55v2.82h1.36a1.07,1.07,0,0,0,.87-.36,1.49,1.49,0,0,0,.3-1c0-.95-.35-1.44-1-1.46Z" transform="translate(0)" fill="#fff"/>
          <path d="M309.6,23.62,308.5,23l.28-.51a3.73,3.73,0,0,0,.48-1.73V19.17H311v1.46a3.71,3.71,0,0,1-.39,1.59A4,4,0,0,1,309.6,23.62Z" transform="translate(0)" fill="#fff"/>
          <path d="M321.77,17.51l.7-4.4h2L322.81,21h-1.7L320,16.42,318.89,21h-1.71l-1.62-7.85h2l.69,4.41,1-4.41h1.45Z" transform="translate(0)" fill="#fff"/>
          <path d="M328.05,17.93l-.55.62V21h-2.05V9.82h2.05v6l.25-.38,1.42-2.35h2.44l-2.27,3.24L331.83,21h-2.35Z" transform="translate(0)" fill="#fff"/>
          <path d="M340.43,21h-2.06V12.9l-2,.77V12l3.85-1.57h.22Z" transform="translate(0)" fill="#fff"/>
          <path d="M349.33,13.21a2.85,2.85,0,0,1-.32,1.36,2.57,2.57,0,0,1-.9.95,2.88,2.88,0,0,1,1,1,3,3,0,0,1,.37,1.52,3,3,0,0,1-.81,2.23,3,3,0,0,1-2.21.81,2.83,2.83,0,0,1-3.05-3,3,3,0,0,1,.38-1.52,2.59,2.59,0,0,1,1-1,2.57,2.57,0,0,1-.9-.95,2.74,2.74,0,0,1-.33-1.36A2.94,2.94,0,0,1,344.4,11a2.79,2.79,0,0,1,2.08-.78,2.74,2.74,0,0,1,2.08.79A3,3,0,0,1,349.33,13.21Zm-2.84,6.19a.8.8,0,0,0,.72-.4,2.11,2.11,0,0,0,.25-1.1,2,2,0,0,0-.27-1.1.84.84,0,0,0-1.43,0,2,2,0,0,0-.27,1.1,1.92,1.92,0,0,0,.27,1.1A.82.82,0,0,0,346.49,19.4Zm.8-6.08a2.15,2.15,0,0,0-.2-1,.68.68,0,0,0-1.21,0,2.11,2.11,0,0,0-.2,1,2.19,2.19,0,0,0,.2,1,.67.67,0,0,0,.61.38.64.64,0,0,0,.6-.38A2.19,2.19,0,0,0,347.29,13.32Z" transform="translate(0)" fill="#fff"/>
        </g>
        <path d="M357.68,16.65h-6.35V14.93h6.35Z" transform="translate(0)" fill="#fff"/>
        <g>
          <path d="M364.45,17h.9v1.7h-.9V21H362.4V18.67h-3.49l-.1-1.32,3.58-7h2.06Zm-3.65,0h1.6V13.44l0,.08Z" transform="translate(0)" fill="#fff"/>
          <path d="M372,17h.9v1.7H372V21h-2V18.67h-3.5l-.09-1.32,3.58-7H372Zm-3.65,0h1.6V13.44l-.05.08Z" transform="translate(0)" fill="#fff"/>
        </g>
      </g>
    </g>
  </g>
</svg>
