<svg xmlns="http://www.w3.org/2000/svg" xmlns:xlink="http://www.w3.org/1999/xlink" width="729.4" height="369.69" viewBox="0 0 729.4 369.69">
  <defs>
    <clipPath id="clip-path">
      <rect x="57.07" y="273.2" width="101.1" height="77.99" fill="none"/>
    </clipPath>
    <clipPath id="clip-path-2">
      <rect x="595.44" y="273.2" width="101.09" height="77.99" fill="none"/>
    </clipPath>
    <clipPath id="clip-path-3">
      <rect x="230.99" y="273.2" width="353.12" height="96.48" fill="none"/>
    </clipPath>
  </defs>
  <g id="Layer_2" data-name="Layer 2">
    <g id="Layer_1-2" data-name="Layer 1">
      <g>
        <g>
          <polyline points="103.65 80.7 103.65 51.93 645.98 51.93 645.98 80.7" fill="none" stroke="#231f20" stroke-miterlimit="10" stroke-width="2"/>
          <line x1="398.15" y1="155.9" x2="398.15" y2="157.9" fill="none" stroke="#ffd200" stroke-miterlimit="10" stroke-width="3"/>
          <line x1="398.15" y1="161.83" x2="398.15" y2="222.73" fill="none" stroke="#ffd200" stroke-miterlimit="10" stroke-width="3" stroke-dasharray="3.93 3.93"/>
          <line x1="398.15" y1="224.69" x2="398.15" y2="226.69" fill="none" stroke="#ffd200" stroke-miterlimit="10" stroke-width="3"/>
          <line x1="398.15" y1="80.7" x2="398.15" y2="51.93" fill="none" stroke="#231f20" stroke-miterlimit="10" stroke-width="2"/>
          <polyline points="32.76 254.59 32.76 226.69 667.42 226.69" fill="none" stroke="#231f20" stroke-miterlimit="10" stroke-width="2"/>
          <line x1="107.61" y1="238.78" x2="107.61" y2="226.69" fill="none" stroke="#231f20" stroke-miterlimit="10" stroke-width="2"/>
          <line x1="398.15" y1="226.69" x2="398.15" y2="233.85" fill="none" stroke="#231f20" stroke-miterlimit="10" stroke-width="2"/>
          <line x1="645.98" y1="233.85" x2="645.98" y2="226.69" fill="none" stroke="#231f20" stroke-miterlimit="10" stroke-width="2"/>
          <line x1="551.44" y1="233.85" x2="551.44" y2="226.69" fill="none" stroke="#231f20" stroke-miterlimit="10" stroke-width="2"/>
          <g opacity="0.33">
            <g clip-path="url(#clip-path)">
              <polygon points="107.61 273.2 133.32 295.01 158.16 295.01 158.16 351.19 57.07 351.19 57.07 295.01 83.86 295.01 107.61 273.2" fill="#59c2ef"/>
            </g>
          </g>
          <g opacity="0.33">
            <g clip-path="url(#clip-path-2)">
              <polygon points="645.98 273.2 671.69 295.01 696.53 295.01 696.53 351.19 595.43 351.19 595.43 295.01 622.22 295.01 645.98 273.2" fill="#59c2ef"/>
            </g>
          </g>
          <g opacity="0.33">
            <g clip-path="url(#clip-path-3)">
              <polygon points="398.15 273.2 421.07 295.01 584.11 295.01 584.11 369.69 230.99 369.69 230.99 295.01 373.6 295.01 398.15 273.2" fill="#59c2ef"/>
            </g>
          </g>
          <rect x="101.78" y="90.53" width="250.18" height="91.53" fill="#59c2ef"/>
          <rect x="465.41" y="86.17" width="180.57" height="44.47" fill="#59c2ef"/>
          <rect x="465.41" y="157.95" width="180.57" height="31.08" fill="#999"/>
          <path d="M374,136.84A23.12,23.12,0,1,1,397.15,160,23.12,23.12,0,0,1,374,136.84" fill="#999"/>
        </g>
        <g>
          <path d="M628.75,315.18H623.2v4.53h6.45v1.38h-8.13V308.3h8v1.38H623.2v4.12h5.55Z"/>
          <path d="M633,311.58l.05,1.2a3.46,3.46,0,0,1,2.85-1.37q3,0,3,3.4v6.28h-1.63V314.8a2.14,2.14,0,0,0-.47-1.52,1.85,1.85,0,0,0-1.43-.49,2.36,2.36,0,0,0-1.39.42,2.8,2.8,0,0,0-.93,1.11v6.77h-1.63v-9.51Z"/>
          <path d="M641,316.26a5.58,5.58,0,0,1,1-3.52,3.54,3.54,0,0,1,5.37-.19v-5h1.62v13.5h-1.49l-.08-1a3.31,3.31,0,0,1-2.72,1.2,3.24,3.24,0,0,1-2.69-1.35,5.64,5.64,0,0,1-1-3.54Zm1.62.18a4.23,4.23,0,0,0,.67,2.53,2.17,2.17,0,0,0,1.85.92,2.37,2.37,0,0,0,2.26-1.39v-4.37a2.41,2.41,0,0,0-2.25-1.34,2.16,2.16,0,0,0-1.86.92A4.7,4.7,0,0,0,642.65,316.44Z"/>
          <path d="M655.6,316.25a5.54,5.54,0,0,1,.55-2.51,4,4,0,0,1,1.53-1.73,4.19,4.19,0,0,1,2.24-.6,4,4,0,0,1,3.14,1.34,5.18,5.18,0,0,1,1.2,3.58v.11a5.77,5.77,0,0,1-.53,2.5,4.1,4.1,0,0,1-1.53,1.71,4.17,4.17,0,0,1-2.27.62,4,4,0,0,1-3.13-1.35,5.13,5.13,0,0,1-1.2-3.56Zm1.63.19A4.06,4.06,0,0,0,658,319a2.34,2.34,0,0,0,2,1,2.32,2.32,0,0,0,2-1,4.42,4.42,0,0,0,.73-2.72,4.12,4.12,0,0,0-.74-2.54,2.38,2.38,0,0,0-2-1,2.33,2.33,0,0,0-1.95,1A4.42,4.42,0,0,0,657.23,316.44Z"/>
          <path d="M667.1,321.09v-8.25h-1.51v-1.26h1.51v-1a3.28,3.28,0,0,1,.81-2.37,3.13,3.13,0,0,1,2.31-.83,4.26,4.26,0,0,1,1.12.15l-.09,1.31a4.12,4.12,0,0,0-.88-.08,1.59,1.59,0,0,0-1.22.46,1.91,1.91,0,0,0-.43,1.33v1h2v1.26h-2v8.25Z"/>
        </g>
        <g>
          <path d="M630.16,340.17a1.18,1.18,0,0,0-.49-1,4.56,4.56,0,0,0-1.73-.63,8.52,8.52,0,0,1-2-.63,2.79,2.79,0,0,1-1.08-.88,2.13,2.13,0,0,1-.34-1.22,2.46,2.46,0,0,1,1-2,3.9,3.9,0,0,1,2.53-.81,4,4,0,0,1,2.63.83,2.66,2.66,0,0,1,1,2.14h-1.63a1.45,1.45,0,0,0-.57-1.15,2.09,2.09,0,0,0-1.43-.49,2.23,2.23,0,0,0-1.39.39,1.22,1.22,0,0,0-.5,1,1,1,0,0,0,.47.89,5.65,5.65,0,0,0,1.68.57,8.71,8.71,0,0,1,2,.65,2.94,2.94,0,0,1,1.13.91,2.26,2.26,0,0,1,.36,1.3,2.42,2.42,0,0,1-1,2,4.3,4.3,0,0,1-2.65.77,4.79,4.79,0,0,1-2-.41,3.26,3.26,0,0,1-1.37-1.13,2.7,2.7,0,0,1-.5-1.56h1.63a1.67,1.67,0,0,0,.65,1.29,2.55,2.55,0,0,0,1.61.48,2.65,2.65,0,0,0,1.49-.37A1.14,1.14,0,0,0,630.16,340.17Z"/>
          <path d="M636.11,330.88v2.3h1.78v1.26h-1.78v5.9a1.3,1.3,0,0,0,.24.86,1,1,0,0,0,.81.29,3.9,3.9,0,0,0,.77-.11v1.31a4.54,4.54,0,0,1-1.24.18,2,2,0,0,1-1.65-.66,2.82,2.82,0,0,1-.55-1.87v-5.9h-1.73v-1.26h1.73v-2.3Z"/>
          <path d="M645.66,341.75a3.43,3.43,0,0,1-2.79,1.12,3,3,0,0,1-2.31-.88,3.87,3.87,0,0,1-.81-2.62v-6.19h1.63v6.15c0,1.44.58,2.16,1.76,2.16a2.43,2.43,0,0,0,2.48-1.39v-6.92h1.62v9.51h-1.55Z"/>
          <path d="M649.32,337.86a5.58,5.58,0,0,1,1-3.52,3.53,3.53,0,0,1,5.36-.19v-5h1.63v13.5h-1.49l-.08-1a3.31,3.31,0,0,1-2.72,1.2,3.24,3.24,0,0,1-2.69-1.35,5.62,5.62,0,0,1-1-3.54Zm1.62.18a4.16,4.16,0,0,0,.67,2.53,2.16,2.16,0,0,0,1.85.92,2.35,2.35,0,0,0,2.25-1.39v-4.37a2.39,2.39,0,0,0-2.24-1.34,2.15,2.15,0,0,0-1.86.92A4.62,4.62,0,0,0,650.94,338Z"/>
          <path d="M663,340.31l2.22-7.13h1.74l-3.82,11c-.6,1.58-1.54,2.37-2.83,2.37l-.3,0-.61-.12v-1.32l.44,0a2.2,2.2,0,0,0,1.29-.33,2.43,2.43,0,0,0,.76-1.23l.36-1-3.39-9.41h1.77Z"/>
        </g>
        <g>
          <path d="M278.87,313.11a7.93,7.93,0,0,1-.64,3.28,4.76,4.76,0,0,1-1.79,2.14,5.28,5.28,0,0,1-5.39,0,4.9,4.9,0,0,1-1.81-2.12,7.6,7.6,0,0,1-.67-3.19v-.92a7.93,7.93,0,0,1,.64-3.26,5,5,0,0,1,1.82-2.17,4.87,4.87,0,0,1,2.68-.75,5,5,0,0,1,2.72.74,4.82,4.82,0,0,1,1.8,2.16,8,8,0,0,1,.64,3.28Zm-1.68-.83a5.73,5.73,0,0,0-.92-3.49,3,3,0,0,0-2.56-1.22,3,3,0,0,0-2.51,1.22,5.59,5.59,0,0,0-.95,3.38v.94a5.74,5.74,0,0,0,.93,3.47,3.25,3.25,0,0,0,5.08.07,5.75,5.75,0,0,0,.93-3.42Z"/>
          <path d="M282.68,309.58l.05,1.2a3.49,3.49,0,0,1,2.85-1.37q3,0,3,3.4v6.28H287V312.8a2.21,2.21,0,0,0-.48-1.52,1.85,1.85,0,0,0-1.43-.49,2.36,2.36,0,0,0-1.39.42,2.8,2.8,0,0,0-.93,1.11v6.77h-1.63v-9.51Z"/>
          <path d="M292.84,319.09h-1.63v-13.5h1.63Z"/>
          <path d="M298.55,316.71l2.22-7.13h1.74l-3.83,11c-.59,1.58-1.53,2.38-2.82,2.38l-.3,0-.61-.12v-1.31l.44,0a2.2,2.2,0,0,0,1.29-.33,2.46,2.46,0,0,0,.76-1.22l.36-1-3.4-9.41h1.78Z"/>
          <path d="M316.45,314.45a5.63,5.63,0,0,1-1,3.49,3.16,3.16,0,0,1-2.69,1.33,3.49,3.49,0,0,1-2.72-1.1v4.58h-1.63V309.58h1.49l.08,1.06a3.34,3.34,0,0,1,2.76-1.23,3.25,3.25,0,0,1,2.71,1.29,5.79,5.79,0,0,1,1,3.6Zm-1.63-.19a4.25,4.25,0,0,0-.68-2.54,2.23,2.23,0,0,0-1.89-.93A2.39,2.39,0,0,0,310,312.1v4.54a2.39,2.39,0,0,0,2.23,1.3,2.21,2.21,0,0,0,1.86-.92A4.6,4.6,0,0,0,314.82,314.26Z"/>
          <path d="M324.38,319.09a3.25,3.25,0,0,1-.22-1,3.62,3.62,0,0,1-2.71,1.18,3.36,3.36,0,0,1-2.31-.79,2.6,2.6,0,0,1-.9-2,2.7,2.7,0,0,1,1.13-2.31,5.3,5.3,0,0,1,3.18-.82h1.58v-.75a1.83,1.83,0,0,0-.51-1.36,2.07,2.07,0,0,0-1.5-.5,2.39,2.39,0,0,0-1.46.44,1.28,1.28,0,0,0-.59,1.06h-1.64a2.22,2.22,0,0,1,.51-1.37,3.31,3.31,0,0,1,1.37-1.05,4.58,4.58,0,0,1,1.9-.39,3.75,3.75,0,0,1,2.58.82,3,3,0,0,1,1,2.26v4.38a5.36,5.36,0,0,0,.34,2.08v.14Zm-2.69-1.23a2.91,2.91,0,0,0,1.45-.4,2.45,2.45,0,0,0,1-1v-1.95h-1.28c-2,0-3,.58-3,1.75a1.46,1.46,0,0,0,.51,1.19A1.94,1.94,0,0,0,321.69,317.86Z"/>
          <path d="M330.51,307.28v2.3h1.78v1.26h-1.78v5.91a1.29,1.29,0,0,0,.24.85,1,1,0,0,0,.81.29,3.93,3.93,0,0,0,.77-.1v1.31a5,5,0,0,1-1.25.17,2,2,0,0,1-1.64-.66,2.82,2.82,0,0,1-.56-1.87v-5.9h-1.73v-1.26h1.73v-2.3Z"/>
          <path d="M334.19,307.06a1,1,0,0,1,.24-.67,1.09,1.09,0,0,1,1.44,0,1,1,0,0,1,.25.67.89.89,0,0,1-.25.66,1.09,1.09,0,0,1-1.44,0A.92.92,0,0,1,334.19,307.06Zm1.76,12h-1.63v-9.51H336Z"/>
          <path d="M342.5,319.27a4.15,4.15,0,0,1-3.15-1.27,4.72,4.72,0,0,1-1.21-3.4v-.3a5.69,5.69,0,0,1,.54-2.52,4.21,4.21,0,0,1,1.51-1.74,3.81,3.81,0,0,1,2.11-.63,3.58,3.58,0,0,1,2.88,1.22,5.33,5.33,0,0,1,1,3.5v.68h-6.45a3.4,3.4,0,0,0,.83,2.27,2.59,2.59,0,0,0,2,.86,2.73,2.73,0,0,0,1.45-.35,3.56,3.56,0,0,0,1-.93l1,.77A4,4,0,0,1,342.5,319.27Zm-.2-8.52a2.17,2.17,0,0,0-1.66.71,3.49,3.49,0,0,0-.82,2h4.76v-.12a3.09,3.09,0,0,0-.67-1.92A2,2,0,0,0,342.3,310.75Z"/>
          <path d="M349.63,309.58l.05,1.2a3.47,3.47,0,0,1,2.85-1.37q3,0,3,3.4v6.28h-1.63V312.8a2.16,2.16,0,0,0-.47-1.52,1.89,1.89,0,0,0-1.44-.49,2.32,2.32,0,0,0-1.38.42,2.91,2.91,0,0,0-.94,1.11v6.77h-1.62v-9.51Z"/>
          <path d="M360.23,307.28v2.3H362v1.26h-1.77v5.91a1.29,1.29,0,0,0,.23.85,1,1,0,0,0,.81.29,3.76,3.76,0,0,0,.77-.1v1.31a4.93,4.93,0,0,1-1.24.17,2,2,0,0,1-1.65-.66,2.82,2.82,0,0,1-.55-1.87v-5.9h-1.73v-1.26h1.73v-2.3Z"/>
          <path d="M369.44,316.57a1.19,1.19,0,0,0-.5-1,4.93,4.93,0,0,0-1.73-.63,8.52,8.52,0,0,1-2-.63,2.75,2.75,0,0,1-1.07-.88,2.05,2.05,0,0,1-.35-1.21,2.47,2.47,0,0,1,1-2,3.85,3.85,0,0,1,2.52-.81,4,4,0,0,1,2.63.83,2.66,2.66,0,0,1,1,2.14h-1.63a1.45,1.45,0,0,0-.57-1.15,2.11,2.11,0,0,0-1.43-.48,2.18,2.18,0,0,0-1.38.38,1.21,1.21,0,0,0-.5,1,1,1,0,0,0,.46.89,5.65,5.65,0,0,0,1.68.57,8.82,8.82,0,0,1,2,.65,3,3,0,0,1,1.12.91,2.28,2.28,0,0,1,.36,1.3,2.42,2.42,0,0,1-1,2,4.29,4.29,0,0,1-2.64.77,4.76,4.76,0,0,1-2-.4,3.3,3.3,0,0,1-1.38-1.13,2.76,2.76,0,0,1-.5-1.57h1.63a1.68,1.68,0,0,0,.65,1.29,2.56,2.56,0,0,0,1.62.48,2.62,2.62,0,0,0,1.48-.37A1.15,1.15,0,0,0,369.44,316.57Z"/>
          <path d="M383.51,319.09a3.18,3.18,0,0,1-.23-1,3.62,3.62,0,0,1-2.71,1.18,3.33,3.33,0,0,1-2.3-.79,2.58,2.58,0,0,1-.91-2,2.7,2.7,0,0,1,1.13-2.31,5.34,5.34,0,0,1,3.18-.82h1.58v-.75a1.83,1.83,0,0,0-.51-1.36,2.07,2.07,0,0,0-1.5-.5,2.39,2.39,0,0,0-1.46.44,1.3,1.3,0,0,0-.59,1.06h-1.63a2.27,2.27,0,0,1,.5-1.37,3.38,3.38,0,0,1,1.37-1.05,4.63,4.63,0,0,1,1.91-.39,3.74,3.74,0,0,1,2.57.82,3,3,0,0,1,1,2.26v4.38a5.38,5.38,0,0,0,.33,2.08v.14Zm-2.7-1.23a2.91,2.91,0,0,0,1.45-.4,2.33,2.33,0,0,0,1-1v-1.95H382c-2,0-3,.58-3,1.75a1.46,1.46,0,0,0,.51,1.19A2,2,0,0,0,380.81,317.86Z"/>
          <path d="M391.24,317.94a2.34,2.34,0,0,0,1.52-.52,1.84,1.84,0,0,0,.72-1.32H395a3,3,0,0,1-.56,1.55,3.64,3.64,0,0,1-1.39,1.18,4,4,0,0,1-1.83.44,3.92,3.92,0,0,1-3.09-1.3,5.16,5.16,0,0,1-1.14-3.54v-.27a5.71,5.71,0,0,1,.51-2.47A3.81,3.81,0,0,1,389,310a4.13,4.13,0,0,1,2.25-.6,3.8,3.8,0,0,1,2.66,1,3.41,3.41,0,0,1,1.13,2.48h-1.54a2.23,2.23,0,0,0-.69-1.51,2.17,2.17,0,0,0-1.56-.59,2.27,2.27,0,0,0-1.92.89,4.2,4.2,0,0,0-.68,2.58v.3a4.15,4.15,0,0,0,.68,2.54A2.27,2.27,0,0,0,391.24,317.94Z"/>
          <path d="M398.48,310.74a3.43,3.43,0,0,1,2.81-1.33q3,0,3,3.4v6.28H402.7V312.8a2.16,2.16,0,0,0-.47-1.52,1.85,1.85,0,0,0-1.43-.49,2.36,2.36,0,0,0-1.39.42,2.8,2.8,0,0,0-.93,1.11v6.77h-1.63v-13.5h1.63Z"/>
          <path d="M406.77,307.06a1,1,0,0,1,.24-.67,1.1,1.1,0,0,1,1.44,0,1,1,0,0,1,.25.67.89.89,0,0,1-.25.66,1.1,1.1,0,0,1-1.44,0A.92.92,0,0,1,406.77,307.06Zm1.76,12H406.9v-9.51h1.63Z"/>
          <path d="M415.08,319.27a4.15,4.15,0,0,1-3.15-1.27,4.72,4.72,0,0,1-1.21-3.4v-.3a5.69,5.69,0,0,1,.54-2.52,4.21,4.21,0,0,1,1.51-1.74,3.81,3.81,0,0,1,2.11-.63,3.58,3.58,0,0,1,2.88,1.22,5.33,5.33,0,0,1,1,3.5v.68h-6.45a3.4,3.4,0,0,0,.83,2.27,2.59,2.59,0,0,0,2,.86,2.73,2.73,0,0,0,1.45-.35,3.56,3.56,0,0,0,1.05-.93l1,.77A4,4,0,0,1,415.08,319.27Zm-.2-8.52a2.17,2.17,0,0,0-1.66.71,3.49,3.49,0,0,0-.82,2h4.76v-.12a3.09,3.09,0,0,0-.67-1.92A2,2,0,0,0,414.88,310.75Z"/>
          <path d="M423.68,316.89l2.36-7.31h1.66l-3.41,9.51h-1.24l-3.45-9.51h1.66Z"/>
          <path d="M429.27,307.06a1,1,0,0,1,.24-.67.91.91,0,0,1,.72-.27.94.94,0,0,1,.72.27,1,1,0,0,1,.24.67.92.92,0,0,1-.24.66.94.94,0,0,1-.72.27.91.91,0,0,1-.72-.27A.92.92,0,0,1,429.27,307.06Zm1.76,12H429.4v-9.51H431Z"/>
          <path d="M435.17,309.58l.05,1.2a3.49,3.49,0,0,1,2.85-1.37q3,0,3,3.4v6.28h-1.63V312.8a2.16,2.16,0,0,0-.47-1.52,1.85,1.85,0,0,0-1.43-.49,2.33,2.33,0,0,0-1.39.42,2.91,2.91,0,0,0-.94,1.11v6.77h-1.62v-9.51Z"/>
          <path d="M443.17,314.26a5.64,5.64,0,0,1,1-3.54,3.32,3.32,0,0,1,2.73-1.31,3.26,3.26,0,0,1,2.71,1.23l.08-1.06h1.49v9.29a3.87,3.87,0,0,1-1.1,2.91,4.08,4.08,0,0,1-2.94,1.06,5,5,0,0,1-2-.44,3.37,3.37,0,0,1-1.5-1.2l.84-1a3.19,3.19,0,0,0,2.56,1.29,2.47,2.47,0,0,0,1.85-.67,2.55,2.55,0,0,0,.66-1.88v-.81a3.34,3.34,0,0,1-2.66,1.12,3.25,3.25,0,0,1-2.7-1.34A5.88,5.88,0,0,1,443.17,314.26Zm1.64.19a4.24,4.24,0,0,0,.66,2.52,2.14,2.14,0,0,0,1.84.92,2.38,2.38,0,0,0,2.26-1.4v-4.34a2.4,2.4,0,0,0-2.24-1.36,2.16,2.16,0,0,0-1.85.92A4.64,4.64,0,0,0,444.81,314.45Z"/>
          <path d="M463.73,306.3h1.7v9.06a3.74,3.74,0,0,1-1.11,2.87,4.11,4.11,0,0,1-2.94,1,4.19,4.19,0,0,1-3-1,3.55,3.55,0,0,1-1.06-2.73H459a2.37,2.37,0,0,0,.6,1.72,2.32,2.32,0,0,0,1.74.61,2.27,2.27,0,0,0,1.7-.66,2.52,2.52,0,0,0,.65-1.84Z"/>
          <path d="M470.11,319.09h-1.69V306.3h1.69Z"/>
          <path d="M480.41,315.75h-5.36l-1.21,3.34H472.1L477,306.3h1.47l4.9,12.79h-1.73Zm-4.85-1.38h4.35l-2.18-6Z"/>
          <path d="M496.61,315.75h-5.37l-1.2,3.34H488.3l4.89-12.79h1.47l4.9,12.79h-1.73Zm-4.86-1.38h4.35l-2.18-6Z"/>
          <path d="M510.69,315a4.68,4.68,0,0,1-1.49,3.14,5,5,0,0,1-3.36,1.1,4.49,4.49,0,0,1-3.63-1.63,6.53,6.53,0,0,1-1.37-4.35v-1.23a7.17,7.17,0,0,1,.64-3.13,4.68,4.68,0,0,1,1.81-2.08,4.94,4.94,0,0,1,2.7-.73,4.62,4.62,0,0,1,3.27,1.14,4.75,4.75,0,0,1,1.43,3.15H509a3.7,3.7,0,0,0-1-2.22,2.87,2.87,0,0,0-2.05-.69,3,3,0,0,0-2.53,1.2,5.44,5.44,0,0,0-.92,3.4v1.24a5.66,5.66,0,0,0,.87,3.32,2.81,2.81,0,0,0,2.43,1.23,3.22,3.22,0,0,0,2.16-.64,3.55,3.55,0,0,0,1-2.22Z"/>
          <path d="M517.69,313.92h-3v5.17H513V306.3h4.23a5,5,0,0,1,3.33,1,3.54,3.54,0,0,1,1.17,2.87,3.45,3.45,0,0,1-.65,2.08,3.91,3.91,0,0,1-1.8,1.33l3,5.43v.1h-1.81Zm-3-1.38h2.6a3,3,0,0,0,2-.65,2.24,2.24,0,0,0,.74-1.75,2.32,2.32,0,0,0-.71-1.82,3,3,0,0,0-2-.64h-2.59Z"/>
          <path d="M526,311.91h1.22a2.72,2.72,0,0,0,1.81-.61,2,2,0,0,0,.66-1.59,2,2,0,0,0-2.24-2.25,2.33,2.33,0,0,0-1.68.6,2.1,2.1,0,0,0-.63,1.6h-1.62a3.26,3.26,0,0,1,1.11-2.53,4,4,0,0,1,2.82-1,4,4,0,0,1,2.84,1,3.45,3.45,0,0,1,1,2.66,2.81,2.81,0,0,1-.54,1.62,3.29,3.29,0,0,1-1.47,1.17,3.14,3.14,0,0,1,1.63,1.11,3.07,3.07,0,0,1,.57,1.89,3.49,3.49,0,0,1-1.12,2.73,4.81,4.81,0,0,1-5.86,0,3.23,3.23,0,0,1-1.13-2.57h1.64a2.14,2.14,0,0,0,.65,1.62,2.53,2.53,0,0,0,1.77.6,2.44,2.44,0,0,0,1.8-.61,2.36,2.36,0,0,0,.63-1.77,2.14,2.14,0,0,0-.69-1.71,3,3,0,0,0-2-.62H526Z"/>
          <path d="M541.79,313.64a7.41,7.41,0,0,1-1,4.24,3.45,3.45,0,0,1-3,1.39,3.49,3.49,0,0,1-3-1.36,7.12,7.12,0,0,1-1-4.05v-2.17a7.29,7.29,0,0,1,1-4.2,4.13,4.13,0,0,1,6.1-.05,7.08,7.08,0,0,1,1,4.09Zm-1.63-2.23a5.94,5.94,0,0,0-.58-3,2.24,2.24,0,0,0-3.65,0,5.81,5.81,0,0,0-.59,2.89v2.6a6,6,0,0,0,.6,3.06,2,2,0,0,0,1.82,1,2,2,0,0,0,1.79-.93,5.74,5.74,0,0,0,.61-2.93Z"/>
        </g>
        <g>
          <path d="M276.63,335.85a5.68,5.68,0,0,1,.55-2.51,4.08,4.08,0,0,1,1.53-1.72A4.14,4.14,0,0,1,281,331a4,4,0,0,1,3.14,1.34,5.18,5.18,0,0,1,1.2,3.58v.12a5.75,5.75,0,0,1-.53,2.49,4.1,4.1,0,0,1-1.52,1.72,4.22,4.22,0,0,1-2.27.61,4,4,0,0,1-3.14-1.34,5.17,5.17,0,0,1-1.2-3.56Zm1.64.2a4.07,4.07,0,0,0,.73,2.54,2.38,2.38,0,0,0,2,1,2.34,2.34,0,0,0,2-1,4.49,4.49,0,0,0,.73-2.72,4,4,0,0,0-.75-2.53,2.47,2.47,0,0,0-3.91,0A4.39,4.39,0,0,0,278.27,336.05Z"/>
          <path d="M291.93,332.64a5.1,5.1,0,0,0-.8-.06,2.15,2.15,0,0,0-2.17,1.36v6.75h-1.63v-9.5h1.58l0,1.09a2.53,2.53,0,0,1,2.27-1.27,1.73,1.73,0,0,1,.72.12Z"/>
          <path d="M305.93,336.05a5.7,5.7,0,0,1-1,3.5,3.21,3.21,0,0,1-2.69,1.32,3.32,3.32,0,0,1-2.79-1.27l-.08,1.09h-1.49v-13.5h1.62v5a3.31,3.31,0,0,1,2.72-1.22,3.24,3.24,0,0,1,2.72,1.31,5.81,5.81,0,0,1,1,3.58Zm-1.63-.19a4.4,4.4,0,0,0-.64-2.57,2.13,2.13,0,0,0-1.85-.9,2.39,2.39,0,0,0-2.31,1.49V338a2.47,2.47,0,0,0,2.33,1.49,2.11,2.11,0,0,0,1.82-.9A4.74,4.74,0,0,0,304.3,335.86Z"/>
          <path d="M311.92,340.87a4.11,4.11,0,0,1-3.14-1.27,4.72,4.72,0,0,1-1.22-3.4v-.3a5.69,5.69,0,0,1,.54-2.52,4.28,4.28,0,0,1,1.51-1.74,3.81,3.81,0,0,1,2.11-.63,3.56,3.56,0,0,1,2.88,1.22,5.28,5.28,0,0,1,1,3.5v.68h-6.44a3.4,3.4,0,0,0,.82,2.27,2.59,2.59,0,0,0,2,.86,2.8,2.8,0,0,0,1.46-.35,3.4,3.4,0,0,0,1-.93l1,.77A4,4,0,0,1,311.92,340.87Zm-.2-8.52a2.14,2.14,0,0,0-1.65.71,3.5,3.5,0,0,0-.83,2H314V335a3,3,0,0,0-.66-1.92A2,2,0,0,0,311.72,332.35Z"/>
          <path d="M319.72,328.88v2.31h1.77v1.25h-1.77v5.91a1.29,1.29,0,0,0,.24.85.94.94,0,0,0,.8.29,3.92,3.92,0,0,0,.78-.1v1.31a5.07,5.07,0,0,1-1.25.17,2,2,0,0,1-1.64-.66,2.82,2.82,0,0,1-.56-1.87v-5.9h-1.73v-1.25h1.73v-2.31Z"/>
          <path d="M325.6,328.88v2.31h1.77v1.25H325.6v5.91a1.35,1.35,0,0,0,.23.85,1,1,0,0,0,.81.29,3.92,3.92,0,0,0,.78-.1v1.31a5.07,5.07,0,0,1-1.25.17,2,2,0,0,1-1.64-.66,2.82,2.82,0,0,1-.56-1.87v-5.9h-1.73v-1.25H324v-2.31Z"/>
          <path d="M333.22,340.87a4.15,4.15,0,0,1-3.15-1.27,4.72,4.72,0,0,1-1.21-3.4v-.3a5.69,5.69,0,0,1,.54-2.52,4.21,4.21,0,0,1,1.51-1.74A3.81,3.81,0,0,1,333,331a3.58,3.58,0,0,1,2.88,1.22,5.33,5.33,0,0,1,1,3.5v.68h-6.45a3.4,3.4,0,0,0,.83,2.27,2.59,2.59,0,0,0,2,.86,2.73,2.73,0,0,0,1.45-.35,3.56,3.56,0,0,0,1.05-.93l1,.77A4,4,0,0,1,333.22,340.87Zm-.2-8.52a2.17,2.17,0,0,0-1.66.71,3.49,3.49,0,0,0-.82,2h4.76V335a3.09,3.09,0,0,0-.67-1.92A2,2,0,0,0,333,332.35Z"/>
          <path d="M343.4,332.64a4.92,4.92,0,0,0-.8-.06,2.15,2.15,0,0,0-2.17,1.36v6.75h-1.62v-9.5h1.58l0,1.09a2.52,2.52,0,0,1,2.26-1.27,1.67,1.67,0,0,1,.72.12Z"/>
          <path d="M357.77,338.45l1.83-7.26h1.63l-2.77,9.5h-1.32l-2.31-7.2-2.25,7.2h-1.32l-2.76-9.5h1.62L352,338.3l2.22-7.11h1.31Z"/>
          <path d="M366.83,340.87a4.15,4.15,0,0,1-3.15-1.27,4.72,4.72,0,0,1-1.21-3.4v-.3a5.69,5.69,0,0,1,.54-2.52,4.21,4.21,0,0,1,1.51-1.74,3.8,3.8,0,0,1,2.1-.63,3.59,3.59,0,0,1,2.89,1.22,5.33,5.33,0,0,1,1,3.5v.68h-6.45a3.4,3.4,0,0,0,.83,2.27,2.59,2.59,0,0,0,2,.86,2.73,2.73,0,0,0,1.45-.35,3.56,3.56,0,0,0,1.05-.93l1,.77A4,4,0,0,1,366.83,340.87Zm-.21-8.52a2.17,2.17,0,0,0-1.65.71,3.49,3.49,0,0,0-.82,2h4.76V335a3.09,3.09,0,0,0-.67-1.92A2,2,0,0,0,366.62,332.35Z"/>
          <path d="M377,332.64a4.92,4.92,0,0,0-.8-.06,2.15,2.15,0,0,0-2.17,1.36v6.75h-1.62v-9.5H374l0,1.09a2.51,2.51,0,0,1,2.26-1.27,1.67,1.67,0,0,1,.72.12Z"/>
          <path d="M382.26,340.87a4.15,4.15,0,0,1-3.15-1.27,4.72,4.72,0,0,1-1.21-3.4v-.3a5.69,5.69,0,0,1,.54-2.52,4.21,4.21,0,0,1,1.51-1.74,3.8,3.8,0,0,1,2.1-.63,3.59,3.59,0,0,1,2.89,1.22,5.33,5.33,0,0,1,1,3.5v.68h-6.44a3.45,3.45,0,0,0,.82,2.27,2.62,2.62,0,0,0,2,.86,2.77,2.77,0,0,0,1.46-.35,3.56,3.56,0,0,0,1.05-.93l1,.77A4,4,0,0,1,382.26,340.87Zm-.21-8.52a2.17,2.17,0,0,0-1.65.71,3.49,3.49,0,0,0-.82,2h4.76V335a3.09,3.09,0,0,0-.67-1.92A2,2,0,0,0,382.05,332.35Z"/>
          <path d="M396.9,332.64a5,5,0,0,0-.8-.06,2.15,2.15,0,0,0-2.17,1.36v6.75H392.3v-9.5h1.58l0,1.09a2.53,2.53,0,0,1,2.27-1.27,1.73,1.73,0,0,1,.72.12Z"/>
          <path d="M404.26,340.69a3.25,3.25,0,0,1-.22-1,3.62,3.62,0,0,1-2.71,1.18,3.36,3.36,0,0,1-2.31-.79,2.6,2.6,0,0,1-.9-2,2.7,2.7,0,0,1,1.13-2.31,5.3,5.3,0,0,1,3.18-.82H404v-.75a1.83,1.83,0,0,0-.51-1.36,2.07,2.07,0,0,0-1.5-.5,2.39,2.39,0,0,0-1.46.44,1.28,1.28,0,0,0-.59,1.06h-1.64a2.22,2.22,0,0,1,.51-1.37,3.31,3.31,0,0,1,1.37-1.05,4.58,4.58,0,0,1,1.9-.39,3.75,3.75,0,0,1,2.58.82,3,3,0,0,1,1,2.26v4.38a5.36,5.36,0,0,0,.34,2.08v.14Zm-2.69-1.23a2.91,2.91,0,0,0,1.45-.4,2.45,2.45,0,0,0,1-1v-1.95h-1.28c-2,0-3,.58-3,1.75a1.46,1.46,0,0,0,.51,1.19A1.94,1.94,0,0,0,401.57,339.46Z"/>
          <path d="M409.72,331.19l0,1.19a3.49,3.49,0,0,1,2.85-1.37c2,0,3,1.13,3,3.4v6.28H414V334.4a2.21,2.21,0,0,0-.47-1.52,1.89,1.89,0,0,0-1.44-.49,2.36,2.36,0,0,0-1.39.42,2.8,2.8,0,0,0-.93,1.11v6.77h-1.63v-9.5Z"/>
          <path d="M417.72,335.86a5.58,5.58,0,0,1,1-3.52,3.26,3.26,0,0,1,2.71-1.33,3.3,3.3,0,0,1,2.65,1.14v-5h1.62v13.5h-1.49l-.08-1a3.32,3.32,0,0,1-2.71,1.19,3.26,3.26,0,0,1-2.7-1.35,5.68,5.68,0,0,1-1-3.54Zm1.63.19a4.27,4.27,0,0,0,.66,2.53,2.16,2.16,0,0,0,1.85.91,2.37,2.37,0,0,0,2.26-1.39v-4.37a2.41,2.41,0,0,0-2.24-1.34,2.19,2.19,0,0,0-1.87.92A4.71,4.71,0,0,0,419.35,336.05Z"/>
          <path d="M427.84,335.85a5.54,5.54,0,0,1,.55-2.51,4,4,0,0,1,1.53-1.72,4.08,4.08,0,0,1,2.23-.61,4,4,0,0,1,3.14,1.34,5.18,5.18,0,0,1,1.2,3.58v.12a5.61,5.61,0,0,1-.53,2.49,4,4,0,0,1-1.52,1.72,4.22,4.22,0,0,1-2.27.61,4,4,0,0,1-3.13-1.34,5.17,5.17,0,0,1-1.2-3.56Zm1.63.2a4.07,4.07,0,0,0,.73,2.54,2.38,2.38,0,0,0,2,1,2.33,2.33,0,0,0,2-1,4.49,4.49,0,0,0,.73-2.72,4,4,0,0,0-.75-2.53,2.47,2.47,0,0,0-3.91,0A4.46,4.46,0,0,0,429.47,336.05Z"/>
          <path d="M440.06,331.19l.05,1.05a3.49,3.49,0,0,1,2.82-1.23,2.71,2.71,0,0,1,2.71,1.53,3.54,3.54,0,0,1,3-1.53q3.13,0,3.19,3.31v6.37h-1.63v-6.27a2.16,2.16,0,0,0-.47-1.53,2.07,2.07,0,0,0-1.56-.5,2.16,2.16,0,0,0-1.5.54,2.2,2.2,0,0,0-.7,1.45v6.31h-1.63v-6.23a1.81,1.81,0,0,0-2-2.07,2.17,2.17,0,0,0-2.19,1.36v6.94h-1.63v-9.5Z"/>
          <path d="M454.32,328.66a1,1,0,0,1,.24-.67.91.91,0,0,1,.72-.27.94.94,0,0,1,.72.27,1,1,0,0,1,.24.67.92.92,0,0,1-.24.66.94.94,0,0,1-.72.27.91.91,0,0,1-.72-.27A.92.92,0,0,1,454.32,328.66Zm1.76,12h-1.63v-9.5h1.63Z"/>
          <path d="M460.21,339.37h5.56v1.32h-7.55V339.5l5.25-7H458.3v-1.34h7.21v1.15Z"/>
          <path d="M471.42,340.87a4.15,4.15,0,0,1-3.15-1.27,4.72,4.72,0,0,1-1.21-3.4v-.3a5.69,5.69,0,0,1,.54-2.52,4.21,4.21,0,0,1,1.51-1.74,3.81,3.81,0,0,1,2.11-.63,3.58,3.58,0,0,1,2.88,1.22,5.33,5.33,0,0,1,1,3.5v.68h-6.45a3.4,3.4,0,0,0,.83,2.27,2.59,2.59,0,0,0,2,.86,2.73,2.73,0,0,0,1.45-.35,3.56,3.56,0,0,0,1.05-.93l1,.77A4,4,0,0,1,471.42,340.87Zm-.2-8.52a2.17,2.17,0,0,0-1.66.71,3.49,3.49,0,0,0-.82,2h4.76V335a3.09,3.09,0,0,0-.67-1.92A2,2,0,0,0,471.22,332.35Z"/>
          <path d="M476.61,335.86a5.58,5.58,0,0,1,1-3.52,3.53,3.53,0,0,1,5.36-.19v-5h1.63v13.5h-1.5l-.08-1a3.32,3.32,0,0,1-2.71,1.19,3.27,3.27,0,0,1-2.7-1.35,5.68,5.68,0,0,1-1-3.54Zm1.63.19a4.2,4.2,0,0,0,.67,2.53,2.14,2.14,0,0,0,1.84.91A2.37,2.37,0,0,0,483,338.1v-4.37a2.4,2.4,0,0,0-2.24-1.34,2.16,2.16,0,0,0-1.86.92A4.64,4.64,0,0,0,478.24,336.05Z"/>
          <path d="M493.82,328.88v2.31h1.78v1.25h-1.78v5.91a1.29,1.29,0,0,0,.24.85,1,1,0,0,0,.81.29,3.93,3.93,0,0,0,.77-.1v1.31a5,5,0,0,1-1.25.17,2,2,0,0,1-1.64-.66,2.82,2.82,0,0,1-.55-1.87v-5.9h-1.74v-1.25h1.74v-2.31Z"/>
          <path d="M497.06,335.85a5.68,5.68,0,0,1,.55-2.51,4.08,4.08,0,0,1,1.53-1.72,4.14,4.14,0,0,1,2.24-.61,4,4,0,0,1,3.14,1.34,5.18,5.18,0,0,1,1.2,3.58v.12a5.75,5.75,0,0,1-.53,2.49,4.1,4.1,0,0,1-1.52,1.72,4.22,4.22,0,0,1-2.27.61,4,4,0,0,1-3.14-1.34,5.17,5.17,0,0,1-1.2-3.56Zm1.64.2a4.07,4.07,0,0,0,.73,2.54,2.38,2.38,0,0,0,2,1,2.34,2.34,0,0,0,2-1,4.49,4.49,0,0,0,.73-2.72,4,4,0,0,0-.75-2.53,2.47,2.47,0,0,0-3.91,0A4.46,4.46,0,0,0,498.7,336.05Z"/>
          <path d="M514.42,328.88v2.31h1.78v1.25h-1.78v5.91a1.29,1.29,0,0,0,.24.85,1,1,0,0,0,.81.29,3.84,3.84,0,0,0,.77-.1v1.31a5,5,0,0,1-1.25.17,2,2,0,0,1-1.64-.66,2.82,2.82,0,0,1-.55-1.87v-5.9h-1.73v-1.25h1.73v-2.31Z"/>
          <path d="M519.72,332.34a3.45,3.45,0,0,1,2.82-1.33c2,0,3,1.13,3,3.4v6.28H524V334.4a2.21,2.21,0,0,0-.47-1.52,1.89,1.89,0,0,0-1.44-.49,2.38,2.38,0,0,0-1.39.42,3,3,0,0,0-.93,1.11v6.77H518.1v-13.5h1.62Z"/>
          <path d="M532,340.87a4.15,4.15,0,0,1-3.15-1.27,4.72,4.72,0,0,1-1.21-3.4v-.3a5.69,5.69,0,0,1,.54-2.52,4.21,4.21,0,0,1,1.51-1.74,3.8,3.8,0,0,1,2.1-.63,3.59,3.59,0,0,1,2.89,1.22,5.33,5.33,0,0,1,1,3.5v.68h-6.45a3.4,3.4,0,0,0,.83,2.27,2.59,2.59,0,0,0,2,.86,2.75,2.75,0,0,0,1.46-.35,3.56,3.56,0,0,0,1-.93l1,.77A4,4,0,0,1,532,340.87Zm-.21-8.52a2.17,2.17,0,0,0-1.65.71,3.49,3.49,0,0,0-.82,2H534V335a3.09,3.09,0,0,0-.67-1.92A2,2,0,0,0,531.75,332.35Z"/>
        </g>
        <g>
          <path d="M328.89,357.46a5.58,5.58,0,0,1,1-3.52,3.54,3.54,0,0,1,5.37-.19v-5h1.62v13.5h-1.49l-.08-1a3.34,3.34,0,0,1-2.72,1.19,3.24,3.24,0,0,1-2.69-1.35,5.62,5.62,0,0,1-1-3.54Zm1.62.19a4.27,4.27,0,0,0,.67,2.53,2.16,2.16,0,0,0,1.85.91,2.37,2.37,0,0,0,2.26-1.39v-4.37A2.41,2.41,0,0,0,333,354a2.19,2.19,0,0,0-1.86.92A4.71,4.71,0,0,0,330.51,357.65Z"/>
          <path d="M339,357.45a5.68,5.68,0,0,1,.55-2.51,4.08,4.08,0,0,1,1.53-1.72,4.14,4.14,0,0,1,2.24-.61,4,4,0,0,1,3.14,1.34,5.18,5.18,0,0,1,1.2,3.58v.12a5.75,5.75,0,0,1-.53,2.49,4.1,4.1,0,0,1-1.52,1.72,4.22,4.22,0,0,1-2.27.61,4,4,0,0,1-3.14-1.34,5.17,5.17,0,0,1-1.2-3.56Zm1.64.2a4.07,4.07,0,0,0,.73,2.54,2.38,2.38,0,0,0,2,.95,2.34,2.34,0,0,0,2-1,4.49,4.49,0,0,0,.73-2.72,4,4,0,0,0-.75-2.53,2.47,2.47,0,0,0-3.91,0A4.39,4.39,0,0,0,340.64,357.65Z"/>
          <path d="M355.57,361.35a3.43,3.43,0,0,1-2.78,1.12,3,3,0,0,1-2.32-.88,3.8,3.8,0,0,1-.8-2.62v-6.18h1.62v6.14c0,1.44.59,2.16,1.76,2.16a2.43,2.43,0,0,0,2.48-1.39v-6.91h1.62v9.5h-1.54Z"/>
          <path d="M367.67,357.65a5.64,5.64,0,0,1-1,3.5,3.2,3.2,0,0,1-2.69,1.32,3.29,3.29,0,0,1-2.78-1.27l-.08,1.09h-1.5v-13.5h1.63v5a3.31,3.31,0,0,1,2.71-1.22,3.24,3.24,0,0,1,2.73,1.31,5.87,5.87,0,0,1,1,3.58Zm-1.62-.19a4.47,4.47,0,0,0-.64-2.57,2.14,2.14,0,0,0-1.85-.9,2.39,2.39,0,0,0-2.31,1.49v4.12a2.46,2.46,0,0,0,2.33,1.49,2.12,2.12,0,0,0,1.82-.9A4.74,4.74,0,0,0,366.05,357.46Z"/>
          <path d="M371.49,362.29h-1.63v-13.5h1.63Z"/>
          <path d="M378,362.47a4.15,4.15,0,0,1-3.15-1.27,4.72,4.72,0,0,1-1.21-3.4v-.3a5.69,5.69,0,0,1,.54-2.52,4.21,4.21,0,0,1,1.51-1.74,3.8,3.8,0,0,1,2.1-.63,3.59,3.59,0,0,1,2.89,1.22,5.33,5.33,0,0,1,1,3.5V358H375.3a3.45,3.45,0,0,0,.82,2.27,2.62,2.62,0,0,0,2,.86,2.77,2.77,0,0,0,1.46-.35,3.56,3.56,0,0,0,1.05-.93l1,.77A4,4,0,0,1,378,362.47Zm-.21-8.52a2.17,2.17,0,0,0-1.65.71,3.49,3.49,0,0,0-.82,2h4.76v-.12a3.09,3.09,0,0,0-.67-1.92A2,2,0,0,0,377.83,354Z"/>
          <path d="M387,357.52h-4.29V356.2H387Z"/>
          <path d="M396.64,357.65a5.64,5.64,0,0,1-1,3.5,3.2,3.2,0,0,1-2.69,1.32,3.29,3.29,0,0,1-2.78-1.27l-.08,1.09h-1.5v-13.5h1.63v5a3.29,3.29,0,0,1,2.71-1.22,3.22,3.22,0,0,1,2.72,1.31,5.81,5.81,0,0,1,1,3.58Zm-1.62-.19a4.47,4.47,0,0,0-.64-2.57,2.14,2.14,0,0,0-1.85-.9,2.39,2.39,0,0,0-2.31,1.49v4.12a2.46,2.46,0,0,0,2.33,1.49,2.12,2.12,0,0,0,1.82-.9A4.74,4.74,0,0,0,395,357.46Z"/>
          <path d="M400.46,362.29h-1.63v-13.5h1.63Z"/>
          <path d="M403.07,350.26a1,1,0,0,1,.24-.67.91.91,0,0,1,.72-.27.94.94,0,0,1,.72.27,1,1,0,0,1,.24.67.92.92,0,0,1-.24.66.94.94,0,0,1-.72.27.91.91,0,0,1-.72-.27A.92.92,0,0,1,403.07,350.26Zm1.76,12H403.2v-9.5h1.63Z"/>
          <path d="M409,352.79,409,354a3.46,3.46,0,0,1,2.85-1.37q3,0,3,3.4v6.28h-1.63V356a2.21,2.21,0,0,0-.47-1.52,1.89,1.89,0,0,0-1.44-.49,2.38,2.38,0,0,0-1.39.42,3,3,0,0,0-.93,1.11v6.77h-1.62v-9.5Z"/>
          <path d="M417,357.46a5.58,5.58,0,0,1,1-3.52,3.53,3.53,0,0,1,5.36-.19v-5H425v13.5h-1.5l-.08-1a3.32,3.32,0,0,1-2.71,1.19,3.27,3.27,0,0,1-2.7-1.35,5.68,5.68,0,0,1-1-3.54Zm1.63.19a4.2,4.2,0,0,0,.67,2.53,2.14,2.14,0,0,0,1.84.91,2.37,2.37,0,0,0,2.26-1.39v-4.37a2.39,2.39,0,0,0-2.24-1.34,2.16,2.16,0,0,0-1.86.92A4.64,4.64,0,0,0,418.59,357.65Z"/>
          <path d="M440,357.65a5.69,5.69,0,0,1-1,3.49,3.18,3.18,0,0,1-2.69,1.33,3.5,3.5,0,0,1-2.73-1.1V366H432V352.79h1.48l.08,1a3.34,3.34,0,0,1,2.76-1.23A3.24,3.24,0,0,1,439,353.9a5.73,5.73,0,0,1,1,3.6Zm-1.63-.19a4.25,4.25,0,0,0-.68-2.54,2.22,2.22,0,0,0-1.88-.93,2.4,2.4,0,0,0-2.22,1.31v4.54a2.39,2.39,0,0,0,2.23,1.3,2.21,2.21,0,0,0,1.86-.92A4.6,4.6,0,0,0,438.37,357.46Z"/>
          <path d="M443.69,353.94a3.44,3.44,0,0,1,2.81-1.33c2,0,3,1.13,3,3.4v6.28h-1.62V356a2.21,2.21,0,0,0-.47-1.52A1.89,1.89,0,0,0,446,354a2.36,2.36,0,0,0-1.39.42,2.8,2.8,0,0,0-.93,1.11v6.77h-1.63v-13.5h1.63Z"/>
          <path d="M457.85,362.29a3.5,3.5,0,0,1-.23-1,3.61,3.61,0,0,1-2.71,1.18,3.35,3.35,0,0,1-2.3-.79,2.59,2.59,0,0,1-.9-2,2.68,2.68,0,0,1,1.13-2.31,5.29,5.29,0,0,1,3.17-.82h1.58v-.75a1.83,1.83,0,0,0-.51-1.36,2.06,2.06,0,0,0-1.5-.5,2.41,2.41,0,0,0-1.46.44,1.3,1.3,0,0,0-.59,1.06H451.9a2.27,2.27,0,0,1,.5-1.37,3.35,3.35,0,0,1,1.38-1.05,4.55,4.55,0,0,1,1.9-.39,3.74,3.74,0,0,1,2.57.82,2.92,2.92,0,0,1,1,2.26v4.38a5.38,5.38,0,0,0,.33,2.08v.14Zm-2.7-1.23a2.91,2.91,0,0,0,1.45-.4,2.33,2.33,0,0,0,1-1v-1.95h-1.27c-2,0-3,.58-3,1.75a1.46,1.46,0,0,0,.51,1.19A2,2,0,0,0,455.15,361.06Z"/>
          <path d="M467.31,359.77a1.19,1.19,0,0,0-.5-1,4.93,4.93,0,0,0-1.73-.63,8.52,8.52,0,0,1-2-.63,2.75,2.75,0,0,1-1.07-.88,2.05,2.05,0,0,1-.35-1.21,2.47,2.47,0,0,1,1-2,3.85,3.85,0,0,1,2.52-.81,4,4,0,0,1,2.63.83,2.66,2.66,0,0,1,1,2.14h-1.63a1.45,1.45,0,0,0-.57-1.15,2.11,2.11,0,0,0-1.43-.48,2.18,2.18,0,0,0-1.38.38,1.21,1.21,0,0,0-.5,1,1,1,0,0,0,.46.89,5.65,5.65,0,0,0,1.68.57,8.82,8.82,0,0,1,2,.65,3,3,0,0,1,1.12.91,2.28,2.28,0,0,1,.36,1.3,2.42,2.42,0,0,1-1,2,4.29,4.29,0,0,1-2.64.77,4.76,4.76,0,0,1-2-.4,3.3,3.3,0,0,1-1.38-1.13,2.76,2.76,0,0,1-.5-1.57H463a1.68,1.68,0,0,0,.65,1.29,2.56,2.56,0,0,0,1.62.48,2.62,2.62,0,0,0,1.48-.37A1.15,1.15,0,0,0,467.31,359.77Z"/>
          <path d="M475,362.47a4.15,4.15,0,0,1-3.15-1.27,4.72,4.72,0,0,1-1.21-3.4v-.3a5.69,5.69,0,0,1,.54-2.52,4.21,4.21,0,0,1,1.51-1.74,3.8,3.8,0,0,1,2.1-.63,3.59,3.59,0,0,1,2.89,1.22,5.33,5.33,0,0,1,1,3.5V358h-6.45a3.4,3.4,0,0,0,.83,2.27,2.59,2.59,0,0,0,2,.86,2.75,2.75,0,0,0,1.46-.35,3.56,3.56,0,0,0,1-.93l1,.77A4,4,0,0,1,475,362.47Zm-.21-8.52a2.17,2.17,0,0,0-1.65.71,3.49,3.49,0,0,0-.82,2h4.76v-.12a3.09,3.09,0,0,0-.67-1.92A2,2,0,0,0,474.79,354Z"/>
        </g>
        <path d="M484.42,355.63a1.42,1.42,0,0,0,.89-.31,1.11,1.11,0,0,0,.42-.77h.89a1.61,1.61,0,0,1-.33.91,2.12,2.12,0,0,1-.8.68,2.23,2.23,0,0,1-1.07.26,2.29,2.29,0,0,1-1.8-.75,3,3,0,0,1-.67-2.07v-.16a3.31,3.31,0,0,1,.3-1.44,2.26,2.26,0,0,1,.85-1,2.45,2.45,0,0,1,1.32-.35,2.21,2.21,0,0,1,1.54.56,1.94,1.94,0,0,1,.66,1.45h-.89a1.33,1.33,0,0,0-.41-.88,1.29,1.29,0,0,0-.9-.35,1.33,1.33,0,0,0-1.13.52,2.48,2.48,0,0,0-.39,1.5v.18a2.44,2.44,0,0,0,.39,1.48A1.36,1.36,0,0,0,484.42,355.63Z"/>
        <g>
          <path d="M159.64,9v4.5h-2.59V.7h4.36a4,4,0,0,1,3,1.18,4.27,4.27,0,0,1,1.13,3.06,4,4,0,0,1-1.12,3A4.21,4.21,0,0,1,161.36,9Zm0-2.15h1.77a1.37,1.37,0,0,0,1.14-.49A2.13,2.13,0,0,0,163,5a2.59,2.59,0,0,0-.41-1.53,1.31,1.31,0,0,0-1.11-.57h-1.8Z"/>
          <path d="M171.6,13.5a3.5,3.5,0,0,1-.21-.74,2.14,2.14,0,0,1-1.81.92,2.7,2.7,0,0,1-2-.8,2.77,2.77,0,0,1-.78-2,2.85,2.85,0,0,1,.95-2.31,4.14,4.14,0,0,1,2.75-.84h.75V6.93A1.43,1.43,0,0,0,171,6a.76.76,0,0,0-.64-.26c-.62,0-.93.36-.93,1.09H167a2.76,2.76,0,0,1,1-2.18,3.69,3.69,0,0,1,2.5-.86,3.39,3.39,0,0,1,2.42.82A3,3,0,0,1,173.75,7v4.48a4.67,4.67,0,0,0,.35,1.92v.15Zm-1.47-1.78a1.39,1.39,0,0,0,.7-.16,1.12,1.12,0,0,0,.43-.4v-2h-.59a1.27,1.27,0,0,0-1,.41,1.52,1.52,0,0,0-.37,1.08C169.3,11.37,169.58,11.72,170.13,11.72Z"/>
          <path d="M180.25,6.39l-.83-.07a1.36,1.36,0,0,0-1.38.9V13.5h-2.5V4h2.35L178,5a1.81,1.81,0,0,1,1.63-1.21,1.63,1.63,0,0,1,.68.12Z"/>
          <path d="M184.55,1.65V4h1.28V5.85h-1.28v4.73a1.38,1.38,0,0,0,.16.77.66.66,0,0,0,.59.22,1.94,1.94,0,0,0,.59-.07l0,1.94a3.83,3.83,0,0,1-1.37.24c-1.6,0-2.42-.93-2.43-2.77V5.85H181V4h1.1V1.65Z"/>
          <path d="M196.75,13.5h-2.5V3.73l-2.44.94V2.59l4.67-1.9h.27Z"/>
          <path d="M200.67,5a1.3,1.3,0,0,1,.4-1,1.41,1.41,0,0,1,1-.39,1.44,1.44,0,0,1,1,.39,1.26,1.26,0,0,1,.42,1,1.25,1.25,0,0,1-.42,1,1.6,1.6,0,0,1-2.07,0A1.28,1.28,0,0,1,200.67,5Zm0,7.19a1.3,1.3,0,0,1,.4-1,1.41,1.41,0,0,1,1-.39,1.44,1.44,0,0,1,1,.39,1.37,1.37,0,0,1,0,2,1.6,1.6,0,0,1-2.07,0A1.28,1.28,0,0,1,200.67,12.23Z"/>
          <path d="M218.67,8.25a6,6,0,0,1-1.22,4,4.21,4.21,0,0,1-3.38,1.43,4.26,4.26,0,0,1-3.39-1.41,5.9,5.9,0,0,1-1.24-4V6.13A6.27,6.27,0,0,1,210.66,2,4.13,4.13,0,0,1,214.05.53,4.18,4.18,0,0,1,217.42,2a6.25,6.25,0,0,1,1.25,4.08Zm-2.6-2.14a5.26,5.26,0,0,0-.49-2.58,1.82,1.82,0,0,0-3.05,0A5,5,0,0,0,212,6V8.25a4.82,4.82,0,0,0,.5,2.48,1.7,1.7,0,0,0,1.55.79,1.66,1.66,0,0,0,1.5-.78,4.56,4.56,0,0,0,.5-2.41Z"/>
          <path d="M227.81,9a6.4,6.4,0,0,1-.77,3.44,2.56,2.56,0,0,1-2.29,1.2,2.24,2.24,0,0,1-1.87-.94v4.42H220.4V4h2.3l.09.87a2.22,2.22,0,0,1,1.94-1.05A2.6,2.6,0,0,1,227,4.92a6.18,6.18,0,0,1,.79,3.39Zm-2.48-.62A4.35,4.35,0,0,0,225,6.47a1.06,1.06,0,0,0-1-.57,1.19,1.19,0,0,0-1.12.64V11a1.19,1.19,0,0,0,1.14.61,1,1,0,0,0,1-.62,5,5,0,0,0,.29-2Z"/>
          <path d="M233.15,13.68a3.92,3.92,0,0,1-3-1.15,4.62,4.62,0,0,1-1.07-3.27V8.51a5.43,5.43,0,0,1,1-3.47,3.41,3.41,0,0,1,2.82-1.23A3.24,3.24,0,0,1,235.59,5a5.46,5.46,0,0,1,.93,3.39V9.57h-5a2.59,2.59,0,0,0,.46,1.55,1.57,1.57,0,0,0,1.28.49,2.79,2.79,0,0,0,2.08-.85l1,1.5a3.26,3.26,0,0,1-1.33,1A4.42,4.42,0,0,1,233.15,13.68Zm-1.57-5.84h2.49V7.61a2.57,2.57,0,0,0-.28-1.29,1,1,0,0,0-.91-.44,1,1,0,0,0-.95.47A3.31,3.31,0,0,0,231.58,7.84Z"/>
          <path d="M240.2,4l.07.94a2.65,2.65,0,0,1,2.2-1.12C244.11,3.81,245,5,245,7.25V13.5h-2.5V7.44a2.24,2.24,0,0,0-.24-1.18.94.94,0,0,0-.85-.36,1.15,1.15,0,0,0-1,.69V13.5h-2.5V4Z"/>
          <path d="M251.25,9.05H247V7h4.29Z"/>
          <path d="M255.93,13.5h-2.5V0h2.5Z"/>
          <path d="M262.37,13.5a3.5,3.5,0,0,1-.21-.74,2.12,2.12,0,0,1-1.81.92,2.66,2.66,0,0,1-2-.8,2.74,2.74,0,0,1-.79-2,2.85,2.85,0,0,1,1-2.31,4.11,4.11,0,0,1,2.74-.84H262V6.93a1.43,1.43,0,0,0-.22-.91.78.78,0,0,0-.64-.26c-.62,0-.93.36-.93,1.09h-2.49a2.76,2.76,0,0,1,1-2.18,3.69,3.69,0,0,1,2.5-.86,3.39,3.39,0,0,1,2.42.82A3,3,0,0,1,264.53,7v4.48a4.67,4.67,0,0,0,.35,1.92v.15Zm-1.46-1.78a1.39,1.39,0,0,0,.7-.16,1.19,1.19,0,0,0,.43-.4v-2h-.6a1.3,1.3,0,0,0-1,.41,1.57,1.57,0,0,0-.36,1.08C260.08,11.37,260.35,11.72,260.91,11.72Z"/>
          <path d="M273.75,9.05a6.56,6.56,0,0,1-.74,3.47,2.56,2.56,0,0,1-2.32,1.16,2.3,2.3,0,0,1-2-1.12l-.08.94h-2.29V0h2.49V4.76a2.19,2.19,0,0,1,1.85-.95A2.57,2.57,0,0,1,273,5a6.47,6.47,0,0,1,.76,3.36Zm-2.49-.62a4.72,4.72,0,0,0-.29-2,1.06,1.06,0,0,0-1-.51,1.19,1.19,0,0,0-1.14.71v4.33a1.17,1.17,0,0,0,1.16.67,1,1,0,0,0,1-.47,3.94,3.94,0,0,0,.3-1.81Z"/>
          <path d="M279.08,13.68a3.92,3.92,0,0,1-3-1.15A4.62,4.62,0,0,1,275,9.26V8.51A5.43,5.43,0,0,1,276,5a3.42,3.42,0,0,1,2.83-1.23A3.23,3.23,0,0,1,281.52,5a5.39,5.39,0,0,1,.93,3.39V9.57H277.5a2.59,2.59,0,0,0,.46,1.55,1.59,1.59,0,0,0,1.28.49,2.77,2.77,0,0,0,2.08-.85l1,1.5a3.26,3.26,0,0,1-1.33,1A4.42,4.42,0,0,1,279.08,13.68Zm-1.56-5.84H280V7.61a2.57,2.57,0,0,0-.28-1.29,1,1,0,0,0-.91-.44,1.06,1.06,0,0,0-.95.47A3.2,3.2,0,0,0,277.52,7.84Z"/>
          <path d="M286.46,13.5H284V0h2.49Z"/>
          <path d="M297.23,6.39l-.83-.07a1.36,1.36,0,0,0-1.38.9V13.5h-2.49V4h2.35L295,5a1.8,1.8,0,0,1,1.62-1.21,1.71,1.71,0,0,1,.69.12Z"/>
          <path d="M303.18,12.63a2.44,2.44,0,0,1-2.07,1,2.31,2.31,0,0,1-2-.91,4.31,4.31,0,0,1-.68-2.62V4h2.49v6.22c0,.93.32,1.39.92,1.39a1.27,1.27,0,0,0,1.23-.74V4h2.51V13.5h-2.34Z"/>
          <path d="M309.64,4l.07.94a2.65,2.65,0,0,1,2.21-1.12c1.63,0,2.47,1.15,2.52,3.44V13.5h-2.5V7.44a2.24,2.24,0,0,0-.24-1.18.94.94,0,0,0-.85-.36,1.15,1.15,0,0,0-1.05.69V13.5h-2.5V4Z"/>
          <path d="M320.7,9.05h-4.3V7h4.3Z"/>
          <path d="M322.76,1.53a1.31,1.31,0,0,1,.37-.95,1.34,1.34,0,0,1,1-.37,1.31,1.31,0,0,1,1,.37,1.27,1.27,0,0,1,.37,1,1.32,1.32,0,0,1-.36,1,1.34,1.34,0,0,1-1,.38,1.31,1.31,0,0,1-1-.38A1.29,1.29,0,0,1,322.76,1.53Zm2.61,12h-2.49V4h2.49Z"/>
          <path d="M329.57,4l.07.94a2.67,2.67,0,0,1,2.21-1.12c1.64,0,2.48,1.15,2.52,3.44V13.5h-2.49V7.44a2.14,2.14,0,0,0-.25-1.18.93.93,0,0,0-.84-.36,1.17,1.17,0,0,0-1.06.69V13.5h-2.49V4Z"/>
        </g>
        <g>
          <path d="M153.92,29.91a13.41,13.41,0,0,1,.53-3.82A10.84,10.84,0,0,1,156,22.77a6.72,6.72,0,0,1,2.18-2.11l.34,1.07a7,7,0,0,0-2.11,3,12.89,12.89,0,0,0-.9,4.52V30a13.18,13.18,0,0,0,1.24,5.89,7,7,0,0,0,1.78,2.34l-.34,1A6.92,6.92,0,0,1,156,37.05,12.22,12.22,0,0,1,153.92,29.91Z"/>
          <path d="M165.31,35.1h-1.64V24.26l-3.28,1.21V24l4.66-1.75h.26Z"/>
          <path d="M177.83,25.64a3,3,0,0,1-.5,1.71A3.48,3.48,0,0,1,176,28.52a3.61,3.61,0,0,1,1.59,1.25,3.17,3.17,0,0,1,.58,1.88A3.32,3.32,0,0,1,177,34.29a4.91,4.91,0,0,1-5.91,0A3.36,3.36,0,0,1,170,31.65a3.26,3.26,0,0,1,.57-1.88,3.59,3.59,0,0,1,1.57-1.26,3.35,3.35,0,0,1-1.35-1.17,3.08,3.08,0,0,1-.49-1.7,3.29,3.29,0,0,1,1-2.56,4.4,4.4,0,0,1,5.46,0A3.29,3.29,0,0,1,177.83,25.64Zm-1.33,6a2.34,2.34,0,0,0-.68-1.75,2.43,2.43,0,0,0-4.2,1.75,2.25,2.25,0,0,0,.64,1.71,2.48,2.48,0,0,0,1.8.63,2.46,2.46,0,0,0,1.79-.63A2.25,2.25,0,0,0,176.5,31.61Zm-2.44-8.15a2.09,2.09,0,0,0-1.55.6,2.47,2.47,0,0,0,0,3.19,2.33,2.33,0,0,0,3.12,0,2.39,2.39,0,0,0,0-3.17A2.07,2.07,0,0,0,174.06,23.46Z"/>
          <path d="M183.73,30.33h-4.29V29h4.29Z"/>
          <path d="M193.73,32.86l1.83-7.27h1.63l-2.77,9.51H193.1l-2.31-7.21-2.25,7.21h-1.32l-2.76-9.51h1.62L188,32.71l2.21-7.12h1.31Z"/>
          <path d="M202.78,35.28A4.18,4.18,0,0,1,199.64,34a4.72,4.72,0,0,1-1.22-3.4v-.3a5.87,5.87,0,0,1,.54-2.53A4.3,4.3,0,0,1,200.48,26a3.77,3.77,0,0,1,2.1-.63,3.53,3.53,0,0,1,2.88,1.23,5.25,5.25,0,0,1,1,3.49v.68h-6.44a3.36,3.36,0,0,0,.82,2.27,2.58,2.58,0,0,0,2,.87,2.87,2.87,0,0,0,1.46-.35,3.86,3.86,0,0,0,1-.93l1,.77A4,4,0,0,1,202.78,35.28Zm-.2-8.53a2.18,2.18,0,0,0-1.65.72,3.44,3.44,0,0,0-.83,2h4.77v-.13a3.13,3.13,0,0,0-.67-1.92A2.06,2.06,0,0,0,202.58,26.75Z"/>
          <path d="M212.32,35.28A4.19,4.19,0,0,1,209.17,34a4.76,4.76,0,0,1-1.21-3.4v-.3a5.73,5.73,0,0,1,.54-2.53A4.28,4.28,0,0,1,210,26a3.81,3.81,0,0,1,2.11-.63A3.55,3.55,0,0,1,215,26.64a5.25,5.25,0,0,1,1,3.49v.68h-6.44a3.31,3.31,0,0,0,.82,2.27,2.57,2.57,0,0,0,2,.87,2.89,2.89,0,0,0,1.46-.35,3.83,3.83,0,0,0,1-.93l1,.77A4,4,0,0,1,212.32,35.28Zm-.2-8.53a2.15,2.15,0,0,0-1.65.72,3.44,3.44,0,0,0-.83,2h4.76v-.13a3.13,3.13,0,0,0-.66-1.92A2.06,2.06,0,0,0,212.12,26.75Z"/>
          <path d="M220.56,30.7l-1,1.06V35.1h-1.62V21.6h1.62v8.17l.88-1.05,3-3.13h2l-3.7,4,4.14,5.54h-1.91Z"/>
          <path d="M236.09,27.05a5.1,5.1,0,0,0-.8-.06,2.13,2.13,0,0,0-2.17,1.36V35.1h-1.63V25.59h1.58l0,1.1a2.53,2.53,0,0,1,2.27-1.28,1.71,1.71,0,0,1,.72.13Z"/>
          <path d="M243.45,34.16a3.46,3.46,0,0,1-2.78,1.12,3,3,0,0,1-2.32-.89,3.84,3.84,0,0,1-.81-2.61V25.59h1.63v6.14c0,1.45.59,2.17,1.76,2.17a2.45,2.45,0,0,0,2.48-1.39V25.59H245V35.1h-1.54Z"/>
          <path d="M249,25.59l.05,1.2a3.47,3.47,0,0,1,2.85-1.38q3,0,3,3.41V35.1h-1.62V28.81a2.22,2.22,0,0,0-.47-1.52,1.89,1.89,0,0,0-1.44-.5,2.36,2.36,0,0,0-1.39.43,2.84,2.84,0,0,0-.93,1.1V35.1H247.5V25.59Z"/>
          <path d="M260.82,30.33h-4.29V29h4.29Z"/>
          <path d="M262.41,23.07a1,1,0,0,1,.24-.67.91.91,0,0,1,.72-.27.94.94,0,0,1,.72.27,1,1,0,0,1,0,1.33,1,1,0,0,1-.72.26,1,1,0,0,1-.72-.26A1,1,0,0,1,262.41,23.07Zm1.76,12h-1.63V25.59h1.63Z"/>
          <path d="M268.31,25.59l.05,1.2a3.47,3.47,0,0,1,2.85-1.38q3,0,3,3.41V35.1h-1.63V28.81a2.13,2.13,0,0,0-.47-1.52,1.88,1.88,0,0,0-1.44-.5,2.33,2.33,0,0,0-1.38.43,3,3,0,0,0-.94,1.1V35.1h-1.62V25.59Z"/>
          <path d="M289.19,30.45a5.72,5.72,0,0,1-1,3.5,3.21,3.21,0,0,1-2.69,1.33,3.5,3.5,0,0,1-2.73-1.1v4.58h-1.62V25.59h1.48l.08,1.06a3.32,3.32,0,0,1,2.76-1.24,3.25,3.25,0,0,1,2.71,1.3,5.72,5.72,0,0,1,1,3.59Zm-1.63-.18a4.23,4.23,0,0,0-.68-2.54,2.2,2.2,0,0,0-1.88-.94,2.4,2.4,0,0,0-2.22,1.31v4.55A2.39,2.39,0,0,0,285,34a2.2,2.2,0,0,0,1.86-.93A4.59,4.59,0,0,0,287.56,30.27Z"/>
          <path d="M292.88,26.74a3.47,3.47,0,0,1,2.81-1.33c2,0,3,1.14,3,3.41V35.1h-1.62V28.81a2.17,2.17,0,0,0-.47-1.52,1.89,1.89,0,0,0-1.44-.5,2.36,2.36,0,0,0-1.39.43,2.84,2.84,0,0,0-.93,1.1V35.1h-1.63V21.6h1.63Z"/>
          <path d="M307,35.1a3.59,3.59,0,0,1-.23-1,3.64,3.64,0,0,1-2.71,1.18,3.35,3.35,0,0,1-2.3-.8,2.57,2.57,0,0,1-.9-2,2.65,2.65,0,0,1,1.13-2.3,5.29,5.29,0,0,1,3.17-.83h1.59v-.74a1.83,1.83,0,0,0-.51-1.36,2.06,2.06,0,0,0-1.51-.51,2.41,2.41,0,0,0-1.46.44,1.32,1.32,0,0,0-.59,1.07h-1.63a2.27,2.27,0,0,1,.5-1.38A3.52,3.52,0,0,1,303,25.8a4.55,4.55,0,0,1,1.9-.39,3.75,3.75,0,0,1,2.57.83,2.91,2.91,0,0,1,1,2.26v4.38a5.22,5.22,0,0,0,.34,2.08v.14Zm-2.7-1.24a2.9,2.9,0,0,0,1.45-.39,2.47,2.47,0,0,0,1-1V30.49h-1.28c-2,0-3,.58-3,1.74a1.49,1.49,0,0,0,.51,1.2A2,2,0,0,0,304.34,33.86Z"/>
          <path d="M316.5,32.58a1.22,1.22,0,0,0-.5-1,4.76,4.76,0,0,0-1.73-.62,8.17,8.17,0,0,1-2-.64,2.74,2.74,0,0,1-1.07-.88,2,2,0,0,1-.35-1.21,2.47,2.47,0,0,1,1-2,3.86,3.86,0,0,1,2.53-.81,4,4,0,0,1,2.62.84,2.67,2.67,0,0,1,1,2.14H316.4a1.49,1.49,0,0,0-.57-1.16,2.1,2.1,0,0,0-1.42-.48,2.19,2.19,0,0,0-1.39.39,1.2,1.2,0,0,0-.5,1A1,1,0,0,0,313,29a5.93,5.93,0,0,0,1.69.57,8.89,8.89,0,0,1,2,.65,2.89,2.89,0,0,1,1.12.91,2.23,2.23,0,0,1,.36,1.29,2.45,2.45,0,0,1-1,2,4.29,4.29,0,0,1-2.64.77,4.76,4.76,0,0,1-2-.41,3.23,3.23,0,0,1-1.38-1.13,2.71,2.71,0,0,1-.5-1.57h1.63a1.7,1.7,0,0,0,.65,1.3,2.56,2.56,0,0,0,1.62.48,2.7,2.7,0,0,0,1.48-.37A1.17,1.17,0,0,0,316.5,32.58Z"/>
          <path d="M324.19,35.28A4.19,4.19,0,0,1,321,34a4.72,4.72,0,0,1-1.21-3.4v-.3a5.73,5.73,0,0,1,.54-2.53A4.21,4.21,0,0,1,321.88,26a3.81,3.81,0,0,1,2.11-.63,3.56,3.56,0,0,1,2.88,1.23,5.3,5.3,0,0,1,1,3.49v.68h-6.45a3.37,3.37,0,0,0,.83,2.27,2.57,2.57,0,0,0,2,.87,2.83,2.83,0,0,0,1.45-.35,3.86,3.86,0,0,0,1-.93l1,.77A4,4,0,0,1,324.19,35.28Zm-.2-8.53a2.18,2.18,0,0,0-1.66.72,3.44,3.44,0,0,0-.82,2h4.76v-.13a3.13,3.13,0,0,0-.67-1.92A2,2,0,0,0,324,26.75Z"/>
          <path d="M333.53,30a13.71,13.71,0,0,1-.51,3.76,11.16,11.16,0,0,1-1.58,3.32,6.82,6.82,0,0,1-2.22,2.16l-.34-1A7.13,7.13,0,0,0,331.06,35a14.38,14.38,0,0,0,.84-4.85v-.28a14.29,14.29,0,0,0-.39-3.43,11.72,11.72,0,0,0-1.08-2.85,6.47,6.47,0,0,0-1.55-2l.34-1a6.82,6.82,0,0,1,2.21,2.14A11.29,11.29,0,0,1,333,26.12,13.82,13.82,0,0,1,333.53,30Z"/>
        </g>
        <g>
          <path d="M470.79,9v4.5H468.2V.7h4.36a4,4,0,0,1,3,1.18,4.27,4.27,0,0,1,1.13,3.06,4,4,0,0,1-1.12,3A4.21,4.21,0,0,1,472.51,9Zm0-2.15h1.77a1.39,1.39,0,0,0,1.14-.49,2.13,2.13,0,0,0,.41-1.4,2.52,2.52,0,0,0-.42-1.53,1.28,1.28,0,0,0-1.1-.57h-1.8Z"/>
          <path d="M482.75,13.5a2.9,2.9,0,0,1-.22-.74,2.11,2.11,0,0,1-1.81.92,2.69,2.69,0,0,1-2-.8,2.77,2.77,0,0,1-.78-2,2.85,2.85,0,0,1,1-2.31,4.12,4.12,0,0,1,2.75-.84h.75V6.93a1.43,1.43,0,0,0-.22-.91.78.78,0,0,0-.64-.26c-.62,0-.93.36-.93,1.09h-2.49a2.76,2.76,0,0,1,1-2.18,3.69,3.69,0,0,1,2.5-.86,3.39,3.39,0,0,1,2.42.82A3,3,0,0,1,484.9,7v4.48a4.67,4.67,0,0,0,.35,1.92v.15Zm-1.47-1.78a1.39,1.39,0,0,0,.7-.16,1.19,1.19,0,0,0,.43-.4v-2h-.6a1.26,1.26,0,0,0-1,.41,1.52,1.52,0,0,0-.37,1.08C480.45,11.37,480.73,11.72,481.28,11.72Z"/>
          <path d="M491.39,6.39l-.82-.07a1.36,1.36,0,0,0-1.38.9V13.5h-2.5V4H489l.07,1a1.8,1.8,0,0,1,1.62-1.21,1.68,1.68,0,0,1,.69.12Z"/>
          <path d="M495.7,1.65V4H497V5.85H495.7v4.73a1.29,1.29,0,0,0,.16.77.66.66,0,0,0,.59.22,1.94,1.94,0,0,0,.59-.07l0,1.94a3.83,3.83,0,0,1-1.37.24c-1.61,0-2.42-.93-2.43-2.77V5.85h-1.1V4h1.1V1.65Z"/>
          <path d="M510,13.5h-7.54V11.74l3.46-4.4a9.77,9.77,0,0,0,1-1.61,3.17,3.17,0,0,0,.31-1.32,2.5,2.5,0,0,0-.29-1.33.93.93,0,0,0-.85-.49,1.09,1.09,0,0,0-1,.57,2.91,2.91,0,0,0-.36,1.58h-2.49a4.82,4.82,0,0,1,.48-2.16,3.67,3.67,0,0,1,1.38-1.51,3.75,3.75,0,0,1,2-.54,3.58,3.58,0,0,1,2.65.94,3.65,3.65,0,0,1,.95,2.69,5.23,5.23,0,0,1-.52,2.19,13.57,13.57,0,0,1-1.9,2.74l-1.64,2.34H510Z"/>
          <path d="M511.81,5a1.34,1.34,0,0,1,.4-1,1.58,1.58,0,0,1,2.08,0,1.26,1.26,0,0,1,.42,1,1.25,1.25,0,0,1-.42,1,1.6,1.6,0,0,1-2.07,0A1.29,1.29,0,0,1,511.81,5Zm0,7.19a1.34,1.34,0,0,1,.4-1,1.58,1.58,0,0,1,2.08,0,1.37,1.37,0,0,1,0,2,1.6,1.6,0,0,1-2.07,0A1.29,1.29,0,0,1,511.81,12.23Z"/>
          <path d="M529.12,8.75l1.21-8h2.56l-2.28,12.8H528L526.53,6l-1.48,7.54h-2.6L520.16.7h2.58l1.2,8,1.51-8h2.17Z"/>
          <path d="M534.16,1.53a1.31,1.31,0,0,1,.37-.95,1.34,1.34,0,0,1,1-.37,1.3,1.3,0,0,1,1,.37,1.27,1.27,0,0,1,.37,1,1.32,1.32,0,0,1-.36,1,1.34,1.34,0,0,1-1,.38,1.31,1.31,0,0,1-1-.38A1.33,1.33,0,0,1,534.16,1.53Zm2.61,12h-2.49V4h2.49Z"/>
          <path d="M541.59,1.65V4h1.28V5.85h-1.28v4.73a1.29,1.29,0,0,0,.16.77.65.65,0,0,0,.59.22,2,2,0,0,0,.59-.07l0,1.94a3.83,3.83,0,0,1-1.37.24c-1.61,0-2.42-.93-2.44-2.77V5.85H538V4h1.1V1.65Z"/>
          <path d="M546.65,4.83a2.45,2.45,0,0,1,2-1,2.31,2.31,0,0,1,2,.92,4.56,4.56,0,0,1,.68,2.72V13.5h-2.49v-6a2.19,2.19,0,0,0-.26-1.21,1,1,0,0,0-.84-.37,1.2,1.2,0,0,0-1.06.62v7h-2.48V0h2.48Z"/>
          <path d="M552.75,8.46A6.25,6.25,0,0,1,553.54,5a2.63,2.63,0,0,1,2.31-1.16,2.21,2.21,0,0,1,1.82.95V0h2.51V13.5h-2.26l-.11-1a2.31,2.31,0,0,1-2,1.15,2.6,2.6,0,0,1-2.28-1.15,5.93,5.93,0,0,1-.81-3.35Zm2.5.62a4.49,4.49,0,0,0,.3,2,1,1,0,0,0,1,.56,1.2,1.2,0,0,0,1.11-.66V6.6a1.17,1.17,0,0,0-1.1-.7,1.06,1.06,0,0,0-1,.55,4.2,4.2,0,0,0-.32,2Z"/>
          <path d="M566.7,6.39l-.82-.07a1.36,1.36,0,0,0-1.38.9V13.5H562V4h2.35l.07,1A1.8,1.8,0,0,1,566,3.81a1.71,1.71,0,0,1,.69.12Z"/>
          <path d="M572.49,13.5a3.5,3.5,0,0,1-.21-.74,2.12,2.12,0,0,1-1.81.92,2.66,2.66,0,0,1-2-.8,2.74,2.74,0,0,1-.79-2,2.85,2.85,0,0,1,1-2.31,4.11,4.11,0,0,1,2.74-.84h.76V6.93a1.43,1.43,0,0,0-.22-.91.78.78,0,0,0-.64-.26c-.62,0-.93.36-.93,1.09h-2.49a2.76,2.76,0,0,1,1-2.18,3.69,3.69,0,0,1,2.5-.86,3.39,3.39,0,0,1,2.42.82A3,3,0,0,1,574.65,7v4.48a4.67,4.67,0,0,0,.35,1.92v.15ZM571,11.72a1.39,1.39,0,0,0,.7-.16,1.19,1.19,0,0,0,.43-.4v-2h-.6a1.3,1.3,0,0,0-1,.41,1.57,1.57,0,0,0-.36,1.08C570.2,11.37,570.47,11.72,571,11.72Z"/>
          <path d="M583.37,9.33,584.23,4h2.38l-2,9.51h-2.07L581.23,8l-1.35,5.5h-2.07l-2-9.51h2.39l.85,5.34L580.34,4h1.77Z"/>
          <path d="M592.36,13.5a3.5,3.5,0,0,1-.21-.74,2.14,2.14,0,0,1-1.82.92,2.69,2.69,0,0,1-2-.8,2.77,2.77,0,0,1-.78-2,2.85,2.85,0,0,1,.95-2.31,4.14,4.14,0,0,1,2.75-.84H592V6.93A1.43,1.43,0,0,0,591.8,6a.76.76,0,0,0-.64-.26c-.62,0-.93.36-.93,1.09h-2.49a2.76,2.76,0,0,1,1-2.18,3.69,3.69,0,0,1,2.5-.86,3.39,3.39,0,0,1,2.42.82A3,3,0,0,1,594.51,7v4.48a4.67,4.67,0,0,0,.35,1.92v.15Zm-1.47-1.78a1.39,1.39,0,0,0,.7-.16,1.12,1.12,0,0,0,.43-.4v-2h-.6a1.26,1.26,0,0,0-1,.41,1.52,1.52,0,0,0-.37,1.08C590.06,11.37,590.34,11.72,590.89,11.72Z"/>
          <path d="M598.92,13.5h-2.49V0h2.49Z"/>
        </g>
        <g>
          <path d="M415.58,29.91a13.41,13.41,0,0,1,.54-3.82,11.05,11.05,0,0,1,1.58-3.32,6.64,6.64,0,0,1,2.19-2.11l.33,1.07a7.08,7.08,0,0,0-2.1,3,12.89,12.89,0,0,0-.9,4.52V30a13,13,0,0,0,1.24,5.89,7.07,7.07,0,0,0,1.77,2.34l-.33,1a6.92,6.92,0,0,1-2.23-2.18A12.15,12.15,0,0,1,415.58,29.91Z"/>
          <path d="M430,35.1h-8.38V33.93L426.06,29a10.11,10.11,0,0,0,1.36-1.82,3,3,0,0,0,.37-1.44,2.29,2.29,0,0,0-.61-1.65,2.13,2.13,0,0,0-1.61-.64,2.52,2.52,0,0,0-1.89.69,2.63,2.63,0,0,0-.67,1.92h-1.63a3.76,3.76,0,0,1,1.14-2.85,4.22,4.22,0,0,1,3.05-1.09,4.06,4.06,0,0,1,2.82.93,3.22,3.22,0,0,1,1,2.5c0,1.25-.81,2.75-2.41,4.5l-3.43,3.71H430Z"/>
          <path d="M438.12,22.29v1.38h-.3a4.28,4.28,0,0,0-3,1.13,4.66,4.66,0,0,0-1.3,3.07,3.43,3.43,0,0,1,2.75-1.16,3.32,3.32,0,0,1,2.67,1.17,4.54,4.54,0,0,1,1,3.05,4.52,4.52,0,0,1-1.08,3.16A3.71,3.71,0,0,1,436,35.28a3.64,3.64,0,0,1-3-1.41,5.59,5.59,0,0,1-1.15-3.64v-.62a8.43,8.43,0,0,1,1.51-5.4,5.54,5.54,0,0,1,4.49-1.92ZM436,28.06a2.71,2.71,0,0,0-2.51,1.76v.6a4.2,4.2,0,0,0,.71,2.54,2.14,2.14,0,0,0,1.78,1,2.06,2.06,0,0,0,1.72-.81,3.34,3.34,0,0,0,.63-2.12,3.35,3.35,0,0,0-.64-2.13A2,2,0,0,0,436,28.06Z"/>
          <path d="M445.4,30.33h-4.29V29h4.29Z"/>
          <path d="M455.4,32.86l1.83-7.27h1.62l-2.77,9.51h-1.32l-2.31-7.21L450.2,35.1h-1.32l-2.76-9.51h1.62l1.87,7.12,2.22-7.12h1.31Z"/>
          <path d="M464.45,35.28A4.19,4.19,0,0,1,461.3,34a4.76,4.76,0,0,1-1.21-3.4v-.3a5.73,5.73,0,0,1,.54-2.53A4.28,4.28,0,0,1,462.14,26a3.81,3.81,0,0,1,2.11-.63,3.55,3.55,0,0,1,2.88,1.23,5.25,5.25,0,0,1,1,3.49v.68h-6.44a3.31,3.31,0,0,0,.82,2.27,2.57,2.57,0,0,0,2,.87A2.89,2.89,0,0,0,466,33.6a3.83,3.83,0,0,0,1-.93l1,.77A4,4,0,0,1,464.45,35.28Zm-.2-8.53a2.15,2.15,0,0,0-1.65.72,3.44,3.44,0,0,0-.83,2h4.76v-.13a3.13,3.13,0,0,0-.66-1.92A2.06,2.06,0,0,0,464.25,26.75Z"/>
          <path d="M474,35.28A4.19,4.19,0,0,1,470.84,34a4.72,4.72,0,0,1-1.21-3.4v-.3a5.73,5.73,0,0,1,.54-2.53A4.21,4.21,0,0,1,471.68,26a3.8,3.8,0,0,1,2.1-.63,3.57,3.57,0,0,1,2.89,1.23,5.3,5.3,0,0,1,1,3.49v.68h-6.45a3.37,3.37,0,0,0,.83,2.27,2.56,2.56,0,0,0,2,.87,2.87,2.87,0,0,0,1.46-.35,3.86,3.86,0,0,0,1.05-.93l1,.77A4,4,0,0,1,474,35.28Zm-.21-8.53a2.18,2.18,0,0,0-1.65.72,3.44,3.44,0,0,0-.82,2h4.76v-.13a3.13,3.13,0,0,0-.67-1.92A2.06,2.06,0,0,0,473.78,26.75Z"/>
          <path d="M482.23,30.7l-1,1.06V35.1h-1.63V21.6h1.63v8.17l.87-1.05,3-3.13h2l-3.7,4,4.13,5.54h-1.91Z"/>
          <path d="M492.76,30.27a5.56,5.56,0,0,1,1-3.52,3.27,3.27,0,0,1,2.71-1.34,3.31,3.31,0,0,1,2.65,1.15v-5h1.62V35.1h-1.49l-.08-1a3.5,3.5,0,0,1-5.41-.16,5.65,5.65,0,0,1-1-3.53Zm1.63.18a4.25,4.25,0,0,0,.66,2.53,2.17,2.17,0,0,0,1.85.92,2.39,2.39,0,0,0,2.26-1.39V28.14a2.4,2.4,0,0,0-2.24-1.35,2.18,2.18,0,0,0-1.87.93A4.66,4.66,0,0,0,494.39,30.45Z"/>
          <path d="M502.88,30.26a5.62,5.62,0,0,1,.55-2.52A4.07,4.07,0,0,1,505,26a4.17,4.17,0,0,1,2.23-.61,4,4,0,0,1,3.14,1.35,5.18,5.18,0,0,1,1.2,3.58v.11a5.55,5.55,0,0,1-.53,2.49,4,4,0,0,1-1.52,1.72,4.22,4.22,0,0,1-2.27.62,4,4,0,0,1-3.13-1.35,5.15,5.15,0,0,1-1.2-3.56Zm1.63.19a4.05,4.05,0,0,0,.73,2.54,2.49,2.49,0,0,0,3.94,0,4.51,4.51,0,0,0,.73-2.72,4,4,0,0,0-.75-2.54,2.46,2.46,0,0,0-3.91,0A4.42,4.42,0,0,0,504.51,30.45Z"/>
          <path d="M519.44,34.16a3.46,3.46,0,0,1-2.78,1.12,3,3,0,0,1-2.32-.89,3.79,3.79,0,0,1-.8-2.61V25.59h1.62v6.14c0,1.45.59,2.17,1.76,2.17a2.45,2.45,0,0,0,2.48-1.39V25.59H521V35.1h-1.55Z"/>
          <path d="M531.55,30.45a5.64,5.64,0,0,1-1,3.5,3.2,3.2,0,0,1-2.69,1.33A3.3,3.3,0,0,1,525.07,34L525,35.1H523.5V21.6h1.62v5a3.29,3.29,0,0,1,2.72-1.23,3.24,3.24,0,0,1,2.72,1.31,5.84,5.84,0,0,1,1,3.59Zm-1.63-.18a4.38,4.38,0,0,0-.64-2.57,2.14,2.14,0,0,0-1.85-.91,2.39,2.39,0,0,0-2.31,1.5V32.4a2.46,2.46,0,0,0,2.33,1.5,2.12,2.12,0,0,0,1.82-.91A4.68,4.68,0,0,0,529.92,30.27Z"/>
          <path d="M535.36,35.1h-1.63V21.6h1.63Z"/>
          <path d="M541.91,35.28A4.19,4.19,0,0,1,538.76,34a4.72,4.72,0,0,1-1.21-3.4v-.3a5.73,5.73,0,0,1,.54-2.53A4.21,4.21,0,0,1,539.6,26a3.81,3.81,0,0,1,2.11-.63,3.56,3.56,0,0,1,2.88,1.23,5.3,5.3,0,0,1,1,3.49v.68h-6.45a3.37,3.37,0,0,0,.83,2.27,2.57,2.57,0,0,0,2,.87,2.89,2.89,0,0,0,1.46-.35,4,4,0,0,0,1-.93l1,.77A4,4,0,0,1,541.91,35.28Zm-.2-8.53a2.18,2.18,0,0,0-1.66.72,3.44,3.44,0,0,0-.82,2H544v-.13a3.13,3.13,0,0,0-.67-1.92A2,2,0,0,0,541.71,26.75Z"/>
          <path d="M550.88,30.33h-4.29V29h4.29Z"/>
          <path d="M560.51,30.45a5.64,5.64,0,0,1-1,3.5,3.21,3.21,0,0,1-2.69,1.33A3.3,3.3,0,0,1,554,34L554,35.1h-1.5V21.6h1.63v5a3.29,3.29,0,0,1,2.72-1.23,3.24,3.24,0,0,1,2.72,1.31,5.91,5.91,0,0,1,1,3.59Zm-1.62-.18a4.45,4.45,0,0,0-.64-2.57,2.15,2.15,0,0,0-1.85-.91,2.39,2.39,0,0,0-2.31,1.5V32.4a2.45,2.45,0,0,0,2.33,1.5,2.13,2.13,0,0,0,1.82-.91A4.68,4.68,0,0,0,558.89,30.27Z"/>
          <path d="M564.33,35.1H562.7V21.6h1.63Z"/>
          <path d="M566.94,23.07a1,1,0,0,1,.24-.67.91.91,0,0,1,.72-.27.94.94,0,0,1,.72.27,1,1,0,0,1,0,1.33,1,1,0,0,1-.72.26,1,1,0,0,1-.72-.26A1,1,0,0,1,566.94,23.07Zm1.76,12h-1.63V25.59h1.63Z"/>
          <path d="M572.84,25.59l0,1.2a3.47,3.47,0,0,1,2.85-1.38q3,0,3,3.41V35.1h-1.63V28.81a2.13,2.13,0,0,0-.47-1.52,1.85,1.85,0,0,0-1.43-.5,2.34,2.34,0,0,0-1.39.43,3,3,0,0,0-.94,1.1V35.1H571.3V25.59Z"/>
          <path d="M580.83,30.27a5.56,5.56,0,0,1,1-3.52,3.51,3.51,0,0,1,5.36-.19v-5h1.63V35.1h-1.49l-.08-1a3.31,3.31,0,0,1-2.72,1.2,3.25,3.25,0,0,1-2.69-1.36,5.59,5.59,0,0,1-1-3.53Zm1.63.18a4.18,4.18,0,0,0,.67,2.53,2.15,2.15,0,0,0,1.84.92,2.37,2.37,0,0,0,2.26-1.39V28.14A2.38,2.38,0,0,0,585,26.79a2.16,2.16,0,0,0-1.86.93A4.58,4.58,0,0,0,582.46,30.45Z"/>
          <path d="M603.87,30.45a5.72,5.72,0,0,1-1,3.5,3.2,3.2,0,0,1-2.69,1.33,3.51,3.51,0,0,1-2.73-1.1v4.58h-1.62V25.59h1.48l.08,1.06a3.32,3.32,0,0,1,2.76-1.24,3.25,3.25,0,0,1,2.71,1.3,5.72,5.72,0,0,1,1,3.59Zm-1.62-.18a4.16,4.16,0,0,0-.69-2.54,2.19,2.19,0,0,0-1.88-.94,2.41,2.41,0,0,0-2.22,1.31v4.55A2.4,2.4,0,0,0,599.7,34a2.18,2.18,0,0,0,1.85-.93A4.59,4.59,0,0,0,602.25,30.27Z"/>
          <path d="M607.56,26.74a3.48,3.48,0,0,1,2.82-1.33c2,0,3,1.14,3,3.41V35.1h-1.63V28.81a2.17,2.17,0,0,0-.47-1.52,1.89,1.89,0,0,0-1.44-.5,2.39,2.39,0,0,0-1.39.43,3,3,0,0,0-.93,1.1V35.1h-1.62V21.6h1.62Z"/>
          <path d="M621.72,35.1a3.59,3.59,0,0,1-.23-1,3.64,3.64,0,0,1-2.7,1.18,3.36,3.36,0,0,1-2.31-.8,2.57,2.57,0,0,1-.9-2,2.65,2.65,0,0,1,1.13-2.3,5.29,5.29,0,0,1,3.17-.83h1.59v-.74a1.83,1.83,0,0,0-.51-1.36,2,2,0,0,0-1.51-.51,2.36,2.36,0,0,0-1.45.44,1.29,1.29,0,0,0-.59,1.07h-1.64a2.23,2.23,0,0,1,.51-1.38,3.42,3.42,0,0,1,1.37-1.05,4.55,4.55,0,0,1,1.9-.39,3.77,3.77,0,0,1,2.58.83,2.93,2.93,0,0,1,1,2.26v4.38a5.22,5.22,0,0,0,.34,2.08v.14ZM619,33.86a2.87,2.87,0,0,0,1.45-.39,2.47,2.47,0,0,0,1-1V30.49h-1.28c-2,0-3,.58-3,1.74a1.49,1.49,0,0,0,.51,1.2A2,2,0,0,0,619,33.86Z"/>
          <path d="M631.18,32.58a1.22,1.22,0,0,0-.5-1,4.76,4.76,0,0,0-1.73-.62,8.17,8.17,0,0,1-2-.64,2.74,2.74,0,0,1-1.07-.88,2.1,2.1,0,0,1-.35-1.21,2.47,2.47,0,0,1,1-2,3.86,3.86,0,0,1,2.53-.81,3.94,3.94,0,0,1,2.62.84,2.67,2.67,0,0,1,1,2.14h-1.64a1.49,1.49,0,0,0-.57-1.16,2.1,2.1,0,0,0-1.42-.48,2.21,2.21,0,0,0-1.39.39,1.2,1.2,0,0,0-.5,1,1,1,0,0,0,.46.89,5.93,5.93,0,0,0,1.69.57,8.71,8.71,0,0,1,2,.65,2.82,2.82,0,0,1,1.12.91,2.23,2.23,0,0,1,.36,1.29,2.47,2.47,0,0,1-1,2,4.32,4.32,0,0,1-2.65.77,4.76,4.76,0,0,1-2-.41,3.23,3.23,0,0,1-1.38-1.13,2.7,2.7,0,0,1-.49-1.57h1.62a1.68,1.68,0,0,0,.66,1.3,2.51,2.51,0,0,0,1.61.48,2.7,2.7,0,0,0,1.48-.37A1.17,1.17,0,0,0,631.18,32.58Z"/>
          <path d="M638.87,35.28A4.19,4.19,0,0,1,635.72,34a4.72,4.72,0,0,1-1.21-3.4v-.3a5.73,5.73,0,0,1,.54-2.53A4.21,4.21,0,0,1,636.56,26a3.81,3.81,0,0,1,2.11-.63,3.56,3.56,0,0,1,2.88,1.23,5.25,5.25,0,0,1,1,3.49v.68h-6.44a3.31,3.31,0,0,0,.82,2.27,2.57,2.57,0,0,0,2,.87,2.89,2.89,0,0,0,1.46-.35,4,4,0,0,0,1-.93l1,.77A4,4,0,0,1,638.87,35.28Zm-.2-8.53a2.18,2.18,0,0,0-1.66.72,3.44,3.44,0,0,0-.82,2H641v-.13a3.07,3.07,0,0,0-.67-1.92A2,2,0,0,0,638.67,26.75Z"/>
          <path d="M648.21,30a13.71,13.71,0,0,1-.51,3.76,10.92,10.92,0,0,1-1.58,3.32,6.9,6.9,0,0,1-2.21,2.16l-.35-1A7.13,7.13,0,0,0,645.74,35a13.9,13.9,0,0,0,.84-4.85v-.28a14.29,14.29,0,0,0-.39-3.43,11.72,11.72,0,0,0-1.08-2.85,6.47,6.47,0,0,0-1.55-2l.35-1a6.92,6.92,0,0,1,2.21,2.14,11.26,11.26,0,0,1,1.57,3.32A13.82,13.82,0,0,1,648.21,30Z"/>
        </g>
        <g>
          <path d="M76,318.1V305.3h3.61a5.86,5.86,0,0,1,3,.74,5,5,0,0,1,2,2.1,6.84,6.84,0,0,1,.7,3.13v.81a7,7,0,0,1-.69,3.18,5,5,0,0,1-2,2.09,6.22,6.22,0,0,1-3,.75Zm1.69-11.42v10h1.77a3.87,3.87,0,0,0,3-1.22,5,5,0,0,0,1.08-3.45v-.75a5.08,5.08,0,0,0-1-3.39,3.62,3.62,0,0,0-2.9-1.23Z"/>
          <path d="M93.39,318.1a3.69,3.69,0,0,1-.23-1,3.61,3.61,0,0,1-2.71,1.18,3.35,3.35,0,0,1-2.3-.79,2.59,2.59,0,0,1-.9-2,2.68,2.68,0,0,1,1.13-2.31,5.29,5.29,0,0,1,3.17-.82h1.58v-.75a1.81,1.81,0,0,0-.51-1.35,2,2,0,0,0-1.5-.51,2.41,2.41,0,0,0-1.46.44,1.3,1.3,0,0,0-.59,1.06H87.44a2.27,2.27,0,0,1,.5-1.37,3.52,3.52,0,0,1,1.38-1.05,4.55,4.55,0,0,1,1.9-.39,3.74,3.74,0,0,1,2.57.82,2.93,2.93,0,0,1,1,2.27v4.37a5.44,5.44,0,0,0,.33,2.09v.14Zm-2.7-1.24a2.81,2.81,0,0,0,1.45-.4,2.33,2.33,0,0,0,1-1v-1.95H91.86c-2,0-3,.58-3,1.75a1.49,1.49,0,0,0,.51,1.2A2,2,0,0,0,90.69,316.86Z"/>
          <path d="M100.29,315.71l2.22-7.12h1.74l-3.82,11c-.6,1.59-1.54,2.38-2.82,2.38l-.31,0-.61-.11v-1.32l.44,0a2.2,2.2,0,0,0,1.29-.33,2.4,2.4,0,0,0,.76-1.22l.36-1-3.39-9.4h1.77Z"/>
          <path d="M115.33,318.1H113.7V307.26l-3.28,1.2V307l4.66-1.75h.25Z"/>
          <path d="M124.29,313.25a5.54,5.54,0,0,1,.55-2.51,4,4,0,0,1,1.53-1.72,4.1,4.1,0,0,1,2.23-.61,4,4,0,0,1,3.15,1.35,5.14,5.14,0,0,1,1.2,3.57v.12a5.75,5.75,0,0,1-.53,2.49,4.12,4.12,0,0,1-1.53,1.72,4.17,4.17,0,0,1-2.27.61,4,4,0,0,1-3.13-1.34,5.17,5.17,0,0,1-1.2-3.56Zm1.63.2a4.08,4.08,0,0,0,.74,2.54,2.49,2.49,0,0,0,3.93,0,4.4,4.4,0,0,0,.73-2.72,4.09,4.09,0,0,0-.74-2.53,2.37,2.37,0,0,0-2-1,2.35,2.35,0,0,0-1.94.95A4.46,4.46,0,0,0,125.92,313.45Z"/>
          <path d="M135.79,318.1v-8.26h-1.51v-1.25h1.51v-1a3.23,3.23,0,0,1,.81-2.36,3.09,3.09,0,0,1,2.31-.84,4.26,4.26,0,0,1,1.12.15l-.09,1.31a4.88,4.88,0,0,0-.88-.08,1.63,1.63,0,0,0-1.22.46,1.88,1.88,0,0,0-.43,1.33v1h2v1.25h-2v8.26Z"/>
        </g>
        <g>
          <path d="M71.24,327.88v2.31H73v1.25H71.24v5.91a1.32,1.32,0,0,0,.24.86,1,1,0,0,0,.81.28,3.84,3.84,0,0,0,.77-.1v1.31a5,5,0,0,1-1.25.17,2,2,0,0,1-1.64-.66,2.82,2.82,0,0,1-.55-1.87v-5.9H67.89v-1.25h1.73v-2.31Z"/>
          <path d="M79.51,331.65a4,4,0,0,0-.8-.07A2.15,2.15,0,0,0,76.54,333v6.75H74.92v-9.51H76.5l0,1.09A2.53,2.53,0,0,1,78.79,330a1.67,1.67,0,0,1,.72.12Z"/>
          <path d="M84.79,339.87a4.11,4.11,0,0,1-3.14-1.27,4.72,4.72,0,0,1-1.22-3.4v-.29a5.7,5.7,0,0,1,.54-2.53,4.28,4.28,0,0,1,1.51-1.74,3.81,3.81,0,0,1,2.11-.63,3.56,3.56,0,0,1,2.88,1.22,5.28,5.28,0,0,1,1,3.5v.68H82.06a3.4,3.4,0,0,0,.82,2.27,2.56,2.56,0,0,0,2,.86,2.8,2.8,0,0,0,1.46-.35,3.4,3.4,0,0,0,1-.93l1,.77A4,4,0,0,1,84.79,339.87Zm-.2-8.52a2.14,2.14,0,0,0-1.65.71,3.5,3.5,0,0,0-.83,2h4.77V334a3.09,3.09,0,0,0-.67-1.92A2,2,0,0,0,84.59,331.35Z"/>
          <path d="M96.25,339.7a3.69,3.69,0,0,1-.23-1,3.59,3.59,0,0,1-2.7,1.18,3.36,3.36,0,0,1-2.31-.79,2.59,2.59,0,0,1-.9-2,2.7,2.7,0,0,1,1.13-2.31,5.3,5.3,0,0,1,3.18-.82H96v-.75a1.79,1.79,0,0,0-.51-1.35,2,2,0,0,0-1.5-.51,2.39,2.39,0,0,0-1.46.44,1.28,1.28,0,0,0-.59,1.06H90.3a2.22,2.22,0,0,1,.51-1.37,3.25,3.25,0,0,1,1.37-1.05,4.58,4.58,0,0,1,1.9-.39,3.75,3.75,0,0,1,2.58.82,3,3,0,0,1,1,2.27v4.37a5.42,5.42,0,0,0,.34,2.09v.14Zm-2.7-1.24a2.88,2.88,0,0,0,1.45-.4,2.41,2.41,0,0,0,1-1v-1.95H94.72c-2,0-3,.58-3,1.75a1.49,1.49,0,0,0,.51,1.2A2,2,0,0,0,93.55,338.46Z"/>
          <path d="M102.38,327.88v2.31h1.77v1.25h-1.77v5.91a1.32,1.32,0,0,0,.24.86,1,1,0,0,0,.8.28,3.92,3.92,0,0,0,.78-.1v1.31a5.07,5.07,0,0,1-1.25.17,2,2,0,0,1-1.64-.66,2.82,2.82,0,0,1-.56-1.87v-5.9H99v-1.25h1.73v-2.31Z"/>
          <path d="M107.58,330.19l0,1.05a3.49,3.49,0,0,1,2.82-1.23,2.71,2.71,0,0,1,2.71,1.53,3.59,3.59,0,0,1,1.24-1.11,3.63,3.63,0,0,1,1.8-.42q3.12,0,3.18,3.31v6.38h-1.63v-6.28a2.16,2.16,0,0,0-.46-1.52,2.07,2.07,0,0,0-1.57-.51,2.16,2.16,0,0,0-1.5.54,2.23,2.23,0,0,0-.7,1.46v6.31h-1.63v-6.24a1.81,1.81,0,0,0-2-2.07,2.17,2.17,0,0,0-2.19,1.36v6.95H106v-9.51Z"/>
          <path d="M125.78,339.87a4.15,4.15,0,0,1-3.15-1.27,4.72,4.72,0,0,1-1.21-3.4v-.29a5.7,5.7,0,0,1,.54-2.53,4.21,4.21,0,0,1,1.51-1.74,3.8,3.8,0,0,1,2.1-.63,3.59,3.59,0,0,1,2.89,1.22,5.33,5.33,0,0,1,1,3.5v.68H123a3.45,3.45,0,0,0,.82,2.27,2.58,2.58,0,0,0,2,.86,2.77,2.77,0,0,0,1.46-.35,3.56,3.56,0,0,0,1.05-.93l1,.77A4,4,0,0,1,125.78,339.87Zm-.21-8.52a2.17,2.17,0,0,0-1.65.71,3.57,3.57,0,0,0-.83,2h4.77V334a3.09,3.09,0,0,0-.67-1.92A2,2,0,0,0,125.57,331.35Z"/>
          <path d="M132.9,330.19l.06,1.19A3.46,3.46,0,0,1,135.8,330c2,0,3,1.13,3,3.4v6.29h-1.62v-6.3a2.21,2.21,0,0,0-.47-1.52,1.89,1.89,0,0,0-1.44-.49,2.36,2.36,0,0,0-1.39.42,2.8,2.8,0,0,0-.93,1.11v6.78h-1.62v-9.51Z"/>
          <path d="M143.5,327.88v2.31h1.78v1.25H143.5v5.91a1.32,1.32,0,0,0,.24.86,1,1,0,0,0,.81.28,3.84,3.84,0,0,0,.77-.1v1.31a5,5,0,0,1-1.25.17,2,2,0,0,1-1.64-.66,2.82,2.82,0,0,1-.55-1.87v-5.9h-1.73v-1.25h1.73v-2.31Z"/>
        </g>
        <path d="M109.38,261.51H106.6V250.65l-2.7,1v-2.3l5.18-2.12h.3Z"/>
        <g>
          <path d="M5.46,265.68a1.49,1.49,0,0,0-.38-1.12,4.37,4.37,0,0,0-1.37-.78,6.36,6.36,0,0,1-2.61-1.62A3.18,3.18,0,0,1,.3,260a3.09,3.09,0,0,1,1.08-2.46,4.12,4.12,0,0,1,2.75-.92,4,4,0,0,1,2,.47,3.22,3.22,0,0,1,1.34,1.32,4,4,0,0,1,.47,1.94H5.5A2,2,0,0,0,5.13,259a1.27,1.27,0,0,0-1-.44,1.26,1.26,0,0,0-1,.38,1.4,1.4,0,0,0-.36,1,1.21,1.21,0,0,0,.4.9,4.45,4.45,0,0,0,1.41.84,6,6,0,0,1,2.57,1.57,3.51,3.51,0,0,1,.8,2.36,3.16,3.16,0,0,1-1,2.47,4,4,0,0,1-2.74.89,4.58,4.58,0,0,1-2.13-.49,3.7,3.7,0,0,1-1.51-1.37A4.05,4.05,0,0,1,0,265H2.45a2.27,2.27,0,0,0,.41,1.52,1.67,1.67,0,0,0,1.32.47C5,267,5.46,266.58,5.46,265.68Z"/>
          <path d="M12.67,267.07c.68,0,1-.45,1-1.33h2.2a3.29,3.29,0,0,1-.9,2.37,3.09,3.09,0,0,1-2.29.91,3.28,3.28,0,0,1-2.65-1.08,4.86,4.86,0,0,1-.93-3.18V264a5.05,5.05,0,0,1,.9-3.23,3.23,3.23,0,0,1,2.66-1.11,3,3,0,0,1,2.34.92,3.72,3.72,0,0,1,.87,2.6h-2.2a2.41,2.41,0,0,0-.25-1.16.87.87,0,0,0-.8-.41,1,1,0,0,0-.88.44,3.66,3.66,0,0,0-.28,1.69v.91a7.61,7.61,0,0,0,.1,1.53,1.16,1.16,0,0,0,.36.64A1.07,1.07,0,0,0,12.67,267.07Z"/>
          <path d="M21.67,262.13l-.78-.06a1.28,1.28,0,0,0-1.3.85v5.93H17.23v-9h2.22l.06,1a1.72,1.72,0,0,1,1.54-1.14,1.69,1.69,0,0,1,.65.11Z"/>
          <path d="M26.35,269a3.68,3.68,0,0,1-2.82-1.08,4.33,4.33,0,0,1-1-3.09v-.71a5.1,5.1,0,0,1,.93-3.28,3.21,3.21,0,0,1,2.66-1.16,3.06,3.06,0,0,1,2.55,1.08,5.18,5.18,0,0,1,.87,3.21v1.15H24.86a2.41,2.41,0,0,0,.44,1.46,1.48,1.48,0,0,0,1.2.47,2.64,2.64,0,0,0,2-.81l.92,1.42a3.11,3.11,0,0,1-1.25,1A4.44,4.44,0,0,1,26.35,269Zm-1.48-5.52h2.35v-.21a2.57,2.57,0,0,0-.26-1.22.94.94,0,0,0-.87-.42,1,1,0,0,0-.89.44A3.23,3.23,0,0,0,24.87,263.5Z"/>
          <path d="M34.49,269a3.7,3.7,0,0,1-2.83-1.08,4.37,4.37,0,0,1-1-3.09v-.71a5.1,5.1,0,0,1,.93-3.28,3.23,3.23,0,0,1,2.67-1.16,3,3,0,0,1,2.54,1.08,5.25,5.25,0,0,1,.88,3.21v1.15H33a2.48,2.48,0,0,0,.44,1.46,1.49,1.49,0,0,0,1.21.47,2.62,2.62,0,0,0,2-.81l.92,1.42a3,3,0,0,1-1.25,1A4.4,4.4,0,0,1,34.49,269ZM33,263.5h2.35v-.21a2.45,2.45,0,0,0-.27-1.22.91.91,0,0,0-.86-.42,1,1,0,0,0-.89.44A3,3,0,0,0,33,263.5Z"/>
          <path d="M41.14,259.87l.07.89a2.48,2.48,0,0,1,2.08-1.06c1.55,0,2.34,1.08,2.39,3.25v5.9H43.32v-5.73a2.09,2.09,0,0,0-.23-1.11.88.88,0,0,0-.8-.34,1.1,1.1,0,0,0-1,.66v6.52H38.94v-9Z"/>
          <path d="M47.36,257.54a1.21,1.21,0,0,1,.35-.89,1.41,1.41,0,0,1,1.86,0,1.21,1.21,0,0,1,.35.89,1.25,1.25,0,0,1-.35.9,1.23,1.23,0,0,1-.93.36,1.21,1.21,0,0,1-.93-.36A1.25,1.25,0,0,1,47.36,257.54Zm2.47,11.31H47.47v-9h2.36Z"/>
          <path d="M53.79,259.87l.07.89a2.48,2.48,0,0,1,2.08-1.06c1.55,0,2.34,1.08,2.39,3.25v5.9H56v-5.73a2.09,2.09,0,0,0-.23-1.11.88.88,0,0,0-.8-.34,1.1,1.1,0,0,0-1,.66v6.52H51.59v-9Z"/>
          <path d="M59.73,264.09a5.52,5.52,0,0,1,.8-3.3,2.59,2.59,0,0,1,2.23-1.09,2.14,2.14,0,0,1,1.88,1l.09-.8h2.12v9a3.45,3.45,0,0,1-1,2.63,3.9,3.9,0,0,1-2.77.91,4.47,4.47,0,0,1-1.55-.3,2.82,2.82,0,0,1-1.21-.75l.79-1.63a2.31,2.31,0,0,0,.86.57,2.6,2.6,0,0,0,1,.22,1.44,1.44,0,0,0,1.13-.38,1.75,1.75,0,0,0,.35-1.21v-.77a2.12,2.12,0,0,1-1.75.88,2.56,2.56,0,0,1-2.22-1.12,5.5,5.5,0,0,1-.8-3.15Zm2.35.58a3.94,3.94,0,0,0,.32,1.82,1.1,1.1,0,0,0,1,.57,1.2,1.2,0,0,0,1.07-.53v-4.29a1.17,1.17,0,0,0-1-.57,1.13,1.13,0,0,0-1,.57,3.88,3.88,0,0,0-.33,1.85Z"/>
        </g>
        <g>
          <path d="M5.75,284.34a14.43,14.43,0,0,1,.44-3.57,10.54,10.54,0,0,1,1.3-3.06,5.25,5.25,0,0,1,1.86-1.87l.44,1.3a6.05,6.05,0,0,0-1.49,2.7,15.59,15.59,0,0,0-.57,4.21v.5a16,16,0,0,0,.54,4.38,6.26,6.26,0,0,0,1.52,2.82L9.35,293a5.27,5.27,0,0,1-1.84-1.84,10.17,10.17,0,0,1-1.3-3,14.56,14.56,0,0,1-.46-3.51Z"/>
          <path d="M10.79,284.49a5.86,5.86,0,0,1,.75-3.3,2.46,2.46,0,0,1,2.17-1.09,2.09,2.09,0,0,1,1.73.9v-4.5h2.37v12.75H15.67l-.1-.91a2.18,2.18,0,0,1-1.86,1.08,2.47,2.47,0,0,1-2.16-1.08,5.72,5.72,0,0,1-.76-3.17Zm2.36.58a4.27,4.27,0,0,0,.28,1.86,1,1,0,0,0,1,.53,1.14,1.14,0,0,0,1-.63v-4.1a1.11,1.11,0,0,0-1-.66,1,1,0,0,0-1,.52,4.07,4.07,0,0,0-.3,1.86Z"/>
          <path d="M23.8,289.25a3.28,3.28,0,0,1-.2-.7,2,2,0,0,1-1.71.87,2.52,2.52,0,0,1-1.87-.75,2.61,2.61,0,0,1-.74-1.94,2.72,2.72,0,0,1,.9-2.18,3.94,3.94,0,0,1,2.59-.79h.71V283a1.33,1.33,0,0,0-.2-.85.74.74,0,0,0-.61-.25c-.59,0-.88.34-.88,1H19.44a2.59,2.59,0,0,1,.94-2.06,3.47,3.47,0,0,1,2.36-.81,3.19,3.19,0,0,1,2.28.77,2.88,2.88,0,0,1,.81,2.2v4.22a4.4,4.4,0,0,0,.34,1.82v.14Zm-1.39-1.68a1.41,1.41,0,0,0,.67-.15,1.05,1.05,0,0,0,.4-.38v-1.87h-.56a1.19,1.19,0,0,0-.94.39,1.45,1.45,0,0,0-.35,1Q21.63,287.57,22.41,287.57Z"/>
          <path d="M30.3,285.34l1.19-5.07H34l-3,10.32c-.44,1.53-1.27,2.29-2.49,2.29a3.69,3.69,0,0,1-1-.16v-1.83h.28a1.34,1.34,0,0,0,.82-.21,1.26,1.26,0,0,0,.42-.73l.18-.61-2.59-9.07h2.53Z"/>
          <path d="M41,282.14h1.13a1,1,0,0,0,1-.46,2.05,2.05,0,0,0,.31-1.2,1.85,1.85,0,0,0-.31-1.13,1.06,1.06,0,0,0-1.64,0,1.46,1.46,0,0,0-.31,1H38.73a3.3,3.3,0,0,1,.44-1.69,3,3,0,0,1,1.22-1.18,4,4,0,0,1,4.35.5,3.36,3.36,0,0,1,.95,2.52,3,3,0,0,1-1.56,2.6,2.58,2.58,0,0,1,1.28,1.1,3.74,3.74,0,0,1-.61,4.3,3.74,3.74,0,0,1-2.69,1,3.31,3.31,0,0,1-3.49-3.48H41a1.73,1.73,0,0,0,.34,1.09,1.07,1.07,0,0,0,.87.44,1.14,1.14,0,0,0,1-.45,1.87,1.87,0,0,0,.36-1.2c0-1.19-.47-1.79-1.39-1.79H41Z"/>
          <path d="M54.48,284.25a6.85,6.85,0,0,1-.91,3.84,3,3,0,0,1-2.6,1.33,2.94,2.94,0,0,1-2.57-1.3,6.47,6.47,0,0,1-.94-3.69v-2.29a6.78,6.78,0,0,1,.9-3.82,3.23,3.23,0,0,1,5.2,0,6.63,6.63,0,0,1,.92,3.74Zm-2.36-2.45a6.13,6.13,0,0,0-.28-2.14A.94.94,0,0,0,51,279q-1.12,0-1.17,2.61v3a6.16,6.16,0,0,0,.29,2.17,1,1,0,0,0,.89.72.93.93,0,0,0,.86-.67,6,6,0,0,0,.29-2.05Z"/>
          <path d="M59.88,284.54a13.31,13.31,0,0,1-.49,3.66,10.79,10.79,0,0,1-1.37,3,5.32,5.32,0,0,1-1.86,1.8l-.43-1.28A6.13,6.13,0,0,0,57.22,289a15.12,15.12,0,0,0,.57-4.22v-.44a15.85,15.85,0,0,0-.54-4.32,6.62,6.62,0,0,0-1.52-2.88l.43-1.28a4.73,4.73,0,0,1,1.31,1.08,8.27,8.27,0,0,1,1.21,1.87,12.22,12.22,0,0,1,.87,2.5A14.2,14.2,0,0,1,59.88,284.54Z"/>
        </g>
        <g>
          <path d="M512.73,173.24v4.25h-2.44V165.41h4.12a3.8,3.8,0,0,1,2.86,1.11,4,4,0,0,1,1.06,2.89,3.73,3.73,0,0,1-1.05,2.8,4,4,0,0,1-2.92,1Zm0-2h1.68a1.33,1.33,0,0,0,1.08-.46,2,2,0,0,0,.38-1.33,2.41,2.41,0,0,0-.39-1.44,1.28,1.28,0,0,0-1.05-.54h-1.7Z"/>
          <path d="M520,177.49V165.41h3.74a4.29,4.29,0,0,1,2.87.84,3,3,0,0,1,1,2.47,3,3,0,0,1-.4,1.58,2.32,2.32,0,0,1-1.11,1,2.12,2.12,0,0,1,1.25.94,3.22,3.22,0,0,1,.44,1.73,3.45,3.45,0,0,1-1,2.66,4,4,0,0,1-2.8.89Zm2.44-7h1.27a1.29,1.29,0,0,0,1.44-1.48,1.65,1.65,0,0,0-.34-1.18,1.4,1.4,0,0,0-1.07-.36h-1.3Zm0,1.78v3.23H524a1.24,1.24,0,0,0,1-.41,1.79,1.79,0,0,0,.34-1.15c0-1.09-.4-1.64-1.18-1.67Z"/>
          <path d="M538,172.54a5.64,5.64,0,0,1-1.14,3.77,4,4,0,0,1-3.2,1.35,4,4,0,0,1-3.19-1.33,5.55,5.55,0,0,1-1.18-3.74v-2.06a5.94,5.94,0,0,1,1.15-3.89,4.38,4.38,0,0,1,6.39,0,5.89,5.89,0,0,1,1.17,3.86Zm-2.44-2a4.94,4.94,0,0,0-.47-2.43,1.71,1.71,0,0,0-2.88,0,4.7,4.7,0,0,0-.48,2.34v2.15a4.54,4.54,0,0,0,.47,2.33,1.61,1.61,0,0,0,1.46.75,1.56,1.56,0,0,0,1.42-.73,4.45,4.45,0,0,0,.48-2.28Z"/>
        </g>
        <path d="M543.06,169.38a3.61,3.61,0,0,1-.41,1.91,1.4,1.4,0,0,1-1.27.63,1.27,1.27,0,0,1-1.1-.61l0,.52H539v-7.44h1.37V167a1.22,1.22,0,0,1,1-.53,1.38,1.38,0,0,1,1.27.64,3.51,3.51,0,0,1,.42,1.85Zm-1.37-.35a2.51,2.51,0,0,0-.16-1.11.6.6,0,0,0-.56-.28.68.68,0,0,0-.63.39v2.39a.68.68,0,0,0,.64.37.58.58,0,0,0,.55-.26,2.32,2.32,0,0,0,.16-1Z"/>
        <g>
          <path d="M548.27,172.57a14.48,14.48,0,0,1,.43-3.57A10.49,10.49,0,0,1,550,166a5.24,5.24,0,0,1,1.85-1.87l.44,1.3a5.94,5.94,0,0,0-1.48,2.7,15.13,15.13,0,0,0-.58,4.21v.5a16,16,0,0,0,.55,4.38A6.25,6.25,0,0,0,552.3,180l-.44,1.28a5.35,5.35,0,0,1-1.84-1.84,10.16,10.16,0,0,1-1.29-3,14.09,14.09,0,0,1-.46-3.52Z"/>
          <path d="M562.19,177.49h-2.44l-3.57-7.93v7.93h-2.44V165.4h2.44l3.58,7.94V165.4h2.43Z"/>
          <path d="M574.52,171.31h-6.33v-2h6.33Zm0,3.6h-6.33v-2h6.33Z"/>
          <path d="M587.12,168.61a3.22,3.22,0,0,1-.37,1.57,2.89,2.89,0,0,1-1,1.08,3.08,3.08,0,0,1,1.18,1.17,3.39,3.39,0,0,1,.43,1.75,3.21,3.21,0,0,1-3.46,3.47,3.48,3.48,0,0,1-2.55-.93,3.4,3.4,0,0,1-.94-2.54,3.45,3.45,0,0,1,.43-1.76,3.13,3.13,0,0,1,1.18-1.16,2.89,2.89,0,0,1-1-1.08,3.23,3.23,0,0,1-.38-1.57,3.39,3.39,0,0,1,.89-2.48,3.23,3.23,0,0,1,2.38-.89,3.17,3.17,0,0,1,2.39.9A3.38,3.38,0,0,1,587.12,168.61Zm-3.25,7.09a.92.92,0,0,0,.82-.45A2.35,2.35,0,0,0,585,174a2.31,2.31,0,0,0-.29-1.26,1,1,0,0,0-1.65,0,2.3,2.3,0,0,0-.31,1.26,2.25,2.25,0,0,0,.31,1.26A1,1,0,0,0,583.87,175.7Zm.91-7a2.42,2.42,0,0,0-.22-1.13.76.76,0,0,0-.71-.42.73.73,0,0,0-.68.41,2.37,2.37,0,0,0-.23,1.14,2.5,2.5,0,0,0,.23,1.15.75.75,0,0,0,.7.43.73.73,0,0,0,.69-.43A2.51,2.51,0,0,0,584.78,168.74Z"/>
          <path d="M589.19,171.54l.6-6.14h5.85v2h-3.93L591.5,170a2.51,2.51,0,0,1,1.4-.46,2.73,2.73,0,0,1,2.31,1.07,4.87,4.87,0,0,1,.8,3,4.33,4.33,0,0,1-1,2.93,3.23,3.23,0,0,1-2.57,1.11,3.58,3.58,0,0,1-1.77-.45,3.3,3.3,0,0,1-1.28-1.26,3.66,3.66,0,0,1-.48-1.82h2.33a2.14,2.14,0,0,0,.37,1.17,1,1,0,0,0,.81.41,1,1,0,0,0,.9-.56,3.49,3.49,0,0,0,.31-1.67,2.75,2.75,0,0,0-.37-1.58,1.25,1.25,0,0,0-1.06-.53,1.22,1.22,0,0,0-1,.46l-.15.21Z"/>
          <path d="M601.38,172.77a13.21,13.21,0,0,1-.5,3.66,10.4,10.4,0,0,1-1.37,3,5.26,5.26,0,0,1-1.85,1.81l-.43-1.28a6.19,6.19,0,0,0,1.49-2.77,15.49,15.49,0,0,0,.57-4.22v-.44a15.84,15.84,0,0,0-.55-4.32,6.62,6.62,0,0,0-1.51-2.88l.43-1.28a4.88,4.88,0,0,1,1.31,1.08,8.61,8.61,0,0,1,1.2,1.87,12,12,0,0,1,.87,2.5A13.6,13.6,0,0,1,601.38,172.77Z"/>
        </g>
        <g>
          <path d="M495.34,101.65h-3v10H489.9v-10H487v-2h8.38Z"/>
          <path d="M495.54,106.92a4.92,4.92,0,0,1,1-3.21,3.65,3.65,0,0,1,5.34,0,4.87,4.87,0,0,1,1,3.22v.58a4.87,4.87,0,0,1-1,3.2,3.25,3.25,0,0,1-2.67,1.15,3.31,3.31,0,0,1-2.69-1.15,4.92,4.92,0,0,1-.95-3.22Zm2.35.59q0,2.4,1.29,2.4c.79,0,1.22-.67,1.28-2v-1a3.91,3.91,0,0,0-.34-1.83,1.08,1.08,0,0,0-1-.59,1,1,0,0,0-.93.59,3.79,3.79,0,0,0-.34,1.83Z"/>
          <path d="M504.81,111.7v-7.22h-1.09v-1.76h1.09v-.81a3.23,3.23,0,0,1,.78-2.31,2.82,2.82,0,0,1,2.15-.83,4.56,4.56,0,0,1,1.06.17l0,1.88a1.91,1.91,0,0,0-.57-.08c-.7,0-1,.42-1,1.25v.73h1.4v1.76h-1.4v7.22Z"/>
          <path d="M514.1,111.7a4,4,0,0,1-.2-.7,2,2,0,0,1-1.7.86,2.53,2.53,0,0,1-1.88-.74,2.66,2.66,0,0,1-.74-1.94,2.71,2.71,0,0,1,.9-2.18,4,4,0,0,1,2.59-.79h.72v-.72a1.37,1.37,0,0,0-.21-.86.76.76,0,0,0-.61-.24q-.87,0-.87,1h-2.35a2.6,2.6,0,0,1,.93-2,3.47,3.47,0,0,1,2.36-.81,3.2,3.2,0,0,1,2.29.77,2.87,2.87,0,0,1,.81,2.19v4.23a4.45,4.45,0,0,0,.33,1.82v.14ZM512.72,110a1.24,1.24,0,0,0,.66-.16,1.14,1.14,0,0,0,.41-.37v-1.87h-.57a1.23,1.23,0,0,0-.94.38,1.49,1.49,0,0,0-.34,1Q511.94,110,512.72,110Z"/>
          <path d="M521.08,109.91c.69,0,1-.44,1-1.32h2.21a3.3,3.3,0,0,1-.9,2.37,3.1,3.1,0,0,1-2.3.9,3.29,3.29,0,0,1-2.64-1.07,4.86,4.86,0,0,1-.93-3.18v-.72a5,5,0,0,1,.9-3.23,3.23,3.23,0,0,1,2.66-1.11,3,3,0,0,1,2.34.92,3.72,3.72,0,0,1,.87,2.6h-2.21a2.3,2.3,0,0,0-.25-1.16.85.85,0,0,0-.79-.41,1,1,0,0,0-.88.44,3.76,3.76,0,0,0-.29,1.69v.91a7.41,7.41,0,0,0,.11,1.53,1.14,1.14,0,0,0,.36.64A1,1,0,0,0,521.08,109.91Z"/>
          <path d="M525.66,100.39a1.18,1.18,0,0,1,.35-.89,1.22,1.22,0,0,1,.93-.35,1.25,1.25,0,0,1,.93.35,1.21,1.21,0,0,1,.35.89,1.25,1.25,0,0,1-.35.9,1.39,1.39,0,0,1-1.87,0A1.25,1.25,0,0,1,525.66,100.39Zm2.46,11.31h-2.35v-9h2.35Z"/>
          <path d="M532.67,100.51v2.21h1.21v1.76h-1.21v4.46a1.26,1.26,0,0,0,.15.73.64.64,0,0,0,.56.2,2,2,0,0,0,.55-.06v1.83a3.66,3.66,0,0,1-1.3.22c-1.51,0-2.28-.87-2.3-2.61v-4.77h-1v-1.76h1v-2.21Z"/>
          <path d="M535.16,100.39a1.28,1.28,0,1,1,2.56,0,1.2,1.2,0,0,1-1.28,1.26,1.23,1.23,0,0,1-.93-.36A1.25,1.25,0,0,1,535.16,100.39Zm2.47,11.31h-2.36v-9h2.36Z"/>
          <path d="M541.6,102.72l.06.88a2.5,2.5,0,0,1,2.09-1c1.54,0,2.33,1.08,2.38,3.25v5.9h-2.36V106a2,2,0,0,0-.23-1.11.88.88,0,0,0-.8-.34,1.09,1.09,0,0,0-1,.65v6.53h-2.36v-9Z"/>
          <path d="M547.81,100.39a1.21,1.21,0,0,1,.35-.89,1.24,1.24,0,0,1,.93-.35,1.2,1.2,0,0,1,1.28,1.24,1.2,1.2,0,0,1-1.28,1.26,1.23,1.23,0,0,1-.93-.36A1.25,1.25,0,0,1,547.81,100.39Zm2.47,11.31h-2.36v-9h2.36Z"/>
          <path d="M559.1,107.5a6.22,6.22,0,0,1-.69,3.27,2.42,2.42,0,0,1-2.2,1.09,2.15,2.15,0,0,1-1.87-1l-.08.89H552.1V99h2.35v4.5a2.06,2.06,0,0,1,1.75-.9,2.43,2.43,0,0,1,2.19,1.08,6.06,6.06,0,0,1,.71,3.18Zm-2.35-.59a4.49,4.49,0,0,0-.27-1.91,1,1,0,0,0-1-.48,1.12,1.12,0,0,0-1.08.67v4.09a1.11,1.11,0,0,0,1.09.63,1,1,0,0,0,.94-.44,3.91,3.91,0,0,0,.27-1.71Z"/>
        </g>
        <g>
          <path d="M560.76,106a1.78,1.78,0,0,1-.12-.4,1.19,1.19,0,0,1-1,.5,1.47,1.47,0,0,1-1.09-.43,1.53,1.53,0,0,1-.43-1.13,1.6,1.6,0,0,1,.52-1.28,2.28,2.28,0,0,1,1.52-.45h.41v-.43a.76.76,0,0,0-.12-.49.43.43,0,0,0-.35-.15c-.35,0-.52.2-.52.6h-1.37a1.55,1.55,0,0,1,.55-1.2,2,2,0,0,1,1.38-.47,1.86,1.86,0,0,1,1.33.45,1.69,1.69,0,0,1,.47,1.28v2.46a2.68,2.68,0,0,0,.19,1.06V106Zm-.81-1a.65.65,0,0,0,.38-.1.63.63,0,0,0,.24-.21v-1.09h-.33a.71.71,0,0,0-.55.22.89.89,0,0,0-.2.6C559.49,104.87,559.64,105.07,560,105.07Z"/>
          <path d="M563.34,107.82l-.73-.38.18-.35a2.35,2.35,0,0,0,.32-1.15v-1.09h1.19v1a2.81,2.81,0,0,1-1,2Z"/>
          <path d="M569.45,103.6a3.58,3.58,0,0,1-.4,1.9,1.41,1.41,0,0,1-1.28.64,1.27,1.27,0,0,1-1.1-.61l0,.51h-1.26V98.61h1.37v2.62a1.23,1.23,0,0,1,1-.52,1.43,1.43,0,0,1,1.28.63,3.45,3.45,0,0,1,.41,1.85Zm-1.37-.35a2.51,2.51,0,0,0-.16-1.11.57.57,0,0,0-.55-.28.66.66,0,0,0-.63.39v2.39a.65.65,0,0,0,.64.36.57.57,0,0,0,.54-.25,2.21,2.21,0,0,0,.16-1Z"/>
        </g>
        <g>
          <path d="M574.59,106.79a14.43,14.43,0,0,1,.43-3.57,10.29,10.29,0,0,1,1.31-3.06,5.12,5.12,0,0,1,1.85-1.86l.44,1.29a6,6,0,0,0-1.48,2.71,15.13,15.13,0,0,0-.58,4.21v.5a16,16,0,0,0,.55,4.38,6.17,6.17,0,0,0,1.51,2.81l-.44,1.28a5.23,5.23,0,0,1-1.84-1.83,10.38,10.38,0,0,1-1.3-3,14.42,14.42,0,0,1-.45-3.51Z"/>
          <path d="M588.51,111.71h-2.44l-3.57-7.93v7.93h-2.44V99.62h2.44l3.58,7.93V99.62h2.43Z"/>
          <path d="M600.84,105.53h-6.33v-2h6.33Zm0,3.59h-6.33v-2h6.33Z"/>
          <path d="M613.44,102.83a3.16,3.16,0,0,1-.37,1.56,2.84,2.84,0,0,1-1,1.09,3.08,3.08,0,0,1,1.18,1.17,3.35,3.35,0,0,1,.43,1.74,3.46,3.46,0,0,1-.93,2.55,3.41,3.41,0,0,1-2.53.93,3.48,3.48,0,0,1-2.55-.93,3.87,3.87,0,0,1-.51-4.3,3.06,3.06,0,0,1,1.18-1.16,2.84,2.84,0,0,1-1-1.09,3.16,3.16,0,0,1-.38-1.56,3.38,3.38,0,0,1,.89-2.48,3.2,3.2,0,0,1,2.38-.9,3.14,3.14,0,0,1,2.39.91A3.38,3.38,0,0,1,613.44,102.83Zm-3.25,7.09a.92.92,0,0,0,.82-.45,2.93,2.93,0,0,0,0-2.52,1,1,0,0,0-1.65,0,2.72,2.72,0,0,0,0,2.52A1,1,0,0,0,610.19,109.92Zm.91-7a2.42,2.42,0,0,0-.22-1.13.79.79,0,0,0-1.39,0,2.44,2.44,0,0,0-.23,1.15,2.53,2.53,0,0,0,.23,1.15.75.75,0,0,0,.7.43.73.73,0,0,0,.69-.43A2.53,2.53,0,0,0,611.1,103Z"/>
          <path d="M622,102.83a3.16,3.16,0,0,1-.37,1.56,2.84,2.84,0,0,1-1,1.09,3.08,3.08,0,0,1,1.18,1.17,3.35,3.35,0,0,1,.43,1.74,3.46,3.46,0,0,1-.93,2.55,3.41,3.41,0,0,1-2.53.93,3.48,3.48,0,0,1-2.55-.93,3.82,3.82,0,0,1-.51-4.3,3,3,0,0,1,1.18-1.16,2.77,2.77,0,0,1-1-1.09,3.16,3.16,0,0,1-.38-1.56,3.38,3.38,0,0,1,.89-2.48,3.2,3.2,0,0,1,2.38-.9,3.14,3.14,0,0,1,2.39.91A3.38,3.38,0,0,1,622,102.83Zm-3.25,7.09a.92.92,0,0,0,.82-.45,2.35,2.35,0,0,0,.28-1.26,2.26,2.26,0,0,0-.3-1.26.91.91,0,0,0-.82-.46.92.92,0,0,0-.82.46,2.72,2.72,0,0,0,0,2.52A1,1,0,0,0,618.79,109.92Zm.91-7a2.29,2.29,0,0,0-.23-1.13.73.73,0,0,0-.7-.43.75.75,0,0,0-.68.41,2.44,2.44,0,0,0-.23,1.15,2.53,2.53,0,0,0,.23,1.15.75.75,0,0,0,.7.43.73.73,0,0,0,.69-.43A2.53,2.53,0,0,0,619.7,103Z"/>
          <path d="M627.7,107a13.21,13.21,0,0,1-.5,3.66,10.52,10.52,0,0,1-1.37,3,5.13,5.13,0,0,1-1.85,1.8l-.43-1.28a6.19,6.19,0,0,0,1.49-2.76,15.2,15.2,0,0,0,.56-4.23v-.44a15.85,15.85,0,0,0-.54-4.32,6.58,6.58,0,0,0-1.51-2.87L624,98.3a4.88,4.88,0,0,1,1.31,1.08,8.14,8.14,0,0,1,1.2,1.87,12,12,0,0,1,.87,2.5A13.6,13.6,0,0,1,627.7,107Z"/>
        </g>
        <g>
          <path d="M160.27,131.13h-3v10.05h-2.45V131.13H151.9v-2h8.37Z"/>
          <path d="M160.47,136.4a4.87,4.87,0,0,1,1-3.2,3.66,3.66,0,0,1,5.35,0,4.91,4.91,0,0,1,1,3.22V137a4.93,4.93,0,0,1-1,3.21,3.69,3.69,0,0,1-5.36,0,4.89,4.89,0,0,1-1-3.22Zm2.36.59c0,1.61.42,2.41,1.28,2.41s1.22-.67,1.28-2v-1a3.74,3.74,0,0,0-.34-1.82,1.05,1.05,0,0,0-1-.59,1,1,0,0,0-.94.59,3.88,3.88,0,0,0-.33,1.82Z"/>
          <path d="M169.74,141.18V134h-1.09V132.2h1.09v-.8a3.32,3.32,0,0,1,.79-2.32,2.78,2.78,0,0,1,2.14-.82,4.39,4.39,0,0,1,1.06.16v1.88a2,2,0,0,0-.58-.07c-.69,0-1,.41-1,1.24v.73h1.4V134h-1.4v7.22Z"/>
          <path d="M179,141.18a2.8,2.8,0,0,1-.2-.69,2,2,0,0,1-1.71.86,2.52,2.52,0,0,1-1.87-.75,2.61,2.61,0,0,1-.75-1.93,2.74,2.74,0,0,1,.9-2.19,4,4,0,0,1,2.6-.78h.71V135a1.34,1.34,0,0,0-.21-.85.72.72,0,0,0-.6-.25c-.59,0-.88.34-.88,1h-2.35a2.58,2.58,0,0,1,.93-2.05A3.49,3.49,0,0,1,178,132a3.2,3.2,0,0,1,2.29.76,2.91,2.91,0,0,1,.81,2.2v4.22a4.41,4.41,0,0,0,.33,1.82v.14Zm-1.39-1.67a1.41,1.41,0,0,0,.67-.16,1.2,1.2,0,0,0,.4-.37v-1.87h-.56a1.18,1.18,0,0,0-.94.38,1.45,1.45,0,0,0-.35,1C176.87,139.17,177.13,139.51,177.65,139.51Z"/>
          <path d="M186,139.4c.68,0,1-.44,1-1.33h2.2a3.29,3.29,0,0,1-.9,2.37,3.05,3.05,0,0,1-2.29.91,3.28,3.28,0,0,1-2.65-1.08,4.86,4.86,0,0,1-.93-3.18v-.71a5,5,0,0,1,.9-3.23,3.23,3.23,0,0,1,2.66-1.11,3,3,0,0,1,2.34.91,3.73,3.73,0,0,1,.87,2.61h-2.2a2.42,2.42,0,0,0-.25-1.17.86.86,0,0,0-.8-.4,1,1,0,0,0-.88.43,3.69,3.69,0,0,0-.28,1.69V137a6.86,6.86,0,0,0,.11,1.54,1.13,1.13,0,0,0,.35.63A1.07,1.07,0,0,0,186,139.4Z"/>
          <path d="M190.59,129.88a1.22,1.22,0,0,1,.35-.9,1.41,1.41,0,0,1,1.86,0,1.29,1.29,0,1,1-2.21.9Zm2.47,11.3H190.7v-9h2.36Z"/>
          <path d="M197.61,130v2.21h1.2V134h-1.2v4.47a1.41,1.41,0,0,0,.14.73.68.68,0,0,0,.56.2,2.18,2.18,0,0,0,.56-.06l0,1.82a3.65,3.65,0,0,1-1.29.23c-1.52,0-2.29-.87-2.3-2.61V134h-1V132.2h1V130Z"/>
          <path d="M200.1,129.88a1.18,1.18,0,0,1,.35-.9,1.4,1.4,0,0,1,1.85,0,1.18,1.18,0,0,1,.35.9,1.21,1.21,0,0,1-.34.89,1.39,1.39,0,0,1-1.87,0A1.21,1.21,0,0,1,200.1,129.88Zm2.46,11.3h-2.35v-9h2.35Z"/>
          <path d="M206.53,132.2l.07.89a2.48,2.48,0,0,1,2.08-1.05c1.54,0,2.34,1.08,2.38,3.24v5.9h-2.35v-5.72a2.09,2.09,0,0,0-.23-1.11.9.9,0,0,0-.8-.35,1.1,1.1,0,0,0-1,.66v6.52h-2.36v-9Z"/>
          <path d="M212.75,129.88a1.18,1.18,0,0,1,.35-.9,1.26,1.26,0,0,1,.93-.35,1.29,1.29,0,0,1,.93.35,1.35,1.35,0,0,1,0,1.79,1.39,1.39,0,0,1-1.87,0A1.21,1.21,0,0,1,212.75,129.88Zm2.46,11.3h-2.35v-9h2.35Z"/>
          <path d="M224,137a6.22,6.22,0,0,1-.7,3.28,2.4,2.4,0,0,1-2.19,1.09,2.16,2.16,0,0,1-1.88-1.06l-.07.89H217V128.43h2.35v4.5a2.07,2.07,0,0,1,1.75-.89,2.41,2.41,0,0,1,2.19,1.08,5.92,5.92,0,0,1,.72,3.17Zm-2.35-.59a4.24,4.24,0,0,0-.28-1.9,1,1,0,0,0-.95-.49,1.14,1.14,0,0,0-1.08.68v4.09a1.13,1.13,0,0,0,1.1.63,1,1,0,0,0,.93-.44,3.87,3.87,0,0,0,.28-1.71Z"/>
        </g>
        <g>
          <path d="M225.69,135.52a1.91,1.91,0,0,1-.12-.41,1.14,1.14,0,0,1-1,.5,1.45,1.45,0,0,1-1.09-.43,1.54,1.54,0,0,1-.44-1.13,1.58,1.58,0,0,1,.53-1.27,2.25,2.25,0,0,1,1.51-.46h.42v-.42a.71.71,0,0,0-.13-.5.41.41,0,0,0-.35-.15q-.51,0-.51.6h-1.37a1.54,1.54,0,0,1,.54-1.2,2.08,2.08,0,0,1,1.38-.47,1.85,1.85,0,0,1,1.33.45,1.67,1.67,0,0,1,.48,1.28v2.46a2.48,2.48,0,0,0,.19,1.06v.09Zm-.81-1a.8.8,0,0,0,.39-.09.74.74,0,0,0,.24-.22v-1.09h-.33a.68.68,0,0,0-.55.22.84.84,0,0,0-.2.6C224.43,134.35,224.58,134.54,224.88,134.54Z"/>
          <path d="M228.27,137.29l-.73-.38.19-.34a2.63,2.63,0,0,0,.32-1.16v-1.08h1.19v1a2.5,2.5,0,0,1-.26,1.06A2.6,2.6,0,0,1,228.27,137.29Z"/>
          <path d="M234.39,133.07A3.61,3.61,0,0,1,234,135a1.41,1.41,0,0,1-1.28.63,1.25,1.25,0,0,1-1.09-.61l0,.52H230.3v-7.44h1.37v2.63a1.22,1.22,0,0,1,1-.53,1.41,1.41,0,0,1,1.28.63,3.58,3.58,0,0,1,.42,1.86Zm-1.37-.35a2.67,2.67,0,0,0-.16-1.11.58.58,0,0,0-.56-.28.66.66,0,0,0-.63.39v2.39a.67.67,0,0,0,.64.37.58.58,0,0,0,.54-.26,2.14,2.14,0,0,0,.17-1Z"/>
        </g>
        <g>
          <path d="M239.52,136.26a14.43,14.43,0,0,1,.44-3.57,10.11,10.11,0,0,1,1.3-3.05,5.17,5.17,0,0,1,1.86-1.87l.44,1.3a5.94,5.94,0,0,0-1.49,2.7,15.15,15.15,0,0,0-.57,4.21v.5a16,16,0,0,0,.54,4.38,6.17,6.17,0,0,0,1.52,2.82l-.44,1.27a5.07,5.07,0,0,1-1.84-1.83,10.12,10.12,0,0,1-1.3-3,14.43,14.43,0,0,1-.46-3.51Z"/>
          <path d="M253.44,141.18H251l-3.57-7.93v7.93H245V129.09h2.44L251,137v-7.94h2.43Z"/>
          <path d="M265.78,135h-6.34v-2h6.34Zm0,3.6h-6.34v-2h6.34Z"/>
          <path d="M278.73,141.18h-7.12v-1.66l3.27-4.16a8.89,8.89,0,0,0,.91-1.52,3,3,0,0,0,.3-1.25,2.4,2.4,0,0,0-.28-1.26.89.89,0,0,0-.8-.45,1,1,0,0,0-.91.53,2.81,2.81,0,0,0-.34,1.49h-2.35a4.42,4.42,0,0,1,.46-2,3.38,3.38,0,0,1,1.29-1.43,3.57,3.57,0,0,1,1.89-.51,3.1,3.1,0,0,1,3.4,3.42,4.82,4.82,0,0,1-.49,2.07,12.82,12.82,0,0,1-1.79,2.59l-1.55,2.22h4.11Z"/>
          <path d="M287.33,141.18h-7.12v-1.66l3.26-4.16a8.41,8.41,0,0,0,.92-1.52,3,3,0,0,0,.3-1.25,2.5,2.5,0,0,0-.28-1.26.89.89,0,0,0-.8-.45,1,1,0,0,0-.91.53,2.72,2.72,0,0,0-.34,1.49H280a4.42,4.42,0,0,1,.46-2,3.38,3.38,0,0,1,1.29-1.43,3.57,3.57,0,0,1,1.89-.51,3.36,3.36,0,0,1,2.51.89,3.44,3.44,0,0,1,.89,2.53,4.82,4.82,0,0,1-.49,2.07,12.82,12.82,0,0,1-1.79,2.59l-1.55,2.22h4.11Z"/>
          <path d="M289,135.23l.6-6.14h5.85v2h-3.92l-.22,2.59a2.54,2.54,0,0,1,1.41-.46,2.73,2.73,0,0,1,2.3,1.07,4.85,4.85,0,0,1,.81,3,4.33,4.33,0,0,1-1,2.93,3.25,3.25,0,0,1-2.58,1.11,3.64,3.64,0,0,1-1.77-.45,3.3,3.3,0,0,1-1.28-1.26,3.66,3.66,0,0,1-.48-1.82h2.33a2.22,2.22,0,0,0,.37,1.17,1,1,0,0,0,.82.41,1,1,0,0,0,.89-.56,3.48,3.48,0,0,0,.32-1.67,2.75,2.75,0,0,0-.38-1.58,1.35,1.35,0,0,0-2.09-.07l-.15.21Z"/>
          <path d="M301.23,136.46a13.21,13.21,0,0,1-.49,3.66,10.79,10.79,0,0,1-1.37,3,5.15,5.15,0,0,1-1.86,1.8l-.43-1.27a6.19,6.19,0,0,0,1.49-2.77,15.12,15.12,0,0,0,.57-4.22v-.44a15.46,15.46,0,0,0-.55-4.32,6.52,6.52,0,0,0-1.51-2.88l.43-1.28a4.73,4.73,0,0,1,1.31,1.08,8.38,8.38,0,0,1,1.21,1.87,12,12,0,0,1,.87,2.5A14.17,14.17,0,0,1,301.23,136.46Z"/>
        </g>
        <g>
          <path d="M390.42,145h-3.05V133l-3,1.15v-2.53l5.7-2.34h.33Z"/>
          <path d="M395.21,134.65a1.58,1.58,0,0,1,.49-1.2A1.72,1.72,0,0,1,397,133a1.8,1.8,0,0,1,1.27.46,1.61,1.61,0,0,1,.5,1.21,1.54,1.54,0,0,1-.51,1.21,2,2,0,0,1-2.52,0A1.55,1.55,0,0,1,395.21,134.65Zm0,8.79a1.57,1.57,0,0,1,.49-1.2,1.73,1.73,0,0,1,1.27-.48,1.81,1.81,0,0,1,1.27.47,1.6,1.6,0,0,1,.5,1.21,1.56,1.56,0,0,1-.51,1.21,1.84,1.84,0,0,1-1.26.45,1.76,1.76,0,0,1-1.26-.46A1.54,1.54,0,0,1,395.21,143.44Z"/>
          <path d="M407.58,145h-3.05V133l-3,1.15v-2.53l5.7-2.34h.32Z"/>
        </g>
        <g>
          <path d="M394.77,261.4H392V250.55l-2.71,1v-2.3l5.19-2.12h.29Z"/>
          <path d="M406.77,251a3.65,3.65,0,0,1-.44,1.83,3.38,3.38,0,0,1-1.21,1.28,3.66,3.66,0,0,1,1.39,1.37A4,4,0,0,1,403,261.6a4.09,4.09,0,0,1-3-1.1,4.5,4.5,0,0,1-.61-5.05,3.61,3.61,0,0,1,1.4-1.37,3.41,3.41,0,0,1-1.22-1.28,3.75,3.75,0,0,1-.44-1.83,4,4,0,0,1,1-2.92,4.24,4.24,0,0,1,5.62,0A4,4,0,0,1,406.77,251ZM403,259.31a1.08,1.08,0,0,0,1-.54,2.79,2.79,0,0,0,.34-1.48,2.63,2.63,0,0,0-.36-1.48,1.08,1.08,0,0,0-1-.54,1.1,1.1,0,0,0-1,.54,3.22,3.22,0,0,0,0,3A1.11,1.11,0,0,0,403,259.31Zm1.07-8.2a2.83,2.83,0,0,0-.27-1.33.92.92,0,0,0-1.62,0,2.65,2.65,0,0,0-.28,1.34,2.76,2.76,0,0,0,.28,1.35.9.9,0,0,0,1.63,0A3,3,0,0,0,404,251.11Z"/>
        </g>
        <g>
          <path d="M361.5,89.49h-1v3.64h-2V83.18h3.21A3.25,3.25,0,0,1,364,84a2.92,2.92,0,0,1,.83,2.23A2.88,2.88,0,0,1,363.41,89L365.16,93v.1H363Zm-1-1.67h1.14a1.06,1.06,0,0,0,.91-.4,1.74,1.74,0,0,0,.3-1.07q0-1.5-1.17-1.5H360.5Z"/>
          <path d="M369.66,93.13a2.49,2.49,0,0,1-.17-.57,1.66,1.66,0,0,1-1.41.71,2.09,2.09,0,0,1-1.54-.62,2.15,2.15,0,0,1-.61-1.59,2.26,2.26,0,0,1,.74-1.8,3.29,3.29,0,0,1,2.14-.65h.59V88a1.08,1.08,0,0,0-.18-.71.62.62,0,0,0-.49-.2c-.49,0-.73.28-.73.85h-1.93a2.13,2.13,0,0,1,.77-1.7,2.87,2.87,0,0,1,1.94-.66,2.62,2.62,0,0,1,1.88.63,2.35,2.35,0,0,1,.67,1.81v3.48A3.67,3.67,0,0,0,371.6,93v.12Zm-1.15-1.38a1,1,0,0,0,.55-.13,1,1,0,0,0,.34-.31V89.77h-.47a1,1,0,0,0-.78.32,1.25,1.25,0,0,0-.28.84C367.87,91.48,368.08,91.75,368.51,91.75Z"/>
          <path d="M374.5,85.73l.06.74a2,2,0,0,1,1.71-.87c1.27,0,1.93.89,2,2.67v4.86h-1.94V88.41a1.75,1.75,0,0,0-.18-.91.74.74,0,0,0-.66-.28.91.91,0,0,0-.83.54v5.37h-1.94v-7.4Z"/>
          <path d="M379.36,89.21a4.84,4.84,0,0,1,.62-2.72,2,2,0,0,1,1.79-.89,1.71,1.71,0,0,1,1.42.74V82.63h1.95v10.5h-1.76l-.09-.75a1.77,1.77,0,0,1-1.53.89,2,2,0,0,1-1.77-.89,4.65,4.65,0,0,1-.63-2.61Zm1.94.48a3.44,3.44,0,0,0,.24,1.53.8.8,0,0,0,.78.43.94.94,0,0,0,.87-.51V87.76a.92.92,0,0,0-.86-.54.82.82,0,0,0-.78.43,3.41,3.41,0,0,0-.25,1.53Z"/>
          <path d="M386.33,89.19a4,4,0,0,1,.8-2.64,3,3,0,0,1,4.4,0,4.06,4.06,0,0,1,.79,2.66v.47a4.07,4.07,0,0,1-.78,2.64,3,3,0,0,1-4.42,0,4.07,4.07,0,0,1-.79-2.65Zm1.95.49c0,1.32.35,2,1.06,2s1-.55,1.05-1.65v-.82a3.22,3.22,0,0,0-.28-1.5.9.9,0,0,0-.8-.49.87.87,0,0,0-.77.49,3.24,3.24,0,0,0-.27,1.5Z"/>
          <path d="M395.34,85.73l.06.69a2.06,2.06,0,0,1,1.72-.82,1.59,1.59,0,0,1,1.56,1,2,2,0,0,1,1.81-1c1.3,0,2,.89,2,2.68v4.85h-1.93V88.41a1.74,1.74,0,0,0-.18-.92.67.67,0,0,0-.6-.27.88.88,0,0,0-.81.66v5.25H397V88.42a1.92,1.92,0,0,0-.17-.92.66.66,0,0,0-.61-.28.88.88,0,0,0-.79.54v5.37h-1.94v-7.4Z"/>
          <path d="M403.91,83.82a1,1,0,0,1,.29-.74,1,1,0,0,1,.76-.29,1,1,0,0,1,.77.29,1,1,0,0,1,.29.74,1,1,0,0,1-1.06,1,1,1,0,0,1-.77-.29A1,1,0,0,1,403.91,83.82Zm2,9.31H404v-7.4h1.94Z"/>
          <path d="M409.58,91.52h2.92v1.61h-5.22V91.92l2.86-4.57h-2.79V85.73h5.11V86.9Z"/>
          <path d="M417.29,93.13a2.49,2.49,0,0,1-.17-.57,1.64,1.64,0,0,1-1.4.71,2.11,2.11,0,0,1-1.55-.62,2.19,2.19,0,0,1-.61-1.59,2.26,2.26,0,0,1,.74-1.8,3.29,3.29,0,0,1,2.14-.65H417V88a1.15,1.15,0,0,0-.17-.71.64.64,0,0,0-.5-.2c-.48,0-.73.28-.73.85H413.7a2.17,2.17,0,0,1,.77-1.7,2.87,2.87,0,0,1,1.94-.66,2.66,2.66,0,0,1,1.89.63A2.38,2.38,0,0,1,419,88v3.48a3.49,3.49,0,0,0,.28,1.49v.12Zm-1.14-1.38a1,1,0,0,0,.54-.13.94.94,0,0,0,.34-.31V89.77h-.47a1,1,0,0,0-.77.32,1.21,1.21,0,0,0-.29.84C415.5,91.48,415.72,91.75,416.15,91.75Z"/>
          <path d="M422.61,83.92v1.81h1v1.45h-1v3.68a1.08,1.08,0,0,0,.12.6.55.55,0,0,0,.46.17,1.89,1.89,0,0,0,.46,0v1.5a2.87,2.87,0,0,1-1.07.19c-1.25,0-1.88-.72-1.89-2.15V87.18h-.86V85.73h.86V83.92Z"/>
          <path d="M424.66,83.82a1,1,0,0,1,.29-.74,1,1,0,0,1,.77-.29,1,1,0,0,1,.76.29,1,1,0,0,1,.29.74,1.06,1.06,0,0,1-.28.74,1,1,0,0,1-.77.29,1,1,0,0,1-1.06-1Zm2,9.31h-1.94v-7.4h1.94Z"/>
          <path d="M428,89.19a4,4,0,0,1,.79-2.64,3,3,0,0,1,4.4,0,4.06,4.06,0,0,1,.79,2.66v.47a4.07,4.07,0,0,1-.78,2.64,3,3,0,0,1-4.42,0,4.06,4.06,0,0,1-.78-2.65Zm1.94.49c0,1.32.35,2,1.06,2s1-.55,1-1.65v-.82a3.22,3.22,0,0,0-.28-1.5.9.9,0,0,0-.8-.49.87.87,0,0,0-.77.49,3.24,3.24,0,0,0-.27,1.5Z"/>
          <path d="M436.93,85.73l.05.74a2.06,2.06,0,0,1,1.72-.87c1.27,0,1.92.89,2,2.67v4.86h-1.94V88.41a1.64,1.64,0,0,0-.19-.91.72.72,0,0,0-.66-.28.91.91,0,0,0-.82.54v5.37h-1.94v-7.4Z"/>
        </g>
        <g>
          <path d="M544.33,253h1.34a1.26,1.26,0,0,0,1.12-.54,2.57,2.57,0,0,0,.35-1.42,2.16,2.16,0,0,0-.36-1.32,1.25,1.25,0,0,0-1.93,0,1.77,1.77,0,0,0-.36,1.14h-2.77a3.94,3.94,0,0,1,.51-2,3.61,3.61,0,0,1,1.44-1.38,4.29,4.29,0,0,1,2.05-.5,4.23,4.23,0,0,1,3.07,1.08,4,4,0,0,1,1.12,3,3.51,3.51,0,0,1-1.83,3.06,3.09,3.09,0,0,1,1.5,1.29,4.45,4.45,0,0,1-.71,5.07,4.45,4.45,0,0,1-3.17,1.14,4.05,4.05,0,0,1-3-1.13,4,4,0,0,1-1.14-3h2.77a2,2,0,0,0,.4,1.28,1.24,1.24,0,0,0,1,.52,1.35,1.35,0,0,0,1.13-.53,2.19,2.19,0,0,0,.42-1.41c0-1.4-.55-2.1-1.63-2.11h-1.36Z"/>
          <path d="M558.58,247v2.34h-.16a3.32,3.32,0,0,0-2.46.94,4.22,4.22,0,0,0-1.11,2.58,2.82,2.82,0,0,1,2.22-1,2.88,2.88,0,0,1,2.47,1.32,6.06,6.06,0,0,1,.92,3.52,5.75,5.75,0,0,1-.53,2.52,4.07,4.07,0,0,1-1.47,1.74,3.92,3.92,0,0,1-2.16.62,3.7,3.7,0,0,1-3.1-1.55,6.8,6.8,0,0,1-1.17-4.18v-1a10.67,10.67,0,0,1,.74-4.12A6,6,0,0,1,554.9,248a5.73,5.73,0,0,1,3.25-1Zm-2.38,7.12a1.25,1.25,0,0,0-.88.33,2.08,2.08,0,0,0-.53.82v1a4.83,4.83,0,0,0,.4,2.25,1.13,1.13,0,0,0,2.12,0,3.87,3.87,0,0,0,.4-1.85,3.66,3.66,0,0,0-.42-1.86A1.23,1.23,0,0,0,556.2,254.16Z"/>
        </g>
        <g>
          <path d="M643.69,256h1.21v2.3h-1.21v3.07h-2.76v-3.07h-4.71l-.12-1.79,4.82-9.35h2.77Zm-4.91,0h2.15v-4.75l-.06.11Z"/>
          <path d="M653.81,256H655v2.3h-1.21v3.07h-2.76v-3.07h-4.71l-.13-1.79,4.83-9.35h2.77Zm-4.91,0h2.15v-4.75l-.06.11Z"/>
        </g>
        <g>
          <path d="M688,256.12l1.35-8.93h2.84l-2.53,14.21H686.8L685.14,253l-1.64,8.37h-2.89l-2.54-14.21h2.86l1.34,8.92,1.67-8.92h2.41Z"/>
          <path d="M697.59,261.6a4.34,4.34,0,0,1-3.32-1.27,5.14,5.14,0,0,1-1.19-3.63v-.84a6,6,0,0,1,1.1-3.86,3.8,3.8,0,0,1,3.13-1.36,3.59,3.59,0,0,1,3,1.28,6,6,0,0,1,1,3.76V257h-5.49a2.93,2.93,0,0,0,.51,1.72,1.77,1.77,0,0,0,1.42.55,3.08,3.08,0,0,0,2.31-.95l1.09,1.67a3.56,3.56,0,0,1-1.48,1.14A5,5,0,0,1,697.59,261.6Zm-1.73-6.48h2.76v-.26a3,3,0,0,0-.31-1.43,1.09,1.09,0,0,0-1-.49,1.14,1.14,0,0,0-1,.52A3.52,3.52,0,0,0,695.86,255.12Z"/>
          <path d="M707.17,261.6a4.35,4.35,0,0,1-3.33-1.27,5.14,5.14,0,0,1-1.19-3.63v-.84a6,6,0,0,1,1.1-3.86,3.8,3.8,0,0,1,3.13-1.36,3.59,3.59,0,0,1,3,1.28,6.08,6.08,0,0,1,1,3.76V257h-5.5a2.93,2.93,0,0,0,.51,1.72,1.77,1.77,0,0,0,1.42.55,3.12,3.12,0,0,0,2.32-.95l1.08,1.67a3.56,3.56,0,0,1-1.48,1.14A5,5,0,0,1,707.17,261.6Zm-1.74-6.48h2.76v-.26a3,3,0,0,0-.31-1.43,1.09,1.09,0,0,0-1-.49,1.14,1.14,0,0,0-1.05.52A3.52,3.52,0,0,0,705.43,255.12Z"/>
          <path d="M716,257.33l-.74.83v3.24h-2.76v-15h2.76v8.11l.34-.51,1.92-3.16h3.29l-3.07,4.35,3.36,6.21h-3.16Z"/>
          <path d="M726.72,258.57a.89.89,0,0,0-.34-.65,7,7,0,0,0-1.5-.8,6.17,6.17,0,0,1-2.35-1.44,2.7,2.7,0,0,1-.64-1.84,3,3,0,0,1,1-2.29,3.78,3.78,0,0,1,2.65-.91,4.14,4.14,0,0,1,2.79.9,3,3,0,0,1,1,2.41h-2.76q0-1.29-1.08-1.29a1,1,0,0,0-.72.28,1,1,0,0,0-.28.76.8.8,0,0,0,.31.62,7.16,7.16,0,0,0,1.48.77,6,6,0,0,1,2.38,1.39,2.81,2.81,0,0,1,.7,2,2.77,2.77,0,0,1-1.06,2.27,4.33,4.33,0,0,1-2.8.86,4.51,4.51,0,0,1-2-.45,3.55,3.55,0,0,1-1.39-1.27,3.29,3.29,0,0,1-.5-1.75h2.63a1.67,1.67,0,0,0,.33,1.09,1.32,1.32,0,0,0,1,.36C726.34,259.58,726.72,259.24,726.72,258.57Z"/>
        </g>
        <g>
          <line x1="351.96" y1="137.29" x2="374.04" y2="137.29" fill="none" stroke="#000" stroke-miterlimit="10" stroke-width="2"/>
          <polyline points="458.23 99.7 431.96 99.7 431.96 172.59 458.23 172.59" fill="none" stroke="#000" stroke-miterlimit="10" stroke-width="2"/>
          <polygon points="456.77 94.72 465.41 99.7 456.77 104.69 456.77 94.72"/>
          <polygon points="456.77 177.58 465.41 172.59 456.77 167.61 456.77 177.58"/>
          <line x1="420.27" y1="136.84" x2="431.96" y2="136.84" fill="none" stroke="#000" stroke-miterlimit="10" stroke-width="2"/>
        </g>
      </g>
    </g>
  </g>
</svg>
