<svg xmlns="http://www.w3.org/2000/svg" xmlns:xlink="http://www.w3.org/1999/xlink" width="495.25" height="252.75" viewBox="0 0 495.25 252.75">
  <defs>
    <clipPath id="clip-path">
      <rect x="38.75" y="185.5" width="68.64" height="52.95" fill="none"/>
    </clipPath>
    <clipPath id="clip-path-2">
      <rect x="404.29" y="185.5" width="68.64" height="52.95" fill="none"/>
    </clipPath>
    <clipPath id="clip-path-3">
      <rect x="158.76" y="185.5" width="231.05" height="67.25" fill="none"/>
    </clipPath>
  </defs>
  <g id="Layer_2" data-name="Layer 2">
    <g id="Layer_1-2" data-name="Layer 1">
      <g>
        <g>
          <polyline points="70.38 54.8 70.38 35.26 438.61 35.26 438.61 54.8" fill="none" stroke="#231f20" stroke-miterlimit="10" stroke-width="2"/>
          <line x1="270.34" y1="105.86" x2="270.34" y2="107.86" fill="none" stroke="#ffd200" stroke-miterlimit="10" stroke-width="3"/>
          <line x1="270.34" y1="111.86" x2="270.34" y2="149.92" fill="none" stroke="#ffd200" stroke-miterlimit="10" stroke-width="3" stroke-dasharray="4.01 4.01"/>
          <line x1="270.34" y1="151.92" x2="270.34" y2="153.92" fill="none" stroke="#ffd200" stroke-miterlimit="10" stroke-width="3"/>
          <line x1="270.34" y1="54.8" x2="270.34" y2="35.26" fill="none" stroke="#231f20" stroke-miterlimit="10" stroke-width="2"/>
          <polyline points="22.24 172.87 22.24 153.92 453.17 153.92" fill="none" stroke="#231f20" stroke-miterlimit="10" stroke-width="2"/>
          <line x1="73.07" y1="162.13" x2="73.07" y2="153.92" fill="none" stroke="#231f20" stroke-miterlimit="10" stroke-width="2"/>
          <line x1="270.34" y1="153.92" x2="270.34" y2="158.78" fill="none" stroke="#231f20" stroke-miterlimit="10" stroke-width="2"/>
          <line x1="438.61" y1="158.78" x2="438.61" y2="153.92" fill="none" stroke="#231f20" stroke-miterlimit="10" stroke-width="2"/>
          <line x1="374.42" y1="158.78" x2="374.42" y2="153.92" fill="none" stroke="#231f20" stroke-miterlimit="10" stroke-width="2"/>
          <g opacity="0.33">
            <g clip-path="url(#clip-path)">
              <polygon points="73.07 185.5 90.52 200.31 107.39 200.31 107.39 238.45 38.75 238.45 38.75 200.31 56.94 200.31 73.07 185.5" fill="#59c2ef"/>
            </g>
          </g>
          <g opacity="0.33">
            <g clip-path="url(#clip-path-2)">
              <polygon points="438.61 185.5 456.06 200.31 472.93 200.31 472.93 238.45 404.29 238.45 404.29 200.31 422.48 200.31 438.61 185.5" fill="#59c2ef"/>
            </g>
          </g>
          <g opacity="0.33">
            <g clip-path="url(#clip-path-3)">
              <polygon points="270.34 185.5 285.9 200.31 389.81 200.31 389.81 252.75 158.76 252.75 158.76 200.31 253.67 200.31 270.34 185.5" fill="#59c2ef"/>
            </g>
          </g>
          <rect x="69.11" y="61.46" width="169.87" height="62.15" fill="#59c2ef"/>
          <rect x="316" y="58.51" width="122.6" height="30.19" fill="#59c2ef"/>
          <rect x="316" y="107.25" width="122.6" height="21.1" fill="#999"/>
          <path d="M254,92.91a15.7,15.7,0,1,1,15.7,15.69A15.7,15.7,0,0,1,254,92.91" fill="#999"/>
        </g>
        <g>
          <path d="M426.91,214h-3.77v3.08h4.38V218H422v-8.69h5.46v.93h-4.32v2.8h3.77Z"/>
          <path d="M429.82,211.56l0,.81a2.35,2.35,0,0,1,1.93-.93q2.06,0,2.07,2.31V218h-1.1v-4.28a1.56,1.56,0,0,0-.32-1,1.3,1.3,0,0,0-1-.33,1.58,1.58,0,0,0-.94.28,1.88,1.88,0,0,0-.63.76V218h-1.11v-6.46Z"/>
          <path d="M435.25,214.73a3.79,3.79,0,0,1,.7-2.39,2.39,2.39,0,0,1,3.64-.12v-3.37h1.1V218h-1l-.05-.7a2.28,2.28,0,0,1-1.85.82,2.21,2.21,0,0,1-1.83-.92,3.86,3.86,0,0,1-.7-2.4Zm1.1.13a2.9,2.9,0,0,0,.45,1.72,1.49,1.49,0,0,0,1.26.62,1.61,1.61,0,0,0,1.53-.94v-3a1.62,1.62,0,0,0-1.52-.91,1.51,1.51,0,0,0-1.27.62A3.19,3.19,0,0,0,436.35,214.86Z"/>
          <path d="M445.14,214.73a3.83,3.83,0,0,1,.37-1.71,2.74,2.74,0,0,1,2.56-1.58,2.7,2.7,0,0,1,2.13.91,3.49,3.49,0,0,1,.82,2.43v.08a3.85,3.85,0,0,1-.36,1.69,2.75,2.75,0,0,1-1,1.17,2.82,2.82,0,0,1-1.54.42,2.74,2.74,0,0,1-2.13-.92,3.5,3.5,0,0,1-.81-2.41Zm1.11.13a2.75,2.75,0,0,0,.5,1.72,1.56,1.56,0,0,0,1.33.65,1.59,1.59,0,0,0,1.34-.66,3,3,0,0,0,.49-1.84,2.72,2.72,0,0,0-.5-1.72,1.6,1.6,0,0,0-1.34-.66,1.56,1.56,0,0,0-1.32.65A3,3,0,0,0,446.25,214.86Z"/>
          <path d="M453,218v-5.61h-1v-.85h1v-.66a2.2,2.2,0,0,1,.55-1.61,2.09,2.09,0,0,1,1.57-.57,2.79,2.79,0,0,1,.76.11l-.06.89a2.91,2.91,0,0,0-.6-.06,1.08,1.08,0,0,0-.83.32,1.3,1.3,0,0,0-.29.9v.68h1.38v.85h-1.38V218Z"/>
        </g>
        <g>
          <path d="M427.88,231a.81.81,0,0,0-.34-.7,3.29,3.29,0,0,0-1.17-.42,5.93,5.93,0,0,1-1.33-.43,2,2,0,0,1-.73-.6,1.39,1.39,0,0,1-.23-.82,1.68,1.68,0,0,1,.67-1.35,2.63,2.63,0,0,1,1.71-.54,2.67,2.67,0,0,1,1.78.56,1.79,1.79,0,0,1,.69,1.45h-1.11a1,1,0,0,0-.39-.78,1.44,1.44,0,0,0-1-.33,1.48,1.48,0,0,0-.94.27.8.8,0,0,0-.34.68.64.64,0,0,0,.32.6,3.63,3.63,0,0,0,1.14.39,6.36,6.36,0,0,1,1.34.44,2,2,0,0,1,.76.62,1.57,1.57,0,0,1,.25.88,1.64,1.64,0,0,1-.7,1.39,2.88,2.88,0,0,1-1.79.52,3.33,3.33,0,0,1-1.38-.27,2.35,2.35,0,0,1-.93-.77,1.89,1.89,0,0,1-.34-1.07H425a1.18,1.18,0,0,0,.44.89,1.77,1.77,0,0,0,1.1.32,1.74,1.74,0,0,0,1-.25A.77.77,0,0,0,427.88,231Z"/>
          <path d="M431.92,224.66v1.57h1.21v.85h-1.21v4a.93.93,0,0,0,.16.58.68.68,0,0,0,.55.19,2.56,2.56,0,0,0,.53-.07v.89a3.23,3.23,0,0,1-.85.12,1.38,1.38,0,0,1-1.12-.45,1.91,1.91,0,0,1-.37-1.27v-4h-1.18v-.85h1.18v-1.57Z"/>
          <path d="M438.4,232a2.33,2.33,0,0,1-1.89.76,2,2,0,0,1-1.57-.6,2.62,2.62,0,0,1-.55-1.77v-4.2h1.11v4.17c0,1,.39,1.46,1.19,1.46a1.65,1.65,0,0,0,1.68-.94v-4.69h1.11v6.45h-1.05Z"/>
          <path d="M440.89,229.4a3.77,3.77,0,0,1,.7-2.39,2.4,2.4,0,0,1,3.64-.13v-3.36h1.1v9.16h-1l-.05-.69a2.27,2.27,0,0,1-1.85.81,2.18,2.18,0,0,1-1.83-.92,3.82,3.82,0,0,1-.7-2.4Zm1.1.13a2.85,2.85,0,0,0,.45,1.71,1.46,1.46,0,0,0,1.26.62,1.6,1.6,0,0,0,1.53-.94v-3a1.63,1.63,0,0,0-1.52-.92,1.49,1.49,0,0,0-1.27.63A3.19,3.19,0,0,0,442,229.53Z"/>
          <path d="M450.16,231.06l1.5-4.83h1.18l-2.59,7.45c-.4,1.07-1,1.61-1.92,1.61l-.21,0-.41-.08v-.89l.3,0a1.45,1.45,0,0,0,.87-.22,1.61,1.61,0,0,0,.52-.83l.25-.66-2.31-6.38h1.21Z"/>
        </g>
        <g>
          <path d="M209.63,212.6a5.27,5.27,0,0,1-.43,2.22,3.21,3.21,0,0,1-1.22,1.46,3.34,3.34,0,0,1-1.83.5,3.28,3.28,0,0,1-1.82-.51,3.35,3.35,0,0,1-1.24-1.43,5.28,5.28,0,0,1-.45-2.17v-.62a5.33,5.33,0,0,1,.44-2.22,3.22,3.22,0,0,1,3-2,3.38,3.38,0,0,1,1.85.51,3.16,3.16,0,0,1,1.22,1.46,5.35,5.35,0,0,1,.43,2.23Zm-1.14-.57a3.85,3.85,0,0,0-.62-2.37,2.22,2.22,0,0,0-3.45,0,3.86,3.86,0,0,0-.64,2.3v.64a3.9,3.9,0,0,0,.63,2.35,2.21,2.21,0,0,0,3.46.05,3.91,3.91,0,0,0,.62-2.32Z"/>
          <path d="M212.22,210.2l0,.81a2.35,2.35,0,0,1,1.93-.93c1.37,0,2.05.77,2.07,2.31v4.27h-1.11v-4.27a1.49,1.49,0,0,0-.32-1,1.28,1.28,0,0,0-1-.33,1.62,1.62,0,0,0-1,.29,1.92,1.92,0,0,0-.63.75v4.6h-1.1V210.2Z"/>
          <path d="M219.12,216.66H218v-9.17h1.1Z"/>
          <path d="M223,215l1.5-4.84h1.18l-2.59,7.46c-.4,1.07-1,1.61-1.92,1.61l-.21,0-.41-.08v-.89l.3,0a1.39,1.39,0,0,0,.87-.23,1.56,1.56,0,0,0,.52-.83l.25-.65-2.31-6.39h1.21Z"/>
          <path d="M235.15,213.5a3.86,3.86,0,0,1-.68,2.38,2.14,2.14,0,0,1-1.82.9,2.37,2.37,0,0,1-1.85-.75v3.11h-1.1V210.2h1l.06.72a2.26,2.26,0,0,1,1.87-.84,2.21,2.21,0,0,1,1.84.88,3.93,3.93,0,0,1,.68,2.44Zm-1.11-.12a2.86,2.86,0,0,0-.46-1.73,1.51,1.51,0,0,0-1.28-.63,1.62,1.62,0,0,0-1.5.89V215a1.62,1.62,0,0,0,1.51.89,1.51,1.51,0,0,0,1.27-.63A3.13,3.13,0,0,0,234,213.38Z"/>
          <path d="M240.54,216.66a2.1,2.1,0,0,1-.16-.68,2.46,2.46,0,0,1-1.84.8,2.28,2.28,0,0,1-1.56-.54,1.74,1.74,0,0,1-.61-1.37,1.83,1.83,0,0,1,.76-1.57,3.63,3.63,0,0,1,2.16-.55h1.07v-.51a1.21,1.21,0,0,0-.34-.92,1.39,1.39,0,0,0-1-.35,1.58,1.58,0,0,0-1,.3.87.87,0,0,0-.4.72H236.5a1.51,1.51,0,0,1,.34-.93,2.31,2.31,0,0,1,.93-.71,3,3,0,0,1,1.29-.27,2.55,2.55,0,0,1,1.75.56,2,2,0,0,1,.66,1.54v3a3.46,3.46,0,0,0,.23,1.41v.1Zm-1.83-.84a1.93,1.93,0,0,0,1-.27,1.56,1.56,0,0,0,.67-.7v-1.32h-.86c-1.35,0-2,.39-2,1.18a1,1,0,0,0,.35.82A1.34,1.34,0,0,0,238.71,215.82Z"/>
          <path d="M244.7,208.64v1.56h1.2v.86h-1.2v4a.89.89,0,0,0,.16.58.68.68,0,0,0,.55.19,2.41,2.41,0,0,0,.52-.07v.89a3.15,3.15,0,0,1-.84.12,1.37,1.37,0,0,1-1.12-.45,1.92,1.92,0,0,1-.38-1.27v-4h-1.17v-.86h1.17v-1.56Z"/>
          <path d="M247.2,208.49a.64.64,0,0,1,.16-.45.6.6,0,0,1,.49-.19.61.61,0,0,1,.49.19.63.63,0,0,1-.49,1.08.63.63,0,0,1-.49-.18A.64.64,0,0,1,247.2,208.49Zm1.19,8.17h-1.1V210.2h1.1Z"/>
          <path d="M252.84,216.78a2.84,2.84,0,0,1-2.14-.86,3.22,3.22,0,0,1-.82-2.31v-.2a4,4,0,0,1,.36-1.72,2.89,2.89,0,0,1,1-1.18,2.63,2.63,0,0,1,1.43-.43,2.44,2.44,0,0,1,2,.83,3.65,3.65,0,0,1,.7,2.38v.46H251a2.3,2.3,0,0,0,.56,1.54,1.77,1.77,0,0,0,1.36.59,1.91,1.91,0,0,0,1-.24,2.64,2.64,0,0,0,.71-.63l.67.52A2.71,2.71,0,0,1,252.84,216.78ZM252.7,211a1.44,1.44,0,0,0-1.12.49,2.36,2.36,0,0,0-.56,1.36h3.23v-.08a2.12,2.12,0,0,0-.45-1.31A1.38,1.38,0,0,0,252.7,211Z"/>
          <path d="M257.68,210.2l0,.81a2.37,2.37,0,0,1,1.94-.93c1.36,0,2.05.77,2.06,2.31v4.27h-1.1v-4.27a1.54,1.54,0,0,0-.32-1,1.3,1.3,0,0,0-1-.33,1.59,1.59,0,0,0-.94.29,1.92,1.92,0,0,0-.63.75v4.6h-1.11V210.2Z"/>
          <path d="M264.87,208.64v1.56h1.21v.86h-1.21v4a.89.89,0,0,0,.17.58.66.66,0,0,0,.54.19,2.48,2.48,0,0,0,.53-.07v.89a3.17,3.17,0,0,1-.85.12,1.36,1.36,0,0,1-1.11-.45,1.92,1.92,0,0,1-.38-1.27v-4h-1.18v-.86h1.18v-1.56Z"/>
          <path d="M271.13,215a.81.81,0,0,0-.34-.7,3.18,3.18,0,0,0-1.17-.42,5.76,5.76,0,0,1-1.33-.43,1.87,1.87,0,0,1-.73-.6,1.41,1.41,0,0,1-.24-.82,1.68,1.68,0,0,1,.67-1.35,2.67,2.67,0,0,1,1.72-.55,2.7,2.7,0,0,1,1.78.57,1.81,1.81,0,0,1,.68,1.45h-1.11a1,1,0,0,0-.38-.78,1.44,1.44,0,0,0-1-.33,1.58,1.58,0,0,0-.95.26.86.86,0,0,0-.34.69.66.66,0,0,0,.32.6,3.63,3.63,0,0,0,1.14.39,5.83,5.83,0,0,1,1.34.44,1.86,1.86,0,0,1,.76.62,1.47,1.47,0,0,1,.25.88,1.66,1.66,0,0,1-.69,1.39,3,3,0,0,1-1.8.52,3.17,3.17,0,0,1-1.37-.28,2.13,2.13,0,0,1-.93-.76,1.84,1.84,0,0,1-.34-1.07h1.1a1.13,1.13,0,0,0,.45.88,1.69,1.69,0,0,0,1.09.33,1.78,1.78,0,0,0,1-.26A.77.77,0,0,0,271.13,215Z"/>
          <path d="M280.68,216.66a2.49,2.49,0,0,1-.15-.68,2.49,2.49,0,0,1-1.84.8,2.29,2.29,0,0,1-1.57-.54,1.74,1.74,0,0,1-.61-1.37,1.84,1.84,0,0,1,.77-1.57,3.62,3.62,0,0,1,2.15-.55h1.08v-.51a1.22,1.22,0,0,0-.35-.92,1.39,1.39,0,0,0-1-.35,1.62,1.62,0,0,0-1,.3.9.9,0,0,0-.4.72h-1.11a1.52,1.52,0,0,1,.35-.93,2.18,2.18,0,0,1,.93-.71,3,3,0,0,1,1.29-.27,2.57,2.57,0,0,1,1.75.56,2,2,0,0,1,.65,1.54v3a3.63,3.63,0,0,0,.23,1.41v.1Zm-1.83-.84a1.9,1.9,0,0,0,1-.27,1.58,1.58,0,0,0,.68-.7v-1.32h-.87c-1.35,0-2,.39-2,1.18a1,1,0,0,0,.34.82A1.36,1.36,0,0,0,278.85,215.82Z"/>
          <path d="M285.93,215.88a1.6,1.6,0,0,0,1-.36,1.32,1.32,0,0,0,.49-.9h1a2,2,0,0,1-.38,1.06,2.53,2.53,0,0,1-.94.8,2.71,2.71,0,0,1-1.25.3,2.62,2.62,0,0,1-2.09-.88,3.51,3.51,0,0,1-.78-2.41v-.18a3.91,3.91,0,0,1,.34-1.68,2.59,2.59,0,0,1,1-1.14,2.82,2.82,0,0,1,1.53-.41,2.6,2.6,0,0,1,1.8.65,2.34,2.34,0,0,1,.77,1.69h-1a1.58,1.58,0,0,0-.48-1,1.47,1.47,0,0,0-1.05-.4,1.55,1.55,0,0,0-1.31.61,2.88,2.88,0,0,0-.46,1.75v.21a2.79,2.79,0,0,0,.46,1.72A1.55,1.55,0,0,0,285.93,215.88Z"/>
          <path d="M290.84,211a2.35,2.35,0,0,1,1.91-.9q2.06,0,2.07,2.31v4.27h-1.11v-4.27a1.54,1.54,0,0,0-.31-1,1.3,1.3,0,0,0-1-.33,1.59,1.59,0,0,0-.94.29,2,2,0,0,0-.64.75v4.6h-1.1v-9.17h1.1Z"/>
          <path d="M296.48,208.49a.64.64,0,0,1,.16-.45.6.6,0,0,1,.49-.19.61.61,0,0,1,.49.19.63.63,0,0,1-.49,1.08.63.63,0,0,1-.49-.18A.64.64,0,0,1,296.48,208.49Zm1.19,8.17h-1.1V210.2h1.1Z"/>
          <path d="M302.12,216.78a2.84,2.84,0,0,1-2.14-.86,3.22,3.22,0,0,1-.82-2.31v-.2a4,4,0,0,1,.36-1.72,2.89,2.89,0,0,1,1-1.18,2.63,2.63,0,0,1,1.43-.43,2.44,2.44,0,0,1,2,.83,3.65,3.65,0,0,1,.7,2.38v.46h-4.38a2.3,2.3,0,0,0,.56,1.54,1.77,1.77,0,0,0,1.36.59,1.91,1.91,0,0,0,1-.24,2.64,2.64,0,0,0,.71-.63l.67.52A2.71,2.71,0,0,1,302.12,216.78ZM302,211a1.44,1.44,0,0,0-1.12.49,2.36,2.36,0,0,0-.56,1.36h3.23v-.08a2.12,2.12,0,0,0-.45-1.31A1.38,1.38,0,0,0,302,211Z"/>
          <path d="M308,215.16l1.6-5h1.13l-2.32,6.46h-.84l-2.34-6.46h1.13Z"/>
          <path d="M311.77,208.49a.64.64,0,0,1,.16-.45.6.6,0,0,1,.49-.19.63.63,0,0,1,.49.19.71.71,0,0,1,0,.9.66.66,0,0,1-.49.18.63.63,0,0,1-.49-.18A.64.64,0,0,1,311.77,208.49Zm1.19,8.17h-1.11V210.2H313Z"/>
          <path d="M315.77,210.2l0,.81a2.34,2.34,0,0,1,1.93-.93c1.36,0,2.05.77,2.06,2.31v4.27h-1.1v-4.27a1.49,1.49,0,0,0-.32-1,1.28,1.28,0,0,0-1-.33,1.62,1.62,0,0,0-1,.29,1.92,1.92,0,0,0-.63.75v4.6h-1.1V210.2Z"/>
          <path d="M321.21,213.38a3.75,3.75,0,0,1,.7-2.4,2.39,2.39,0,0,1,3.69-.06l0-.72h1v6.3a2.65,2.65,0,0,1-.74,2,2.76,2.76,0,0,1-2,.72,3.28,3.28,0,0,1-1.36-.3,2.34,2.34,0,0,1-1-.81l.57-.67a2.14,2.14,0,0,0,1.73.88,1.7,1.7,0,0,0,1.26-.45,1.75,1.75,0,0,0,.45-1.28V216a2.29,2.29,0,0,1-1.81.76,2.23,2.23,0,0,1-1.83-.91A4,4,0,0,1,321.21,213.38Zm1.11.12a3,3,0,0,0,.44,1.72,1.48,1.48,0,0,0,1.26.62,1.61,1.61,0,0,0,1.53-1V212A1.63,1.63,0,0,0,324,211a1.46,1.46,0,0,0-1.26.63A3.13,3.13,0,0,0,322.32,213.5Z"/>
          <path d="M335.16,208h1.16v6.15a2.52,2.52,0,0,1-.75,1.95,2.81,2.81,0,0,1-2,.71,2.91,2.91,0,0,1-2-.66,2.41,2.41,0,0,1-.72-1.86H332a1.54,1.54,0,0,0,.41,1.16,1.56,1.56,0,0,0,1.18.42,1.54,1.54,0,0,0,1.15-.45,1.7,1.7,0,0,0,.44-1.25Z"/>
          <path d="M339.5,216.66h-1.15V208h1.15Z"/>
          <path d="M346.49,214.39h-3.64l-.82,2.27h-1.18l3.32-8.69h1l3.32,8.69h-1.17Zm-3.3-.94h3l-1.48-4.06Z"/>
        </g>
        <g>
          <path d="M190.26,229.05h-3.64l-.82,2.28h-1.18l3.32-8.69h1l3.32,8.69h-1.17Zm-3.3-.93h3l-1.48-4.07Z"/>
          <path d="M199.82,228.57a3.21,3.21,0,0,1-1,2.13,3.35,3.35,0,0,1-2.28.74,3,3,0,0,1-2.47-1.1,4.44,4.44,0,0,1-.93-3v-.84a4.91,4.91,0,0,1,.44-2.13,3.18,3.18,0,0,1,1.22-1.41,3.4,3.4,0,0,1,1.84-.49,3.13,3.13,0,0,1,2.22.77,3.23,3.23,0,0,1,1,2.14h-1.15a2.47,2.47,0,0,0-.65-1.51,2,2,0,0,0-1.39-.47,2.05,2.05,0,0,0-1.72.82,3.69,3.69,0,0,0-.62,2.31v.84a3.8,3.8,0,0,0,.59,2.25,1.89,1.89,0,0,0,1.65.84,2.23,2.23,0,0,0,1.46-.43,2.43,2.43,0,0,0,.68-1.51Z"/>
          <path d="M204.57,227.81h-2v3.52h-1.15v-8.69h2.88a3.39,3.39,0,0,1,2.26.67,2.66,2.66,0,0,1,.35,3.36,2.63,2.63,0,0,1-1.22.9l2,3.68v.08h-1.23Zm-2-.94h1.76a2,2,0,0,0,1.36-.44,1.47,1.47,0,0,0,.5-1.18,1.58,1.58,0,0,0-.48-1.24,2,2,0,0,0-1.38-.44h-1.76Z"/>
          <path d="M210.23,226.44h.83a1.77,1.77,0,0,0,1.23-.41,1.53,1.53,0,0,0-1.07-2.61,1.62,1.62,0,0,0-1.15.41,1.47,1.47,0,0,0-.42,1.09h-1.11a2.21,2.21,0,0,1,.76-1.72,2.76,2.76,0,0,1,1.92-.68,2.66,2.66,0,0,1,1.92.65,2.32,2.32,0,0,1,.7,1.81,1.86,1.86,0,0,1-.37,1.09,2.16,2.16,0,0,1-1,.8,2.12,2.12,0,0,1,1.11.75,2.09,2.09,0,0,1,.39,1.28,2.38,2.38,0,0,1-.76,1.86,2.85,2.85,0,0,1-2,.68,3,3,0,0,1-2-.66,2.2,2.2,0,0,1-.77-1.75h1.11a1.41,1.41,0,0,0,.45,1.1,2,2,0,0,0,2.42,0,1.59,1.59,0,0,0,.43-1.2,1.47,1.47,0,0,0-.47-1.17,2,2,0,0,0-1.34-.41h-.83Z"/>
          <path d="M220.94,227.62a5,5,0,0,1-.67,2.88,2.35,2.35,0,0,1-2.07.94,2.37,2.37,0,0,1-2.06-.92,4.85,4.85,0,0,1-.69-2.75v-1.48a4.94,4.94,0,0,1,.66-2.84,2.81,2.81,0,0,1,4.15,0,4.81,4.81,0,0,1,.68,2.77Zm-1.11-1.51a4.06,4.06,0,0,0-.39-2,1.36,1.36,0,0,0-1.25-.65,1.34,1.34,0,0,0-1.23.64,3.87,3.87,0,0,0-.4,2v1.76a4.15,4.15,0,0,0,.4,2.08,1.36,1.36,0,0,0,1.24.67,1.35,1.35,0,0,0,1.22-.63,4,4,0,0,0,.41-2Z"/>
          <path d="M225.2,228a3.8,3.8,0,0,1,.37-1.71,2.89,2.89,0,0,1,1-1.17,2.86,2.86,0,0,1,1.52-.41,2.7,2.7,0,0,1,2.13.91,3.54,3.54,0,0,1,.82,2.43v.08a3.72,3.72,0,0,1-.37,1.69,2.73,2.73,0,0,1-1,1.17,2.84,2.84,0,0,1-1.54.41,2.7,2.7,0,0,1-2.13-.91,3.5,3.5,0,0,1-.81-2.41Zm1.11.13a2.71,2.71,0,0,0,.5,1.72,1.56,1.56,0,0,0,1.33.65,1.59,1.59,0,0,0,1.34-.66A3,3,0,0,0,230,228a2.79,2.79,0,0,0-.5-1.72,1.62,1.62,0,0,0-1.34-.66,1.56,1.56,0,0,0-1.32.65A2.94,2.94,0,0,0,226.31,228.17Z"/>
          <path d="M235.58,225.86a3.12,3.12,0,0,0-.54,0,1.46,1.46,0,0,0-1.48.92v4.59h-1.1v-6.46h1.07l0,.74a1.73,1.73,0,0,1,1.54-.86,1.21,1.21,0,0,1,.49.08Z"/>
          <path d="M245.09,228.17a3.86,3.86,0,0,1-.68,2.38,2.18,2.18,0,0,1-1.83.89,2.22,2.22,0,0,1-1.89-.86l-.06.75h-1v-9.17h1.1v3.42a2.27,2.27,0,0,1,1.85-.83,2.21,2.21,0,0,1,1.85.89,4,4,0,0,1,.67,2.43ZM244,228a3,3,0,0,0-.43-1.74,1.44,1.44,0,0,0-1.26-.61,1.62,1.62,0,0,0-1.57,1v2.79a1.68,1.68,0,0,0,1.59,1,1.43,1.43,0,0,0,1.23-.62A3.12,3.12,0,0,0,244,228Z"/>
          <path d="M249.16,231.44a2.8,2.8,0,0,1-2.14-.86,3.18,3.18,0,0,1-.82-2.3v-.21a3.9,3.9,0,0,1,.36-1.71,2.83,2.83,0,0,1,1-1.18,2.55,2.55,0,0,1,1.43-.43,2.44,2.44,0,0,1,2,.83,3.6,3.6,0,0,1,.7,2.37v.46H247.3a2.33,2.33,0,0,0,.56,1.55,1.76,1.76,0,0,0,1.36.58,2,2,0,0,0,1-.23,2.52,2.52,0,0,0,.71-.64l.67.53A2.7,2.7,0,0,1,249.16,231.44Zm-.14-5.78a1.47,1.47,0,0,0-1.12.48,2.39,2.39,0,0,0-.56,1.37h3.23v-.09a2.09,2.09,0,0,0-.45-1.3A1.38,1.38,0,0,0,249,225.66Z"/>
          <path d="M254.45,223.31v1.56h1.21v.85h-1.21v4a.87.87,0,0,0,.16.58.68.68,0,0,0,.55.2,3.51,3.51,0,0,0,.53-.07v.89a3.2,3.2,0,0,1-.85.11,1.36,1.36,0,0,1-1.12-.44,1.92,1.92,0,0,1-.37-1.27v-4h-1.18v-.85h1.18v-1.56Z"/>
          <path d="M258.44,223.31v1.56h1.21v.85h-1.21v4a.93.93,0,0,0,.16.58.68.68,0,0,0,.55.2,3.36,3.36,0,0,0,.53-.07v.89a3.15,3.15,0,0,1-.85.11,1.38,1.38,0,0,1-1.12-.44,1.92,1.92,0,0,1-.37-1.27v-4h-1.18v-.85h1.18v-1.56Z"/>
          <path d="M263.62,231.44a2.8,2.8,0,0,1-2.14-.86,3.18,3.18,0,0,1-.82-2.3v-.21a3.9,3.9,0,0,1,.36-1.71,2.83,2.83,0,0,1,1-1.18,2.55,2.55,0,0,1,1.43-.43,2.44,2.44,0,0,1,2,.83,3.6,3.6,0,0,1,.69,2.37v.46h-4.37a2.33,2.33,0,0,0,.56,1.55,1.75,1.75,0,0,0,1.36.58,2,2,0,0,0,1-.23,2.52,2.52,0,0,0,.71-.64l.67.53A2.7,2.7,0,0,1,263.62,231.44Zm-.14-5.78a1.47,1.47,0,0,0-1.12.48,2.33,2.33,0,0,0-.56,1.37H265v-.09a2.09,2.09,0,0,0-.45-1.3A1.38,1.38,0,0,0,263.48,225.66Z"/>
          <path d="M270.53,225.86a3,3,0,0,0-.54,0,1.45,1.45,0,0,0-1.47.92v4.59h-1.11v-6.46h1.08v.74a1.74,1.74,0,0,1,1.54-.86,1.21,1.21,0,0,1,.49.08Z"/>
          <path d="M280.29,229.8l1.24-4.93h1.1l-1.88,6.46h-.89l-1.57-4.9-1.53,4.9h-.89L274,224.87h1.1l1.27,4.83,1.51-4.83h.89Z"/>
          <path d="M286.44,231.44a2.8,2.8,0,0,1-2.14-.86,3.18,3.18,0,0,1-.82-2.3v-.21a3.9,3.9,0,0,1,.36-1.71,2.83,2.83,0,0,1,1-1.18,2.55,2.55,0,0,1,1.43-.43,2.44,2.44,0,0,1,2,.83A3.6,3.6,0,0,1,289,228v.46h-4.38a2.33,2.33,0,0,0,.56,1.55,1.76,1.76,0,0,0,1.36.58,2,2,0,0,0,1-.23,2.52,2.52,0,0,0,.71-.64l.67.53A2.7,2.7,0,0,1,286.44,231.44Zm-.14-5.78a1.47,1.47,0,0,0-1.12.48,2.39,2.39,0,0,0-.56,1.37h3.23v-.09a2.09,2.09,0,0,0-.45-1.3A1.38,1.38,0,0,0,286.3,225.66Z"/>
          <path d="M293.35,225.86a3,3,0,0,0-.54,0,1.45,1.45,0,0,0-1.47.92v4.59h-1.11v-6.46h1.08v.74a1.74,1.74,0,0,1,1.54-.86,1.21,1.21,0,0,1,.49.08Z"/>
          <path d="M296.94,231.44a2.8,2.8,0,0,1-2.14-.86,3.18,3.18,0,0,1-.82-2.3v-.21a3.9,3.9,0,0,1,.36-1.71,2.83,2.83,0,0,1,1-1.18,2.55,2.55,0,0,1,1.43-.43,2.44,2.44,0,0,1,2,.83,3.6,3.6,0,0,1,.7,2.37v.46h-4.38a2.33,2.33,0,0,0,.56,1.55,1.76,1.76,0,0,0,1.36.58,2,2,0,0,0,1-.23,2.52,2.52,0,0,0,.71-.64l.67.53A2.7,2.7,0,0,1,296.94,231.44Zm-.14-5.78a1.47,1.47,0,0,0-1.12.48,2.39,2.39,0,0,0-.56,1.37h3.23v-.09a2.09,2.09,0,0,0-.45-1.3A1.38,1.38,0,0,0,296.8,225.66Z"/>
          <path d="M306.88,225.86a3.12,3.12,0,0,0-.54,0,1.46,1.46,0,0,0-1.48.92v4.59h-1.1v-6.46h1.07l0,.74a1.73,1.73,0,0,1,1.54-.86,1.24,1.24,0,0,1,.49.08Z"/>
          <path d="M311.88,231.33a2.23,2.23,0,0,1-.15-.68,2.48,2.48,0,0,1-1.84.79,2.24,2.24,0,0,1-1.57-.54,1.72,1.72,0,0,1-.61-1.36,1.8,1.8,0,0,1,.77-1.57,3.62,3.62,0,0,1,2.15-.56h1.08v-.51a1.25,1.25,0,0,0-.35-.92,1.38,1.38,0,0,0-1-.34,1.62,1.62,0,0,0-1,.3.87.87,0,0,0-.4.72h-1.11a1.57,1.57,0,0,1,.34-.93,2.33,2.33,0,0,1,.93-.72,3.28,3.28,0,0,1,1.3-.26,2.59,2.59,0,0,1,1.75.56,2,2,0,0,1,.65,1.53v3a3.63,3.63,0,0,0,.23,1.41v.1Zm-1.83-.85a2,2,0,0,0,1-.26,1.69,1.69,0,0,0,.68-.7v-1.33h-.87c-1.35,0-2,.4-2,1.19a1,1,0,0,0,.35.81A1.31,1.31,0,0,0,310.05,230.48Z"/>
          <path d="M315.59,224.87l0,.81a2.36,2.36,0,0,1,1.93-.93q2.06,0,2.07,2.31v4.27h-1.1v-4.28a1.51,1.51,0,0,0-.32-1,1.3,1.3,0,0,0-1-.33,1.58,1.58,0,0,0-.94.28,1.92,1.92,0,0,0-.63.75v4.61h-1.11v-6.46Z"/>
          <path d="M321,228a3.79,3.79,0,0,1,.7-2.39,2.39,2.39,0,0,1,3.64-.12v-3.37h1.1v9.17h-1l-.05-.7a2.26,2.26,0,0,1-1.85.81,2.2,2.2,0,0,1-1.83-.91,3.86,3.86,0,0,1-.7-2.4Zm1.1.13a2.9,2.9,0,0,0,.45,1.72,1.49,1.49,0,0,0,1.26.62,1.61,1.61,0,0,0,1.53-.94v-3a1.62,1.62,0,0,0-1.52-.91,1.51,1.51,0,0,0-1.27.62A3.19,3.19,0,0,0,322.12,228.17Z"/>
          <path d="M327.88,228a3.8,3.8,0,0,1,.38-1.71,2.82,2.82,0,0,1,1-1.17,2.86,2.86,0,0,1,1.52-.41,2.72,2.72,0,0,1,2.13.91,3.53,3.53,0,0,1,.81,2.43v.08a3.85,3.85,0,0,1-.36,1.69,2.73,2.73,0,0,1-1,1.17,2.84,2.84,0,0,1-1.54.41,2.7,2.7,0,0,1-2.13-.91,3.5,3.5,0,0,1-.82-2.41Zm1.12.13a2.76,2.76,0,0,0,.49,1.72,1.6,1.6,0,0,0,1.34.65,1.57,1.57,0,0,0,1.33-.66,3,3,0,0,0,.5-1.84,2.73,2.73,0,0,0-.51-1.72,1.59,1.59,0,0,0-1.33-.66,1.56,1.56,0,0,0-1.32.65A2.94,2.94,0,0,0,329,228.17Z"/>
          <path d="M336.19,224.87l0,.71a2.39,2.39,0,0,1,1.91-.83,1.86,1.86,0,0,1,1.85,1,2.39,2.39,0,0,1,2-1c1.42,0,2.14.75,2.17,2.25v4.33h-1.11v-4.27a1.43,1.43,0,0,0-.32-1,1.38,1.38,0,0,0-1.06-.34,1.48,1.48,0,0,0-1,.36,1.5,1.5,0,0,0-.47,1v4.29h-1.11v-4.24a1.23,1.23,0,0,0-1.38-1.4,1.46,1.46,0,0,0-1.48.92v4.72h-1.11v-6.46Z"/>
          <path d="M345.87,223.16a.68.68,0,0,1,.16-.46.63.63,0,0,1,.49-.18.66.66,0,0,1,.49.18.68.68,0,0,1,.16.46.63.63,0,0,1-.16.44.66.66,0,0,1-.49.18.59.59,0,0,1-.65-.62Zm1.19,8.17H346v-6.46h1.1Z"/>
          <path d="M349.86,230.42h3.78v.91h-5.12v-.82l3.56-4.73h-3.51v-.91h4.89v.78Z"/>
          <path d="M357.48,231.44a2.8,2.8,0,0,1-2.14-.86,3.18,3.18,0,0,1-.82-2.3v-.21a3.9,3.9,0,0,1,.36-1.71,2.83,2.83,0,0,1,1-1.18,2.55,2.55,0,0,1,1.43-.43,2.44,2.44,0,0,1,2,.83A3.6,3.6,0,0,1,360,228v.46h-4.38a2.33,2.33,0,0,0,.56,1.55,1.76,1.76,0,0,0,1.36.58,2,2,0,0,0,1-.23,2.52,2.52,0,0,0,.71-.64l.67.53A2.7,2.7,0,0,1,357.48,231.44Zm-.14-5.78a1.47,1.47,0,0,0-1.12.48,2.39,2.39,0,0,0-.56,1.37h3.23v-.09a2.09,2.09,0,0,0-.45-1.3A1.38,1.38,0,0,0,357.34,225.66Z"/>
          <path d="M361,228a3.8,3.8,0,0,1,.71-2.39,2.39,2.39,0,0,1,3.64-.12v-3.37h1.1v9.17h-1l-.06-.7a2.24,2.24,0,0,1-1.84.81,2.2,2.2,0,0,1-1.83-.91,3.87,3.87,0,0,1-.71-2.4Zm1.11.13a2.9,2.9,0,0,0,.45,1.72,1.47,1.47,0,0,0,1.25.62,1.63,1.63,0,0,0,1.54-.94v-3a1.62,1.62,0,0,0-1.52-.91,1.49,1.49,0,0,0-1.27.62A3.19,3.19,0,0,0,362.11,228.17Z"/>
        </g>
        <g>
          <path d="M207.63,238v1.56h1.21v.86h-1.21v4a.93.93,0,0,0,.16.58.69.69,0,0,0,.55.19,2.48,2.48,0,0,0,.53-.07V246a3.17,3.17,0,0,1-.85.12,1.36,1.36,0,0,1-1.11-.45,1.91,1.91,0,0,1-.38-1.27v-4h-1.18v-.86h1.18V238Z"/>
          <path d="M209.84,242.7a3.76,3.76,0,0,1,.37-1.7,2.7,2.7,0,0,1,1-1.17,2.77,2.77,0,0,1,1.52-.41,2.7,2.7,0,0,1,2.13.91,3.53,3.53,0,0,1,.81,2.43v.07a3.89,3.89,0,0,1-.36,1.7,2.65,2.65,0,0,1-1,1.16,2.85,2.85,0,0,1-1.54.42,2.7,2.7,0,0,1-2.13-.91,3.52,3.52,0,0,1-.81-2.42Zm1.11.13a2.78,2.78,0,0,0,.49,1.73,1.62,1.62,0,0,0,1.34.65,1.6,1.6,0,0,0,1.34-.66,3,3,0,0,0,.49-1.85,2.81,2.81,0,0,0-.5-1.72,1.62,1.62,0,0,0-1.34-.66,1.58,1.58,0,0,0-1.32.65A3,3,0,0,0,211,242.83Z"/>
          <path d="M221.62,238v1.56h1.21v.86h-1.21v4a.93.93,0,0,0,.16.58.68.68,0,0,0,.55.19,2.56,2.56,0,0,0,.53-.07V246a3.17,3.17,0,0,1-.85.12,1.38,1.38,0,0,1-1.12-.45,1.91,1.91,0,0,1-.37-1.27v-4h-1.18v-.86h1.18V238Z"/>
          <path d="M225.22,240.32a2.35,2.35,0,0,1,1.91-.9c1.37,0,2.05.77,2.07,2.3V246h-1.11v-4.27a1.44,1.44,0,0,0-.32-1,1.24,1.24,0,0,0-1-.34,1.62,1.62,0,0,0-1,.29,1.92,1.92,0,0,0-.63.75V246h-1.1v-9.16h1.1Z"/>
          <path d="M233.53,246.11a2.84,2.84,0,0,1-2.14-.86,3.2,3.2,0,0,1-.82-2.31v-.2a4,4,0,0,1,.36-1.72,3,3,0,0,1,1-1.18,2.62,2.62,0,0,1,1.43-.42,2.41,2.41,0,0,1,2,.83,3.6,3.6,0,0,1,.7,2.37v.46h-4.38a2.28,2.28,0,0,0,.56,1.54,1.77,1.77,0,0,0,1.36.59,1.91,1.91,0,0,0,1-.24,2.64,2.64,0,0,0,.71-.63l.67.52A2.69,2.69,0,0,1,233.53,246.11Zm-.14-5.79a1.44,1.44,0,0,0-1.12.49,2.36,2.36,0,0,0-.56,1.36h3.23v-.08a2.07,2.07,0,0,0-.45-1.3A1.39,1.39,0,0,0,233.39,240.32Z"/>
          <path d="M240.08,242.71a3.77,3.77,0,0,1,.7-2.39,2.24,2.24,0,0,1,1.85-.9,2.22,2.22,0,0,1,1.79.77v-3.36h1.11V246h-1l0-.69a2.25,2.25,0,0,1-1.84.81,2.21,2.21,0,0,1-1.83-.92,3.83,3.83,0,0,1-.71-2.4Zm1.1.12a2.79,2.79,0,0,0,.46,1.72,1.45,1.45,0,0,0,1.25.62,1.6,1.6,0,0,0,1.53-.94v-3a1.62,1.62,0,0,0-1.52-.92,1.46,1.46,0,0,0-1.26.63A3.1,3.1,0,0,0,241.18,242.83Z"/>
          <path d="M247,242.7a3.76,3.76,0,0,1,.37-1.7,2.74,2.74,0,0,1,2.56-1.58,2.7,2.7,0,0,1,2.13.91,3.54,3.54,0,0,1,.82,2.43v.07a3.89,3.89,0,0,1-.36,1.7,2.73,2.73,0,0,1-1,1.16,2.82,2.82,0,0,1-1.54.42,2.72,2.72,0,0,1-2.13-.91,3.52,3.52,0,0,1-.81-2.42Zm1.11.13a2.72,2.72,0,0,0,.5,1.73,1.69,1.69,0,0,0,2.67,0,3,3,0,0,0,.49-1.85,2.81,2.81,0,0,0-.5-1.72,1.6,1.6,0,0,0-1.34-.66,1.58,1.58,0,0,0-1.32.65A3,3,0,0,0,248.06,242.83Z"/>
          <path d="M258.2,245.35a2.33,2.33,0,0,1-1.89.76,2,2,0,0,1-1.58-.6,2.57,2.57,0,0,1-.54-1.77v-4.21h1.1v4.18c0,1,.4,1.46,1.2,1.46a1.65,1.65,0,0,0,1.68-.94v-4.7h1.1V246h-1Z"/>
          <path d="M266.42,242.83a3.8,3.8,0,0,1-.69,2.38,2.16,2.16,0,0,1-1.82.9,2.25,2.25,0,0,1-1.89-.86L262,246h-1v-9.16h1.1v3.42a2.23,2.23,0,0,1,1.85-.83,2.17,2.17,0,0,1,1.84.88,4,4,0,0,1,.68,2.44Zm-1.11-.12a3,3,0,0,0-.43-1.74,1.46,1.46,0,0,0-1.26-.62,1.62,1.62,0,0,0-1.57,1v2.79a1.66,1.66,0,0,0,1.58,1,1.43,1.43,0,0,0,1.24-.61A3.22,3.22,0,0,0,265.31,242.71Z"/>
          <path d="M269,246h-1.1v-9.16H269Z"/>
          <path d="M273.45,246.11a2.82,2.82,0,0,1-2.13-.86,3.21,3.21,0,0,1-.83-2.31v-.2a3.84,3.84,0,0,1,.37-1.72,2.94,2.94,0,0,1,1-1.18,2.62,2.62,0,0,1,1.43-.42,2.39,2.39,0,0,1,2,.83,3.55,3.55,0,0,1,.7,2.37v.46H271.6a2.27,2.27,0,0,0,.55,1.54,1.77,1.77,0,0,0,1.36.59,1.91,1.91,0,0,0,1-.24,2.5,2.5,0,0,0,.71-.63l.68.52A2.72,2.72,0,0,1,273.45,246.11Zm-.14-5.79a1.46,1.46,0,0,0-1.12.49,2.36,2.36,0,0,0-.56,1.36h3.24v-.08a2.13,2.13,0,0,0-.46-1.3A1.38,1.38,0,0,0,273.31,240.32Z"/>
          <path d="M279.54,242.75h-2.91v-.9h2.91Z"/>
          <path d="M286.08,242.83a3.8,3.8,0,0,1-.68,2.38,2.16,2.16,0,0,1-1.82.9,2.25,2.25,0,0,1-1.89-.86l-.06.74h-1v-9.16h1.1v3.42a2.23,2.23,0,0,1,1.85-.83,2.18,2.18,0,0,1,1.84.88,4,4,0,0,1,.67,2.44Zm-1.1-.12a3,3,0,0,0-.44-1.74,1.43,1.43,0,0,0-1.25-.62,1.62,1.62,0,0,0-1.57,1v2.79a1.66,1.66,0,0,0,1.58,1,1.44,1.44,0,0,0,1.24-.61A3.22,3.22,0,0,0,285,242.71Z"/>
          <path d="M288.67,246h-1.1v-9.16h1.1Z"/>
          <path d="M290.45,237.82a.6.6,0,0,1,.65-.64.65.65,0,0,1,.49.19.63.63,0,0,1-.49,1.08.63.63,0,0,1-.49-.18A.64.64,0,0,1,290.45,237.82Zm1.19,8.17h-1.1v-6.46h1.1Z"/>
          <path d="M294.45,239.53l0,.82a2.34,2.34,0,0,1,1.93-.93c1.37,0,2.05.77,2.07,2.3V246h-1.11v-4.27a1.44,1.44,0,0,0-.32-1,1.24,1.24,0,0,0-1-.34,1.62,1.62,0,0,0-.95.29,1.92,1.92,0,0,0-.63.75V246h-1.1v-6.46Z"/>
          <path d="M299.88,242.71a3.78,3.78,0,0,1,.71-2.39,2.21,2.21,0,0,1,1.84-.9,2.24,2.24,0,0,1,1.8.77v-3.36h1.1V246h-1l-.06-.69a2.24,2.24,0,0,1-1.84.81,2.21,2.21,0,0,1-1.83-.92,3.83,3.83,0,0,1-.71-2.4Zm1.11.12a2.86,2.86,0,0,0,.45,1.72,1.45,1.45,0,0,0,1.25.62,1.62,1.62,0,0,0,1.54-.94v-3a1.63,1.63,0,0,0-1.53-.92,1.46,1.46,0,0,0-1.26.63A3.18,3.18,0,0,0,301,242.83Z"/>
          <path d="M315.52,242.83a3.86,3.86,0,0,1-.67,2.38,2.17,2.17,0,0,1-1.83.9,2.4,2.4,0,0,1-1.85-.74v3.1h-1.1v-8.94h1l.05.72a2.25,2.25,0,0,1,1.87-.83,2.2,2.2,0,0,1,1.84.87,3.87,3.87,0,0,1,.68,2.44Zm-1.1-.12A2.89,2.89,0,0,0,314,241a1.49,1.49,0,0,0-1.27-.63,1.64,1.64,0,0,0-1.51.89v3.09a1.63,1.63,0,0,0,1.52.88,1.48,1.48,0,0,0,1.26-.63A3.12,3.12,0,0,0,314.42,242.71Z"/>
          <path d="M318,240.32a2.35,2.35,0,0,1,1.91-.9c1.36,0,2.05.77,2.06,2.3V246h-1.1v-4.27a1.44,1.44,0,0,0-.32-1,1.25,1.25,0,0,0-1-.34,1.61,1.61,0,0,0-.94.29,1.92,1.92,0,0,0-.63.75V246h-1.1v-9.16H318Z"/>
          <path d="M327.64,246a2.49,2.49,0,0,1-.15-.68,2.49,2.49,0,0,1-1.84.8,2.29,2.29,0,0,1-1.57-.54,1.78,1.78,0,0,1-.61-1.37,1.85,1.85,0,0,1,.77-1.57,3.63,3.63,0,0,1,2.16-.55h1.07v-.51a1.24,1.24,0,0,0-.35-.92,1.39,1.39,0,0,0-1-.35,1.62,1.62,0,0,0-1,.3.9.9,0,0,0-.4.73H323.6a1.52,1.52,0,0,1,.35-.94,2.25,2.25,0,0,1,.93-.71,3,3,0,0,1,1.29-.26,2.57,2.57,0,0,1,1.75.55,2,2,0,0,1,.65,1.54v3a3.69,3.69,0,0,0,.23,1.42V246Zm-1.83-.84a1.94,1.94,0,0,0,1-.27,1.61,1.61,0,0,0,.67-.7v-1.32h-.87c-1.35,0-2,.39-2,1.19a1,1,0,0,0,.34.81A1.36,1.36,0,0,0,325.81,245.15Z"/>
          <path d="M334.06,244.28a.83.83,0,0,0-.33-.7,3.44,3.44,0,0,0-1.18-.42,5.93,5.93,0,0,1-1.33-.43,2,2,0,0,1-.73-.6,1.39,1.39,0,0,1-.23-.82,1.68,1.68,0,0,1,.67-1.35,3,3,0,0,1,3.49,0,1.79,1.79,0,0,1,.69,1.45H334a1,1,0,0,0-.39-.78,1.43,1.43,0,0,0-1-.33,1.54,1.54,0,0,0-.94.26.83.83,0,0,0-.34.69.66.66,0,0,0,.32.6,3.63,3.63,0,0,0,1.14.39,6.36,6.36,0,0,1,1.34.44,2,2,0,0,1,.76.62,1.57,1.57,0,0,1,.25.88,1.66,1.66,0,0,1-.69,1.39,2.91,2.91,0,0,1-1.8.52,3.25,3.25,0,0,1-1.37-.27,2.32,2.32,0,0,1-.94-.77A1.88,1.88,0,0,1,330,244h1.1a1.15,1.15,0,0,0,.44.88,2.06,2.06,0,0,0,2.1.08A.77.77,0,0,0,334.06,244.28Z"/>
          <path d="M339.29,246.11a2.84,2.84,0,0,1-2.14-.86,3.2,3.2,0,0,1-.82-2.31v-.2a4,4,0,0,1,.36-1.72,3,3,0,0,1,1-1.18,2.6,2.6,0,0,1,1.43-.42,2.41,2.41,0,0,1,2,.83,3.6,3.6,0,0,1,.69,2.37v.46h-4.37a2.28,2.28,0,0,0,.56,1.54,1.75,1.75,0,0,0,1.35.59,1.92,1.92,0,0,0,1-.24,2.64,2.64,0,0,0,.71-.63l.67.52A2.69,2.69,0,0,1,339.29,246.11Zm-.14-5.79a1.44,1.44,0,0,0-1.12.49,2.36,2.36,0,0,0-.57,1.36h3.24v-.08a2.07,2.07,0,0,0-.45-1.3A1.39,1.39,0,0,0,339.15,240.32Z"/>
        </g>
        <path d="M346.35,241.46a1,1,0,0,0,.6-.2.77.77,0,0,0,.29-.53h.6a1.14,1.14,0,0,1-.22.62,1.5,1.5,0,0,1-.55.47,1.62,1.62,0,0,1-.72.17,1.55,1.55,0,0,1-1.22-.51,2,2,0,0,1-.46-1.41V240a2.3,2.3,0,0,1,.2-1,1.59,1.59,0,0,1,.58-.67,1.71,1.71,0,0,1,.89-.23,1.48,1.48,0,0,1,1.06.38,1.31,1.31,0,0,1,.44,1h-.6a.94.94,0,0,0-.28-.6.86.86,0,0,0-.62-.24.9.9,0,0,0-.76.36,1.7,1.7,0,0,0-.26,1v.12a1.61,1.61,0,0,0,.26,1A.9.9,0,0,0,346.35,241.46Z"/>
        <g>
          <path d="M109.05,6.11V9.17H107.3V.48h3a2.71,2.71,0,0,1,2.06.8,2.86,2.86,0,0,1,.76,2.07,2.66,2.66,0,0,1-.76,2,2.88,2.88,0,0,1-2.1.74Zm0-1.46h1.21a1,1,0,0,0,.78-.33,1.47,1.47,0,0,0,.27-1,1.71,1.71,0,0,0-.28-1,.89.89,0,0,0-.75-.39h-1.23Z"/>
          <path d="M117.17,9.17a3.42,3.42,0,0,1-.14-.5,1.45,1.45,0,0,1-1.23.62,1.79,1.79,0,0,1-1.34-.54,1.88,1.88,0,0,1-.54-1.39,2,2,0,0,1,.65-1.57,2.84,2.84,0,0,1,1.87-.57H117V4.7a1,1,0,0,0-.15-.61.54.54,0,0,0-.44-.18c-.42,0-.63.25-.63.74H114a1.9,1.9,0,0,1,.67-1.48,2.51,2.51,0,0,1,1.7-.58,2.3,2.3,0,0,1,1.65.55,2.11,2.11,0,0,1,.58,1.58v3a3,3,0,0,0,.24,1.3v.11Zm-1-1.21a1,1,0,0,0,.48-.11,1,1,0,0,0,.29-.27V6.24h-.41a.86.86,0,0,0-.67.27,1,1,0,0,0-.25.74C115.62,7.72,115.8,8,116.18,8Z"/>
          <path d="M123.05,4.34l-.56,0a.91.91,0,0,0-.94.61V9.17h-1.7V2.71h1.6l0,.7a1.21,1.21,0,0,1,1.1-.82,1.15,1.15,0,0,1,.46.08Z"/>
          <path d="M126,1.12V2.71h.87V4H126V7.18a1,1,0,0,0,.11.53.45.45,0,0,0,.4.14,1.49,1.49,0,0,0,.4,0V9.12a2.6,2.6,0,0,1-.93.17c-1.09,0-1.64-.63-1.65-1.88V4h-.75V2.71h.75V1.12Z"/>
          <path d="M134.25,9.17h-1.69V2.53l-1.66.64V1.76L134.07.47h.18Z"/>
          <path d="M136.91,3.43a.89.89,0,0,1,.27-.67,1,1,0,0,1,.71-.27,1,1,0,0,1,.7.26.89.89,0,0,1,.29.68.87.87,0,0,1-.29.67,1,1,0,0,1-.7.25,1,1,0,0,1-.7-.26A.84.84,0,0,1,136.91,3.43Zm0,4.88a.89.89,0,0,1,.27-.67,1,1,0,0,1,.71-.26,1,1,0,0,1,.7.26.92.92,0,0,1,0,1.34,1.1,1.1,0,0,1-1.4,0A.88.88,0,0,1,136.91,8.31Z"/>
          <path d="M142.74,5.73a3.49,3.49,0,0,1,.69-2.3,2.61,2.61,0,0,1,3.84,0A3.5,3.5,0,0,1,148,5.74v.41a3.52,3.52,0,0,1-.68,2.31,2.37,2.37,0,0,1-1.92.83,2.34,2.34,0,0,1-1.93-.84,3.5,3.5,0,0,1-.69-2.31Zm1.69.42c0,1.16.31,1.73.93,1.73s.87-.48.91-1.44V5.73A2.75,2.75,0,0,0,146,4.42a.77.77,0,0,0-.7-.43.74.74,0,0,0-.67.43,2.75,2.75,0,0,0-.24,1.31Z"/>
          <path d="M154,6.14a4.28,4.28,0,0,1-.52,2.33,1.71,1.71,0,0,1-1.55.82,1.52,1.52,0,0,1-1.27-.64v3H149V2.71h1.57l.06.59A1.52,1.52,0,0,1,152,2.59a1.77,1.77,0,0,1,1.55.75A4.06,4.06,0,0,1,154,5.65Zm-1.68-.42a3.2,3.2,0,0,0-.2-1.33.73.73,0,0,0-.7-.39.81.81,0,0,0-.76.44v3a.81.81,0,0,0,.77.41.7.7,0,0,0,.7-.42,3.34,3.34,0,0,0,.19-1.32Z"/>
          <path d="M157.67,9.29a2.66,2.66,0,0,1-2-.78,3.15,3.15,0,0,1-.72-2.22V5.78a3.7,3.7,0,0,1,.66-2.36,2.34,2.34,0,0,1,1.92-.83,2.19,2.19,0,0,1,1.83.78,3.71,3.71,0,0,1,.63,2.3V6.5H156.6a1.7,1.7,0,0,0,.32,1,1.05,1.05,0,0,0,.86.33,1.89,1.89,0,0,0,1.42-.58l.66,1A2.3,2.3,0,0,1,159,9,3.11,3.11,0,0,1,157.67,9.29Zm-1.06-4h1.69V5.17a1.83,1.83,0,0,0-.19-.88.67.67,0,0,0-.62-.3.69.69,0,0,0-.64.32A2.16,2.16,0,0,0,156.61,5.32Z"/>
          <path d="M162.46,2.71l0,.64A1.77,1.77,0,0,1,164,2.59c1.11,0,1.69.78,1.72,2.33V9.17H164V5.05a1.5,1.5,0,0,0-.16-.8.65.65,0,0,0-.58-.25.79.79,0,0,0-.71.48V9.17h-1.7V2.71Z"/>
          <path d="M170,6.15h-2.92V4.74H170Z"/>
          <path d="M173.14,9.17h-1.69V0h1.69Z"/>
          <path d="M177.52,9.17a2.36,2.36,0,0,1-.15-.5,1.45,1.45,0,0,1-1.23.62,1.79,1.79,0,0,1-1.34-.54,1.88,1.88,0,0,1-.54-1.39,2,2,0,0,1,.65-1.57,2.84,2.84,0,0,1,1.87-.57h.51V4.7a1,1,0,0,0-.15-.61.53.53,0,0,0-.44-.18c-.42,0-.63.25-.63.74h-1.69a1.9,1.9,0,0,1,.67-1.48,2.51,2.51,0,0,1,1.7-.58,2.3,2.3,0,0,1,1.65.55A2.11,2.11,0,0,1,179,4.72v3a3.2,3.2,0,0,0,.24,1.3v.11Zm-1-1.21a1,1,0,0,0,.48-.11.85.85,0,0,0,.29-.27V6.24h-.41a.86.86,0,0,0-.67.27,1,1,0,0,0-.25.74C176,7.72,176.15,8,176.52,8Z"/>
          <path d="M185.24,6.15a4.46,4.46,0,0,1-.5,2.35,1.75,1.75,0,0,1-1.58.79,1.57,1.57,0,0,1-1.35-.76l-.05.64H180.2V0h1.69V3.23a1.52,1.52,0,0,1,1.26-.64,1.73,1.73,0,0,1,1.57.78,4.27,4.27,0,0,1,.52,2.28Zm-1.69-.43a3.2,3.2,0,0,0-.2-1.37.72.72,0,0,0-.68-.35.82.82,0,0,0-.78.49V7.43a.8.8,0,0,0,.79.45.72.72,0,0,0,.67-.31,2.88,2.88,0,0,0,.2-1.23Z"/>
          <path d="M188.86,9.29a2.64,2.64,0,0,1-2-.78,3.16,3.16,0,0,1-.73-2.22V5.78a3.7,3.7,0,0,1,.67-2.36,2.34,2.34,0,0,1,1.92-.83,2.19,2.19,0,0,1,1.83.78,3.71,3.71,0,0,1,.63,2.3V6.5h-3.36a1.77,1.77,0,0,0,.31,1,1.09,1.09,0,0,0,.87.33,1.89,1.89,0,0,0,1.41-.58l.66,1a2.16,2.16,0,0,1-.9.69A3,3,0,0,1,188.86,9.29Zm-1.06-4h1.69V5.17a1.83,1.83,0,0,0-.19-.88.67.67,0,0,0-.63-.3.72.72,0,0,0-.64.32A2.17,2.17,0,0,0,187.8,5.32Z"/>
          <path d="M193.87,9.17h-1.69V0h1.69Z"/>
          <path d="M201.18,4.34l-.56,0a.91.91,0,0,0-.93.61V9.17H198V2.71h1.59l0,.7a1.23,1.23,0,0,1,1.11-.82,1.19,1.19,0,0,1,.46.08Z"/>
          <path d="M205.22,8.58a1.67,1.67,0,0,1-1.41.71,1.56,1.56,0,0,1-1.34-.62A2.89,2.89,0,0,1,202,6.89V2.71h1.69V6.93c0,.63.21,1,.62,1a.88.88,0,0,0,.84-.5V2.71h1.7V9.17h-1.59Z"/>
          <path d="M209.61,2.71l0,.64a1.78,1.78,0,0,1,1.5-.76c1.1,0,1.68.78,1.71,2.33V9.17h-1.7V5.05a1.5,1.5,0,0,0-.16-.8.65.65,0,0,0-.58-.25.79.79,0,0,0-.71.48V9.17H208V2.71Z"/>
          <path d="M217.12,6.15H214.2V4.74h2.92Z"/>
          <path d="M218.52,1a.88.88,0,0,1,.25-.65,1,1,0,0,1,1.34,0,.92.92,0,0,1,.25.65.9.9,0,0,1-.25.64.9.9,0,0,1-.67.26.89.89,0,0,1-.67-.26A.86.86,0,0,1,218.52,1Zm1.77,8.13H218.6V2.71h1.69Z"/>
          <path d="M223.14,2.71l.05.64a1.78,1.78,0,0,1,1.5-.76c1.11,0,1.68.78,1.71,2.33V9.17h-1.69V5.05a1.49,1.49,0,0,0-.17-.8A.65.65,0,0,0,224,4a.79.79,0,0,0-.72.48V9.17h-1.69V2.71Z"/>
        </g>
        <g>
          <path d="M104.51,20.31a9.21,9.21,0,0,1,.36-2.59A7.49,7.49,0,0,1,106,15.46,4.52,4.52,0,0,1,107.44,14l.22.73a4.68,4.68,0,0,0-1.43,2,9,9,0,0,0-.61,3.07v.51a8.93,8.93,0,0,0,.84,4,4.74,4.74,0,0,0,1.2,1.58l-.22.68a4.8,4.8,0,0,1-1.52-1.48A8.3,8.3,0,0,1,104.51,20.31Z"/>
          <path d="M112.25,23.83h-1.12V16.47l-2.22.82v-1l3.16-1.19h.18Z"/>
          <path d="M120.75,17.41a2.08,2.08,0,0,1-.34,1.16,2.32,2.32,0,0,1-.93.79,2.56,2.56,0,0,1,1.08.86,2.15,2.15,0,0,1,.39,1.27,2.24,2.24,0,0,1-.76,1.79,3.34,3.34,0,0,1-4,0,2.28,2.28,0,0,1-.75-1.79,2.16,2.16,0,0,1,.38-1.27,2.35,2.35,0,0,1,1.07-.86,2.31,2.31,0,0,1-.92-.8,2,2,0,0,1-.33-1.15,2.24,2.24,0,0,1,.7-1.74,3,3,0,0,1,3.71,0A2.25,2.25,0,0,1,120.75,17.41Zm-.9,4.05a1.61,1.61,0,0,0-.46-1.18,1.64,1.64,0,0,0-1.21-.46,1.55,1.55,0,0,0-1.65,1.64,1.57,1.57,0,0,0,.44,1.17,1.69,1.69,0,0,0,1.22.42,1.67,1.67,0,0,0,1.22-.43A1.54,1.54,0,0,0,119.85,21.46Zm-1.66-5.53a1.44,1.44,0,0,0-1,.4,1.66,1.66,0,0,0,0,2.17,1.42,1.42,0,0,0,1.06.41,1.43,1.43,0,0,0,1.06-.41,1.49,1.49,0,0,0,.4-1.07,1.46,1.46,0,0,0-.42-1.08A1.39,1.39,0,0,0,118.19,15.93Z"/>
          <path d="M124.75,20.59h-2.91v-.9h2.91Z"/>
          <path d="M131.54,22.31l1.25-4.93h1.1L132,23.83h-.89l-1.57-4.89L128,23.83h-.9l-1.87-6.45h1.1l1.27,4.83,1.5-4.83H130Z"/>
          <path d="M137.69,24a2.85,2.85,0,0,1-2.14-.86,3.2,3.2,0,0,1-.82-2.31v-.2a3.84,3.84,0,0,1,.37-1.72,2.86,2.86,0,0,1,1-1.18,2.62,2.62,0,0,1,1.43-.42,2.41,2.41,0,0,1,2,.83,3.55,3.55,0,0,1,.7,2.37v.46h-4.38a2.33,2.33,0,0,0,.56,1.54,1.77,1.77,0,0,0,1.36.59,1.91,1.91,0,0,0,1-.24,2.5,2.5,0,0,0,.71-.63l.68.52A2.72,2.72,0,0,1,137.69,24Zm-.14-5.79a1.49,1.49,0,0,0-1.12.49,2.36,2.36,0,0,0-.56,1.36h3.24v-.08a2.13,2.13,0,0,0-.46-1.3A1.39,1.39,0,0,0,137.55,18.16Z"/>
          <path d="M144.17,24a2.84,2.84,0,0,1-2.14-.86,3.2,3.2,0,0,1-.82-2.31v-.2a4,4,0,0,1,.36-1.72,3,3,0,0,1,1-1.18,2.6,2.6,0,0,1,1.43-.42,2.41,2.41,0,0,1,2,.83,3.6,3.6,0,0,1,.69,2.37v.46h-4.37a2.28,2.28,0,0,0,.56,1.54,1.75,1.75,0,0,0,1.35.59,1.92,1.92,0,0,0,1-.24,2.64,2.64,0,0,0,.71-.63l.67.52A2.69,2.69,0,0,1,144.17,24ZM144,18.16a1.48,1.48,0,0,0-1.12.49,2.36,2.36,0,0,0-.57,1.36h3.24v-.08a2.07,2.07,0,0,0-.45-1.3A1.39,1.39,0,0,0,144,18.16Z"/>
          <path d="M149.76,20.84l-.69.72v2.27H148V14.67h1.1v5.54l.59-.71,2-2.12H153l-2.52,2.69,2.81,3.76H152Z"/>
          <path d="M160.3,18.37a3.1,3.1,0,0,0-.54-.05,1.45,1.45,0,0,0-1.47.93v4.58h-1.11V17.38h1.07l0,.74a1.71,1.71,0,0,1,1.54-.86,1.06,1.06,0,0,1,.49.08Z"/>
          <path d="M165.3,23.19a2.33,2.33,0,0,1-1.89.76,2,2,0,0,1-1.57-.6,2.62,2.62,0,0,1-.55-1.77v-4.2h1.11v4.17c0,1,.39,1.47,1.19,1.47a1.65,1.65,0,0,0,1.68-.95V17.38h1.11v6.45h-1Z"/>
          <path d="M169.1,17.38l0,.81a2.37,2.37,0,0,1,1.94-.93c1.36,0,2.05.77,2.06,2.31v4.26H172V19.56a1.49,1.49,0,0,0-.32-1,1.27,1.27,0,0,0-1-.34,1.61,1.61,0,0,0-.94.29,1.92,1.92,0,0,0-.63.75v4.6h-1.11V17.38Z"/>
          <path d="M177.09,20.59h-2.91v-.9h2.91Z"/>
          <path d="M178.18,15.66a.6.6,0,0,1,.65-.64.66.66,0,0,1,.49.19.71.71,0,0,1,0,.9.66.66,0,0,1-.49.18.63.63,0,0,1-.49-.18A.64.64,0,0,1,178.18,15.66Zm1.19,8.17h-1.11V17.38h1.11Z"/>
          <path d="M182.18,17.38l0,.81a2.34,2.34,0,0,1,1.93-.93c1.36,0,2,.77,2.06,2.31v4.26h-1.1V19.56a1.44,1.44,0,0,0-.32-1,1.25,1.25,0,0,0-1-.34,1.61,1.61,0,0,0-.94.29,1.92,1.92,0,0,0-.63.75v4.6h-1.1V17.38Z"/>
          <path d="M196.36,20.68a3.85,3.85,0,0,1-.68,2.37,2.15,2.15,0,0,1-1.82.9,2.38,2.38,0,0,1-1.85-.74v3.1H190.9V17.38h1l.06.71a2.25,2.25,0,0,1,1.87-.83,2.2,2.2,0,0,1,1.84.87,3.93,3.93,0,0,1,.68,2.44Zm-1.11-.13a2.83,2.83,0,0,0-.46-1.72,1.49,1.49,0,0,0-1.28-.64,1.62,1.62,0,0,0-1.5.89v3.09a1.61,1.61,0,0,0,1.51.88,1.51,1.51,0,0,0,1.27-.63A3.13,3.13,0,0,0,195.25,20.55Z"/>
          <path d="M198.87,18.16a2.32,2.32,0,0,1,1.9-.9q2.05,0,2.07,2.31v4.26h-1.1V19.56a1.54,1.54,0,0,0-.32-1,1.27,1.27,0,0,0-1-.34,1.59,1.59,0,0,0-.94.29,1.92,1.92,0,0,0-.63.75v4.6h-1.11V14.67h1.11Z"/>
          <path d="M208.48,23.83a2.31,2.31,0,0,1-.16-.68,2.42,2.42,0,0,1-1.83.8,2.29,2.29,0,0,1-1.57-.54,1.73,1.73,0,0,1-.61-1.37,1.81,1.81,0,0,1,.76-1.56,3.58,3.58,0,0,1,2.16-.56h1.08v-.51a1.24,1.24,0,0,0-.35-.92,1.38,1.38,0,0,0-1-.34,1.59,1.59,0,0,0-1,.29.88.88,0,0,0-.4.73h-1.11a1.51,1.51,0,0,1,.34-.94,2.31,2.31,0,0,1,.93-.71,3.07,3.07,0,0,1,1.29-.26,2.55,2.55,0,0,1,1.75.55,2.06,2.06,0,0,1,.66,1.54v3a3.65,3.65,0,0,0,.23,1.42v.09ZM206.65,23a1.93,1.93,0,0,0,1-.27,1.63,1.63,0,0,0,.68-.7V20.7h-.87c-1.35,0-2,.4-2,1.19a1,1,0,0,0,.35.81A1.36,1.36,0,0,0,206.65,23Z"/>
          <path d="M214.9,22.12a.81.81,0,0,0-.34-.7,3.29,3.29,0,0,0-1.17-.42,5.32,5.32,0,0,1-1.33-.43,2,2,0,0,1-.73-.6,1.39,1.39,0,0,1-.24-.82,1.68,1.68,0,0,1,.67-1.34,2.61,2.61,0,0,1,1.72-.55,2.73,2.73,0,0,1,1.78.56,1.79,1.79,0,0,1,.68,1.45h-1.11a1,1,0,0,0-.38-.78,1.44,1.44,0,0,0-1-.33,1.46,1.46,0,0,0-.94.27.8.8,0,0,0-.34.68.65.65,0,0,0,.31.6,3.62,3.62,0,0,0,1.15.39,6.56,6.56,0,0,1,1.34.44,2.1,2.1,0,0,1,.76.62A1.57,1.57,0,0,1,216,22a1.66,1.66,0,0,1-.69,1.39,2.88,2.88,0,0,1-1.79.52,3.33,3.33,0,0,1-1.38-.27,2.29,2.29,0,0,1-.93-.77,1.81,1.81,0,0,1-.34-1.06H212a1.13,1.13,0,0,0,.44.88,2.09,2.09,0,0,0,2.1.07A.79.79,0,0,0,214.9,22.12Z"/>
          <path d="M220.12,24a2.82,2.82,0,0,1-2.13-.86,3.21,3.21,0,0,1-.83-2.31v-.2a3.84,3.84,0,0,1,.37-1.72,2.94,2.94,0,0,1,1-1.18,2.62,2.62,0,0,1,1.43-.42,2.39,2.39,0,0,1,2,.83,3.55,3.55,0,0,1,.7,2.37v.46h-4.37a2.27,2.27,0,0,0,.55,1.54,1.77,1.77,0,0,0,1.36.59,1.91,1.91,0,0,0,1-.24,2.5,2.5,0,0,0,.71-.63l.68.52A2.72,2.72,0,0,1,220.12,24ZM220,18.16a1.49,1.49,0,0,0-1.12.49A2.36,2.36,0,0,0,218.3,20h3.24v-.08a2.13,2.13,0,0,0-.46-1.3A1.38,1.38,0,0,0,220,18.16Z"/>
          <path d="M226.47,20.37a9.4,9.4,0,0,1-.35,2.55,7.76,7.76,0,0,1-1.07,2.25,4.63,4.63,0,0,1-1.51,1.47l-.23-.68a4.91,4.91,0,0,0,1.48-2.18,9.59,9.59,0,0,0,.57-3.3v-.19a9.61,9.61,0,0,0-.27-2.33,7.89,7.89,0,0,0-.73-1.93,4.42,4.42,0,0,0-1.05-1.33l.23-.67a4.54,4.54,0,0,1,1.5,1.45,7.52,7.52,0,0,1,1.07,2.25A9.36,9.36,0,0,1,226.47,20.37Z"/>
        </g>
        <g>
          <path d="M320.45,6.11V9.17H318.7V.48h3a2.67,2.67,0,0,1,2,.8,2.82,2.82,0,0,1,.77,2.07,2.66,2.66,0,0,1-.76,2,2.88,2.88,0,0,1-2.1.74Zm0-1.46h1.21a.94.94,0,0,0,.77-.33,1.42,1.42,0,0,0,.28-1,1.71,1.71,0,0,0-.28-1,.89.89,0,0,0-.75-.39h-1.23Z"/>
          <path d="M328.57,9.17a3.42,3.42,0,0,1-.14-.5,1.45,1.45,0,0,1-1.23.62,1.79,1.79,0,0,1-1.34-.54,1.88,1.88,0,0,1-.54-1.39A2,2,0,0,1,326,5.79a2.83,2.83,0,0,1,1.86-.57h.52V4.7a1,1,0,0,0-.15-.61.54.54,0,0,0-.44-.18c-.42,0-.63.25-.63.74h-1.69a1.86,1.86,0,0,1,.67-1.48,2.49,2.49,0,0,1,1.7-.58,2.26,2.26,0,0,1,1.64.55A2.08,2.08,0,0,1,330,4.72v3a3.06,3.06,0,0,0,.23,1.3v.11Zm-1-1.21a1,1,0,0,0,.47-.11.89.89,0,0,0,.3-.27V6.24h-.41a.88.88,0,0,0-.68.27,1.08,1.08,0,0,0-.24.74C327,7.72,327.2,8,327.58,8Z"/>
          <path d="M334.45,4.34l-.57,0a.91.91,0,0,0-.93.61V9.17h-1.7V2.71h1.6l0,.7A1.23,1.23,0,0,1,334,2.59a1.19,1.19,0,0,1,.46.08Z"/>
          <path d="M337.37,1.12V2.71h.87V4h-.87V7.18a1,1,0,0,0,.11.53.45.45,0,0,0,.4.14,1.49,1.49,0,0,0,.4,0V9.12a2.6,2.6,0,0,1-.93.17c-1.09,0-1.64-.63-1.66-1.88V4h-.74V2.71h.74V1.12Z"/>
          <path d="M347.05,9.17h-5.12V8l2.35-3a6,6,0,0,0,.66-1.09,2.17,2.17,0,0,0,.21-.89,1.68,1.68,0,0,0-.2-.91.62.62,0,0,0-.57-.33.76.76,0,0,0-.66.38,2.06,2.06,0,0,0-.24,1.08h-1.69a3.27,3.27,0,0,1,.33-1.47,2.42,2.42,0,0,1,.93-1,2.5,2.5,0,0,1,1.36-.37,2.42,2.42,0,0,1,1.8.64,2.46,2.46,0,0,1,.64,1.82,3.42,3.42,0,0,1-.35,1.49,9.58,9.58,0,0,1-1.29,1.86L344.1,7.76h2.95Z"/>
          <path d="M348.31,3.43a.89.89,0,0,1,.27-.67,1,1,0,0,1,.71-.27,1,1,0,0,1,.7.26.88.88,0,0,1,.28.68.86.86,0,0,1-.28.67,1,1,0,0,1-.7.25,1,1,0,0,1-.7-.26A.84.84,0,0,1,348.31,3.43Zm0,4.88a.89.89,0,0,1,.27-.67,1.09,1.09,0,0,1,1.41,0A.94.94,0,0,1,350,9a1,1,0,0,1-.7.25,1,1,0,0,1-.7-.25A.88.88,0,0,1,348.31,8.31Z"/>
          <path d="M359,6.33l.58-3.62h1.62l-1.34,6.46h-1.4l-.91-3.74-.91,3.74h-1.41l-1.34-6.46h1.62l.58,3.63L357,2.71h1.19Z"/>
          <path d="M362.07,1a.88.88,0,0,1,.25-.65,1,1,0,0,1,1.33,0,.88.88,0,0,1,.25.65.89.89,0,0,1-.24.64,1,1,0,0,1-1.35,0A.89.89,0,0,1,362.07,1Zm1.77,8.13h-1.7V2.71h1.7Z"/>
          <path d="M367.11,1.12V2.71H368V4h-.86V7.18a1,1,0,0,0,.1.53.47.47,0,0,0,.41.14,1.54,1.54,0,0,0,.4,0l0,1.31a2.52,2.52,0,0,1-.93.17c-1.09,0-1.64-.63-1.65-1.88V4h-.75V2.71h.75V1.12Z"/>
          <path d="M370.55,3.28a1.65,1.65,0,0,1,1.34-.69,1.59,1.59,0,0,1,1.35.62,3.13,3.13,0,0,1,.46,1.85V9.17H372V5.08a1.44,1.44,0,0,0-.18-.82.65.65,0,0,0-.57-.26.81.81,0,0,0-.71.43V9.17h-1.69V0h1.69Z"/>
          <path d="M374.69,5.74a4.29,4.29,0,0,1,.53-2.37,1.79,1.79,0,0,1,1.57-.78,1.52,1.52,0,0,1,1.24.64V0h1.7V9.17H378.2l-.08-.66a1.56,1.56,0,0,1-1.34.78,1.77,1.77,0,0,1-1.55-.78,4.17,4.17,0,0,1-.54-2.28Zm1.69.42a3.19,3.19,0,0,0,.2,1.34.73.73,0,0,0,.69.38.82.82,0,0,0,.76-.45V4.48a.81.81,0,0,0-.75-.48.73.73,0,0,0-.68.38,2.84,2.84,0,0,0-.22,1.34Z"/>
          <path d="M384.16,4.34l-.56,0a.92.92,0,0,0-.94.61V9.17H381V2.71h1.6l.05.7a1.21,1.21,0,0,1,1.1-.82,1.24,1.24,0,0,1,.47.08Z"/>
          <path d="M388.09,9.17a2.49,2.49,0,0,1-.14-.5,1.47,1.47,0,0,1-1.23.62,1.83,1.83,0,0,1-1.35-.54,1.91,1.91,0,0,1-.53-1.39,1.93,1.93,0,0,1,.65-1.57,2.83,2.83,0,0,1,1.86-.57h.51V4.7a1,1,0,0,0-.15-.61.51.51,0,0,0-.43-.18c-.42,0-.63.25-.63.74H385a1.86,1.86,0,0,1,.67-1.48,2.49,2.49,0,0,1,1.7-.58,2.29,2.29,0,0,1,1.64.55,2.08,2.08,0,0,1,.58,1.58v3a3.2,3.2,0,0,0,.24,1.3v.11Zm-1-1.21a1,1,0,0,0,.48-.11.85.85,0,0,0,.29-.27V6.24h-.4a.88.88,0,0,0-.68.27,1.08,1.08,0,0,0-.25.74C386.53,7.72,386.72,8,387.09,8Z"/>
          <path d="M395.48,6.33l.58-3.62h1.61l-1.33,6.46h-1.4L394,5.43l-.91,3.74H391.7l-1.34-6.46H392l.57,3.63.86-3.63h1.2Z"/>
          <path d="M401.58,9.17a2.36,2.36,0,0,1-.15-.5,1.44,1.44,0,0,1-1.22.62,1.8,1.8,0,0,1-1.35-.54,1.87,1.87,0,0,1-.53-1.39A2,2,0,0,1,399,5.79a2.86,2.86,0,0,1,1.87-.57h.51V4.7a1,1,0,0,0-.15-.61.52.52,0,0,0-.43-.18c-.43,0-.64.25-.64.74h-1.69a1.87,1.87,0,0,1,.68-1.48,2.46,2.46,0,0,1,1.69-.58,2.3,2.3,0,0,1,1.65.55A2.08,2.08,0,0,1,403,4.72v3a3.2,3.2,0,0,0,.24,1.3v.11Zm-1-1.21a1,1,0,0,0,.48-.11.85.85,0,0,0,.29-.27V6.24H401a.87.87,0,0,0-.68.27,1,1,0,0,0-.25.74C400,7.72,400.21,8,400.58,8Z"/>
          <path d="M406,9.17h-1.7V0H406Z"/>
        </g>
        <g>
          <path d="M282.19,20.31a9.21,9.21,0,0,1,.36-2.59,7.49,7.49,0,0,1,1.08-2.26A4.6,4.6,0,0,1,285.11,14l.23.73a4.68,4.68,0,0,0-1.43,2,9,9,0,0,0-.61,3.07v.51a8.8,8.8,0,0,0,.85,4,4.74,4.74,0,0,0,1.2,1.58l-.23.68a4.78,4.78,0,0,1-1.51-1.48A8.3,8.3,0,0,1,282.19,20.31Z"/>
          <path d="M292,23.83H286.3V23l3-3.34a7.13,7.13,0,0,0,.93-1.24,2,2,0,0,0,.25-1,1.57,1.57,0,0,0-.41-1.11,1.45,1.45,0,0,0-1.1-.44,1.71,1.71,0,0,0-1.28.47,1.81,1.81,0,0,0-.46,1.3h-1.1a2.59,2.59,0,0,1,.77-1.94A2.9,2.9,0,0,1,289,15a2.78,2.78,0,0,1,1.92.64,2.19,2.19,0,0,1,.7,1.69A5,5,0,0,1,290,20.41l-2.32,2.52H292Z"/>
          <path d="M297.49,15.14v.93h-.2a2.92,2.92,0,0,0-2.05.77,3.18,3.18,0,0,0-.89,2.08,2.38,2.38,0,0,1,1.88-.79,2.27,2.27,0,0,1,1.81.8,3.1,3.1,0,0,1,.67,2.07,3.08,3.08,0,0,1-.73,2.15,2.53,2.53,0,0,1-2,.8,2.48,2.48,0,0,1-2-1,3.76,3.76,0,0,1-.78-2.46V20.1a5.7,5.7,0,0,1,1-3.66,3.74,3.74,0,0,1,3-1.3ZM296,19.05a1.77,1.77,0,0,0-1,.34,1.81,1.81,0,0,0-.67.86v.4a2.86,2.86,0,0,0,.49,1.73A1.44,1.44,0,0,0,296,23a1.41,1.41,0,0,0,1.18-.55,2.32,2.32,0,0,0,.42-1.44,2.29,2.29,0,0,0-.43-1.45A1.41,1.41,0,0,0,296,19.05Z"/>
          <path d="M302.43,20.59h-2.91v-.9h2.91Z"/>
          <path d="M309.22,22.31l1.24-4.93h1.11l-1.88,6.45h-.9l-1.57-4.89-1.52,4.89h-.9l-1.87-6.45H304l1.27,4.83,1.5-4.83h.89Z"/>
          <path d="M315.37,24a2.85,2.85,0,0,1-2.14-.86,3.2,3.2,0,0,1-.82-2.31v-.2a3.84,3.84,0,0,1,.37-1.72,2.86,2.86,0,0,1,1-1.18,2.62,2.62,0,0,1,1.43-.42,2.41,2.41,0,0,1,2,.83,3.55,3.55,0,0,1,.7,2.37v.46h-4.38a2.33,2.33,0,0,0,.56,1.54,1.77,1.77,0,0,0,1.36.59,1.91,1.91,0,0,0,1-.24,2.5,2.5,0,0,0,.71-.63l.68.52A2.72,2.72,0,0,1,315.37,24Zm-.14-5.79a1.49,1.49,0,0,0-1.12.49,2.36,2.36,0,0,0-.56,1.36h3.24v-.08a2.13,2.13,0,0,0-.46-1.3A1.39,1.39,0,0,0,315.23,18.16Z"/>
          <path d="M321.84,24a2.83,2.83,0,0,1-2.13-.86,3.21,3.21,0,0,1-.83-2.31v-.2a4,4,0,0,1,.37-1.72,3,3,0,0,1,1-1.18,2.6,2.6,0,0,1,1.43-.42,2.41,2.41,0,0,1,2,.83,3.6,3.6,0,0,1,.69,2.37v.46H320a2.23,2.23,0,0,0,.56,1.54,1.75,1.75,0,0,0,1.35.59,2,2,0,0,0,1-.24,2.64,2.64,0,0,0,.71-.63l.67.52A2.69,2.69,0,0,1,321.84,24Zm-.13-5.79a1.48,1.48,0,0,0-1.12.49A2.36,2.36,0,0,0,320,20h3.24v-.08a2.07,2.07,0,0,0-.45-1.3A1.39,1.39,0,0,0,321.71,18.16Z"/>
          <path d="M327.44,20.84l-.69.72v2.27h-1.1V14.67h1.1v5.54l.59-.71,2-2.12h1.34l-2.51,2.69L331,23.83h-1.3Z"/>
          <path d="M334.59,20.55a3.78,3.78,0,0,1,.71-2.39,2.4,2.4,0,0,1,3.64-.13V14.67H340v9.16h-1l-.06-.69a2.24,2.24,0,0,1-1.84.81A2.18,2.18,0,0,1,335.3,23a3.83,3.83,0,0,1-.71-2.4Zm1.11.13a2.85,2.85,0,0,0,.45,1.71,1.45,1.45,0,0,0,1.25.63,1.63,1.63,0,0,0,1.54-.95v-3a1.63,1.63,0,0,0-1.52-.92,1.47,1.47,0,0,0-1.27.63A3.19,3.19,0,0,0,335.7,20.68Z"/>
          <path d="M341.46,20.54a3.76,3.76,0,0,1,.37-1.7,2.76,2.76,0,0,1,1-1.17,2.79,2.79,0,0,1,1.52-.41,2.7,2.7,0,0,1,2.13.91,3.49,3.49,0,0,1,.82,2.43v.08a3.88,3.88,0,0,1-.36,1.69,2.71,2.71,0,0,1-1,1.16,2.88,2.88,0,0,1-1.55.42,2.7,2.7,0,0,1-2.12-.91,3.48,3.48,0,0,1-.82-2.42Zm1.11.14a2.77,2.77,0,0,0,.5,1.72,1.69,1.69,0,0,0,2.67,0,3,3,0,0,0,.5-1.85,2.75,2.75,0,0,0-.51-1.72,1.68,1.68,0,0,0-2.66,0A3.06,3.06,0,0,0,342.57,20.68Z"/>
          <path d="M352.71,23.19a2.33,2.33,0,0,1-1.89.76,2,2,0,0,1-1.57-.6,2.52,2.52,0,0,1-.55-1.77v-4.2h1.1v4.17Q349.8,23,351,23a1.66,1.66,0,0,0,1.68-.95V17.38h1.1v6.45h-1Z"/>
          <path d="M360.93,20.68a3.83,3.83,0,0,1-.68,2.37,2.19,2.19,0,0,1-1.83.9,2.25,2.25,0,0,1-1.89-.86l-.06.74h-1V14.67h1.1v3.42a2.23,2.23,0,0,1,1.85-.83,2.18,2.18,0,0,1,1.85.89,4,4,0,0,1,.67,2.43Zm-1.11-.13a3,3,0,0,0-.43-1.74,1.45,1.45,0,0,0-1.26-.62,1.63,1.63,0,0,0-1.57,1V22a1.68,1.68,0,0,0,1.59,1,1.43,1.43,0,0,0,1.23-.62A3.14,3.14,0,0,0,359.82,20.55Z"/>
          <path d="M363.52,23.83h-1.11V14.67h1.11Z"/>
          <path d="M368,24a2.83,2.83,0,0,1-2.13-.86,3.21,3.21,0,0,1-.83-2.31v-.2a4,4,0,0,1,.37-1.72,3,3,0,0,1,1-1.18,2.6,2.6,0,0,1,1.43-.42,2.37,2.37,0,0,1,1.95.83,3.55,3.55,0,0,1,.7,2.37v.46h-4.37a2.23,2.23,0,0,0,.56,1.54,1.74,1.74,0,0,0,1.35.59,1.91,1.91,0,0,0,1-.24,2.5,2.5,0,0,0,.71-.63l.68.52A2.71,2.71,0,0,1,368,24Zm-.13-5.79a1.51,1.51,0,0,0-1.13.49,2.36,2.36,0,0,0-.56,1.36h3.24v-.08a2.07,2.07,0,0,0-.46-1.3A1.37,1.37,0,0,0,367.83,18.16Z"/>
          <path d="M374.06,20.59h-2.92v-.9h2.92Z"/>
          <path d="M380.6,20.68a3.83,3.83,0,0,1-.68,2.37,2.19,2.19,0,0,1-1.83.9,2.25,2.25,0,0,1-1.89-.86l-.06.74h-1V14.67h1.1v3.42a2.23,2.23,0,0,1,1.85-.83,2.15,2.15,0,0,1,1.84.89,3.92,3.92,0,0,1,.68,2.43Zm-1.11-.13a3,3,0,0,0-.43-1.74,1.45,1.45,0,0,0-1.26-.62,1.63,1.63,0,0,0-1.57,1V22a1.67,1.67,0,0,0,1.58,1,1.44,1.44,0,0,0,1.24-.62A3.22,3.22,0,0,0,379.49,20.55Z"/>
          <path d="M383.19,23.83h-1.11V14.67h1.11Z"/>
          <path d="M385,15.66a.6.6,0,0,1,.65-.64.64.64,0,1,1,0,1.27.63.63,0,0,1-.49-.18A.64.64,0,0,1,385,15.66Zm1.19,8.17h-1.1V17.38h1.1Z"/>
          <path d="M389,17.38l0,.81a2.35,2.35,0,0,1,1.93-.93q2.06,0,2.07,2.31v4.26h-1.11V19.56a1.44,1.44,0,0,0-.32-1,1.23,1.23,0,0,0-1-.34,1.59,1.59,0,0,0-.94.29,1.87,1.87,0,0,0-.64.75v4.6h-1.1V17.38Z"/>
          <path d="M394.39,20.55a3.78,3.78,0,0,1,.71-2.39,2.4,2.4,0,0,1,3.64-.13V14.67h1.1v9.16h-1l-.06-.69a2.24,2.24,0,0,1-1.84.81A2.18,2.18,0,0,1,395.1,23a3.83,3.83,0,0,1-.71-2.4Zm1.11.13a2.85,2.85,0,0,0,.45,1.71,1.45,1.45,0,0,0,1.25.63,1.62,1.62,0,0,0,1.54-.95v-3a1.63,1.63,0,0,0-1.52-.92,1.47,1.47,0,0,0-1.27.63A3.19,3.19,0,0,0,395.5,20.68Z"/>
          <path d="M410,20.68a3.85,3.85,0,0,1-.67,2.37,2.17,2.17,0,0,1-1.83.9,2.4,2.4,0,0,1-1.85-.74v3.1h-1.1V17.38h1l.05.71a2.27,2.27,0,0,1,1.88-.83,2.21,2.21,0,0,1,1.84.87,3.93,3.93,0,0,1,.67,2.44Zm-1.1-.13a2.83,2.83,0,0,0-.47-1.72,1.47,1.47,0,0,0-1.27-.64,1.64,1.64,0,0,0-1.51.89v3.09a1.63,1.63,0,0,0,1.52.88,1.48,1.48,0,0,0,1.26-.63A3.12,3.12,0,0,0,408.93,20.55Z"/>
          <path d="M412.54,18.16a2.35,2.35,0,0,1,1.91-.9c1.37,0,2.05.77,2.07,2.31v4.26h-1.11V19.56a1.44,1.44,0,0,0-.32-1,1.24,1.24,0,0,0-1-.34,1.62,1.62,0,0,0-.95.29,1.92,1.92,0,0,0-.63.75v4.6h-1.1V14.67h1.1Z"/>
          <path d="M422.16,23.83a2,2,0,0,1-.16-.68,2.44,2.44,0,0,1-1.84.8,2.3,2.3,0,0,1-1.57-.54A1.76,1.76,0,0,1,418,22a1.82,1.82,0,0,1,.77-1.56,3.56,3.56,0,0,1,2.16-.56H422v-.51a1.23,1.23,0,0,0-.34-.92,1.4,1.4,0,0,0-1-.34,1.62,1.62,0,0,0-1,.29.9.9,0,0,0-.4.73h-1.1a1.51,1.51,0,0,1,.34-.94,2.31,2.31,0,0,1,.93-.71,3,3,0,0,1,1.29-.26,2.57,2.57,0,0,1,1.75.55,2.06,2.06,0,0,1,.66,1.54v3a3.68,3.68,0,0,0,.22,1.42v.09ZM420.32,23a1.94,1.94,0,0,0,1-.27A1.61,1.61,0,0,0,422,22V20.7h-.86c-1.36,0-2,.4-2,1.19a1,1,0,0,0,.34.81A1.36,1.36,0,0,0,420.32,23Z"/>
          <path d="M428.58,22.12a.84.84,0,0,0-.34-.7,3.44,3.44,0,0,0-1.18-.42,5.46,5.46,0,0,1-1.33-.43A2,2,0,0,1,425,20a1.46,1.46,0,0,1-.23-.82,1.65,1.65,0,0,1,.67-1.34,2.61,2.61,0,0,1,1.72-.55,2.75,2.75,0,0,1,1.78.56,1.81,1.81,0,0,1,.68,1.45h-1.11a1,1,0,0,0-.39-.78,1.42,1.42,0,0,0-1-.33,1.49,1.49,0,0,0-1,.27.83.83,0,0,0-.34.68.66.66,0,0,0,.32.6,3.63,3.63,0,0,0,1.14.39,6.36,6.36,0,0,1,1.34.44,2,2,0,0,1,.76.62,1.5,1.5,0,0,1,.25.88,1.66,1.66,0,0,1-.69,1.39,2.89,2.89,0,0,1-1.8.52,3.28,3.28,0,0,1-1.37-.27,2.32,2.32,0,0,1-.94-.77,1.87,1.87,0,0,1-.33-1.06h1.1a1.14,1.14,0,0,0,.45.88,1.74,1.74,0,0,0,1.09.32,1.8,1.8,0,0,0,1-.25A.79.79,0,0,0,428.58,22.12Z"/>
          <path d="M433.8,24a2.84,2.84,0,0,1-2.14-.86,3.2,3.2,0,0,1-.82-2.31v-.2a4,4,0,0,1,.36-1.72,3,3,0,0,1,1-1.18,2.62,2.62,0,0,1,1.43-.42,2.41,2.41,0,0,1,2,.83,3.6,3.6,0,0,1,.7,2.37v.46h-4.38a2.28,2.28,0,0,0,.56,1.54,1.77,1.77,0,0,0,1.36.59,1.91,1.91,0,0,0,1-.24,2.64,2.64,0,0,0,.71-.63l.67.52A2.69,2.69,0,0,1,433.8,24Zm-.14-5.79a1.48,1.48,0,0,0-1.12.49A2.36,2.36,0,0,0,432,20h3.23v-.08a2.07,2.07,0,0,0-.45-1.3A1.39,1.39,0,0,0,433.66,18.16Z"/>
          <path d="M440.14,20.37a9,9,0,0,1-.35,2.55,7.51,7.51,0,0,1-1.07,2.25,4.61,4.61,0,0,1-1.5,1.47L437,26a4.75,4.75,0,0,0,1.48-2.18,9.59,9.59,0,0,0,.57-3.3v-.19a10.14,10.14,0,0,0-.26-2.33A8.32,8.32,0,0,0,438,16,4.44,4.44,0,0,0,437,14.7l.24-.67a4.73,4.73,0,0,1,1.5,1.45,7.78,7.78,0,0,1,1.07,2.25A9.74,9.74,0,0,1,440.14,20.37Z"/>
        </g>
        <g>
          <path d="M51.6,216v-8.69h2.45a4,4,0,0,1,2,.5,3.43,3.43,0,0,1,1.34,1.43,4.58,4.58,0,0,1,.48,2.13v.55a4.7,4.7,0,0,1-.47,2.15,3.36,3.36,0,0,1-1.36,1.43,4.2,4.2,0,0,1-2,.5Zm1.14-7.75v6.82H54a2.62,2.62,0,0,0,2.06-.83,3.41,3.41,0,0,0,.74-2.35v-.5a3.45,3.45,0,0,0-.7-2.31,2.49,2.49,0,0,0-2-.83Z"/>
          <path d="M63.43,216a2.1,2.1,0,0,1-.16-.68,2.44,2.44,0,0,1-1.84.8,2.26,2.26,0,0,1-1.56-.54,1.74,1.74,0,0,1-.62-1.37,1.82,1.82,0,0,1,.77-1.56,3.56,3.56,0,0,1,2.16-.56h1.07v-.51a1.23,1.23,0,0,0-.34-.92,1.38,1.38,0,0,0-1-.34,1.57,1.57,0,0,0-1,.29.88.88,0,0,0-.4.73H59.39a1.51,1.51,0,0,1,.34-.94,2.31,2.31,0,0,1,.93-.71,3,3,0,0,1,1.29-.26,2.55,2.55,0,0,1,1.75.55,2.06,2.06,0,0,1,.66,1.54v3a3.68,3.68,0,0,0,.22,1.42V216Zm-1.84-.84a1.94,1.94,0,0,0,1-.27,1.61,1.61,0,0,0,.67-.7v-1.32h-.86c-1.36,0-2,.4-2,1.19a1,1,0,0,0,.34.81A1.38,1.38,0,0,0,61.59,215.14Z"/>
          <path d="M68.11,214.37l1.51-4.84H70.8L68.2,217c-.4,1.07-1,1.61-1.91,1.61l-.21,0-.41-.08v-.89l.3,0a1.47,1.47,0,0,0,.87-.22,1.67,1.67,0,0,0,.52-.83l.24-.66-2.3-6.38h1.2Z"/>
          <path d="M78.33,216H77.21v-7.36l-2.22.82v-1l3.16-1.19h.18Z"/>
          <path d="M84.41,212.69a3.76,3.76,0,0,1,.37-1.7,2.7,2.7,0,0,1,1-1.17,2.77,2.77,0,0,1,1.52-.41,2.7,2.7,0,0,1,2.13.91,3.53,3.53,0,0,1,.81,2.43v.08a3.88,3.88,0,0,1-.36,1.69,2.65,2.65,0,0,1-1,1.16,2.85,2.85,0,0,1-1.54.42,2.7,2.7,0,0,1-2.13-.91,3.52,3.52,0,0,1-.81-2.42Zm1.11.14a2.76,2.76,0,0,0,.49,1.72,1.62,1.62,0,0,0,1.34.65,1.57,1.57,0,0,0,1.33-.66,3,3,0,0,0,.5-1.85,2.81,2.81,0,0,0-.5-1.72,1.62,1.62,0,0,0-1.34-.66A1.58,1.58,0,0,0,86,211,3,3,0,0,0,85.52,212.83Z"/>
          <path d="M92.21,216v-5.6h-1v-.85h1v-.67a2.19,2.19,0,0,1,.56-1.6,2.09,2.09,0,0,1,1.57-.57,2.76,2.76,0,0,1,.75.1l-.06.89a3.61,3.61,0,0,0-.59-.05,1.06,1.06,0,0,0-.83.31,1.25,1.25,0,0,0-.29.9v.69h1.37v.85H93.32V216Z"/>
        </g>
        <g>
          <path d="M45.15,222.63v1.56h1.2V225h-1.2v4a.9.9,0,0,0,.16.59.68.68,0,0,0,.55.19,2.56,2.56,0,0,0,.53-.07v.89a3.28,3.28,0,0,1-.85.12,1.37,1.37,0,0,1-1.12-.45,1.92,1.92,0,0,1-.37-1.27v-4H42.87v-.85h1.18v-1.56Z"/>
          <path d="M50.77,225.18a3.16,3.16,0,0,0-.55,0,1.45,1.45,0,0,0-1.47.93v4.58H47.64v-6.46h1.08l0,.75a1.71,1.71,0,0,1,1.54-.87,1.1,1.1,0,0,1,.49.09Z"/>
          <path d="M54.35,230.77a2.84,2.84,0,0,1-2.14-.86,3.22,3.22,0,0,1-.82-2.31v-.2a3.81,3.81,0,0,1,.37-1.72,2.8,2.8,0,0,1,1-1.18,2.55,2.55,0,0,1,1.43-.43,2.44,2.44,0,0,1,2,.83,3.63,3.63,0,0,1,.7,2.38v.46H52.49a2.35,2.35,0,0,0,.56,1.54,1.77,1.77,0,0,0,1.36.59,1.91,1.91,0,0,0,1-.24,2.5,2.5,0,0,0,.71-.63l.67.52A2.71,2.71,0,0,1,54.35,230.77ZM54.21,225a1.46,1.46,0,0,0-1.12.49,2.33,2.33,0,0,0-.56,1.36h3.23v-.08a2.1,2.1,0,0,0-.45-1.31A1.38,1.38,0,0,0,54.21,225Z"/>
          <path d="M62.13,230.65A2.58,2.58,0,0,1,62,230a2.49,2.49,0,0,1-1.84.8,2.29,2.29,0,0,1-1.57-.54,1.74,1.74,0,0,1-.61-1.37,1.84,1.84,0,0,1,.77-1.57,3.62,3.62,0,0,1,2.15-.56H62v-.5a1.26,1.26,0,0,0-.35-.93,1.42,1.42,0,0,0-1-.34,1.62,1.62,0,0,0-1,.3.87.87,0,0,0-.4.72H58.09a1.57,1.57,0,0,1,.34-.93,2.42,2.42,0,0,1,.93-.72,3.28,3.28,0,0,1,1.3-.26,2.59,2.59,0,0,1,1.75.56,2,2,0,0,1,.65,1.54v3a3.63,3.63,0,0,0,.23,1.41v.1Zm-1.83-.84a1.9,1.9,0,0,0,1-.27,1.63,1.63,0,0,0,.68-.7v-1.32h-.87c-1.35,0-2,.39-2,1.18a1,1,0,0,0,.35.81A1.31,1.31,0,0,0,60.3,229.81Z"/>
          <path d="M66.29,222.63v1.56H67.5V225H66.29v4a.9.9,0,0,0,.16.59.68.68,0,0,0,.55.19,2.56,2.56,0,0,0,.53-.07v.89a3.23,3.23,0,0,1-.85.12,1.38,1.38,0,0,1-1.12-.45,1.92,1.92,0,0,1-.37-1.27v-4H64v-.85h1.18v-1.56Z"/>
          <path d="M71.46,230.77a2.83,2.83,0,0,1-2.13-.86,3.22,3.22,0,0,1-.83-2.31v-.2a4,4,0,0,1,.37-1.72,2.89,2.89,0,0,1,1-1.18,2.53,2.53,0,0,1,1.43-.43,2.4,2.4,0,0,1,2,.83,3.58,3.58,0,0,1,.7,2.38v.46H69.61a2.25,2.25,0,0,0,.56,1.54,1.74,1.74,0,0,0,1.35.59,1.91,1.91,0,0,0,1-.24,2.37,2.37,0,0,0,.71-.63l.68.52A2.72,2.72,0,0,1,71.46,230.77ZM71.33,225a1.44,1.44,0,0,0-1.12.49,2.34,2.34,0,0,0-.57,1.36h3.24v-.08a2,2,0,0,0-.46-1.31A1.36,1.36,0,0,0,71.33,225Z"/>
          <path d="M76.3,224.19l0,.72a2.37,2.37,0,0,1,1.91-.84,1.86,1.86,0,0,1,1.85,1,2.35,2.35,0,0,1,.84-.75,2.47,2.47,0,0,1,1.22-.29q2.11,0,2.16,2.25v4.33H83.2v-4.26a1.5,1.5,0,0,0-.31-1,1.4,1.4,0,0,0-1.07-.34,1.44,1.44,0,0,0-1,.37,1.5,1.5,0,0,0-.47,1v4.29H79.22v-4.23A1.23,1.23,0,0,0,77.84,225a1.47,1.47,0,0,0-1.48.92v4.72H75.25v-6.46Z"/>
          <path d="M88.65,230.77a2.85,2.85,0,0,1-2.14-.86,3.26,3.26,0,0,1-.82-2.31v-.2a3.81,3.81,0,0,1,.37-1.72,2.87,2.87,0,0,1,1-1.18,2.55,2.55,0,0,1,1.43-.43,2.42,2.42,0,0,1,2,.83,3.58,3.58,0,0,1,.7,2.38v.46H86.8a2.29,2.29,0,0,0,.55,1.54,1.77,1.77,0,0,0,1.36.59,1.91,1.91,0,0,0,1-.24,2.5,2.5,0,0,0,.71-.63l.68.52A2.74,2.74,0,0,1,88.65,230.77ZM88.51,225a1.46,1.46,0,0,0-1.12.49,2.33,2.33,0,0,0-.56,1.36h3.24v-.08a2.16,2.16,0,0,0-.46-1.31A1.37,1.37,0,0,0,88.51,225Z"/>
          <path d="M93.49,224.19l0,.81a2.34,2.34,0,0,1,1.93-.93c1.36,0,2.05.77,2.06,2.31v4.27h-1.1v-4.27a1.49,1.49,0,0,0-.32-1,1.28,1.28,0,0,0-1-.33,1.55,1.55,0,0,0-.95.29,1.92,1.92,0,0,0-.63.75v4.6h-1.1v-6.46Z"/>
          <path d="M100.69,222.63v1.56h1.2V225h-1.2v4a.9.9,0,0,0,.16.59.68.68,0,0,0,.55.19,2.41,2.41,0,0,0,.52-.07v.89a3.15,3.15,0,0,1-.84.12,1.37,1.37,0,0,1-1.12-.45,1.92,1.92,0,0,1-.38-1.27v-4H98.41v-.85h1.17v-1.56Z"/>
        </g>
        <path d="M74.27,177.56H72.38v-7.37l-1.83.71v-1.57l3.52-1.44h.2Z"/>
        <g>
          <path d="M3.71,180.39a1,1,0,0,0-.26-.76,3.07,3.07,0,0,0-.93-.53A4.35,4.35,0,0,1,.74,178a2.18,2.18,0,0,1-.54-1.48,2.1,2.1,0,0,1,.74-1.67,2.81,2.81,0,0,1,1.87-.62,2.79,2.79,0,0,1,1.34.31,2.25,2.25,0,0,1,.91.9,2.63,2.63,0,0,1,.32,1.32H3.73a1.37,1.37,0,0,0-.24-.87.85.85,0,0,0-.71-.31.9.9,0,0,0-.68.26,1,1,0,0,0-.24.69.84.84,0,0,0,.27.61,3.24,3.24,0,0,0,1,.57,4.08,4.08,0,0,1,1.74,1.06,2.35,2.35,0,0,1,.55,1.61,2.1,2.1,0,0,1-.69,1.67,2.65,2.65,0,0,1-1.85.61,3.19,3.19,0,0,1-1.45-.33,2.5,2.5,0,0,1-1-.94A2.65,2.65,0,0,1,0,180H1.66a1.55,1.55,0,0,0,.28,1,1.13,1.13,0,0,0,.9.32C3.42,181.31,3.71,181,3.71,180.39Z"/>
          <path d="M8.6,181.33c.46,0,.7-.3.71-.9H10.8a2.2,2.2,0,0,1-.61,1.61,2.09,2.09,0,0,1-1.56.62,2.21,2.21,0,0,1-1.79-.74,3.19,3.19,0,0,1-.63-2.15v-.49a3.38,3.38,0,0,1,.61-2.19,2.19,2.19,0,0,1,1.8-.76,2,2,0,0,1,1.59.63,2.46,2.46,0,0,1,.59,1.76H9.31a1.69,1.69,0,0,0-.17-.79.58.58,0,0,0-.54-.27A.66.66,0,0,0,8,178a2.45,2.45,0,0,0-.19,1.15v.62a5,5,0,0,0,.07,1,.77.77,0,0,0,.24.43A.69.69,0,0,0,8.6,181.33Z"/>
          <path d="M14.72,178l-.53,0a.88.88,0,0,0-.89.57v4H11.7v-6.09h1.51l0,.66a1.15,1.15,0,0,1,1-.78,1.08,1.08,0,0,1,.44.08Z"/>
          <path d="M17.89,182.66a2.47,2.47,0,0,1-1.91-.74,2.91,2.91,0,0,1-.69-2.09v-.49a3.45,3.45,0,0,1,.63-2.22,2.17,2.17,0,0,1,1.81-.79,2.07,2.07,0,0,1,1.73.74,3.49,3.49,0,0,1,.59,2.17V180H16.88a1.63,1.63,0,0,0,.3,1,1,1,0,0,0,.81.31,1.81,1.81,0,0,0,1.34-.54l.63,1a2.1,2.1,0,0,1-.86.66A3,3,0,0,1,17.89,182.66Zm-1-3.74h1.59v-.15a1.55,1.55,0,0,0-.18-.83.61.61,0,0,0-.58-.28.67.67,0,0,0-.61.3A2.11,2.11,0,0,0,16.89,178.92Z"/>
          <path d="M23.42,182.66a2.51,2.51,0,0,1-1.92-.74,2.91,2.91,0,0,1-.69-2.09v-.49a3.45,3.45,0,0,1,.63-2.22,2.18,2.18,0,0,1,1.81-.79,2.06,2.06,0,0,1,1.73.74,3.42,3.42,0,0,1,.59,2.17V180H22.4a1.63,1.63,0,0,0,.3,1,1,1,0,0,0,.82.31,1.79,1.79,0,0,0,1.33-.54l.63,1a2.14,2.14,0,0,1-.85.66A3,3,0,0,1,23.42,182.66Zm-1-3.74H24v-.15a1.76,1.76,0,0,0-.18-.83.63.63,0,0,0-.59-.28.67.67,0,0,0-.61.3A2.25,2.25,0,0,0,22.41,178.92Z"/>
          <path d="M27.94,176.45l0,.6a1.69,1.69,0,0,1,1.42-.72c1,0,1.58.74,1.61,2.21v4h-1.6v-3.88a1.47,1.47,0,0,0-.15-.76.63.63,0,0,0-.55-.23.74.74,0,0,0-.67.44v4.43h-1.6v-6.09Z"/>
          <path d="M32.16,174.87a.87.87,0,1,1,1.73,0,.87.87,0,0,1-.23.61,1,1,0,0,1-1.27,0A.87.87,0,0,1,32.16,174.87Zm1.67,7.67h-1.6v-6.09h1.6Z"/>
          <path d="M36.52,176.45l0,.6a1.68,1.68,0,0,1,1.41-.72c1.05,0,1.59.74,1.62,2.21v4H38v-3.88a1.47,1.47,0,0,0-.15-.76.63.63,0,0,0-.55-.23.74.74,0,0,0-.67.44v4.43H35v-6.09Z"/>
          <path d="M40.55,179.31a3.79,3.79,0,0,1,.55-2.24,1.77,1.77,0,0,1,1.51-.74,1.46,1.46,0,0,1,1.28.66l.06-.54h1.44v6.09a2.37,2.37,0,0,1-.65,1.79,2.65,2.65,0,0,1-1.88.62,3.14,3.14,0,0,1-1-.2,2.11,2.11,0,0,1-.83-.51l.54-1.11a1.64,1.64,0,0,0,.58.39,1.83,1.83,0,0,0,.69.15,1,1,0,0,0,.77-.26,1.3,1.3,0,0,0,.24-.83v-.52a1.45,1.45,0,0,1-1.19.6,1.75,1.75,0,0,1-1.51-.76,3.73,3.73,0,0,1-.55-2.14Zm1.6.4a2.57,2.57,0,0,0,.22,1.23.75.75,0,0,0,.7.39.81.81,0,0,0,.73-.36v-2.91a.81.81,0,0,0-.72-.39.75.75,0,0,0-.7.39,2.59,2.59,0,0,0-.23,1.25Z"/>
        </g>
        <g>
          <path d="M1.7,193.06a9.61,9.61,0,0,1,.3-2.42,7.09,7.09,0,0,1,.88-2.08,3.71,3.71,0,0,1,1.26-1.27l.3.88a4.15,4.15,0,0,0-1,1.84A10.19,10.19,0,0,0,3,192.87v.34a11.06,11.06,0,0,0,.37,3,4.26,4.26,0,0,0,1,1.91l-.3.87a3.53,3.53,0,0,1-1.25-1.25,7,7,0,0,1-.88-2,9.76,9.76,0,0,1-.31-2.38Z"/>
          <path d="M5.12,193.16a4,4,0,0,1,.51-2.24,1.69,1.69,0,0,1,1.48-.74,1.43,1.43,0,0,1,1.17.61v-3H9.89v8.66H8.44l-.08-.62a1.47,1.47,0,0,1-1.26.73,1.68,1.68,0,0,1-1.46-.73,3.86,3.86,0,0,1-.52-2.16Zm1.6.4a2.86,2.86,0,0,0,.2,1.26.66.66,0,0,0,.64.36.78.78,0,0,0,.72-.42V192a.77.77,0,0,0-.71-.45.68.68,0,0,0-.64.36,2.64,2.64,0,0,0-.21,1.26Z"/>
          <path d="M14,196.4a1.88,1.88,0,0,1-.14-.48,1.37,1.37,0,0,1-1.16.59,1.7,1.7,0,0,1-1.27-.51,1.76,1.76,0,0,1-.51-1.31,1.85,1.85,0,0,1,.61-1.48,2.71,2.71,0,0,1,1.77-.54h.48v-.49a1,1,0,0,0-.14-.58.51.51,0,0,0-.41-.17c-.4,0-.6.23-.6.7H11a1.79,1.79,0,0,1,.63-1.4,2.39,2.39,0,0,1,1.6-.55,2.18,2.18,0,0,1,1.56.53,2,2,0,0,1,.55,1.49v2.87a2.94,2.94,0,0,0,.22,1.23v.1Zm-1-1.14a.88.88,0,0,0,.45-.11.77.77,0,0,0,.28-.25v-1.27h-.38a.79.79,0,0,0-.64.26,1,1,0,0,0-.24.69C12.48,195,12.66,195.26,13,195.26Z"/>
          <path d="M18.37,193.74l.81-3.44h1.7l-2,7c-.3,1-.86,1.55-1.69,1.55a2.52,2.52,0,0,1-.66-.11v-1.24h.19a1,1,0,0,0,.56-.14.86.86,0,0,0,.28-.5l.13-.41-1.76-6.16h1.71Z"/>
          <path d="M27.09,193.54H24.33v-1.33h2.76Z"/>
          <path d="M29.79,191.57h.77a.74.74,0,0,0,.65-.31,1.45,1.45,0,0,0,.2-.82,1.26,1.26,0,0,0-.21-.77.71.71,0,0,0-1.11,0,1,1,0,0,0-.21.65H28.29a2.24,2.24,0,0,1,.29-1.15,2.2,2.2,0,0,1,.83-.8,2.77,2.77,0,0,1,3,.34,2.32,2.32,0,0,1,.64,1.72,2,2,0,0,1-.29,1,2,2,0,0,1-.76.73,1.79,1.79,0,0,1,.86.74,2.34,2.34,0,0,1,.28,1.18,2.3,2.3,0,0,1-.69,1.75,2.57,2.57,0,0,1-1.83.66,2.35,2.35,0,0,1-1.71-.65,2.31,2.31,0,0,1-.66-1.71h1.6a1.15,1.15,0,0,0,.23.74.72.72,0,0,0,.58.29.8.8,0,0,0,.66-.3,1.26,1.26,0,0,0,.24-.81c0-.81-.32-1.22-.95-1.22h-.78Z"/>
          <path d="M39,193a4.62,4.62,0,0,1-.62,2.61,2.18,2.18,0,0,1-3.51,0,4.4,4.4,0,0,1-.64-2.51v-1.55a4.57,4.57,0,0,1,.61-2.59,2.19,2.19,0,0,1,3.53,0,4.51,4.51,0,0,1,.63,2.54Zm-1.6-1.66a4.32,4.32,0,0,0-.19-1.45.64.64,0,0,0-.6-.49c-.51,0-.77.59-.79,1.78v2A4.23,4.23,0,0,0,36,194.7a.65.65,0,0,0,.61.48.62.62,0,0,0,.58-.45,4.18,4.18,0,0,0,.2-1.39Z"/>
          <path d="M42.65,193.19a9.13,9.13,0,0,1-.34,2.49,7.07,7.07,0,0,1-.93,2.06A3.6,3.6,0,0,1,40.12,199l-.29-.87a4.16,4.16,0,0,0,1-1.88,10.41,10.41,0,0,0,.39-2.86v-.3a11,11,0,0,0-.37-2.94,4.48,4.48,0,0,0-1-2l.29-.87A3,3,0,0,1,41,188a5.84,5.84,0,0,1,.82,1.26,8.69,8.69,0,0,1,.59,1.7A9.59,9.59,0,0,1,42.65,193.19Z"/>
        </g>
        <g>
          <path d="M342.35,117.63v2.88h-1.66v-8.2h2.8a2.57,2.57,0,0,1,1.94.75,2.75,2.75,0,0,1,.73,2,2.54,2.54,0,0,1-.72,1.91,2.71,2.71,0,0,1-2,.7Zm0-1.38h1.14a.91.91,0,0,0,.73-.31,1.34,1.34,0,0,0,.26-.9,1.67,1.67,0,0,0-.26-1,.86.86,0,0,0-.71-.37h-1.16Z"/>
          <path d="M348.86,120.51h-1.61v-8.65h1.61Z"/>
          <path d="M353,120.51a2.09,2.09,0,0,1-.14-.47,1.36,1.36,0,0,1-1.16.59,1.72,1.72,0,0,1-1.27-.51,1.77,1.77,0,0,1-.5-1.31,1.85,1.85,0,0,1,.61-1.49,2.66,2.66,0,0,1,1.76-.53h.48v-.49a.87.87,0,0,0-.14-.58.48.48,0,0,0-.41-.17c-.4,0-.6.23-.6.7H350a1.78,1.78,0,0,1,.63-1.4,2.4,2.4,0,0,1,1.61-.55,2.22,2.22,0,0,1,1.55.52,2,2,0,0,1,.55,1.5v2.86a3.13,3.13,0,0,0,.22,1.24v.09Zm-.94-1.13a.94.94,0,0,0,.45-.11.82.82,0,0,0,.27-.25v-1.27h-.38a.8.8,0,0,0-.64.26,1,1,0,0,0-.23.69C351.52,119.15,351.69,119.38,352.05,119.38Z"/>
          <path d="M357.73,119.3c.46,0,.69-.3.7-.9h1.5a2.24,2.24,0,0,1-.61,1.61,2.1,2.1,0,0,1-1.56.62,2.23,2.23,0,0,1-1.8-.74,3.3,3.3,0,0,1-.63-2.15v-.49a3.44,3.44,0,0,1,.61-2.19,2.21,2.21,0,0,1,1.81-.76,2.06,2.06,0,0,1,1.59.63,2.51,2.51,0,0,1,.59,1.76h-1.5a1.57,1.57,0,0,0-.17-.79.58.58,0,0,0-.54-.27.66.66,0,0,0-.6.29,2.58,2.58,0,0,0-.19,1.15v.62a5.77,5.77,0,0,0,.07,1,.73.73,0,0,0,.25.43A.69.69,0,0,0,357.73,119.3Z"/>
          <path d="M363.3,120.63a2.51,2.51,0,0,1-1.92-.74,2.91,2.91,0,0,1-.69-2.09v-.49a3.45,3.45,0,0,1,.63-2.22,2.18,2.18,0,0,1,1.81-.79,2.06,2.06,0,0,1,1.73.74,3.42,3.42,0,0,1,.59,2.17V118h-3.17a1.63,1.63,0,0,0,.3,1,1,1,0,0,0,.82.31,1.79,1.79,0,0,0,1.33-.54l.63,1a2.14,2.14,0,0,1-.85.66A3.08,3.08,0,0,1,363.3,120.63Zm-1-3.75h1.6v-.14a1.76,1.76,0,0,0-.18-.83.63.63,0,0,0-.59-.28.67.67,0,0,0-.61.3A2.07,2.07,0,0,0,362.29,116.88Z"/>
          <path d="M371.11,117.66a4.18,4.18,0,0,1-.47,2.23,1.65,1.65,0,0,1-1.49.74,1.46,1.46,0,0,1-1.27-.72l-.05.6h-1.47v-8.65H368v3a1.43,1.43,0,0,1,1.19-.61,1.65,1.65,0,0,1,1.49.74,4.05,4.05,0,0,1,.48,2.15Zm-1.59-.4a2.87,2.87,0,0,0-.19-1.29.68.68,0,0,0-.65-.33.76.76,0,0,0-.73.46v2.77a.76.76,0,0,0,.75.43.67.67,0,0,0,.63-.3,2.6,2.6,0,0,0,.19-1.16Z"/>
          <path d="M371.88,117.27a3.3,3.3,0,0,1,.66-2.18,2.48,2.48,0,0,1,3.63,0,3.38,3.38,0,0,1,.65,2.19v.39a3.25,3.25,0,0,1-.65,2.17,2.19,2.19,0,0,1-1.81.79,2.24,2.24,0,0,1-1.82-.79,3.28,3.28,0,0,1-.66-2.18Zm1.61.4c0,1.09.29,1.63.87,1.63s.83-.45.87-1.36v-.67A2.5,2.5,0,0,0,375,116a.72.72,0,0,0-1.29,0,2.64,2.64,0,0,0-.22,1.24Z"/>
        </g>
        <path d="M379.61,115a2.39,2.39,0,0,1-.28,1.3.94.94,0,0,1-.86.43.88.88,0,0,1-.75-.41l0,.35h-.85v-5h.93v1.78a.79.79,0,0,1,.69-.35,1,1,0,0,1,.87.43,2.34,2.34,0,0,1,.28,1.25Zm-.93-.23a1.77,1.77,0,0,0-.11-.75.39.39,0,0,0-.38-.19.43.43,0,0,0-.42.26v1.62a.43.43,0,0,0,.43.25.4.4,0,0,0,.37-.17,1.46,1.46,0,0,0,.11-.68Z"/>
        <g>
          <path d="M383.15,117.17a10.15,10.15,0,0,1,.29-2.42,7.22,7.22,0,0,1,.89-2.08,3.43,3.43,0,0,1,1.26-1.26l.3.88a4,4,0,0,0-1,1.83,10.25,10.25,0,0,0-.39,2.86v.34a10.58,10.58,0,0,0,.37,3,4.15,4.15,0,0,0,1,1.92l-.3.87a3.54,3.54,0,0,1-1.25-1.25,7,7,0,0,1-.88-2,9.36,9.36,0,0,1-.31-2.38Z"/>
          <path d="M392.6,120.51h-1.66l-2.42-5.38v5.38h-1.66v-8.2h1.66l2.43,5.38v-5.38h1.65Z"/>
          <path d="M398.31,116.32H394V115h4.3Zm0,2.44H394v-1.34h4.3Z"/>
          <path d="M404.21,114.49a2.3,2.3,0,0,1-.25,1.06,2,2,0,0,1-.7.73,2.27,2.27,0,0,1,.8.8,2.43,2.43,0,0,1-3.79,2.91,2.63,2.63,0,0,1-.35-2.92,2.05,2.05,0,0,1,.81-.79,1.91,1.91,0,0,1-.71-.73,2.18,2.18,0,0,1-.25-1.06,2.31,2.31,0,0,1,.6-1.69,2.19,2.19,0,0,1,1.62-.61,2.16,2.16,0,0,1,1.62.62A2.3,2.3,0,0,1,404.21,114.49ZM402,119.3a.61.61,0,0,0,.55-.31,1.57,1.57,0,0,0,.2-.85,1.61,1.61,0,0,0-.2-.86A.67.67,0,0,0,402,117a.64.64,0,0,0-.56.31,1.52,1.52,0,0,0-.21.86,1.48,1.48,0,0,0,.21.85A.63.63,0,0,0,402,119.3Zm.62-4.73a1.57,1.57,0,0,0-.16-.77.53.53,0,0,0-.93,0,1.5,1.5,0,0,0-.16.77,1.61,1.61,0,0,0,.16.78.52.52,0,0,0,.94,0A1.75,1.75,0,0,0,402.62,114.57Z"/>
          <path d="M405.61,116.48l.41-4.17h4v1.36h-2.66l-.15,1.76a1.68,1.68,0,0,1,.95-.31,1.86,1.86,0,0,1,1.57.72,3.35,3.35,0,0,1,.55,2,2.91,2.91,0,0,1-.66,2,2.2,2.2,0,0,1-1.75.75,2.48,2.48,0,0,1-1.2-.3,2.35,2.35,0,0,1-1.19-2.1H407a1.49,1.49,0,0,0,.25.8.66.66,0,0,0,.55.28.67.67,0,0,0,.61-.38,2.39,2.39,0,0,0,.22-1.14,1.86,1.86,0,0,0-.26-1.07.83.83,0,0,0-.72-.36.87.87,0,0,0-.7.31l-.1.14Z"/>
          <path d="M413.89,117.31a9.19,9.19,0,0,1-.34,2.49,7,7,0,0,1-.93,2,3.64,3.64,0,0,1-1.26,1.23l-.29-.87a4.22,4.22,0,0,0,1-1.88,10.48,10.48,0,0,0,.39-2.87v-.3a10.91,10.91,0,0,0-.37-2.93,4.48,4.48,0,0,0-1-2l.29-.87a3.15,3.15,0,0,1,.89.73,5.56,5.56,0,0,1,.82,1.27,8.47,8.47,0,0,1,.59,1.7A9.53,9.53,0,0,1,413.89,117.31Z"/>
        </g>
        <g>
          <path d="M338.88,69h-2v6.82h-1.67V69h-2V67.63h5.69Z"/>
          <path d="M339,72.59a3.32,3.32,0,0,1,.65-2.17,2.48,2.48,0,0,1,3.63,0,3.29,3.29,0,0,1,.66,2.19V73a3.33,3.33,0,0,1-.65,2.18,2.51,2.51,0,0,1-3.64,0A3.36,3.36,0,0,1,339,73Zm1.6.4c0,1.09.29,1.64.87,1.64s.83-.46.87-1.36v-.68a2.61,2.61,0,0,0-.23-1.23.74.74,0,0,0-.66-.41.7.7,0,0,0-.63.41,2.61,2.61,0,0,0-.23,1.23Z"/>
          <path d="M345.3,75.84v-4.9h-.73v-1.2h.73V69.2a2.24,2.24,0,0,1,.54-1.57,1.86,1.86,0,0,1,1.45-.56,2.87,2.87,0,0,1,.73.11l0,1.27a1.4,1.4,0,0,0-.38,0c-.48,0-.71.28-.71.85v.49h.95v1.2h-.95v4.9Z"/>
          <path d="M351.62,75.84a2.09,2.09,0,0,1-.14-.47,1.35,1.35,0,0,1-1.16.58,1.75,1.75,0,0,1-1.27-.5,1.78,1.78,0,0,1-.5-1.32,1.83,1.83,0,0,1,.61-1.48,2.61,2.61,0,0,1,1.76-.53h.48v-.5a.9.9,0,0,0-.14-.58.5.5,0,0,0-.41-.16q-.6,0-.6.69h-1.59a1.77,1.77,0,0,1,.63-1.39,2.35,2.35,0,0,1,1.61-.55,2.17,2.17,0,0,1,1.55.52,2,2,0,0,1,.55,1.49v2.87a3.13,3.13,0,0,0,.22,1.24v.09Zm-.94-1.14a.93.93,0,0,0,.45-.1.84.84,0,0,0,.27-.26V73.07H351a.84.84,0,0,0-.64.26,1,1,0,0,0-.23.7C350.15,74.48,350.32,74.7,350.68,74.7Z"/>
          <path d="M356.36,74.63c.46,0,.69-.3.7-.9h1.5a2.26,2.26,0,0,1-.61,1.61,2.09,2.09,0,0,1-1.56.61,2.24,2.24,0,0,1-1.8-.73,3.35,3.35,0,0,1-.63-2.16v-.48a3.44,3.44,0,0,1,.61-2.19,2.18,2.18,0,0,1,1.81-.76,2.09,2.09,0,0,1,1.59.62,2.55,2.55,0,0,1,.59,1.77h-1.5a1.55,1.55,0,0,0-.17-.79.59.59,0,0,0-.54-.28.65.65,0,0,0-.6.3,2.58,2.58,0,0,0-.19,1.15V73a4.83,4.83,0,0,0,.08,1,.75.75,0,0,0,.24.43A.74.74,0,0,0,356.36,74.63Z"/>
          <path d="M359.46,68.16a.8.8,0,0,1,.24-.6.95.95,0,0,1,1.26,0,.8.8,0,0,1,.24.6.87.87,0,1,1-1.74,0Zm1.68,7.68h-1.6v-6.1h1.6Z"/>
          <path d="M364.22,68.24v1.5H365v1.2h-.82v3a1,1,0,0,0,.1.5.46.46,0,0,0,.38.13,1.34,1.34,0,0,0,.38,0V75.8a2.5,2.5,0,0,1-.88.15q-1.54,0-1.56-1.77V70.94h-.7v-1.2h.7v-1.5Z"/>
          <path d="M365.92,68.16a.79.79,0,0,1,.23-.6,1,1,0,0,1,1.27,0,.83.83,0,0,1,.23.6.85.85,0,0,1-.23.61.93.93,0,0,1-1.27,0A.81.81,0,0,1,365.92,68.16Zm1.67,7.68H366v-6.1h1.6Z"/>
          <path d="M370.28,69.74l.05.61a1.68,1.68,0,0,1,1.41-.72c1.05,0,1.59.73,1.62,2.2v4h-1.6V72a1.45,1.45,0,0,0-.15-.75.61.61,0,0,0-.55-.23.75.75,0,0,0-.68.44v4.43h-1.6v-6.1Z"/>
          <path d="M374.5,68.16a.8.8,0,0,1,.24-.6.85.85,0,0,1,.63-.24.82.82,0,0,1,.63.24.8.8,0,0,1,.24.6.85.85,0,0,1-.23.61.93.93,0,0,1-1.27,0A.82.82,0,0,1,374.5,68.16Zm1.68,7.68h-1.6v-6.1h1.6Z"/>
          <path d="M382.17,73a4.22,4.22,0,0,1-.47,2.22,1.63,1.63,0,0,1-1.49.74,1.46,1.46,0,0,1-1.27-.71l-.06.6h-1.47V67.18H379v3.06a1.4,1.4,0,0,1,1.19-.61,1.66,1.66,0,0,1,1.49.74,4.12,4.12,0,0,1,.48,2.15Zm-1.59-.4a3,3,0,0,0-.19-1.29.68.68,0,0,0-.65-.33.77.77,0,0,0-.73.45V74.2a.75.75,0,0,0,.74.43.68.68,0,0,0,.64-.3,2.79,2.79,0,0,0,.19-1.16Z"/>
        </g>
        <g>
          <path d="M383.3,72a.79.79,0,0,1-.08-.27.82.82,0,0,1-.68.34,1,1,0,0,1-.74-.3,1,1,0,0,1-.3-.76,1.08,1.08,0,0,1,.36-.87,1.56,1.56,0,0,1,1-.31h.28v-.29a.53.53,0,0,0-.08-.33.3.3,0,0,0-.24-.1c-.23,0-.35.13-.35.41h-.93a1,1,0,0,1,.37-.82,1.41,1.41,0,0,1,.94-.32,1.22,1.22,0,0,1,.9.31,1.14,1.14,0,0,1,.32.86v1.68a2,2,0,0,0,.13.72v0Zm-.55-.66a.53.53,0,0,0,.26-.06.47.47,0,0,0,.16-.15v-.74H383a.5.5,0,0,0-.38.15.58.58,0,0,0-.13.4C382.44,71.21,382.54,71.34,382.75,71.34Z"/>
          <path d="M385.05,73.21l-.5-.26.13-.23a1.78,1.78,0,0,0,.22-.79v-.74h.81v.66a1.67,1.67,0,0,1-.18.73A1.74,1.74,0,0,1,385.05,73.21Z"/>
          <path d="M389.2,70.34a2.39,2.39,0,0,1-.28,1.3,1,1,0,0,1-.86.43.87.87,0,0,1-.75-.42l0,.35h-.86V67h.93v1.78a.8.8,0,0,1,.69-.36,1,1,0,0,1,.87.43,2.4,2.4,0,0,1,.28,1.26Zm-.93-.23a1.79,1.79,0,0,0-.11-.76.39.39,0,0,0-.38-.19.44.44,0,0,0-.42.27v1.62a.44.44,0,0,0,.43.25.39.39,0,0,0,.37-.18,1.43,1.43,0,0,0,.11-.68Z"/>
        </g>
        <g>
          <path d="M392.69,72.51a9.61,9.61,0,0,1,.3-2.42,6.83,6.83,0,0,1,.88-2.08,3.55,3.55,0,0,1,1.26-1.27l.3.88a4.05,4.05,0,0,0-1,1.84,10.19,10.19,0,0,0-.39,2.86v.34a10.67,10.67,0,0,0,.37,3,4.26,4.26,0,0,0,1,1.91l-.3.87a3.58,3.58,0,0,1-1.25-1.24,6.91,6.91,0,0,1-.88-2,9.76,9.76,0,0,1-.31-2.38Z"/>
          <path d="M402.14,75.85h-1.66l-2.42-5.39v5.39H396.4V67.64h1.66L400.49,73V67.64h1.65Z"/>
          <path d="M407.86,71.65h-4.3V70.31h4.3Zm0,2.44h-4.3V72.76h4.3Z"/>
          <path d="M413.75,69.82a2.16,2.16,0,0,1-.25,1.06,2,2,0,0,1-.7.74,2.09,2.09,0,0,1,.8.79,2.38,2.38,0,0,1,.29,1.19,2.32,2.32,0,0,1-.63,1.72,2.29,2.29,0,0,1-1.72.64,2.34,2.34,0,0,1-1.73-.64,2.29,2.29,0,0,1-.64-1.72,2.38,2.38,0,0,1,.29-1.19,2.12,2.12,0,0,1,.81-.79,1.94,1.94,0,0,1-.71-.74,2.16,2.16,0,0,1-.25-1.06,2.27,2.27,0,0,1,.6-1.68,2.46,2.46,0,0,1,3.24,0A2.3,2.3,0,0,1,413.75,69.82Zm-2.21,4.81a.63.63,0,0,0,.56-.3,1.61,1.61,0,0,0,.19-.86,1.57,1.57,0,0,0-.2-.85.66.66,0,0,0-1.12,0,1.48,1.48,0,0,0-.21.85,1.52,1.52,0,0,0,.21.86A.66.66,0,0,0,411.54,74.63Zm.62-4.72a1.67,1.67,0,0,0-.15-.77.53.53,0,0,0-.48-.29.49.49,0,0,0-.46.28,1.56,1.56,0,0,0-.16.78,1.61,1.61,0,0,0,.16.78.53.53,0,0,0,.94,0A1.75,1.75,0,0,0,412.16,69.91Z"/>
          <path d="M419.59,69.82a2.16,2.16,0,0,1-.25,1.06,2,2,0,0,1-.7.74,2.09,2.09,0,0,1,.8.79,2.38,2.38,0,0,1,.29,1.19,2.32,2.32,0,0,1-.63,1.72,2.29,2.29,0,0,1-1.72.64,2.34,2.34,0,0,1-1.73-.64A2.29,2.29,0,0,1,415,73.6a2.38,2.38,0,0,1,.29-1.19,2.12,2.12,0,0,1,.81-.79,1.94,1.94,0,0,1-.71-.74,2.16,2.16,0,0,1-.25-1.06,2.27,2.27,0,0,1,.6-1.68,2.46,2.46,0,0,1,3.24,0A2.3,2.3,0,0,1,419.59,69.82Zm-2.21,4.81a.63.63,0,0,0,.56-.3,1.61,1.61,0,0,0,.19-.86,1.57,1.57,0,0,0-.2-.85.66.66,0,0,0-1.12,0,1.48,1.48,0,0,0-.21.85,1.52,1.52,0,0,0,.21.86A.66.66,0,0,0,417.38,74.63Zm.62-4.72a1.67,1.67,0,0,0-.15-.77.53.53,0,0,0-.48-.29.49.49,0,0,0-.46.28,1.56,1.56,0,0,0-.16.78,1.61,1.61,0,0,0,.16.78.53.53,0,0,0,.94,0A1.75,1.75,0,0,0,418,69.91Z"/>
          <path d="M423.43,72.65a8.74,8.74,0,0,1-.34,2.48,7.07,7.07,0,0,1-.93,2.06,3.36,3.36,0,0,1-1.26,1.22l-.29-.87a4.07,4.07,0,0,0,1-1.88A10.41,10.41,0,0,0,422,72.8v-.3a11,11,0,0,0-.37-2.94,4.48,4.48,0,0,0-1-2l.29-.87a3,3,0,0,1,.89.74,5.49,5.49,0,0,1,.82,1.26,8.08,8.08,0,0,1,.59,1.7A9.62,9.62,0,0,1,423.43,72.65Z"/>
        </g>
        <g>
          <path d="M111.38,89h-2v6.82h-1.66V89h-2V87.66h5.69Z"/>
          <path d="M111.51,92.61a3.34,3.34,0,0,1,.65-2.17,2.48,2.48,0,0,1,3.63,0,3.31,3.31,0,0,1,.66,2.19V93a3.32,3.32,0,0,1-.65,2.17,2.51,2.51,0,0,1-3.64,0,3.36,3.36,0,0,1-.65-2.19Zm1.6.41c0,1.08.29,1.63.87,1.63s.83-.46.87-1.36v-.68a2.61,2.61,0,0,0-.23-1.23A.74.74,0,0,0,114,91a.7.7,0,0,0-.63.41,2.61,2.61,0,0,0-.23,1.23Z"/>
          <path d="M117.81,95.86V91h-.74v-1.2h.74v-.54a2.19,2.19,0,0,1,.53-1.57,1.86,1.86,0,0,1,1.45-.56,2.87,2.87,0,0,1,.73.11l0,1.27a1.35,1.35,0,0,0-.38,0c-.48,0-.71.28-.71.85v.49h1V91h-1v4.9Z"/>
          <path d="M124.12,95.86a2.09,2.09,0,0,1-.14-.47,1.35,1.35,0,0,1-1.16.58,1.71,1.71,0,0,1-1.27-.5,1.78,1.78,0,0,1-.5-1.32,1.83,1.83,0,0,1,.61-1.48,2.62,2.62,0,0,1,1.76-.53h.48v-.49a.92.92,0,0,0-.14-.59.5.5,0,0,0-.41-.16q-.6,0-.6.69h-1.59a1.77,1.77,0,0,1,.63-1.39,2.37,2.37,0,0,1,1.61-.55,2.15,2.15,0,0,1,1.55.52,2,2,0,0,1,.55,1.49v2.87a3.13,3.13,0,0,0,.22,1.24v.09Zm-.94-1.14a.93.93,0,0,0,.45-.1.84.84,0,0,0,.27-.26V93.09h-.38a.84.84,0,0,0-.64.26,1,1,0,0,0-.23.7C122.65,94.5,122.82,94.72,123.18,94.72Z"/>
          <path d="M128.86,94.65c.46,0,.7-.3.7-.9h1.5a2.26,2.26,0,0,1-.61,1.61,2.08,2.08,0,0,1-1.56.61,2.24,2.24,0,0,1-1.8-.73,3.35,3.35,0,0,1-.63-2.16V92.6a3.44,3.44,0,0,1,.61-2.19,2.18,2.18,0,0,1,1.81-.76,2.09,2.09,0,0,1,1.59.62,2.55,2.55,0,0,1,.59,1.77h-1.5a1.57,1.57,0,0,0-.17-.79.58.58,0,0,0-.54-.28.63.63,0,0,0-.59.3,2.42,2.42,0,0,0-.2,1.15V93a4.83,4.83,0,0,0,.08,1,.81.81,0,0,0,.24.43A.74.74,0,0,0,128.86,94.65Z"/>
          <path d="M132,88.19a.81.81,0,0,1,.24-.61.95.95,0,0,1,1.26,0,.81.81,0,0,1,.24.61.85.85,0,0,1-.23.6.83.83,0,0,1-.64.25.79.79,0,0,1-.63-.25A.81.81,0,0,1,132,88.19Zm1.68,7.67H132v-6.1h1.6Z"/>
          <path d="M136.73,88.26v1.5h.81V91h-.81v3a1,1,0,0,0,.09.5.47.47,0,0,0,.39.13,1.31,1.31,0,0,0,.37,0v1.24a2.5,2.5,0,0,1-.88.15q-1.55,0-1.56-1.77V91h-.7v-1.2h.7v-1.5Z"/>
          <path d="M138.42,88.19a.84.84,0,0,1,.23-.61,1,1,0,0,1,1.27,0,.84.84,0,0,1,.23.61.85.85,0,0,1-.23.6.93.93,0,0,1-1.27,0A.81.81,0,0,1,138.42,88.19Zm1.67,7.67h-1.6v-6.1h1.6Z"/>
          <path d="M142.78,89.76l.05.61a1.68,1.68,0,0,1,1.41-.72c1,0,1.59.73,1.62,2.2v4h-1.6V92a1.45,1.45,0,0,0-.15-.75.61.61,0,0,0-.55-.23.72.72,0,0,0-.67.44v4.43h-1.6v-6.1Z"/>
          <path d="M147,88.19a.8.8,0,0,1,.23-.61,1,1,0,0,1,1.27,0,.84.84,0,0,1,.23.61.85.85,0,0,1-.23.6.93.93,0,0,1-1.27,0A.81.81,0,0,1,147,88.19Zm1.67,7.67h-1.6v-6.1h1.6Z"/>
          <path d="M154.67,93a4.22,4.22,0,0,1-.47,2.22,1.63,1.63,0,0,1-1.49.74,1.45,1.45,0,0,1-1.27-.71l-.05.6h-1.48V87.2h1.6v3.06a1.4,1.4,0,0,1,1.19-.61,1.65,1.65,0,0,1,1.49.74,4.12,4.12,0,0,1,.48,2.15Zm-1.59-.4a3,3,0,0,0-.19-1.29.68.68,0,0,0-.65-.33.77.77,0,0,0-.73.45v2.78a.75.75,0,0,0,.74.43.68.68,0,0,0,.64-.3,2.64,2.64,0,0,0,.19-1.16Z"/>
        </g>
        <g>
          <path d="M155.79,92a1.92,1.92,0,0,1-.08-.27.8.8,0,0,1-.67.34,1,1,0,0,1-.75-.3A1,1,0,0,1,154,91a1.1,1.1,0,0,1,.36-.87,1.61,1.61,0,0,1,1-.31h.29v-.28a.5.5,0,0,0-.09-.34.27.27,0,0,0-.24-.1c-.23,0-.34.13-.34.41h-.93a1,1,0,0,1,.37-.82,1.38,1.38,0,0,1,.93-.32,1.26,1.26,0,0,1,.91.31,1.15,1.15,0,0,1,.32.87v1.67a1.78,1.78,0,0,0,.13.72V92Zm-.55-.66a.57.57,0,0,0,.27-.06.46.46,0,0,0,.16-.15V90.4h-.23a.48.48,0,0,0-.37.15.6.6,0,0,0-.14.41C154.93,91.22,155,91.35,155.24,91.35Z"/>
          <path d="M157.55,93.22l-.5-.26.13-.23a1.64,1.64,0,0,0,.21-.79v-.73h.81v.66a1.66,1.66,0,0,1-.18.72A1.86,1.86,0,0,1,157.55,93.22Z"/>
          <path d="M161.7,90.35a2.49,2.49,0,0,1-.28,1.3.94.94,0,0,1-.87.43.85.85,0,0,1-.74-.42l0,.35h-.86V87h.93v1.78a.83.83,0,0,1,.7-.36,1,1,0,0,1,.86.43,2.39,2.39,0,0,1,.29,1.26Zm-.93-.23a1.79,1.79,0,0,0-.11-.76.39.39,0,0,0-.38-.19.46.46,0,0,0-.43.27v1.62a.47.47,0,0,0,.44.25.4.4,0,0,0,.37-.18,1.55,1.55,0,0,0,.11-.67Z"/>
        </g>
        <g>
          <path d="M165.19,92.52a9.61,9.61,0,0,1,.29-2.42,6.85,6.85,0,0,1,.89-2.08,3.55,3.55,0,0,1,1.26-1.27l.29.88a4,4,0,0,0-1,1.84,10.19,10.19,0,0,0-.39,2.86v.34a10.62,10.62,0,0,0,.37,3,4.16,4.16,0,0,0,1,1.91l-.29.87a3.5,3.5,0,0,1-1.25-1.24,6.7,6.7,0,0,1-.88-2,9.43,9.43,0,0,1-.31-2.39Z"/>
          <path d="M174.64,95.86H173l-2.42-5.39v5.39H168.9V87.65h1.66L173,93V87.65h1.65Z"/>
          <path d="M180.35,91.66h-4.3V90.32h4.3Zm0,2.44h-4.3V92.77h4.3Z"/>
          <path d="M186.48,95.86h-4.83V94.73l2.22-2.82a6.21,6.21,0,0,0,.62-1,2.14,2.14,0,0,0,.2-.85,1.64,1.64,0,0,0-.19-.86.6.6,0,0,0-.54-.31.7.7,0,0,0-.62.36,1.93,1.93,0,0,0-.23,1h-1.6a3,3,0,0,1,.32-1.38,2.37,2.37,0,0,1,.87-1,2.44,2.44,0,0,1,1.29-.34,2.11,2.11,0,0,1,2.31,2.33,3.17,3.17,0,0,1-.34,1.4A8.71,8.71,0,0,1,184.75,93l-1.06,1.5h2.79Z"/>
          <path d="M192.32,95.86h-4.83V94.73l2.22-2.82a6.21,6.21,0,0,0,.62-1,2.14,2.14,0,0,0,.2-.85,1.64,1.64,0,0,0-.19-.86.6.6,0,0,0-.54-.31.7.7,0,0,0-.62.36,1.93,1.93,0,0,0-.23,1h-1.6a3,3,0,0,1,.32-1.38,2.37,2.37,0,0,1,.87-1,2.44,2.44,0,0,1,1.29-.34,2.11,2.11,0,0,1,2.31,2.33,3.17,3.17,0,0,1-.34,1.4A8.71,8.71,0,0,1,190.59,93l-1.06,1.5h2.79Z"/>
          <path d="M193.49,91.82l.41-4.17h4V89H195.2l-.14,1.76a1.73,1.73,0,0,1,.95-.31,1.83,1.83,0,0,1,1.56.72,3.33,3.33,0,0,1,.55,2,2.88,2.88,0,0,1-.65,2,2.19,2.19,0,0,1-1.75.76,2.39,2.39,0,0,1-1.2-.31,2.22,2.22,0,0,1-.87-.85,2.46,2.46,0,0,1-.32-1.24h1.57a1.51,1.51,0,0,0,.26.79.67.67,0,0,0,1.16-.1,2.39,2.39,0,0,0,.21-1.13,1.86,1.86,0,0,0-.25-1.07.92.92,0,0,0-1.42,0l-.1.14Z"/>
          <path d="M201.76,92.66a9.11,9.11,0,0,1-.33,2.48,7.34,7.34,0,0,1-.93,2.06,3.51,3.51,0,0,1-1.26,1.22l-.29-.87a4.26,4.26,0,0,0,1-1.88,10,10,0,0,0,.38-2.86v-.3a10.53,10.53,0,0,0-.37-2.93,4.46,4.46,0,0,0-1-2l.29-.87a3.35,3.35,0,0,1,.89.74,5.68,5.68,0,0,1,.82,1.27,8.59,8.59,0,0,1,.59,1.69A9.66,9.66,0,0,1,201.76,92.66Z"/>
        </g>
        <g>
          <path d="M265.09,98.44H263V90.33l-2,.78V89.39l3.87-1.58h.22Z"/>
          <path d="M268.34,91.43a1.09,1.09,0,0,1,.33-.82,1.21,1.21,0,0,1,.87-.32,1.19,1.19,0,0,1,.86.32,1.08,1.08,0,0,1,.34.82,1.06,1.06,0,0,1-.35.82,1.25,1.25,0,0,1-.85.31,1.22,1.22,0,0,1-.86-.32A1,1,0,0,1,268.34,91.43Zm0,6a1.07,1.07,0,0,1,.33-.81,1.18,1.18,0,0,1,.87-.33,1.24,1.24,0,0,1,.86.32,1.1,1.1,0,0,1,.34.82,1,1,0,0,1-.35.82,1.33,1.33,0,0,1-1.71,0A1.05,1.05,0,0,1,268.34,97.39Z"/>
          <path d="M276.74,98.44h-2.07V90.33l-2,.78V89.39l3.87-1.58h.22Z"/>
        </g>
        <g>
          <path d="M268,177.49h-1.88v-7.37l-1.84.71v-1.57l3.52-1.44h.2Z"/>
          <path d="M276.19,170.4a2.57,2.57,0,0,1-.3,1.25,2.36,2.36,0,0,1-.82.87,2.4,2.4,0,0,1,.94.93,2.71,2.71,0,0,1,.35,1.39,2.87,2.87,0,0,1-4.8,2,2.72,2.72,0,0,1-.76-2,2.77,2.77,0,0,1,.35-1.4,2.44,2.44,0,0,1,.94-.92,2.28,2.28,0,0,1-.82-.87,2.57,2.57,0,0,1-.3-1.25,2.67,2.67,0,0,1,.71-2,2.88,2.88,0,0,1,3.81,0A2.72,2.72,0,0,1,276.19,170.4Zm-2.6,5.66a.74.74,0,0,0,.66-.36,1.88,1.88,0,0,0,.22-1,1.91,1.91,0,0,0-.23-1,.77.77,0,0,0-1.32,0,1.82,1.82,0,0,0-.24,1,1.78,1.78,0,0,0,.24,1A.77.77,0,0,0,273.59,176.06Zm.73-5.56a1.89,1.89,0,0,0-.18-.9.59.59,0,0,0-.56-.34.58.58,0,0,0-.54.33,1.79,1.79,0,0,0-.19.91,1.88,1.88,0,0,0,.19.92.61.61,0,0,0,1.1,0A2,2,0,0,0,274.32,170.5Z"/>
        </g>
        <g>
          <path d="M245.45,60.76h-.68v2.47h-1.36V56.48h2.18a2.17,2.17,0,0,1,1.58.53,2,2,0,0,1,.56,1.51,2,2,0,0,1-1,1.88l1.19,2.77v.06h-1.47Zm-.68-1.13h.78a.71.71,0,0,0,.61-.27,1.19,1.19,0,0,0,.21-.73c0-.68-.27-1-.8-1h-.8Z"/>
          <path d="M251,63.23a1.61,1.61,0,0,1-.11-.39,1.12,1.12,0,0,1-1,.49,1.39,1.39,0,0,1-1-.42,1.46,1.46,0,0,1-.42-1.08,1.52,1.52,0,0,1,.5-1.22,2.17,2.17,0,0,1,1.45-.44h.4v-.41a.85.85,0,0,0-.11-.48.43.43,0,0,0-.34-.14c-.33,0-.49.2-.49.58h-1.32a1.46,1.46,0,0,1,.53-1.15,1.92,1.92,0,0,1,1.32-.45,1.75,1.75,0,0,1,1.27.43,1.57,1.57,0,0,1,.46,1.23v2.36a2.47,2.47,0,0,0,.18,1v.08Zm-.78-.93a.76.76,0,0,0,.38-.09.64.64,0,0,0,.22-.21V61h-.31a.69.69,0,0,0-.53.21.8.8,0,0,0-.19.57C249.78,62.11,249.92,62.3,250.21,62.3Z"/>
          <path d="M254.28,58.21l0,.5a1.38,1.38,0,0,1,1.16-.59c.87,0,1.31.6,1.33,1.81v3.3H255.5V60a1.22,1.22,0,0,0-.13-.62.51.51,0,0,0-.45-.19.62.62,0,0,0-.56.37v3.64H253v-5Z"/>
          <path d="M257.58,60.57a3.25,3.25,0,0,1,.42-1.84,1.37,1.37,0,0,1,1.21-.61,1.19,1.19,0,0,1,1,.5V56.1h1.32v7.13h-1.19l-.06-.51a1.21,1.21,0,0,1-1,.61,1.37,1.37,0,0,1-1.21-.61,3.25,3.25,0,0,1-.42-1.77Zm1.32.33a2.36,2.36,0,0,0,.16,1,.55.55,0,0,0,.53.29.63.63,0,0,0,.59-.35V59.59a.63.63,0,0,0-.59-.37.56.56,0,0,0-.52.29,2.17,2.17,0,0,0-.17,1Z"/>
          <path d="M262.32,60.56a2.71,2.71,0,0,1,.53-1.79,2,2,0,0,1,3,0,2.72,2.72,0,0,1,.54,1.8v.32a2.77,2.77,0,0,1-.53,1.79,2.06,2.06,0,0,1-3,0,2.72,2.72,0,0,1-.53-1.8Zm1.31.33q0,1.35.72,1.35c.44,0,.68-.38.72-1.13v-.55a2.07,2.07,0,0,0-.19-1,.59.59,0,0,0-.54-.33.58.58,0,0,0-.52.33,2.19,2.19,0,0,0-.19,1Z"/>
          <path d="M268.43,58.21l0,.47a1.38,1.38,0,0,1,1.16-.56,1.08,1.08,0,0,1,1.07.68,1.37,1.37,0,0,1,1.23-.68c.88,0,1.33.61,1.35,1.82v3.29H272V60a1.25,1.25,0,0,0-.12-.63.44.44,0,0,0-.4-.18c-.25,0-.43.15-.55.45v3.56h-1.32V60a1.39,1.39,0,0,0-.11-.63.45.45,0,0,0-.42-.19.59.59,0,0,0-.53.37v3.64H267.2v-5Z"/>
          <path d="M274.25,56.91a.68.68,0,0,1,.19-.5.71.71,0,0,1,.52-.19.69.69,0,0,1,.52.19.73.73,0,0,1,0,1,.65.65,0,0,1-.52.2.66.66,0,0,1-.52-.2A.68.68,0,0,1,274.25,56.91Zm1.38,6.32h-1.32v-5h1.32Z"/>
          <path d="M278.1,62.14h2v1.09h-3.54v-.82l1.94-3.1h-1.9v-1.1h3.47V59Z"/>
          <path d="M283.33,63.23a1.61,1.61,0,0,1-.11-.39,1.1,1.1,0,0,1-1,.49,1.39,1.39,0,0,1-1-.42,1.46,1.46,0,0,1-.42-1.08,1.49,1.49,0,0,1,.51-1.22,2.13,2.13,0,0,1,1.45-.44h.4v-.41a.77.77,0,0,0-.12-.48.43.43,0,0,0-.34-.14c-.33,0-.49.2-.49.58h-1.32a1.46,1.46,0,0,1,.53-1.15,1.94,1.94,0,0,1,1.32-.45,1.79,1.79,0,0,1,1.28.43,1.6,1.6,0,0,1,.45,1.23v2.36a2.47,2.47,0,0,0,.18,1v.08Zm-.77-.93a.72.72,0,0,0,.37-.09.67.67,0,0,0,.23-.21V61h-.32a.69.69,0,0,0-.53.21.8.8,0,0,0-.19.57C282.12,62.11,282.27,62.3,282.56,62.3Z"/>
          <path d="M287,57v1.23h.67v1H287v2.49a.68.68,0,0,0,.08.41c.05.08.16.11.31.11a1.3,1.3,0,0,0,.31,0v1a1.88,1.88,0,0,1-.72.13c-.85,0-1.28-.49-1.29-1.46V59.2h-.58v-1h.58V57Z"/>
          <path d="M288.34,56.91a.68.68,0,0,1,.19-.5.71.71,0,0,1,.52-.19.69.69,0,0,1,.52.19.69.69,0,0,1,.2.5.68.68,0,0,1-.19.5.69.69,0,0,1-.53.2.66.66,0,0,1-.52-.2A.68.68,0,0,1,288.34,56.91Zm1.38,6.32H288.4v-5h1.32Z"/>
          <path d="M290.58,60.56a2.71,2.71,0,0,1,.54-1.79,1.83,1.83,0,0,1,1.49-.65,1.85,1.85,0,0,1,1.5.65,2.72,2.72,0,0,1,.54,1.8v.32a2.71,2.71,0,0,1-.54,1.79,2,2,0,0,1-3,0,2.72,2.72,0,0,1-.54-1.8Zm1.32.33q0,1.35.72,1.35c.44,0,.68-.38.71-1.13v-.55a2.19,2.19,0,0,0-.19-1,.6.6,0,0,0-.54-.33.57.57,0,0,0-.52.33,2.07,2.07,0,0,0-.19,1Z"/>
          <path d="M296.67,58.21l0,.5a1.41,1.41,0,0,1,1.17-.59c.86,0,1.31.6,1.33,1.81v3.3h-1.32V60a1.12,1.12,0,0,0-.13-.62.48.48,0,0,0-.44-.19.61.61,0,0,0-.56.37v3.64h-1.32v-5Z"/>
        </g>
        <g>
          <path d="M369.59,171.81h.91a.85.85,0,0,0,.76-.37,1.71,1.71,0,0,0,.24-1,1.44,1.44,0,0,0-.25-.9.82.82,0,0,0-.67-.32.8.8,0,0,0-.64.3,1.22,1.22,0,0,0-.24.77h-1.88a2.57,2.57,0,0,1,.35-1.35,2.44,2.44,0,0,1,1-.94,2.83,2.83,0,0,1,1.39-.34,2.87,2.87,0,0,1,2.09.74,2.69,2.69,0,0,1,.76,2,2.41,2.41,0,0,1-1.25,2.08,2,2,0,0,1,1,.87,2.67,2.67,0,0,1,.34,1.38,2.75,2.75,0,0,1-.82,2.07,3,3,0,0,1-2.15.77,2.63,2.63,0,0,1-2.79-2.78h1.88a1.37,1.37,0,0,0,.27.87.82.82,0,0,0,.69.35,1,1,0,0,0,.77-.35,1.56,1.56,0,0,0,.28-1c0-.95-.37-1.43-1.11-1.43h-.92Z"/>
          <path d="M379.26,167.73v1.6h-.1a2.25,2.25,0,0,0-1.68.63,2.92,2.92,0,0,0-.75,1.75,1.93,1.93,0,0,1,1.51-.69,2,2,0,0,1,1.68.9,4.15,4.15,0,0,1,.62,2.39,4,4,0,0,1-.36,1.71,2.7,2.7,0,0,1-1,1.18,2.62,2.62,0,0,1-1.46.42,2.51,2.51,0,0,1-2.11-1.05,4.62,4.62,0,0,1-.79-2.84V173a7.36,7.36,0,0,1,.5-2.8,4,4,0,0,1,1.45-1.84,3.89,3.89,0,0,1,2.2-.66Zm-1.61,4.84a.84.84,0,0,0-.6.22,1.5,1.5,0,0,0-.36.56V174a3.38,3.38,0,0,0,.27,1.53.77.77,0,0,0,1.44,0,2.55,2.55,0,0,0,.27-1.25,2.45,2.45,0,0,0-.28-1.26A.83.83,0,0,0,377.65,172.57Z"/>
        </g>
        <g>
          <path d="M437.05,173.84h.83v1.56h-.83v2.09h-1.87V175.4H432l-.08-1.21,3.27-6.36h1.88Zm-3.33,0h1.46v-3.23l0,.08Z"/>
          <path d="M443.92,173.84h.83v1.56h-.83v2.09h-1.87V175.4h-3.2l-.08-1.21,3.27-6.36h1.88Zm-3.33,0h1.46v-3.23l0,.08Z"/>
        </g>
        <g>
          <path d="M467.15,173.9l.92-6.07H470l-1.72,9.66h-2l-1.12-5.69-1.12,5.69h-2l-1.72-9.66h1.94l.91,6.07,1.13-6.07H466Z"/>
          <path d="M473.65,177.62a3,3,0,0,1-2.25-.86,3.48,3.48,0,0,1-.81-2.47v-.57a4.13,4.13,0,0,1,.74-2.62,2.6,2.6,0,0,1,2.13-.92,2.45,2.45,0,0,1,2,.87,4.12,4.12,0,0,1,.69,2.55v.92h-3.73a1.93,1.93,0,0,0,.35,1.17,1.18,1.18,0,0,0,1,.37,2.1,2.1,0,0,0,1.57-.64l.74,1.13a2.43,2.43,0,0,1-1,.78A3.55,3.55,0,0,1,473.65,177.62Zm-1.18-4.4h1.88v-.17a2.07,2.07,0,0,0-.21-1,.76.76,0,0,0-.69-.33.8.8,0,0,0-.72.35A2.6,2.6,0,0,0,472.47,173.22Z"/>
          <path d="M480.15,177.62a3,3,0,0,1-2.25-.86,3.48,3.48,0,0,1-.81-2.47v-.57a4.07,4.07,0,0,1,.74-2.62,2.59,2.59,0,0,1,2.13-.92,2.41,2.41,0,0,1,2,.87,4.06,4.06,0,0,1,.7,2.55v.92H479a1.87,1.87,0,0,0,.35,1.17,1.18,1.18,0,0,0,1,.37,2.1,2.1,0,0,0,1.57-.64l.74,1.13a2.5,2.5,0,0,1-1,.78A3.58,3.58,0,0,1,480.15,177.62Zm-1.18-4.4h1.88v-.17a2,2,0,0,0-.22-1,.73.73,0,0,0-.68-.33.8.8,0,0,0-.72.35A2.47,2.47,0,0,0,479,173.22Z"/>
          <path d="M486.13,174.72l-.5.57v2.2h-1.88V167.3h1.88v5.51l.23-.35,1.3-2.15h2.23l-2.08,3,2.28,4.22h-2.15Z"/>
          <path d="M493.43,175.57a.62.62,0,0,0-.23-.45,5,5,0,0,0-1-.54,4.32,4.32,0,0,1-1.6-1,1.83,1.83,0,0,1-.43-1.25,2,2,0,0,1,.68-1.56,2.61,2.61,0,0,1,1.8-.61,2.82,2.82,0,0,1,1.89.61,2.06,2.06,0,0,1,.71,1.64h-1.88c0-.58-.24-.88-.73-.88a.7.7,0,0,0-.49.19.68.68,0,0,0-.19.52.54.54,0,0,0,.21.42,5.1,5.1,0,0,0,1,.52,4.1,4.1,0,0,1,1.62.94,1.92,1.92,0,0,1,.48,1.35,1.9,1.9,0,0,1-.72,1.55,3.35,3.35,0,0,1-3.29.27,2.26,2.26,0,0,1-.95-.86,2.16,2.16,0,0,1-.34-1.18h1.78a1.15,1.15,0,0,0,.23.73.89.89,0,0,0,.71.25C493.17,176.25,493.43,176,493.43,175.57Z"/>
        </g>
        <g>
          <line x1="238.97" y1="93.22" x2="253.96" y2="93.22" fill="none" stroke="#000" stroke-miterlimit="10" stroke-width="2"/>
          <polyline points="308.83 67.7 293.3 67.7 293.3 117.19 308.83 117.19" fill="none" stroke="#000" stroke-miterlimit="10" stroke-width="2"/>
          <polygon points="307.37 62.71 316 67.7 307.37 72.68 307.37 62.71"/>
          <polygon points="307.37 122.17 316 117.19 307.37 112.2 307.37 122.17"/>
          <line x1="285.35" y1="92.91" x2="293.3" y2="92.91" fill="none" stroke="#000" stroke-miterlimit="10" stroke-width="2"/>
        </g>
      </g>
    </g>
  </g>
</svg>
