<svg xmlns="http://www.w3.org/2000/svg" xmlns:xlink="http://www.w3.org/1999/xlink" width="611.4" height="259.3" viewBox="0 0 611.4 259.3">
  <defs>
    <clipPath id="clip-path">
      <rect width="611.4" height="39.17" fill="none"/>
    </clipPath>
    <clipPath id="clip-path-2">
      <rect y="72.54" width="611.4" height="39.17" fill="none"/>
    </clipPath>
    <clipPath id="clip-path-3">
      <rect y="145.08" width="611.4" height="39.17" fill="none"/>
    </clipPath>
    <clipPath id="clip-path-4">
      <rect y="220.13" width="611.4" height="39.17" fill="none"/>
    </clipPath>
  </defs>
  <g id="Layer_2" data-name="Layer 2">
    <g id="Layer_1-2" data-name="Layer 1">
      <g>
        <g>
          <g opacity="0.7">
            <g clip-path="url(#clip-path)">
              <rect width="611.4" height="39.17" fill="#41aef2"/>
            </g>
          </g>
          <g opacity="0.3">
            <g clip-path="url(#clip-path-2)">
              <rect y="72.54" width="611.4" height="39.17" fill="#41aef2"/>
            </g>
          </g>
          <g opacity="0.3">
            <g clip-path="url(#clip-path-3)">
              <rect y="145.08" width="611.4" height="39.17" fill="#41aef2"/>
            </g>
          </g>
          <g opacity="0.3">
            <g clip-path="url(#clip-path-4)">
              <rect y="220.13" width="611.4" height="39.17" fill="#41aef2"/>
            </g>
          </g>
        </g>
        <g>
          <path d="M40.14,28.09V15.29h4a4.6,4.6,0,0,1,3,.89,3.28,3.28,0,0,1,1,2.62,3.23,3.23,0,0,1-.43,1.68,2.55,2.55,0,0,1-1.18,1,2.3,2.3,0,0,1,1.33,1,3.42,3.42,0,0,1,.46,1.84,3.65,3.65,0,0,1-1,2.81,4.22,4.22,0,0,1-3,.95Zm2.58-7.45h1.34a1.37,1.37,0,0,0,1.53-1.57,1.78,1.78,0,0,0-.36-1.25,1.49,1.49,0,0,0-1.14-.38H42.72Zm0,1.88v3.42h1.65a1.29,1.29,0,0,0,1.06-.43,1.83,1.83,0,0,0,.36-1.22c0-1.15-.42-1.74-1.25-1.77Z" fill="#fff"/>
          <path d="M49.82,23a5.16,5.16,0,0,1,1-3.39,3.87,3.87,0,0,1,5.66,0,5.2,5.2,0,0,1,1,3.41v.61a5.17,5.17,0,0,1-1,3.39,3.45,3.45,0,0,1-2.83,1.22A3.49,3.49,0,0,1,50.84,27a5.2,5.2,0,0,1-1-3.41Zm2.5.63c0,1.7.45,2.55,1.36,2.55S55,25.49,55,24.07V23a4,4,0,0,0-.36-1.92,1.12,1.12,0,0,0-1-.63,1.1,1.1,0,0,0-1,.63A4.1,4.1,0,0,0,52.32,23Z" fill="#fff"/>
          <path d="M58.73,23a6.28,6.28,0,0,1,.79-3.49,2.65,2.65,0,0,1,2.31-1.15,2.24,2.24,0,0,1,1.83,1V14.59h2.5v13.5H63.9l-.11-1a2.3,2.3,0,0,1-2,1.14,2.59,2.59,0,0,1-2.28-1.14,6,6,0,0,1-.81-3.36Zm2.5.63a4.52,4.52,0,0,0,.3,2,1.05,1.05,0,0,0,1,.56,1.23,1.23,0,0,0,1.12-.66V21.19a1.2,1.2,0,0,0-1.11-.71,1.07,1.07,0,0,0-1,.56,4.3,4.3,0,0,0-.32,2Z" fill="#fff"/>
          <path d="M71,24l1.26-5.37H75L71.83,29.51c-.47,1.61-1.35,2.42-2.65,2.42a3.8,3.8,0,0,1-1-.17V29.82h.29a1.16,1.16,0,0,0,1.32-1l.2-.65-2.75-9.6H69.9Z" fill="#fff"/>
          <path d="M88.61,23.33l1.21-8h2.56L90.1,28.09H87.51L86,20.55l-1.47,7.54h-2.6l-2.29-12.8h2.58l1.2,8,1.5-8H87.1Z" fill="#fff"/>
          <path d="M97.22,28.26a3.89,3.89,0,0,1-3-1.14,4.57,4.57,0,0,1-1.08-3.27V23.1a5.42,5.42,0,0,1,1-3.48A3.41,3.41,0,0,1,97,18.4a3.23,3.23,0,0,1,2.7,1.15,5.46,5.46,0,0,1,.92,3.39v1.22h-5a2.61,2.61,0,0,0,.47,1.55,1.58,1.58,0,0,0,1.27.49,2.85,2.85,0,0,0,2.09-.85l1,1.5a3.2,3.2,0,0,1-1.33,1A4.57,4.57,0,0,1,97.22,28.26Zm-1.56-5.83h2.49V22.2a2.81,2.81,0,0,0-.28-1.29,1,1,0,0,0-.92-.44,1,1,0,0,0-.94.46A3.11,3.11,0,0,0,95.66,22.43Z" fill="#fff"/>
          <path d="M102,16.12a1.26,1.26,0,0,1,.37-1,1.48,1.48,0,0,1,2,0,1.26,1.26,0,0,1,.37,1,1.34,1.34,0,0,1-.36.95,1.32,1.32,0,0,1-1,.37,1.3,1.3,0,0,1-1-.37A1.34,1.34,0,0,1,102,16.12Zm2.61,12h-2.5V18.58h2.5Z" fill="#fff"/>
          <path d="M106.23,23a5.85,5.85,0,0,1,.85-3.49,2.77,2.77,0,0,1,2.36-1.15,2.29,2.29,0,0,1,2,1l.09-.84h2.24v9.51a3.64,3.64,0,0,1-1,2.78,4.1,4.1,0,0,1-2.92,1,4.84,4.84,0,0,1-1.65-.31,3,3,0,0,1-1.28-.8l.84-1.72a2.41,2.41,0,0,0,.91.6,2.7,2.7,0,0,0,1.06.24,1.57,1.57,0,0,0,1.2-.4,1.91,1.91,0,0,0,.38-1.29v-.82a2.25,2.25,0,0,1-1.86.93,2.7,2.7,0,0,1-2.35-1.18,5.84,5.84,0,0,1-.85-3.33Zm2.49.63a4,4,0,0,0,.34,1.92,1.16,1.16,0,0,0,1.09.6,1.3,1.3,0,0,0,1.14-.55V21.09a1.26,1.26,0,0,0-1.12-.61,1.18,1.18,0,0,0-1.09.61,4,4,0,0,0-.36,1.95Z" fill="#fff"/>
          <path d="M118,19.41a2.47,2.47,0,0,1,2-1,2.3,2.3,0,0,1,2,.92,4.61,4.61,0,0,1,.69,2.72v6.05h-2.5v-6a2.11,2.11,0,0,0-.26-1.21.94.94,0,0,0-.84-.38,1.17,1.17,0,0,0-1,.63v7h-2.49V14.59H118Z" fill="#fff"/>
          <path d="M127.34,16.24v2.34h1.27v1.86h-1.27v4.73a1.42,1.42,0,0,0,.15.77.69.69,0,0,0,.59.21,2.38,2.38,0,0,0,.59-.06l0,1.94a4.06,4.06,0,0,1-1.37.23q-2.4,0-2.43-2.76V20.44h-1.1V18.58h1.1V16.24Z" fill="#fff"/>
          <path d="M134.27,22.88a15,15,0,0,1,.46-3.77,11,11,0,0,1,1.38-3.24,5.46,5.46,0,0,1,2-2l.46,1.37A6.38,6.38,0,0,0,137,18.13a16,16,0,0,0-.61,4.46v.52a16.58,16.58,0,0,0,.58,4.64,6.55,6.55,0,0,0,1.6,3l-.46,1.36a5.4,5.4,0,0,1-2-2A10.64,10.64,0,0,1,134.75,27a15.17,15.17,0,0,1-.48-3.72Z" fill="#fff"/>
          <path d="M143.09,24.42l-.66.75v2.92h-2.49V14.59h2.49v7.29l.3-.45,1.73-2.85h3l-2.76,3.92,3,5.59h-2.85Z" fill="#fff"/>
          <path d="M148.09,23a5.93,5.93,0,0,1,.84-3.49,2.8,2.8,0,0,1,2.37-1.15,2.26,2.26,0,0,1,2,1l.1-.84h2.24v9.51a3.64,3.64,0,0,1-1,2.78,4.1,4.1,0,0,1-2.92,1,4.8,4.8,0,0,1-1.65-.31,3,3,0,0,1-1.28-.8l.83-1.72a2.54,2.54,0,0,0,.92.6,2.7,2.7,0,0,0,1.06.24,1.57,1.57,0,0,0,1.2-.4,1.91,1.91,0,0,0,.37-1.29v-.82a2.22,2.22,0,0,1-1.85.93,2.7,2.7,0,0,1-2.35-1.18,5.76,5.76,0,0,1-.85-3.33Zm2.49.63a4,4,0,0,0,.34,1.92,1.16,1.16,0,0,0,1.09.6,1.27,1.27,0,0,0,1.13-.55V21.09a1.25,1.25,0,0,0-1.11-.61,1.21,1.21,0,0,0-1.1.61,4.15,4.15,0,0,0-.35,1.95Z" fill="#fff"/>
          <path d="M161.42,23.1A14,14,0,0,1,160.9,27a11.25,11.25,0,0,1-1.45,3.21,5.59,5.59,0,0,1-2,1.91L157,30.73a6.53,6.53,0,0,0,1.58-2.93,16,16,0,0,0,.6-4.47v-.46a16.48,16.48,0,0,0-.58-4.58,6.81,6.81,0,0,0-1.6-3l.46-1.36A4.78,4.78,0,0,1,158.87,15a8.71,8.71,0,0,1,1.28,2,12.88,12.88,0,0,1,.92,2.65A14.63,14.63,0,0,1,161.42,23.1Z" fill="#fff"/>
        </g>
        <path d="M40.87,57.53l.53-6.24h5.41v1H42.24l-.36,4.29a3,3,0,0,1,2-.7A2.75,2.75,0,0,1,46.18,57,4.84,4.84,0,0,1,47,60a5.13,5.13,0,0,1-.85,3.13,2.81,2.81,0,0,1-2.4,1.12,3,3,0,0,1-2.29-.94,4.05,4.05,0,0,1-1-2.6h.93a3.28,3.28,0,0,0,.73,2,2.05,2.05,0,0,0,1.62.67,1.89,1.89,0,0,0,1.69-.87A4.39,4.39,0,0,0,46.06,60a3.74,3.74,0,0,0-.65-2.28,2,2,0,0,0-1.74-.88,2.75,2.75,0,0,0-1.09.2,2.66,2.66,0,0,0-.93.72Z" fill="#4d4d4d"/>
        <g>
          <path d="M54.67,52.15v2.43H56.3v.88H54.67v6.32a2.21,2.21,0,0,0,.24,1.16.81.81,0,0,0,.77.38,4.09,4.09,0,0,0,.71-.09l0,.88a2.38,2.38,0,0,1-.95.15c-1.15,0-1.73-.78-1.76-2.35V55.46H52.23v-.88H53.7V52.15Z" fill="#4d4d4d"/>
          <path d="M57.88,58.85a5.15,5.15,0,0,1,.93-3.25,3.31,3.31,0,0,1,5.08,0,5.16,5.16,0,0,1,.94,3.24v1a5,5,0,0,1-.94,3.26,3,3,0,0,1-2.52,1.17,3.11,3.11,0,0,1-2.53-1.14,5,5,0,0,1-1-3.15Zm1,1a4.36,4.36,0,0,0,.67,2.58,2.29,2.29,0,0,0,3.68,0,4.47,4.47,0,0,0,.64-2.58v-1a4.45,4.45,0,0,0-.66-2.59,2.13,2.13,0,0,0-1.84-.94,2.08,2.08,0,0,0-1.8.92,4.27,4.27,0,0,0-.69,2.53Z" fill="#4d4d4d"/>
        </g>
        <g>
          <path d="M71.59,58.33,76.66,61v1.13l-6.1-3.33v-.87l6.1-3.32v1.13Z" fill="#4d4d4d"/>
          <path d="M85.75,51.91,81.18,64.09h-1L84.71,52.2H78.65v-.91h7.1Z" fill="#4d4d4d"/>
        </g>
        <path d="M47,87.91l-4.57,12.18h-1L45.91,88.2H39.85v-.91H47Z" fill="#4d4d4d"/>
        <g>
          <path d="M54.67,88.15v2.43H56.3v.88H54.67v6.32a2.21,2.21,0,0,0,.24,1.16.81.81,0,0,0,.77.38,4.09,4.09,0,0,0,.71-.09l0,.88a2.38,2.38,0,0,1-.95.15c-1.15,0-1.73-.78-1.76-2.35V91.46H52.23v-.88H53.7V88.15Z" fill="#4d4d4d"/>
          <path d="M57.88,94.85a5.15,5.15,0,0,1,.93-3.25,3.31,3.31,0,0,1,5.08,0,5.16,5.16,0,0,1,.94,3.24v1a5,5,0,0,1-.94,3.26,3,3,0,0,1-2.52,1.17,3.11,3.11,0,0,1-2.53-1.14,5,5,0,0,1-1-3.15Zm1,1a4.36,4.36,0,0,0,.67,2.58,2.29,2.29,0,0,0,3.68,0,4.47,4.47,0,0,0,.64-2.58v-1a4.45,4.45,0,0,0-.66-2.59,2.13,2.13,0,0,0-1.84-.94,2.08,2.08,0,0,0-1.8.92,4.27,4.27,0,0,0-.69,2.53Z" fill="#4d4d4d"/>
        </g>
        <g>
          <path d="M71.59,94.33,76.66,97v1.13l-6.1-3.33v-.87l6.1-3.32v1.13Z" fill="#4d4d4d"/>
          <path d="M83.26,100.09h-1V88.58l-2.89,1.29v-1l3.71-1.62h.17Z" fill="#4d4d4d"/>
          <path d="M94.36,94.74a8.17,8.17,0,0,1-.84,4.13,2.89,2.89,0,0,1-4.94,0,7.84,7.84,0,0,1-.87-4V92.6a8.06,8.06,0,0,1,.84-4.08A2.7,2.7,0,0,1,91,87.11a2.75,2.75,0,0,1,2.46,1.36,7.8,7.8,0,0,1,.87,4Zm-1-2.28a7.4,7.4,0,0,0-.58-3.32A1.89,1.89,0,0,0,91,88,1.86,1.86,0,0,0,89.3,89.1a6.84,6.84,0,0,0-.62,3.17v2.59a7.43,7.43,0,0,0,.6,3.32A1.9,1.9,0,0,0,91,99.35a1.86,1.86,0,0,0,1.72-1.11A7.15,7.15,0,0,0,93.37,95Z" fill="#4d4d4d"/>
        </g>
        <g>
          <path d="M44.46,136.09h-1V124.58l-2.9,1.29v-1l3.71-1.62h.17Z" fill="#4d4d4d"/>
          <path d="M55.56,130.74a8.17,8.17,0,0,1-.84,4.13,2.89,2.89,0,0,1-4.94,0,8,8,0,0,1-.86-4V128.6a8.07,8.07,0,0,1,.83-4.08,2.9,2.9,0,0,1,4.94,0,7.8,7.8,0,0,1,.87,4Zm-1-2.28a7.38,7.38,0,0,0-.59-3.32,1.94,1.94,0,0,0-3.49,0,7,7,0,0,0-.62,3.17v2.59a7.43,7.43,0,0,0,.6,3.32,1.91,1.91,0,0,0,1.77,1.17A1.87,1.87,0,0,0,54,134.24a7.43,7.43,0,0,0,.61-3.26Z" fill="#4d4d4d"/>
        </g>
        <g>
          <path d="M63.42,124.15v2.43h1.63v.88H63.42v6.32a2.21,2.21,0,0,0,.24,1.16.81.81,0,0,0,.77.38,4.09,4.09,0,0,0,.71-.09l0,.88a2.4,2.4,0,0,1-1,.15c-1.14,0-1.72-.78-1.75-2.35v-6.45H61v-.88h1.47v-2.43Z" fill="#4d4d4d"/>
          <path d="M66.63,130.85a5.15,5.15,0,0,1,.93-3.25,3.31,3.31,0,0,1,5.08,0,5.16,5.16,0,0,1,.94,3.24v1a5,5,0,0,1-.94,3.26,3,3,0,0,1-2.52,1.17,3.09,3.09,0,0,1-2.53-1.14,5,5,0,0,1-1-3.15Zm1,1a4.44,4.44,0,0,0,.66,2.58,2.14,2.14,0,0,0,1.85.94,2.11,2.11,0,0,0,1.84-.91,4.47,4.47,0,0,0,.64-2.58v-1a4.38,4.38,0,0,0-.67-2.59,2.11,2.11,0,0,0-1.83-.94,2.08,2.08,0,0,0-1.8.92,4.27,4.27,0,0,0-.69,2.53Z" fill="#4d4d4d"/>
        </g>
        <g>
          <path d="M80.34,130.33,85.4,133v1.13l-6.09-3.33v-.87l6.09-3.32v1.13Z" fill="#4d4d4d"/>
          <path d="M92,136.09H91V124.58l-2.89,1.29v-1l3.71-1.62H92Z" fill="#4d4d4d"/>
          <path d="M97.17,129.53l.53-6.24h5.4v1H98.53l-.36,4.29a3.05,3.05,0,0,1,2-.7,2.75,2.75,0,0,1,2.33,1.13,4.83,4.83,0,0,1,.85,3,5.13,5.13,0,0,1-.84,3.13,2.81,2.81,0,0,1-2.4,1.12,3,3,0,0,1-2.29-.94,4.12,4.12,0,0,1-1-2.6h.93a3.41,3.41,0,0,0,.73,2,2.09,2.09,0,0,0,1.63.67,1.9,1.9,0,0,0,1.69-.87,4.39,4.39,0,0,0,.58-2.46,3.74,3.74,0,0,0-.65-2.28,2,2,0,0,0-1.74-.88,2.75,2.75,0,0,0-1.09.2,2.66,2.66,0,0,0-.93.72Z" fill="#4d4d4d"/>
        </g>
        <g>
          <path d="M44.46,172.09h-1V160.58l-2.9,1.29v-1l3.71-1.62h.17Z" fill="#4d4d4d"/>
          <path d="M49.63,165.53l.53-6.24h5.4v1H51l-.36,4.29a3,3,0,0,1,2-.7A2.73,2.73,0,0,1,54.93,165a4.84,4.84,0,0,1,.86,3,5.13,5.13,0,0,1-.84,3.13,2.84,2.84,0,0,1-2.4,1.12,3,3,0,0,1-2.3-.94,4.17,4.17,0,0,1-1-2.6h.93a3.34,3.34,0,0,0,.73,2,2.08,2.08,0,0,0,1.63.67,1.91,1.91,0,0,0,1.69-.87,4.48,4.48,0,0,0,.57-2.46,3.73,3.73,0,0,0-.64-2.28,2,2,0,0,0-1.75-.88,2.79,2.79,0,0,0-1.09.2,2.86,2.86,0,0,0-.93.72Z" fill="#4d4d4d"/>
        </g>
        <g>
          <path d="M63.42,160.15v2.43h1.63v.88H63.42v6.32a2.21,2.21,0,0,0,.24,1.16.81.81,0,0,0,.77.38,4.09,4.09,0,0,0,.71-.09l0,.88a2.4,2.4,0,0,1-1,.15c-1.14,0-1.72-.78-1.75-2.35v-6.45H61v-.88h1.47v-2.43Z" fill="#4d4d4d"/>
          <path d="M66.63,166.85a5.15,5.15,0,0,1,.93-3.25,3.31,3.31,0,0,1,5.08,0,5.16,5.16,0,0,1,.94,3.24v1a5,5,0,0,1-.94,3.26,3,3,0,0,1-2.52,1.17,3.09,3.09,0,0,1-2.53-1.14,5,5,0,0,1-1-3.15Zm1,1a4.44,4.44,0,0,0,.66,2.58,2.14,2.14,0,0,0,1.85.94,2.11,2.11,0,0,0,1.84-.91,4.47,4.47,0,0,0,.64-2.58v-1a4.38,4.38,0,0,0-.67-2.59,2.11,2.11,0,0,0-1.83-.94,2.08,2.08,0,0,0-1.8.92,4.27,4.27,0,0,0-.69,2.53Z" fill="#4d4d4d"/>
        </g>
        <g>
          <path d="M80.34,166.33,85.4,169v1.13l-6.09-3.33v-.87l6.09-3.32v1.13Z" fill="#4d4d4d"/>
          <path d="M94.61,172.09H87.82v-.84l3.64-4.9a11.83,11.83,0,0,0,1.27-2.08,4.07,4.07,0,0,0,.36-1.62,3,3,0,0,0-.57-1.91,1.94,1.94,0,0,0-1.6-.71,2.06,2.06,0,0,0-1.72.82,3.35,3.35,0,0,0-.64,2.13h-1a4.16,4.16,0,0,1,.93-2.77,3.28,3.28,0,0,1,4.72-.19,3.56,3.56,0,0,1,.86,2.53,6.81,6.81,0,0,1-1.39,3.6l-.56.8L89,171.17h5.6Z" fill="#4d4d4d"/>
          <path d="M97.17,165.53l.53-6.24h5.4v1H98.53l-.36,4.29a3.05,3.05,0,0,1,2-.7,2.75,2.75,0,0,1,2.33,1.13,4.83,4.83,0,0,1,.85,3,5.13,5.13,0,0,1-.84,3.13,2.81,2.81,0,0,1-2.4,1.12,3,3,0,0,1-2.29-.94,4.12,4.12,0,0,1-1-2.6h.93a3.41,3.41,0,0,0,.73,2,2.09,2.09,0,0,0,1.63.67,1.9,1.9,0,0,0,1.69-.87,4.39,4.39,0,0,0,.58-2.46,3.74,3.74,0,0,0-.65-2.28,2,2,0,0,0-1.74-.88,2.75,2.75,0,0,0-1.09.2,2.66,2.66,0,0,0-.93.72Z" fill="#4d4d4d"/>
        </g>
        <g>
          <path d="M47.06,208.09H40.28v-.84l3.64-4.9a12.48,12.48,0,0,0,1.27-2.08,4.07,4.07,0,0,0,.36-1.62,2.9,2.9,0,0,0-.58-1.91,1.91,1.91,0,0,0-1.59-.71,2.05,2.05,0,0,0-1.72.82A3.36,3.36,0,0,0,41,199H40a4.21,4.21,0,0,1,.92-2.77,3.29,3.29,0,0,1,4.73-.19,3.55,3.55,0,0,1,.85,2.53,6.73,6.73,0,0,1-1.39,3.6l-.56.8-3.13,4.22h5.6Z" fill="#4d4d4d"/>
          <path d="M49.63,201.53l.53-6.24h5.4v1H51l-.36,4.29a3,3,0,0,1,2-.7A2.73,2.73,0,0,1,54.93,201a4.84,4.84,0,0,1,.86,3,5.13,5.13,0,0,1-.84,3.13,2.84,2.84,0,0,1-2.4,1.12,3,3,0,0,1-2.3-.94,4.17,4.17,0,0,1-1-2.6h.93a3.34,3.34,0,0,0,.73,2,2.08,2.08,0,0,0,1.63.67,1.91,1.91,0,0,0,1.69-.87,4.48,4.48,0,0,0,.57-2.46,3.73,3.73,0,0,0-.64-2.28,2,2,0,0,0-1.75-.88,2.79,2.79,0,0,0-1.09.2,2.86,2.86,0,0,0-.93.72Z" fill="#4d4d4d"/>
        </g>
        <g>
          <path d="M63.42,196.15v2.43h1.63v.88H63.42v6.32a2.21,2.21,0,0,0,.24,1.16.81.81,0,0,0,.77.38,4.09,4.09,0,0,0,.71-.09l0,.88a2.4,2.4,0,0,1-1,.15c-1.14,0-1.72-.78-1.75-2.35v-6.45H61v-.88h1.47v-2.43Z" fill="#4d4d4d"/>
          <path d="M66.63,202.85a5.15,5.15,0,0,1,.93-3.25,3.31,3.31,0,0,1,5.08,0,5.16,5.16,0,0,1,.94,3.24v1a5,5,0,0,1-.94,3.26,3,3,0,0,1-2.52,1.17,3.09,3.09,0,0,1-2.53-1.14,5,5,0,0,1-1-3.15Zm1,1a4.44,4.44,0,0,0,.66,2.58,2.14,2.14,0,0,0,1.85.94,2.11,2.11,0,0,0,1.84-.91,4.47,4.47,0,0,0,.64-2.58v-1a4.38,4.38,0,0,0-.67-2.59,2.11,2.11,0,0,0-1.83-.94,2.08,2.08,0,0,0-1.8.92,4.27,4.27,0,0,0-.69,2.53Z" fill="#4d4d4d"/>
        </g>
        <g>
          <path d="M80.34,202.33,85.4,205v1.13l-6.09-3.33v-.87l6.09-3.32v1.13Z" fill="#4d4d4d"/>
          <path d="M93.3,204H95v.91H93.3v3.22h-1v-3.22h-5v-.62l5-9h1Zm-4.83,0h3.86v-7.19l-.35.71Z" fill="#4d4d4d"/>
          <path d="M103.1,202.74a8.17,8.17,0,0,1-.84,4.13,2.88,2.88,0,0,1-4.93,0,7.84,7.84,0,0,1-.87-4V200.6a8.06,8.06,0,0,1,.84-4.08,2.69,2.69,0,0,1,2.47-1.41,2.73,2.73,0,0,1,2.46,1.36,7.6,7.6,0,0,1,.87,4Zm-1-2.28a7.54,7.54,0,0,0-.58-3.32A1.89,1.89,0,0,0,99.77,196a1.86,1.86,0,0,0-1.72,1.07,6.72,6.72,0,0,0-.62,3.17v2.59a7.43,7.43,0,0,0,.6,3.32,1.9,1.9,0,0,0,1.76,1.17,1.87,1.87,0,0,0,1.72-1.11,7.15,7.15,0,0,0,.61-3.26Z" fill="#4d4d4d"/>
        </g>
        <path d="M46.34,244.08H40.18v-.92h6.16Zm-1-6.12-5.17-2.37v-1l6.24,3v.79l-6.24,3v-1Z" fill="#4d4d4d"/>
        <g>
          <path d="M54,240h1.64v.91H54v3.22H53v-3.22H48v-.62l4.94-9H54Zm-4.84,0H53v-7.19l-.35.71Z" fill="#4d4d4d"/>
          <path d="M63.77,238.74a8.17,8.17,0,0,1-.84,4.13,2.89,2.89,0,0,1-4.94,0,7.94,7.94,0,0,1-.87-4V236.6a8.06,8.06,0,0,1,.84-4.08,2.9,2.9,0,0,1,4.94-.05,7.8,7.8,0,0,1,.87,4Zm-1-2.28a7.4,7.4,0,0,0-.58-3.32,1.94,1.94,0,0,0-3.49,0,7,7,0,0,0-.62,3.17v2.59a7.43,7.43,0,0,0,.6,3.32,1.9,1.9,0,0,0,1.77,1.17,1.85,1.85,0,0,0,1.71-1.11,7.15,7.15,0,0,0,.61-3.26Z" fill="#4d4d4d"/>
        </g>
        <g>
          <path d="M251.49,28.09V15.29h3.39a4.69,4.69,0,0,1,3.57,1.42,5.59,5.59,0,0,1,1.36,3.91v2.07a5.6,5.6,0,0,1-1.34,4,4.74,4.74,0,0,1-3.67,1.44Zm2.59-10.65v8.5h.77a2.15,2.15,0,0,0,1.82-.68,4.08,4.08,0,0,0,.55-2.35V20.69a4.57,4.57,0,0,0-.5-2.5,2,2,0,0,0-1.7-.75Z" fill="#fff"/>
          <path d="M261.25,23a5.16,5.16,0,0,1,1-3.39,3.87,3.87,0,0,1,5.66,0A5.2,5.2,0,0,1,269,23v.61a5.17,5.17,0,0,1-1,3.39,3.46,3.46,0,0,1-2.83,1.22A3.52,3.52,0,0,1,262.26,27a5.25,5.25,0,0,1-1-3.41Zm2.49.63c0,1.7.46,2.55,1.37,2.55s1.28-.71,1.35-2.13V23a4,4,0,0,0-.36-1.92,1.12,1.12,0,0,0-1-.63,1.1,1.1,0,0,0-1,.63,4,4,0,0,0-.36,1.92Z" fill="#fff"/>
          <path d="M274.7,25.54a.79.79,0,0,0-.3-.59,6.1,6.1,0,0,0-1.35-.72,5.73,5.73,0,0,1-2.11-1.29,2.44,2.44,0,0,1-.58-1.66,2.68,2.68,0,0,1,.9-2.07,3.44,3.44,0,0,1,2.39-.81,3.69,3.69,0,0,1,2.5.81,2.7,2.7,0,0,1,.94,2.17h-2.48c0-.77-.33-1.16-1-1.16a.88.88,0,0,0-.65.25.9.9,0,0,0-.26.68.73.73,0,0,0,.29.56,6.17,6.17,0,0,0,1.32.69,5.52,5.52,0,0,1,2.15,1.25,2.56,2.56,0,0,1,.63,1.79,2.51,2.51,0,0,1-1,2,3.84,3.84,0,0,1-2.51.77,3.94,3.94,0,0,1-1.85-.41,3.11,3.11,0,0,1-1.25-1.13,3,3,0,0,1-.45-1.58h2.36a1.45,1.45,0,0,0,.31,1,1.17,1.17,0,0,0,.93.32C274.37,26.44,274.7,26.14,274.7,25.54Z" fill="#fff"/>
          <path d="M283.18,28.09a3.69,3.69,0,0,1-.21-.74,2.12,2.12,0,0,1-1.81.91,2.68,2.68,0,0,1-2-.79,2.81,2.81,0,0,1-.79-2,2.88,2.88,0,0,1,1-2.31,4.17,4.17,0,0,1,2.74-.83h.76v-.77a1.4,1.4,0,0,0-.22-.9.78.78,0,0,0-.64-.27c-.62,0-.93.37-.93,1.09h-2.49a2.75,2.75,0,0,1,1-2.17,3.69,3.69,0,0,1,2.5-.86,3.39,3.39,0,0,1,2.42.81,3.08,3.08,0,0,1,.86,2.33V26a4.72,4.72,0,0,0,.35,1.93v.15Zm-1.46-1.78a1.39,1.39,0,0,0,.7-.16,1.29,1.29,0,0,0,.43-.4v-2h-.6a1.26,1.26,0,0,0-1,.41,1.52,1.52,0,0,0-.37,1.08C280.89,26,281.17,26.31,281.72,26.31Z" fill="#fff"/>
          <path d="M286.84,23a5.93,5.93,0,0,1,.84-3.49,2.8,2.8,0,0,1,2.37-1.15,2.26,2.26,0,0,1,2,1l.1-.84h2.24v9.51a3.64,3.64,0,0,1-1,2.78,4.1,4.1,0,0,1-2.92,1,4.8,4.8,0,0,1-1.65-.31,3,3,0,0,1-1.28-.8l.83-1.72a2.54,2.54,0,0,0,.92.6,2.7,2.7,0,0,0,1.06.24,1.57,1.57,0,0,0,1.2-.4,1.91,1.91,0,0,0,.37-1.29v-.82a2.22,2.22,0,0,1-1.85.93,2.7,2.7,0,0,1-2.35-1.18,5.76,5.76,0,0,1-.85-3.33Zm2.49.63a4,4,0,0,0,.34,1.92,1.16,1.16,0,0,0,1.09.6,1.27,1.27,0,0,0,1.13-.55V21.09a1.25,1.25,0,0,0-1.11-.61,1.21,1.21,0,0,0-1.1.61,4.15,4.15,0,0,0-.35,1.95Z" fill="#fff"/>
          <path d="M300,28.26a3.89,3.89,0,0,1-3-1.14A4.57,4.57,0,0,1,296,23.85V23.1a5.42,5.42,0,0,1,1-3.48,3.41,3.41,0,0,1,2.82-1.22,3.23,3.23,0,0,1,2.7,1.15,5.46,5.46,0,0,1,.92,3.39v1.22h-4.95a2.61,2.61,0,0,0,.47,1.55,1.58,1.58,0,0,0,1.27.49,2.81,2.81,0,0,0,2.08-.85l1,1.5a3.2,3.2,0,0,1-1.33,1A4.57,4.57,0,0,1,300,28.26Zm-1.56-5.83H301V22.2a2.67,2.67,0,0,0-.29-1.29,1,1,0,0,0-.91-.44,1,1,0,0,0-.94.46A3.11,3.11,0,0,0,298.47,22.43Z" fill="#fff"/>
          <path d="M313,23.41h-1.28v4.68h-2.58V15.29h4.12a4.2,4.2,0,0,1,3,1,3.74,3.74,0,0,1,1.06,2.86,3.72,3.72,0,0,1-1.86,3.57L317.66,28v.13h-2.78Zm-1.28-2.15h1.47a1.35,1.35,0,0,0,1.16-.52,2.2,2.2,0,0,0,.38-1.37c0-1.28-.5-1.93-1.5-1.93h-1.51Z" fill="#fff"/>
          <path d="M322.76,28.26a3.91,3.91,0,0,1-3-1.14,4.62,4.62,0,0,1-1.07-3.27V23.1a5.42,5.42,0,0,1,1-3.48,3.41,3.41,0,0,1,2.82-1.22,3.23,3.23,0,0,1,2.7,1.15,5.46,5.46,0,0,1,.92,3.39v1.22h-4.95a2.61,2.61,0,0,0,.47,1.55,1.58,1.58,0,0,0,1.27.49,2.81,2.81,0,0,0,2.08-.85l1,1.5a3.26,3.26,0,0,1-1.33,1A4.57,4.57,0,0,1,322.76,28.26Zm-1.56-5.83h2.48V22.2a2.57,2.57,0,0,0-.28-1.29,1,1,0,0,0-.91-.44,1,1,0,0,0-.94.46A3.11,3.11,0,0,0,321.2,22.43Z" fill="#fff"/>
          <path d="M327.24,23a5.93,5.93,0,0,1,.84-3.49,2.77,2.77,0,0,1,2.36-1.15,2.29,2.29,0,0,1,2,1l.1-.84h2.24v9.51a3.64,3.64,0,0,1-1,2.78,4.12,4.12,0,0,1-2.93,1,4.74,4.74,0,0,1-1.64-.31,3,3,0,0,1-1.29-.8l.84-1.72a2.49,2.49,0,0,0,.91.6,2.74,2.74,0,0,0,1.07.24,1.6,1.6,0,0,0,1.2-.4,2,2,0,0,0,.37-1.29v-.82a2.23,2.23,0,0,1-1.86.93,2.71,2.71,0,0,1-2.35-1.18,5.85,5.85,0,0,1-.84-3.33Zm2.48.63a4,4,0,0,0,.35,1.92,1.15,1.15,0,0,0,1.09.6,1.28,1.28,0,0,0,1.13-.55V21.09a1.26,1.26,0,0,0-1.12-.61,1.19,1.19,0,0,0-1.09.61,4,4,0,0,0-.36,1.95Z" fill="#fff"/>
          <path d="M336.59,16.12a1.26,1.26,0,0,1,.37-1,1.48,1.48,0,0,1,2,0,1.26,1.26,0,0,1,.37,1,1.34,1.34,0,0,1-.36.95,1.51,1.51,0,0,1-2,0A1.34,1.34,0,0,1,336.59,16.12Zm2.61,12h-2.5V18.58h2.5Z" fill="#fff"/>
          <path d="M343.46,18.58l.07.88a2.67,2.67,0,0,1,2.21-1.06,2,2,0,0,1,2,1.29,2.6,2.6,0,0,1,2.33-1.29q2.49,0,2.56,3.46v6.23h-2.49V22a2.24,2.24,0,0,0-.23-1.17.84.84,0,0,0-.77-.36c-.47,0-.81.29-1,.86l0,.3v6.45h-2.49V22a2.35,2.35,0,0,0-.22-1.18.85.85,0,0,0-.78-.37,1.15,1.15,0,0,0-1,.7v6.91h-2.49V18.58Z" fill="#fff"/>
          <path d="M358.31,28.26a3.89,3.89,0,0,1-3-1.14,4.57,4.57,0,0,1-1.08-3.27V23.1a5.42,5.42,0,0,1,1-3.48,3.41,3.41,0,0,1,2.82-1.22,3.23,3.23,0,0,1,2.7,1.15,5.46,5.46,0,0,1,.92,3.39v1.22h-4.95a2.61,2.61,0,0,0,.47,1.55,1.58,1.58,0,0,0,1.27.49,2.81,2.81,0,0,0,2.08-.85l1,1.5a3.2,3.2,0,0,1-1.33,1A4.57,4.57,0,0,1,358.31,28.26Zm-1.56-5.83h2.49V22.2a2.81,2.81,0,0,0-.28-1.29,1,1,0,0,0-.92-.44,1,1,0,0,0-.94.46A3.11,3.11,0,0,0,356.75,22.43Z" fill="#fff"/>
          <path d="M365.36,18.58l.07.94a2.64,2.64,0,0,1,2.21-1.12c1.63,0,2.47,1.15,2.52,3.44v6.25h-2.49V22a2.16,2.16,0,0,0-.25-1.17.94.94,0,0,0-.84-.37,1.17,1.17,0,0,0-1.06.7v6.91H363V18.58Z" fill="#fff"/>
        </g>
        <path d="M258.42,64.09h-6.79v-.84l3.64-4.9a12,12,0,0,0,1.28-2.08,4.07,4.07,0,0,0,.36-1.62,3,3,0,0,0-.58-1.91,1.92,1.92,0,0,0-1.59-.71,2.07,2.07,0,0,0-1.73.82,3.35,3.35,0,0,0-.64,2.13h-1a4.15,4.15,0,0,1,.92-2.77,3,3,0,0,1,2.42-1.1,3,3,0,0,1,2.31.91,3.6,3.6,0,0,1,.85,2.53,6.7,6.7,0,0,1-1.39,3.6L256,59l-3.13,4.22h5.6Zm7-9.51,0,1.42A2.79,2.79,0,0,1,268,54.4a2.28,2.28,0,0,1,2.38,1.75,3.23,3.23,0,0,1,1.15-1.31,2.91,2.91,0,0,1,1.55-.44c1.71,0,2.58,1.1,2.62,3.31v6.38h-1V57.77a3.19,3.19,0,0,0-.46-1.83,1.64,1.64,0,0,0-1.44-.61,2.09,2.09,0,0,0-1.53.71,2.8,2.8,0,0,0-.71,1.72v6.33h-1v-6.3a3,3,0,0,0-.46-1.85,1.69,1.69,0,0,0-1.43-.61,2,2,0,0,0-1.39.56,3.23,3.23,0,0,0-.85,1.58v6.62h-1V54.58Zm12.48,4.31a5.94,5.94,0,0,1,.77-3.37A2.64,2.64,0,0,1,281,54.4a2.6,2.6,0,0,1,2.44,1.5l.06-1.32h.9v9.78a3.84,3.84,0,0,1-.82,2.62,3,3,0,0,1-2.37.9,3.57,3.57,0,0,1-1.58-.39,3.29,3.29,0,0,1-1.21-.94l.46-.7A2.93,2.93,0,0,0,281.17,67a2.17,2.17,0,0,0,1.73-.63,3,3,0,0,0,.55-1.92V62.9A2.64,2.64,0,0,1,281,64.26a2.6,2.6,0,0,1-2.27-1.11,5.61,5.61,0,0,1-.81-3.23Zm1,.89a5.08,5.08,0,0,0,.55,2.69,1.93,1.93,0,0,0,1.74.86,2.28,2.28,0,0,0,2.24-1.5V57a2.28,2.28,0,0,0-2.22-1.63,2,2,0,0,0-1.75.85,5,5,0,0,0-.56,2.64ZM291,58.92a15.63,15.63,0,0,1,.46-3.83,13.58,13.58,0,0,1,1.26-3.29,6.45,6.45,0,0,1,1.67-2.07l.23.74a6,6,0,0,0-1.33,1.92,13,13,0,0,0-1,3,18.56,18.56,0,0,0-.34,3.7,17.39,17.39,0,0,0,.34,3.5,13.54,13.54,0,0,0,1,3,6,6,0,0,0,1.33,2l-.23.7a5.51,5.51,0,0,1-1.21-1.3,9.87,9.87,0,0,1-1.1-2.08,14,14,0,0,1-.78-2.65A16.12,16.12,0,0,1,291,58.92Zm12,5.17h-6.79v-.84l3.64-4.9a12,12,0,0,0,1.28-2.08,4.07,4.07,0,0,0,.36-1.62,3,3,0,0,0-.58-1.91,1.93,1.93,0,0,0-1.6-.71,2.06,2.06,0,0,0-1.72.82,3.35,3.35,0,0,0-.64,2.13h-1a4.15,4.15,0,0,1,.92-2.77,3,3,0,0,1,2.41-1.1,3,3,0,0,1,2.32.91,3.6,3.6,0,0,1,.85,2.53,6.7,6.7,0,0,1-1.39,3.6l-.56.8-3.13,4.22H303Zm7-9.51L310,56a2.81,2.81,0,0,1,2.55-1.6A2.28,2.28,0,0,1,315,56.15a3.23,3.23,0,0,1,1.15-1.31,2.91,2.91,0,0,1,1.55-.44c1.71,0,2.58,1.1,2.62,3.31v6.38h-1V57.77a3.19,3.19,0,0,0-.46-1.83,1.64,1.64,0,0,0-1.44-.61,2.09,2.09,0,0,0-1.53.71,2.8,2.8,0,0,0-.71,1.72v6.33h-1v-6.3a3,3,0,0,0-.46-1.85,1.7,1.7,0,0,0-1.44-.61,1.94,1.94,0,0,0-1.38.56,3.23,3.23,0,0,0-.85,1.58v6.62h-1V54.58Zm14,8.58h5.27v.93H323V51.29h1Zm10.81-4.31a5.15,5.15,0,0,1,.93-3.25,3.32,3.32,0,0,1,5.09,0,5.1,5.1,0,0,1,.93,3.24v1a5.08,5.08,0,0,1-.93,3.26,3.34,3.34,0,0,1-5.05,0,5,5,0,0,1-1-3.15Zm1,1a4.44,4.44,0,0,0,.66,2.58,2.12,2.12,0,0,0,1.84.94,2.1,2.1,0,0,0,1.84-.91,4.46,4.46,0,0,0,.65-2.58v-1a4.45,4.45,0,0,0-.67-2.59,2.13,2.13,0,0,0-1.84-.94,2.11,2.11,0,0,0-1.8.92,4.35,4.35,0,0,0-.68,2.54Zm11.94-4.34a3.58,3.58,0,0,0-.61-.06,1.84,1.84,0,0,0-1.36.55,3.3,3.3,0,0,0-.78,1.54v6.57h-1V54.58h1V56a2.31,2.31,0,0,1,2.18-1.6,1.16,1.16,0,0,1,.59.12Zm6.39,8.6a6.15,6.15,0,0,1-.18-1.32,3.13,3.13,0,0,1-1.13,1.1,3,3,0,0,1-1.5.39,2.56,2.56,0,0,1-1.91-.69,2.68,2.68,0,0,1-.69-2,2.77,2.77,0,0,1,1-2.21,4,4,0,0,1,2.64-.83H354V57.22a1.88,1.88,0,0,0-.5-1.46,2.19,2.19,0,0,0-1.49-.44,2.12,2.12,0,0,0-1.48.52,1.75,1.75,0,0,0-.58,1.37h-1a2.65,2.65,0,0,1,.88-2,3.14,3.14,0,0,1,2.21-.81,3,3,0,0,1,2.17.72,2.81,2.81,0,0,1,.74,2.1v4.67a6.45,6.45,0,0,0,.25,2.09v.11Zm-4.43-2.58c0,1.21.58,1.81,1.74,1.81a2.65,2.65,0,0,0,1.53-.45,2.52,2.52,0,0,0,1-1.19V59.37h-1.55a3.11,3.11,0,0,0-2,.59,1.93,1.93,0,0,0-.68,1.55Zm9,2.58h-1V50.59h1Zm11.49-2.35a1.4,1.4,0,0,0-.51-1.07,6.88,6.88,0,0,0-1.73-1,9.93,9.93,0,0,1-1.7-.91,2.4,2.4,0,0,1-.71-.8,2.13,2.13,0,0,1-.23-1,2.36,2.36,0,0,1,.79-1.81,2.93,2.93,0,0,1,2.05-.72,3,3,0,0,1,2.16.77,2.64,2.64,0,0,1,.81,2h-1a1.77,1.77,0,0,0-.56-1.34,2,2,0,0,0-1.44-.53,2,2,0,0,0-1.37.44,1.45,1.45,0,0,0-.5,1.14,1.21,1.21,0,0,0,.39.93,7.31,7.31,0,0,0,1.67,1,9.71,9.71,0,0,1,1.82.95,2.82,2.82,0,0,1,.76.84,2.26,2.26,0,0,1,.26,1.1,2.35,2.35,0,0,1-.82,1.87,3.25,3.25,0,0,1-2.16.69,3.32,3.32,0,0,1-2.29-.77,2.56,2.56,0,0,1-.87-2h1a1.85,1.85,0,0,0,.6,1.37,2.7,2.7,0,0,0,3,0A1.42,1.42,0,0,0,370.21,61.74Zm2.9-2.89a5.15,5.15,0,0,1,.94-3.25,3.31,3.31,0,0,1,5.08,0,5.16,5.16,0,0,1,.94,3.24v1a5.08,5.08,0,0,1-.94,3.26,3.34,3.34,0,0,1-5.05,0,5,5,0,0,1-1-3.15Zm1,1a4.44,4.44,0,0,0,.66,2.58,2.3,2.3,0,0,0,3.69,0,4.47,4.47,0,0,0,.64-2.58v-1a4.38,4.38,0,0,0-.67-2.59,2.25,2.25,0,0,0-3.64,0,4.35,4.35,0,0,0-.68,2.54Zm9.31,4.26h-1V50.59h1ZM391.2,63a2.72,2.72,0,0,1-2.51,1.31,2.28,2.28,0,0,1-1.95-.89,4.43,4.43,0,0,1-.66-2.64V54.58h1V60.7a3.4,3.4,0,0,0,.46,2,1.48,1.48,0,0,0,1.32.67,2.25,2.25,0,0,0,2.36-1.79v-7h1v9.51h-.95Zm5-10.8v2.43h1.62v.88h-1.62v6.32a2.32,2.32,0,0,0,.23,1.16.84.84,0,0,0,.78.38,4,4,0,0,0,.7-.09l0,.88a2.4,2.4,0,0,1-1,.15c-1.14,0-1.73-.78-1.76-2.35V55.46h-1.47v-.88h1.47V52.15Zm3.71-.31a.8.8,0,0,1,.17-.51.58.58,0,0,1,.48-.22.61.61,0,0,1,.48.22.8.8,0,0,1,.17.51.8.8,0,0,1-.17.5.6.6,0,0,1-.48.21.57.57,0,0,1-.48-.21A.8.8,0,0,1,399.94,51.84Zm1.13,12.25h-1V54.58h1Zm2.32-5.24a5.15,5.15,0,0,1,.93-3.25,3.32,3.32,0,0,1,5.09,0,5.1,5.1,0,0,1,.93,3.24v1a5.08,5.08,0,0,1-.93,3.26,3.34,3.34,0,0,1-5.05,0,5,5,0,0,1-1-3.15Zm1,1a4.44,4.44,0,0,0,.66,2.58,2.29,2.29,0,0,0,3.68,0,4.46,4.46,0,0,0,.65-2.58v-1a4.45,4.45,0,0,0-.67-2.59,2.13,2.13,0,0,0-1.84-.94,2.11,2.11,0,0,0-1.8.92,4.35,4.35,0,0,0-.68,2.54Zm9.15-5.25,0,1.51a3.48,3.48,0,0,1,1.07-1.23,2.53,2.53,0,0,1,1.49-.46c1.66,0,2.51,1.11,2.55,3.32v6.37h-1V57.82a3.24,3.24,0,0,0-.44-1.88,1.62,1.62,0,0,0-1.38-.61,2,2,0,0,0-1.38.58,3.55,3.55,0,0,0-.93,1.58v6.6h-1V54.58Zm8.89-2.52a14.94,14.94,0,0,1,1.58,7,16.19,16.19,0,0,1-.44,3.79,12.83,12.83,0,0,1-1.24,3.27,6.34,6.34,0,0,1-1.71,2.11l-.22-.7a6.37,6.37,0,0,0,1.53-2.4,16.16,16.16,0,0,0,1.1-6.23,17.09,17.09,0,0,0-.34-3.47,14.47,14.47,0,0,0-1-3,6,6,0,0,0-1.32-2l.22-.7a6.78,6.78,0,0,1,1.81,2.33Zm8.43,12V51.29h3.24a3.64,3.64,0,0,1,2.62.85,3.26,3.26,0,0,1,.89,2.5,3.21,3.21,0,0,1-.45,1.71,2.57,2.57,0,0,1-1.27,1,2.56,2.56,0,0,1,1.51,1.09,3.5,3.5,0,0,1,.57,2,3.67,3.67,0,0,1-.91,2.64,3.37,3.37,0,0,1-2.59,1Zm1-7.07h2.33a2.43,2.43,0,0,0,1.77-.61,2.37,2.37,0,0,0,.63-1.8,2.3,2.3,0,0,0-.62-1.79,2.62,2.62,0,0,0-1.87-.58h-2.24Zm0,.92v5.22h2.65a2.35,2.35,0,0,0,1.8-.71,2.74,2.74,0,0,0,.66-2,2.66,2.66,0,0,0-.61-1.85,2.2,2.2,0,0,0-1.7-.71Zm9.83,6.15h-1V51.29h1Zm3.21,0V51.29h3a4.24,4.24,0,0,1,3.3,1.33,5.4,5.4,0,0,1,1.24,3.67V59a5.42,5.42,0,0,1-1.22,3.76,4.39,4.39,0,0,1-3.44,1.36Zm1-11.85V63.16h1.94a3.37,3.37,0,0,0,2.65-1.06,4.53,4.53,0,0,0,1-3V56.39a4.64,4.64,0,0,0-.92-3.06,3.27,3.27,0,0,0-2.66-1.09Z" fill="#4d4d4d"/>
        <path d="M258.42,100.09h-6.79v-.84l3.64-4.9a12,12,0,0,0,1.28-2.08,4.07,4.07,0,0,0,.36-1.62,3,3,0,0,0-.58-1.91,1.92,1.92,0,0,0-1.59-.71,2.07,2.07,0,0,0-1.73.82,3.35,3.35,0,0,0-.64,2.13h-1a4.15,4.15,0,0,1,.92-2.77,3,3,0,0,1,2.42-1.1,3,3,0,0,1,2.31.91,3.6,3.6,0,0,1,.85,2.53,6.7,6.7,0,0,1-1.39,3.6L256,95l-3.13,4.22h5.6Zm2.07-.64a.78.78,0,0,1,.19-.54.74.74,0,0,1,.55-.21.75.75,0,0,1,.56.21.78.78,0,0,1,.2.54.73.73,0,0,1-.2.51.78.78,0,0,1-.56.2.77.77,0,0,1-.55-.2A.72.72,0,0,1,260.49,99.45Zm4.79-5.92.53-6.24h5.4v1h-4.57l-.36,4.29a3.05,3.05,0,0,1,2-.7A2.76,2.76,0,0,1,270.58,93a4.77,4.77,0,0,1,.86,3,5.13,5.13,0,0,1-.84,3.13,2.82,2.82,0,0,1-2.4,1.12,3,3,0,0,1-2.3-.94,4.17,4.17,0,0,1-1-2.6h.93a3.34,3.34,0,0,0,.73,2,2.09,2.09,0,0,0,1.63.67,1.9,1.9,0,0,0,1.69-.87,4.47,4.47,0,0,0,.58-2.46,3.74,3.74,0,0,0-.65-2.28,2,2,0,0,0-1.75-.88,2.7,2.7,0,0,0-1.08.2,2.78,2.78,0,0,0-.94.72Zm13.23-3,0,1.42a2.81,2.81,0,0,1,2.55-1.6,2.28,2.28,0,0,1,2.38,1.75,3.23,3.23,0,0,1,1.15-1.31,2.91,2.91,0,0,1,1.55-.44c1.71,0,2.58,1.1,2.62,3.31v6.38h-1V93.77a3.19,3.19,0,0,0-.46-1.83,1.64,1.64,0,0,0-1.44-.61,2.09,2.09,0,0,0-1.53.71,2.8,2.8,0,0,0-.71,1.72v6.33h-1v-6.3a3,3,0,0,0-.46-1.85,1.7,1.7,0,0,0-1.44-.61,1.94,1.94,0,0,0-1.38.56,3.23,3.23,0,0,0-.85,1.58v6.62h-1V90.58ZM291,94.89a5.94,5.94,0,0,1,.77-3.37,2.64,2.64,0,0,1,2.32-1.12,2.6,2.6,0,0,1,2.44,1.5l.06-1.32h.9v9.78a3.84,3.84,0,0,1-.82,2.62,3,3,0,0,1-2.37.9,3.57,3.57,0,0,1-1.58-.39,3.29,3.29,0,0,1-1.21-.94l.46-.7a2.93,2.93,0,0,0,2.26,1.11,2.17,2.17,0,0,0,1.73-.63,3,3,0,0,0,.55-1.92V98.9a2.64,2.64,0,0,1-2.43,1.36,2.6,2.6,0,0,1-2.27-1.11,5.61,5.61,0,0,1-.81-3.23Zm1,.89a5.08,5.08,0,0,0,.55,2.69,1.93,1.93,0,0,0,1.74.86,2.28,2.28,0,0,0,2.24-1.5V93a2.28,2.28,0,0,0-2.22-1.63,2,2,0,0,0-1.75.85,5,5,0,0,0-.56,2.64Zm12-.86a15.63,15.63,0,0,1,.46-3.83,13.58,13.58,0,0,1,1.26-3.29,6.45,6.45,0,0,1,1.67-2.07l.23.74a6,6,0,0,0-1.33,1.92,13,13,0,0,0-1,3,18.53,18.53,0,0,0-.35,3.7,17.38,17.38,0,0,0,.35,3.5,13.54,13.54,0,0,0,1,3,6,6,0,0,0,1.33,2l-.23.7a5.51,5.51,0,0,1-1.21-1.3,9.87,9.87,0,0,1-1.1-2.08,14,14,0,0,1-.78-2.65A16.12,16.12,0,0,1,304,94.92Zm12,5.17h-6.79v-.84l3.64-4.9a12.66,12.66,0,0,0,1.28-2.08,4.07,4.07,0,0,0,.36-1.62,3,3,0,0,0-.58-1.91,1.93,1.93,0,0,0-1.6-.71,2.06,2.06,0,0,0-1.72.82A3.35,3.35,0,0,0,310,91h-1a4.16,4.16,0,0,1,.93-2.77,3,3,0,0,1,2.41-1.1,3,3,0,0,1,2.32.91,3.6,3.6,0,0,1,.85,2.53,6.7,6.7,0,0,1-1.39,3.6l-.56.8-3.13,4.22H316Zm2.07-.64a.78.78,0,0,1,.19-.54.74.74,0,0,1,.55-.21.75.75,0,0,1,.56.21.78.78,0,0,1,.2.54.73.73,0,0,1-.2.51.78.78,0,0,1-.56.2.77.77,0,0,1-.55-.2A.72.72,0,0,1,318.09,99.45Zm4.79-5.92.53-6.24h5.4v1h-4.57l-.36,4.29a3,3,0,0,1,2-.7A2.76,2.76,0,0,1,328.18,93a4.77,4.77,0,0,1,.86,3,5.13,5.13,0,0,1-.84,3.13,2.84,2.84,0,0,1-2.4,1.12,3,3,0,0,1-2.3-.94,4.17,4.17,0,0,1-1-2.6h.93a3.34,3.34,0,0,0,.73,2,2.09,2.09,0,0,0,1.63.67,1.9,1.9,0,0,0,1.69-.87,4.47,4.47,0,0,0,.58-2.46,3.74,3.74,0,0,0-.65-2.28,2,2,0,0,0-1.75-.88,2.79,2.79,0,0,0-1.09.2,2.86,2.86,0,0,0-.93.72Zm13.23-3,0,1.42a2.81,2.81,0,0,1,2.55-1.6,2.28,2.28,0,0,1,2.38,1.75,3.23,3.23,0,0,1,1.15-1.31,2.9,2.9,0,0,1,1.54-.44c1.72,0,2.59,1.1,2.63,3.31v6.38h-1V93.77a3.19,3.19,0,0,0-.46-1.83,1.64,1.64,0,0,0-1.44-.61A2.09,2.09,0,0,0,342,92a2.8,2.8,0,0,0-.71,1.72v6.33h-1v-6.3a3,3,0,0,0-.46-1.85,1.7,1.7,0,0,0-1.44-.61,1.94,1.94,0,0,0-1.38.56,3.23,3.23,0,0,0-.85,1.58v6.62h-1V90.58Zm14,8.58h5.27v.93h-6.28V87.29h1ZM361,94.85a5.15,5.15,0,0,1,.93-3.25,3.32,3.32,0,0,1,5.09,0,5.16,5.16,0,0,1,.93,3.24v1a5.08,5.08,0,0,1-.93,3.26,3.34,3.34,0,0,1-5.05,0A5,5,0,0,1,361,96Zm1,1a4.44,4.44,0,0,0,.66,2.58,2.29,2.29,0,0,0,3.68,0,4.46,4.46,0,0,0,.65-2.58v-1a4.45,4.45,0,0,0-.67-2.59,2.13,2.13,0,0,0-1.84-.94,2.11,2.11,0,0,0-1.8.92,4.35,4.35,0,0,0-.68,2.54Zm11.94-4.34a3.67,3.67,0,0,0-.61-.06,1.84,1.84,0,0,0-1.36.55,3.21,3.21,0,0,0-.78,1.54v6.57h-1V90.58h1V92a2.31,2.31,0,0,1,2.18-1.6,1.16,1.16,0,0,1,.59.12Zm6.39,8.6a6.15,6.15,0,0,1-.18-1.32,3.13,3.13,0,0,1-1.13,1.1,3,3,0,0,1-1.5.39,2.57,2.57,0,0,1-1.91-.69,2.68,2.68,0,0,1-.69-2,2.74,2.74,0,0,1,1-2.21,3.93,3.93,0,0,1,2.63-.83h1.63V93.22a1.84,1.84,0,0,0-.5-1.46,2.16,2.16,0,0,0-1.48-.44,2.13,2.13,0,0,0-1.49.52,1.79,1.79,0,0,0-.58,1.37h-1a2.61,2.61,0,0,1,.88-2,3.11,3.11,0,0,1,2.2-.81,3,3,0,0,1,2.17.72,2.81,2.81,0,0,1,.74,2.1v4.67a6.4,6.4,0,0,0,.26,2.09v.11Zm-4.42-2.58c0,1.21.58,1.81,1.74,1.81a2.64,2.64,0,0,0,1.52-.45,2.52,2.52,0,0,0,1-1.19V95.37h-1.54a3.16,3.16,0,0,0-2,.59,1.92,1.92,0,0,0-.67,1.55Zm9,2.58h-1V86.59h1Zm11.49-2.35a1.4,1.4,0,0,0-.51-1.07,7,7,0,0,0-1.72-1,9.55,9.55,0,0,1-1.7-.91,2.44,2.44,0,0,1-.72-.8,2.14,2.14,0,0,1-.22-1,2.33,2.33,0,0,1,.79-1.81,2.91,2.91,0,0,1,2-.72,3,3,0,0,1,2.17.77,2.64,2.64,0,0,1,.81,2h-1a1.76,1.76,0,0,0-.55-1.34,2,2,0,0,0-1.45-.53,2,2,0,0,0-1.36.44,1.43,1.43,0,0,0-.51,1.14,1.21,1.21,0,0,0,.39.93,7.56,7.56,0,0,0,1.67,1,10.24,10.24,0,0,1,1.83,1,2.92,2.92,0,0,1,.75.84,2.26,2.26,0,0,1,.26,1.1,2.32,2.32,0,0,1-.82,1.87,3.21,3.21,0,0,1-2.15.69,3.29,3.29,0,0,1-2.29-.77,2.53,2.53,0,0,1-.88-2h1a1.84,1.84,0,0,0,.59,1.37,2.31,2.31,0,0,0,1.59.49,2.23,2.23,0,0,0,1.44-.44A1.42,1.42,0,0,0,396.31,97.74Zm2.91-2.89a5.15,5.15,0,0,1,.93-3.25,3.31,3.31,0,0,1,5.08,0,5.16,5.16,0,0,1,.94,3.24v1a5,5,0,0,1-.94,3.26,3,3,0,0,1-2.52,1.17,3.11,3.11,0,0,1-2.53-1.14,5,5,0,0,1-1-3.15Zm1,1a4.36,4.36,0,0,0,.67,2.58,2.29,2.29,0,0,0,3.68,0,4.47,4.47,0,0,0,.64-2.58v-1a4.45,4.45,0,0,0-.66-2.59,2.13,2.13,0,0,0-1.84-.94,2.08,2.08,0,0,0-1.8.92,4.28,4.28,0,0,0-.69,2.54Zm9.31,4.26h-1V86.59h1ZM417.3,99a2.72,2.72,0,0,1-2.5,1.31,2.28,2.28,0,0,1-1.95-.89,4.43,4.43,0,0,1-.67-2.64V90.58h1V96.7a3.48,3.48,0,0,0,.45,2,1.5,1.5,0,0,0,1.32.67,2.26,2.26,0,0,0,2.37-1.79v-7h1v9.51h-.95Zm5-10.8v2.43H424v.88h-1.63v6.32a2.32,2.32,0,0,0,.23,1.16.84.84,0,0,0,.78.38,4,4,0,0,0,.7-.09l0,.88a2.4,2.4,0,0,1-1,.15c-1.14,0-1.73-.78-1.75-2.35V91.46h-1.47v-.88h1.47V88.15Zm3.72-.31a.8.8,0,0,1,.16-.51.59.59,0,0,1,.48-.22.61.61,0,0,1,.48.22.8.8,0,0,1,.17.51.8.8,0,0,1-.17.5.6.6,0,0,1-.48.21.59.59,0,0,1-.48-.21A.79.79,0,0,1,426.05,87.84Zm1.12,12.25h-1V90.58h1Zm2.32-5.24a5.09,5.09,0,0,1,.94-3.25,3.31,3.31,0,0,1,5.08,0,5.16,5.16,0,0,1,.94,3.24v1a5.08,5.08,0,0,1-.94,3.26,3.34,3.34,0,0,1-5.05,0,5,5,0,0,1-1-3.15Zm1,1a4.44,4.44,0,0,0,.66,2.58,2.12,2.12,0,0,0,1.84.94,2.09,2.09,0,0,0,1.84-.91,4.46,4.46,0,0,0,.65-2.58v-1a4.38,4.38,0,0,0-.67-2.59,2.25,2.25,0,0,0-3.64,0,4.35,4.35,0,0,0-.68,2.54Zm9.15-5.25,0,1.51a3.41,3.41,0,0,1,1.08-1.23,2.48,2.48,0,0,1,1.49-.46c1.65,0,2.5,1.11,2.54,3.32v6.37h-1V93.82a3.31,3.31,0,0,0-.45-1.88,1.59,1.59,0,0,0-1.38-.61,2,2,0,0,0-1.38.58,3.64,3.64,0,0,0-.92,1.58v6.6h-1V90.58Zm8.89-2.52a14.94,14.94,0,0,1,1.58,7,16.19,16.19,0,0,1-.43,3.79,13.22,13.22,0,0,1-1.24,3.27,6.36,6.36,0,0,1-1.72,2.11l-.22-.7a6.37,6.37,0,0,0,1.54-2.4,16.35,16.35,0,0,0,1.1-6.23,17.09,17.09,0,0,0-.35-3.47,13.9,13.9,0,0,0-1-3,5.89,5.89,0,0,0-1.32-2l.22-.7a6.66,6.66,0,0,1,1.81,2.33Zm8.43,12V87.29h3.24a3.67,3.67,0,0,1,2.63.85,3.3,3.3,0,0,1,.89,2.5,3.21,3.21,0,0,1-.46,1.71A2.52,2.52,0,0,1,462,93.4a2.5,2.5,0,0,1,1.51,1.09,3.43,3.43,0,0,1,.58,2,3.67,3.67,0,0,1-.92,2.64,3.37,3.37,0,0,1-2.59,1ZM458,93h2.33a2.43,2.43,0,0,0,1.77-.61,2.87,2.87,0,0,0,0-3.59,2.66,2.66,0,0,0-1.88-.58H458Zm0,.92v5.22h2.65a2.36,2.36,0,0,0,1.81-.71,2.74,2.74,0,0,0,.66-2,2.67,2.67,0,0,0-.62-1.85,2.18,2.18,0,0,0-1.7-.71Zm9.83,6.15h-1V87.29h1Zm3.21,0V87.29h3a4.24,4.24,0,0,1,3.3,1.33,5.4,5.4,0,0,1,1.25,3.67V95a5.37,5.37,0,0,1-1.23,3.76,4.38,4.38,0,0,1-3.44,1.36Zm1-11.85V99.16h1.94a3.39,3.39,0,0,0,2.66-1.06,4.52,4.52,0,0,0,1-3V92.39a4.64,4.64,0,0,0-.91-3.06A3.28,3.28,0,0,0,474,88.24Z" fill="#4d4d4d"/>
        <path d="M253.59,129.11h1a2.38,2.38,0,0,0,1.74-.68,2.46,2.46,0,0,0,.66-1.8,2.89,2.89,0,0,0-.57-1.92,2,2,0,0,0-1.62-.68,2.09,2.09,0,0,0-1.65.72,2.81,2.81,0,0,0-.62,1.9h-1a4,4,0,0,1,.41-1.81,3.07,3.07,0,0,1,1.16-1.26,3.18,3.18,0,0,1,1.68-.47,3,3,0,0,1,2.3.94,3.7,3.7,0,0,1,.87,2.62,3.14,3.14,0,0,1-.5,1.72,3.07,3.07,0,0,1-1.33,1.14,2.76,2.76,0,0,1,1.49,1.11,3.51,3.51,0,0,1,.53,2,3.77,3.77,0,0,1-.92,2.66,3.11,3.11,0,0,1-2.41,1,3.52,3.52,0,0,1-1.76-.45,3.07,3.07,0,0,1-1.23-1.27,4,4,0,0,1-.44-1.92h1a2.8,2.8,0,0,0,.68,2,2.25,2.25,0,0,0,1.77.77,2.17,2.17,0,0,0,1.73-.7,2.88,2.88,0,0,0,.62-2,2.35,2.35,0,0,0-2.6-2.62h-.95Zm11.87-2.53,0,1.42a2.79,2.79,0,0,1,2.54-1.6,2.28,2.28,0,0,1,2.38,1.75,3.23,3.23,0,0,1,1.15-1.31,2.91,2.91,0,0,1,1.55-.44c1.71,0,2.58,1.1,2.62,3.31v6.38h-1v-6.32a3.19,3.19,0,0,0-.46-1.83,1.64,1.64,0,0,0-1.44-.61,2.09,2.09,0,0,0-1.53.71,2.8,2.8,0,0,0-.71,1.72v6.33h-1v-6.3a3,3,0,0,0-.46-1.85,1.69,1.69,0,0,0-1.43-.61,2,2,0,0,0-1.39.56,3.23,3.23,0,0,0-.85,1.58v6.62h-1v-9.51Zm12.48,4.31a5.94,5.94,0,0,1,.77-3.37A2.64,2.64,0,0,1,281,126.4a2.6,2.6,0,0,1,2.44,1.5l.06-1.32h.9v9.78a3.84,3.84,0,0,1-.82,2.62,3,3,0,0,1-2.37.9,3.57,3.57,0,0,1-1.58-.39,3.29,3.29,0,0,1-1.21-.94l.46-.7a2.93,2.93,0,0,0,2.26,1.11,2.17,2.17,0,0,0,1.73-.63,3,3,0,0,0,.55-1.92V134.9a2.64,2.64,0,0,1-2.43,1.36,2.6,2.6,0,0,1-2.27-1.11,5.61,5.61,0,0,1-.81-3.23Zm1,.89a5.08,5.08,0,0,0,.55,2.69,1.93,1.93,0,0,0,1.74.86,2.28,2.28,0,0,0,2.24-1.5V129a2.28,2.28,0,0,0-2.22-1.63,2,2,0,0,0-1.75.85,5,5,0,0,0-.56,2.64Zm12.05-.86a15.63,15.63,0,0,1,.46-3.83,13.58,13.58,0,0,1,1.26-3.29,6.45,6.45,0,0,1,1.67-2.07l.23.74a6,6,0,0,0-1.33,1.92,13,13,0,0,0-1,3,18.56,18.56,0,0,0-.34,3.7,17.39,17.39,0,0,0,.34,3.5,13.54,13.54,0,0,0,1,3,6,6,0,0,0,1.33,2l-.23.7a5.51,5.51,0,0,1-1.21-1.3,9.87,9.87,0,0,1-1.1-2.08,14,14,0,0,1-.78-2.65A16.12,16.12,0,0,1,291,130.92Zm7.17-1.81h1a2.38,2.38,0,0,0,1.74-.68,2.46,2.46,0,0,0,.66-1.8,2.89,2.89,0,0,0-.57-1.92,2,2,0,0,0-1.62-.68,2.09,2.09,0,0,0-1.65.72,2.81,2.81,0,0,0-.63,1.9h-1a4,4,0,0,1,.41-1.81,3.07,3.07,0,0,1,1.16-1.26,3.18,3.18,0,0,1,1.68-.47,3,3,0,0,1,2.3.94,3.7,3.7,0,0,1,.87,2.62,3.14,3.14,0,0,1-.5,1.72,3.07,3.07,0,0,1-1.33,1.14,2.76,2.76,0,0,1,1.49,1.11,3.51,3.51,0,0,1,.53,2,3.77,3.77,0,0,1-.92,2.66,3.11,3.11,0,0,1-2.41,1,3.52,3.52,0,0,1-1.76-.45,3.1,3.1,0,0,1-1.24-1.27,4,4,0,0,1-.43-1.92h1a2.8,2.8,0,0,0,.68,2,2.25,2.25,0,0,0,1.77.77,2.17,2.17,0,0,0,1.73-.7,2.88,2.88,0,0,0,.62-2,2.35,2.35,0,0,0-2.6-2.62h-.95ZM310,126.58l0,1.42a2.81,2.81,0,0,1,2.55-1.6,2.28,2.28,0,0,1,2.38,1.75,3.23,3.23,0,0,1,1.15-1.31,2.91,2.91,0,0,1,1.55-.44c1.71,0,2.58,1.1,2.62,3.31v6.38h-1v-6.32a3.19,3.19,0,0,0-.46-1.83,1.64,1.64,0,0,0-1.44-.61,2.09,2.09,0,0,0-1.53.71,2.8,2.8,0,0,0-.71,1.72v6.33h-1v-6.3a3,3,0,0,0-.46-1.85,1.7,1.7,0,0,0-1.44-.61,1.94,1.94,0,0,0-1.38.56,3.23,3.23,0,0,0-.85,1.58v6.62h-1v-9.51Zm14,8.58h5.27v.93H323v-12.8h1Zm10.81-4.31a5.15,5.15,0,0,1,.93-3.25,3.32,3.32,0,0,1,5.09,0,5.1,5.1,0,0,1,.93,3.24v1a5.08,5.08,0,0,1-.93,3.26,3.34,3.34,0,0,1-5.05,0,5,5,0,0,1-1-3.15Zm1,1a4.44,4.44,0,0,0,.66,2.58,2.12,2.12,0,0,0,1.84.94,2.1,2.1,0,0,0,1.84-.91,4.46,4.46,0,0,0,.65-2.58v-1a4.45,4.45,0,0,0-.67-2.59,2.13,2.13,0,0,0-1.84-.94,2.11,2.11,0,0,0-1.8.92,4.35,4.35,0,0,0-.68,2.54Zm11.94-4.34a3.58,3.58,0,0,0-.61-.06,1.84,1.84,0,0,0-1.36.55,3.3,3.3,0,0,0-.78,1.54v6.57h-1v-9.51h1V128a2.31,2.31,0,0,1,2.18-1.6,1.16,1.16,0,0,1,.59.12Zm6.39,8.6a6.15,6.15,0,0,1-.18-1.32,3.13,3.13,0,0,1-1.13,1.1,3,3,0,0,1-1.5.39,2.56,2.56,0,0,1-1.91-.69,2.68,2.68,0,0,1-.69-2,2.77,2.77,0,0,1,1-2.21,4,4,0,0,1,2.64-.83H354v-1.33a1.88,1.88,0,0,0-.5-1.46,2.19,2.19,0,0,0-1.49-.44,2.12,2.12,0,0,0-1.48.52,1.75,1.75,0,0,0-.58,1.37h-1a2.65,2.65,0,0,1,.88-2,3.14,3.14,0,0,1,2.21-.81,3,3,0,0,1,2.17.72,2.81,2.81,0,0,1,.74,2.1v4.67a6.45,6.45,0,0,0,.25,2.09v.11Zm-4.43-2.58c0,1.21.58,1.81,1.74,1.81a2.65,2.65,0,0,0,1.53-.45,2.52,2.52,0,0,0,1-1.19v-2.31h-1.55a3.11,3.11,0,0,0-2,.59,1.93,1.93,0,0,0-.68,1.55Zm9,2.58h-1v-13.5h1Zm11.49-2.35a1.4,1.4,0,0,0-.51-1.07,6.88,6.88,0,0,0-1.73-1,9.93,9.93,0,0,1-1.7-.91,2.4,2.4,0,0,1-.71-.8,2.13,2.13,0,0,1-.23-1,2.36,2.36,0,0,1,.79-1.81,2.93,2.93,0,0,1,2.05-.72,3,3,0,0,1,2.16.77,2.64,2.64,0,0,1,.81,2h-1a1.77,1.77,0,0,0-.56-1.34,2,2,0,0,0-1.44-.53,2,2,0,0,0-1.37.44,1.45,1.45,0,0,0-.5,1.14,1.21,1.21,0,0,0,.39.93,7.31,7.31,0,0,0,1.67,1,9.71,9.71,0,0,1,1.82.95,2.82,2.82,0,0,1,.76.84,2.26,2.26,0,0,1,.26,1.1,2.35,2.35,0,0,1-.82,1.87,3.25,3.25,0,0,1-2.16.69,3.32,3.32,0,0,1-2.29-.77,2.56,2.56,0,0,1-.87-2h1a1.85,1.85,0,0,0,.6,1.37,2.7,2.7,0,0,0,3,0A1.42,1.42,0,0,0,370.21,133.74Zm2.9-2.89a5.15,5.15,0,0,1,.94-3.25,3.31,3.31,0,0,1,5.08,0,5.16,5.16,0,0,1,.94,3.24v1a5.08,5.08,0,0,1-.94,3.26,3.34,3.34,0,0,1-5.05,0,5,5,0,0,1-1-3.15Zm1,1a4.44,4.44,0,0,0,.66,2.58,2.3,2.3,0,0,0,3.69,0,4.47,4.47,0,0,0,.64-2.58v-1a4.38,4.38,0,0,0-.67-2.59,2.25,2.25,0,0,0-3.64,0,4.35,4.35,0,0,0-.68,2.54Zm9.31,4.26h-1v-13.5h1ZM391.2,135a2.72,2.72,0,0,1-2.51,1.31,2.28,2.28,0,0,1-1.95-.89,4.43,4.43,0,0,1-.66-2.64v-6.15h1v6.12a3.4,3.4,0,0,0,.46,2,1.48,1.48,0,0,0,1.32.67,2.25,2.25,0,0,0,2.36-1.79v-7h1v9.51h-.95Zm5-10.8v2.43h1.62v.88h-1.62v6.32a2.32,2.32,0,0,0,.23,1.16.84.84,0,0,0,.78.38,4,4,0,0,0,.7-.09l0,.88a2.4,2.4,0,0,1-1,.15c-1.14,0-1.73-.78-1.76-2.35v-6.45h-1.47v-.88h1.47v-2.43Zm3.71-.31a.8.8,0,0,1,.17-.51.58.58,0,0,1,.48-.22.61.61,0,0,1,.48.22.8.8,0,0,1,.17.51.8.8,0,0,1-.17.5.6.6,0,0,1-.48.21.57.57,0,0,1-.48-.21A.8.8,0,0,1,399.94,123.84Zm1.13,12.25h-1v-9.51h1Zm2.32-5.24a5.15,5.15,0,0,1,.93-3.25,3.32,3.32,0,0,1,5.09,0,5.1,5.1,0,0,1,.93,3.24v1a5.08,5.08,0,0,1-.93,3.26,3.34,3.34,0,0,1-5.05,0,5,5,0,0,1-1-3.15Zm1,1a4.44,4.44,0,0,0,.66,2.58,2.29,2.29,0,0,0,3.68,0,4.46,4.46,0,0,0,.65-2.58v-1a4.45,4.45,0,0,0-.67-2.59,2.13,2.13,0,0,0-1.84-.94,2.11,2.11,0,0,0-1.8.92,4.35,4.35,0,0,0-.68,2.54Zm9.15-5.25,0,1.51a3.48,3.48,0,0,1,1.07-1.23,2.53,2.53,0,0,1,1.49-.46c1.66,0,2.51,1.11,2.55,3.32v6.37h-1v-6.27a3.24,3.24,0,0,0-.44-1.88,1.62,1.62,0,0,0-1.38-.61,2,2,0,0,0-1.38.58,3.55,3.55,0,0,0-.93,1.58v6.6h-1v-9.51Zm8.89-2.52a14.94,14.94,0,0,1,1.58,7,16.19,16.19,0,0,1-.44,3.79,12.83,12.83,0,0,1-1.24,3.27,6.34,6.34,0,0,1-1.71,2.11l-.22-.7a6.37,6.37,0,0,0,1.53-2.4,16.16,16.16,0,0,0,1.1-6.23,17.09,17.09,0,0,0-.34-3.47,14.47,14.47,0,0,0-1-3,6,6,0,0,0-1.32-2l.22-.7a6.78,6.78,0,0,1,1.81,2.33Zm8.43,12v-12.8h3.24a3.64,3.64,0,0,1,2.62.85,3.26,3.26,0,0,1,.89,2.5,3.21,3.21,0,0,1-.45,1.71,2.57,2.57,0,0,1-1.27,1.05,2.56,2.56,0,0,1,1.51,1.09,3.5,3.5,0,0,1,.57,2,3.67,3.67,0,0,1-.91,2.64,3.37,3.37,0,0,1-2.59,1Zm1-7.07h2.33a2.43,2.43,0,0,0,1.77-.61,2.37,2.37,0,0,0,.63-1.8,2.3,2.3,0,0,0-.62-1.79,2.62,2.62,0,0,0-1.87-.58h-2.24Zm0,.92v5.22h2.65a2.35,2.35,0,0,0,1.8-.71,2.74,2.74,0,0,0,.66-1.95,2.66,2.66,0,0,0-.61-1.85,2.2,2.2,0,0,0-1.7-.71Zm9.83,6.15h-1v-12.8h1Zm3.21,0v-12.8h3a4.24,4.24,0,0,1,3.3,1.33,5.4,5.4,0,0,1,1.24,3.67V131a5.42,5.42,0,0,1-1.22,3.76,4.39,4.39,0,0,1-3.44,1.36Zm1-11.85v10.92h1.94a3.37,3.37,0,0,0,2.65-1.06,4.53,4.53,0,0,0,1-3v-2.68a4.64,4.64,0,0,0-.92-3.06,3.27,3.27,0,0,0-2.66-1.09Z" fill="#4d4d4d"/>
        <path d="M253.59,165.11h1a2.38,2.38,0,0,0,1.74-.68,2.46,2.46,0,0,0,.66-1.8,2.89,2.89,0,0,0-.57-1.92,2,2,0,0,0-1.62-.68,2.09,2.09,0,0,0-1.65.72,2.81,2.81,0,0,0-.62,1.9h-1a4,4,0,0,1,.41-1.81,3.07,3.07,0,0,1,1.16-1.26,3.18,3.18,0,0,1,1.68-.47,3,3,0,0,1,2.3.94,3.7,3.7,0,0,1,.87,2.62,3.14,3.14,0,0,1-.5,1.72,3.07,3.07,0,0,1-1.33,1.14,2.76,2.76,0,0,1,1.49,1.11,3.51,3.51,0,0,1,.53,2,3.77,3.77,0,0,1-.92,2.66,3.11,3.11,0,0,1-2.41,1,3.52,3.52,0,0,1-1.76-.45,3.07,3.07,0,0,1-1.23-1.27,4,4,0,0,1-.44-1.92h1a2.8,2.8,0,0,0,.68,2,2.25,2.25,0,0,0,1.77.77,2.17,2.17,0,0,0,1.73-.7,2.88,2.88,0,0,0,.62-2,2.35,2.35,0,0,0-2.6-2.62h-.95Zm6.9,6.34a.78.78,0,0,1,.19-.54.74.74,0,0,1,.55-.21.75.75,0,0,1,.56.21.78.78,0,0,1,.2.54.73.73,0,0,1-.2.51.78.78,0,0,1-.56.2.77.77,0,0,1-.55-.2A.72.72,0,0,1,260.49,171.45Zm4.79-5.92.53-6.24h5.4v1h-4.57l-.36,4.29a3.05,3.05,0,0,1,2-.7,2.76,2.76,0,0,1,2.32,1.13,4.77,4.77,0,0,1,.86,3,5.13,5.13,0,0,1-.84,3.13,2.82,2.82,0,0,1-2.4,1.12,3,3,0,0,1-2.3-.94,4.17,4.17,0,0,1-1-2.6h.93a3.34,3.34,0,0,0,.73,2,2.09,2.09,0,0,0,1.63.67,1.9,1.9,0,0,0,1.69-.87,4.47,4.47,0,0,0,.58-2.46,3.74,3.74,0,0,0-.65-2.28,2,2,0,0,0-1.75-.88,2.7,2.7,0,0,0-1.08.2,2.78,2.78,0,0,0-.94.72Zm13.23-2.95,0,1.42a2.81,2.81,0,0,1,2.55-1.6,2.28,2.28,0,0,1,2.38,1.75,3.23,3.23,0,0,1,1.15-1.31,2.91,2.91,0,0,1,1.55-.44c1.71,0,2.58,1.1,2.62,3.31v6.38h-1v-6.32a3.19,3.19,0,0,0-.46-1.83,1.64,1.64,0,0,0-1.44-.61,2.09,2.09,0,0,0-1.53.71,2.8,2.8,0,0,0-.71,1.72v6.33h-1v-6.3a3,3,0,0,0-.46-1.85,1.7,1.7,0,0,0-1.44-.61,1.94,1.94,0,0,0-1.38.56,3.23,3.23,0,0,0-.85,1.58v6.62h-1v-9.51ZM291,166.89a5.94,5.94,0,0,1,.77-3.37,2.64,2.64,0,0,1,2.32-1.12,2.6,2.6,0,0,1,2.44,1.5l.06-1.32h.9v9.78a3.84,3.84,0,0,1-.82,2.62,3,3,0,0,1-2.37.9,3.57,3.57,0,0,1-1.58-.39,3.29,3.29,0,0,1-1.21-.94l.46-.7a2.93,2.93,0,0,0,2.26,1.11,2.17,2.17,0,0,0,1.73-.63,3,3,0,0,0,.55-1.92V170.9a2.64,2.64,0,0,1-2.43,1.36,2.6,2.6,0,0,1-2.27-1.11,5.61,5.61,0,0,1-.81-3.23Zm1,.89a5.08,5.08,0,0,0,.55,2.69,1.93,1.93,0,0,0,1.74.86,2.28,2.28,0,0,0,2.24-1.5V165a2.28,2.28,0,0,0-2.22-1.63,2,2,0,0,0-1.75.85,5,5,0,0,0-.56,2.64Zm12-.86a15.63,15.63,0,0,1,.46-3.83,13.58,13.58,0,0,1,1.26-3.29,6.45,6.45,0,0,1,1.67-2.07l.23.74a6,6,0,0,0-1.33,1.92,13,13,0,0,0-1,3,18.53,18.53,0,0,0-.35,3.7,17.38,17.38,0,0,0,.35,3.5,13.54,13.54,0,0,0,1,3,6,6,0,0,0,1.33,2l-.23.7a5.51,5.51,0,0,1-1.21-1.3,9.87,9.87,0,0,1-1.1-2.08,14,14,0,0,1-.78-2.65A16.12,16.12,0,0,1,304,166.92Zm7.17-1.81h1a2.4,2.4,0,0,0,1.74-.68,2.46,2.46,0,0,0,.66-1.8,2.89,2.89,0,0,0-.57-1.92,2,2,0,0,0-1.62-.68,2.09,2.09,0,0,0-1.65.72,2.81,2.81,0,0,0-.63,1.9h-1a4,4,0,0,1,.41-1.81,3.07,3.07,0,0,1,1.16-1.26,3.18,3.18,0,0,1,1.68-.47,3,3,0,0,1,2.3.94,3.7,3.7,0,0,1,.87,2.62,3.14,3.14,0,0,1-.5,1.72,3.07,3.07,0,0,1-1.33,1.14,2.76,2.76,0,0,1,1.49,1.11,3.51,3.51,0,0,1,.53,2,3.77,3.77,0,0,1-.92,2.66,3.12,3.12,0,0,1-2.41,1,3.52,3.52,0,0,1-1.76-.45,3.1,3.1,0,0,1-1.24-1.27,4,4,0,0,1-.43-1.92h1a2.8,2.8,0,0,0,.68,2,2.25,2.25,0,0,0,1.77.77,2.17,2.17,0,0,0,1.73-.7,2.88,2.88,0,0,0,.62-2,2.35,2.35,0,0,0-2.6-2.62h-.95Zm6.9,6.34a.78.78,0,0,1,.19-.54.74.74,0,0,1,.55-.21.75.75,0,0,1,.56.21.78.78,0,0,1,.2.54.73.73,0,0,1-.2.51.78.78,0,0,1-.56.2.77.77,0,0,1-.55-.2A.72.72,0,0,1,318.09,171.45Zm4.79-5.92.53-6.24h5.4v1h-4.57l-.36,4.29a3,3,0,0,1,2-.7,2.76,2.76,0,0,1,2.32,1.13,4.77,4.77,0,0,1,.86,3,5.13,5.13,0,0,1-.84,3.13,2.84,2.84,0,0,1-2.4,1.12,3,3,0,0,1-2.3-.94,4.17,4.17,0,0,1-1-2.6h.93a3.34,3.34,0,0,0,.73,2,2.09,2.09,0,0,0,1.63.67,1.9,1.9,0,0,0,1.69-.87,4.47,4.47,0,0,0,.58-2.46,3.74,3.74,0,0,0-.65-2.28,2,2,0,0,0-1.75-.88,2.79,2.79,0,0,0-1.09.2,2.86,2.86,0,0,0-.93.72Zm13.23-2.95,0,1.42a2.81,2.81,0,0,1,2.55-1.6,2.28,2.28,0,0,1,2.38,1.75,3.23,3.23,0,0,1,1.15-1.31,2.9,2.9,0,0,1,1.54-.44c1.72,0,2.59,1.1,2.63,3.31v6.38h-1v-6.32a3.19,3.19,0,0,0-.46-1.83,1.64,1.64,0,0,0-1.44-.61A2.09,2.09,0,0,0,342,164a2.8,2.8,0,0,0-.71,1.72v6.33h-1v-6.3a3,3,0,0,0-.46-1.85,1.7,1.7,0,0,0-1.44-.61,1.94,1.94,0,0,0-1.38.56,3.23,3.23,0,0,0-.85,1.58v6.62h-1v-9.51Zm14,8.58h5.27v.93h-6.28v-12.8h1ZM361,166.85a5.15,5.15,0,0,1,.93-3.25,3.32,3.32,0,0,1,5.09,0,5.16,5.16,0,0,1,.93,3.24v1a5.08,5.08,0,0,1-.93,3.26,3.34,3.34,0,0,1-5.05,0,5,5,0,0,1-1-3.15Zm1,1a4.44,4.44,0,0,0,.66,2.58,2.29,2.29,0,0,0,3.68,0,4.46,4.46,0,0,0,.65-2.58v-1a4.45,4.45,0,0,0-.67-2.59,2.13,2.13,0,0,0-1.84-.94,2.11,2.11,0,0,0-1.8.92,4.35,4.35,0,0,0-.68,2.54Zm11.94-4.34a3.67,3.67,0,0,0-.61-.06,1.84,1.84,0,0,0-1.36.55,3.21,3.21,0,0,0-.78,1.54v6.57h-1v-9.51h1V164a2.31,2.31,0,0,1,2.18-1.6,1.16,1.16,0,0,1,.59.12Zm6.39,8.6a6.15,6.15,0,0,1-.18-1.32,3.13,3.13,0,0,1-1.13,1.1,3,3,0,0,1-1.5.39,2.57,2.57,0,0,1-1.91-.69,2.68,2.68,0,0,1-.69-2,2.74,2.74,0,0,1,1-2.21,3.93,3.93,0,0,1,2.63-.83h1.63v-1.33a1.84,1.84,0,0,0-.5-1.46,2.16,2.16,0,0,0-1.48-.44,2.13,2.13,0,0,0-1.49.52,1.79,1.79,0,0,0-.58,1.37h-1a2.61,2.61,0,0,1,.88-2,3.11,3.11,0,0,1,2.2-.81,3,3,0,0,1,2.17.72,2.81,2.81,0,0,1,.74,2.1v4.67a6.4,6.4,0,0,0,.26,2.09v.11Zm-4.42-2.58c0,1.21.58,1.81,1.74,1.81a2.64,2.64,0,0,0,1.52-.45,2.52,2.52,0,0,0,1-1.19v-2.31h-1.54a3.16,3.16,0,0,0-2,.59,1.92,1.92,0,0,0-.67,1.55Zm9,2.58h-1v-13.5h1Zm11.49-2.35a1.4,1.4,0,0,0-.51-1.07,7,7,0,0,0-1.72-1,9.55,9.55,0,0,1-1.7-.91,2.44,2.44,0,0,1-.72-.8,2.14,2.14,0,0,1-.22-1,2.33,2.33,0,0,1,.79-1.81,2.91,2.91,0,0,1,2-.72,3,3,0,0,1,2.17.77,2.64,2.64,0,0,1,.81,2h-1a1.76,1.76,0,0,0-.55-1.34,2,2,0,0,0-1.45-.53,2,2,0,0,0-1.36.44,1.43,1.43,0,0,0-.51,1.14,1.21,1.21,0,0,0,.39.93,7.56,7.56,0,0,0,1.67,1,10.24,10.24,0,0,1,1.83.95,2.92,2.92,0,0,1,.75.84,2.26,2.26,0,0,1,.26,1.1,2.32,2.32,0,0,1-.82,1.87,3.21,3.21,0,0,1-2.15.69,3.29,3.29,0,0,1-2.29-.77,2.53,2.53,0,0,1-.88-2h1a1.84,1.84,0,0,0,.59,1.37,2.31,2.31,0,0,0,1.59.49,2.23,2.23,0,0,0,1.44-.44A1.42,1.42,0,0,0,396.31,169.74Zm2.91-2.89a5.15,5.15,0,0,1,.93-3.25,3.31,3.31,0,0,1,5.08,0,5.16,5.16,0,0,1,.94,3.24v1a5,5,0,0,1-.94,3.26,3,3,0,0,1-2.52,1.17,3.11,3.11,0,0,1-2.53-1.14,5,5,0,0,1-1-3.15Zm1,1a4.36,4.36,0,0,0,.67,2.58,2.29,2.29,0,0,0,3.68,0,4.47,4.47,0,0,0,.64-2.58v-1a4.45,4.45,0,0,0-.66-2.59,2.13,2.13,0,0,0-1.84-.94,2.08,2.08,0,0,0-1.8.92,4.28,4.28,0,0,0-.69,2.54Zm9.31,4.26h-1v-13.5h1ZM417.3,171a2.72,2.72,0,0,1-2.5,1.31,2.28,2.28,0,0,1-1.95-.89,4.43,4.43,0,0,1-.67-2.64v-6.15h1v6.12a3.48,3.48,0,0,0,.45,2,1.5,1.5,0,0,0,1.32.67,2.26,2.26,0,0,0,2.37-1.79v-7h1v9.51h-.95Zm5-10.8v2.43H424v.88h-1.63v6.32a2.32,2.32,0,0,0,.23,1.16.84.84,0,0,0,.78.38,4,4,0,0,0,.7-.09l0,.88a2.4,2.4,0,0,1-1,.15c-1.14,0-1.73-.78-1.75-2.35v-6.45h-1.47v-.88h1.47v-2.43Zm3.72-.31a.8.8,0,0,1,.16-.51.59.59,0,0,1,.48-.22.61.61,0,0,1,.48.22.8.8,0,0,1,.17.51.8.8,0,0,1-.17.5.6.6,0,0,1-.48.21.59.59,0,0,1-.48-.21A.79.79,0,0,1,426.05,159.84Zm1.12,12.25h-1v-9.51h1Zm2.32-5.24a5.09,5.09,0,0,1,.94-3.25,3.31,3.31,0,0,1,5.08,0,5.16,5.16,0,0,1,.94,3.24v1a5.08,5.08,0,0,1-.94,3.26,3.34,3.34,0,0,1-5.05,0,5,5,0,0,1-1-3.15Zm1,1a4.44,4.44,0,0,0,.66,2.58,2.12,2.12,0,0,0,1.84.94,2.09,2.09,0,0,0,1.84-.91,4.46,4.46,0,0,0,.65-2.58v-1a4.38,4.38,0,0,0-.67-2.59,2.25,2.25,0,0,0-3.64,0,4.35,4.35,0,0,0-.68,2.54Zm9.15-5.25,0,1.51a3.41,3.41,0,0,1,1.08-1.23,2.48,2.48,0,0,1,1.49-.46c1.65,0,2.5,1.11,2.54,3.32v6.37h-1v-6.27a3.31,3.31,0,0,0-.45-1.88,1.59,1.59,0,0,0-1.38-.61,2,2,0,0,0-1.38.58,3.64,3.64,0,0,0-.92,1.58v6.6h-1v-9.51Zm8.89-2.52a14.94,14.94,0,0,1,1.58,7,16.19,16.19,0,0,1-.43,3.79,13.22,13.22,0,0,1-1.24,3.27,6.36,6.36,0,0,1-1.72,2.11l-.22-.7a6.37,6.37,0,0,0,1.54-2.4,16.35,16.35,0,0,0,1.1-6.23,17.09,17.09,0,0,0-.35-3.47,13.9,13.9,0,0,0-1-3,5.89,5.89,0,0,0-1.32-2l.22-.7a6.66,6.66,0,0,1,1.81,2.33Zm8.43,12v-12.8h3.24a3.67,3.67,0,0,1,2.63.85,3.3,3.3,0,0,1,.89,2.5,3.21,3.21,0,0,1-.46,1.71A2.52,2.52,0,0,1,462,165.4a2.5,2.5,0,0,1,1.51,1.09,3.43,3.43,0,0,1,.58,2,3.67,3.67,0,0,1-.92,2.64,3.37,3.37,0,0,1-2.59,1Zm1-7.07h2.33a2.43,2.43,0,0,0,1.77-.61,2.87,2.87,0,0,0,0-3.59,2.66,2.66,0,0,0-1.88-.58H458Zm0,.92v5.22h2.65a2.36,2.36,0,0,0,1.81-.71,2.74,2.74,0,0,0,.66-1.95,2.67,2.67,0,0,0-.62-1.85,2.18,2.18,0,0,0-1.7-.71Zm9.83,6.15h-1v-12.8h1Zm3.21,0v-12.8h3a4.24,4.24,0,0,1,3.3,1.33,5.4,5.4,0,0,1,1.25,3.67V167a5.37,5.37,0,0,1-1.23,3.76,4.38,4.38,0,0,1-3.44,1.36Zm1-11.85v10.92h1.94a3.39,3.39,0,0,0,2.66-1.06,4.52,4.52,0,0,0,1-3v-2.68a4.64,4.64,0,0,0-.91-3.06,3.28,3.28,0,0,0-2.66-1.09Z" fill="#4d4d4d"/>
        <path d="M257.12,204h1.64v.91h-1.64v3.22h-1v-3.22h-5v-.62l4.95-9h1.06Zm-4.84,0h3.86v-7.19l-.35.71Zm13.18-5.38,0,1.42a2.79,2.79,0,0,1,2.54-1.6,2.28,2.28,0,0,1,2.38,1.75,3.23,3.23,0,0,1,1.15-1.31,2.91,2.91,0,0,1,1.55-.44c1.71,0,2.58,1.1,2.62,3.31v6.38h-1v-6.32a3.19,3.19,0,0,0-.46-1.83,1.64,1.64,0,0,0-1.44-.61,2.09,2.09,0,0,0-1.53.71,2.8,2.8,0,0,0-.71,1.72v6.33h-1v-6.3a3,3,0,0,0-.46-1.85,1.69,1.69,0,0,0-1.43-.61,2,2,0,0,0-1.39.56,3.23,3.23,0,0,0-.85,1.58v6.62h-1v-9.51Zm12.48,4.31a5.94,5.94,0,0,1,.77-3.37A2.64,2.64,0,0,1,281,198.4a2.6,2.6,0,0,1,2.44,1.5l.06-1.32h.9v9.78a3.84,3.84,0,0,1-.82,2.62,3,3,0,0,1-2.37.9,3.57,3.57,0,0,1-1.58-.39,3.29,3.29,0,0,1-1.21-.94l.46-.7a2.93,2.93,0,0,0,2.26,1.11,2.17,2.17,0,0,0,1.73-.63,3,3,0,0,0,.55-1.92V206.9a2.64,2.64,0,0,1-2.43,1.36,2.6,2.6,0,0,1-2.27-1.11,5.61,5.61,0,0,1-.81-3.23Zm1,.89a5.08,5.08,0,0,0,.55,2.69,1.93,1.93,0,0,0,1.74.86,2.28,2.28,0,0,0,2.24-1.5V201a2.28,2.28,0,0,0-2.22-1.63,2,2,0,0,0-1.75.85,5,5,0,0,0-.56,2.64Zm12.05-.86a15.63,15.63,0,0,1,.46-3.83,13.58,13.58,0,0,1,1.26-3.29,6.45,6.45,0,0,1,1.67-2.07l.23.74a6,6,0,0,0-1.33,1.92,13,13,0,0,0-1,3,18.56,18.56,0,0,0-.34,3.7,17.39,17.39,0,0,0,.34,3.5,13.54,13.54,0,0,0,1,3,6,6,0,0,0,1.33,2l-.23.7a5.51,5.51,0,0,1-1.21-1.3,9.87,9.87,0,0,1-1.1-2.08,14,14,0,0,1-.78-2.65A16.12,16.12,0,0,1,291,202.92Zm10.7,1h1.64v.91h-1.64v3.22h-1v-3.22h-5v-.62l4.95-9h1.06Zm-4.84,0h3.86v-7.19l-.35.71ZM310,198.58l0,1.42a2.81,2.81,0,0,1,2.55-1.6,2.28,2.28,0,0,1,2.38,1.75,3.23,3.23,0,0,1,1.15-1.31,2.91,2.91,0,0,1,1.55-.44c1.71,0,2.58,1.1,2.62,3.31v6.38h-1v-6.32a3.19,3.19,0,0,0-.46-1.83,1.64,1.64,0,0,0-1.44-.61,2.09,2.09,0,0,0-1.53.71,2.8,2.8,0,0,0-.71,1.72v6.33h-1v-6.3a3,3,0,0,0-.46-1.85,1.7,1.7,0,0,0-1.44-.61,1.94,1.94,0,0,0-1.38.56,3.23,3.23,0,0,0-.85,1.58v6.62h-1v-9.51Zm14,8.58h5.27v.93H323v-12.8h1Zm10.81-4.31a5.15,5.15,0,0,1,.93-3.25,3.32,3.32,0,0,1,5.09,0,5.1,5.1,0,0,1,.93,3.24v1a5.08,5.08,0,0,1-.93,3.26,3.34,3.34,0,0,1-5.05,0,5,5,0,0,1-1-3.15Zm1,1a4.44,4.44,0,0,0,.66,2.58,2.12,2.12,0,0,0,1.84.94,2.1,2.1,0,0,0,1.84-.91,4.46,4.46,0,0,0,.65-2.58v-1a4.45,4.45,0,0,0-.67-2.59,2.13,2.13,0,0,0-1.84-.94,2.11,2.11,0,0,0-1.8.92,4.35,4.35,0,0,0-.68,2.54Zm11.94-4.34a3.58,3.58,0,0,0-.61-.06,1.84,1.84,0,0,0-1.36.55,3.3,3.3,0,0,0-.78,1.54v6.57h-1v-9.51h1V200a2.31,2.31,0,0,1,2.18-1.6,1.16,1.16,0,0,1,.59.12Zm6.39,8.6a6.15,6.15,0,0,1-.18-1.32,3.13,3.13,0,0,1-1.13,1.1,3,3,0,0,1-1.5.39,2.56,2.56,0,0,1-1.91-.69,2.68,2.68,0,0,1-.69-2,2.77,2.77,0,0,1,1-2.21,4,4,0,0,1,2.64-.83H354v-1.33a1.88,1.88,0,0,0-.5-1.46,2.19,2.19,0,0,0-1.49-.44,2.12,2.12,0,0,0-1.48.52,1.75,1.75,0,0,0-.58,1.37h-1a2.65,2.65,0,0,1,.88-2,3.14,3.14,0,0,1,2.21-.81,3,3,0,0,1,2.17.72,2.81,2.81,0,0,1,.74,2.1v4.67a6.45,6.45,0,0,0,.25,2.09v.11Zm-4.43-2.58c0,1.21.58,1.81,1.74,1.81a2.65,2.65,0,0,0,1.53-.45,2.52,2.52,0,0,0,1-1.19v-2.31h-1.55a3.11,3.11,0,0,0-2,.59,1.93,1.93,0,0,0-.68,1.55Zm9,2.58h-1v-13.5h1Zm11.49-2.35a1.4,1.4,0,0,0-.51-1.07,6.88,6.88,0,0,0-1.73-1,9.93,9.93,0,0,1-1.7-.91,2.4,2.4,0,0,1-.71-.8,2.13,2.13,0,0,1-.23-1,2.36,2.36,0,0,1,.79-1.81,2.93,2.93,0,0,1,2.05-.72,3,3,0,0,1,2.16.77,2.64,2.64,0,0,1,.81,2h-1a1.77,1.77,0,0,0-.56-1.34,2,2,0,0,0-1.44-.53,2,2,0,0,0-1.37.44,1.45,1.45,0,0,0-.5,1.14,1.21,1.21,0,0,0,.39.93,7.31,7.31,0,0,0,1.67,1,9.71,9.71,0,0,1,1.82.95,2.82,2.82,0,0,1,.76.84,2.26,2.26,0,0,1,.26,1.1,2.35,2.35,0,0,1-.82,1.87,3.25,3.25,0,0,1-2.16.69,3.32,3.32,0,0,1-2.29-.77,2.56,2.56,0,0,1-.87-2h1a1.85,1.85,0,0,0,.6,1.37,2.7,2.7,0,0,0,3,0A1.42,1.42,0,0,0,370.21,205.74Zm2.9-2.89a5.15,5.15,0,0,1,.94-3.25,3.31,3.31,0,0,1,5.08,0,5.16,5.16,0,0,1,.94,3.24v1a5.08,5.08,0,0,1-.94,3.26,3.34,3.34,0,0,1-5.05,0,5,5,0,0,1-1-3.15Zm1,1a4.44,4.44,0,0,0,.66,2.58,2.3,2.3,0,0,0,3.69,0,4.47,4.47,0,0,0,.64-2.58v-1a4.38,4.38,0,0,0-.67-2.59,2.25,2.25,0,0,0-3.64,0,4.35,4.35,0,0,0-.68,2.54Zm9.31,4.26h-1v-13.5h1ZM391.2,207a2.72,2.72,0,0,1-2.51,1.31,2.28,2.28,0,0,1-1.95-.89,4.43,4.43,0,0,1-.66-2.64v-6.15h1v6.12a3.4,3.4,0,0,0,.46,2,1.48,1.48,0,0,0,1.32.67,2.25,2.25,0,0,0,2.36-1.79v-7h1v9.51h-.95Zm5-10.8v2.43h1.62v.88h-1.62v6.32a2.32,2.32,0,0,0,.23,1.16.84.84,0,0,0,.78.38,4,4,0,0,0,.7-.09l0,.88a2.4,2.4,0,0,1-1,.15c-1.14,0-1.73-.78-1.76-2.35v-6.45h-1.47v-.88h1.47v-2.43Zm3.71-.31a.8.8,0,0,1,.17-.51.58.58,0,0,1,.48-.22.61.61,0,0,1,.48.22.8.8,0,0,1,.17.51.8.8,0,0,1-.17.5.6.6,0,0,1-.48.21.57.57,0,0,1-.48-.21A.8.8,0,0,1,399.94,195.84Zm1.13,12.25h-1v-9.51h1Zm2.32-5.24a5.15,5.15,0,0,1,.93-3.25,3.32,3.32,0,0,1,5.09,0,5.1,5.1,0,0,1,.93,3.24v1a5.08,5.08,0,0,1-.93,3.26,3.34,3.34,0,0,1-5.05,0,5,5,0,0,1-1-3.15Zm1,1a4.44,4.44,0,0,0,.66,2.58,2.29,2.29,0,0,0,3.68,0,4.46,4.46,0,0,0,.65-2.58v-1a4.45,4.45,0,0,0-.67-2.59,2.13,2.13,0,0,0-1.84-.94,2.11,2.11,0,0,0-1.8.92,4.35,4.35,0,0,0-.68,2.54Zm9.15-5.25,0,1.51a3.48,3.48,0,0,1,1.07-1.23,2.53,2.53,0,0,1,1.49-.46c1.66,0,2.51,1.11,2.55,3.32v6.37h-1v-6.27a3.24,3.24,0,0,0-.44-1.88,1.62,1.62,0,0,0-1.38-.61,2,2,0,0,0-1.38.58,3.55,3.55,0,0,0-.93,1.58v6.6h-1v-9.51Zm8.89-2.52a14.94,14.94,0,0,1,1.58,7,16.19,16.19,0,0,1-.44,3.79,12.83,12.83,0,0,1-1.24,3.27,6.34,6.34,0,0,1-1.71,2.11l-.22-.7a6.37,6.37,0,0,0,1.53-2.4,16.16,16.16,0,0,0,1.1-6.23,17.09,17.09,0,0,0-.34-3.47,14.47,14.47,0,0,0-1-3,6,6,0,0,0-1.32-2l.22-.7a6.78,6.78,0,0,1,1.81,2.33Zm8.43,12v-12.8h3.24a3.64,3.64,0,0,1,2.62.85,3.26,3.26,0,0,1,.89,2.5,3.21,3.21,0,0,1-.45,1.71,2.57,2.57,0,0,1-1.27,1.05,2.56,2.56,0,0,1,1.51,1.09,3.5,3.5,0,0,1,.57,2,3.67,3.67,0,0,1-.91,2.64,3.37,3.37,0,0,1-2.59,1Zm1-7.07h2.33a2.43,2.43,0,0,0,1.77-.61,2.37,2.37,0,0,0,.63-1.8,2.3,2.3,0,0,0-.62-1.79,2.62,2.62,0,0,0-1.87-.58h-2.24Zm0,.92v5.22h2.65a2.35,2.35,0,0,0,1.8-.71,2.74,2.74,0,0,0,.66-1.95,2.66,2.66,0,0,0-.61-1.85,2.2,2.2,0,0,0-1.7-.71Zm9.83,6.15h-1v-12.8h1Zm3.21,0v-12.8h3a4.24,4.24,0,0,1,3.3,1.33,5.4,5.4,0,0,1,1.24,3.67V203a5.42,5.42,0,0,1-1.22,3.76,4.39,4.39,0,0,1-3.44,1.36Zm1-11.85v10.92h1.94a3.37,3.37,0,0,0,2.65-1.06,4.53,4.53,0,0,0,1-3v-2.68a4.64,4.64,0,0,0-.92-3.06,3.27,3.27,0,0,0-2.66-1.09Z" fill="#4d4d4d"/>
        <path d="M252.23,237.53l.53-6.24h5.4v1h-4.57l-.36,4.29a3.05,3.05,0,0,1,2-.7,2.76,2.76,0,0,1,2.32,1.13,4.77,4.77,0,0,1,.86,3,5.13,5.13,0,0,1-.84,3.13,2.81,2.81,0,0,1-2.4,1.12,3,3,0,0,1-2.3-.94,4.17,4.17,0,0,1-1-2.6h.93a3.34,3.34,0,0,0,.73,2,2.09,2.09,0,0,0,1.63.67,1.9,1.9,0,0,0,1.69-.87,4.47,4.47,0,0,0,.58-2.46,3.74,3.74,0,0,0-.65-2.28,2,2,0,0,0-1.74-.88,2.72,2.72,0,0,0-1.09.2,2.78,2.78,0,0,0-.94.72Zm13.23-2.95,0,1.42a2.79,2.79,0,0,1,2.54-1.6,2.28,2.28,0,0,1,2.38,1.75,3.23,3.23,0,0,1,1.15-1.31,2.91,2.91,0,0,1,1.55-.44c1.71,0,2.58,1.1,2.62,3.31v6.38h-1v-6.32a3.19,3.19,0,0,0-.46-1.83,1.64,1.64,0,0,0-1.44-.61,2.09,2.09,0,0,0-1.53.71,2.8,2.8,0,0,0-.71,1.72v6.33h-1v-6.3a3,3,0,0,0-.46-1.85,1.69,1.69,0,0,0-1.43-.61,2,2,0,0,0-1.39.56,3.23,3.23,0,0,0-.85,1.58v6.62h-1v-9.51Zm12.48,4.31a5.94,5.94,0,0,1,.77-3.37A2.64,2.64,0,0,1,281,234.4a2.6,2.6,0,0,1,2.44,1.5l.06-1.32h.9v9.78a3.84,3.84,0,0,1-.82,2.62,3,3,0,0,1-2.37.9,3.57,3.57,0,0,1-1.58-.39,3.29,3.29,0,0,1-1.21-.94l.46-.7a2.93,2.93,0,0,0,2.26,1.11,2.17,2.17,0,0,0,1.73-.63,3,3,0,0,0,.55-1.92V242.9a2.64,2.64,0,0,1-2.43,1.36,2.6,2.6,0,0,1-2.27-1.11,5.61,5.61,0,0,1-.81-3.23Zm1,.89a5.08,5.08,0,0,0,.55,2.69,1.93,1.93,0,0,0,1.74.86,2.28,2.28,0,0,0,2.24-1.5V237a2.28,2.28,0,0,0-2.22-1.63,2,2,0,0,0-1.75.85,5,5,0,0,0-.56,2.64Zm12.05-.86a15.63,15.63,0,0,1,.46-3.83,13.58,13.58,0,0,1,1.26-3.29,6.45,6.45,0,0,1,1.67-2.07l.23.74a6,6,0,0,0-1.33,1.92,13,13,0,0,0-1,3,18.56,18.56,0,0,0-.34,3.7,17.39,17.39,0,0,0,.34,3.5,13.54,13.54,0,0,0,1,3,6,6,0,0,0,1.33,2l-.23.7a5.51,5.51,0,0,1-1.21-1.3,9.87,9.87,0,0,1-1.1-2.08,14,14,0,0,1-.78-2.65A16.12,16.12,0,0,1,291,238.92Zm5-.07a5.15,5.15,0,0,1,.93-3.25,3.31,3.31,0,0,1,5.08,0,5.16,5.16,0,0,1,.94,3.24v1a5,5,0,0,1-.94,3.26,3.34,3.34,0,0,1-5,0,5,5,0,0,1-1-3.15Zm1,1a4.44,4.44,0,0,0,.66,2.58,2.3,2.3,0,0,0,3.69,0,4.47,4.47,0,0,0,.64-2.58v-1a4.38,4.38,0,0,0-.67-2.59,2.25,2.25,0,0,0-3.64,0,4.35,4.35,0,0,0-.68,2.54Zm9.15-5.25,0,1.51a3.41,3.41,0,0,1,1.08-1.23,2.48,2.48,0,0,1,1.49-.46c1.65,0,2.5,1.11,2.55,3.32v6.37h-1v-6.27a3.31,3.31,0,0,0-.45-1.88,1.59,1.59,0,0,0-1.38-.61,2,2,0,0,0-1.38.58,3.64,3.64,0,0,0-.92,1.58v6.6h-1v-9.51Zm13.7,8.41a3.74,3.74,0,0,1-5.46.17,4.69,4.69,0,0,1-1-3.12v-1.16a5.29,5.29,0,0,1,.92-3.29,3,3,0,0,1,2.51-1.19,2.86,2.86,0,0,1,2.36,1,5,5,0,0,1,.83,3.1v.91h-5.65V240a4,4,0,0,0,.7,2.52,2.36,2.36,0,0,0,2,.89,2.86,2.86,0,0,0,2.28-1l.51.65Zm-.78-4.74c-.05-2-.79-2.93-2.22-2.93a2.09,2.09,0,0,0-1.77.81,4.16,4.16,0,0,0-.68,2.38H319v-.26Zm7.57-.72.53-6.24h5.4v1h-4.57l-.36,4.29a3.05,3.05,0,0,1,2-.7,2.76,2.76,0,0,1,2.32,1.13,4.77,4.77,0,0,1,.86,3,5.13,5.13,0,0,1-.84,3.13,2.82,2.82,0,0,1-2.4,1.12,3,3,0,0,1-2.3-.94,4.17,4.17,0,0,1-1-2.6h.93a3.34,3.34,0,0,0,.73,2,2.09,2.09,0,0,0,1.63.67,1.9,1.9,0,0,0,1.69-.87,4.47,4.47,0,0,0,.58-2.46,3.74,3.74,0,0,0-.65-2.28,2,2,0,0,0-1.75-.88,2.7,2.7,0,0,0-1.08.2,2.78,2.78,0,0,0-.94.72Zm13.23-2.95,0,1.42a2.79,2.79,0,0,1,2.54-1.6,2.28,2.28,0,0,1,2.38,1.75,3.23,3.23,0,0,1,1.15-1.31,2.91,2.91,0,0,1,1.55-.44c1.71,0,2.58,1.1,2.62,3.31v6.38h-1v-6.32a3.19,3.19,0,0,0-.46-1.83,1.64,1.64,0,0,0-1.44-.61,2.09,2.09,0,0,0-1.53.71,2.8,2.8,0,0,0-.71,1.72v6.33h-1v-6.3a3,3,0,0,0-.46-1.85,1.69,1.69,0,0,0-1.43-.61,2,2,0,0,0-1.39.56,3.23,3.23,0,0,0-.85,1.58v6.62h-1v-9.51Zm12.48,4.31a5.94,5.94,0,0,1,.77-3.37,2.64,2.64,0,0,1,2.32-1.12,2.6,2.6,0,0,1,2.44,1.5l.06-1.32h.9v9.78A3.84,3.84,0,0,1,358,247a3,3,0,0,1-2.37.9,3.57,3.57,0,0,1-1.58-.39,3.29,3.29,0,0,1-1.21-.94l.46-.7a2.93,2.93,0,0,0,2.26,1.11,2.17,2.17,0,0,0,1.73-.63,3,3,0,0,0,.55-1.92V242.9a2.64,2.64,0,0,1-2.43,1.36,2.6,2.6,0,0,1-2.27-1.11,5.61,5.61,0,0,1-.81-3.23Zm1,.89a5.08,5.08,0,0,0,.55,2.69,1.93,1.93,0,0,0,1.74.86,2.28,2.28,0,0,0,2.24-1.5V237a2.28,2.28,0,0,0-2.22-1.63,2,2,0,0,0-1.75.85,5,5,0,0,0-.56,2.64Zm13.62-7.63v2.43h1.63v.88h-1.63v6.32a2.21,2.21,0,0,0,.24,1.16.81.81,0,0,0,.77.38,4.09,4.09,0,0,0,.71-.09l0,.88a2.38,2.38,0,0,1-.95.15c-1.15,0-1.73-.78-1.76-2.35v-6.45h-1.47v-.88h1.47v-2.43Zm8.78,11.94a7,7,0,0,1-.17-1.32,3.21,3.21,0,0,1-1.13,1.1,3,3,0,0,1-1.5.39,2.6,2.6,0,0,1-1.92-.69,2.72,2.72,0,0,1-.68-2,2.77,2.77,0,0,1,.95-2.21,4,4,0,0,1,2.63-.83h1.64v-1.33a1.85,1.85,0,0,0-.51-1.46,2.15,2.15,0,0,0-1.48-.44,2.11,2.11,0,0,0-1.48.52,1.75,1.75,0,0,0-.58,1.37h-1a2.61,2.61,0,0,1,.88-2,3.14,3.14,0,0,1,2.21-.81,3,3,0,0,1,2.17.72,2.81,2.81,0,0,1,.74,2.1v4.67a6.45,6.45,0,0,0,.25,2.09v.11Zm-4.42-2.58c0,1.21.58,1.81,1.74,1.81a2.67,2.67,0,0,0,1.53-.45,2.58,2.58,0,0,0,1-1.19v-2.31h-1.55a3.11,3.11,0,0,0-2,.59,1.93,1.93,0,0,0-.68,1.55Zm14.37-1.73a6,6,0,0,1-.77,3.34,2.58,2.58,0,0,1-2.29,1.14,2.66,2.66,0,0,1-2.49-1.45l0,1.28h-.91v-13.5h1v5.31a2.85,2.85,0,0,1,4.75-.41,5.85,5.85,0,0,1,.78,3.24Zm-1-.89a5.34,5.34,0,0,0-.53-2.68,1.92,1.92,0,0,0-1.76-.87,2.29,2.29,0,0,0-2.26,1.72v4.71a2.46,2.46,0,0,0,.88,1.15,2.32,2.32,0,0,0,1.4.41,1.9,1.9,0,0,0,1.72-.85,5,5,0,0,0,.55-2.64Zm4.32,5.2h-1v-13.5h1Zm8.66-1.1a3.74,3.74,0,0,1-5.46.17,4.75,4.75,0,0,1-1-3.12v-1.16a5.29,5.29,0,0,1,.92-3.29,3,3,0,0,1,2.51-1.19,2.86,2.86,0,0,1,2.36,1,5,5,0,0,1,.83,3.1v.91h-5.65V240a4,4,0,0,0,.7,2.52,2.37,2.37,0,0,0,2,.89,2.86,2.86,0,0,0,2.28-1l.51.65Zm-.78-4.74c-.05-2-.79-2.93-2.22-2.93a2.09,2.09,0,0,0-1.77.81,4.16,4.16,0,0,0-.68,2.38h4.67v-.26Zm4.52-6.1v2.43H403v.88h-1.63v6.32a2.21,2.21,0,0,0,.24,1.16.81.81,0,0,0,.77.38,4.09,4.09,0,0,0,.71-.09l0,.88a2.38,2.38,0,0,1-.95.15c-1.15,0-1.73-.78-1.76-2.35v-6.45h-1.47v-.88h1.47v-2.43Zm7.44,6.7a5.15,5.15,0,0,1,.93-3.25,3.31,3.31,0,0,1,5.08,0,5.16,5.16,0,0,1,.94,3.24v1a5,5,0,0,1-.94,3.26,3,3,0,0,1-2.52,1.17,3.1,3.1,0,0,1-2.53-1.14,5,5,0,0,1-1-3.15Zm1,1a4.44,4.44,0,0,0,.66,2.58,2.14,2.14,0,0,0,1.85.94,2.11,2.11,0,0,0,1.84-.91,4.47,4.47,0,0,0,.64-2.58v-1a4.45,4.45,0,0,0-.66-2.59,2.13,2.13,0,0,0-1.84-.94,2.08,2.08,0,0,0-1.8.92,4.28,4.28,0,0,0-.69,2.54Zm12-4.34a3.69,3.69,0,0,0-.62-.06,1.82,1.82,0,0,0-1.35.55,3.13,3.13,0,0,0-.78,1.54v6.57h-1v-9.51h1l0,1.42a2.3,2.3,0,0,1,2.18-1.6,1.18,1.18,0,0,1,.59.12Zm6.23,2,.52-6.24h5.41v1h-4.57l-.36,4.29a3,3,0,0,1,2-.7,2.78,2.78,0,0,1,2.33,1.13,4.84,4.84,0,0,1,.86,3,5.06,5.06,0,0,1-.85,3.13,2.81,2.81,0,0,1-2.4,1.12,3,3,0,0,1-2.29-.94,4.05,4.05,0,0,1-1-2.6h.93a3.28,3.28,0,0,0,.73,2,2.05,2.05,0,0,0,1.62.67,1.91,1.91,0,0,0,1.7-.87,4.48,4.48,0,0,0,.57-2.46,3.73,3.73,0,0,0-.64-2.28,2.07,2.07,0,0,0-1.75-.88,2.79,2.79,0,0,0-1.09.2,2.86,2.86,0,0,0-.93.72Zm13.22-2.95,0,1.42a2.79,2.79,0,0,1,2.55-1.6,2.27,2.27,0,0,1,2.37,1.75,3.25,3.25,0,0,1,1.16-1.31,2.87,2.87,0,0,1,1.54-.44c1.71,0,2.59,1.1,2.63,3.31v6.38h-1v-6.32a3.19,3.19,0,0,0-.45-1.83,1.67,1.67,0,0,0-1.45-.61,2,2,0,0,0-1.52.71,2.81,2.81,0,0,0-.72,1.72v6.33h-1v-6.3a3,3,0,0,0-.46-1.85,1.71,1.71,0,0,0-1.44-.61,1.94,1.94,0,0,0-1.38.56,3.16,3.16,0,0,0-.85,1.58v6.62h-1v-9.51Zm14.05,8.58h5.27v.93H454.2v-12.8h1ZM466,238.85a5.15,5.15,0,0,1,.93-3.25,3.31,3.31,0,0,1,5.08,0,5.16,5.16,0,0,1,.94,3.24v1a5,5,0,0,1-.94,3.26,3,3,0,0,1-2.52,1.17,3.1,3.1,0,0,1-2.53-1.14,5,5,0,0,1-1-3.15Zm1,1a4.44,4.44,0,0,0,.66,2.58,2.14,2.14,0,0,0,1.85.94,2.11,2.11,0,0,0,1.84-.91,4.47,4.47,0,0,0,.64-2.58v-1a4.45,4.45,0,0,0-.66-2.59,2.13,2.13,0,0,0-1.84-.94,2.08,2.08,0,0,0-1.8.92,4.28,4.28,0,0,0-.69,2.54ZM479,235.49a3.67,3.67,0,0,0-.61-.06A1.82,1.82,0,0,0,477,236a3.13,3.13,0,0,0-.78,1.54v6.57h-1v-9.51h1l0,1.42a2.3,2.3,0,0,1,2.18-1.6,1.18,1.18,0,0,1,.59.12Zm6.36,8.6a6.15,6.15,0,0,1-.18-1.32,3.13,3.13,0,0,1-1.13,1.1,3,3,0,0,1-1.5.39,2.56,2.56,0,0,1-1.91-.69,2.68,2.68,0,0,1-.69-2,2.77,2.77,0,0,1,.95-2.21,4,4,0,0,1,2.64-.83h1.63v-1.33a1.88,1.88,0,0,0-.5-1.46,2.17,2.17,0,0,0-1.49-.44,2.12,2.12,0,0,0-1.48.52,1.75,1.75,0,0,0-.58,1.37h-1a2.65,2.65,0,0,1,.88-2,3.14,3.14,0,0,1,2.21-.81,3,3,0,0,1,2.17.72,2.81,2.81,0,0,1,.74,2.1v4.67a6.45,6.45,0,0,0,.25,2.09v.11Zm-4.43-2.58c0,1.21.58,1.81,1.74,1.81a2.65,2.65,0,0,0,1.53-.45,2.52,2.52,0,0,0,1-1.19v-2.31h-1.55a3.11,3.11,0,0,0-2,.59,1.93,1.93,0,0,0-.68,1.55Zm9,2.58h-1v-13.5h1Zm11.49-2.35a1.4,1.4,0,0,0-.51-1.07,6.88,6.88,0,0,0-1.73-1,9.93,9.93,0,0,1-1.7-.91,2.4,2.4,0,0,1-.71-.8,2.13,2.13,0,0,1-.23-1,2.36,2.36,0,0,1,.79-1.81,2.93,2.93,0,0,1,2.05-.72,3,3,0,0,1,2.16.77,2.64,2.64,0,0,1,.81,2h-1a1.77,1.77,0,0,0-.56-1.34,2.27,2.27,0,0,0-2.8-.09,1.43,1.43,0,0,0-.51,1.14,1.21,1.21,0,0,0,.39.93,7.31,7.31,0,0,0,1.67,1,9.71,9.71,0,0,1,1.82.95,2.82,2.82,0,0,1,.76.84,2.26,2.26,0,0,1,.26,1.1,2.35,2.35,0,0,1-.82,1.87,3.24,3.24,0,0,1-2.16.69,3.28,3.28,0,0,1-2.28-.77,2.53,2.53,0,0,1-.88-2h1a1.81,1.81,0,0,0,.59,1.37,2.7,2.7,0,0,0,3,0A1.42,1.42,0,0,0,501.35,241.74Zm2.91-2.89a5.15,5.15,0,0,1,.93-3.25,3.31,3.31,0,0,1,5.08,0,5.16,5.16,0,0,1,.94,3.24v1a5,5,0,0,1-.94,3.26,3.34,3.34,0,0,1-5,0,5,5,0,0,1-1-3.15Zm1,1a4.44,4.44,0,0,0,.66,2.58,2.3,2.3,0,0,0,3.69,0,4.47,4.47,0,0,0,.64-2.58v-1a4.38,4.38,0,0,0-.67-2.59,2.11,2.11,0,0,0-1.83-.94,2.08,2.08,0,0,0-1.8.92,4.28,4.28,0,0,0-.69,2.54Zm9.31,4.26h-1v-13.5h1Zm7.79-1.14a2.72,2.72,0,0,1-2.5,1.31,2.29,2.29,0,0,1-2-.89,4.43,4.43,0,0,1-.66-2.64v-6.15h1v6.12a3.48,3.48,0,0,0,.46,2,1.48,1.48,0,0,0,1.32.67,2.25,2.25,0,0,0,2.36-1.79v-7h1v9.51h-.95Zm5-10.8v2.43H529v.88h-1.62v6.32a2.32,2.32,0,0,0,.23,1.16.84.84,0,0,0,.78.38,4,4,0,0,0,.7-.09l0,.88a2.4,2.4,0,0,1-1,.15c-1.14,0-1.73-.78-1.76-2.35v-6.45h-1.47v-.88h1.47v-2.43Zm3.72-.31a.8.8,0,0,1,.16-.51.58.58,0,0,1,.48-.22.61.61,0,0,1,.48.22.8.8,0,0,1,.17.51.8.8,0,0,1-.17.5.6.6,0,0,1-.48.21.57.57,0,0,1-.48-.21A.79.79,0,0,1,531.09,231.84Zm1.12,12.25h-1v-9.51h1Zm2.32-5.24a5.15,5.15,0,0,1,.93-3.25,3.32,3.32,0,0,1,5.09,0,5.1,5.1,0,0,1,.93,3.24v1a5.08,5.08,0,0,1-.93,3.26,3.34,3.34,0,0,1-5,0,5,5,0,0,1-1-3.15Zm1,1a4.44,4.44,0,0,0,.66,2.58,2.12,2.12,0,0,0,1.84.94,2.1,2.1,0,0,0,1.84-.91,4.46,4.46,0,0,0,.65-2.58v-1a4.38,4.38,0,0,0-.67-2.59,2.13,2.13,0,0,0-1.84-.94,2.11,2.11,0,0,0-1.8.92,4.35,4.35,0,0,0-.68,2.54Zm9.15-5.25,0,1.51a3.48,3.48,0,0,1,1.07-1.23,2.53,2.53,0,0,1,1.49-.46c1.66,0,2.51,1.11,2.55,3.32v6.37h-1v-6.27a3.24,3.24,0,0,0-.44-1.88,1.62,1.62,0,0,0-1.38-.61,2,2,0,0,0-1.38.58,3.55,3.55,0,0,0-.93,1.58v6.6h-1v-9.51Z" fill="#4d4d4d"/>
        <path d="M555.66,235.58a3.56,3.56,0,0,1-.44,1.95,1.53,1.53,0,0,1-1.34.67,1.56,1.56,0,0,1-1.45-.85l0,.74h-.52v-7.87h.56v3.1a1.67,1.67,0,0,1,2.77-.24,3.42,3.42,0,0,1,.45,1.89Zm-.57-.51a3.06,3.06,0,0,0-.31-1.57,1.11,1.11,0,0,0-1-.51,1.35,1.35,0,0,0-1.32,1v2.75a1.47,1.47,0,0,0,.51.67,1.39,1.39,0,0,0,.82.24,1.1,1.1,0,0,0,1-.49,2.92,2.92,0,0,0,.32-1.54Z" fill="#4d4d4d"/>
        <path d="M558.68,232.06a14.82,14.82,0,0,1,1.58,7,16.19,16.19,0,0,1-.43,3.79,12.83,12.83,0,0,1-1.24,3.27,6.36,6.36,0,0,1-1.72,2.11l-.22-.7a6.26,6.26,0,0,0,1.54-2.4,16.35,16.35,0,0,0,1.1-6.23,17.09,17.09,0,0,0-.35-3.47,13.9,13.9,0,0,0-1-3,6.05,6.05,0,0,0-1.33-2l.22-.7a6.66,6.66,0,0,1,1.81,2.33Zm8.43,12v-12.8h3.25a3.66,3.66,0,0,1,2.62.85,3.3,3.3,0,0,1,.89,2.5,3.13,3.13,0,0,1-.46,1.71,2.5,2.5,0,0,1-1.26,1.05,2.56,2.56,0,0,1,1.51,1.09,3.5,3.5,0,0,1,.57,2,3.67,3.67,0,0,1-.91,2.64,3.39,3.39,0,0,1-2.6,1Zm1-7.07h2.33a2.45,2.45,0,0,0,1.78-.61,2.37,2.37,0,0,0,.63-1.8,2.34,2.34,0,0,0-.62-1.79,2.64,2.64,0,0,0-1.87-.58h-2.25Zm0,.92v5.22h2.66a2.35,2.35,0,0,0,1.8-.71,2.74,2.74,0,0,0,.66-1.95,2.66,2.66,0,0,0-.61-1.85,2.21,2.21,0,0,0-1.7-.71Zm9.84,6.15h-1v-12.8h1Zm3.2,0v-12.8h3a4.22,4.22,0,0,1,3.29,1.33,5.35,5.35,0,0,1,1.25,3.67V239a5.37,5.37,0,0,1-1.23,3.76,4.37,4.37,0,0,1-3.44,1.36Zm1-11.85v10.92h2a3.38,3.38,0,0,0,2.65-1.06,4.53,4.53,0,0,0,1-3v-2.68a4.64,4.64,0,0,0-.92-3.06,3.27,3.27,0,0,0-2.66-1.09Z" fill="#4d4d4d"/>
      </g>
    </g>
  </g>
</svg>
