<svg xmlns="http://www.w3.org/2000/svg" xmlns:xlink="http://www.w3.org/1999/xlink" width="503.91" height="297.95" viewBox="0 0 503.91 297.95">
  <defs>
    <clipPath id="clip-path" transform="translate(0 0)">
      <rect width="503.91" height="39.17" fill="none"/>
    </clipPath>
    <clipPath id="clip-path-2" transform="translate(0 0)">
      <rect y="72.54" width="503.91" height="39.17" fill="none"/>
    </clipPath>
    <clipPath id="clip-path-3" transform="translate(0 0)">
      <rect y="145.09" width="503.91" height="39.17" fill="none"/>
    </clipPath>
    <clipPath id="clip-path-4" transform="translate(0 0)">
      <rect y="222.72" width="503.91" height="75.23" fill="none"/>
    </clipPath>
  </defs>
  <g id="Layer_2" data-name="Layer 2">
    <g id="Layer_1-2" data-name="Layer 1">
      <g>
        <g>
          <g opacity="0.7">
            <g clip-path="url(#clip-path)">
              <rect width="503.91" height="39.17" fill="#41aef2"/>
            </g>
          </g>
          <g opacity="0.3">
            <g clip-path="url(#clip-path-2)">
              <rect y="72.54" width="503.91" height="39.17" fill="#41aef2"/>
            </g>
          </g>
          <g opacity="0.3">
            <g clip-path="url(#clip-path-3)">
              <rect y="145.09" width="503.91" height="39.17" fill="#41aef2"/>
            </g>
          </g>
          <g opacity="0.3">
            <g clip-path="url(#clip-path-4)">
              <rect y="222.72" width="503.91" height="75.23" fill="#41aef2"/>
            </g>
          </g>
        </g>
        <g>
          <path d="M39.56,28.09V15.29h3.95a4.6,4.6,0,0,1,3.05.89,3.28,3.28,0,0,1,1,2.62,3.13,3.13,0,0,1-.43,1.68,2.55,2.55,0,0,1-1.18,1,2.27,2.27,0,0,1,1.33,1,3.42,3.42,0,0,1,.47,1.84,3.66,3.66,0,0,1-1,2.81,4.22,4.22,0,0,1-3,.95Zm2.58-7.45h1.35A1.37,1.37,0,0,0,45,19.07a1.83,1.83,0,0,0-.35-1.25,1.53,1.53,0,0,0-1.15-.38H42.14Zm0,1.88v3.42h1.65a1.29,1.29,0,0,0,1.06-.43,1.85,1.85,0,0,0,.36-1.22c0-1.15-.42-1.74-1.25-1.77Z" transform="translate(0 0)" fill="#fff"/>
          <path d="M49.24,23a5.16,5.16,0,0,1,1-3.39,3.87,3.87,0,0,1,5.66,0,5.2,5.2,0,0,1,1,3.41v.61a5.12,5.12,0,0,1-1,3.39,3.44,3.44,0,0,1-2.83,1.22A3.5,3.5,0,0,1,50.26,27a5.2,5.2,0,0,1-1-3.41Zm2.5.63c0,1.7.45,2.55,1.36,2.55s1.29-.71,1.36-2.13V23a4,4,0,0,0-.36-1.92,1.12,1.12,0,0,0-1-.63,1.08,1.08,0,0,0-1,.63A4,4,0,0,0,51.74,23Z" transform="translate(0 0)" fill="#fff"/>
          <path d="M58.16,23A6.19,6.19,0,0,1,59,19.55a2.62,2.62,0,0,1,2.3-1.15,2.24,2.24,0,0,1,1.83,1V14.59h2.5v13.5H63.32l-.11-1a2.3,2.3,0,0,1-2,1.14A2.6,2.6,0,0,1,59,27.12a6,6,0,0,1-.8-3.36Zm2.49.63a4.52,4.52,0,0,0,.3,2,1.06,1.06,0,0,0,1,.56,1.22,1.22,0,0,0,1.12-.66V21.19A1.2,1.2,0,0,0,62,20.48,1.07,1.07,0,0,0,61,21a4.3,4.3,0,0,0-.32,2Z" transform="translate(0 0)" fill="#fff"/>
          <path d="M70.46,24l1.27-5.37h2.65L71.25,29.51c-.47,1.61-1.35,2.42-2.64,2.42a3.74,3.74,0,0,1-1-.17V29.82h.29a1.43,1.43,0,0,0,.87-.23,1.4,1.4,0,0,0,.45-.77l.19-.65-2.74-9.6h2.67Z" transform="translate(0 0)" fill="#fff"/>
          <path d="M88,23.33l1.21-8H91.8l-2.28,12.8H86.93l-1.49-7.54L84,28.09h-2.6l-2.29-12.8h2.58l1.2,8,1.51-8h2.17Z" transform="translate(0 0)" fill="#fff"/>
          <path d="M96.65,28.26a3.9,3.9,0,0,1-3-1.14,4.57,4.57,0,0,1-1.07-3.27V23.1a5.42,5.42,0,0,1,1-3.48,3.43,3.43,0,0,1,2.82-1.22,3.21,3.21,0,0,1,2.7,1.15,5.46,5.46,0,0,1,.92,3.39v1.22h-5a2.61,2.61,0,0,0,.47,1.55,1.6,1.6,0,0,0,1.27.49,2.83,2.83,0,0,0,2.09-.85l1,1.5a3.16,3.16,0,0,1-1.32,1A4.57,4.57,0,0,1,96.65,28.26Zm-1.57-5.83h2.49V22.2a2.68,2.68,0,0,0-.28-1.29,1,1,0,0,0-.92-.44,1,1,0,0,0-.94.46A3.23,3.23,0,0,0,95.08,22.43Z" transform="translate(0 0)" fill="#fff"/>
          <path d="M101.42,16.12a1.26,1.26,0,0,1,.37-1,1.3,1.3,0,0,1,1-.37,1.34,1.34,0,0,1,1,.37,1.3,1.3,0,0,1,.37,1,1.35,1.35,0,0,1-.37.95,1.3,1.3,0,0,1-1,.37,1.26,1.26,0,0,1-1.35-1.32Zm2.61,12h-2.5V18.58H104Z" transform="translate(0 0)" fill="#fff"/>
          <path d="M105.66,23a5.93,5.93,0,0,1,.84-3.49,2.77,2.77,0,0,1,2.36-1.15,2.29,2.29,0,0,1,2,1l.1-.84h2.24v9.51a3.64,3.64,0,0,1-1,2.78,4.12,4.12,0,0,1-2.93,1,4.74,4.74,0,0,1-1.64-.31,3,3,0,0,1-1.29-.8l.84-1.72a2.49,2.49,0,0,0,.91.6,2.74,2.74,0,0,0,1.07.24,1.6,1.6,0,0,0,1.2-.4,2,2,0,0,0,.37-1.29v-.82a2.23,2.23,0,0,1-1.86.93,2.71,2.71,0,0,1-2.35-1.18,5.85,5.85,0,0,1-.84-3.33Zm2.48.63a4,4,0,0,0,.35,1.92,1.15,1.15,0,0,0,1.09.6,1.3,1.3,0,0,0,1.13-.55V21.09a1.26,1.26,0,0,0-1.12-.61,1.19,1.19,0,0,0-1.09.61,4,4,0,0,0-.36,1.95Z" transform="translate(0 0)" fill="#fff"/>
          <path d="M117.43,19.41a2.47,2.47,0,0,1,2-1,2.31,2.31,0,0,1,2,.92,4.54,4.54,0,0,1,.68,2.72v6.05h-2.49v-6a2.19,2.19,0,0,0-.26-1.21,1,1,0,0,0-.84-.38,1.18,1.18,0,0,0-1.06.63v7H115V14.59h2.48Z" transform="translate(0 0)" fill="#fff"/>
          <path d="M126.76,16.24v2.34H128v1.86h-1.27v4.73a1.42,1.42,0,0,0,.15.77.69.69,0,0,0,.59.21,2.32,2.32,0,0,0,.59-.06V28a4.1,4.1,0,0,1-1.37.23c-1.61,0-2.42-.92-2.44-2.76V20.44h-1.1V18.58h1.1V16.24Z" transform="translate(0 0)" fill="#fff"/>
          <path d="M133.69,22.88a15.65,15.65,0,0,1,.46-3.78,11.06,11.06,0,0,1,1.38-3.23,5.54,5.54,0,0,1,2-2l.46,1.37a6.5,6.5,0,0,0-1.57,2.86,16.15,16.15,0,0,0-.61,4.47v.52a17,17,0,0,0,.58,4.64,6.55,6.55,0,0,0,1.6,3l-.46,1.36a5.55,5.55,0,0,1-1.95-2A10.63,10.63,0,0,1,134.18,27a15.17,15.17,0,0,1-.49-3.72Z" transform="translate(0 0)" fill="#fff"/>
          <path d="M142.52,24.42l-.67.75v2.92h-2.49V14.59h2.49v7.29l.31-.45,1.72-2.85h3l-2.76,3.92,3,5.59h-2.84Z" transform="translate(0 0)" fill="#fff"/>
          <path d="M147.51,23a5.85,5.85,0,0,1,.85-3.49,2.77,2.77,0,0,1,2.36-1.15,2.29,2.29,0,0,1,2,1l.09-.84h2.24v9.51a3.67,3.67,0,0,1-1,2.78,4.12,4.12,0,0,1-2.93,1,4.84,4.84,0,0,1-1.65-.31,3,3,0,0,1-1.28-.8L149,29a2.49,2.49,0,0,0,.91.6,2.73,2.73,0,0,0,1.06.24,1.57,1.57,0,0,0,1.2-.4,1.91,1.91,0,0,0,.38-1.29v-.82a2.25,2.25,0,0,1-1.86.93,2.71,2.71,0,0,1-2.35-1.18,5.92,5.92,0,0,1-.85-3.33Zm2.49.63a4.16,4.16,0,0,0,.34,1.92,1.17,1.17,0,0,0,1.09.6,1.3,1.3,0,0,0,1.14-.55V21.09a1.26,1.26,0,0,0-1.12-.61,1.18,1.18,0,0,0-1.09.61A4,4,0,0,0,150,23Z" transform="translate(0 0)" fill="#fff"/>
          <path d="M160.85,23.1a14,14,0,0,1-.53,3.87,11.25,11.25,0,0,1-1.45,3.21,5.59,5.59,0,0,1-2,1.91l-.46-1.36A6.43,6.43,0,0,0,158,27.8a16,16,0,0,0,.6-4.47v-.46a16.88,16.88,0,0,0-.57-4.58,6.92,6.92,0,0,0-1.61-3l.46-1.36A4.78,4.78,0,0,1,158.29,15a8.71,8.71,0,0,1,1.28,2,13.5,13.5,0,0,1,.93,2.65A15.18,15.18,0,0,1,160.85,23.1Z" transform="translate(0 0)" fill="#fff"/>
        </g>
        <path d="M80,57.53l.53-6.24h5.4v1H81.33L81,56.58a3,3,0,0,1,2-.7A2.73,2.73,0,0,1,85.27,57a4.84,4.84,0,0,1,.86,3,5.13,5.13,0,0,1-.84,3.13,2.84,2.84,0,0,1-2.4,1.12,3,3,0,0,1-2.3-.94,4.17,4.17,0,0,1-1-2.6h.93a3.34,3.34,0,0,0,.73,2,2.09,2.09,0,0,0,1.63.67,1.91,1.91,0,0,0,1.69-.87A4.48,4.48,0,0,0,85.15,60a3.73,3.73,0,0,0-.64-2.28,2,2,0,0,0-1.75-.88,2.79,2.79,0,0,0-1.09.2,2.86,2.86,0,0,0-.93.72Z" transform="translate(0 0)" fill="#4d4d4d"/>
        <path d="M99.77,58.07H92.38v-.92h7.39Z" transform="translate(0 0)" fill="#4d4d4d"/>
        <g>
          <path d="M107,58.33,112.08,61v1.13L106,58.75v-.87l6.09-3.32v1.13Z" transform="translate(0 0)" fill="#4d4d4d"/>
          <path d="M121.17,51.91,116.6,64.09h-1l4.55-11.89h-6.06v-.91h7.1Z" transform="translate(0 0)" fill="#4d4d4d"/>
        </g>
        <path d="M81.68,87.91l-4.57,12.18h-1L80.63,88.2h-6v-.91h7.1Z" transform="translate(0 0)" fill="#4d4d4d"/>
        <path d="M95.4,94.07H88v-.92h7.4Z" transform="translate(0 0)" fill="#4d4d4d"/>
        <g>
          <path d="M102.64,94.33,107.7,97v1.13l-6.09-3.33v-.87l6.09-3.32v1.13Z" transform="translate(0 0)" fill="#4d4d4d"/>
          <path d="M114.3,100.09h-1V88.58l-2.89,1.29v-1l3.71-1.62h.16Z" transform="translate(0 0)" fill="#4d4d4d"/>
          <path d="M125.41,94.74a8.28,8.28,0,0,1-.84,4.13,2.89,2.89,0,0,1-4.94,0,7.84,7.84,0,0,1-.87-4V92.6a8.06,8.06,0,0,1,.84-4.08,2.69,2.69,0,0,1,2.47-1.41,2.76,2.76,0,0,1,2.47,1.36,7.8,7.8,0,0,1,.87,4Zm-1-2.29a7.38,7.38,0,0,0-.58-3.31A1.89,1.89,0,0,0,122.07,88a1.86,1.86,0,0,0-1.72,1.07,6.84,6.84,0,0,0-.62,3.17v2.59a7.46,7.46,0,0,0,.6,3.32,1.9,1.9,0,0,0,1.76,1.17,1.86,1.86,0,0,0,1.72-1.11,7.15,7.15,0,0,0,.61-3.26Z" transform="translate(0 0)" fill="#4d4d4d"/>
        </g>
        <g>
          <path d="M74.81,136.09h-1V124.58l-2.89,1.29v-1l3.71-1.62h.17Z" transform="translate(0 0)" fill="#4d4d4d"/>
          <path d="M85.91,130.74a8.17,8.17,0,0,1-.84,4.13,2.89,2.89,0,0,1-4.94,0,7.84,7.84,0,0,1-.87-4V128.6a8.06,8.06,0,0,1,.84-4.08,2.7,2.7,0,0,1,2.48-1.41A2.75,2.75,0,0,1,85,124.47a7.8,7.8,0,0,1,.87,4Zm-1-2.29a7.38,7.38,0,0,0-.58-3.31,1.94,1.94,0,0,0-3.49,0,6.84,6.84,0,0,0-.62,3.17v2.59a7.46,7.46,0,0,0,.6,3.32,1.9,1.9,0,0,0,1.76,1.17,1.86,1.86,0,0,0,1.72-1.11,7.15,7.15,0,0,0,.61-3.26Z" transform="translate(0 0)" fill="#4d4d4d"/>
        </g>
        <path d="M99.77,130.07H92.38v-.92h7.39Z" transform="translate(0 0)" fill="#4d4d4d"/>
        <g>
          <path d="M107,130.33l5.06,2.62v1.13L106,130.75v-.87l6.09-3.32v1.13Z" transform="translate(0 0)" fill="#4d4d4d"/>
          <path d="M118.68,136.09h-1V124.58l-2.89,1.29v-1l3.71-1.62h.17Z" transform="translate(0 0)" fill="#4d4d4d"/>
          <path d="M123.85,129.53l.52-6.24h5.41v1h-4.57l-.36,4.29a3,3,0,0,1,2-.7,2.75,2.75,0,0,1,2.32,1.13,4.84,4.84,0,0,1,.86,3,5.06,5.06,0,0,1-.85,3.13,2.81,2.81,0,0,1-2.4,1.12,3,3,0,0,1-2.29-.94,4.05,4.05,0,0,1-1-2.6h.93a3.28,3.28,0,0,0,.73,2,2.05,2.05,0,0,0,1.62.67,1.91,1.91,0,0,0,1.7-.87A4.48,4.48,0,0,0,129,132a3.73,3.73,0,0,0-.64-2.28,2.06,2.06,0,0,0-1.75-.88,2.79,2.79,0,0,0-1.09.2,2.86,2.86,0,0,0-.93.72Z" transform="translate(0 0)" fill="#4d4d4d"/>
        </g>
        <g>
          <path d="M74.81,172.09h-1V160.58l-2.89,1.29v-1l3.71-1.62h.17Z" transform="translate(0 0)" fill="#4d4d4d"/>
          <path d="M80,165.53l.53-6.24h5.41v1H81.34L81,164.58a3,3,0,0,1,2-.7A2.75,2.75,0,0,1,85.28,165a4.84,4.84,0,0,1,.86,3,5.13,5.13,0,0,1-.85,3.13,2.81,2.81,0,0,1-2.4,1.12,3,3,0,0,1-2.29-.94,4.05,4.05,0,0,1-1-2.6h.93a3.28,3.28,0,0,0,.73,2,2.05,2.05,0,0,0,1.62.67,1.89,1.89,0,0,0,1.69-.87,4.39,4.39,0,0,0,.58-2.46,3.74,3.74,0,0,0-.65-2.28,2,2,0,0,0-1.74-.88,2.42,2.42,0,0,0-2,.92Z" transform="translate(0 0)" fill="#4d4d4d"/>
        </g>
        <path d="M99.77,166.07H92.38v-.92h7.39Z" transform="translate(0 0)" fill="#4d4d4d"/>
        <g>
          <path d="M107,166.33l5.06,2.62v1.13L106,166.75v-.87l6.09-3.32v1.13Z" transform="translate(0 0)" fill="#4d4d4d"/>
          <path d="M121.28,172.09H114.5v-.84l3.63-4.9a11.65,11.65,0,0,0,1.28-2.09,4,4,0,0,0,.36-1.61,2.9,2.9,0,0,0-.58-1.91,1.91,1.91,0,0,0-1.59-.71,2.05,2.05,0,0,0-1.72.82,3.36,3.36,0,0,0-.65,2.13h-1a4.21,4.21,0,0,1,.92-2.77,3.29,3.29,0,0,1,4.73-.19,3.55,3.55,0,0,1,.85,2.53,6.73,6.73,0,0,1-1.39,3.6l-.56.8-3.13,4.22h5.6Z" transform="translate(0 0)" fill="#4d4d4d"/>
          <path d="M123.85,165.53l.52-6.24h5.41v1h-4.57l-.36,4.29a3,3,0,0,1,2-.7,2.75,2.75,0,0,1,2.32,1.13,4.84,4.84,0,0,1,.86,3,5.06,5.06,0,0,1-.85,3.13,2.81,2.81,0,0,1-2.4,1.12,3,3,0,0,1-2.29-.94,4.05,4.05,0,0,1-1-2.6h.93a3.28,3.28,0,0,0,.73,2,2.05,2.05,0,0,0,1.62.67,1.91,1.91,0,0,0,1.7-.87A4.48,4.48,0,0,0,129,168a3.73,3.73,0,0,0-.64-2.28,2.06,2.06,0,0,0-1.75-.88,2.79,2.79,0,0,0-1.09.2,2.86,2.86,0,0,0-.93.72Z" transform="translate(0 0)" fill="#4d4d4d"/>
        </g>
        <g>
          <path d="M77.41,208.09H70.62v-.84l3.64-4.9a11.65,11.65,0,0,0,1.28-2.09,4,4,0,0,0,.36-1.61,3,3,0,0,0-.58-1.91,1.91,1.91,0,0,0-1.59-.71,2.07,2.07,0,0,0-1.73.82,3.42,3.42,0,0,0-.64,2.13h-1a4.15,4.15,0,0,1,.92-2.77,3,3,0,0,1,2.42-1.1A3,3,0,0,1,76,196a3.55,3.55,0,0,1,.85,2.53,6.73,6.73,0,0,1-1.39,3.6l-.56.8-3.13,4.22h5.6Z" transform="translate(0 0)" fill="#4d4d4d"/>
          <path d="M80,201.53l.53-6.24h5.41v1H81.34L81,200.58a3,3,0,0,1,2-.7A2.75,2.75,0,0,1,85.28,201a4.84,4.84,0,0,1,.86,3,5.13,5.13,0,0,1-.85,3.13,2.81,2.81,0,0,1-2.4,1.12,3,3,0,0,1-2.29-.94,4.05,4.05,0,0,1-1-2.6h.93a3.28,3.28,0,0,0,.73,2,2.05,2.05,0,0,0,1.62.67,1.89,1.89,0,0,0,1.69-.87,4.39,4.39,0,0,0,.58-2.46,3.74,3.74,0,0,0-.65-2.28,2,2,0,0,0-1.74-.88,2.42,2.42,0,0,0-2,.92Z" transform="translate(0 0)" fill="#4d4d4d"/>
        </g>
        <path d="M99.77,202.07H92.38v-.92h7.39Z" transform="translate(0 0)" fill="#4d4d4d"/>
        <g>
          <path d="M107,202.33l5.06,2.62v1.13L106,202.75v-.87l6.09-3.32v1.13Z" transform="translate(0 0)" fill="#4d4d4d"/>
          <path d="M120,204h1.64v.91H120v3.22h-1v-3.22h-5v-.62l4.94-9H120Zm-4.83,0H119v-7.19l-.35.71Z" transform="translate(0 0)" fill="#4d4d4d"/>
          <path d="M129.78,202.74a8.17,8.17,0,0,1-.84,4.13,2.89,2.89,0,0,1-4.94,0,7.94,7.94,0,0,1-.87-4V200.6a8.06,8.06,0,0,1,.84-4.08,2.9,2.9,0,0,1,4.94-.05,7.8,7.8,0,0,1,.87,4Zm-1-2.29a7.38,7.38,0,0,0-.58-3.31,1.94,1.94,0,0,0-3.49,0,7,7,0,0,0-.62,3.17v2.59a7.46,7.46,0,0,0,.6,3.32,1.9,1.9,0,0,0,1.77,1.17,1.85,1.85,0,0,0,1.71-1.11,7.15,7.15,0,0,0,.61-3.26Z" transform="translate(0 0)" fill="#4d4d4d"/>
        </g>
        <path d="M94.53,244.08H88.36v-.92h6.17Zm-1-6.12-5.18-2.37v-1l6.25,3v.79l-6.25,3v-1Z" transform="translate(0 0)" fill="#4d4d4d"/>
        <g>
          <path d="M102.15,240h1.65v.91h-1.65v3.22h-1v-3.22h-5v-.62l4.95-9h1.05Zm-4.83,0h3.86v-7.19l-.35.71Z" transform="translate(0 0)" fill="#4d4d4d"/>
          <path d="M112,238.74a8.17,8.17,0,0,1-.84,4.13,2.89,2.89,0,0,1-4.94,0,8,8,0,0,1-.86-4V236.6a8.18,8.18,0,0,1,.83-4.08,2.9,2.9,0,0,1,4.94-.05,7.6,7.6,0,0,1,.87,4Zm-1-2.29a7.36,7.36,0,0,0-.59-3.31,1.94,1.94,0,0,0-3.49,0,6.86,6.86,0,0,0-.61,3.17v2.59a7.46,7.46,0,0,0,.6,3.32,1.9,1.9,0,0,0,1.76,1.17,1.87,1.87,0,0,0,1.72-1.11A7.29,7.29,0,0,0,111,239Z" transform="translate(0 0)" fill="#4d4d4d"/>
        </g>
        <g>
          <path d="M311.09,28.09V15.29h3.38A4.63,4.63,0,0,1,318,16.71a5.59,5.59,0,0,1,1.36,3.91v2.07a5.6,5.6,0,0,1-1.33,4,4.75,4.75,0,0,1-3.67,1.44Zm2.58-10.65v8.5h.78a2.13,2.13,0,0,0,1.81-.68,4,4,0,0,0,.56-2.35V20.69a4.57,4.57,0,0,0-.5-2.5,2,2,0,0,0-1.71-.75Z" transform="translate(0 0)" fill="#fff"/>
          <path d="M320.84,23a5.16,5.16,0,0,1,1-3.39,3.87,3.87,0,0,1,5.66,0,5.2,5.2,0,0,1,1,3.41v.61a5.12,5.12,0,0,1-1,3.39,3.44,3.44,0,0,1-2.83,1.22A3.5,3.5,0,0,1,321.86,27a5.2,5.2,0,0,1-1-3.41Zm2.5.63c0,1.7.45,2.55,1.36,2.55s1.29-.71,1.36-2.13V23a4,4,0,0,0-.36-1.92,1.12,1.12,0,0,0-1-.63,1.08,1.08,0,0,0-1,.63,4,4,0,0,0-.36,1.92Z" transform="translate(0 0)" fill="#fff"/>
          <path d="M334.3,25.54A.79.79,0,0,0,334,25a6.65,6.65,0,0,0-1.35-.72,5.78,5.78,0,0,1-2.12-1.29,2.48,2.48,0,0,1-.57-1.66,2.68,2.68,0,0,1,.9-2.07,3.43,3.43,0,0,1,2.39-.81,3.7,3.7,0,0,1,2.5.81,2.7,2.7,0,0,1,.94,2.17H334.2c0-.77-.32-1.16-1-1.16a.87.87,0,0,0-.65.25.9.9,0,0,0-.26.68.71.71,0,0,0,.28.56,6.34,6.34,0,0,0,1.33.69,5.6,5.6,0,0,1,2.15,1.25,2.56,2.56,0,0,1,.63,1.79,2.51,2.51,0,0,1-1,2,3.86,3.86,0,0,1-2.51.77,3.91,3.91,0,0,1-1.85-.41,3.11,3.11,0,0,1-1.25-1.13,2.88,2.88,0,0,1-.46-1.58h2.37a1.51,1.51,0,0,0,.3,1,1.18,1.18,0,0,0,.94.32C334,26.44,334.3,26.14,334.3,25.54Z" transform="translate(0 0)" fill="#fff"/>
          <path d="M342.78,28.09a3.69,3.69,0,0,1-.21-.74,2.13,2.13,0,0,1-1.81.91,2.65,2.65,0,0,1-2-.79,2.77,2.77,0,0,1-.79-2,2.91,2.91,0,0,1,.95-2.31,4.22,4.22,0,0,1,2.75-.83h.76v-.77a1.46,1.46,0,0,0-.22-.9.78.78,0,0,0-.64-.27c-.63,0-.94.37-.94,1.09h-2.48a2.74,2.74,0,0,1,1-2.17,3.69,3.69,0,0,1,2.5-.86,3.39,3.39,0,0,1,2.42.81,3.07,3.07,0,0,1,.85,2.33V26a4.74,4.74,0,0,0,.36,1.93v.15Zm-1.47-1.78a1.33,1.33,0,0,0,.71-.17,1.26,1.26,0,0,0,.43-.39v-2h-.6a1.28,1.28,0,0,0-1,.41,1.57,1.57,0,0,0-.36,1.08C340.49,26,340.76,26.31,341.31,26.31Z" transform="translate(0 0)" fill="#fff"/>
          <path d="M346.44,23a5.93,5.93,0,0,1,.84-3.49,2.78,2.78,0,0,1,2.37-1.15,2.28,2.28,0,0,1,2,1l.1-.84H354v9.51a3.64,3.64,0,0,1-1,2.78,4.12,4.12,0,0,1-2.93,1,4.74,4.74,0,0,1-1.64-.31,2.94,2.94,0,0,1-1.28-.8l.83-1.72a2.49,2.49,0,0,0,.91.6,2.74,2.74,0,0,0,1.07.24,1.6,1.6,0,0,0,1.2-.4,1.91,1.91,0,0,0,.37-1.29v-.82a2.22,2.22,0,0,1-1.85.93,2.69,2.69,0,0,1-2.35-1.18,5.76,5.76,0,0,1-.85-3.33Zm2.48.63a4,4,0,0,0,.35,1.92,1.16,1.16,0,0,0,1.09.6,1.27,1.27,0,0,0,1.13-.55V21.09a1.26,1.26,0,0,0-1.11-.61,1.2,1.2,0,0,0-1.1.61,4,4,0,0,0-.36,1.95Z" transform="translate(0 0)" fill="#fff"/>
          <path d="M359.63,28.26a3.91,3.91,0,0,1-3-1.14,4.62,4.62,0,0,1-1.07-3.27V23.1a5.48,5.48,0,0,1,1-3.48,3.44,3.44,0,0,1,2.83-1.22,3.2,3.2,0,0,1,2.69,1.15,5.46,5.46,0,0,1,.93,3.39v1.22h-4.95a2.62,2.62,0,0,0,.46,1.55,1.61,1.61,0,0,0,1.28.49,2.83,2.83,0,0,0,2.08-.85l1,1.5a3.26,3.26,0,0,1-1.33,1A4.57,4.57,0,0,1,359.63,28.26Zm-1.56-5.83h2.48V22.2a2.57,2.57,0,0,0-.28-1.29,1,1,0,0,0-.91-.44,1,1,0,0,0-.95.46A3.24,3.24,0,0,0,358.07,22.43Z" transform="translate(0 0)" fill="#fff"/>
          <path d="M372.55,23.41h-1.28v4.68h-2.59V15.29h4.12a4.21,4.21,0,0,1,3,1,3.77,3.77,0,0,1,1.06,2.86A3.72,3.72,0,0,1,375,22.73L377.25,28v.13h-2.78Zm-1.28-2.15h1.46a1.33,1.33,0,0,0,1.16-.52,2.21,2.21,0,0,0,.39-1.37c0-1.28-.5-1.93-1.5-1.93h-1.51Z" transform="translate(0 0)" fill="#fff"/>
          <path d="M382.36,28.26a3.9,3.9,0,0,1-3-1.14,4.62,4.62,0,0,1-1.07-3.27V23.1a5.48,5.48,0,0,1,1-3.48,3.43,3.43,0,0,1,2.82-1.22,3.21,3.21,0,0,1,2.7,1.15,5.4,5.4,0,0,1,.92,3.39v1.22h-4.94a2.62,2.62,0,0,0,.46,1.55,1.61,1.61,0,0,0,1.28.49,2.83,2.83,0,0,0,2.08-.85l1,1.5a3.26,3.26,0,0,1-1.33,1A4.57,4.57,0,0,1,382.36,28.26Zm-1.57-5.83h2.49V22.2a2.57,2.57,0,0,0-.28-1.29,1,1,0,0,0-.91-.44,1,1,0,0,0-.95.46A3.23,3.23,0,0,0,380.79,22.43Z" transform="translate(0 0)" fill="#fff"/>
          <path d="M386.83,23a5.85,5.85,0,0,1,.85-3.49A2.77,2.77,0,0,1,390,18.4a2.29,2.29,0,0,1,2,1l.09-.84h2.24v9.51a3.64,3.64,0,0,1-1,2.78,4.1,4.1,0,0,1-2.92,1,4.84,4.84,0,0,1-1.65-.31,3,3,0,0,1-1.28-.8l.83-1.72a2.54,2.54,0,0,0,.92.6,2.7,2.7,0,0,0,1.06.24,1.57,1.57,0,0,0,1.2-.4,2,2,0,0,0,.38-1.29v-.82a2.25,2.25,0,0,1-1.86.93,2.7,2.7,0,0,1-2.35-1.18,5.84,5.84,0,0,1-.85-3.33Zm2.49.63a4,4,0,0,0,.34,1.92,1.16,1.16,0,0,0,1.09.6,1.3,1.3,0,0,0,1.14-.55V21.09a1.26,1.26,0,0,0-1.12-.61,1.21,1.21,0,0,0-1.1.61,4.15,4.15,0,0,0-.35,1.95Z" transform="translate(0 0)" fill="#fff"/>
          <path d="M396.18,16.12a1.3,1.3,0,0,1,.37-1,1.34,1.34,0,0,1,1-.37,1.3,1.3,0,0,1,1,.37,1.26,1.26,0,0,1,.37,1,1.26,1.26,0,0,1-1.35,1.32,1.27,1.27,0,0,1-1.36-1.32Zm2.61,12H396.3V18.58h2.49Z" transform="translate(0 0)" fill="#fff"/>
          <path d="M403.06,18.58l.07.88a2.65,2.65,0,0,1,2.2-1.06,2.07,2.07,0,0,1,2,1.28,2.6,2.6,0,0,1,2.32-1.28q2.5,0,2.56,3.46v6.23h-2.48V22a2.24,2.24,0,0,0-.23-1.17.86.86,0,0,0-.78-.36c-.46,0-.81.29-1,.86v6.75h-2.48V22a2.46,2.46,0,0,0-.22-1.18.86.86,0,0,0-.79-.37,1.17,1.17,0,0,0-1,.7v6.91h-2.48V18.58Z" transform="translate(0 0)" fill="#fff"/>
          <path d="M417.91,28.26a3.91,3.91,0,0,1-3-1.14,4.62,4.62,0,0,1-1.07-3.27V23.1a5.48,5.48,0,0,1,1-3.48,3.44,3.44,0,0,1,2.83-1.22,3.2,3.2,0,0,1,2.69,1.15,5.46,5.46,0,0,1,.93,3.39v1.22h-4.95a2.62,2.62,0,0,0,.46,1.55,1.61,1.61,0,0,0,1.28.49,2.83,2.83,0,0,0,2.08-.85l1,1.5a3.26,3.26,0,0,1-1.33,1A4.57,4.57,0,0,1,417.91,28.26Zm-1.56-5.83h2.48V22.2a2.57,2.57,0,0,0-.28-1.29,1,1,0,0,0-.91-.44,1,1,0,0,0-.95.46A3.24,3.24,0,0,0,416.35,22.43Z" transform="translate(0 0)" fill="#fff"/>
          <path d="M425,18.58l.07.94a2.63,2.63,0,0,1,2.21-1.12c1.63,0,2.47,1.15,2.52,3.44v6.25h-2.5V22a2.17,2.17,0,0,0-.24-1.17,1,1,0,0,0-.85-.37,1.17,1.17,0,0,0-1.05.7v6.91h-2.5V18.58Z" transform="translate(0 0)" fill="#fff"/>
        </g>
        <g>
          <path d="M276.7,64.09h-6.78v-.84l3.64-4.9a11.5,11.5,0,0,0,1.27-2.09,4,4,0,0,0,.36-1.61,3,3,0,0,0-.57-1.91A1.94,1.94,0,0,0,273,52a2.06,2.06,0,0,0-1.72.82,3.35,3.35,0,0,0-.64,2.13h-1a4.21,4.21,0,0,1,.92-2.77,3.29,3.29,0,0,1,4.73-.19,3.56,3.56,0,0,1,.86,2.53,6.81,6.81,0,0,1-1.39,3.6l-.57.8-3.12,4.22h5.59Z" transform="translate(0 0)" fill="#4d4d4d"/>
          <path d="M283.74,54.58l0,1.42a2.77,2.77,0,0,1,2.55-1.6,2.26,2.26,0,0,1,2.37,1.75,3.25,3.25,0,0,1,1.16-1.31,2.87,2.87,0,0,1,1.54-.44c1.71,0,2.59,1.1,2.63,3.31v6.38h-1V57.77a3.19,3.19,0,0,0-.45-1.83,1.67,1.67,0,0,0-1.45-.61,2,2,0,0,0-1.52.71,2.81,2.81,0,0,0-.72,1.72v6.33h-1v-6.3a3,3,0,0,0-.46-1.85,1.71,1.71,0,0,0-1.44-.61,1.94,1.94,0,0,0-1.38.56,3.16,3.16,0,0,0-.85,1.58v6.62h-1V54.58Z" transform="translate(0 0)" fill="#4d4d4d"/>
          <path d="M296.22,58.89a5.93,5.93,0,0,1,.78-3.37,2.64,2.64,0,0,1,2.32-1.12,2.6,2.6,0,0,1,2.44,1.5l.05-1.32h.91v9.78A3.84,3.84,0,0,1,301.9,67a3,3,0,0,1-2.37.9,3.57,3.57,0,0,1-1.58-.39,3.29,3.29,0,0,1-1.21-.94l.46-.7A2.93,2.93,0,0,0,299.46,67a2.17,2.17,0,0,0,1.73-.63,3,3,0,0,0,.55-1.92V62.9a2.64,2.64,0,0,1-2.43,1.36A2.6,2.6,0,0,1,297,63.15a5.69,5.69,0,0,1-.82-3.23Zm1,.89a5.08,5.08,0,0,0,.55,2.69,1.93,1.93,0,0,0,1.74.86,2.28,2.28,0,0,0,2.24-1.5V57a2.28,2.28,0,0,0-2.22-1.63,2,2,0,0,0-1.75.85,4.94,4.94,0,0,0-.56,2.64Z" transform="translate(0 0)" fill="#4d4d4d"/>
          <path d="M309.26,58.92a15.63,15.63,0,0,1,.46-3.83A13.58,13.58,0,0,1,311,51.8a6.45,6.45,0,0,1,1.67-2.07l.23.74a5.76,5.76,0,0,0-1.34,1.92,13.38,13.38,0,0,0-1,3,18.53,18.53,0,0,0-.35,3.7,17.38,17.38,0,0,0,.35,3.5,13,13,0,0,0,1,3,6,6,0,0,0,1.34,2l-.23.7a5.51,5.51,0,0,1-1.21-1.3,10.36,10.36,0,0,1-1.11-2.08,15.61,15.61,0,0,1-.78-2.65A16.92,16.92,0,0,1,309.26,58.92Z" transform="translate(0 0)" fill="#4d4d4d"/>
          <path d="M321.26,64.09h-6.79v-.84l3.64-4.9a11.5,11.5,0,0,0,1.27-2.09,4,4,0,0,0,.36-1.61,3,3,0,0,0-.57-1.91,1.94,1.94,0,0,0-1.6-.71,2.06,2.06,0,0,0-1.72.82,3.35,3.35,0,0,0-.64,2.13h-1a4.16,4.16,0,0,1,.93-2.77,3.28,3.28,0,0,1,4.72-.19,3.56,3.56,0,0,1,.86,2.53,6.81,6.81,0,0,1-1.39,3.6l-.56.8-3.13,4.22h5.6Z" transform="translate(0 0)" fill="#4d4d4d"/>
          <path d="M328.3,54.58l0,1.42a2.77,2.77,0,0,1,2.55-1.6,2.25,2.25,0,0,1,2.37,1.75,3.25,3.25,0,0,1,1.16-1.31,2.9,2.9,0,0,1,1.54-.44c1.71,0,2.59,1.1,2.63,3.31v6.38h-1V57.77a3.19,3.19,0,0,0-.45-1.83,1.66,1.66,0,0,0-1.44-.61,2.05,2.05,0,0,0-1.53.71,2.74,2.74,0,0,0-.71,1.72v6.33h-1v-6.3a3,3,0,0,0-.46-1.85,1.71,1.71,0,0,0-1.44-.61,1.94,1.94,0,0,0-1.38.56,3.23,3.23,0,0,0-.85,1.58v6.62h-1V54.58Z" transform="translate(0 0)" fill="#4d4d4d"/>
          <path d="M342.34,63.16h5.27v.93h-6.28V51.29h1Z" transform="translate(0 0)" fill="#4d4d4d"/>
          <path d="M353.14,58.85a5.15,5.15,0,0,1,.93-3.25,3.32,3.32,0,0,1,5.09,0,5.1,5.1,0,0,1,.93,3.24v1a5.1,5.1,0,0,1-.93,3.26,3.34,3.34,0,0,1-5.05,0,5,5,0,0,1-1-3.15Zm1,1a4.44,4.44,0,0,0,.66,2.58,2.12,2.12,0,0,0,1.84.94,2.1,2.1,0,0,0,1.84-.91,4.48,4.48,0,0,0,.65-2.59v-1a4.38,4.38,0,0,0-.67-2.59,2.25,2.25,0,0,0-3.64,0,4.34,4.34,0,0,0-.68,2.53Z" transform="translate(0 0)" fill="#4d4d4d"/>
          <path d="M366.07,55.49a3.67,3.67,0,0,0-.61-.06,1.82,1.82,0,0,0-1.36.55,3.13,3.13,0,0,0-.78,1.54v6.57h-1V54.58h1l0,1.42a2.29,2.29,0,0,1,2.18-1.6,1.18,1.18,0,0,1,.59.12Z" transform="translate(0 0)" fill="#4d4d4d"/>
          <path d="M372.45,64.09a6.26,6.26,0,0,1-.17-1.32,3.21,3.21,0,0,1-1.13,1.1,3,3,0,0,1-1.5.39,2.6,2.6,0,0,1-1.92-.69,3.12,3.12,0,0,1,.27-4.19,4,4,0,0,1,2.63-.83h1.64V57.22a1.85,1.85,0,0,0-.51-1.46,2.16,2.16,0,0,0-1.48-.44,2.11,2.11,0,0,0-1.48.52,1.75,1.75,0,0,0-.58,1.37h-1a2.61,2.61,0,0,1,.88-2,3.14,3.14,0,0,1,2.21-.81,3,3,0,0,1,2.17.72,2.81,2.81,0,0,1,.73,2.1v4.67a6.4,6.4,0,0,0,.26,2.09v.11Zm-2.68-.77a2.67,2.67,0,0,0,1.53-.45,2.58,2.58,0,0,0,1-1.19V59.37h-1.55a3.11,3.11,0,0,0-2,.59,1.93,1.93,0,0,0-.68,1.55C368,62.72,368.61,63.32,369.77,63.32Z" transform="translate(0 0)" fill="#4d4d4d"/>
          <path d="M377,64.09h-1V50.59h1Z" transform="translate(0 0)" fill="#4d4d4d"/>
          <path d="M388.48,61.74a1.4,1.4,0,0,0-.51-1.07,7,7,0,0,0-1.72-1,9.19,9.19,0,0,1-1.7-.91,2.54,2.54,0,0,1-.72-.8,2.14,2.14,0,0,1-.22-1,2.33,2.33,0,0,1,.79-1.81,2.91,2.91,0,0,1,2-.72,3,3,0,0,1,2.17.77,2.64,2.64,0,0,1,.81,2h-1a1.8,1.8,0,0,0-.55-1.34,2,2,0,0,0-1.45-.53,2,2,0,0,0-1.36.44,1.43,1.43,0,0,0-.51,1.14,1.21,1.21,0,0,0,.39.93,7.64,7.64,0,0,0,1.67,1,10.81,10.81,0,0,1,1.83,1,2.68,2.68,0,0,1,.75.84,2.24,2.24,0,0,1,.26,1.1,2.32,2.32,0,0,1-.82,1.87,3.21,3.21,0,0,1-2.15.69,3.29,3.29,0,0,1-2.29-.77,2.53,2.53,0,0,1-.88-2h1a1.84,1.84,0,0,0,.59,1.37,2.31,2.31,0,0,0,1.59.49,2.25,2.25,0,0,0,1.44-.44A1.42,1.42,0,0,0,388.48,61.74Z" transform="translate(0 0)" fill="#4d4d4d"/>
          <path d="M391.39,58.85a5.15,5.15,0,0,1,.93-3.25,3.32,3.32,0,0,1,5.09,0,5.1,5.1,0,0,1,.93,3.24v1a5.1,5.1,0,0,1-.93,3.26,3.34,3.34,0,0,1-5.05,0,5,5,0,0,1-1-3.15Zm1,1a4.44,4.44,0,0,0,.66,2.58,2.12,2.12,0,0,0,1.84.94,2.1,2.1,0,0,0,1.84-.91,4.48,4.48,0,0,0,.65-2.59v-1a4.38,4.38,0,0,0-.67-2.59,2.25,2.25,0,0,0-3.64,0,4.34,4.34,0,0,0-.68,2.53Z" transform="translate(0 0)" fill="#4d4d4d"/>
          <path d="M401.68,64.09h-1V50.59h1Z" transform="translate(0 0)" fill="#4d4d4d"/>
          <path d="M409.48,63a2.72,2.72,0,0,1-2.5,1.31,2.29,2.29,0,0,1-2-.89,4.43,4.43,0,0,1-.66-2.64V54.58h1V60.7a3.5,3.5,0,0,0,.46,2,1.48,1.48,0,0,0,1.32.67,2.25,2.25,0,0,0,2.36-1.79v-7h1v9.51h-.95Z" transform="translate(0 0)" fill="#4d4d4d"/>
          <path d="M414.52,52.15v2.43h1.62v.88h-1.62v6.32a2.22,2.22,0,0,0,.23,1.16.82.82,0,0,0,.78.38,4,4,0,0,0,.7-.09l0,.88a2.47,2.47,0,0,1-1,.15c-1.14,0-1.73-.78-1.76-2.35V55.46h-1.47v-.88h1.47V52.15Z" transform="translate(0 0)" fill="#4d4d4d"/>
          <path d="M418.23,51.84a.8.8,0,0,1,.17-.51.55.55,0,0,1,.48-.22.58.58,0,0,1,.48.22.8.8,0,0,1,.17.51.8.8,0,0,1-.17.5.6.6,0,0,1-.48.21.57.57,0,0,1-.48-.21A.8.8,0,0,1,418.23,51.84Zm1.13,12.25h-1V54.58h1Z" transform="translate(0 0)" fill="#4d4d4d"/>
          <path d="M421.69,58.85a5.15,5.15,0,0,1,.93-3.25,3.31,3.31,0,0,1,5.08,0,5.16,5.16,0,0,1,.94,3.24v1a5,5,0,0,1-.94,3.26,3,3,0,0,1-2.52,1.17,3.08,3.08,0,0,1-2.52-1.14,4.91,4.91,0,0,1-1-3.15Zm1,1a4.36,4.36,0,0,0,.67,2.58,2.29,2.29,0,0,0,3.68,0,4.55,4.55,0,0,0,.65-2.59v-1a4.45,4.45,0,0,0-.67-2.59,2.13,2.13,0,0,0-1.84-.94,2.08,2.08,0,0,0-1.8.92,4.27,4.27,0,0,0-.69,2.53Z" transform="translate(0 0)" fill="#4d4d4d"/>
          <path d="M431.82,54.58l0,1.51a3.41,3.41,0,0,1,1.08-1.23,2.48,2.48,0,0,1,1.49-.46c1.65,0,2.5,1.11,2.54,3.32v6.37h-1V57.82a3.31,3.31,0,0,0-.45-1.88,1.59,1.59,0,0,0-1.38-.61,2,2,0,0,0-1.38.58,3.64,3.64,0,0,0-.92,1.58v6.6h-1V54.58Z" transform="translate(0 0)" fill="#4d4d4d"/>
          <path d="M442.3,59.05a16.19,16.19,0,0,1-.44,3.79,12.83,12.83,0,0,1-1.24,3.27,6.23,6.23,0,0,1-1.71,2.11l-.22-.7a6.37,6.37,0,0,0,1.53-2.4,16.16,16.16,0,0,0,1.1-6.23,17.09,17.09,0,0,0-.34-3.47,14.47,14.47,0,0,0-1-3,5.89,5.89,0,0,0-1.32-2l.22-.7a6.82,6.82,0,0,1,1.81,2.32A15,15,0,0,1,442.3,59.05Z" transform="translate(0 0)" fill="#4d4d4d"/>
          <path d="M449.15,64.09V51.29h3.24a3.64,3.64,0,0,1,2.62.85,3.26,3.26,0,0,1,.89,2.5,3.21,3.21,0,0,1-.45,1.71,2.57,2.57,0,0,1-1.27,1,2.56,2.56,0,0,1,1.51,1.09,3.5,3.5,0,0,1,.57,2,3.68,3.68,0,0,1-.91,2.64,3.41,3.41,0,0,1-2.59,1Zm1-7.07h2.33a2.43,2.43,0,0,0,1.77-.61,2.37,2.37,0,0,0,.63-1.8,2.3,2.3,0,0,0-.62-1.79,2.62,2.62,0,0,0-1.87-.58h-2.24Zm0,.91v5.23h2.65a2.35,2.35,0,0,0,1.8-.71,2.74,2.74,0,0,0,.66-2,2.66,2.66,0,0,0-.61-1.85,2.24,2.24,0,0,0-1.7-.72Z" transform="translate(0 0)" fill="#4d4d4d"/>
          <path d="M460,64.09h-1V51.29h1Z" transform="translate(0 0)" fill="#4d4d4d"/>
          <path d="M463.18,64.09V51.29h3a4.23,4.23,0,0,1,3.29,1.33,5.35,5.35,0,0,1,1.25,3.67V59a5.37,5.37,0,0,1-1.23,3.76,4.37,4.37,0,0,1-3.44,1.36Zm1-11.85V63.16h1.95a3.38,3.38,0,0,0,2.65-1.06,4.53,4.53,0,0,0,1-3V56.39a4.64,4.64,0,0,0-.92-3.06,3.27,3.27,0,0,0-2.66-1.09Z" transform="translate(0 0)" fill="#4d4d4d"/>
        </g>
        <g>
          <path d="M263.65,100.09h-6.78v-.84l3.64-4.9a11.5,11.5,0,0,0,1.27-2.09,4,4,0,0,0,.36-1.61,3,3,0,0,0-.57-1.91A1.94,1.94,0,0,0,260,88a2.06,2.06,0,0,0-1.72.82,3.35,3.35,0,0,0-.64,2.13h-1a4.21,4.21,0,0,1,.92-2.77,3.29,3.29,0,0,1,4.73-.19,3.56,3.56,0,0,1,.86,2.53,6.81,6.81,0,0,1-1.39,3.6l-.57.8-3.12,4.22h5.59Z" transform="translate(0 0)" fill="#4d4d4d"/>
          <path d="M265.73,99.45a.74.74,0,0,1,.2-.54.71.71,0,0,1,.55-.21.74.74,0,0,1,.55.21.78.78,0,0,1,.2.54.73.73,0,0,1-.2.51.77.77,0,0,1-.55.2.74.74,0,0,1-.55-.2A.69.69,0,0,1,265.73,99.45Z" transform="translate(0 0)" fill="#4d4d4d"/>
          <path d="M270.52,93.53l.53-6.24h5.4v1h-4.57l-.36,4.29a3,3,0,0,1,2-.7A2.73,2.73,0,0,1,275.82,93a4.84,4.84,0,0,1,.86,3,5.13,5.13,0,0,1-.84,3.13,2.84,2.84,0,0,1-2.4,1.12,3,3,0,0,1-2.3-.94,4.17,4.17,0,0,1-1-2.6h.93a3.34,3.34,0,0,0,.73,2,2.08,2.08,0,0,0,1.63.67,1.91,1.91,0,0,0,1.69-.87A4.48,4.48,0,0,0,275.7,96a3.73,3.73,0,0,0-.64-2.28,2,2,0,0,0-1.75-.88,2.79,2.79,0,0,0-1.09.2,2.86,2.86,0,0,0-.93.72Z" transform="translate(0 0)" fill="#4d4d4d"/>
          <path d="M283.75,90.58l0,1.42a2.77,2.77,0,0,1,2.55-1.6,2.25,2.25,0,0,1,2.37,1.75,3.25,3.25,0,0,1,1.16-1.31,2.9,2.9,0,0,1,1.54-.44c1.71,0,2.59,1.1,2.63,3.31v6.38h-1V93.77a3.19,3.19,0,0,0-.45-1.83,1.66,1.66,0,0,0-1.44-.61,2.05,2.05,0,0,0-1.53.71,2.74,2.74,0,0,0-.71,1.72v6.33h-1v-6.3a3,3,0,0,0-.46-1.85,1.71,1.71,0,0,0-1.44-.61,1.94,1.94,0,0,0-1.38.56,3.23,3.23,0,0,0-.85,1.58v6.62h-1V90.58Z" transform="translate(0 0)" fill="#4d4d4d"/>
          <path d="M296.23,94.89a5.94,5.94,0,0,1,.77-3.37,2.65,2.65,0,0,1,2.32-1.12,2.59,2.59,0,0,1,2.44,1.5l.06-1.32h.9v9.78a3.79,3.79,0,0,1-.82,2.62,3,3,0,0,1-2.37.9,3.57,3.57,0,0,1-1.58-.39,3.17,3.17,0,0,1-1.2-.94l.45-.7a2.94,2.94,0,0,0,2.26,1.11,2.17,2.17,0,0,0,1.73-.63,3,3,0,0,0,.55-1.92V98.9a2.63,2.63,0,0,1-2.43,1.36A2.6,2.6,0,0,1,297,99.15a5.61,5.61,0,0,1-.81-3.23Zm1,.89a5.17,5.17,0,0,0,.55,2.69,1.93,1.93,0,0,0,1.74.86,2.28,2.28,0,0,0,2.24-1.5V93a2.28,2.28,0,0,0-2.22-1.63,2,2,0,0,0-1.75.85,5,5,0,0,0-.56,2.64Z" transform="translate(0 0)" fill="#4d4d4d"/>
          <path d="M309.26,94.92a16.13,16.13,0,0,1,.46-3.83A13.58,13.58,0,0,1,311,87.8a6.45,6.45,0,0,1,1.67-2.07l.23.74a5.75,5.75,0,0,0-1.33,1.92,12.88,12.88,0,0,0-1,3,18.56,18.56,0,0,0-.34,3.7,17.39,17.39,0,0,0,.34,3.5,13.54,13.54,0,0,0,1,3,6,6,0,0,0,1.33,2l-.23.7a5.51,5.51,0,0,1-1.21-1.3,9.87,9.87,0,0,1-1.1-2.08,14,14,0,0,1-.78-2.65A16.12,16.12,0,0,1,309.26,94.92Z" transform="translate(0 0)" fill="#4d4d4d"/>
          <path d="M321.26,100.09h-6.79v-.84l3.64-4.9a11.65,11.65,0,0,0,1.28-2.09,4,4,0,0,0,.36-1.61,3,3,0,0,0-.58-1.91,1.92,1.92,0,0,0-1.59-.71,2.07,2.07,0,0,0-1.73.82,3.35,3.35,0,0,0-.64,2.13h-1a4.15,4.15,0,0,1,.92-2.77,3,3,0,0,1,2.42-1.1,3,3,0,0,1,2.31.91,3.55,3.55,0,0,1,.85,2.53,6.73,6.73,0,0,1-1.39,3.6l-.56.8-3.13,4.22h5.6Z" transform="translate(0 0)" fill="#4d4d4d"/>
          <path d="M323.33,99.45a.78.78,0,0,1,.2-.54.71.71,0,0,1,.55-.21.72.72,0,0,1,.55.21.74.74,0,0,1,.2.54.69.69,0,0,1-.2.51.76.76,0,0,1-.55.2.74.74,0,0,1-.55-.2A.73.73,0,0,1,323.33,99.45Z" transform="translate(0 0)" fill="#4d4d4d"/>
          <path d="M328.12,93.53l.53-6.24h5.4v1h-4.57l-.36,4.29a3.05,3.05,0,0,1,2-.7A2.75,2.75,0,0,1,333.43,93a4.83,4.83,0,0,1,.85,3,5.13,5.13,0,0,1-.84,3.13,2.81,2.81,0,0,1-2.4,1.12,3,3,0,0,1-2.29-.94,4.12,4.12,0,0,1-1-2.6h.93a3.41,3.41,0,0,0,.73,2,2.09,2.09,0,0,0,1.63.67,1.9,1.9,0,0,0,1.69-.87,4.39,4.39,0,0,0,.58-2.46,3.74,3.74,0,0,0-.65-2.28,2,2,0,0,0-1.74-.88,2.75,2.75,0,0,0-1.09.2,2.66,2.66,0,0,0-.93.72Z" transform="translate(0 0)" fill="#4d4d4d"/>
          <path d="M341.35,90.58l0,1.42a2.77,2.77,0,0,1,2.54-1.6,2.27,2.27,0,0,1,2.38,1.75,3.23,3.23,0,0,1,1.15-1.31A2.91,2.91,0,0,1,349,90.4c1.71,0,2.58,1.1,2.62,3.31v6.38h-1V93.77a3.19,3.19,0,0,0-.46-1.83,1.64,1.64,0,0,0-1.44-.61,2.09,2.09,0,0,0-1.53.71,2.8,2.8,0,0,0-.71,1.72v6.33h-1v-6.3a3,3,0,0,0-.46-1.85,1.68,1.68,0,0,0-1.43-.61,2,2,0,0,0-1.39.56,3.23,3.23,0,0,0-.85,1.58v6.62h-1V90.58Z" transform="translate(0 0)" fill="#4d4d4d"/>
          <path d="M355.39,99.16h5.28v.93h-6.29V87.29h1Z" transform="translate(0 0)" fill="#4d4d4d"/>
          <path d="M366.2,94.85a5.15,5.15,0,0,1,.93-3.25,3.31,3.31,0,0,1,5.08,0,5.16,5.16,0,0,1,.94,3.24v1a5,5,0,0,1-.94,3.26,3,3,0,0,1-2.52,1.17,3.09,3.09,0,0,1-2.53-1.14,5,5,0,0,1-1-3.15Zm1,1a4.44,4.44,0,0,0,.66,2.58,2.14,2.14,0,0,0,1.85.94,2.11,2.11,0,0,0,1.84-.91,4.48,4.48,0,0,0,.64-2.59v-1a4.38,4.38,0,0,0-.67-2.59,2.11,2.11,0,0,0-1.83-.94,2.08,2.08,0,0,0-1.8.92,4.27,4.27,0,0,0-.69,2.53Z" transform="translate(0 0)" fill="#4d4d4d"/>
          <path d="M379.12,91.49a3.58,3.58,0,0,0-.61-.06,1.84,1.84,0,0,0-1.36.55,3.3,3.3,0,0,0-.78,1.54v6.57h-1V90.58h1V92a2.3,2.3,0,0,1,2.18-1.6,1.16,1.16,0,0,1,.59.12Z" transform="translate(0 0)" fill="#4d4d4d"/>
          <path d="M385.52,100.09a7,7,0,0,1-.17-1.32,3.13,3.13,0,0,1-1.13,1.1,3,3,0,0,1-1.5.39,2.6,2.6,0,0,1-1.92-.69,2.72,2.72,0,0,1-.68-2,2.77,2.77,0,0,1,.95-2.21,4,4,0,0,1,2.64-.83h1.63V93.22a1.85,1.85,0,0,0-.51-1.46,2.15,2.15,0,0,0-1.48-.44,2.11,2.11,0,0,0-1.48.52,1.75,1.75,0,0,0-.58,1.37h-1a2.65,2.65,0,0,1,.88-2,3.14,3.14,0,0,1,2.21-.81,3,3,0,0,1,2.17.72,2.81,2.81,0,0,1,.74,2.1v4.67a6.45,6.45,0,0,0,.25,2.09v.11Zm-2.68-.77a2.65,2.65,0,0,0,1.53-.45,2.58,2.58,0,0,0,1-1.19V95.37h-1.55a3.11,3.11,0,0,0-2,.59,1.93,1.93,0,0,0-.68,1.55C381.1,98.72,381.68,99.32,382.84,99.32Z" transform="translate(0 0)" fill="#4d4d4d"/>
          <path d="M390.06,100.09h-1V86.59h1Z" transform="translate(0 0)" fill="#4d4d4d"/>
          <path d="M401.56,97.74a1.4,1.4,0,0,0-.51-1.07,7.07,7.07,0,0,0-1.73-1,9.55,9.55,0,0,1-1.7-.91,2.5,2.5,0,0,1-.71-.8,2,2,0,0,1-.23-1,2.33,2.33,0,0,1,.79-1.81,2.93,2.93,0,0,1,2-.72,3,3,0,0,1,2.16.77,2.64,2.64,0,0,1,.81,2h-1a1.76,1.76,0,0,0-.55-1.34,2.28,2.28,0,0,0-2.81-.09,1.43,1.43,0,0,0-.51,1.14,1.21,1.21,0,0,0,.39.93,7.91,7.91,0,0,0,1.67,1,10,10,0,0,1,1.83,1,2.72,2.72,0,0,1,.76.84,2.24,2.24,0,0,1,.25,1.1,2.32,2.32,0,0,1-.82,1.87,3.21,3.21,0,0,1-2.15.69,3.31,3.31,0,0,1-2.29-.77,2.56,2.56,0,0,1-.87-2h1a1.88,1.88,0,0,0,.59,1.37,2.31,2.31,0,0,0,1.59.49,2.23,2.23,0,0,0,1.44-.44A1.43,1.43,0,0,0,401.56,97.74Z" transform="translate(0 0)" fill="#4d4d4d"/>
          <path d="M404.46,94.85a5.15,5.15,0,0,1,.94-3.25,3.31,3.31,0,0,1,5.08,0,5.16,5.16,0,0,1,.94,3.24v1a5,5,0,0,1-.94,3.26,3.34,3.34,0,0,1-5.05,0,5,5,0,0,1-1-3.15Zm1,1a4.44,4.44,0,0,0,.66,2.58,2.12,2.12,0,0,0,1.84.94,2.09,2.09,0,0,0,1.84-.91,4.4,4.4,0,0,0,.65-2.59v-1a4.38,4.38,0,0,0-.67-2.59,2.25,2.25,0,0,0-3.64,0,4.34,4.34,0,0,0-.68,2.53Z" transform="translate(0 0)" fill="#4d4d4d"/>
          <path d="M414.76,100.09h-1V86.59h1Z" transform="translate(0 0)" fill="#4d4d4d"/>
          <path d="M422.55,99a2.72,2.72,0,0,1-2.5,1.31,2.28,2.28,0,0,1-1.95-.89,4.43,4.43,0,0,1-.67-2.64V90.58h1V96.7a3.51,3.51,0,0,0,.45,2,1.5,1.5,0,0,0,1.32.67,2.26,2.26,0,0,0,2.37-1.79v-7h1v9.51h-.95Z" transform="translate(0 0)" fill="#4d4d4d"/>
          <path d="M427.59,88.15v2.43h1.62v.88h-1.62v6.32a2.32,2.32,0,0,0,.23,1.16.84.84,0,0,0,.78.38,4,4,0,0,0,.7-.09l0,.88a2.4,2.4,0,0,1-1,.15c-1.14,0-1.73-.78-1.76-2.35V91.46h-1.46v-.88h1.46V88.15Z" transform="translate(0 0)" fill="#4d4d4d"/>
          <path d="M431.31,87.84a.8.8,0,0,1,.16-.51.55.55,0,0,1,.48-.22.58.58,0,0,1,.48.22.8.8,0,0,1,.17.51.8.8,0,0,1-.17.5.6.6,0,0,1-.48.21.57.57,0,0,1-.48-.21A.79.79,0,0,1,431.31,87.84Zm1.12,12.25h-1V90.58h1Z" transform="translate(0 0)" fill="#4d4d4d"/>
          <path d="M434.76,94.85a5.15,5.15,0,0,1,.93-3.25,3.32,3.32,0,0,1,5.09,0,5.16,5.16,0,0,1,.93,3.24v1a5.1,5.1,0,0,1-.93,3.26,3.34,3.34,0,0,1-5,0,5,5,0,0,1-1-3.15Zm1,1a4.44,4.44,0,0,0,.66,2.58,2.29,2.29,0,0,0,3.68,0,4.48,4.48,0,0,0,.65-2.59v-1a4.45,4.45,0,0,0-.67-2.59,2.13,2.13,0,0,0-1.84-.94,2.11,2.11,0,0,0-1.8.92,4.34,4.34,0,0,0-.68,2.53Z" transform="translate(0 0)" fill="#4d4d4d"/>
          <path d="M444.89,90.58l0,1.51A3.41,3.41,0,0,1,446,90.86a2.48,2.48,0,0,1,1.49-.46c1.66,0,2.51,1.11,2.55,3.32v6.37h-1V93.82a3.31,3.31,0,0,0-.45-1.88,1.59,1.59,0,0,0-1.38-.61,2,2,0,0,0-1.37.58,3.55,3.55,0,0,0-.93,1.58v6.6h-1V90.58Z" transform="translate(0 0)" fill="#4d4d4d"/>
          <path d="M455.37,95.05a16.19,16.19,0,0,1-.43,3.79,13.22,13.22,0,0,1-1.24,3.27,6.36,6.36,0,0,1-1.72,2.11l-.22-.7a6.37,6.37,0,0,0,1.54-2.4,16.35,16.35,0,0,0,1.1-6.23,17.09,17.09,0,0,0-.35-3.47,13.9,13.9,0,0,0-1-3,5.89,5.89,0,0,0-1.32-2l.22-.7a6.7,6.7,0,0,1,1.81,2.32A15,15,0,0,1,455.37,95.05Z" transform="translate(0 0)" fill="#4d4d4d"/>
          <path d="M462.22,100.09V87.29h3.24a3.62,3.62,0,0,1,2.62.85,3.27,3.27,0,0,1,.9,2.5,3.21,3.21,0,0,1-.46,1.71,2.57,2.57,0,0,1-1.27,1.05,2.5,2.5,0,0,1,1.51,1.09,3.5,3.5,0,0,1,.58,2,3.69,3.69,0,0,1-.92,2.64,3.41,3.41,0,0,1-2.59,1Zm1-7.07h2.33a2.43,2.43,0,0,0,1.77-.61,2.87,2.87,0,0,0,0-3.59,2.66,2.66,0,0,0-1.88-.58h-2.24Zm0,.91v5.23h2.65a2.36,2.36,0,0,0,1.81-.71,2.74,2.74,0,0,0,.65-2,2.66,2.66,0,0,0-.61-1.85,2.22,2.22,0,0,0-1.7-.72Z" transform="translate(0 0)" fill="#4d4d4d"/>
          <path d="M473.05,100.09h-1V87.29h1Z" transform="translate(0 0)" fill="#4d4d4d"/>
          <path d="M476.25,100.09V87.29h3a4.2,4.2,0,0,1,3.29,1.33,5.35,5.35,0,0,1,1.25,3.67V95a5.42,5.42,0,0,1-1.22,3.76,4.39,4.39,0,0,1-3.44,1.36Zm1-11.85V99.16h1.94a3.37,3.37,0,0,0,2.65-1.06,4.53,4.53,0,0,0,1-3V92.39a4.64,4.64,0,0,0-.92-3.06,3.27,3.27,0,0,0-2.66-1.09Z" transform="translate(0 0)" fill="#4d4d4d"/>
        </g>
        <g>
          <path d="M271.88,129.11h1a2.36,2.36,0,0,0,1.73-.68,2.47,2.47,0,0,0,.67-1.8,2.89,2.89,0,0,0-.57-1.92,2,2,0,0,0-1.62-.68,2.09,2.09,0,0,0-1.65.72,2.81,2.81,0,0,0-.63,1.9h-1a3.86,3.86,0,0,1,.41-1.81,3.07,3.07,0,0,1,1.16-1.26,3.13,3.13,0,0,1,1.68-.47,3,3,0,0,1,2.3.94,3.74,3.74,0,0,1,.86,2.62,3.06,3.06,0,0,1-.5,1.72,3,3,0,0,1-1.33,1.14,2.74,2.74,0,0,1,1.5,1.11,3.51,3.51,0,0,1,.53,2,3.77,3.77,0,0,1-.92,2.66,3.13,3.13,0,0,1-2.42,1,3.51,3.51,0,0,1-1.75-.45,3,3,0,0,1-1.24-1.27,4,4,0,0,1-.43-1.92h1a2.85,2.85,0,0,0,.68,2,2.28,2.28,0,0,0,1.77.77,2.18,2.18,0,0,0,1.74-.7,3,3,0,0,0,.62-2,2.67,2.67,0,0,0-.66-1.94,2.7,2.7,0,0,0-1.94-.68h-.95Z" transform="translate(0 0)" fill="#4d4d4d"/>
          <path d="M283.74,126.58l0,1.42a2.77,2.77,0,0,1,2.55-1.6,2.26,2.26,0,0,1,2.37,1.75,3.25,3.25,0,0,1,1.16-1.31,2.87,2.87,0,0,1,1.54-.44c1.71,0,2.59,1.1,2.63,3.31v6.38h-1v-6.32a3.19,3.19,0,0,0-.45-1.83,1.67,1.67,0,0,0-1.45-.61,2,2,0,0,0-1.52.71,2.81,2.81,0,0,0-.72,1.72v6.33h-1v-6.3a3,3,0,0,0-.46-1.85,1.71,1.71,0,0,0-1.44-.61,1.94,1.94,0,0,0-1.38.56,3.16,3.16,0,0,0-.85,1.58v6.62h-1v-9.51Z" transform="translate(0 0)" fill="#4d4d4d"/>
          <path d="M296.22,130.89a5.93,5.93,0,0,1,.78-3.37,2.64,2.64,0,0,1,2.32-1.12,2.6,2.6,0,0,1,2.44,1.5l.05-1.32h.91v9.78a3.84,3.84,0,0,1-.82,2.62,3,3,0,0,1-2.37.9,3.57,3.57,0,0,1-1.58-.39,3.29,3.29,0,0,1-1.21-.94l.46-.7a2.93,2.93,0,0,0,2.26,1.11,2.17,2.17,0,0,0,1.73-.63,3,3,0,0,0,.55-1.92V134.9a2.64,2.64,0,0,1-2.43,1.36,2.6,2.6,0,0,1-2.27-1.11,5.69,5.69,0,0,1-.82-3.23Zm1,.89a5.08,5.08,0,0,0,.55,2.69,1.93,1.93,0,0,0,1.74.86,2.28,2.28,0,0,0,2.24-1.5V129a2.28,2.28,0,0,0-2.22-1.63,2,2,0,0,0-1.75.85,4.94,4.94,0,0,0-.56,2.64Z" transform="translate(0 0)" fill="#4d4d4d"/>
          <path d="M309.26,130.92a15.63,15.63,0,0,1,.46-3.83A13.58,13.58,0,0,1,311,123.8a6.45,6.45,0,0,1,1.67-2.07l.23.74a5.76,5.76,0,0,0-1.34,1.92,13.38,13.38,0,0,0-1,3,18.53,18.53,0,0,0-.35,3.7,17.38,17.38,0,0,0,.35,3.5,13,13,0,0,0,1,3,6,6,0,0,0,1.34,2l-.23.7a5.51,5.51,0,0,1-1.21-1.3,10.36,10.36,0,0,1-1.11-2.08,15.61,15.61,0,0,1-.78-2.65A16.92,16.92,0,0,1,309.26,130.92Z" transform="translate(0 0)" fill="#4d4d4d"/>
          <path d="M316.43,129.11h1a2.36,2.36,0,0,0,1.73-.68,2.43,2.43,0,0,0,.67-1.8,2.89,2.89,0,0,0-.57-1.92,2,2,0,0,0-1.62-.68,2.09,2.09,0,0,0-1.65.72,2.81,2.81,0,0,0-.63,1.9h-1a3.86,3.86,0,0,1,.41-1.81,3.07,3.07,0,0,1,1.16-1.26,3.13,3.13,0,0,1,1.68-.47,3,3,0,0,1,2.3.94,3.7,3.7,0,0,1,.86,2.62,3.13,3.13,0,0,1-.49,1.72,3.07,3.07,0,0,1-1.33,1.14,2.76,2.76,0,0,1,1.49,1.11,3.51,3.51,0,0,1,.53,2,3.77,3.77,0,0,1-.92,2.66,3.12,3.12,0,0,1-2.41,1,3.52,3.52,0,0,1-1.76-.45,3,3,0,0,1-1.24-1.27,4,4,0,0,1-.43-1.92h1a2.85,2.85,0,0,0,.68,2,2.29,2.29,0,0,0,1.78.77,2.17,2.17,0,0,0,1.73-.7,3,3,0,0,0,.62-2,2.35,2.35,0,0,0-2.6-2.62h-.95Z" transform="translate(0 0)" fill="#4d4d4d"/>
          <path d="M328.3,126.58l0,1.42a2.77,2.77,0,0,1,2.55-1.6,2.25,2.25,0,0,1,2.37,1.75,3.25,3.25,0,0,1,1.16-1.31,2.9,2.9,0,0,1,1.54-.44c1.71,0,2.59,1.1,2.63,3.31v6.38h-1v-6.32a3.19,3.19,0,0,0-.45-1.83,1.66,1.66,0,0,0-1.44-.61,2.05,2.05,0,0,0-1.53.71,2.74,2.74,0,0,0-.71,1.72v6.33h-1v-6.3a3,3,0,0,0-.46-1.85,1.71,1.71,0,0,0-1.44-.61,1.94,1.94,0,0,0-1.38.56,3.23,3.23,0,0,0-.85,1.58v6.62h-1v-9.51Z" transform="translate(0 0)" fill="#4d4d4d"/>
          <path d="M342.34,135.16h5.27v.93h-6.28v-12.8h1Z" transform="translate(0 0)" fill="#4d4d4d"/>
          <path d="M353.14,130.85a5.15,5.15,0,0,1,.93-3.25,3.32,3.32,0,0,1,5.09,0,5.1,5.1,0,0,1,.93,3.24v1a5.1,5.1,0,0,1-.93,3.26,3.34,3.34,0,0,1-5.05,0,5,5,0,0,1-1-3.15Zm1,1a4.44,4.44,0,0,0,.66,2.58,2.12,2.12,0,0,0,1.84.94,2.1,2.1,0,0,0,1.84-.91,4.48,4.48,0,0,0,.65-2.59v-1a4.38,4.38,0,0,0-.67-2.59,2.25,2.25,0,0,0-3.64,0,4.34,4.34,0,0,0-.68,2.53Z" transform="translate(0 0)" fill="#4d4d4d"/>
          <path d="M366.07,127.49a3.67,3.67,0,0,0-.61-.06,1.82,1.82,0,0,0-1.36.55,3.13,3.13,0,0,0-.78,1.54v6.57h-1v-9.51h1l0,1.42a2.29,2.29,0,0,1,2.18-1.6,1.18,1.18,0,0,1,.59.12Z" transform="translate(0 0)" fill="#4d4d4d"/>
          <path d="M372.45,136.09a6.26,6.26,0,0,1-.17-1.32,3.21,3.21,0,0,1-1.13,1.1,3,3,0,0,1-1.5.39,2.6,2.6,0,0,1-1.92-.69,3.12,3.12,0,0,1,.27-4.19,4,4,0,0,1,2.63-.83h1.64v-1.33a1.85,1.85,0,0,0-.51-1.46,2.16,2.16,0,0,0-1.48-.44,2.11,2.11,0,0,0-1.48.52,1.75,1.75,0,0,0-.58,1.37h-1a2.61,2.61,0,0,1,.88-2,3.14,3.14,0,0,1,2.21-.81,3,3,0,0,1,2.17.72,2.81,2.81,0,0,1,.73,2.1v4.67a6.4,6.4,0,0,0,.26,2.09v.11Zm-2.68-.77a2.67,2.67,0,0,0,1.53-.45,2.58,2.58,0,0,0,1-1.19v-2.31h-1.55a3.11,3.11,0,0,0-2,.59,1.93,1.93,0,0,0-.68,1.55C368,134.72,368.61,135.32,369.77,135.32Z" transform="translate(0 0)" fill="#4d4d4d"/>
          <path d="M377,136.09h-1v-13.5h1Z" transform="translate(0 0)" fill="#4d4d4d"/>
          <path d="M388.48,133.74a1.4,1.4,0,0,0-.51-1.07,7,7,0,0,0-1.72-1,9.19,9.19,0,0,1-1.7-.91,2.54,2.54,0,0,1-.72-.8,2.14,2.14,0,0,1-.22-1,2.33,2.33,0,0,1,.79-1.81,2.91,2.91,0,0,1,2-.72,3,3,0,0,1,2.17.77,2.64,2.64,0,0,1,.81,2h-1a1.8,1.8,0,0,0-.55-1.34,2,2,0,0,0-1.45-.53,2,2,0,0,0-1.36.44,1.43,1.43,0,0,0-.51,1.14,1.21,1.21,0,0,0,.39.93,7.64,7.64,0,0,0,1.67,1,10.81,10.81,0,0,1,1.83,1,2.68,2.68,0,0,1,.75.84,2.24,2.24,0,0,1,.26,1.1,2.32,2.32,0,0,1-.82,1.87,3.21,3.21,0,0,1-2.15.69,3.29,3.29,0,0,1-2.29-.77,2.53,2.53,0,0,1-.88-2h1a1.84,1.84,0,0,0,.59,1.37,2.31,2.31,0,0,0,1.59.49,2.25,2.25,0,0,0,1.44-.44A1.42,1.42,0,0,0,388.48,133.74Z" transform="translate(0 0)" fill="#4d4d4d"/>
          <path d="M391.39,130.85a5.15,5.15,0,0,1,.93-3.25,3.32,3.32,0,0,1,5.09,0,5.1,5.1,0,0,1,.93,3.24v1a5.1,5.1,0,0,1-.93,3.26,3.34,3.34,0,0,1-5.05,0,5,5,0,0,1-1-3.15Zm1,1a4.44,4.44,0,0,0,.66,2.58,2.12,2.12,0,0,0,1.84.94,2.1,2.1,0,0,0,1.84-.91,4.48,4.48,0,0,0,.65-2.59v-1a4.38,4.38,0,0,0-.67-2.59,2.25,2.25,0,0,0-3.64,0,4.34,4.34,0,0,0-.68,2.53Z" transform="translate(0 0)" fill="#4d4d4d"/>
          <path d="M401.68,136.09h-1v-13.5h1Z" transform="translate(0 0)" fill="#4d4d4d"/>
          <path d="M409.48,135a2.72,2.72,0,0,1-2.5,1.31,2.29,2.29,0,0,1-2-.89,4.43,4.43,0,0,1-.66-2.64v-6.15h1v6.12a3.5,3.5,0,0,0,.46,2,1.48,1.48,0,0,0,1.32.67,2.25,2.25,0,0,0,2.36-1.79v-7h1v9.51h-.95Z" transform="translate(0 0)" fill="#4d4d4d"/>
          <path d="M414.52,124.15v2.43h1.62v.88h-1.62v6.32a2.22,2.22,0,0,0,.23,1.16.82.82,0,0,0,.78.38,4,4,0,0,0,.7-.09l0,.88a2.47,2.47,0,0,1-1,.15c-1.14,0-1.73-.78-1.76-2.35v-6.45h-1.47v-.88h1.47v-2.43Z" transform="translate(0 0)" fill="#4d4d4d"/>
          <path d="M418.23,123.84a.8.8,0,0,1,.17-.51.55.55,0,0,1,.48-.22.58.58,0,0,1,.48.22.8.8,0,0,1,.17.51.8.8,0,0,1-.17.5.6.6,0,0,1-.48.21.57.57,0,0,1-.48-.21A.8.8,0,0,1,418.23,123.84Zm1.13,12.25h-1v-9.51h1Z" transform="translate(0 0)" fill="#4d4d4d"/>
          <path d="M421.69,130.85a5.15,5.15,0,0,1,.93-3.25,3.31,3.31,0,0,1,5.08,0,5.16,5.16,0,0,1,.94,3.24v1a5,5,0,0,1-.94,3.26,3,3,0,0,1-2.52,1.17,3.08,3.08,0,0,1-2.52-1.14,4.91,4.91,0,0,1-1-3.15Zm1,1a4.36,4.36,0,0,0,.67,2.58,2.29,2.29,0,0,0,3.68,0,4.55,4.55,0,0,0,.65-2.59v-1a4.45,4.45,0,0,0-.67-2.59,2.13,2.13,0,0,0-1.84-.94,2.08,2.08,0,0,0-1.8.92,4.27,4.27,0,0,0-.69,2.53Z" transform="translate(0 0)" fill="#4d4d4d"/>
          <path d="M431.82,126.58l0,1.51a3.41,3.41,0,0,1,1.08-1.23,2.48,2.48,0,0,1,1.49-.46c1.65,0,2.5,1.11,2.54,3.32v6.37h-1v-6.27a3.31,3.31,0,0,0-.45-1.88,1.59,1.59,0,0,0-1.38-.61,2,2,0,0,0-1.38.58,3.64,3.64,0,0,0-.92,1.58v6.6h-1v-9.51Z" transform="translate(0 0)" fill="#4d4d4d"/>
          <path d="M442.3,131.05a16.19,16.19,0,0,1-.44,3.79,12.83,12.83,0,0,1-1.24,3.27,6.23,6.23,0,0,1-1.71,2.11l-.22-.7a6.37,6.37,0,0,0,1.53-2.4,16.16,16.16,0,0,0,1.1-6.23,17.09,17.09,0,0,0-.34-3.47,14.47,14.47,0,0,0-1-3,5.89,5.89,0,0,0-1.32-2l.22-.7a6.82,6.82,0,0,1,1.81,2.32A15,15,0,0,1,442.3,131.05Z" transform="translate(0 0)" fill="#4d4d4d"/>
          <path d="M449.15,136.09v-12.8h3.24a3.64,3.64,0,0,1,2.62.85,3.26,3.26,0,0,1,.89,2.5,3.21,3.21,0,0,1-.45,1.71,2.57,2.57,0,0,1-1.27,1.05,2.56,2.56,0,0,1,1.51,1.09,3.5,3.5,0,0,1,.57,2,3.68,3.68,0,0,1-.91,2.64,3.41,3.41,0,0,1-2.59,1Zm1-7.07h2.33a2.43,2.43,0,0,0,1.77-.61,2.37,2.37,0,0,0,.63-1.8,2.3,2.3,0,0,0-.62-1.79,2.62,2.62,0,0,0-1.87-.58h-2.24Zm0,.91v5.23h2.65a2.35,2.35,0,0,0,1.8-.71,2.74,2.74,0,0,0,.66-1.95,2.66,2.66,0,0,0-.61-1.85,2.24,2.24,0,0,0-1.7-.72Z" transform="translate(0 0)" fill="#4d4d4d"/>
          <path d="M460,136.09h-1v-12.8h1Z" transform="translate(0 0)" fill="#4d4d4d"/>
          <path d="M463.18,136.09v-12.8h3a4.23,4.23,0,0,1,3.29,1.33,5.35,5.35,0,0,1,1.25,3.67V131a5.37,5.37,0,0,1-1.23,3.76,4.37,4.37,0,0,1-3.44,1.36Zm1-11.85v10.92h1.95a3.38,3.38,0,0,0,2.65-1.06,4.53,4.53,0,0,0,1-3v-2.68a4.64,4.64,0,0,0-.92-3.06,3.27,3.27,0,0,0-2.66-1.09Z" transform="translate(0 0)" fill="#4d4d4d"/>
        </g>
        <g>
          <path d="M258.83,165.11h1a2.36,2.36,0,0,0,1.73-.68,2.47,2.47,0,0,0,.67-1.8,2.89,2.89,0,0,0-.57-1.92A2,2,0,0,0,260,160a2.09,2.09,0,0,0-1.65.72,2.81,2.81,0,0,0-.63,1.9h-1a3.86,3.86,0,0,1,.41-1.81,3.07,3.07,0,0,1,1.16-1.26,3.13,3.13,0,0,1,1.68-.47,3,3,0,0,1,2.3.94,3.7,3.7,0,0,1,.86,2.62,3.13,3.13,0,0,1-.49,1.72,3.09,3.09,0,0,1-1.34,1.14,2.74,2.74,0,0,1,1.5,1.11,3.51,3.51,0,0,1,.53,2,3.77,3.77,0,0,1-.92,2.66,3.13,3.13,0,0,1-2.42,1,3.51,3.51,0,0,1-1.75-.45,3,3,0,0,1-1.24-1.27,4,4,0,0,1-.43-1.92h1a2.85,2.85,0,0,0,.68,2,2.28,2.28,0,0,0,1.77.77,2.18,2.18,0,0,0,1.74-.7,3,3,0,0,0,.62-2,2.67,2.67,0,0,0-.66-1.94,2.7,2.7,0,0,0-1.94-.68h-.95Z" transform="translate(0 0)" fill="#4d4d4d"/>
          <path d="M265.73,171.45a.74.74,0,0,1,.2-.54.71.71,0,0,1,.55-.21.74.74,0,0,1,.55.21.78.78,0,0,1,.2.54.73.73,0,0,1-.2.51.77.77,0,0,1-.55.2.74.74,0,0,1-.55-.2A.69.69,0,0,1,265.73,171.45Z" transform="translate(0 0)" fill="#4d4d4d"/>
          <path d="M270.52,165.53l.53-6.24h5.4v1h-4.57l-.36,4.29a3,3,0,0,1,2-.7,2.73,2.73,0,0,1,2.32,1.13,4.84,4.84,0,0,1,.86,3,5.13,5.13,0,0,1-.84,3.13,2.84,2.84,0,0,1-2.4,1.12,3,3,0,0,1-2.3-.94,4.17,4.17,0,0,1-1-2.6h.93a3.34,3.34,0,0,0,.73,2,2.08,2.08,0,0,0,1.63.67,1.91,1.91,0,0,0,1.69-.87,4.48,4.48,0,0,0,.57-2.46,3.73,3.73,0,0,0-.64-2.28,2,2,0,0,0-1.75-.88,2.79,2.79,0,0,0-1.09.2,2.86,2.86,0,0,0-.93.72Z" transform="translate(0 0)" fill="#4d4d4d"/>
          <path d="M283.75,162.58l0,1.42a2.77,2.77,0,0,1,2.55-1.6,2.25,2.25,0,0,1,2.37,1.75,3.25,3.25,0,0,1,1.16-1.31,2.9,2.9,0,0,1,1.54-.44c1.71,0,2.59,1.1,2.63,3.31v6.38h-1v-6.32a3.19,3.19,0,0,0-.45-1.83,1.66,1.66,0,0,0-1.44-.61,2.05,2.05,0,0,0-1.53.71,2.74,2.74,0,0,0-.71,1.72v6.33h-1v-6.3a3,3,0,0,0-.46-1.85,1.71,1.71,0,0,0-1.44-.61,1.94,1.94,0,0,0-1.38.56,3.23,3.23,0,0,0-.85,1.58v6.62h-1v-9.51Z" transform="translate(0 0)" fill="#4d4d4d"/>
          <path d="M296.23,166.89a5.94,5.94,0,0,1,.77-3.37,2.65,2.65,0,0,1,2.32-1.12,2.59,2.59,0,0,1,2.44,1.5l.06-1.32h.9v9.78a3.79,3.79,0,0,1-.82,2.62,3,3,0,0,1-2.37.9,3.57,3.57,0,0,1-1.58-.39,3.17,3.17,0,0,1-1.2-.94l.45-.7a2.94,2.94,0,0,0,2.26,1.11,2.17,2.17,0,0,0,1.73-.63,3,3,0,0,0,.55-1.92V170.9a2.63,2.63,0,0,1-2.43,1.36,2.6,2.6,0,0,1-2.27-1.11,5.61,5.61,0,0,1-.81-3.23Zm1,.89a5.17,5.17,0,0,0,.55,2.69,1.93,1.93,0,0,0,1.74.86,2.28,2.28,0,0,0,2.24-1.5V165a2.28,2.28,0,0,0-2.22-1.63,2,2,0,0,0-1.75.85,5,5,0,0,0-.56,2.64Z" transform="translate(0 0)" fill="#4d4d4d"/>
          <path d="M309.26,166.92a16.13,16.13,0,0,1,.46-3.83A13.58,13.58,0,0,1,311,159.8a6.45,6.45,0,0,1,1.67-2.07l.23.74a5.75,5.75,0,0,0-1.33,1.92,12.88,12.88,0,0,0-1,3,18.56,18.56,0,0,0-.34,3.7,17.39,17.39,0,0,0,.34,3.5,13.54,13.54,0,0,0,1,3,6,6,0,0,0,1.33,2l-.23.7a5.51,5.51,0,0,1-1.21-1.3,9.87,9.87,0,0,1-1.1-2.08,14,14,0,0,1-.78-2.65A16.12,16.12,0,0,1,309.26,166.92Z" transform="translate(0 0)" fill="#4d4d4d"/>
          <path d="M316.43,165.11h1a2.38,2.38,0,0,0,1.74-.68,2.46,2.46,0,0,0,.66-1.8,2.89,2.89,0,0,0-.57-1.92,2,2,0,0,0-1.62-.68,2.09,2.09,0,0,0-1.65.72,2.81,2.81,0,0,0-.62,1.9h-1a4,4,0,0,1,.41-1.81,3.07,3.07,0,0,1,1.16-1.26,3.18,3.18,0,0,1,1.68-.47,3,3,0,0,1,2.3.94,3.7,3.7,0,0,1,.87,2.62,3.14,3.14,0,0,1-.5,1.72,3.07,3.07,0,0,1-1.33,1.14,2.76,2.76,0,0,1,1.49,1.11,3.51,3.51,0,0,1,.53,2,3.77,3.77,0,0,1-.92,2.66,3.11,3.11,0,0,1-2.41,1,3.52,3.52,0,0,1-1.76-.45,3,3,0,0,1-1.23-1.27,3.89,3.89,0,0,1-.44-1.92h1a2.8,2.8,0,0,0,.68,2,2.25,2.25,0,0,0,1.77.77,2.17,2.17,0,0,0,1.73-.7,2.9,2.9,0,0,0,.62-2,2.35,2.35,0,0,0-2.6-2.62h-.95Z" transform="translate(0 0)" fill="#4d4d4d"/>
          <path d="M323.33,171.45a.78.78,0,0,1,.2-.54.71.71,0,0,1,.55-.21.72.72,0,0,1,.55.21.74.74,0,0,1,.2.54.69.69,0,0,1-.2.51.76.76,0,0,1-.55.2.74.74,0,0,1-.55-.2A.73.73,0,0,1,323.33,171.45Z" transform="translate(0 0)" fill="#4d4d4d"/>
          <path d="M328.12,165.53l.53-6.24h5.4v1h-4.57l-.36,4.29a3.05,3.05,0,0,1,2-.7,2.75,2.75,0,0,1,2.33,1.13,4.83,4.83,0,0,1,.85,3,5.13,5.13,0,0,1-.84,3.13,2.81,2.81,0,0,1-2.4,1.12,3,3,0,0,1-2.29-.94,4.12,4.12,0,0,1-1-2.6h.93a3.41,3.41,0,0,0,.73,2,2.09,2.09,0,0,0,1.63.67,1.9,1.9,0,0,0,1.69-.87,4.39,4.39,0,0,0,.58-2.46,3.74,3.74,0,0,0-.65-2.28,2,2,0,0,0-1.74-.88,2.75,2.75,0,0,0-1.09.2,2.66,2.66,0,0,0-.93.72Z" transform="translate(0 0)" fill="#4d4d4d"/>
          <path d="M341.35,162.58l0,1.42a2.77,2.77,0,0,1,2.54-1.6,2.27,2.27,0,0,1,2.38,1.75,3.23,3.23,0,0,1,1.15-1.31,2.91,2.91,0,0,1,1.55-.44c1.71,0,2.58,1.1,2.62,3.31v6.38h-1v-6.32a3.19,3.19,0,0,0-.46-1.83,1.64,1.64,0,0,0-1.44-.61,2.09,2.09,0,0,0-1.53.71,2.8,2.8,0,0,0-.71,1.72v6.33h-1v-6.3a3,3,0,0,0-.46-1.85,1.68,1.68,0,0,0-1.43-.61,2,2,0,0,0-1.39.56,3.23,3.23,0,0,0-.85,1.58v6.62h-1v-9.51Z" transform="translate(0 0)" fill="#4d4d4d"/>
          <path d="M355.39,171.16h5.28v.93h-6.29v-12.8h1Z" transform="translate(0 0)" fill="#4d4d4d"/>
          <path d="M366.2,166.85a5.15,5.15,0,0,1,.93-3.25,3.31,3.31,0,0,1,5.08,0,5.16,5.16,0,0,1,.94,3.24v1a5,5,0,0,1-.94,3.26,3,3,0,0,1-2.52,1.17,3.09,3.09,0,0,1-2.53-1.14,5,5,0,0,1-1-3.15Zm1,1a4.44,4.44,0,0,0,.66,2.58,2.14,2.14,0,0,0,1.85.94,2.11,2.11,0,0,0,1.84-.91,4.48,4.48,0,0,0,.64-2.59v-1a4.38,4.38,0,0,0-.67-2.59,2.11,2.11,0,0,0-1.83-.94,2.08,2.08,0,0,0-1.8.92,4.27,4.27,0,0,0-.69,2.53Z" transform="translate(0 0)" fill="#4d4d4d"/>
          <path d="M379.12,163.49a3.58,3.58,0,0,0-.61-.06,1.84,1.84,0,0,0-1.36.55,3.3,3.3,0,0,0-.78,1.54v6.57h-1v-9.51h1V164a2.3,2.3,0,0,1,2.18-1.6,1.16,1.16,0,0,1,.59.12Z" transform="translate(0 0)" fill="#4d4d4d"/>
          <path d="M385.52,172.09a7,7,0,0,1-.17-1.32,3.13,3.13,0,0,1-1.13,1.1,3,3,0,0,1-1.5.39,2.6,2.6,0,0,1-1.92-.69,2.72,2.72,0,0,1-.68-2,2.77,2.77,0,0,1,.95-2.21,4,4,0,0,1,2.64-.83h1.63v-1.33a1.85,1.85,0,0,0-.51-1.46,2.15,2.15,0,0,0-1.48-.44,2.11,2.11,0,0,0-1.48.52,1.75,1.75,0,0,0-.58,1.37h-1a2.65,2.65,0,0,1,.88-2,3.14,3.14,0,0,1,2.21-.81,3,3,0,0,1,2.17.72,2.81,2.81,0,0,1,.74,2.1v4.67a6.45,6.45,0,0,0,.25,2.09v.11Zm-2.68-.77a2.65,2.65,0,0,0,1.53-.45,2.58,2.58,0,0,0,1-1.19v-2.31h-1.55a3.11,3.11,0,0,0-2,.59,1.93,1.93,0,0,0-.68,1.55C381.1,170.72,381.68,171.32,382.84,171.32Z" transform="translate(0 0)" fill="#4d4d4d"/>
          <path d="M390.06,172.09h-1v-13.5h1Z" transform="translate(0 0)" fill="#4d4d4d"/>
          <path d="M401.56,169.74a1.4,1.4,0,0,0-.51-1.07,7.07,7.07,0,0,0-1.73-1,9.55,9.55,0,0,1-1.7-.91,2.5,2.5,0,0,1-.71-.8,2,2,0,0,1-.23-1,2.33,2.33,0,0,1,.79-1.81,2.93,2.93,0,0,1,2-.72,3,3,0,0,1,2.16.77,2.64,2.64,0,0,1,.81,2h-1a1.76,1.76,0,0,0-.55-1.34,2.28,2.28,0,0,0-2.81-.09,1.43,1.43,0,0,0-.51,1.14,1.21,1.21,0,0,0,.39.93,7.91,7.91,0,0,0,1.67,1,10,10,0,0,1,1.83,1,2.72,2.72,0,0,1,.76.84,2.24,2.24,0,0,1,.25,1.1,2.32,2.32,0,0,1-.82,1.87,3.21,3.21,0,0,1-2.15.69,3.31,3.31,0,0,1-2.29-.77,2.56,2.56,0,0,1-.87-2h1a1.88,1.88,0,0,0,.59,1.37,2.31,2.31,0,0,0,1.59.49,2.23,2.23,0,0,0,1.44-.44A1.43,1.43,0,0,0,401.56,169.74Z" transform="translate(0 0)" fill="#4d4d4d"/>
          <path d="M404.46,166.85a5.15,5.15,0,0,1,.94-3.25,3.31,3.31,0,0,1,5.08,0,5.16,5.16,0,0,1,.94,3.24v1a5,5,0,0,1-.94,3.26,3.34,3.34,0,0,1-5.05,0,5,5,0,0,1-1-3.15Zm1,1a4.44,4.44,0,0,0,.66,2.58,2.12,2.12,0,0,0,1.84.94,2.09,2.09,0,0,0,1.84-.91,4.4,4.4,0,0,0,.65-2.59v-1a4.38,4.38,0,0,0-.67-2.59,2.25,2.25,0,0,0-3.64,0,4.34,4.34,0,0,0-.68,2.53Z" transform="translate(0 0)" fill="#4d4d4d"/>
          <path d="M414.76,172.09h-1v-13.5h1Z" transform="translate(0 0)" fill="#4d4d4d"/>
          <path d="M422.55,171a2.72,2.72,0,0,1-2.5,1.31,2.28,2.28,0,0,1-1.95-.89,4.43,4.43,0,0,1-.67-2.64v-6.15h1v6.12a3.51,3.51,0,0,0,.45,2,1.5,1.5,0,0,0,1.32.67,2.26,2.26,0,0,0,2.37-1.79v-7h1v9.51h-.95Z" transform="translate(0 0)" fill="#4d4d4d"/>
          <path d="M427.59,160.15v2.43h1.62v.88h-1.62v6.32a2.32,2.32,0,0,0,.23,1.16.84.84,0,0,0,.78.38,4,4,0,0,0,.7-.09l0,.88a2.4,2.4,0,0,1-1,.15c-1.14,0-1.73-.78-1.76-2.35v-6.45h-1.46v-.88h1.46v-2.43Z" transform="translate(0 0)" fill="#4d4d4d"/>
          <path d="M431.31,159.84a.8.8,0,0,1,.16-.51.55.55,0,0,1,.48-.22.58.58,0,0,1,.48.22.8.8,0,0,1,.17.51.8.8,0,0,1-.17.5.6.6,0,0,1-.48.21.57.57,0,0,1-.48-.21A.79.79,0,0,1,431.31,159.84Zm1.12,12.25h-1v-9.51h1Z" transform="translate(0 0)" fill="#4d4d4d"/>
          <path d="M434.76,166.85a5.15,5.15,0,0,1,.93-3.25,3.32,3.32,0,0,1,5.09,0,5.16,5.16,0,0,1,.93,3.24v1a5.1,5.1,0,0,1-.93,3.26,3.34,3.34,0,0,1-5,0,5,5,0,0,1-1-3.15Zm1,1a4.44,4.44,0,0,0,.66,2.58,2.29,2.29,0,0,0,3.68,0,4.48,4.48,0,0,0,.65-2.59v-1a4.45,4.45,0,0,0-.67-2.59,2.13,2.13,0,0,0-1.84-.94,2.11,2.11,0,0,0-1.8.92,4.34,4.34,0,0,0-.68,2.53Z" transform="translate(0 0)" fill="#4d4d4d"/>
          <path d="M444.89,162.58l0,1.51a3.41,3.41,0,0,1,1.08-1.23,2.48,2.48,0,0,1,1.49-.46c1.66,0,2.51,1.11,2.55,3.32v6.37h-1v-6.27a3.31,3.31,0,0,0-.45-1.88,1.59,1.59,0,0,0-1.38-.61,2,2,0,0,0-1.37.58,3.55,3.55,0,0,0-.93,1.58v6.6h-1v-9.51Z" transform="translate(0 0)" fill="#4d4d4d"/>
          <path d="M455.37,167.05a16.19,16.19,0,0,1-.43,3.79,13.22,13.22,0,0,1-1.24,3.27,6.36,6.36,0,0,1-1.72,2.11l-.22-.7a6.37,6.37,0,0,0,1.54-2.4,16.35,16.35,0,0,0,1.1-6.23,17.09,17.09,0,0,0-.35-3.47,13.9,13.9,0,0,0-1-3,5.89,5.89,0,0,0-1.32-2l.22-.7a6.7,6.7,0,0,1,1.81,2.32A15,15,0,0,1,455.37,167.05Z" transform="translate(0 0)" fill="#4d4d4d"/>
          <path d="M462.22,172.09v-12.8h3.24a3.62,3.62,0,0,1,2.62.85,3.27,3.27,0,0,1,.9,2.5,3.21,3.21,0,0,1-.46,1.71,2.57,2.57,0,0,1-1.27,1.05,2.5,2.5,0,0,1,1.51,1.09,3.5,3.5,0,0,1,.58,2,3.69,3.69,0,0,1-.92,2.64,3.41,3.41,0,0,1-2.59,1Zm1-7.07h2.33a2.43,2.43,0,0,0,1.77-.61,2.87,2.87,0,0,0,0-3.59,2.66,2.66,0,0,0-1.88-.58h-2.24Zm0,.91v5.23h2.65a2.36,2.36,0,0,0,1.81-.71,2.74,2.74,0,0,0,.65-1.95,2.66,2.66,0,0,0-.61-1.85,2.22,2.22,0,0,0-1.7-.72Z" transform="translate(0 0)" fill="#4d4d4d"/>
          <path d="M473.05,172.09h-1v-12.8h1Z" transform="translate(0 0)" fill="#4d4d4d"/>
          <path d="M476.25,172.09v-12.8h3a4.2,4.2,0,0,1,3.29,1.33,5.35,5.35,0,0,1,1.25,3.67V167a5.42,5.42,0,0,1-1.22,3.76,4.39,4.39,0,0,1-3.44,1.36Zm1-11.85v10.92h1.94a3.37,3.37,0,0,0,2.65-1.06,4.53,4.53,0,0,0,1-3v-2.68a4.64,4.64,0,0,0-.92-3.06,3.27,3.27,0,0,0-2.66-1.09Z" transform="translate(0 0)" fill="#4d4d4d"/>
        </g>
        <g>
          <path d="M275.4,204h1.65v.91H275.4v3.22h-1v-3.22h-5v-.62l5-9h1Zm-4.83,0h3.86v-7.19l-.35.71Z" transform="translate(0 0)" fill="#4d4d4d"/>
          <path d="M283.74,198.58l0,1.42a2.77,2.77,0,0,1,2.55-1.6,2.26,2.26,0,0,1,2.37,1.75,3.25,3.25,0,0,1,1.16-1.31,2.87,2.87,0,0,1,1.54-.44c1.71,0,2.59,1.1,2.63,3.31v6.38h-1v-6.32a3.19,3.19,0,0,0-.45-1.83,1.67,1.67,0,0,0-1.45-.61,2,2,0,0,0-1.52.71,2.81,2.81,0,0,0-.72,1.72v6.33h-1v-6.3a3,3,0,0,0-.46-1.85,1.71,1.71,0,0,0-1.44-.61,1.94,1.94,0,0,0-1.38.56,3.16,3.16,0,0,0-.85,1.58v6.62h-1v-9.51Z" transform="translate(0 0)" fill="#4d4d4d"/>
          <path d="M296.22,202.89a5.93,5.93,0,0,1,.78-3.37,2.64,2.64,0,0,1,2.32-1.12,2.6,2.6,0,0,1,2.44,1.5l.05-1.32h.91v9.78a3.84,3.84,0,0,1-.82,2.62,3,3,0,0,1-2.37.9,3.57,3.57,0,0,1-1.58-.39,3.29,3.29,0,0,1-1.21-.94l.46-.7a2.93,2.93,0,0,0,2.26,1.11,2.17,2.17,0,0,0,1.73-.63,3,3,0,0,0,.55-1.92V206.9a2.64,2.64,0,0,1-2.43,1.36,2.6,2.6,0,0,1-2.27-1.11,5.69,5.69,0,0,1-.82-3.23Zm1,.89a5.08,5.08,0,0,0,.55,2.69,1.93,1.93,0,0,0,1.74.86,2.28,2.28,0,0,0,2.24-1.5V201a2.28,2.28,0,0,0-2.22-1.63,2,2,0,0,0-1.75.85,4.94,4.94,0,0,0-.56,2.64Z" transform="translate(0 0)" fill="#4d4d4d"/>
          <path d="M309.26,202.92a15.63,15.63,0,0,1,.46-3.83A13.58,13.58,0,0,1,311,195.8a6.45,6.45,0,0,1,1.67-2.07l.23.74a5.76,5.76,0,0,0-1.34,1.92,13.38,13.38,0,0,0-1,3,18.53,18.53,0,0,0-.35,3.7,17.38,17.38,0,0,0,.35,3.5,13,13,0,0,0,1,3,6,6,0,0,0,1.34,2l-.23.7a5.51,5.51,0,0,1-1.21-1.3,10.36,10.36,0,0,1-1.11-2.08,15.61,15.61,0,0,1-.78-2.65A16.92,16.92,0,0,1,309.26,202.92Z" transform="translate(0 0)" fill="#4d4d4d"/>
          <path d="M320,204h1.64v.91H320v3.22h-1v-3.22h-5v-.62l4.95-9H320Zm-4.84,0H319v-7.19l-.35.71Z" transform="translate(0 0)" fill="#4d4d4d"/>
          <path d="M328.3,198.58l0,1.42a2.77,2.77,0,0,1,2.55-1.6,2.25,2.25,0,0,1,2.37,1.75,3.25,3.25,0,0,1,1.16-1.31,2.9,2.9,0,0,1,1.54-.44c1.71,0,2.59,1.1,2.63,3.31v6.38h-1v-6.32a3.19,3.19,0,0,0-.45-1.83,1.66,1.66,0,0,0-1.44-.61,2.05,2.05,0,0,0-1.53.71,2.74,2.74,0,0,0-.71,1.72v6.33h-1v-6.3a3,3,0,0,0-.46-1.85,1.71,1.71,0,0,0-1.44-.61,1.94,1.94,0,0,0-1.38.56,3.23,3.23,0,0,0-.85,1.58v6.62h-1v-9.51Z" transform="translate(0 0)" fill="#4d4d4d"/>
          <path d="M342.34,207.16h5.27v.93h-6.28v-12.8h1Z" transform="translate(0 0)" fill="#4d4d4d"/>
          <path d="M353.14,202.85a5.15,5.15,0,0,1,.93-3.25,3.32,3.32,0,0,1,5.09,0,5.1,5.1,0,0,1,.93,3.24v1a5.1,5.1,0,0,1-.93,3.26,3.34,3.34,0,0,1-5.05,0,5,5,0,0,1-1-3.15Zm1,1a4.44,4.44,0,0,0,.66,2.58,2.12,2.12,0,0,0,1.84.94,2.1,2.1,0,0,0,1.84-.91,4.48,4.48,0,0,0,.65-2.59v-1a4.38,4.38,0,0,0-.67-2.59,2.25,2.25,0,0,0-3.64,0,4.34,4.34,0,0,0-.68,2.53Z" transform="translate(0 0)" fill="#4d4d4d"/>
          <path d="M366.07,199.49a3.67,3.67,0,0,0-.61-.06,1.82,1.82,0,0,0-1.36.55,3.13,3.13,0,0,0-.78,1.54v6.57h-1v-9.51h1l0,1.42a2.29,2.29,0,0,1,2.18-1.6,1.18,1.18,0,0,1,.59.12Z" transform="translate(0 0)" fill="#4d4d4d"/>
          <path d="M372.45,208.09a6.26,6.26,0,0,1-.17-1.32,3.21,3.21,0,0,1-1.13,1.1,3,3,0,0,1-1.5.39,2.6,2.6,0,0,1-1.92-.69,3.12,3.12,0,0,1,.27-4.19,4,4,0,0,1,2.63-.83h1.64v-1.33a1.85,1.85,0,0,0-.51-1.46,2.16,2.16,0,0,0-1.48-.44,2.11,2.11,0,0,0-1.48.52,1.75,1.75,0,0,0-.58,1.37h-1a2.61,2.61,0,0,1,.88-2,3.14,3.14,0,0,1,2.21-.81,3,3,0,0,1,2.17.72,2.81,2.81,0,0,1,.73,2.1v4.67a6.4,6.4,0,0,0,.26,2.09v.11Zm-2.68-.77a2.67,2.67,0,0,0,1.53-.45,2.58,2.58,0,0,0,1-1.19v-2.31h-1.55a3.11,3.11,0,0,0-2,.59,1.93,1.93,0,0,0-.68,1.55C368,206.72,368.61,207.32,369.77,207.32Z" transform="translate(0 0)" fill="#4d4d4d"/>
          <path d="M377,208.09h-1v-13.5h1Z" transform="translate(0 0)" fill="#4d4d4d"/>
          <path d="M388.48,205.74a1.4,1.4,0,0,0-.51-1.07,7,7,0,0,0-1.72-1,9.19,9.19,0,0,1-1.7-.91,2.54,2.54,0,0,1-.72-.8,2.14,2.14,0,0,1-.22-1,2.33,2.33,0,0,1,.79-1.81,2.91,2.91,0,0,1,2-.72,3,3,0,0,1,2.17.77,2.64,2.64,0,0,1,.81,2h-1a1.8,1.8,0,0,0-.55-1.34,2,2,0,0,0-1.45-.53,2,2,0,0,0-1.36.44,1.43,1.43,0,0,0-.51,1.14,1.21,1.21,0,0,0,.39.93,7.64,7.64,0,0,0,1.67,1,10.81,10.81,0,0,1,1.83,1,2.68,2.68,0,0,1,.75.84,2.24,2.24,0,0,1,.26,1.1,2.32,2.32,0,0,1-.82,1.87,3.21,3.21,0,0,1-2.15.69,3.29,3.29,0,0,1-2.29-.77,2.53,2.53,0,0,1-.88-2h1a1.84,1.84,0,0,0,.59,1.37,2.31,2.31,0,0,0,1.59.49,2.25,2.25,0,0,0,1.44-.44A1.42,1.42,0,0,0,388.48,205.74Z" transform="translate(0 0)" fill="#4d4d4d"/>
          <path d="M391.39,202.85a5.15,5.15,0,0,1,.93-3.25,3.32,3.32,0,0,1,5.09,0,5.1,5.1,0,0,1,.93,3.24v1a5.1,5.1,0,0,1-.93,3.26,3.34,3.34,0,0,1-5.05,0,5,5,0,0,1-1-3.15Zm1,1a4.44,4.44,0,0,0,.66,2.58,2.12,2.12,0,0,0,1.84.94,2.1,2.1,0,0,0,1.84-.91,4.48,4.48,0,0,0,.65-2.59v-1a4.38,4.38,0,0,0-.67-2.59,2.25,2.25,0,0,0-3.64,0,4.34,4.34,0,0,0-.68,2.53Z" transform="translate(0 0)" fill="#4d4d4d"/>
          <path d="M401.68,208.09h-1v-13.5h1Z" transform="translate(0 0)" fill="#4d4d4d"/>
          <path d="M409.48,207a2.72,2.72,0,0,1-2.5,1.31,2.29,2.29,0,0,1-2-.89,4.43,4.43,0,0,1-.66-2.64v-6.15h1v6.12a3.5,3.5,0,0,0,.46,2,1.48,1.48,0,0,0,1.32.67,2.25,2.25,0,0,0,2.36-1.79v-7h1v9.51h-.95Z" transform="translate(0 0)" fill="#4d4d4d"/>
          <path d="M414.52,196.15v2.43h1.62v.88h-1.62v6.32a2.22,2.22,0,0,0,.23,1.16.82.82,0,0,0,.78.38,4,4,0,0,0,.7-.09l0,.88a2.47,2.47,0,0,1-1,.15c-1.14,0-1.73-.78-1.76-2.35v-6.45h-1.47v-.88h1.47v-2.43Z" transform="translate(0 0)" fill="#4d4d4d"/>
          <path d="M418.23,195.84a.8.8,0,0,1,.17-.51.55.55,0,0,1,.48-.22.58.58,0,0,1,.48.22.8.8,0,0,1,.17.51.8.8,0,0,1-.17.5.6.6,0,0,1-.48.21.57.57,0,0,1-.48-.21A.8.8,0,0,1,418.23,195.84Zm1.13,12.25h-1v-9.51h1Z" transform="translate(0 0)" fill="#4d4d4d"/>
          <path d="M421.69,202.85a5.15,5.15,0,0,1,.93-3.25,3.31,3.31,0,0,1,5.08,0,5.16,5.16,0,0,1,.94,3.24v1a5,5,0,0,1-.94,3.26,3,3,0,0,1-2.52,1.17,3.08,3.08,0,0,1-2.52-1.14,4.91,4.91,0,0,1-1-3.15Zm1,1a4.36,4.36,0,0,0,.67,2.58,2.29,2.29,0,0,0,3.68,0,4.55,4.55,0,0,0,.65-2.59v-1a4.45,4.45,0,0,0-.67-2.59,2.13,2.13,0,0,0-1.84-.94,2.08,2.08,0,0,0-1.8.92,4.27,4.27,0,0,0-.69,2.53Z" transform="translate(0 0)" fill="#4d4d4d"/>
          <path d="M431.82,198.58l0,1.51a3.41,3.41,0,0,1,1.08-1.23,2.48,2.48,0,0,1,1.49-.46c1.65,0,2.5,1.11,2.54,3.32v6.37h-1v-6.27a3.31,3.31,0,0,0-.45-1.88,1.59,1.59,0,0,0-1.38-.61,2,2,0,0,0-1.38.58,3.64,3.64,0,0,0-.92,1.58v6.6h-1v-9.51Z" transform="translate(0 0)" fill="#4d4d4d"/>
          <path d="M442.3,203.05a16.19,16.19,0,0,1-.44,3.79,12.83,12.83,0,0,1-1.24,3.27,6.23,6.23,0,0,1-1.71,2.11l-.22-.7a6.37,6.37,0,0,0,1.53-2.4,16.16,16.16,0,0,0,1.1-6.23,17.09,17.09,0,0,0-.34-3.47,14.47,14.47,0,0,0-1-3,5.89,5.89,0,0,0-1.32-2l.22-.7a6.82,6.82,0,0,1,1.81,2.32A15,15,0,0,1,442.3,203.05Z" transform="translate(0 0)" fill="#4d4d4d"/>
          <path d="M449.15,208.09v-12.8h3.24a3.64,3.64,0,0,1,2.62.85,3.26,3.26,0,0,1,.89,2.5,3.21,3.21,0,0,1-.45,1.71,2.57,2.57,0,0,1-1.27,1.05,2.56,2.56,0,0,1,1.51,1.09,3.5,3.5,0,0,1,.57,2,3.68,3.68,0,0,1-.91,2.64,3.41,3.41,0,0,1-2.59,1Zm1-7.07h2.33a2.43,2.43,0,0,0,1.77-.61,2.37,2.37,0,0,0,.63-1.8,2.3,2.3,0,0,0-.62-1.79,2.62,2.62,0,0,0-1.87-.58h-2.24Zm0,.91v5.23h2.65a2.35,2.35,0,0,0,1.8-.71,2.74,2.74,0,0,0,.66-1.95,2.66,2.66,0,0,0-.61-1.85,2.24,2.24,0,0,0-1.7-.72Z" transform="translate(0 0)" fill="#4d4d4d"/>
          <path d="M460,208.09h-1v-12.8h1Z" transform="translate(0 0)" fill="#4d4d4d"/>
          <path d="M463.18,208.09v-12.8h3a4.23,4.23,0,0,1,3.29,1.33,5.35,5.35,0,0,1,1.25,3.67V203a5.37,5.37,0,0,1-1.23,3.76,4.37,4.37,0,0,1-3.44,1.36Zm1-11.85v10.92h1.95a3.38,3.38,0,0,0,2.65-1.06,4.53,4.53,0,0,0,1-3v-2.68a4.64,4.64,0,0,0-.92-3.06,3.27,3.27,0,0,0-2.66-1.09Z" transform="translate(0 0)" fill="#4d4d4d"/>
        </g>
        <g>
          <path d="M266.83,237.53l.52-6.24h5.41v1h-4.57l-.36,4.29a3,3,0,0,1,2-.7,2.75,2.75,0,0,1,2.32,1.13,4.84,4.84,0,0,1,.86,3,5.06,5.06,0,0,1-.85,3.13,2.81,2.81,0,0,1-2.4,1.12,3,3,0,0,1-2.29-.94,4.05,4.05,0,0,1-1-2.6h.93a3.28,3.28,0,0,0,.73,2,2.05,2.05,0,0,0,1.62.67,1.91,1.91,0,0,0,1.7-.87A4.48,4.48,0,0,0,272,240a3.73,3.73,0,0,0-.64-2.28,2.07,2.07,0,0,0-1.75-.88,2.79,2.79,0,0,0-1.09.2,2.86,2.86,0,0,0-.93.72Z" transform="translate(0 0)" fill="#4d4d4d"/>
          <path d="M280.05,234.58l0,1.42a2.77,2.77,0,0,1,2.55-1.6,2.26,2.26,0,0,1,2.37,1.75,3.25,3.25,0,0,1,1.16-1.31,2.87,2.87,0,0,1,1.54-.44c1.71,0,2.59,1.1,2.63,3.31v6.38h-1v-6.32a3.19,3.19,0,0,0-.45-1.83,1.67,1.67,0,0,0-1.45-.61,2.09,2.09,0,0,0-1.53.71,2.85,2.85,0,0,0-.71,1.72v6.33h-1v-6.3a3,3,0,0,0-.46-1.85,1.71,1.71,0,0,0-1.44-.61,1.93,1.93,0,0,0-1.38.56,3.16,3.16,0,0,0-.85,1.58v6.62h-1v-9.51Z" transform="translate(0 0)" fill="#4d4d4d"/>
          <path d="M292.53,238.89a5.93,5.93,0,0,1,.78-3.37,2.64,2.64,0,0,1,2.32-1.12,2.6,2.6,0,0,1,2.44,1.5l.05-1.32H299v9.78a3.84,3.84,0,0,1-.82,2.62,3,3,0,0,1-2.37.9,3.57,3.57,0,0,1-1.58-.39,3.29,3.29,0,0,1-1.21-.94l.46-.7a2.93,2.93,0,0,0,2.26,1.11,2.18,2.18,0,0,0,1.73-.63,2.89,2.89,0,0,0,.54-1.92V242.9a2.85,2.85,0,0,1-4.69.25,5.69,5.69,0,0,1-.82-3.23Zm1,.89a5.08,5.08,0,0,0,.55,2.69,1.93,1.93,0,0,0,1.74.86,2.26,2.26,0,0,0,2.23-1.5V237a2.26,2.26,0,0,0-2.21-1.63,2,2,0,0,0-1.75.85,4.94,4.94,0,0,0-.56,2.64Z" transform="translate(0 0)" fill="#4d4d4d"/>
          <path d="M305.57,238.92a15.63,15.63,0,0,1,.46-3.83,13.58,13.58,0,0,1,1.26-3.29,6.45,6.45,0,0,1,1.67-2.07l.23.74a5.76,5.76,0,0,0-1.34,1.92,13.38,13.38,0,0,0-1,3,18.53,18.53,0,0,0-.35,3.7,17.38,17.38,0,0,0,.35,3.5,13,13,0,0,0,1,3,6,6,0,0,0,1.34,2l-.23.7a5.51,5.51,0,0,1-1.21-1.3,10.36,10.36,0,0,1-1.11-2.08,15.61,15.61,0,0,1-.78-2.65A16.92,16.92,0,0,1,305.57,238.92Z" transform="translate(0 0)" fill="#4d4d4d"/>
          <path d="M310.54,238.85a5.15,5.15,0,0,1,.93-3.25,3.32,3.32,0,0,1,5.09,0,5.16,5.16,0,0,1,.94,3.24v1a5.1,5.1,0,0,1-.94,3.26,3.34,3.34,0,0,1-5.05,0,5,5,0,0,1-1-3.15Zm1,1a4.44,4.44,0,0,0,.66,2.58,2.12,2.12,0,0,0,1.84.94,2.1,2.1,0,0,0,1.84-.91,4.48,4.48,0,0,0,.65-2.59v-1a4.38,4.38,0,0,0-.67-2.59,2.25,2.25,0,0,0-3.64,0,4.34,4.34,0,0,0-.68,2.53Z" transform="translate(0 0)" fill="#4d4d4d"/>
          <path d="M320.68,234.58l0,1.51a3.41,3.41,0,0,1,1.08-1.23,2.51,2.51,0,0,1,1.49-.46c1.66,0,2.51,1.11,2.55,3.32v6.37h-1v-6.27a3.15,3.15,0,0,0-.45-1.88,1.59,1.59,0,0,0-1.38-.61,2,2,0,0,0-1.37.58,3.55,3.55,0,0,0-.93,1.58v6.6h-1v-9.51Z" transform="translate(0 0)" fill="#4d4d4d"/>
          <path d="M331.55,244.26a3.27,3.27,0,0,1-2.63-1.1,4.75,4.75,0,0,1-1-3.12v-1.16a5.29,5.29,0,0,1,.92-3.29,3,3,0,0,1,2.51-1.19,2.86,2.86,0,0,1,2.36,1,5,5,0,0,1,.83,3.1v.91h-5.65V240a4,4,0,0,0,.7,2.52,2.36,2.36,0,0,0,2,.89,2.86,2.86,0,0,0,2.28-1l.51.65A3.28,3.28,0,0,1,331.55,244.26Zm-.17-8.94a2.09,2.09,0,0,0-1.77.81,4.16,4.16,0,0,0-.68,2.38h4.67v-.26C333.55,236.29,332.81,235.32,331.38,235.32Z" transform="translate(0 0)" fill="#4d4d4d"/>
          <path d="M341.16,237.53l.52-6.24h5.41v1h-4.57l-.36,4.29a3,3,0,0,1,2-.7,2.75,2.75,0,0,1,2.33,1.13,4.84,4.84,0,0,1,.86,3,5.06,5.06,0,0,1-.85,3.13,2.81,2.81,0,0,1-2.4,1.12,3,3,0,0,1-2.29-.94,4.05,4.05,0,0,1-1-2.6h.93a3.28,3.28,0,0,0,.73,2,2.05,2.05,0,0,0,1.62.67,1.91,1.91,0,0,0,1.7-.87,4.48,4.48,0,0,0,.57-2.46,3.8,3.8,0,0,0-.64-2.28,2.07,2.07,0,0,0-1.75-.88,2.79,2.79,0,0,0-1.09.2,2.86,2.86,0,0,0-.93.72Z" transform="translate(0 0)" fill="#4d4d4d"/>
          <path d="M354.38,234.58l0,1.42a2.77,2.77,0,0,1,2.55-1.6,2.26,2.26,0,0,1,2.37,1.75,3.18,3.18,0,0,1,1.16-1.31,2.87,2.87,0,0,1,1.54-.44c1.71,0,2.59,1.1,2.63,3.31v6.38h-1v-6.32a3.11,3.11,0,0,0-.46-1.83,1.64,1.64,0,0,0-1.44-.61,2.09,2.09,0,0,0-1.53.71,2.85,2.85,0,0,0-.71,1.72v6.33h-1v-6.3a3.09,3.09,0,0,0-.46-1.85,1.71,1.71,0,0,0-1.44-.61,1.93,1.93,0,0,0-1.38.56,3.08,3.08,0,0,0-.85,1.58v6.62h-1v-9.51Z" transform="translate(0 0)" fill="#4d4d4d"/>
          <path d="M366.86,238.89a5.93,5.93,0,0,1,.78-3.37A2.64,2.64,0,0,1,370,234.4a2.6,2.6,0,0,1,2.44,1.5l.05-1.32h.91v9.78a3.84,3.84,0,0,1-.82,2.62,3,3,0,0,1-2.37.9,3.57,3.57,0,0,1-1.58-.39,3.29,3.29,0,0,1-1.21-.94l.46-.7A2.93,2.93,0,0,0,370.1,247a2.18,2.18,0,0,0,1.73-.63,3,3,0,0,0,.54-1.92V242.9a2.85,2.85,0,0,1-4.69.25,5.69,5.69,0,0,1-.82-3.23Zm1,.89a5.08,5.08,0,0,0,.55,2.69,1.93,1.93,0,0,0,1.74.86,2.26,2.26,0,0,0,2.23-1.5V237a2.27,2.27,0,0,0-2.21-1.63,2,2,0,0,0-1.75.85,4.94,4.94,0,0,0-.56,2.64Z" transform="translate(0 0)" fill="#4d4d4d"/>
          <path d="M381.47,232.15v2.43h1.63v.88h-1.63v6.32a2.32,2.32,0,0,0,.23,1.16.84.84,0,0,0,.78.38,4,4,0,0,0,.7-.09l0,.88a2.4,2.4,0,0,1-1,.15c-1.14,0-1.73-.78-1.75-2.35v-6.45H379v-.88h1.47v-2.43Z" transform="translate(0 0)" fill="#4d4d4d"/>
          <path d="M390.25,244.09a5.66,5.66,0,0,1-.17-1.32,3.21,3.21,0,0,1-1.13,1.1,3,3,0,0,1-1.5.39,2.6,2.6,0,0,1-1.92-.69,2.68,2.68,0,0,1-.68-2,2.74,2.74,0,0,1,.95-2.21,3.93,3.93,0,0,1,2.63-.83h1.64v-1.33a1.85,1.85,0,0,0-.51-1.46,2.54,2.54,0,0,0-3,.08,1.79,1.79,0,0,0-.58,1.37h-1a2.61,2.61,0,0,1,.88-2,3.11,3.11,0,0,1,2.2-.81,3,3,0,0,1,2.17.72,2.77,2.77,0,0,1,.74,2.1v4.67a6.4,6.4,0,0,0,.26,2.09v.11Zm-2.68-.77a2.64,2.64,0,0,0,1.52-.45,2.54,2.54,0,0,0,1-1.19v-2.31h-1.55a3.11,3.11,0,0,0-2,.59,1.93,1.93,0,0,0-.68,1.55C385.83,242.72,386.41,243.32,387.57,243.32Z" transform="translate(0 0)" fill="#4d4d4d"/>
          <path d="M400.19,239.78a6,6,0,0,1-.77,3.34,2.57,2.57,0,0,1-2.29,1.14,2.64,2.64,0,0,1-2.48-1.45l0,1.28h-.9v-13.5h1v5.31a2.62,2.62,0,0,1,2.46-1.5,2.59,2.59,0,0,1,2.29,1.09,5.85,5.85,0,0,1,.78,3.24Zm-1-.89a5.22,5.22,0,0,0-.54-2.68,1.91,1.91,0,0,0-1.76-.87,2.29,2.29,0,0,0-2.26,1.72v4.71a2.58,2.58,0,0,0,.88,1.15,2.32,2.32,0,0,0,1.4.41,1.9,1.9,0,0,0,1.72-.85,5.08,5.08,0,0,0,.56-2.64Z" transform="translate(0 0)" fill="#4d4d4d"/>
          <path d="M403.54,244.09h-1v-13.5h1Z" transform="translate(0 0)" fill="#4d4d4d"/>
          <path d="M409.38,244.26a3.27,3.27,0,0,1-2.63-1.1,4.69,4.69,0,0,1-1-3.12v-1.16a5.29,5.29,0,0,1,.92-3.29,3,3,0,0,1,2.51-1.19,2.86,2.86,0,0,1,2.36,1,5,5,0,0,1,.83,3.1v.91h-5.65V240a4,4,0,0,0,.7,2.52,2.36,2.36,0,0,0,2,.89,2.86,2.86,0,0,0,2.28-1l.51.65A3.29,3.29,0,0,1,409.38,244.26Zm-.17-8.94a2.09,2.09,0,0,0-1.77.81,4.16,4.16,0,0,0-.68,2.38h4.66v-.26C411.38,236.29,410.64,235.32,409.21,235.32Z" transform="translate(0 0)" fill="#4d4d4d"/>
          <path d="M415.94,232.15v2.43h1.63v.88h-1.63v6.32a2.32,2.32,0,0,0,.23,1.16.84.84,0,0,0,.78.38,4.21,4.21,0,0,0,.71-.09l0,.88a2.4,2.4,0,0,1-1,.15c-1.14,0-1.72-.78-1.75-2.35v-6.45H413.5v-.88H415v-2.43Z" transform="translate(0 0)" fill="#4d4d4d"/>
          <path d="M423.37,238.85a5.15,5.15,0,0,1,.93-3.25,3.31,3.31,0,0,1,5.08,0,5.16,5.16,0,0,1,.94,3.24v1a5,5,0,0,1-.94,3.26,3,3,0,0,1-2.52,1.17,3.11,3.11,0,0,1-2.53-1.14,5,5,0,0,1-1-3.15Zm1,1a4.36,4.36,0,0,0,.67,2.58,2.29,2.29,0,0,0,3.68,0,4.48,4.48,0,0,0,.64-2.59v-1a4.45,4.45,0,0,0-.66-2.59,2.13,2.13,0,0,0-1.84-.94,2.08,2.08,0,0,0-1.8.92,4.27,4.27,0,0,0-.69,2.53Z" transform="translate(0 0)" fill="#4d4d4d"/>
          <path d="M436.3,235.49a3.78,3.78,0,0,0-.62-.06,1.84,1.84,0,0,0-1.36.55,3.2,3.2,0,0,0-.77,1.54v6.57h-1v-9.51h1l0,1.42a2.29,2.29,0,0,1,2.18-1.6,1.14,1.14,0,0,1,.58.12Z" transform="translate(0 0)" fill="#4d4d4d"/>
          <path d="M442.52,237.53l.53-6.24h5.4v1h-4.57l-.36,4.29a3,3,0,0,1,2-.7,2.73,2.73,0,0,1,2.32,1.13,4.77,4.77,0,0,1,.86,3,5.13,5.13,0,0,1-.84,3.13,2.84,2.84,0,0,1-2.4,1.12,3,3,0,0,1-2.3-.94,4.17,4.17,0,0,1-1-2.6h.93a3.34,3.34,0,0,0,.73,2,2.09,2.09,0,0,0,1.63.67,1.9,1.9,0,0,0,1.69-.87,4.47,4.47,0,0,0,.58-2.46,3.74,3.74,0,0,0-.65-2.28,2,2,0,0,0-1.75-.88,2.79,2.79,0,0,0-1.09.2,2.86,2.86,0,0,0-.93.72Z" transform="translate(0 0)" fill="#4d4d4d"/>
          <path d="M455.75,234.58l0,1.42a2.78,2.78,0,0,1,2.55-1.6,2.27,2.27,0,0,1,2.38,1.75,3.16,3.16,0,0,1,1.15-1.31,2.9,2.9,0,0,1,1.54-.44c1.71,0,2.59,1.1,2.63,3.31v6.38h-1v-6.32a3.27,3.27,0,0,0-.46-1.83,1.64,1.64,0,0,0-1.44-.61,2.05,2.05,0,0,0-1.53.71,2.74,2.74,0,0,0-.71,1.72v6.33h-1v-6.3a3,3,0,0,0-.46-1.85,1.71,1.71,0,0,0-1.44-.61,1.94,1.94,0,0,0-1.38.56,3.23,3.23,0,0,0-.85,1.58v6.62h-1v-9.51Z" transform="translate(0 0)" fill="#4d4d4d"/>
          <path d="M469.79,243.16h5.28v.93h-6.29v-12.8h1Z" transform="translate(0 0)" fill="#4d4d4d"/>
        </g>
        <g>
          <path d="M308.85,274.85a5.15,5.15,0,0,1,.93-3.25,3.32,3.32,0,0,1,5.09,0,5.16,5.16,0,0,1,.93,3.24v1a5.1,5.1,0,0,1-.93,3.26,3.34,3.34,0,0,1-5.05,0,5,5,0,0,1-1-3.15Zm1,1a4.36,4.36,0,0,0,.67,2.58,2.29,2.29,0,0,0,3.68,0,4.55,4.55,0,0,0,.65-2.59v-1a4.45,4.45,0,0,0-.67-2.59,2.13,2.13,0,0,0-1.84-.94,2.1,2.1,0,0,0-1.8.92,4.34,4.34,0,0,0-.69,2.53Z" transform="translate(0 0)" fill="#4d4d4d"/>
          <path d="M321.78,271.49a3.78,3.78,0,0,0-.62-.06,1.8,1.8,0,0,0-1.35.55,3.13,3.13,0,0,0-.78,1.54v6.57h-1v-9.51h1l0,1.42a2.29,2.29,0,0,1,2.18-1.6,1.21,1.21,0,0,1,.59.12Z" transform="translate(0 0)" fill="#4d4d4d"/>
          <path d="M328.18,280.09a6.15,6.15,0,0,1-.18-1.32,3.13,3.13,0,0,1-1.13,1.1,3,3,0,0,1-1.5.39,2.57,2.57,0,0,1-1.91-.69,2.68,2.68,0,0,1-.69-2,2.74,2.74,0,0,1,1-2.21,3.93,3.93,0,0,1,2.63-.83H328v-1.33a1.88,1.88,0,0,0-.5-1.46,2.16,2.16,0,0,0-1.48-.44,2.13,2.13,0,0,0-1.49.52,1.75,1.75,0,0,0-.58,1.37h-1a2.64,2.64,0,0,1,.87-2,3.15,3.15,0,0,1,2.21-.81,3,3,0,0,1,2.17.72,2.81,2.81,0,0,1,.74,2.1v4.67a6.45,6.45,0,0,0,.25,2.09v.11Zm-2.68-.77a2.64,2.64,0,0,0,1.52-.45,2.52,2.52,0,0,0,1-1.19v-2.31h-1.54a3.14,3.14,0,0,0-2,.59,1.92,1.92,0,0,0-.67,1.55C323.76,278.72,324.34,279.32,325.5,279.32Z" transform="translate(0 0)" fill="#4d4d4d"/>
          <path d="M332.71,280.09h-1v-13.5h1Z" transform="translate(0 0)" fill="#4d4d4d"/>
          <path d="M344.21,277.74a1.4,1.4,0,0,0-.51-1.07,7.07,7.07,0,0,0-1.73-1,9.55,9.55,0,0,1-1.7-.91,2.5,2.5,0,0,1-.71-.8,2.13,2.13,0,0,1-.23-1,2.33,2.33,0,0,1,.79-1.81,2.93,2.93,0,0,1,2.05-.72,3,3,0,0,1,2.16.77,2.64,2.64,0,0,1,.81,2h-1a1.77,1.77,0,0,0-.56-1.34,2,2,0,0,0-1.44-.53,2,2,0,0,0-1.37.44,1.45,1.45,0,0,0-.5,1.14,1.24,1.24,0,0,0,.38.93,7.91,7.91,0,0,0,1.67,1,10,10,0,0,1,1.83,1,2.6,2.6,0,0,1,.76.84,2.24,2.24,0,0,1,.25,1.1,2.34,2.34,0,0,1-.81,1.87,3.25,3.25,0,0,1-2.16.69,3.32,3.32,0,0,1-2.29-.77,2.56,2.56,0,0,1-.87-2h1a1.85,1.85,0,0,0,.6,1.37,2.27,2.27,0,0,0,1.58.49,2.23,2.23,0,0,0,1.44-.44A1.41,1.41,0,0,0,344.21,277.74Z" transform="translate(0 0)" fill="#4d4d4d"/>
          <path d="M347.12,274.85a5.15,5.15,0,0,1,.93-3.25,3.31,3.31,0,0,1,5.08,0,5.16,5.16,0,0,1,.94,3.24v1a5,5,0,0,1-.94,3.26,3,3,0,0,1-2.52,1.17,3.11,3.11,0,0,1-2.53-1.14,5,5,0,0,1-1-3.15Zm1,1a4.36,4.36,0,0,0,.67,2.58,2.29,2.29,0,0,0,3.68,0,4.48,4.48,0,0,0,.64-2.59v-1a4.45,4.45,0,0,0-.66-2.59,2.13,2.13,0,0,0-1.84-.94,2.08,2.08,0,0,0-1.8.92,4.27,4.27,0,0,0-.69,2.53Z" transform="translate(0 0)" fill="#4d4d4d"/>
          <path d="M357.41,280.09h-1v-13.5h1Z" transform="translate(0 0)" fill="#4d4d4d"/>
          <path d="M365.21,279a2.73,2.73,0,0,1-2.51,1.31,2.28,2.28,0,0,1-1.95-.89,4.5,4.5,0,0,1-.67-2.64v-6.15h1v6.12a3.42,3.42,0,0,0,.46,2,1.48,1.48,0,0,0,1.31.67,2.26,2.26,0,0,0,2.37-1.79v-7h1v9.51h-.95Z" transform="translate(0 0)" fill="#4d4d4d"/>
          <path d="M370.24,268.15v2.43h1.63v.88h-1.63v6.32a2.21,2.21,0,0,0,.24,1.16.81.81,0,0,0,.77.38,4.09,4.09,0,0,0,.71-.09l0,.88a2.4,2.4,0,0,1-1,.15c-1.14,0-1.72-.78-1.75-2.35v-6.45H367.8v-.88h1.47v-2.43Z" transform="translate(0 0)" fill="#4d4d4d"/>
          <path d="M374,267.84a.8.8,0,0,1,.17-.51.55.55,0,0,1,.47-.22.55.55,0,0,1,.48.22.8.8,0,0,1,.17.51.8.8,0,0,1-.17.5.57.57,0,0,1-.48.21.57.57,0,0,1-.47-.21A.8.8,0,0,1,374,267.84Zm1.12,12.25h-1v-9.51h1Z" transform="translate(0 0)" fill="#4d4d4d"/>
          <path d="M377.41,274.85a5.09,5.09,0,0,1,.94-3.25,3.31,3.31,0,0,1,5.08,0,5.16,5.16,0,0,1,.94,3.24v1a5.1,5.1,0,0,1-.94,3.26,3.34,3.34,0,0,1-5.05,0,5,5,0,0,1-1-3.15Zm1,1a4.44,4.44,0,0,0,.66,2.58,2.12,2.12,0,0,0,1.84.94,2.09,2.09,0,0,0,1.84-.91,4.48,4.48,0,0,0,.65-2.59v-1a4.38,4.38,0,0,0-.67-2.59,2.25,2.25,0,0,0-3.64,0,4.34,4.34,0,0,0-.68,2.53Z" transform="translate(0 0)" fill="#4d4d4d"/>
          <path d="M387.55,270.58l0,1.51a3.51,3.51,0,0,1,1.08-1.23,2.51,2.51,0,0,1,1.49-.46c1.66,0,2.51,1.11,2.55,3.32v6.37h-1v-6.27a3.15,3.15,0,0,0-.45-1.88,1.59,1.59,0,0,0-1.38-.61,2,2,0,0,0-1.37.58,3.55,3.55,0,0,0-.93,1.58v6.6h-1v-9.51Z" transform="translate(0 0)" fill="#4d4d4d"/>
        </g>
        <path d="M398.52,271.58a3.47,3.47,0,0,1-.45,1.95,1.51,1.51,0,0,1-1.33.67,1.56,1.56,0,0,1-1.45-.85l0,.74h-.52v-7.87h.56v3.1a1.67,1.67,0,0,1,2.77-.24,3.42,3.42,0,0,1,.45,1.89Zm-.57-.52a3,3,0,0,0-.31-1.56,1.11,1.11,0,0,0-1-.51,1.33,1.33,0,0,0-1.32,1v2.75a1.47,1.47,0,0,0,.51.67,1.39,1.39,0,0,0,.82.24,1.11,1.11,0,0,0,1-.49,2.92,2.92,0,0,0,.32-1.54Z" transform="translate(0 0)" fill="#4d4d4d"/>
        <g>
          <path d="M403.12,275.05a16.19,16.19,0,0,1-.43,3.79,13.22,13.22,0,0,1-1.24,3.27,6.36,6.36,0,0,1-1.72,2.11l-.22-.7a6.37,6.37,0,0,0,1.54-2.4,16.35,16.35,0,0,0,1.1-6.23,17.09,17.09,0,0,0-.35-3.47,13.38,13.38,0,0,0-1-3,5.89,5.89,0,0,0-1.32-2l.22-.7a6.7,6.7,0,0,1,1.81,2.32A14.89,14.89,0,0,1,403.12,275.05Z" transform="translate(0 0)" fill="#4d4d4d"/>
          <path d="M410,280.09v-12.8h3.24a3.67,3.67,0,0,1,2.63.85,3.3,3.3,0,0,1,.89,2.5,3.13,3.13,0,0,1-.46,1.71,2.54,2.54,0,0,1-1.26,1,2.51,2.51,0,0,1,1.5,1.09,3.43,3.43,0,0,1,.58,2,3.69,3.69,0,0,1-.92,2.64,3.39,3.39,0,0,1-2.59,1Zm1-7.07h2.33a2.47,2.47,0,0,0,1.78-.61,2.37,2.37,0,0,0,.63-1.8,2.34,2.34,0,0,0-.62-1.79,2.65,2.65,0,0,0-1.88-.58H411Zm0,.91v5.23h2.66a2.35,2.35,0,0,0,1.8-.71,2.74,2.74,0,0,0,.66-1.95,2.71,2.71,0,0,0-.61-1.85,2.25,2.25,0,0,0-1.7-.72Z" transform="translate(0 0)" fill="#4d4d4d"/>
          <path d="M420.8,280.09h-1v-12.8h1Z" transform="translate(0 0)" fill="#4d4d4d"/>
          <path d="M424,280.09v-12.8h3a4.24,4.24,0,0,1,3.3,1.33,5.4,5.4,0,0,1,1.24,3.67V275a5.37,5.37,0,0,1-1.22,3.76,4.39,4.39,0,0,1-3.44,1.36Zm1-11.85v10.92H427a3.37,3.37,0,0,0,2.65-1.06,4.53,4.53,0,0,0,1-3v-2.68a4.64,4.64,0,0,0-.92-3.06,3.27,3.27,0,0,0-2.66-1.09Z" transform="translate(0 0)" fill="#4d4d4d"/>
        </g>
      </g>
    </g>
  </g>
</svg>
