<svg xmlns="http://www.w3.org/2000/svg" xmlns:xlink="http://www.w3.org/1999/xlink" width="502.5" height="450.39" viewBox="0 0 502.5 450.39">
  <defs>
    <clipPath id="clip-path" transform="translate(0 0)">
      <rect y="43.97" width="502.5" height="134.58" fill="none"/>
    </clipPath>
    <clipPath id="clip-path-2" transform="translate(0 0)">
      <rect y="134.58" width="502.5" height="134.59" fill="none"/>
    </clipPath>
    <clipPath id="clip-path-3" transform="translate(0 0)">
      <rect y="225.2" width="502.5" height="134.59" fill="none"/>
    </clipPath>
    <clipPath id="clip-path-4" transform="translate(0 0)">
      <rect y="315.81" width="502.5" height="134.58" fill="none"/>
    </clipPath>
    <clipPath id="clip-path-5" transform="translate(0 0)">
      <rect width="502.5" height="87.95" fill="none"/>
    </clipPath>
  </defs>
  <g id="Layer_2" data-name="Layer 2">
    <g id="Layer_1-2" data-name="Layer 1">
      <g>
        <g>
          <g opacity="0.3">
            <g clip-path="url(#clip-path)">
              <polygon points="502.5 131.92 251.25 178.56 0 131.92 0 43.97 250.46 90.61 502.5 43.97 502.5 131.92" fill="#41aef2"/>
            </g>
          </g>
          <g opacity="0.4">
            <g clip-path="url(#clip-path-2)">
              <polygon points="502.5 222.53 250.46 269.17 0 222.53 0 134.58 251.25 181.22 502.5 134.58 502.5 222.53" fill="#41aef2"/>
            </g>
          </g>
          <g opacity="0.5">
            <g clip-path="url(#clip-path-3)">
              <polygon points="502.5 313.14 251.25 359.78 0 313.14 0 225.2 251.25 271.84 502.5 225.2 502.5 313.14" fill="#41aef2"/>
            </g>
          </g>
          <g opacity="0.6">
            <g clip-path="url(#clip-path-4)">
              <polygon points="502.5 450.39 0 450.39 0 315.81 250.46 362.45 502.5 315.81 502.5 450.39" fill="#41aef2"/>
            </g>
          </g>
          <g opacity="0.2">
            <g clip-path="url(#clip-path-5)">
              <polygon points="502.5 41.3 250.46 87.94 0 41.3 0 0 502.5 0 502.5 41.3" fill="#41aef2"/>
            </g>
          </g>
        </g>
        <g>
          <path d="M151.75,31.8a7.43,7.43,0,0,1-1.3,4.7,4.44,4.44,0,0,1-3.7,1.65,4.5,4.5,0,0,1-3.65-1.6A7.14,7.14,0,0,1,141.71,32V29.2A7.39,7.39,0,0,1,143,24.51a4.9,4.9,0,0,1,7.36-.07,7.3,7.3,0,0,1,1.35,4.64Zm-1.88-2.62a6.36,6.36,0,0,0-.77-3.52,3,3,0,0,0-4.72,0,6.15,6.15,0,0,0-.8,3.45V31.8a6.31,6.31,0,0,0,.79,3.48,2.66,2.66,0,0,0,2.38,1.2,2.62,2.62,0,0,0,2.33-1.11,6.16,6.16,0,0,0,.79-3.39Z" transform="translate(0 0)" fill="#4d4d4d"/>
          <path d="M158.25,36.6a2,2,0,0,0,1.45-.55,2.39,2.39,0,0,0,.59-1.6H162a3.73,3.73,0,0,1-1.13,2.65,3.6,3.6,0,0,1-2.62,1,3.87,3.87,0,0,1-3.14-1.29A6,6,0,0,1,154,33V31.77A5.9,5.9,0,0,1,155.1,28a3.82,3.82,0,0,1,3.14-1.31,3.51,3.51,0,0,1,2.7,1.07,4.37,4.37,0,0,1,1.06,3h-1.71a3,3,0,0,0-.59-1.85,1.82,1.82,0,0,0-1.46-.61,2.07,2.07,0,0,0-1.79.79,4.63,4.63,0,0,0-.61,2.61V33a5,5,0,0,0,.58,2.76A2.1,2.1,0,0,0,158.25,36.6Z" transform="translate(0 0)" fill="#4d4d4d"/>
          <path d="M168,36.6a1.94,1.94,0,0,0,1.45-.55,2.39,2.39,0,0,0,.59-1.6h1.72a3.78,3.78,0,0,1-1.14,2.65,3.6,3.6,0,0,1-2.62,1,3.87,3.87,0,0,1-3.14-1.29A6,6,0,0,1,163.73,33V31.77A5.9,5.9,0,0,1,164.8,28a3.82,3.82,0,0,1,3.14-1.31,3.51,3.51,0,0,1,2.7,1.07,4.42,4.42,0,0,1,1.07,3H170a3,3,0,0,0-.59-1.85,1.82,1.82,0,0,0-1.46-.61,2.07,2.07,0,0,0-1.79.79,4.63,4.63,0,0,0-.61,2.61V33a5,5,0,0,0,.58,2.76A2.1,2.1,0,0,0,168,36.6Z" transform="translate(0 0)" fill="#4d4d4d"/>
          <path d="M179.46,37a3.11,3.11,0,0,1-2.64,1.18,2.66,2.66,0,0,1-2.28-1,5.05,5.05,0,0,1-.77-3V26.85h1.8V34c0,1.73.52,2.59,1.56,2.59a2.28,2.28,0,0,0,2.28-1.47V26.85h1.81V38H179.5Z" transform="translate(0 0)" fill="#4d4d4d"/>
          <path d="M188.53,28.55a5.22,5.22,0,0,0-.82-.07,2,2,0,0,0-2,1.53V38H184V26.85h1.76l0,1.13a2.27,2.27,0,0,1,2.06-1.33,1.68,1.68,0,0,1,.72.14Z" transform="translate(0 0)" fill="#4d4d4d"/>
          <path d="M194.92,28.55a5.22,5.22,0,0,0-.82-.07A2,2,0,0,0,192.15,30V38h-1.81V26.85h1.76l0,1.13a2.25,2.25,0,0,1,2.06-1.33,1.68,1.68,0,0,1,.72.14Z" transform="translate(0 0)" fill="#4d4d4d"/>
          <path d="M200.5,38.15a4.06,4.06,0,0,1-3.18-1.23,5.39,5.39,0,0,1-1.12-3.63V32a6.25,6.25,0,0,1,1.08-3.89,3.59,3.59,0,0,1,3-1.41,3.44,3.44,0,0,1,2.91,1.24,6.42,6.42,0,0,1,1,3.86v1.19H198v.26a4.08,4.08,0,0,0,.67,2.59,2.39,2.39,0,0,0,1.94.81,3.18,3.18,0,0,0,1.41-.3,3.56,3.56,0,0,0,1.14-1l.94,1.15A4.1,4.1,0,0,1,200.5,38.15Zm-.2-9.94a1.89,1.89,0,0,0-1.67.77,4.55,4.55,0,0,0-.62,2.4h4.37v-.24a4.29,4.29,0,0,0-.57-2.26A1.75,1.75,0,0,0,200.3,28.21Z" transform="translate(0 0)" fill="#4d4d4d"/>
          <path d="M208.08,26.85l0,1.2a3.27,3.27,0,0,1,2.7-1.4c2,0,3,1.31,3,3.92V38H212V30.66a3,3,0,0,0-.44-1.85,1.54,1.54,0,0,0-1.3-.55,1.84,1.84,0,0,0-1.22.45,3.22,3.22,0,0,0-.87,1.18V38h-1.81V26.85Z" transform="translate(0 0)" fill="#4d4d4d"/>
          <path d="M220.39,36.6a1.91,1.91,0,0,0,1.44-.55,2.45,2.45,0,0,0,.6-1.6h1.71A3.77,3.77,0,0,1,223,37.1a3.61,3.61,0,0,1-2.62,1,3.88,3.88,0,0,1-3.15-1.29A6,6,0,0,1,216.16,33V31.77A5.85,5.85,0,0,1,217.24,28a3.81,3.81,0,0,1,3.14-1.31,3.54,3.54,0,0,1,2.7,1.07,4.42,4.42,0,0,1,1.06,3h-1.71a3,3,0,0,0-.59-1.85,1.83,1.83,0,0,0-1.46-.61,2.08,2.08,0,0,0-1.8.79,4.56,4.56,0,0,0-.6,2.61V33a4.88,4.88,0,0,0,.58,2.76A2.08,2.08,0,0,0,220.39,36.6Z" transform="translate(0 0)" fill="#4d4d4d"/>
          <path d="M230.2,38.15A4.06,4.06,0,0,1,227,36.92a5.4,5.4,0,0,1-1.13-3.63V32A6.25,6.25,0,0,1,227,28.06a3.6,3.6,0,0,1,3-1.41,3.47,3.47,0,0,1,2.92,1.24,6.36,6.36,0,0,1,1,3.86v1.19H227.7v.26a4,4,0,0,0,.67,2.59,2.37,2.37,0,0,0,1.93.81,3.18,3.18,0,0,0,1.41-.3,3.36,3.36,0,0,0,1.14-1l1,1.15A4.12,4.12,0,0,1,230.2,38.15ZM230,28.21a1.89,1.89,0,0,0-1.67.77,4.56,4.56,0,0,0-.61,2.4h4.37v-.24a4.29,4.29,0,0,0-.57-2.26A1.77,1.77,0,0,0,230,28.21Z" transform="translate(0 0)" fill="#4d4d4d"/>
          <path d="M240.49,31.89a5.75,5.75,0,0,1,1.18-3.83,3.82,3.82,0,0,1,3.1-1.41,3.89,3.89,0,0,1,3.1,1.37,5.72,5.72,0,0,1,1.21,3.74v1.17a5.79,5.79,0,0,1-1.17,3.82,4.18,4.18,0,0,1-6.21,0,5.66,5.66,0,0,1-1.21-3.69Zm1.82,1a4.73,4.73,0,0,0,.67,2.7,2.09,2.09,0,0,0,1.81,1c1.6,0,2.42-1.15,2.47-3.46V31.89a4.62,4.62,0,0,0-.68-2.69,2.09,2.09,0,0,0-1.81-1,2.06,2.06,0,0,0-1.79,1,4.68,4.68,0,0,0-.67,2.68Z" transform="translate(0 0)" fill="#4d4d4d"/>
          <path d="M252.21,38V28.32h-1.44V26.85h1.44V25.57a4,4,0,0,1,.86-2.64A2.94,2.94,0,0,1,255.4,22a3.57,3.57,0,0,1,1.1.18l-.09,1.52a3.7,3.7,0,0,0-.83-.09c-1,0-1.55.74-1.55,2.21v1.05h1.9v1.47H254V38Z" transform="translate(0 0)" fill="#4d4d4d"/>
          <path d="M262.49,31.9a6.7,6.7,0,0,1,1-3.91,3.18,3.18,0,0,1,2.75-1.34,2.84,2.84,0,0,1,2.48,1.29V22.2h1.82V38h-1.66l-.1-1.19a2.84,2.84,0,0,1-2.55,1.39,3.14,3.14,0,0,1-2.7-1.34,6.38,6.38,0,0,1-1-3.77Zm1.81,1a5.27,5.27,0,0,0,.56,2.74,2,2,0,0,0,1.8.87,2.14,2.14,0,0,0,2-1.36V29.59a2.17,2.17,0,0,0-2-1.33,2,2,0,0,0-1.8.87,5.23,5.23,0,0,0-.57,2.69Z" transform="translate(0 0)" fill="#4d4d4d"/>
          <path d="M275.39,23.91a1.18,1.18,0,0,1-.26.77,1.12,1.12,0,0,1-1.55,0,1.17,1.17,0,0,1-.25-.77,1.2,1.2,0,0,1,.25-.78.94.94,0,0,1,.77-.32,1,1,0,0,1,.78.33A1.19,1.19,0,0,1,275.39,23.91Zm-.14,14h-1.82V26.85h1.82Z" transform="translate(0 0)" fill="#4d4d4d"/>
          <path d="M283.49,35.11a1.36,1.36,0,0,0-.44-1,6.41,6.41,0,0,0-1.71-1,11.49,11.49,0,0,1-2.06-1,2.87,2.87,0,0,1-.9-1,2.66,2.66,0,0,1-.3-1.3,2.89,2.89,0,0,1,1-2.25,4.05,4.05,0,0,1,5.14,0,3.23,3.23,0,0,1,1,2.42h-1.8a1.79,1.79,0,0,0-.51-1.28,1.68,1.68,0,0,0-1.28-.52,1.76,1.76,0,0,0-1.25.41,1.42,1.42,0,0,0-.46,1.11,1.22,1.22,0,0,0,.33.89,6.12,6.12,0,0,0,1.61.89,8.31,8.31,0,0,1,2.75,1.54A2.69,2.69,0,0,1,285.3,35a2.91,2.91,0,0,1-1,2.31,3.9,3.9,0,0,1-2.67.87,4,4,0,0,1-2.81-1,3.32,3.32,0,0,1-1.07-2.52h1.82a1.88,1.88,0,0,0,2.06,2,2.08,2.08,0,0,0,1.38-.4A1.37,1.37,0,0,0,283.49,35.11Z" transform="translate(0 0)" fill="#4d4d4d"/>
          <path d="M291.63,38.15a4.06,4.06,0,0,1-3.18-1.23,5.4,5.4,0,0,1-1.13-3.63V32a6.18,6.18,0,0,1,1.09-3.89,3.58,3.58,0,0,1,3-1.41,3.47,3.47,0,0,1,2.91,1.24,6.36,6.36,0,0,1,1,3.86v1.19h-6.19v.26a4,4,0,0,0,.67,2.59,2.37,2.37,0,0,0,1.93.81,3.12,3.12,0,0,0,1.41-.3,3.49,3.49,0,0,0,1.15-1l.94,1.15A4.12,4.12,0,0,1,291.63,38.15Zm-.2-9.94a1.91,1.91,0,0,0-1.68.77,4.65,4.65,0,0,0-.61,2.4h4.37v-.24a4.29,4.29,0,0,0-.57-2.26A1.75,1.75,0,0,0,291.43,28.21Z" transform="translate(0 0)" fill="#4d4d4d"/>
          <path d="M303.21,38a4.07,4.07,0,0,1-.24-1.21,2.88,2.88,0,0,1-2.46,1.41,3.17,3.17,0,0,1-2.35-.84,3.22,3.22,0,0,1-.85-2.39,3.34,3.34,0,0,1,1.15-2.68,4.66,4.66,0,0,1,3.15-1h1.33V30a1.9,1.9,0,0,0-.44-1.41,2.22,2.22,0,0,0-2.68.06,1.65,1.65,0,0,0-.51,1.24H297.5a2.91,2.91,0,0,1,.5-1.63,3.44,3.44,0,0,1,1.35-1.21,4,4,0,0,1,1.9-.44,3.64,3.64,0,0,1,2.59.84,3.36,3.36,0,0,1,.91,2.47v5.6a6.73,6.73,0,0,0,.34,2.22V38Zm-2.42-1.45a2.39,2.39,0,0,0,1.27-.37,2.28,2.28,0,0,0,.88-.92V32.56h-1a3.51,3.51,0,0,0-2.05.58,1.88,1.88,0,0,0-.74,1.57,2.06,2.06,0,0,0,.37,1.37A1.68,1.68,0,0,0,300.79,36.5Z" transform="translate(0 0)" fill="#4d4d4d"/>
          <path d="M313,35.11a1.36,1.36,0,0,0-.44-1,6.41,6.41,0,0,0-1.71-1,11.49,11.49,0,0,1-2.06-1,2.87,2.87,0,0,1-.9-1,2.66,2.66,0,0,1-.3-1.3,2.89,2.89,0,0,1,1-2.25,4.05,4.05,0,0,1,5.14,0,3.23,3.23,0,0,1,1,2.42h-1.8a1.79,1.79,0,0,0-.51-1.28,1.68,1.68,0,0,0-1.28-.52,1.76,1.76,0,0,0-1.25.41,1.42,1.42,0,0,0-.46,1.11,1.22,1.22,0,0,0,.33.89,6.12,6.12,0,0,0,1.61.89A8.31,8.31,0,0,1,314,33.05a2.69,2.69,0,0,1,.72,1.92,2.91,2.91,0,0,1-1,2.31,3.9,3.9,0,0,1-2.67.87,4,4,0,0,1-2.81-1,3.32,3.32,0,0,1-1.07-2.52H309a1.88,1.88,0,0,0,2.06,2,2.08,2.08,0,0,0,1.38-.4A1.37,1.37,0,0,0,313,35.11Z" transform="translate(0 0)" fill="#4d4d4d"/>
          <path d="M321.09,38.15a4.06,4.06,0,0,1-3.18-1.23,5.4,5.4,0,0,1-1.13-3.63V32a6.25,6.25,0,0,1,1.08-3.89,3.6,3.6,0,0,1,3-1.41,3.47,3.47,0,0,1,2.92,1.24,6.36,6.36,0,0,1,1,3.86v1.19h-6.19v.26a4,4,0,0,0,.67,2.59,2.37,2.37,0,0,0,1.93.81,3.15,3.15,0,0,0,1.41-.3,3.49,3.49,0,0,0,1.15-1l.94,1.15A4.12,4.12,0,0,1,321.09,38.15Zm-.21-9.94a1.9,1.9,0,0,0-1.67.77,4.65,4.65,0,0,0-.61,2.4H323v-.24a4.29,4.29,0,0,0-.57-2.26A1.76,1.76,0,0,0,320.88,28.21Z" transform="translate(0 0)" fill="#4d4d4d"/>
          <path d="M332.56,38V28.32h-1.44V26.85h1.44V25.57a4,4,0,0,1,.86-2.64,2.94,2.94,0,0,1,2.33-.95,3.57,3.57,0,0,1,1.1.18l-.09,1.52a3.7,3.7,0,0,0-.83-.09c-1,0-1.55.74-1.55,2.21v1.05h1.9v1.47h-1.9V38Z" transform="translate(0 0)" fill="#4d4d4d"/>
          <path d="M340.37,38h-1.82V22.2h1.82Z" transform="translate(0 0)" fill="#4d4d4d"/>
          <path d="M348.93,38a4.07,4.07,0,0,1-.24-1.21,2.88,2.88,0,0,1-2.46,1.41,3.19,3.19,0,0,1-2.35-.84,3.26,3.26,0,0,1-.85-2.39,3.37,3.37,0,0,1,1.15-2.68,4.69,4.69,0,0,1,3.15-1h1.33V30a1.86,1.86,0,0,0-3.11-1.35,1.62,1.62,0,0,0-.52,1.24h-1.81a2.91,2.91,0,0,1,.5-1.63,3.51,3.51,0,0,1,1.35-1.21,4,4,0,0,1,1.9-.44,3.62,3.62,0,0,1,2.59.84,3.36,3.36,0,0,1,.91,2.47v5.6a6.47,6.47,0,0,0,.35,2.22V38Zm-2.42-1.45a2.37,2.37,0,0,0,1.27-.37,2.22,2.22,0,0,0,.88-.92V32.56h-1a3.5,3.5,0,0,0-2,.58,1.86,1.86,0,0,0-.75,1.57,2,2,0,0,0,.38,1.37A1.66,1.66,0,0,0,346.51,36.5Z" transform="translate(0 0)" fill="#4d4d4d"/>
          <path d="M357.86,28.55a5.22,5.22,0,0,0-.82-.07,2,2,0,0,0-2,1.53V38h-1.81V26.85H355l0,1.13a2.25,2.25,0,0,1,2.06-1.33,1.68,1.68,0,0,1,.72.14Z" transform="translate(0 0)" fill="#4d4d4d"/>
          <path d="M363.44,38.15a4.06,4.06,0,0,1-3.18-1.23,5.39,5.39,0,0,1-1.12-3.63V32a6.25,6.25,0,0,1,1.08-3.89,3.59,3.59,0,0,1,3-1.41,3.44,3.44,0,0,1,2.91,1.24,6.42,6.42,0,0,1,1,3.86v1.19h-6.2v.26a4.08,4.08,0,0,0,.67,2.59,2.39,2.39,0,0,0,1.94.81,3.18,3.18,0,0,0,1.41-.3,3.56,3.56,0,0,0,1.14-1l.94,1.15A4.1,4.1,0,0,1,363.44,38.15Zm-.2-9.94a1.89,1.89,0,0,0-1.67.77,4.65,4.65,0,0,0-.62,2.4h4.37v-.24a4.29,4.29,0,0,0-.57-2.26A1.74,1.74,0,0,0,363.24,28.21Z" transform="translate(0 0)" fill="#4d4d4d"/>
        </g>
        <g>
          <path d="M213.87,58.12A7,7,0,0,1,213,62a3,3,0,0,1-2.67,1.33,3.11,3.11,0,0,1-2.9-1.69l-.05,1.49h-1.06V47.4h1.13v6.2a3.33,3.33,0,0,1,5.54-.49,6.87,6.87,0,0,1,.91,3.78Zm-1.14-1a6.21,6.21,0,0,0-.62-3.13,2.23,2.23,0,0,0-2.05-1,2.67,2.67,0,0,0-2.64,2v5.5a2.88,2.88,0,0,0,1,1.35,2.73,2.73,0,0,0,1.63.48,2.22,2.22,0,0,0,2-1,5.87,5.87,0,0,0,.65-3.09Z" transform="translate(0 0)" fill="#4d4d4d"/>
          <path d="M219.35,61.27,222,52.05h1.22l-3.91,12.87-.21.62c-.53,1.39-1.34,2.09-2.42,2.09a2.46,2.46,0,0,1-.82-.15v-1a1.68,1.68,0,0,0,.52.07,1.73,1.73,0,0,0,1.21-.44,3.33,3.33,0,0,0,.78-1.43l.47-1.56-3.49-11h1.25Z" transform="translate(0 0)" fill="#4d4d4d"/>
          <path d="M232.54,59.09l.36,2.21.45-2.11,2.68-11h1l2.64,11,.44,2.13.39-2.23,2.2-10.87h1.19l-3.18,14.93h-1.1l-2.8-11.64-.3-1.38-.29,1.38L233.4,63.15h-1.12l-3.16-14.93h1.19Z" transform="translate(0 0)" fill="#4d4d4d"/>
          <path d="M249.44,63.35a3.79,3.79,0,0,1-3.06-1.28,5.46,5.46,0,0,1-1.13-3.65V57.07a6.14,6.14,0,0,1,1.06-3.83,3.49,3.49,0,0,1,2.94-1.39A3.31,3.31,0,0,1,252,53a5.83,5.83,0,0,1,1,3.61V57.7h-6.59v.63a4.68,4.68,0,0,0,.81,2.94,2.76,2.76,0,0,0,2.3,1,3.32,3.32,0,0,0,2.66-1.2l.59.76A3.81,3.81,0,0,1,249.44,63.35Zm-.19-10.44a2.45,2.45,0,0,0-2.07,1,4.84,4.84,0,0,0-.79,2.78h5.44v-.3C251.78,54.06,250.91,52.91,249.25,52.91Z" transform="translate(0 0)" fill="#4d4d4d"/>
          <path d="M259.05,63.35A3.82,3.82,0,0,1,256,62.07a5.51,5.51,0,0,1-1.13-3.65V57.07a6.14,6.14,0,0,1,1.07-3.83,3.48,3.48,0,0,1,2.93-1.39A3.33,3.33,0,0,1,261.61,53a5.83,5.83,0,0,1,1,3.61V57.7H256v.63a4.61,4.61,0,0,0,.82,2.94,2.76,2.76,0,0,0,2.3,1,3.3,3.3,0,0,0,2.65-1.2l.6.76A3.83,3.83,0,0,1,259.05,63.35Zm-.2-10.44a2.44,2.44,0,0,0-2.06,1,4.91,4.91,0,0,0-.8,2.78h5.45v-.3C261.38,54.06,260.52,52.91,258.85,52.91Z" transform="translate(0 0)" fill="#4d4d4d"/>
          <path d="M267.3,57.6l-1.16,1.29v4.26H265V47.4h1.14v10l1-1.21,3.43-4.16H272l-3.9,4.69,4.27,6.41H271Z" transform="translate(0 0)" fill="#4d4d4d"/>
          <path d="M285.06,58.33H287v1.06h-1.92v3.76h-1.14V59.39h-5.86v-.72l5.77-10.45h1.23Zm-5.64,0h4.5V49.94l-.41.83Z" transform="translate(0 0)" fill="#4d4d4d"/>
          <path d="M295.28,58.33h1.91v1.06h-1.91v3.76h-1.14V59.39h-5.87v-.72L294,48.22h1.24Zm-5.64,0h4.5V49.94l-.41.83Z" transform="translate(0 0)" fill="#4d4d4d"/>
        </g>
        <g>
          <path d="M156.72,113.63h1.89V124.2a4.88,4.88,0,0,1-1.09,3.36,3.79,3.79,0,0,1-2.94,1.21,3.85,3.85,0,0,1-3-1.15,4.55,4.55,0,0,1-1.05-3.18h1.88a3.13,3.13,0,0,0,.56,2,1.88,1.88,0,0,0,1.57.72,1.85,1.85,0,0,0,1.56-.78,3.59,3.59,0,0,0,.58-2.19Z" transform="translate(0 0)" fill="#4d4d4d"/>
          <path d="M163.68,128.56h-1.87V113.63h1.87Z" transform="translate(0 0)" fill="#4d4d4d"/>
          <path d="M174.11,124.66h-5.05l-1.16,3.9H166l4.81-14.93h1.61l4.82,14.93h-1.92Zm-4.56-1.61h4.07l-2-6.79Z" transform="translate(0 0)" fill="#4d4d4d"/>
          <path d="M191,124.66h-5l-1.16,3.9h-1.93l4.81-14.93h1.61l4.82,14.93h-1.93Zm-4.55-1.61h4.07l-2-6.79Z" transform="translate(0 0)" fill="#4d4d4d"/>
          <path d="M205.41,123.82a5.51,5.51,0,0,1-1.35,3.67,4.58,4.58,0,0,1-3.46,1.28,4.27,4.27,0,0,1-3.57-1.71,7.38,7.38,0,0,1-1.32-4.63v-2.71a7.12,7.12,0,0,1,1.36-4.6,4.48,4.48,0,0,1,3.7-1.69,4.31,4.31,0,0,1,3.35,1.29,5.67,5.67,0,0,1,1.29,3.7h-1.9a4.58,4.58,0,0,0-.77-2.6,2.4,2.4,0,0,0-2-.78,2.69,2.69,0,0,0-2.35,1.19,6.26,6.26,0,0,0-.82,3.5v2.74a6.55,6.55,0,0,0,.77,3.48,2.49,2.49,0,0,0,2.23,1.21,2.67,2.67,0,0,0,2.11-.73,4.58,4.58,0,0,0,.8-2.61Z" transform="translate(0 0)" fill="#4d4d4d"/>
          <path d="M212.46,122.52h-2.62v6H208V113.63h4.18a4.44,4.44,0,0,1,3.33,1.15,4.56,4.56,0,0,1,1.13,3.34,4.73,4.73,0,0,1-.61,2.42,3.89,3.89,0,0,1-1.73,1.55l2.89,6.35v.12h-2Zm-2.62-1.61h2.28a2.43,2.43,0,0,0,1.88-.76,2.89,2.89,0,0,0,.7-2q0-2.88-2.61-2.88h-2.25Z" transform="translate(0 0)" fill="#4d4d4d"/>
          <path d="M219.42,121.08l.65-7.45h6.49v1.76h-5l-.35,4.07a3.43,3.43,0,0,1,2-.65,3.23,3.23,0,0,1,2.74,1.35,6.06,6.06,0,0,1,1,3.64,5.58,5.58,0,0,1-1.08,3.64,3.61,3.61,0,0,1-3,1.33,3.65,3.65,0,0,1-2.74-1.1,4.82,4.82,0,0,1-1.21-3h1.71a3.45,3.45,0,0,0,.73,1.93,1.94,1.94,0,0,0,1.51.65,1.86,1.86,0,0,0,1.65-.92,4.47,4.47,0,0,0,.6-2.47,4.14,4.14,0,0,0-.64-2.39,2,2,0,0,0-1.73-.93,2.16,2.16,0,0,0-1.45.47l-.48.49Z" transform="translate(0 0)" fill="#4d4d4d"/>
          <path d="M237,122.19a10,10,0,0,1-1,4.94,3.62,3.62,0,0,1-6,.07,9.25,9.25,0,0,1-1-4.72v-2.56a9.73,9.73,0,0,1,1-4.88,3.66,3.66,0,0,1,6-.08,9,9,0,0,1,1,4.62Zm-1.81-2.59a8.68,8.68,0,0,0-.53-3.49,1.79,1.79,0,0,0-3.31,0,8.19,8.19,0,0,0-.54,3.33v3.07a9,9,0,0,0,.54,3.55,1.77,1.77,0,0,0,1.66,1.18,1.7,1.7,0,0,0,1.63-1.12,8.68,8.68,0,0,0,.55-3.41Z" transform="translate(0 0)" fill="#4d4d4d"/>
          <path d="M249,119.17a4.32,4.32,0,0,0-.82-.07,2,2,0,0,0-2,1.53v7.93h-1.82V117.47h1.77l0,1.13a2.25,2.25,0,0,1,2.06-1.34,1.54,1.54,0,0,1,.72.15Z" transform="translate(0 0)" fill="#4d4d4d"/>
          <path d="M254.57,128.77a4,4,0,0,1-3.18-1.24,5.3,5.3,0,0,1-1.12-3.62v-1.35a6.27,6.27,0,0,1,1.08-3.89,3.58,3.58,0,0,1,3-1.41,3.47,3.47,0,0,1,2.91,1.24,6.39,6.39,0,0,1,1,3.87v1.19h-6.19v.26a4,4,0,0,0,.67,2.59,2.37,2.37,0,0,0,1.93.81,3.12,3.12,0,0,0,1.41-.3,3.49,3.49,0,0,0,1.15-1l.94,1.15A4.14,4.14,0,0,1,254.57,128.77Zm-.2-10a1.88,1.88,0,0,0-1.67.78,4.5,4.5,0,0,0-.62,2.4h4.37v-.25a4.25,4.25,0,0,0-.57-2.25A1.76,1.76,0,0,0,254.37,118.82Z" transform="translate(0 0)" fill="#4d4d4d"/>
          <path d="M265.83,125.72a1.34,1.34,0,0,0-.44-1,6.73,6.73,0,0,0-1.7-1,11.43,11.43,0,0,1-2.07-1,3.06,3.06,0,0,1-.9-1,2.81,2.81,0,0,1-.29-1.31,2.91,2.91,0,0,1,1-2.25,4,4,0,0,1,5.13,0,3.22,3.22,0,0,1,1,2.42h-1.8a1.81,1.81,0,0,0-.5-1.28,1.73,1.73,0,0,0-1.29-.53,1.77,1.77,0,0,0-1.25.42,1.38,1.38,0,0,0-.46,1.1,1.21,1.21,0,0,0,.33.89,5.73,5.73,0,0,0,1.61.89,8.19,8.19,0,0,1,2.75,1.55,2.66,2.66,0,0,1,.73,1.91,2.94,2.94,0,0,1-1,2.32,3.9,3.9,0,0,1-2.67.87,4,4,0,0,1-2.81-1,3.29,3.29,0,0,1-1.07-2.52h1.82a1.88,1.88,0,0,0,2.06,2,2.07,2.07,0,0,0,1.38-.41A1.37,1.37,0,0,0,265.83,125.72Z" transform="translate(0 0)" fill="#4d4d4d"/>
          <path d="M278,123.55a6.6,6.6,0,0,1-.95,3.93,3.12,3.12,0,0,1-2.68,1.29,3,3,0,0,1-2.57-1.26v5.32H270V117.47h1.64l.1,1.23a2.92,2.92,0,0,1,2.61-1.44,3.14,3.14,0,0,1,2.73,1.27,6.76,6.76,0,0,1,.93,3.81Zm-1.8-1a5.09,5.09,0,0,0-.58-2.75,2,2,0,0,0-1.84-.89,2.15,2.15,0,0,0-2,1.3V126a2.13,2.13,0,0,0,2,1.27,2,2,0,0,0,1.81-.89,5.16,5.16,0,0,0,.59-2.71Z" transform="translate(0 0)" fill="#4d4d4d"/>
          <path d="M280,122.5a5.77,5.77,0,0,1,1.18-3.83,3.82,3.82,0,0,1,3.1-1.41,3.87,3.87,0,0,1,3.1,1.38,5.68,5.68,0,0,1,1.2,3.74v1.17a5.76,5.76,0,0,1-1.17,3.81,4.15,4.15,0,0,1-6.2,0,5.66,5.66,0,0,1-1.21-3.69Zm1.82,1a4.68,4.68,0,0,0,.67,2.69,2.1,2.1,0,0,0,1.81,1c1.6,0,2.42-1.16,2.47-3.47V122.5a4.72,4.72,0,0,0-.68-2.69,2.09,2.09,0,0,0-1.81-1,2.06,2.06,0,0,0-1.79,1,4.68,4.68,0,0,0-.67,2.68Z" transform="translate(0 0)" fill="#4d4d4d"/>
          <path d="M292.61,117.47l.06,1.2a3.22,3.22,0,0,1,2.69-1.41q2.94,0,3,3.93v7.37h-1.81v-7.29a3,3,0,0,0-.43-1.85,1.61,1.61,0,0,0-1.31-.55,1.86,1.86,0,0,0-1.22.45,3.17,3.17,0,0,0-.86,1.18v8.06H290.9V117.47Z" transform="translate(0 0)" fill="#4d4d4d"/>
          <path d="M306.46,125.72a1.34,1.34,0,0,0-.44-1,6.84,6.84,0,0,0-1.71-1,11.26,11.26,0,0,1-2.06-1,3.06,3.06,0,0,1-.9-1,2.7,2.7,0,0,1-.3-1.31,2.91,2.91,0,0,1,1-2.25,4,4,0,0,1,5.13,0,3.19,3.19,0,0,1,1,2.42h-1.81a1.76,1.76,0,0,0-.5-1.28,1.69,1.69,0,0,0-1.28-.53,1.81,1.81,0,0,0-1.26.42,1.41,1.41,0,0,0-.45,1.1,1.21,1.21,0,0,0,.33.89,5.62,5.62,0,0,0,1.6.89,8.08,8.08,0,0,1,2.75,1.55,2.62,2.62,0,0,1,.73,1.91,2.93,2.93,0,0,1-1,2.32,4.49,4.49,0,0,1-5.48-.13,3.27,3.27,0,0,1-1.08-2.52h1.83a2.17,2.17,0,0,0,3.43,1.56A1.35,1.35,0,0,0,306.46,125.72Z" transform="translate(0 0)" fill="#4d4d4d"/>
          <path d="M314.6,128.77a4,4,0,0,1-3.18-1.24,5.3,5.3,0,0,1-1.13-3.62v-1.35a6.27,6.27,0,0,1,1.08-3.89,3.59,3.59,0,0,1,3-1.41,3.5,3.5,0,0,1,2.92,1.24,6.39,6.39,0,0,1,1,3.87v1.19H312.1v.26a4,4,0,0,0,.67,2.59,2.37,2.37,0,0,0,1.93.81,3.18,3.18,0,0,0,1.41-.3,3.36,3.36,0,0,0,1.14-1l.95,1.15A4.14,4.14,0,0,1,314.6,128.77Zm-.21-10a1.89,1.89,0,0,0-1.67.78,4.5,4.5,0,0,0-.61,2.4h4.36v-.25a4.17,4.17,0,0,0-.56-2.25A1.78,1.78,0,0,0,314.39,118.82Z" transform="translate(0 0)" fill="#4d4d4d"/>
          <path d="M329.86,119.17a4.32,4.32,0,0,0-.82-.07,2,2,0,0,0-2,1.53v7.93h-1.82V117.47H327l0,1.13a2.25,2.25,0,0,1,2.06-1.34,1.57,1.57,0,0,1,.72.15Z" transform="translate(0 0)" fill="#4d4d4d"/>
          <path d="M337.37,128.56a3.77,3.77,0,0,1-.23-1.21,2.89,2.89,0,0,1-2.47,1.42,3.17,3.17,0,0,1-2.35-.85,3.23,3.23,0,0,1-.84-2.38,3.38,3.38,0,0,1,1.14-2.69,4.74,4.74,0,0,1,3.15-1h1.34v-1.18a1.57,1.57,0,0,0-1.79-1.84,1.82,1.82,0,0,0-1.33.49,1.64,1.64,0,0,0-.52,1.23h-1.81a3,3,0,0,1,.5-1.62,3.57,3.57,0,0,1,1.36-1.22,4.08,4.08,0,0,1,1.89-.44,3.62,3.62,0,0,1,2.59.85,3.28,3.28,0,0,1,.91,2.46v5.6a6.73,6.73,0,0,0,.35,2.23v.16ZM335,127.12a2.43,2.43,0,0,0,1.27-.37,2.33,2.33,0,0,0,.89-.93v-2.64h-1a3.43,3.43,0,0,0-2,.58,1.83,1.83,0,0,0-.75,1.56,2,2,0,0,0,.38,1.37A1.62,1.62,0,0,0,335,127.12Z" transform="translate(0 0)" fill="#4d4d4d"/>
          <path d="M344.1,114.78v2.69h1.67v1.46H344.1v6.89a1.93,1.93,0,0,0,.21,1,.81.81,0,0,0,.74.34,2.12,2.12,0,0,0,.73-.13l0,1.53a3.87,3.87,0,0,1-1.26.21,1.9,1.9,0,0,1-1.64-.77,3.6,3.6,0,0,1-.57-2.18v-6.89H340.6v-1.46h1.69v-2.69Z" transform="translate(0 0)" fill="#4d4d4d"/>
          <path d="M351.89,128.77a4,4,0,0,1-3.18-1.24,5.35,5.35,0,0,1-1.13-3.62v-1.35a6.27,6.27,0,0,1,1.09-3.89,3.58,3.58,0,0,1,3-1.41,3.48,3.48,0,0,1,2.91,1.24,6.39,6.39,0,0,1,1,3.87v1.19h-6.19v.26a4,4,0,0,0,.67,2.59,2.37,2.37,0,0,0,1.93.81,3.12,3.12,0,0,0,1.41-.3,3.49,3.49,0,0,0,1.15-1l.94,1.15A4.14,4.14,0,0,1,351.89,128.77Zm-.2-10a1.91,1.91,0,0,0-1.68.78,4.6,4.6,0,0,0-.61,2.4h4.37v-.25a4.25,4.25,0,0,0-.57-2.25A1.76,1.76,0,0,0,351.69,118.82Z" transform="translate(0 0)" fill="#4d4d4d"/>
        </g>
        <g>
          <path d="M213.63,153.76a7,7,0,0,1-.21-1.54,3.55,3.55,0,0,1-1.32,1.29,3.41,3.41,0,0,1-1.74.46,3,3,0,0,1-2.24-.81,3.16,3.16,0,0,1-.8-2.31,3.21,3.21,0,0,1,1.11-2.58,4.61,4.61,0,0,1,3.07-1h1.91v-1.55a2.16,2.16,0,0,0-.59-1.7,2.52,2.52,0,0,0-1.73-.52,2.47,2.47,0,0,0-1.73.61,2.06,2.06,0,0,0-.68,1.59h-1.13a3,3,0,0,1,1-2.31,3.65,3.65,0,0,1,2.58-.95,3.5,3.5,0,0,1,2.53.84,3.29,3.29,0,0,1,.86,2.45v5.45a7.44,7.44,0,0,0,.3,2.44v.12Zm-3.13-.89a3.05,3.05,0,0,0,2.91-1.92v-2.69h-1.8a3.6,3.6,0,0,0-2.35.69,2.25,2.25,0,0,0-.79,1.81C208.47,152.17,209.15,152.87,210.5,152.87Z" transform="translate(0 0)" fill="#4d4d4d"/>
          <path d="M219.36,139.84v2.83h1.9v1h-1.9v7.38a2.65,2.65,0,0,0,.27,1.35,1,1,0,0,0,.91.45,4.64,4.64,0,0,0,.82-.1l0,1a2.75,2.75,0,0,1-1.12.18c-1.33,0-2-.92-2.05-2.75v-7.53h-1.71v-1h1.71v-2.83Z" transform="translate(0 0)" fill="#4d4d4d"/>
          <path d="M231.09,149.7l.36,2.22.45-2.12,2.68-11h1l2.64,11,.44,2.14.39-2.24,2.2-10.87h1.19l-3.18,14.93h-1.1l-2.8-11.64-.3-1.38-.29,1.38L232,153.76h-1.12l-3.16-14.93h1.19Z" transform="translate(0 0)" fill="#4d4d4d"/>
          <path d="M248,154a3.86,3.86,0,0,1-3.07-1.28A5.54,5.54,0,0,1,243.8,149v-1.36a6.18,6.18,0,0,1,1.06-3.83,3.52,3.52,0,0,1,2.94-1.39,3.34,3.34,0,0,1,2.75,1.18,5.85,5.85,0,0,1,1,3.61v1.07h-6.6v.62a4.71,4.71,0,0,0,.82,2.95,2.75,2.75,0,0,0,2.3,1,3.32,3.32,0,0,0,2.66-1.2l.59.76A3.81,3.81,0,0,1,248,154Zm-.19-10.44a2.45,2.45,0,0,0-2.07.95,4.78,4.78,0,0,0-.79,2.77h5.44V147C250.33,144.67,249.46,143.53,247.8,143.53Z" transform="translate(0 0)" fill="#4d4d4d"/>
          <path d="M257.6,154a3.86,3.86,0,0,1-3.07-1.28A5.55,5.55,0,0,1,253.4,149v-1.36a6.18,6.18,0,0,1,1.07-3.83,3.51,3.51,0,0,1,2.93-1.39,3.36,3.36,0,0,1,2.76,1.18,5.79,5.79,0,0,1,1,3.61v1.07h-6.59v.62a4.65,4.65,0,0,0,.82,2.95,2.75,2.75,0,0,0,2.3,1,3.3,3.3,0,0,0,2.65-1.2l.6.76A3.84,3.84,0,0,1,257.6,154Zm-.2-10.44a2.44,2.44,0,0,0-2.06.95,4.85,4.85,0,0,0-.8,2.77H260V147Q259.9,143.53,257.4,143.53Z" transform="translate(0 0)" fill="#4d4d4d"/>
          <path d="M265.85,148.22l-1.16,1.29v4.25h-1.14V138h1.14v10l1-1.21,3.43-4.15h1.42l-3.9,4.68,4.27,6.41h-1.36Z" transform="translate(0 0)" fill="#4d4d4d"/>
          <path d="M283.61,148.94h1.92V150h-1.92v3.75h-1.14V150h-5.86v-.73l5.77-10.45h1.23Zm-5.64,0h4.5v-8.38l-.41.83Z" transform="translate(0 0)" fill="#4d4d4d"/>
          <path d="M293.83,148.94h1.91V150h-1.91v3.75h-1.14V150h-5.87v-.73l5.77-10.45h1.24Zm-5.64,0h4.5v-8.38l-.41.83Z" transform="translate(0 0)" fill="#4d4d4d"/>
        </g>
        <g>
          <path d="M156.72,204.25h1.89v10.57a4.84,4.84,0,0,1-1.09,3.35,3.76,3.76,0,0,1-2.94,1.21,3.81,3.81,0,0,1-3-1.15,4.51,4.51,0,0,1-1.05-3.17h1.88a3.15,3.15,0,0,0,.56,2,1.89,1.89,0,0,0,1.57.71,1.85,1.85,0,0,0,1.56-.78,3.56,3.56,0,0,0,.58-2.18Z" transform="translate(0 0)" fill="#4d4d4d"/>
          <path d="M163.68,219.18h-1.87V204.25h1.87Z" transform="translate(0 0)" fill="#4d4d4d"/>
          <path d="M174.11,215.27h-5.05l-1.16,3.91H166l4.81-14.93h1.61l4.82,14.93h-1.92Zm-4.56-1.61h4.07l-2-6.79Z" transform="translate(0 0)" fill="#4d4d4d"/>
          <path d="M191,215.27h-5l-1.16,3.91h-1.93l4.81-14.93h1.61l4.82,14.93h-1.93Zm-4.55-1.61h4.07l-2-6.79Z" transform="translate(0 0)" fill="#4d4d4d"/>
          <path d="M205.41,214.43a5.52,5.52,0,0,1-1.35,3.68,4.58,4.58,0,0,1-3.46,1.27,4.29,4.29,0,0,1-3.57-1.7,7.4,7.4,0,0,1-1.32-4.63v-2.71a7.15,7.15,0,0,1,1.36-4.61,4.51,4.51,0,0,1,3.7-1.69,4.28,4.28,0,0,1,3.35,1.3,5.65,5.65,0,0,1,1.29,3.7h-1.9a4.61,4.61,0,0,0-.77-2.61,2.4,2.4,0,0,0-2-.78,2.68,2.68,0,0,0-2.35,1.2,6.22,6.22,0,0,0-.82,3.5v2.74a6.49,6.49,0,0,0,.77,3.47,2.47,2.47,0,0,0,2.23,1.21,2.7,2.7,0,0,0,2.11-.72,4.59,4.59,0,0,0,.8-2.62Z" transform="translate(0 0)" fill="#4d4d4d"/>
          <path d="M212.46,213.14h-2.62v6H208V204.25h4.18a4.48,4.48,0,0,1,3.33,1.14,4.58,4.58,0,0,1,1.13,3.35,4.69,4.69,0,0,1-.61,2.41,3.91,3.91,0,0,1-1.73,1.56l2.89,6.34v.13h-2Zm-2.62-1.61h2.28a2.43,2.43,0,0,0,1.88-.76,2.94,2.94,0,0,0,.7-2c0-1.91-.87-2.87-2.61-2.87h-2.25Z" transform="translate(0 0)" fill="#4d4d4d"/>
          <path d="M221,210.79h1.16a2.19,2.19,0,0,0,1.73-.69,2.73,2.73,0,0,0,.6-1.87c0-1.75-.68-2.63-2-2.63a1.84,1.84,0,0,0-1.53.71,2.92,2.92,0,0,0-.55,1.86h-1.81a4.14,4.14,0,0,1,1.1-3,4,4,0,0,1,5.59-.06,4.37,4.37,0,0,1,1,3.12,3.68,3.68,0,0,1-.54,1.93,3.34,3.34,0,0,1-1.4,1.32c1.41.52,2.11,1.68,2.11,3.49a4.47,4.47,0,0,1-1.11,3.19,4.21,4.21,0,0,1-5.78.06,4.17,4.17,0,0,1-1.09-3h1.82a2.92,2.92,0,0,0,.57,1.89,1.91,1.91,0,0,0,1.57.7,2,2,0,0,0,1.62-.68,3.18,3.18,0,0,0,.6-2.09c0-1.82-.86-2.72-2.58-2.72H221Z" transform="translate(0 0)" fill="#4d4d4d"/>
          <path d="M237,212.81a10,10,0,0,1-1,4.94,3.62,3.62,0,0,1-6,.06,9.19,9.19,0,0,1-1-4.71v-2.57a9.76,9.76,0,0,1,1-4.88,3.66,3.66,0,0,1,6-.08,9,9,0,0,1,1,4.63Zm-1.81-2.59a8.74,8.74,0,0,0-.53-3.5,1.79,1.79,0,0,0-3.31,0,8.25,8.25,0,0,0-.54,3.33v3.08a8.92,8.92,0,0,0,.54,3.54,1.76,1.76,0,0,0,1.66,1.18,1.7,1.7,0,0,0,1.63-1.11,8.77,8.77,0,0,0,.55-3.42Z" transform="translate(0 0)" fill="#4d4d4d"/>
          <path d="M249,209.79a4.3,4.3,0,0,0-.82-.08,2,2,0,0,0-2,1.53v7.94h-1.82v-11.1h1.77l0,1.13a2.24,2.24,0,0,1,2.06-1.33,1.68,1.68,0,0,1,.72.14Z" transform="translate(0 0)" fill="#4d4d4d"/>
          <path d="M254.57,219.38a4.06,4.06,0,0,1-3.18-1.23,5.32,5.32,0,0,1-1.12-3.63v-1.34a6.27,6.27,0,0,1,1.08-3.89,3.58,3.58,0,0,1,3-1.41,3.44,3.44,0,0,1,2.91,1.24,6.36,6.36,0,0,1,1,3.86v1.19h-6.19v.26a4,4,0,0,0,.67,2.59,2.37,2.37,0,0,0,1.93.81,3.12,3.12,0,0,0,1.41-.3,3.49,3.49,0,0,0,1.15-1l.94,1.15A4.12,4.12,0,0,1,254.57,219.38Zm-.2-9.94a1.88,1.88,0,0,0-1.67.77,4.56,4.56,0,0,0-.62,2.41h4.37v-.25a4.29,4.29,0,0,0-.57-2.26A1.75,1.75,0,0,0,254.37,209.44Z" transform="translate(0 0)" fill="#4d4d4d"/>
          <path d="M265.83,216.34a1.36,1.36,0,0,0-.44-1,6.48,6.48,0,0,0-1.7-1,11.31,11.31,0,0,1-2.07-1,2.87,2.87,0,0,1-.9-1,2.77,2.77,0,0,1-.29-1.3,2.89,2.89,0,0,1,1-2.25,4,4,0,0,1,5.13,0,3.23,3.23,0,0,1,1,2.42h-1.8a1.82,1.82,0,0,0-.5-1.28,1.72,1.72,0,0,0-1.29-.52,1.76,1.76,0,0,0-1.25.41,1.42,1.42,0,0,0-.46,1.11,1.22,1.22,0,0,0,.33.89,6.3,6.3,0,0,0,1.61.89,8.2,8.2,0,0,1,2.75,1.54,2.7,2.7,0,0,1,.73,1.92,3,3,0,0,1-1,2.32,4,4,0,0,1-2.67.86,4,4,0,0,1-2.81-1,3.31,3.31,0,0,1-1.07-2.52h1.82a1.88,1.88,0,0,0,2.06,2,2.07,2.07,0,0,0,1.38-.4A1.37,1.37,0,0,0,265.83,216.34Z" transform="translate(0 0)" fill="#4d4d4d"/>
          <path d="M278,214.16a6.58,6.58,0,0,1-.95,3.93,3.12,3.12,0,0,1-2.68,1.29,3,3,0,0,1-2.57-1.26v5.32H270V208.08h1.64l.1,1.23a2.93,2.93,0,0,1,2.61-1.43,3.11,3.11,0,0,1,2.73,1.27A6.74,6.74,0,0,1,278,213Zm-1.8-1a5.07,5.07,0,0,0-.58-2.75,2,2,0,0,0-1.84-.89,2.13,2.13,0,0,0-2,1.3v5.77a2.13,2.13,0,0,0,2,1.27,2,2,0,0,0,1.81-.88,5.19,5.19,0,0,0,.59-2.71Z" transform="translate(0 0)" fill="#4d4d4d"/>
          <path d="M280,213.12a5.75,5.75,0,0,1,1.18-3.83,3.82,3.82,0,0,1,3.1-1.41,3.89,3.89,0,0,1,3.1,1.37,5.72,5.72,0,0,1,1.2,3.74v1.17a5.79,5.79,0,0,1-1.17,3.82,4.17,4.17,0,0,1-6.2,0,5.66,5.66,0,0,1-1.21-3.69Zm1.82,1a4.71,4.71,0,0,0,.67,2.7,2.09,2.09,0,0,0,1.81,1c1.6,0,2.42-1.15,2.47-3.46v-1.25a4.7,4.7,0,0,0-.68-2.69,2.09,2.09,0,0,0-1.81-1,2.06,2.06,0,0,0-1.79,1,4.68,4.68,0,0,0-.67,2.68Z" transform="translate(0 0)" fill="#4d4d4d"/>
          <path d="M292.61,208.08l.06,1.2a3.24,3.24,0,0,1,2.69-1.4q2.94,0,3,3.93v7.37h-1.81v-7.29a3,3,0,0,0-.43-1.85,1.58,1.58,0,0,0-1.31-.55,1.86,1.86,0,0,0-1.22.45,3.09,3.09,0,0,0-.86,1.18v8.06H290.9v-11.1Z" transform="translate(0 0)" fill="#4d4d4d"/>
          <path d="M306.46,216.34a1.36,1.36,0,0,0-.44-1,6.58,6.58,0,0,0-1.71-1,11.14,11.14,0,0,1-2.06-1,2.87,2.87,0,0,1-.9-1,2.66,2.66,0,0,1-.3-1.3,2.89,2.89,0,0,1,1-2.25,4,4,0,0,1,5.13,0,3.2,3.2,0,0,1,1,2.42h-1.81a1.78,1.78,0,0,0-.5-1.28,1.68,1.68,0,0,0-1.28-.52,1.81,1.81,0,0,0-1.26.41,1.45,1.45,0,0,0-.45,1.11,1.22,1.22,0,0,0,.33.89,6.18,6.18,0,0,0,1.6.89,8.1,8.1,0,0,1,2.75,1.54,2.66,2.66,0,0,1,.73,1.92,2.94,2.94,0,0,1-1,2.32,4.53,4.53,0,0,1-5.48-.13,3.28,3.28,0,0,1-1.08-2.52h1.83a2.18,2.18,0,0,0,3.43,1.56A1.35,1.35,0,0,0,306.46,216.34Z" transform="translate(0 0)" fill="#4d4d4d"/>
          <path d="M314.6,219.38a4.06,4.06,0,0,1-3.18-1.23,5.33,5.33,0,0,1-1.13-3.63v-1.34a6.27,6.27,0,0,1,1.08-3.89,3.59,3.59,0,0,1,3-1.41,3.47,3.47,0,0,1,2.92,1.24,6.36,6.36,0,0,1,1,3.86v1.19H312.1v.26a4,4,0,0,0,.67,2.59,2.37,2.37,0,0,0,1.93.81,3.18,3.18,0,0,0,1.41-.3,3.36,3.36,0,0,0,1.14-1l.95,1.15A4.12,4.12,0,0,1,314.6,219.38Zm-.21-9.94a1.89,1.89,0,0,0-1.67.77,4.57,4.57,0,0,0-.61,2.41h4.36v-.25a4.21,4.21,0,0,0-.56-2.26A1.77,1.77,0,0,0,314.39,209.44Z" transform="translate(0 0)" fill="#4d4d4d"/>
          <path d="M329.86,209.79a4.3,4.3,0,0,0-.82-.08,2,2,0,0,0-2,1.53v7.94h-1.82v-11.1H327l0,1.13a2.24,2.24,0,0,1,2.06-1.33,1.71,1.71,0,0,1,.72.14Z" transform="translate(0 0)" fill="#4d4d4d"/>
          <path d="M337.37,219.18a3.77,3.77,0,0,1-.23-1.21,2.91,2.91,0,0,1-2.47,1.41,3.2,3.2,0,0,1-2.35-.84,3.25,3.25,0,0,1-.84-2.39,3.38,3.38,0,0,1,1.14-2.68,4.69,4.69,0,0,1,3.15-1h1.34v-1.18a1.87,1.87,0,0,0-3.12-1.35,1.66,1.66,0,0,0-.52,1.24h-1.81a3,3,0,0,1,.5-1.63,3.54,3.54,0,0,1,1.36-1.21,4.08,4.08,0,0,1,1.89-.44,3.62,3.62,0,0,1,2.59.84,3.32,3.32,0,0,1,.91,2.47v5.6a6.71,6.71,0,0,0,.35,2.22v.17ZM335,217.73a2.34,2.34,0,0,0,1.27-.37,2.24,2.24,0,0,0,.89-.92v-2.65h-1a3.5,3.5,0,0,0-2,.58,1.86,1.86,0,0,0-.75,1.57,2.06,2.06,0,0,0,.38,1.37A1.66,1.66,0,0,0,335,217.73Z" transform="translate(0 0)" fill="#4d4d4d"/>
          <path d="M344.1,205.4v2.68h1.67v1.47H344.1v6.89a1.87,1.87,0,0,0,.21,1,.81.81,0,0,0,.74.34,2.37,2.37,0,0,0,.73-.12l0,1.53a3.86,3.86,0,0,1-1.26.2,1.88,1.88,0,0,1-1.64-.77,3.57,3.57,0,0,1-.57-2.17v-6.89H340.6v-1.47h1.69V205.4Z" transform="translate(0 0)" fill="#4d4d4d"/>
          <path d="M351.89,219.38a4.06,4.06,0,0,1-3.18-1.23,5.38,5.38,0,0,1-1.13-3.63v-1.34a6.27,6.27,0,0,1,1.09-3.89,3.58,3.58,0,0,1,3-1.41,3.45,3.45,0,0,1,2.91,1.24,6.36,6.36,0,0,1,1,3.86v1.19h-6.19v.26a4,4,0,0,0,.67,2.59,2.37,2.37,0,0,0,1.93.81,3.12,3.12,0,0,0,1.41-.3,3.49,3.49,0,0,0,1.15-1l.94,1.15A4.12,4.12,0,0,1,351.89,219.38Zm-.2-9.94a1.91,1.91,0,0,0-1.68.77,4.67,4.67,0,0,0-.61,2.41h4.37v-.25a4.29,4.29,0,0,0-.57-2.26A1.75,1.75,0,0,0,351.69,209.44Z" transform="translate(0 0)" fill="#4d4d4d"/>
        </g>
        <g>
          <path d="M213.63,244.38a7.11,7.11,0,0,1-.21-1.54,3.7,3.7,0,0,1-1.32,1.29,3.5,3.5,0,0,1-1.74.45,3,3,0,0,1-2.24-.81,3.15,3.15,0,0,1-.8-2.3,3.24,3.24,0,0,1,1.11-2.59,4.6,4.6,0,0,1,3.07-1h1.91v-1.55a2.2,2.2,0,0,0-.59-1.71,2.57,2.57,0,0,0-1.73-.52,2.48,2.48,0,0,0-1.73.62,2.06,2.06,0,0,0-.68,1.59h-1.13a3,3,0,0,1,1-2.31,3.61,3.61,0,0,1,2.58-.95,3.5,3.5,0,0,1,2.53.84,3.29,3.29,0,0,1,.86,2.45v5.44a7.44,7.44,0,0,0,.3,2.44v.13Zm-3.13-.89a3.09,3.09,0,0,0,2.91-1.92v-2.7h-1.8a3.66,3.66,0,0,0-2.35.69,2.25,2.25,0,0,0-.79,1.81C208.47,242.78,209.15,243.49,210.5,243.49Z" transform="translate(0 0)" fill="#4d4d4d"/>
          <path d="M219.36,230.45v2.83h1.9v1h-1.9v7.37a2.69,2.69,0,0,0,.27,1.36,1,1,0,0,0,.91.45,4.88,4.88,0,0,0,.82-.11l0,1a3,3,0,0,1-1.12.17c-1.33,0-2-.91-2.05-2.75v-7.52h-1.71v-1h1.71v-2.83Z" transform="translate(0 0)" fill="#4d4d4d"/>
          <path d="M231.09,240.32l.36,2.21.45-2.11,2.68-11h1l2.64,11,.44,2.13.39-2.23,2.2-10.87h1.19l-3.18,14.93h-1.1l-2.8-11.64-.3-1.38-.29,1.38L232,244.38h-1.12l-3.16-14.93h1.19Z" transform="translate(0 0)" fill="#4d4d4d"/>
          <path d="M248,244.58a3.82,3.82,0,0,1-3.07-1.28,5.51,5.51,0,0,1-1.12-3.65V238.3a6.14,6.14,0,0,1,1.06-3.83,3.49,3.49,0,0,1,2.94-1.39,3.31,3.31,0,0,1,2.75,1.18,5.83,5.83,0,0,1,1,3.61v1.06h-6.6v.63a4.68,4.68,0,0,0,.82,2.94,2.76,2.76,0,0,0,2.3,1,3.32,3.32,0,0,0,2.66-1.2l.59.76A3.81,3.81,0,0,1,248,244.58Zm-.19-10.44a2.45,2.45,0,0,0-2.07,1,4.84,4.84,0,0,0-.79,2.78h5.44v-.3C250.33,235.29,249.46,234.14,247.8,234.14Z" transform="translate(0 0)" fill="#4d4d4d"/>
          <path d="M257.6,244.58a3.82,3.82,0,0,1-3.07-1.28,5.51,5.51,0,0,1-1.13-3.65V238.3a6.14,6.14,0,0,1,1.07-3.83,3.48,3.48,0,0,1,2.93-1.39,3.33,3.33,0,0,1,2.76,1.18,5.77,5.77,0,0,1,1,3.61v1.06h-6.59v.63a4.61,4.61,0,0,0,.82,2.94,2.76,2.76,0,0,0,2.3,1,3.3,3.3,0,0,0,2.65-1.2l.6.76A3.83,3.83,0,0,1,257.6,244.58Zm-.2-10.44a2.44,2.44,0,0,0-2.06,1,4.91,4.91,0,0,0-.8,2.78H260v-.3C259.93,235.29,259.07,234.14,257.4,234.14Z" transform="translate(0 0)" fill="#4d4d4d"/>
          <path d="M265.85,238.83l-1.16,1.29v4.26h-1.14V228.63h1.14v10l1-1.21,3.43-4.16h1.42L266.6,238l4.27,6.41h-1.36Z" transform="translate(0 0)" fill="#4d4d4d"/>
          <path d="M283.61,239.56h1.92v1.06h-1.92v3.76h-1.14v-3.76h-5.86v-.72l5.77-10.45h1.23Zm-5.64,0h4.5v-8.39l-.41.83Z" transform="translate(0 0)" fill="#4d4d4d"/>
          <path d="M293.83,239.56h1.91v1.06h-1.91v3.76h-1.14v-3.76h-5.87v-.72l5.77-10.45h1.24Zm-5.64,0h4.5v-8.39l-.41.83Z" transform="translate(0 0)" fill="#4d4d4d"/>
        </g>
        <g>
          <path d="M156.72,294.86h1.89v10.57a4.88,4.88,0,0,1-1.09,3.36,3.79,3.79,0,0,1-2.94,1.21,3.85,3.85,0,0,1-3-1.15,4.55,4.55,0,0,1-1.05-3.18h1.88a3.13,3.13,0,0,0,.56,2,1.88,1.88,0,0,0,1.57.72,1.85,1.85,0,0,0,1.56-.78,3.59,3.59,0,0,0,.58-2.19Z" transform="translate(0 0)" fill="#4d4d4d"/>
          <path d="M163.68,309.79h-1.87V294.86h1.87Z" transform="translate(0 0)" fill="#4d4d4d"/>
          <path d="M174.11,305.89h-5.05l-1.16,3.9H166l4.81-14.93h1.61l4.82,14.93h-1.92Zm-4.56-1.61h4.07l-2-6.79Z" transform="translate(0 0)" fill="#4d4d4d"/>
          <path d="M191,305.89h-5l-1.16,3.9h-1.93l4.81-14.93h1.61l4.82,14.93h-1.93Zm-4.55-1.61h4.07l-2-6.79Z" transform="translate(0 0)" fill="#4d4d4d"/>
          <path d="M205.41,305.05a5.51,5.51,0,0,1-1.35,3.67A4.58,4.58,0,0,1,200.6,310a4.27,4.27,0,0,1-3.57-1.71,7.38,7.38,0,0,1-1.32-4.63V301a7.12,7.12,0,0,1,1.36-4.6,4.48,4.48,0,0,1,3.7-1.69,4.31,4.31,0,0,1,3.35,1.29,5.67,5.67,0,0,1,1.29,3.7h-1.9a4.58,4.58,0,0,0-.77-2.6,2.4,2.4,0,0,0-2-.78,2.69,2.69,0,0,0-2.35,1.19,6.26,6.26,0,0,0-.82,3.5v2.74a6.55,6.55,0,0,0,.77,3.48,2.49,2.49,0,0,0,2.23,1.21,2.67,2.67,0,0,0,2.11-.73,4.58,4.58,0,0,0,.8-2.61Z" transform="translate(0 0)" fill="#4d4d4d"/>
          <path d="M212.46,303.75h-2.62v6H208V294.86h4.18a4.44,4.44,0,0,1,3.33,1.15,4.56,4.56,0,0,1,1.13,3.34,4.73,4.73,0,0,1-.61,2.42,3.89,3.89,0,0,1-1.73,1.55l2.89,6.35v.12h-2Zm-2.62-1.61h2.28a2.43,2.43,0,0,0,1.88-.76,2.89,2.89,0,0,0,.7-2q0-2.88-2.61-2.88h-2.25Z" transform="translate(0 0)" fill="#4d4d4d"/>
          <path d="M226.92,295.93l-5.14,13.86h-1.89L225,296.42h-6.65v-1.56h8.56Z" transform="translate(0 0)" fill="#4d4d4d"/>
          <path d="M237,303.42a10,10,0,0,1-1,4.94,3.62,3.62,0,0,1-6,.07,9.25,9.25,0,0,1-1-4.72v-2.56a9.73,9.73,0,0,1,1-4.88,3.66,3.66,0,0,1,6-.08,9,9,0,0,1,1,4.62Zm-1.81-2.59a8.68,8.68,0,0,0-.53-3.49,1.79,1.79,0,0,0-3.31,0,8.19,8.19,0,0,0-.54,3.33v3.07a9,9,0,0,0,.54,3.55,1.77,1.77,0,0,0,1.66,1.18,1.7,1.7,0,0,0,1.63-1.12,8.68,8.68,0,0,0,.55-3.41Z" transform="translate(0 0)" fill="#4d4d4d"/>
          <path d="M249,300.4a4.32,4.32,0,0,0-.82-.07,2,2,0,0,0-2,1.53v7.93h-1.82V298.7h1.77l0,1.13a2.25,2.25,0,0,1,2.06-1.34,1.54,1.54,0,0,1,.72.15Z" transform="translate(0 0)" fill="#4d4d4d"/>
          <path d="M254.57,310a4,4,0,0,1-3.18-1.24,5.3,5.3,0,0,1-1.12-3.62v-1.35a6.27,6.27,0,0,1,1.08-3.89,3.58,3.58,0,0,1,3-1.41,3.47,3.47,0,0,1,2.91,1.24,6.39,6.39,0,0,1,1,3.87v1.19h-6.19v.26a4,4,0,0,0,.67,2.59,2.37,2.37,0,0,0,1.93.81,3.12,3.12,0,0,0,1.41-.3,3.49,3.49,0,0,0,1.15-1l.94,1.15A4.14,4.14,0,0,1,254.57,310Zm-.2-9.95a1.88,1.88,0,0,0-1.67.78,4.5,4.5,0,0,0-.62,2.4h4.37V303a4.25,4.25,0,0,0-.57-2.25A1.76,1.76,0,0,0,254.37,300.05Z" transform="translate(0 0)" fill="#4d4d4d"/>
          <path d="M265.83,307a1.34,1.34,0,0,0-.44-1,6.73,6.73,0,0,0-1.7-1,11.43,11.43,0,0,1-2.07-1,3.06,3.06,0,0,1-.9-1,2.81,2.81,0,0,1-.29-1.31,2.91,2.91,0,0,1,1-2.25,4,4,0,0,1,5.13.05,3.22,3.22,0,0,1,1,2.42h-1.8a1.81,1.81,0,0,0-.5-1.28,1.73,1.73,0,0,0-1.29-.53,1.77,1.77,0,0,0-1.25.42,1.38,1.38,0,0,0-.46,1.1,1.21,1.21,0,0,0,.33.89,5.73,5.73,0,0,0,1.61.89,8.19,8.19,0,0,1,2.75,1.55,2.66,2.66,0,0,1,.73,1.91,2.94,2.94,0,0,1-1,2.32A3.9,3.9,0,0,1,264,310a4,4,0,0,1-2.81-1,3.29,3.29,0,0,1-1.07-2.52h1.82a1.88,1.88,0,0,0,2.06,2,2.07,2.07,0,0,0,1.38-.41A1.37,1.37,0,0,0,265.83,307Z" transform="translate(0 0)" fill="#4d4d4d"/>
          <path d="M278,304.78a6.6,6.6,0,0,1-.95,3.93,3.12,3.12,0,0,1-2.68,1.29,3,3,0,0,1-2.57-1.26v5.32H270V298.7h1.64l.1,1.23a2.92,2.92,0,0,1,2.61-1.44,3.14,3.14,0,0,1,2.73,1.27,6.76,6.76,0,0,1,.93,3.81Zm-1.8-1a5.09,5.09,0,0,0-.58-2.75,2,2,0,0,0-1.84-.89,2.15,2.15,0,0,0-2,1.3v5.78a2.13,2.13,0,0,0,2,1.27,2,2,0,0,0,1.81-.89,5.16,5.16,0,0,0,.59-2.71Z" transform="translate(0 0)" fill="#4d4d4d"/>
          <path d="M280,303.73a5.77,5.77,0,0,1,1.18-3.83,3.82,3.82,0,0,1,3.1-1.41,3.87,3.87,0,0,1,3.1,1.38,5.68,5.68,0,0,1,1.2,3.74v1.17a5.76,5.76,0,0,1-1.17,3.81,4.15,4.15,0,0,1-6.2,0,5.66,5.66,0,0,1-1.21-3.69Zm1.82,1a4.68,4.68,0,0,0,.67,2.69,2.1,2.1,0,0,0,1.81,1c1.6,0,2.42-1.16,2.47-3.47v-1.25a4.72,4.72,0,0,0-.68-2.69,2.09,2.09,0,0,0-1.81-1,2.06,2.06,0,0,0-1.79,1,4.68,4.68,0,0,0-.67,2.68Z" transform="translate(0 0)" fill="#4d4d4d"/>
          <path d="M292.61,298.7l.06,1.2a3.22,3.22,0,0,1,2.69-1.41q2.94,0,3,3.93v7.37h-1.81V302.5a3,3,0,0,0-.43-1.85,1.61,1.61,0,0,0-1.31-.55,1.86,1.86,0,0,0-1.22.45,3.17,3.17,0,0,0-.86,1.18v8.06H290.9V298.7Z" transform="translate(0 0)" fill="#4d4d4d"/>
          <path d="M306.46,307a1.34,1.34,0,0,0-.44-1,6.84,6.84,0,0,0-1.71-1,11.26,11.26,0,0,1-2.06-1,3.06,3.06,0,0,1-.9-1,2.7,2.7,0,0,1-.3-1.31,2.91,2.91,0,0,1,1-2.25,4,4,0,0,1,5.13.05,3.19,3.19,0,0,1,1,2.42h-1.81a1.76,1.76,0,0,0-.5-1.28,1.69,1.69,0,0,0-1.28-.53,1.81,1.81,0,0,0-1.26.42,1.41,1.41,0,0,0-.45,1.1,1.21,1.21,0,0,0,.33.89,5.62,5.62,0,0,0,1.6.89,8.08,8.08,0,0,1,2.75,1.55,2.62,2.62,0,0,1,.73,1.91,2.93,2.93,0,0,1-1,2.32,4.49,4.49,0,0,1-5.48-.13,3.27,3.27,0,0,1-1.08-2.52h1.83A2.17,2.17,0,0,0,306,308,1.35,1.35,0,0,0,306.46,307Z" transform="translate(0 0)" fill="#4d4d4d"/>
          <path d="M314.6,310a4,4,0,0,1-3.18-1.24,5.3,5.3,0,0,1-1.13-3.62v-1.35a6.27,6.27,0,0,1,1.08-3.89,3.59,3.59,0,0,1,3-1.41,3.5,3.5,0,0,1,2.92,1.24,6.39,6.39,0,0,1,1,3.87v1.19H312.1v.26a4,4,0,0,0,.67,2.59,2.37,2.37,0,0,0,1.93.81,3.18,3.18,0,0,0,1.41-.3,3.36,3.36,0,0,0,1.14-1l.95,1.15A4.14,4.14,0,0,1,314.6,310Zm-.21-9.95a1.89,1.89,0,0,0-1.67.78,4.5,4.5,0,0,0-.61,2.4h4.36V303a4.17,4.17,0,0,0-.56-2.25A1.78,1.78,0,0,0,314.39,300.05Z" transform="translate(0 0)" fill="#4d4d4d"/>
          <path d="M329.86,300.4a4.32,4.32,0,0,0-.82-.07,2,2,0,0,0-2,1.53v7.93h-1.82V298.7H327l0,1.13a2.25,2.25,0,0,1,2.06-1.34,1.57,1.57,0,0,1,.72.15Z" transform="translate(0 0)" fill="#4d4d4d"/>
          <path d="M337.37,309.79a3.77,3.77,0,0,1-.23-1.21,2.89,2.89,0,0,1-2.47,1.42,3.17,3.17,0,0,1-2.35-.85,3.23,3.23,0,0,1-.84-2.38,3.38,3.38,0,0,1,1.14-2.69,4.74,4.74,0,0,1,3.15-1h1.34v-1.18a1.57,1.57,0,0,0-1.79-1.84,1.82,1.82,0,0,0-1.33.49,1.64,1.64,0,0,0-.52,1.23h-1.81a3,3,0,0,1,.5-1.62,3.57,3.57,0,0,1,1.36-1.22,4.08,4.08,0,0,1,1.89-.44,3.62,3.62,0,0,1,2.59.85,3.28,3.28,0,0,1,.91,2.46v5.6a6.73,6.73,0,0,0,.35,2.23v.16ZM335,308.35a2.43,2.43,0,0,0,1.27-.37,2.33,2.33,0,0,0,.89-.93v-2.64h-1a3.43,3.43,0,0,0-2,.58,1.83,1.83,0,0,0-.75,1.56,2,2,0,0,0,.38,1.37A1.62,1.62,0,0,0,335,308.35Z" transform="translate(0 0)" fill="#4d4d4d"/>
          <path d="M344.1,296v2.69h1.67v1.46H344.1v6.89a1.93,1.93,0,0,0,.21,1,.81.81,0,0,0,.74.34,2.12,2.12,0,0,0,.73-.13l0,1.53a3.87,3.87,0,0,1-1.26.21,1.9,1.9,0,0,1-1.64-.77,3.6,3.6,0,0,1-.57-2.18v-6.89H340.6V298.7h1.69V296Z" transform="translate(0 0)" fill="#4d4d4d"/>
          <path d="M351.89,310a4,4,0,0,1-3.18-1.24,5.35,5.35,0,0,1-1.13-3.62v-1.35a6.27,6.27,0,0,1,1.09-3.89,3.58,3.58,0,0,1,3-1.41,3.48,3.48,0,0,1,2.91,1.24,6.39,6.39,0,0,1,1,3.87v1.19h-6.19v.26a4,4,0,0,0,.67,2.59,2.37,2.37,0,0,0,1.93.81,3.12,3.12,0,0,0,1.41-.3,3.49,3.49,0,0,0,1.15-1l.94,1.15A4.14,4.14,0,0,1,351.89,310Zm-.2-9.95a1.91,1.91,0,0,0-1.68.78,4.6,4.6,0,0,0-.61,2.4h4.37V303a4.25,4.25,0,0,0-.57-2.25A1.76,1.76,0,0,0,351.69,300.05Z" transform="translate(0 0)" fill="#4d4d4d"/>
        </g>
        <g>
          <path d="M213.63,335a7,7,0,0,1-.21-1.54,3.55,3.55,0,0,1-1.32,1.29,3.41,3.41,0,0,1-1.74.46,3,3,0,0,1-2.24-.81,3.16,3.16,0,0,1-.8-2.31,3.21,3.21,0,0,1,1.11-2.58,4.61,4.61,0,0,1,3.07-1h1.91V327a2.16,2.16,0,0,0-.59-1.7,2.52,2.52,0,0,0-1.73-.52,2.47,2.47,0,0,0-1.73.61,2.06,2.06,0,0,0-.68,1.59h-1.13a3,3,0,0,1,1-2.31,3.65,3.65,0,0,1,2.58-.95,3.5,3.5,0,0,1,2.53.84,3.29,3.29,0,0,1,.86,2.45v5.45a7.44,7.44,0,0,0,.3,2.44V335Zm-3.13-.89a3.05,3.05,0,0,0,2.91-1.92v-2.69h-1.8a3.6,3.6,0,0,0-2.35.69,2.25,2.25,0,0,0-.79,1.81C208.47,333.4,209.15,334.1,210.5,334.1Z" transform="translate(0 0)" fill="#4d4d4d"/>
          <path d="M219.36,321.07v2.83h1.9v1h-1.9v7.38a2.65,2.65,0,0,0,.27,1.35,1,1,0,0,0,.91.45,4.64,4.64,0,0,0,.82-.1l0,1a2.75,2.75,0,0,1-1.12.18c-1.33,0-2-.92-2.05-2.75v-7.53h-1.71v-1h1.71v-2.83Z" transform="translate(0 0)" fill="#4d4d4d"/>
          <path d="M231.09,330.93l.36,2.22.45-2.12,2.68-11h1l2.64,11,.44,2.14.39-2.24,2.2-10.87h1.19L239.3,335h-1.1l-2.8-11.64-.3-1.38-.29,1.38L232,335h-1.12l-3.16-14.93h1.19Z" transform="translate(0 0)" fill="#4d4d4d"/>
          <path d="M248,335.2a3.86,3.86,0,0,1-3.07-1.28,5.54,5.54,0,0,1-1.12-3.65v-1.36a6.18,6.18,0,0,1,1.06-3.83,3.52,3.52,0,0,1,2.94-1.39,3.34,3.34,0,0,1,2.75,1.18,5.85,5.85,0,0,1,1,3.61v1.07h-6.6v.62a4.71,4.71,0,0,0,.82,2.95,2.75,2.75,0,0,0,2.3,1,3.32,3.32,0,0,0,2.66-1.2l.59.76A3.81,3.81,0,0,1,248,335.2Zm-.19-10.44a2.45,2.45,0,0,0-2.07.95,4.78,4.78,0,0,0-.79,2.77h5.44v-.3C250.33,325.9,249.46,324.76,247.8,324.76Z" transform="translate(0 0)" fill="#4d4d4d"/>
          <path d="M257.6,335.2a3.86,3.86,0,0,1-3.07-1.28,5.55,5.55,0,0,1-1.13-3.65v-1.36a6.18,6.18,0,0,1,1.07-3.83,3.51,3.51,0,0,1,2.93-1.39,3.36,3.36,0,0,1,2.76,1.18,5.79,5.79,0,0,1,1,3.61v1.07h-6.59v.62a4.65,4.65,0,0,0,.82,2.95,2.75,2.75,0,0,0,2.3,1,3.3,3.3,0,0,0,2.65-1.2l.6.76A3.84,3.84,0,0,1,257.6,335.2Zm-.2-10.44a2.44,2.44,0,0,0-2.06.95,4.85,4.85,0,0,0-.8,2.77H260v-.3Q259.9,324.76,257.4,324.76Z" transform="translate(0 0)" fill="#4d4d4d"/>
          <path d="M265.85,329.45l-1.16,1.29V335h-1.14V319.24h1.14v10l1-1.21,3.43-4.15h1.42l-3.9,4.68,4.27,6.41h-1.36Z" transform="translate(0 0)" fill="#4d4d4d"/>
          <path d="M283.61,330.17h1.92v1.07h-1.92V335h-1.14v-3.75h-5.86v-.73l5.77-10.45h1.23Zm-5.64,0h4.5v-8.38l-.41.83Z" transform="translate(0 0)" fill="#4d4d4d"/>
          <path d="M293.83,330.17h1.91v1.07h-1.91V335h-1.14v-3.75h-5.87v-.73l5.77-10.45h1.24Zm-5.64,0h4.5v-8.38l-.41.83Z" transform="translate(0 0)" fill="#4d4d4d"/>
        </g>
        <g>
          <path d="M100.06,395.66a5.59,5.59,0,0,1-1.35,3.68,4.58,4.58,0,0,1-3.46,1.27,4.29,4.29,0,0,1-3.57-1.7,7.4,7.4,0,0,1-1.32-4.63v-2.71A7.21,7.21,0,0,1,91.71,387a4.54,4.54,0,0,1,3.71-1.69,4.3,4.3,0,0,1,3.35,1.3,5.65,5.65,0,0,1,1.29,3.7h-1.9a4.61,4.61,0,0,0-.77-2.61,2.41,2.41,0,0,0-2-.78,2.68,2.68,0,0,0-2.35,1.2,6.22,6.22,0,0,0-.82,3.5v2.74a6.49,6.49,0,0,0,.77,3.47A2.47,2.47,0,0,0,95.25,399a2.72,2.72,0,0,0,2.11-.72,4.59,4.59,0,0,0,.8-2.62Z" transform="translate(0 0)" fill="#4d4d4d"/>
          <path d="M104.16,390.45a3.21,3.21,0,0,1,2.64-1.34c2,0,3,1.31,3,3.93v7.37H108v-7.29a3,3,0,0,0-.43-1.85,1.56,1.56,0,0,0-1.31-.55,1.82,1.82,0,0,0-1.21.45,3.22,3.22,0,0,0-.87,1.18v8.06h-1.82V384.66h1.82Z" transform="translate(0 0)" fill="#4d4d4d"/>
          <path d="M118.2,400.41a4,4,0,0,1-.24-1.21,2.88,2.88,0,0,1-2.46,1.41,3.17,3.17,0,0,1-2.35-.84,3.22,3.22,0,0,1-.85-2.39,3.35,3.35,0,0,1,1.15-2.68,4.66,4.66,0,0,1,3.15-1h1.33V392.5a1.56,1.56,0,0,0-1.79-1.83,1.87,1.87,0,0,0-1.33.48,1.65,1.65,0,0,0-.51,1.24h-1.82a2.93,2.93,0,0,1,.51-1.63,3.44,3.44,0,0,1,1.35-1.21,4.12,4.12,0,0,1,1.9-.44,3.64,3.64,0,0,1,2.59.84,3.32,3.32,0,0,1,.9,2.47V398a7,7,0,0,0,.35,2.22v.17ZM115.78,399a2.39,2.39,0,0,0,1.27-.37,2.28,2.28,0,0,0,.88-.92V395h-1a3.5,3.5,0,0,0-2,.58,1.85,1.85,0,0,0-.74,1.57,2.06,2.06,0,0,0,.37,1.37A1.68,1.68,0,0,0,115.78,399Z" transform="translate(0 0)" fill="#4d4d4d"/>
          <path d="M124.26,389.31l0,1.2a3.24,3.24,0,0,1,2.69-1.4q2.94,0,3,3.93v7.37h-1.81v-7.29a3,3,0,0,0-.43-1.85,1.56,1.56,0,0,0-1.31-.55,1.86,1.86,0,0,0-1.22.45,3.31,3.31,0,0,0-.86,1.18v8.06h-1.82v-11.1Z" transform="translate(0 0)" fill="#4d4d4d"/>
          <path d="M132.35,394.36a6.73,6.73,0,0,1,.94-3.92,3.16,3.16,0,0,1,2.76-1.33,2.83,2.83,0,0,1,2.57,1.44l.09-1.24h1.64v11.2a4.4,4.4,0,0,1-1,3.16,3.88,3.88,0,0,1-2.94,1.11,5.14,5.14,0,0,1-1.85-.41,3.8,3.8,0,0,1-1.53-1l.74-1.25a3.48,3.48,0,0,0,2.49,1.11c1.51,0,2.29-.83,2.33-2.47v-1.45a2.84,2.84,0,0,1-2.5,1.3,3.16,3.16,0,0,1-2.69-1.29,6.35,6.35,0,0,1-1-3.73Zm1.81,1a5.28,5.28,0,0,0,.55,2.74,2,2,0,0,0,1.8.87,2.17,2.17,0,0,0,2-1.38v-5.54a2.19,2.19,0,0,0-2-1.36,2,2,0,0,0-1.81.87,5.34,5.34,0,0,0-.56,2.69Z" transform="translate(0 0)" fill="#4d4d4d"/>
          <path d="M147,400.61a4.06,4.06,0,0,1-3.18-1.23,5.38,5.38,0,0,1-1.13-3.63v-1.34a6.27,6.27,0,0,1,1.08-3.89,3.6,3.6,0,0,1,3-1.41,3.47,3.47,0,0,1,2.92,1.24,6.36,6.36,0,0,1,1,3.86v1.19h-6.19v.26a4,4,0,0,0,.67,2.59,2.37,2.37,0,0,0,1.93.81,3.18,3.18,0,0,0,1.41-.3,3.36,3.36,0,0,0,1.14-1l1,1.15A4.12,4.12,0,0,1,147,400.61Zm-.21-9.94a1.89,1.89,0,0,0-1.67.77,4.67,4.67,0,0,0-.61,2.41h4.37v-.25a4.29,4.29,0,0,0-.57-2.26A1.76,1.76,0,0,0,146.81,390.67Z" transform="translate(0 0)" fill="#4d4d4d"/>
          <path d="M158.49,400.41v-9.63h-1.44v-1.47h1.44V388a4,4,0,0,1,.86-2.64,2.94,2.94,0,0,1,2.33-.95,3.57,3.57,0,0,1,1.1.18l-.09,1.52a3.7,3.7,0,0,0-.83-.09c-1,0-1.55.74-1.55,2.21v1.05h1.9v1.47h-1.9v9.63Z" transform="translate(0 0)" fill="#4d4d4d"/>
          <path d="M168.92,391a4.22,4.22,0,0,0-.82-.08,2,2,0,0,0-1.95,1.53v7.94h-1.81v-11.1h1.76l0,1.13a2.25,2.25,0,0,1,2.06-1.33,1.68,1.68,0,0,1,.72.14Z" transform="translate(0 0)" fill="#4d4d4d"/>
          <path d="M170.16,394.35a5.8,5.8,0,0,1,1.17-3.83,3.84,3.84,0,0,1,3.1-1.41,3.91,3.91,0,0,1,3.11,1.37,5.72,5.72,0,0,1,1.2,3.74v1.17a5.79,5.79,0,0,1-1.17,3.82,4.18,4.18,0,0,1-6.21,0,5.65,5.65,0,0,1-1.2-3.69Zm1.81,1a4.79,4.79,0,0,0,.67,2.7,2.1,2.1,0,0,0,1.81,1c1.6,0,2.43-1.15,2.48-3.46v-1.25a4.7,4.7,0,0,0-.68-2.69,2.1,2.1,0,0,0-1.82-1,2.08,2.08,0,0,0-1.79,1,4.76,4.76,0,0,0-.67,2.68Z" transform="translate(0 0)" fill="#4d4d4d"/>
          <path d="M182.79,389.31l0,1a3.31,3.31,0,0,1,2.68-1.23,2.61,2.61,0,0,1,2.59,1.61,3.28,3.28,0,0,1,2.91-1.61c2.05,0,3.09,1.27,3.14,3.82v7.48h-1.8v-7.3a3.1,3.1,0,0,0-.43-1.8,1.68,1.68,0,0,0-1.46-.59,1.63,1.63,0,0,0-1.33.63,3,3,0,0,0-.6,1.62v7.44h-1.82V393c0-1.54-.65-2.31-1.88-2.31a2,2,0,0,0-1.94,1.37v8.32h-1.8v-11.1Z" transform="translate(0 0)" fill="#4d4d4d"/>
          <path d="M203.82,394.56v5.85h-1.88V385.48h4.76a4.3,4.3,0,0,1,3.27,1.24,5.33,5.33,0,0,1,.06,6.64,4.38,4.38,0,0,1-3.19,1.2Zm0-1.61h2.88a2.42,2.42,0,0,0,1.92-.75,3.13,3.13,0,0,0,.67-2.14,3.22,3.22,0,0,0-.69-2.16,2.35,2.35,0,0,0-1.89-.81h-2.89Z" transform="translate(0 0)" fill="#4d4d4d"/>
          <path d="M218.91,400.41a3.77,3.77,0,0,1-.23-1.21,2.9,2.9,0,0,1-2.46,1.41,3.21,3.21,0,0,1-2.36-.84,3.25,3.25,0,0,1-.84-2.39,3.35,3.35,0,0,1,1.15-2.68,4.65,4.65,0,0,1,3.14-1h1.34V392.5a1.56,1.56,0,0,0-1.79-1.83,1.86,1.86,0,0,0-1.33.48,1.65,1.65,0,0,0-.51,1.24H213.2a3,3,0,0,1,.5-1.63,3.54,3.54,0,0,1,1.36-1.21,4.08,4.08,0,0,1,1.89-.44,3.62,3.62,0,0,1,2.59.84,3.32,3.32,0,0,1,.91,2.47V398a6.71,6.71,0,0,0,.35,2.22v.17ZM216.49,399a2.34,2.34,0,0,0,1.27-.37,2.24,2.24,0,0,0,.89-.92V395h-1a3.5,3.5,0,0,0-2,.58,1.86,1.86,0,0,0-.75,1.57,2.06,2.06,0,0,0,.38,1.37A1.66,1.66,0,0,0,216.49,399Z" transform="translate(0 0)" fill="#4d4d4d"/>
          <path d="M227.84,391a4.15,4.15,0,0,0-.82-.08,2,2,0,0,0-2,1.53v7.94h-1.81v-11.1H225l0,1.13a2.27,2.27,0,0,1,2.07-1.33,1.66,1.66,0,0,1,.71.14Z" transform="translate(0 0)" fill="#4d4d4d"/>
          <path d="M232.34,386.63v2.68H234v1.47h-1.67v6.89a1.77,1.77,0,0,0,.22,1,.79.79,0,0,0,.73.34,2.33,2.33,0,0,0,.73-.12l0,1.53a3.86,3.86,0,0,1-1.26.2,1.89,1.89,0,0,1-1.64-.77,3.57,3.57,0,0,1-.56-2.17v-6.89h-1.69v-1.47h1.69v-2.68Z" transform="translate(0 0)" fill="#4d4d4d"/>
          <path d="M249.17,400.41h-8.35V399l4.26-5.64a12.57,12.57,0,0,0,1.34-2.13,4.29,4.29,0,0,0,.37-1.77,3.11,3.11,0,0,0-.55-1.93,1.75,1.75,0,0,0-1.46-.74,2.11,2.11,0,0,0-1.76.79,3.58,3.58,0,0,0-.62,2.26h-1.81a4.85,4.85,0,0,1,1.12-3.34,3.94,3.94,0,0,1,3.07-1.27,3.69,3.69,0,0,1,2.81,1.09,4.1,4.1,0,0,1,1,2.91q0,2.22-2.31,5.24L243,398.86h6.18Z" transform="translate(0 0)" fill="#4d4d4d"/>
          <path d="M264.19,395.39a6.76,6.76,0,0,1-.93,3.91,3.11,3.11,0,0,1-2.71,1.31,2.86,2.86,0,0,1-2.64-1.51l-.1,1.31h-1.65V384.66H258v5.87a2.84,2.84,0,0,1,2.56-1.42,3.13,3.13,0,0,1,2.74,1.29,6.84,6.84,0,0,1,.92,3.9Zm-1.8-1a5.38,5.38,0,0,0-.55-2.8,2,2,0,0,0-1.78-.83,2.21,2.21,0,0,0-2.09,1.51v5.28a2.21,2.21,0,0,0,2.11,1.49,1.89,1.89,0,0,0,1.76-.86,5.22,5.22,0,0,0,.55-2.67Z" transform="translate(0 0)" fill="#4d4d4d"/>
          <path d="M272.22,400.41a4,4,0,0,1-.24-1.21,2.88,2.88,0,0,1-2.46,1.41,3.19,3.19,0,0,1-2.35-.84,3.26,3.26,0,0,1-.85-2.39,3.38,3.38,0,0,1,1.15-2.68,4.69,4.69,0,0,1,3.15-1H272V392.5a1.86,1.86,0,0,0-3.11-1.35,1.62,1.62,0,0,0-.52,1.24h-1.81a2.91,2.91,0,0,1,.5-1.63,3.51,3.51,0,0,1,1.35-1.21,4.12,4.12,0,0,1,1.9-.44,3.62,3.62,0,0,1,2.59.84,3.36,3.36,0,0,1,.91,2.47V398a6.47,6.47,0,0,0,.35,2.22v.17ZM269.8,399a2.37,2.37,0,0,0,1.27-.37,2.22,2.22,0,0,0,.88-.92V395h-1a3.5,3.5,0,0,0-2,.58,1.86,1.86,0,0,0-.75,1.57,2,2,0,0,0,.38,1.37A1.66,1.66,0,0,0,269.8,399Z" transform="translate(0 0)" fill="#4d4d4d"/>
          <path d="M282,397.57a1.36,1.36,0,0,0-.44-1,6.31,6.31,0,0,0-1.7-1,11.31,11.31,0,0,1-2.07-1,2.87,2.87,0,0,1-.9-1,2.77,2.77,0,0,1-.29-1.3,2.89,2.89,0,0,1,1-2.25,4,4,0,0,1,5.13,0,3.23,3.23,0,0,1,1,2.42h-1.8a1.82,1.82,0,0,0-.5-1.28,1.72,1.72,0,0,0-1.29-.52,1.76,1.76,0,0,0-1.25.41,1.42,1.42,0,0,0-.46,1.11,1.19,1.19,0,0,0,.34.89,6,6,0,0,0,1.6.89,8.2,8.2,0,0,1,2.75,1.54,2.7,2.7,0,0,1,.73,1.92,3,3,0,0,1-1,2.32,4.51,4.51,0,0,1-5.47-.13,3.28,3.28,0,0,1-1.08-2.52h1.82a2.06,2.06,0,0,0,.57,1.44,2,2,0,0,0,1.5.52,2.05,2.05,0,0,0,1.37-.4A1.37,1.37,0,0,0,282,397.57Z" transform="translate(0 0)" fill="#4d4d4d"/>
          <path d="M290.1,400.61a4.06,4.06,0,0,1-3.18-1.23,5.38,5.38,0,0,1-1.12-3.63v-1.34a6.27,6.27,0,0,1,1.08-3.89,3.59,3.59,0,0,1,3-1.41,3.44,3.44,0,0,1,2.91,1.24,6.36,6.36,0,0,1,1,3.86v1.19H287.6v.26a4.08,4.08,0,0,0,.67,2.59,2.39,2.39,0,0,0,1.94.81,3.18,3.18,0,0,0,1.41-.3,3.56,3.56,0,0,0,1.14-1l.94,1.15A4.1,4.1,0,0,1,290.1,400.61Zm-.2-9.94a1.89,1.89,0,0,0-1.67.77,4.56,4.56,0,0,0-.62,2.41H292v-.25a4.29,4.29,0,0,0-.57-2.26A1.75,1.75,0,0,0,289.9,390.67Z" transform="translate(0 0)" fill="#4d4d4d"/>
          <path d="M297.93,400.41h-1.82V384.66h1.82Z" transform="translate(0 0)" fill="#4d4d4d"/>
          <path d="M302.88,386.37a1.18,1.18,0,0,1-.26.77,1.12,1.12,0,0,1-1.55,0,1.17,1.17,0,0,1-.25-.77,1.2,1.2,0,0,1,.25-.78,1,1,0,0,1,.77-.32.94.94,0,0,1,.78.33A1.19,1.19,0,0,1,302.88,386.37Zm-.14,14h-1.82v-11.1h1.82Z" transform="translate(0 0)" fill="#4d4d4d"/>
          <path d="M307.3,389.31l.05,1.2a3.24,3.24,0,0,1,2.7-1.4q2.94,0,3,3.93v7.37h-1.8v-7.29a3,3,0,0,0-.44-1.85,1.56,1.56,0,0,0-1.31-.55,1.84,1.84,0,0,0-1.21.45,3.22,3.22,0,0,0-.87,1.18v8.06h-1.81v-11.1Z" transform="translate(0 0)" fill="#4d4d4d"/>
          <path d="M319.72,400.61a4,4,0,0,1-3.18-1.23,5.33,5.33,0,0,1-1.13-3.63v-1.34a6.27,6.27,0,0,1,1.08-3.89,3.59,3.59,0,0,1,3-1.41,3.44,3.44,0,0,1,2.91,1.24,6.35,6.35,0,0,1,1,3.86v1.19h-6.2v.26a4,4,0,0,0,.68,2.59,2.35,2.35,0,0,0,1.93.81,3.18,3.18,0,0,0,1.41-.3,3.36,3.36,0,0,0,1.14-1l.95,1.15A4.12,4.12,0,0,1,319.72,400.61Zm-.21-9.94a1.89,1.89,0,0,0-1.67.77,4.66,4.66,0,0,0-.62,2.41h4.37v-.25a4.2,4.2,0,0,0-.57-2.26A1.74,1.74,0,0,0,319.51,390.67Z" transform="translate(0 0)" fill="#4d4d4d"/>
          <path d="M332.49,386.37a1.17,1.17,0,0,1-.25.77,1.12,1.12,0,0,1-1.55,0,1.18,1.18,0,0,1-.26-.77,1.2,1.2,0,0,1,.26-.78.94.94,0,0,1,.77-.32.92.92,0,0,1,.77.33A1.14,1.14,0,0,1,332.49,386.37Zm-.14,14h-1.82v-11.1h1.82Z" transform="translate(0 0)" fill="#4d4d4d"/>
          <path d="M336.91,389.31l0,1.2a3.27,3.27,0,0,1,2.7-1.4c2,0,3,1.31,3,3.93v7.37h-1.8v-7.29a3,3,0,0,0-.44-1.85,1.54,1.54,0,0,0-1.3-.55,1.84,1.84,0,0,0-1.22.45,3.22,3.22,0,0,0-.87,1.18v8.06H335.2v-11.1Z" transform="translate(0 0)" fill="#4d4d4d"/>
          <path d="M359.79,395.66a5.54,5.54,0,0,1-1.35,3.68,4.58,4.58,0,0,1-3.46,1.27,4.29,4.29,0,0,1-3.57-1.7,7.4,7.4,0,0,1-1.32-4.63v-2.71a7.15,7.15,0,0,1,1.36-4.61,4.51,4.51,0,0,1,3.7-1.69,4.28,4.28,0,0,1,3.35,1.3,5.65,5.65,0,0,1,1.29,3.7h-1.9a4.61,4.61,0,0,0-.77-2.61,2.4,2.4,0,0,0-2-.78,2.68,2.68,0,0,0-2.35,1.2,6.22,6.22,0,0,0-.82,3.5v2.74a6.49,6.49,0,0,0,.77,3.47A2.47,2.47,0,0,0,355,399a2.7,2.7,0,0,0,2.11-.72,4.59,4.59,0,0,0,.8-2.62Z" transform="translate(0 0)" fill="#4d4d4d"/>
          <path d="M372.1,400.41h-1.88v-6.9h-6v6.9h-1.88V385.48h1.88v6.42h6v-6.42h1.88Z" transform="translate(0 0)" fill="#4d4d4d"/>
          <path d="M382.46,396.5h-5l-1.16,3.91h-1.93l4.81-14.93h1.61l4.82,14.93h-1.93Zm-4.55-1.61H382l-2-6.79Z" transform="translate(0 0)" fill="#4d4d4d"/>
          <path d="M397.12,394.25a9,9,0,0,1-.53,3.32,4.8,4.8,0,0,1-1.5,2.12l2.23,2-1.27,1.24-2.69-2.45a6.11,6.11,0,0,1-1.25.13,4.49,4.49,0,0,1-3.67-1.63,7.22,7.22,0,0,1-1.37-4.6v-2.72a7.44,7.44,0,0,1,1.33-4.7,4.92,4.92,0,0,1,7.39,0,7.34,7.34,0,0,1,1.33,4.66Zm-1.87-2.61a6.35,6.35,0,0,0-.78-3.52,2.66,2.66,0,0,0-2.38-1.16,2.63,2.63,0,0,0-2.33,1.17,6.23,6.23,0,0,0-.81,3.45v2.67a6.32,6.32,0,0,0,.8,3.49,3,3,0,0,0,4.69.11,6.07,6.07,0,0,0,.81-3.35Z" transform="translate(0 0)" fill="#4d4d4d"/>
          <path d="M404.92,400.41V385.48h3.55a5.15,5.15,0,0,1,4.07,1.63,6.74,6.74,0,0,1,1.44,4.6v2.5a6.55,6.55,0,0,1-1.47,4.58,5.42,5.42,0,0,1-4.25,1.62Zm1.87-13.32V398.8h1.51a3.48,3.48,0,0,0,2.89-1.14,5.3,5.3,0,0,0,.93-3.36v-2.65a5.45,5.45,0,0,0-.9-3.46,3.37,3.37,0,0,0-2.75-1.1Z" transform="translate(0 0)" fill="#4d4d4d"/>
          <path d="M418.86,400.41H417V385.48h1.88Z" transform="translate(0 0)" fill="#4d4d4d"/>
        </g>
        <g>
          <path d="M213.63,425.61a7.11,7.11,0,0,1-.21-1.54,3.7,3.7,0,0,1-1.32,1.29,3.5,3.5,0,0,1-1.74.45,3,3,0,0,1-2.24-.81,3.15,3.15,0,0,1-.8-2.3,3.24,3.24,0,0,1,1.11-2.59,4.6,4.6,0,0,1,3.07-1h1.91V417.6a2.2,2.2,0,0,0-.59-1.71,2.57,2.57,0,0,0-1.73-.52,2.48,2.48,0,0,0-1.73.62,2.06,2.06,0,0,0-.68,1.59h-1.13a3,3,0,0,1,1-2.31,3.61,3.61,0,0,1,2.58-.95,3.5,3.5,0,0,1,2.53.84,3.29,3.29,0,0,1,.86,2.45V423a7.44,7.44,0,0,0,.3,2.44v.13Zm-3.13-.89a3.09,3.09,0,0,0,2.91-1.92v-2.7h-1.8a3.66,3.66,0,0,0-2.35.69,2.25,2.25,0,0,0-.79,1.81C208.47,424,209.15,424.72,210.5,424.72Z" transform="translate(0 0)" fill="#4d4d4d"/>
          <path d="M219.36,411.68v2.83h1.9v1h-1.9v7.37a2.69,2.69,0,0,0,.27,1.36,1,1,0,0,0,.91.45,4.88,4.88,0,0,0,.82-.11l0,1a3,3,0,0,1-1.12.17c-1.33,0-2-.91-2.05-2.75v-7.52h-1.71v-1h1.71v-2.83Z" transform="translate(0 0)" fill="#4d4d4d"/>
          <path d="M231.09,421.55l.36,2.21.45-2.11,2.68-11h1l2.64,11,.44,2.13.39-2.23,2.2-10.87h1.19l-3.18,14.93h-1.1L235.4,414l-.3-1.38-.29,1.38L232,425.61h-1.12l-3.16-14.93h1.19Z" transform="translate(0 0)" fill="#4d4d4d"/>
          <path d="M248,425.81a3.82,3.82,0,0,1-3.07-1.28,5.51,5.51,0,0,1-1.12-3.65v-1.35a6.14,6.14,0,0,1,1.06-3.83,3.49,3.49,0,0,1,2.94-1.39,3.31,3.31,0,0,1,2.75,1.18,5.83,5.83,0,0,1,1,3.61v1.06h-6.6v.63a4.68,4.68,0,0,0,.82,2.94,2.76,2.76,0,0,0,2.3,1,3.32,3.32,0,0,0,2.66-1.2l.59.76A3.81,3.81,0,0,1,248,425.81Zm-.19-10.44a2.45,2.45,0,0,0-2.07.95,4.84,4.84,0,0,0-.79,2.78h5.44v-.3C250.33,416.52,249.46,415.37,247.8,415.37Z" transform="translate(0 0)" fill="#4d4d4d"/>
          <path d="M257.6,425.81a3.82,3.82,0,0,1-3.07-1.28,5.51,5.51,0,0,1-1.13-3.65v-1.35a6.14,6.14,0,0,1,1.07-3.83,3.48,3.48,0,0,1,2.93-1.39,3.33,3.33,0,0,1,2.76,1.18,5.77,5.77,0,0,1,1,3.61v1.06h-6.59v.63a4.61,4.61,0,0,0,.82,2.94,2.76,2.76,0,0,0,2.3,1,3.3,3.3,0,0,0,2.65-1.2l.6.76A3.83,3.83,0,0,1,257.6,425.81Zm-.2-10.44a2.44,2.44,0,0,0-2.06.95,4.91,4.91,0,0,0-.8,2.78H260v-.3C259.93,416.52,259.07,415.37,257.4,415.37Z" transform="translate(0 0)" fill="#4d4d4d"/>
          <path d="M265.85,420.06l-1.16,1.29v4.26h-1.14V409.86h1.14v10l1-1.21,3.43-4.16h1.42l-3.9,4.69,4.27,6.41h-1.36Z" transform="translate(0 0)" fill="#4d4d4d"/>
          <path d="M283.61,420.79h1.92v1.06h-1.92v3.76h-1.14v-3.76h-5.86v-.72l5.77-10.45h1.23Zm-5.64,0h4.5V412.4l-.41.83Z" transform="translate(0 0)" fill="#4d4d4d"/>
          <path d="M293.83,420.79h1.91v1.06h-1.91v3.76h-1.14v-3.76h-5.87v-.72l5.77-10.45h1.24Zm-5.64,0h4.5V412.4l-.41.83Z" transform="translate(0 0)" fill="#4d4d4d"/>
        </g>
      </g>
    </g>
  </g>
</svg>
