<svg xmlns="http://www.w3.org/2000/svg" xmlns:xlink="http://www.w3.org/1999/xlink" width="475.37" height="206.46" viewBox="0 0 475.37 206.46">
  <defs>
    <clipPath id="clip-path">
      <rect x="273.72" y="162.89" width="65.79" height="43.56" fill="none"/>
    </clipPath>
    <clipPath id="clip-path-2">
      <rect x="409.58" y="162.89" width="65.79" height="43.56" fill="none"/>
    </clipPath>
  </defs>
  <g id="Layer_2" data-name="Layer 2">
    <g id="Layer_1-2" data-name="Layer 1">
      <g>
        <g>
          <path d="M25.51,62.89A18.89,18.89,0,1,1,44.39,81.77,18.89,18.89,0,0,1,25.51,62.89" fill="#2eb4ff"/>
          <line x1="63.28" y1="62.89" x2="83.97" y2="62.89" fill="none" stroke="#2eb4ff" stroke-miterlimit="10" stroke-width="3"/>
          <polygon points="82.66 67.37 90.43 62.88 82.66 58.4 82.66 67.37" fill="#2eb4ff"/>
          <polyline points="81.36 6.4 75.52 6.4 75.52 120.38 81.36 120.38" fill="none" stroke="#2eb4ff" stroke-miterlimit="10" stroke-width="3"/>
          <polygon points="80.05 1.91 87.82 6.4 80.05 10.89 80.05 1.91" fill="#2eb4ff"/>
          <polygon points="80.05 124.87 87.82 120.38 80.05 115.89 80.05 124.87" fill="#2eb4ff"/>
          <rect x="309.13" y="39.2" width="123.67" height="40.57" fill="none" stroke="#2eb4ff" stroke-miterlimit="10" stroke-width="3"/>
          <polyline points="25.51 143.78 25.51 136.22 442.47 136.22 442.47 143.78" fill="none" stroke="#231f20" stroke-miterlimit="10" stroke-width="3"/>
          <line x1="306.62" y1="143.78" x2="306.62" y2="136.22" fill="none" stroke="#231f20" stroke-miterlimit="10" stroke-width="3"/>
          <g opacity="0.33">
            <g clip-path="url(#clip-path)">
              <polygon points="306.62 162.89 325.73 181.12 339.51 181.12 339.51 206.46 273.72 206.46 273.72 181.12 287.5 181.12 306.62 162.89" fill="#59c2ef"/>
            </g>
          </g>
          <g opacity="0.33">
            <g clip-path="url(#clip-path-2)">
              <polygon points="442.47 162.89 461.59 181.12 475.37 181.12 475.37 206.46 409.58 206.46 409.58 181.12 423.36 181.12 442.47 162.89" fill="#59c2ef"/>
            </g>
          </g>
        </g>
        <g>
          <path d="M101.67,7.73a3.7,3.7,0,0,1-1,2.58,3.41,3.41,0,0,1-2.49.88,3.12,3.12,0,0,1-2.59-1.12,4.91,4.91,0,0,1-.9-3.17V5.23a4.81,4.81,0,0,1,.93-3.17,3.68,3.68,0,0,1,5.06-.2,4.18,4.18,0,0,1,1,2.61h-2A2.69,2.69,0,0,0,99.34,3a1.27,1.27,0,0,0-1.09-.4,1.23,1.23,0,0,0-1.15.57A3.91,3.91,0,0,0,96.75,5V6.92a4.37,4.37,0,0,0,.33,2,1.22,1.22,0,0,0,1.14.56,1.3,1.3,0,0,0,1.09-.39,2.56,2.56,0,0,0,.35-1.4Z"/>
          <path d="M102.58,7.11a4,4,0,0,1,.8-2.64,3,3,0,0,1,4.4,0,4,4,0,0,1,.8,2.65v.47a4,4,0,0,1-.79,2.65,3,3,0,0,1-4.41,0,4,4,0,0,1-.8-2.65Zm2,.48c0,1.33.35,2,1.06,2s1-.55,1-1.66V7.11a3.16,3.16,0,0,0-.28-1.5.87.87,0,0,0-.8-.49.86.86,0,0,0-.77.49,3.18,3.18,0,0,0-.27,1.5Z"/>
          <path d="M111.67,4.3a1.91,1.91,0,0,1,1.55-.79,1.82,1.82,0,0,1,1.54.71,3.56,3.56,0,0,1,.53,2.12v4.71h-1.94V6.36a1.65,1.65,0,0,0-.21-.94.74.74,0,0,0-.65-.29.91.91,0,0,0-.82.49v5.43h-1.94V.54h1.94Z"/>
          <path d="M116.45,7.11a4,4,0,0,1,.8-2.64,3,3,0,0,1,4.4,0,4,4,0,0,1,.8,2.65v.47a4.08,4.08,0,0,1-.79,2.65,3,3,0,0,1-4.42,0,4.07,4.07,0,0,1-.79-2.65Zm2,.48c0,1.33.35,2,1.06,2s1-.55,1.05-1.66V7.11a3.16,3.16,0,0,0-.28-1.5.88.88,0,0,0-.8-.49.85.85,0,0,0-.77.49,3.18,3.18,0,0,0-.27,1.5Z"/>
          <path d="M127.3,5.51l-.64,0a1,1,0,0,0-1.07.7v4.89h-2V3.65h1.83l0,.8a1.41,1.41,0,0,1,1.27-.94,1.3,1.3,0,0,1,.53.09Z"/>
          <path d="M130.66,1.83V3.65h1V5.1h-1V8.78a1.08,1.08,0,0,0,.12.6.53.53,0,0,0,.46.16,2,2,0,0,0,.46,0l0,1.5a3,3,0,0,1-1.06.19c-1.25,0-1.88-.72-1.9-2.15V5.1h-.85V3.65h.85V1.83Z"/>
          <path d="M140.15,11.05h-1.94V3.44l-1.9.73V2.56l3.63-1.49h.21Z"/>
          <path d="M143.2,4.47a1,1,0,0,1,.31-.77,1.13,1.13,0,0,1,.81-.3,1.16,1.16,0,0,1,.81.3,1,1,0,0,1,.32.77,1,1,0,0,1-.33.77,1.16,1.16,0,0,1-.8.29,1.12,1.12,0,0,1-.8-.3A1,1,0,0,1,143.2,4.47Zm0,5.59a1,1,0,0,1,.31-.76,1.13,1.13,0,0,1,.81-.3,1.2,1.2,0,0,1,.81.29,1,1,0,0,1,.32.77,1,1,0,0,1-.33.77,1.25,1.25,0,0,1-1.6,0A1,1,0,0,1,143.2,10.06Z"/>
          <path d="M154.31,11.05h-1.94V3.44l-1.9.73V2.56l3.63-1.49h.21Z"/>
          <path d="M163,11.05h-5.87V9.68l2.69-3.43A8,8,0,0,0,160.59,5a2.48,2.48,0,0,0,.24-1,2,2,0,0,0-.23-1,.71.71,0,0,0-.66-.38.87.87,0,0,0-.75.44,2.33,2.33,0,0,0-.28,1.23H157a3.77,3.77,0,0,1,.38-1.68,2.84,2.84,0,0,1,1.07-1.18A2.93,2.93,0,0,1,160,1a2.8,2.8,0,0,1,2.07.74,2.82,2.82,0,0,1,.74,2.09,4,4,0,0,1-.41,1.7,10.26,10.26,0,0,1-1.47,2.13l-1.28,1.83H163Z"/>
          <path d="M169.76,1.83V3.65h1V5.1h-1V8.78a1.08,1.08,0,0,0,.12.6.53.53,0,0,0,.46.16,2,2,0,0,0,.46,0l0,1.5a3,3,0,0,1-1.06.19c-1.25,0-1.88-.72-1.9-2.15V5.1H167V3.65h.85V1.83Z"/>
          <path d="M171.58,7.11a4,4,0,0,1,.8-2.64,3,3,0,0,1,4.4,0,4,4,0,0,1,.8,2.65v.47a4,4,0,0,1-.79,2.65,3,3,0,0,1-4.41,0,4,4,0,0,1-.8-2.65Zm1.95.48c0,1.33.35,2,1.06,2s1-.55,1-1.66V7.11a3.16,3.16,0,0,0-.28-1.5.87.87,0,0,0-.8-.49.86.86,0,0,0-.77.49,3.18,3.18,0,0,0-.27,1.5Z"/>
          <path d="M183.61,6.83l3.1,1.36v1.93l-5-2.49V6l5-2.5V5.43Z"/>
          <path d="M192.48,11.05h-1.94V3.44l-1.9.73V2.56l3.63-1.49h.21Z"/>
          <path d="M200.89,3.74A2.55,2.55,0,0,1,200.58,5a2.37,2.37,0,0,1-.85.9,2.49,2.49,0,0,1,1,1,2.8,2.8,0,0,1,.36,1.44,2.87,2.87,0,0,1-.77,2.1,2.81,2.81,0,0,1-2.08.77,2.87,2.87,0,0,1-2.1-.77,2.84,2.84,0,0,1-.78-2.1,2.79,2.79,0,0,1,.35-1.44,2.58,2.58,0,0,1,1-1,2.4,2.4,0,0,1-.86-.9,2.66,2.66,0,0,1-.3-1.28,2.76,2.76,0,0,1,.73-2.05,2.65,2.65,0,0,1,2-.74,2.61,2.61,0,0,1,2,.75A2.75,2.75,0,0,1,200.89,3.74Zm-2.68,5.84a.77.77,0,0,0,.67-.37,1.93,1.93,0,0,0,.24-1,1.92,1.92,0,0,0-.25-1,.77.77,0,0,0-.68-.38.79.79,0,0,0-.68.38,1.84,1.84,0,0,0-.25,1,1.84,1.84,0,0,0,.25,1A.82.82,0,0,0,198.21,9.58ZM199,3.84a1.89,1.89,0,0,0-.19-.93.62.62,0,0,0-.58-.35.61.61,0,0,0-.56.34,1.89,1.89,0,0,0-.19.94,2,2,0,0,0,.19,1,.62.62,0,0,0,.58.36.59.59,0,0,0,.56-.36A2,2,0,0,0,199,3.84Z"/>
          <path d="M208.05,7.83l1-4.18h2.06l-2.43,8.51c-.37,1.25-1,1.88-2.06,1.88a2.77,2.77,0,0,1-.8-.13V12.4H206a1.08,1.08,0,0,0,.68-.17,1.15,1.15,0,0,0,.35-.61l.15-.5-2.14-7.47h2.08Z"/>
          <path d="M214.84,11.19a3.05,3.05,0,0,1-2.33-.89,3.58,3.58,0,0,1-.84-2.55V7.16a4.21,4.21,0,0,1,.77-2.7,2.67,2.67,0,0,1,2.2-1,2.53,2.53,0,0,1,2.1.89A4.28,4.28,0,0,1,217.46,7V8H213.6A2,2,0,0,0,214,9.2a1.22,1.22,0,0,0,1,.38,2.14,2.14,0,0,0,1.62-.67l.76,1.17a2.49,2.49,0,0,1-1,.8A3.58,3.58,0,0,1,214.84,11.19Zm-1.22-4.55h1.93V6.47a2.18,2.18,0,0,0-.21-1,.77.77,0,0,0-.72-.34.8.8,0,0,0-.73.36A2.56,2.56,0,0,0,213.62,6.64Z"/>
          <path d="M222.07,11.05a2.62,2.62,0,0,1-.17-.58,1.63,1.63,0,0,1-1.41.72,2.09,2.09,0,0,1-1.54-.62A2.15,2.15,0,0,1,218.34,9a2.24,2.24,0,0,1,.74-1.8,3.24,3.24,0,0,1,2.14-.65h.59v-.6a1.12,1.12,0,0,0-.17-.7.61.61,0,0,0-.5-.21c-.49,0-.73.28-.73.85h-1.93a2.11,2.11,0,0,1,.77-1.69,2.83,2.83,0,0,1,1.94-.67,2.66,2.66,0,0,1,1.89.63A2.39,2.39,0,0,1,223.74,6V9.43a3.54,3.54,0,0,0,.28,1.5v.12Zm-1.15-1.38a1.15,1.15,0,0,0,.55-.13,1,1,0,0,0,.34-.31V7.69h-.47a1,1,0,0,0-.77.31,1.23,1.23,0,0,0-.29.85C220.28,9.39,220.5,9.67,220.92,9.67Z"/>
          <path d="M228.8,5.51l-.64,0a1.06,1.06,0,0,0-1.08.7v4.89h-1.94V3.65H227l.05.8a1.41,1.41,0,0,1,1.27-.94,1.36,1.36,0,0,1,.53.09Z"/>
          <path d="M233.07,9.07a.6.6,0,0,0-.24-.46,4.09,4.09,0,0,0-1.05-.56,4.37,4.37,0,0,1-1.64-1,1.91,1.91,0,0,1-.45-1.29,2.06,2.06,0,0,1,.7-1.61,2.69,2.69,0,0,1,1.86-.63,2.89,2.89,0,0,1,1.95.63,2.1,2.1,0,0,1,.73,1.69H233q0-.9-.75-.9a.72.72,0,0,0-.51.19.7.7,0,0,0-.19.53.58.58,0,0,0,.21.44,5.39,5.39,0,0,0,1,.53,4.24,4.24,0,0,1,1.67,1A2,2,0,0,1,235,9a1.93,1.93,0,0,1-.75,1.59,3,3,0,0,1-1.95.61,3.18,3.18,0,0,1-1.44-.32,2.39,2.39,0,0,1-1-.89,2.23,2.23,0,0,1-.36-1.22h1.84a1.19,1.19,0,0,0,.24.76.92.92,0,0,0,.73.25C232.81,9.77,233.07,9.54,233.07,9.07Z"/>
          <path d="M239.5,7a11.84,11.84,0,0,1,.36-2.94,8.67,8.67,0,0,1,1.07-2.52A4.23,4.23,0,0,1,242.46,0l.37,1.07a4.86,4.86,0,0,0-1.23,2.22,12.52,12.52,0,0,0-.47,3.48v.41a13,13,0,0,0,.45,3.61,5.09,5.09,0,0,0,1.25,2.32l-.37,1.05A4.17,4.17,0,0,1,241,12.65a8.17,8.17,0,0,1-1.07-2.48,11.45,11.45,0,0,1-.38-2.89Z"/>
          <path d="M245.68,3.65l.06.73a2.06,2.06,0,0,1,1.72-.87c1.27,0,1.92.89,2,2.68v4.86h-1.94V6.33a1.71,1.71,0,0,0-.19-.91.74.74,0,0,0-.66-.29.9.9,0,0,0-.82.54v5.38h-1.94V3.65Z"/>
          <path d="M256.23,6H251V4.33h5.22Zm0,3H251V7.3h5.22Z"/>
          <path d="M263.38,3.74a2.66,2.66,0,0,1-.3,1.28,2.45,2.45,0,0,1-.85.9,2.55,2.55,0,0,1,1,1,2.79,2.79,0,0,1,.35,1.44,2.87,2.87,0,0,1-.76,2.1,2.83,2.83,0,0,1-2.09.77,2.87,2.87,0,0,1-2.1-.77,2.84,2.84,0,0,1-.78-2.1,2.8,2.8,0,0,1,.36-1.44,2.51,2.51,0,0,1,1-1,2.4,2.4,0,0,1-.86-.9A2.66,2.66,0,0,1,258,3.74a2.8,2.8,0,0,1,.73-2.05,2.67,2.67,0,0,1,2-.74,2.61,2.61,0,0,1,2,.75A2.79,2.79,0,0,1,263.38,3.74ZM260.7,9.58a.78.78,0,0,0,.68-.37,2,2,0,0,0,.23-1,1.93,1.93,0,0,0-.24-1,.78.78,0,0,0-.68-.38.77.77,0,0,0-.68.38,1.84,1.84,0,0,0-.25,1,1.84,1.84,0,0,0,.25,1A.8.8,0,0,0,260.7,9.58Zm.76-5.74a2,2,0,0,0-.19-.93.63.63,0,0,0-.58-.35.59.59,0,0,0-.56.34,1.89,1.89,0,0,0-.19.94,2,2,0,0,0,.19,1,.61.61,0,0,0,.57.36.6.6,0,0,0,.57-.36A2.14,2.14,0,0,0,261.46,3.84Z"/>
          <path d="M268,7.16a11,11,0,0,1-.4,3,9.1,9.1,0,0,1-1.13,2.5A4.25,4.25,0,0,1,265,14.16l-.36-1.05a5.11,5.11,0,0,0,1.23-2.28,12.41,12.41,0,0,0,.47-3.48V7a13,13,0,0,0-.45-3.57,5.41,5.41,0,0,0-1.25-2.37L265,0a3.79,3.79,0,0,1,1.08.89,7.05,7.05,0,0,1,1,1.54,9.77,9.77,0,0,1,.72,2.06A11.81,11.81,0,0,1,268,7.16Z"/>
        </g>
        <g>
          <path d="M322.27,49.08H320v7.79h-1.9V49.08h-2.28V47.5h6.5Z"/>
          <path d="M322.42,53.17a3.78,3.78,0,0,1,.75-2.49,2.52,2.52,0,0,1,2.06-.9,2.54,2.54,0,0,1,2.08.9,3.79,3.79,0,0,1,.75,2.5v.44a3.83,3.83,0,0,1-.74,2.49,2.86,2.86,0,0,1-4.16,0,3.81,3.81,0,0,1-.74-2.49Zm1.83.45c0,1.25.33,1.87,1,1.87s.94-.52,1-1.56v-.76a2.92,2.92,0,0,0-.26-1.42.82.82,0,0,0-.75-.46.78.78,0,0,0-.72.46,2.92,2.92,0,0,0-.26,1.42Z"/>
          <path d="M329.61,56.87v-5.6h-.84V49.91h.84v-.63a2.57,2.57,0,0,1,.61-1.79,2.16,2.16,0,0,1,1.66-.64,3.31,3.31,0,0,1,.83.13v1.45a1.53,1.53,0,0,0-.45-.06c-.54,0-.81.33-.81,1v.57h1.09v1.36h-1.09v5.6Z"/>
          <path d="M336.82,56.87a2.35,2.35,0,0,1-.15-.54,1.56,1.56,0,0,1-1.33.67,1.94,1.94,0,0,1-1.45-.58,2,2,0,0,1-.58-1.5,2.12,2.12,0,0,1,.7-1.69,3.08,3.08,0,0,1,2-.61h.55v-.56a1,1,0,0,0-.16-.67.62.62,0,0,0-.47-.19c-.46,0-.68.27-.68.8h-1.83a2,2,0,0,1,.73-1.59,2.68,2.68,0,0,1,1.83-.63,2.51,2.51,0,0,1,1.77.59,2.25,2.25,0,0,1,.63,1.71v3.27a3.44,3.44,0,0,0,.26,1.41v.11Zm-1.07-1.3a1,1,0,0,0,.51-.12.83.83,0,0,0,.32-.29V53.71h-.44a.93.93,0,0,0-.73.3,1.13,1.13,0,0,0-.27.79C335.14,55.32,335.34,55.57,335.75,55.57Z"/>
          <path d="M342.24,55.49c.53,0,.8-.34.8-1h1.72a2.6,2.6,0,0,1-.7,1.84,2.39,2.39,0,0,1-1.78.7,2.58,2.58,0,0,1-2.06-.83,3.81,3.81,0,0,1-.72-2.47v-.55a4,4,0,0,1,.7-2.51,2.53,2.53,0,0,1,2.07-.86,2.37,2.37,0,0,1,1.81.71,2.91,2.91,0,0,1,.68,2H343a1.72,1.72,0,0,0-.19-.9.66.66,0,0,0-.62-.32.74.74,0,0,0-.68.34,2.84,2.84,0,0,0-.22,1.31v.71a5.39,5.39,0,0,0,.09,1.19.83.83,0,0,0,.27.49A.82.82,0,0,0,342.24,55.49Z"/>
          <path d="M345.79,48.1a.93.93,0,0,1,.27-.69,1.09,1.09,0,0,1,1.44,0,.93.93,0,0,1,.27.69,1,1,0,0,1-.27.7,1,1,0,0,1-.72.28,1,1,0,0,1-.73-.28A1,1,0,0,1,345.79,48.1Zm1.91,8.77h-1.83v-7h1.83Z"/>
          <path d="M351.23,48.19v1.72h.93v1.36h-.93v3.46a1.06,1.06,0,0,0,.11.57.5.5,0,0,0,.44.16,1.69,1.69,0,0,0,.43-.05v1.42a3,3,0,0,1-1,.17c-1.18,0-1.77-.67-1.78-2V51.27h-.81V49.91h.81V48.19Z"/>
          <path d="M353.16,48.1a.93.93,0,0,1,.27-.69,1.09,1.09,0,0,1,1.44,0,.93.93,0,0,1,.27.69,1,1,0,0,1-.26.7,1.08,1.08,0,0,1-1.45,0A1,1,0,0,1,353.16,48.1Zm1.91,8.77h-1.83v-7h1.83Z"/>
          <path d="M358.15,49.91l.05.69a1.92,1.92,0,0,1,1.62-.82c1.2,0,1.81.84,1.85,2.52v4.57h-1.83V52.43a1.6,1.6,0,0,0-.18-.86.69.69,0,0,0-.62-.27.84.84,0,0,0-.77.51v5.06h-1.83v-7Z"/>
          <path d="M363,48.1a.93.93,0,0,1,.27-.69,1,1,0,0,1,.73-.27,1,1,0,0,1,.72.27.93.93,0,0,1,.27.69.94.94,0,0,1-1,1,1,1,0,0,1-.73-.28A1,1,0,0,1,363,48.1Zm1.92,8.77h-1.83v-7h1.83Z"/>
          <path d="M371.73,53.62a4.82,4.82,0,0,1-.54,2.54,1.88,1.88,0,0,1-1.7.84,1.69,1.69,0,0,1-1.46-.81l0,.68H366.3V47h1.82v3.49a1.62,1.62,0,0,1,1.36-.69,1.88,1.88,0,0,1,1.7.84,4.67,4.67,0,0,1,.55,2.46Zm-1.82-.46a3.44,3.44,0,0,0-.21-1.48.79.79,0,0,0-.74-.38.87.87,0,0,0-.84.53V55a.86.86,0,0,0,.85.49.75.75,0,0,0,.72-.34,2.94,2.94,0,0,0,.22-1.33Z"/>
          <path d="M375.62,53.18a4.53,4.53,0,0,1,.58-2.56,1.93,1.93,0,0,1,1.69-.84,1.65,1.65,0,0,1,1.34.69V47h1.83v9.89h-1.65l-.09-.7a1.68,1.68,0,0,1-1.44.83,1.91,1.91,0,0,1-1.67-.83,4.46,4.46,0,0,1-.59-2.46Zm1.83.46a3.23,3.23,0,0,0,.22,1.43.75.75,0,0,0,.74.41.9.9,0,0,0,.82-.48V51.82a.88.88,0,0,0-.81-.52.8.8,0,0,0-.74.41,3.22,3.22,0,0,0-.23,1.44Z"/>
          <path d="M382.19,53.17a3.83,3.83,0,0,1,.74-2.49,2.84,2.84,0,0,1,4.15,0,3.79,3.79,0,0,1,.75,2.5v.44a3.83,3.83,0,0,1-.74,2.49,2.86,2.86,0,0,1-4.16,0,3.81,3.81,0,0,1-.74-2.49Zm1.83.45c0,1.25.33,1.87,1,1.87s.95-.52,1-1.56v-.76a3,3,0,0,0-.26-1.42.83.83,0,0,0-.75-.46.78.78,0,0,0-.72.46,2.92,2.92,0,0,0-.26,1.42Z"/>
          <path d="M392.05,55a.57.57,0,0,0-.23-.43,4,4,0,0,0-1-.53,4.05,4.05,0,0,1-1.55-.95,1.81,1.81,0,0,1-.42-1.22,1.92,1.92,0,0,1,.66-1.51,2.53,2.53,0,0,1,1.74-.59,2.75,2.75,0,0,1,1.84.59A2,2,0,0,1,393.8,52H392c0-.57-.24-.85-.71-.85a.66.66,0,0,0-.48.18.69.69,0,0,0-.19.5.52.52,0,0,0,.21.41,4.49,4.49,0,0,0,1,.51,3.93,3.93,0,0,1,1.58.92,1.88,1.88,0,0,1,.46,1.31,1.86,1.86,0,0,1-.7,1.5,3.27,3.27,0,0,1-3.2.26,2.24,2.24,0,0,1-.92-.83,2.16,2.16,0,0,1-.33-1.15h1.73a1.11,1.11,0,0,0,.23.71.86.86,0,0,0,.68.24C391.8,55.67,392.05,55.45,392.05,55Z"/>
          <path d="M397.76,57a2.86,2.86,0,0,1-2.18-.83,3.36,3.36,0,0,1-.79-2.4v-.55a4,4,0,0,1,.72-2.55,2.52,2.52,0,0,1,2.07-.89,2.36,2.36,0,0,1,2,.84,3.94,3.94,0,0,1,.68,2.48V54h-3.62a1.87,1.87,0,0,0,.34,1.13,1.14,1.14,0,0,0,.93.36,2.08,2.08,0,0,0,1.53-.62l.71,1.1a2.34,2.34,0,0,1-1,.75A3.39,3.39,0,0,1,397.76,57Zm-1.14-4.27h1.82v-.17a2,2,0,0,0-.21-1,.71.71,0,0,0-.67-.32.76.76,0,0,0-.69.34A2.37,2.37,0,0,0,396.62,52.73Z"/>
          <path d="M401,53.18a4.53,4.53,0,0,1,.58-2.56,1.9,1.9,0,0,1,1.68-.84,1.62,1.62,0,0,1,1.34.69V47h1.84v9.89H404.8l-.08-.7a1.69,1.69,0,0,1-1.44.83,1.91,1.91,0,0,1-1.67-.83,4.29,4.29,0,0,1-.59-2.46Zm1.82.46a3.38,3.38,0,0,0,.22,1.43.77.77,0,0,0,.74.41.88.88,0,0,0,.82-.48V51.82a.88.88,0,0,0-.81-.52.78.78,0,0,0-.73.41,3.05,3.05,0,0,0-.24,1.44Z"/>
          <path d="M410.93,56.87V47.5h2.89a3.35,3.35,0,0,1,2.23.65,2.4,2.4,0,0,1,.77,1.92,2.35,2.35,0,0,1-.32,1.23,1.9,1.9,0,0,1-.86.75,1.62,1.62,0,0,1,1,.73,2.45,2.45,0,0,1,.34,1.34,2.68,2.68,0,0,1-.75,2.06,3.09,3.09,0,0,1-2.17.69Zm1.89-5.45h1a1,1,0,0,0,1.12-1.15,1.35,1.35,0,0,0-.26-.92,1.11,1.11,0,0,0-.84-.27h-1Zm0,1.38v2.5H414a.93.93,0,0,0,.77-.31,1.34,1.34,0,0,0,.27-.9c0-.84-.31-1.27-.92-1.29Z"/>
          <path d="M420.3,56.87h-1.89V47.5h1.89Z"/>
          <path d="M421.89,56.87V47.5h2.48a3.43,3.43,0,0,1,2.62,1,4.08,4.08,0,0,1,1,2.86v1.52a4.1,4.1,0,0,1-1,2.9,3.5,3.5,0,0,1-2.69,1Zm1.9-7.79V55.3h.56a1.55,1.55,0,0,0,1.33-.5,2.9,2.9,0,0,0,.41-1.72V51.45a3.29,3.29,0,0,0-.37-1.83,1.44,1.44,0,0,0-1.25-.54Z"/>
        </g>
        <g>
          <path d="M347.29,67.8l.81-2.07H350l-1.59,3.41,1.65,3.56h-1.94l-.85-2.18-.85,2.18H344.5l1.65-3.56-1.58-3.41h1.94Z"/>
          <path d="M357.45,69.07a1.75,1.75,0,0,1-1.27.6,2,2,0,0,1-1.68-.86,3.89,3.89,0,0,1-.62-2.3,4.14,4.14,0,0,1,.35-1.7,2.81,2.81,0,0,1,1-1.19,2.43,2.43,0,0,1,1.39-.43,2.23,2.23,0,0,1,1.41.48A3,3,0,0,1,359,65a5.7,5.7,0,0,1,.34,2v.67a6,6,0,0,1-1.05,3.74,3.66,3.66,0,0,1-3,1.38h-.19V71.22h.13a2.11,2.11,0,0,0,1.6-.55A2.56,2.56,0,0,0,357.45,69.07Zm-.8-.83c.35,0,.62-.24.83-.72v-.84a3.53,3.53,0,0,0-.25-1.45c-.17-.35-.39-.52-.65-.52s-.48.17-.64.52a3,3,0,0,0-.24,1.26,2.7,2.7,0,0,0,.25,1.28A.78.78,0,0,0,356.65,68.24Z"/>
          <path d="M363.43,69a4.49,4.49,0,0,1,.58-2.55,1.91,1.91,0,0,1,1.69-.85,1.62,1.62,0,0,1,1.34.7V62.81h1.83V72.7h-1.65l-.09-.71a1.67,1.67,0,0,1-1.44.84A1.91,1.91,0,0,1,364,72a4.46,4.46,0,0,1-.59-2.46Zm1.83.46a3.25,3.25,0,0,0,.22,1.44.78.78,0,0,0,.74.41.9.9,0,0,0,.82-.48V67.64a.87.87,0,0,0-.81-.51.78.78,0,0,0-.74.41,3.22,3.22,0,0,0-.23,1.44Z"/>
          <path d="M370,69a3.79,3.79,0,0,1,.75-2.49,2.83,2.83,0,0,1,4.14,0,3.82,3.82,0,0,1,.75,2.5v.45a3.78,3.78,0,0,1-.74,2.48,2.52,2.52,0,0,1-2.07.9,2.56,2.56,0,0,1-2.09-.9,3.84,3.84,0,0,1-.74-2.5Zm1.83.46c0,1.24.33,1.86,1,1.86s.94-.51,1-1.55V69a2.83,2.83,0,0,0-.27-1.41.81.81,0,0,0-.75-.46.8.8,0,0,0-.72.46,3,3,0,0,0-.26,1.41Z"/>
          <path d="M379.86,70.83a.57.57,0,0,0-.22-.43,4.85,4.85,0,0,0-1-.53,4.14,4.14,0,0,1-1.55-.94,1.83,1.83,0,0,1-.42-1.22,2,2,0,0,1,.66-1.51,2.5,2.5,0,0,1,1.75-.6,2.69,2.69,0,0,1,1.83.6,2,2,0,0,1,.69,1.59h-1.82c0-.57-.24-.85-.71-.85a.68.68,0,0,0-.48.18.67.67,0,0,0-.18.5.56.56,0,0,0,.2.41,4.61,4.61,0,0,0,1,.5,4,4,0,0,1,1.58.92,1.85,1.85,0,0,1,.46,1.31,1.83,1.83,0,0,1-.7,1.5,2.83,2.83,0,0,1-1.84.57,3,3,0,0,1-1.36-.3,2.24,2.24,0,0,1-.91-.84,2.15,2.15,0,0,1-.34-1.15h1.74a1.12,1.12,0,0,0,.22.72.86.86,0,0,0,.68.24C379.61,71.5,379.86,71.27,379.86,70.83Z"/>
          <path d="M385.58,72.83a2.84,2.84,0,0,1-2.19-.84,3.35,3.35,0,0,1-.79-2.39V69a4,4,0,0,1,.72-2.54,2.5,2.5,0,0,1,2.07-.9,2.38,2.38,0,0,1,2,.84,4,4,0,0,1,.67,2.49v.89h-3.62a1.88,1.88,0,0,0,.34,1.14,1.14,1.14,0,0,0,.93.35,2,2,0,0,0,1.53-.62l.71,1.1a2.28,2.28,0,0,1-1,.75A3.31,3.31,0,0,1,385.58,72.83Zm-1.15-4.28h1.82v-.17a1.93,1.93,0,0,0-.2-.94.71.71,0,0,0-.67-.32.77.77,0,0,0-.7.34A2.46,2.46,0,0,0,384.43,68.55Z"/>
          <path d="M392.16,70.83a.6.6,0,0,0-.22-.43,4.85,4.85,0,0,0-1-.53,4.14,4.14,0,0,1-1.55-.94,1.83,1.83,0,0,1-.42-1.22,2,2,0,0,1,.66-1.51,2.49,2.49,0,0,1,1.74-.6,2.7,2.7,0,0,1,1.84.6,2,2,0,0,1,.69,1.59h-1.82c0-.57-.24-.85-.71-.85a.68.68,0,0,0-.48.18.67.67,0,0,0-.18.5.52.52,0,0,0,.2.41,4.61,4.61,0,0,0,1,.5,4,4,0,0,1,1.58.92,2,2,0,0,1-.24,2.81,2.86,2.86,0,0,1-1.85.57,2.92,2.92,0,0,1-1.35-.3,2.24,2.24,0,0,1-.91-.84,2.06,2.06,0,0,1-.34-1.15h1.74a1.07,1.07,0,0,0,.22.72.86.86,0,0,0,.68.24C391.91,71.5,392.16,71.27,392.16,70.83Z"/>
        </g>
        <path d="M397.12,66.41a2.78,2.78,0,0,1-.32,1.48,1.08,1.08,0,0,1-1,.49,1,1,0,0,1-.85-.47l0,.4h-1V62.54H395v2a1,1,0,0,1,.79-.41,1.1,1.1,0,0,1,1,.49,2.79,2.79,0,0,1,.32,1.44Zm-1.06-.27a2,2,0,0,0-.13-.86.44.44,0,0,0-.43-.22.53.53,0,0,0-.49.3v1.86a.51.51,0,0,0,.5.28.46.46,0,0,0,.42-.2,1.77,1.77,0,0,0,.13-.77Z"/>
        <g>
          <path d="M18.86,35H16.93v3.32H15.84V30.1h2.72a3.22,3.22,0,0,1,2.13.63,2.29,2.29,0,0,1,.75,1.84A2.2,2.2,0,0,1,21,33.91a2.45,2.45,0,0,1-1.15.85l1.93,3.48v.07H20.64Zm-1.93-.89h1.66a1.89,1.89,0,0,0,1.28-.41,1.41,1.41,0,0,0,.48-1.12,1.49,1.49,0,0,0-.45-1.17A1.92,1.92,0,0,0,18.59,31H16.93Z"/>
          <path d="M26.55,38.31a2,2,0,0,1-.14-.64,2.36,2.36,0,0,1-1.74.75,2.16,2.16,0,0,1-1.48-.51,1.66,1.66,0,0,1-.57-1.29,1.72,1.72,0,0,1,.72-1.48,3.42,3.42,0,0,1,2-.53h1v-.48a1.18,1.18,0,0,0-.33-.87,1.32,1.32,0,0,0-1-.32,1.49,1.49,0,0,0-.93.28.81.81,0,0,0-.38.68H22.74a1.47,1.47,0,0,1,.32-.88,2.22,2.22,0,0,1,.88-.67,2.9,2.9,0,0,1,1.22-.25,2.42,2.42,0,0,1,1.65.52,1.9,1.9,0,0,1,.62,1.46v2.8a3.31,3.31,0,0,0,.22,1.34v.09Zm-1.73-.8a1.8,1.8,0,0,0,.93-.25,1.5,1.5,0,0,0,.64-.66V35.35h-.82c-1.27,0-1.91.37-1.91,1.12a1,1,0,0,0,.32.77A1.28,1.28,0,0,0,24.82,37.51Z"/>
          <path d="M30.05,32.21l0,.77a2.2,2.2,0,0,1,1.82-.88c1.29,0,1.94.72,1.95,2.18v4h-1v-4a1.36,1.36,0,0,0-.3-1A1.22,1.22,0,0,0,31.6,33a1.49,1.49,0,0,0-.89.27,1.8,1.8,0,0,0-.6.71v4.35h-1v-6.1Z"/>
          <path d="M35.18,35.21A3.59,3.59,0,0,1,35.84,33a2.27,2.27,0,0,1,3.44-.12V29.65h1v8.66h-1l0-.66a2.14,2.14,0,0,1-1.75.77,2.07,2.07,0,0,1-1.72-.87,3.57,3.57,0,0,1-.67-2.26Zm1,.12A2.73,2.73,0,0,0,36.65,37a1.39,1.39,0,0,0,1.18.59,1.53,1.53,0,0,0,1.45-.89V33.84A1.54,1.54,0,0,0,37.84,33a1.4,1.4,0,0,0-1.19.59A3,3,0,0,0,36.22,35.33Z"/>
          <path d="M41.67,35.2A3.55,3.55,0,0,1,42,33.59a2.56,2.56,0,0,1,1-1.1,2.64,2.64,0,0,1,1.43-.39,2.61,2.61,0,0,1,2,.86,3.32,3.32,0,0,1,.76,2.29v.08a3.57,3.57,0,0,1-.34,1.59,2.56,2.56,0,0,1-1,1.11,2.72,2.72,0,0,1-1.46.39,2.6,2.6,0,0,1-2-.86,3.32,3.32,0,0,1-.76-2.28Zm1,.13A2.65,2.65,0,0,0,43.18,37a1.61,1.61,0,0,0,2.53,0,2.89,2.89,0,0,0,.46-1.75,2.62,2.62,0,0,0-.47-1.62A1.51,1.51,0,0,0,44.43,33a1.49,1.49,0,0,0-1.24.62A2.79,2.79,0,0,0,42.71,35.33Z"/>
          <path d="M49.5,32.21l0,.68a2.25,2.25,0,0,1,1.81-.79,1.74,1.74,0,0,1,1.74,1,2.26,2.26,0,0,1,1.94-1c1.34,0,2,.71,2,2.12v4.09H56v-4a1.37,1.37,0,0,0-.3-1,1.29,1.29,0,0,0-1-.33,1.37,1.37,0,0,0-1.41,1.28v4.05H52.26v-4A1.16,1.16,0,0,0,51,33a1.39,1.39,0,0,0-1.4.88v4.45h-1v-6.1Z"/>
          <path d="M58.64,30.59a.57.57,0,0,1,.16-.42.55.55,0,0,1,.45-.18.6.6,0,0,1,.47.18.61.61,0,0,1,.16.42.65.65,0,0,1-.16.43.63.63,0,0,1-.47.17A.58.58,0,0,1,58.8,31,.6.6,0,0,1,58.64,30.59Zm1.13,7.72h-1v-6.1h1Z"/>
          <path d="M62.42,37.46H66v.85H61.14v-.77l3.37-4.47H61.19v-.86h4.62V33Z"/>
          <path d="M69.6,38.42a2.67,2.67,0,0,1-2-.81,3,3,0,0,1-.78-2.18v-.19a3.51,3.51,0,0,1,.35-1.62,2.7,2.7,0,0,1,1-1.12,2.45,2.45,0,0,1,1.35-.4,2.28,2.28,0,0,1,1.85.78A3.38,3.38,0,0,1,72,35.12v.44H67.85A2.16,2.16,0,0,0,68.38,37a1.64,1.64,0,0,0,1.28.56,1.84,1.84,0,0,0,.94-.23,2.66,2.66,0,0,0,.67-.59l.63.49A2.55,2.55,0,0,1,69.6,38.42ZM69.47,33a1.39,1.39,0,0,0-1,.46,2.18,2.18,0,0,0-.53,1.29h3v-.08a2,2,0,0,0-.43-1.23A1.31,1.31,0,0,0,69.47,33Z"/>
        </g>
        <g>
          <path d="M33.13,62.92a8.61,8.61,0,0,1,.34-2.44,7,7,0,0,1,1-2.13A4.21,4.21,0,0,1,35.89,57l.21.69a4.46,4.46,0,0,0-1.35,1.92,8.55,8.55,0,0,0-.58,2.9V63A8.42,8.42,0,0,0,35,66.77a4.5,4.5,0,0,0,1.14,1.5l-.21.63a4.44,4.44,0,0,1-1.43-1.39A7.83,7.83,0,0,1,33.13,62.92Z" fill="#fff"/>
          <path d="M40.43,66.25h-1V59.31l-2.1.77v-.95l3-1.12h.16Z" fill="#fff"/>
          <path d="M43.56,65.71a.64.64,0,0,1,.16-.45.6.6,0,0,1,.48-.18.59.59,0,0,1,.65.63.59.59,0,0,1-.16.43.64.64,0,0,1-.49.18.6.6,0,0,1-.48-.18A.59.59,0,0,1,43.56,65.71Zm0-5a.69.69,0,0,1,.16-.45.63.63,0,0,1,.49-.18.62.62,0,0,1,.48.18.64.64,0,0,1,.17.45.62.62,0,0,1-.17.44.65.65,0,0,1-.48.17.57.57,0,0,1-.65-.61Z" fill="#fff"/>
          <path d="M49.7,66.25h-1V59.31l-2.11.77v-.95l3-1.12h.16Z" fill="#fff"/>
          <path d="M55.27,63a8.71,8.71,0,0,1-.33,2.41,7.19,7.19,0,0,1-1,2.13,4.37,4.37,0,0,1-1.42,1.38l-.22-.63a4.58,4.58,0,0,0,1.39-2.07,8.78,8.78,0,0,0,.54-3.11v-.18a9,9,0,0,0-.25-2.2,7.16,7.16,0,0,0-.69-1.82,4.2,4.2,0,0,0-1-1.26l.22-.63a4.44,4.44,0,0,1,1.42,1.37,6.94,6.94,0,0,1,1,2.13A8.64,8.64,0,0,1,55.27,63Z" fill="#fff"/>
        </g>
        <g>
          <path d="M293.73,158.72v-8.21h2.32a3.69,3.69,0,0,1,1.89.48,3.16,3.16,0,0,1,1.27,1.34,4.47,4.47,0,0,1,.46,2v.52a4.38,4.38,0,0,1-.45,2,3.19,3.19,0,0,1-1.28,1.34,4,4,0,0,1-1.94.48Zm1.08-7.32v6.43H296a2.49,2.49,0,0,0,1.95-.77,3.24,3.24,0,0,0,.69-2.22v-.48a3.23,3.23,0,0,0-.65-2.17,2.34,2.34,0,0,0-1.86-.79Z"/>
          <path d="M304.9,158.72a2.3,2.3,0,0,1-.15-.64,2.32,2.32,0,0,1-1.73.75,2.15,2.15,0,0,1-1.48-.51A1.63,1.63,0,0,1,301,157a1.7,1.7,0,0,1,.73-1.48,3.4,3.4,0,0,1,2-.53h1v-.48a1.18,1.18,0,0,0-.33-.87,1.34,1.34,0,0,0-1-.32,1.5,1.5,0,0,0-.94.28.83.83,0,0,0-.38.68h-1a1.41,1.41,0,0,1,.32-.88,2.22,2.22,0,0,1,.88-.67,2.9,2.9,0,0,1,1.22-.25,2.37,2.37,0,0,1,1.65.53,1.9,1.9,0,0,1,.62,1.45v2.8a3.51,3.51,0,0,0,.21,1.34v.09Zm-1.73-.8a1.8,1.8,0,0,0,.93-.25,1.56,1.56,0,0,0,.64-.66v-1.25h-.82c-1.28,0-1.92.37-1.92,1.12a1,1,0,0,0,.33.77A1.28,1.28,0,0,0,303.17,157.92Z"/>
          <path d="M309.33,157.19l1.42-4.57h1.11l-2.45,7c-.38,1-1,1.52-1.81,1.52l-.19,0-.39-.07v-.85l.28,0a1.31,1.31,0,0,0,.82-.22,1.52,1.52,0,0,0,.49-.78l.23-.62-2.17-6h1.13Z"/>
          <path d="M319,158.72h-1.05v-6.95l-2.1.77v-.94l3-1.13H319Z"/>
        </g>
        <g>
          <path d="M2.92,155.06a5.18,5.18,0,0,1-2-1,1.89,1.89,0,0,1-.63-1.44A2,2,0,0,1,1,151a3.06,3.06,0,0,1,2-.64,3.31,3.31,0,0,1,1.5.33,2.46,2.46,0,0,1,1,.9,2.31,2.31,0,0,1,.36,1.26H4.86a1.51,1.51,0,0,0-.48-1.18,1.93,1.93,0,0,0-1.33-.42,1.94,1.94,0,0,0-1.25.35,1.17,1.17,0,0,0-.45,1,1.05,1.05,0,0,0,.43.85,4.08,4.08,0,0,0,1.45.63,6.78,6.78,0,0,1,1.6.64,2.38,2.38,0,0,1,.85.81A2,2,0,0,1,6,156.63a1.91,1.91,0,0,1-.78,1.6,3.3,3.3,0,0,1-2.08.6,3.9,3.9,0,0,1-1.57-.32,2.69,2.69,0,0,1-1.13-.89,2.14,2.14,0,0,1-.4-1.28H1.09a1.38,1.38,0,0,0,.55,1.17A2.27,2.27,0,0,0,3.1,158a2.18,2.18,0,0,0,1.32-.35,1.15,1.15,0,0,0,.45-1,1.11,1.11,0,0,0-.42-.93A5,5,0,0,0,2.92,155.06Z"/>
          <path d="M9.63,158a1.45,1.45,0,0,0,1-.34,1.19,1.19,0,0,0,.47-.84h1a1.87,1.87,0,0,1-.36,1,2.36,2.36,0,0,1-.89.76,2.52,2.52,0,0,1-1.17.28,2.52,2.52,0,0,1-2-.83,3.3,3.3,0,0,1-.74-2.27v-.18A3.63,3.63,0,0,1,7.24,154a2.54,2.54,0,0,1,.94-1.08,2.69,2.69,0,0,1,1.44-.38,2.44,2.44,0,0,1,1.71.61,2.2,2.2,0,0,1,.72,1.6h-1a1.41,1.41,0,0,0-.45-1,1.37,1.37,0,0,0-1-.38,1.46,1.46,0,0,0-1.23.57A2.68,2.68,0,0,0,8,155.59v.2a2.62,2.62,0,0,0,.43,1.62A1.46,1.46,0,0,0,9.63,158Z"/>
          <path d="M16.17,153.56a2.78,2.78,0,0,0-.51,0,1.36,1.36,0,0,0-1.39.87v4.33h-1v-6.1h1v.71a1.63,1.63,0,0,1,1.46-.82,1.12,1.12,0,0,1,.46.08Z"/>
          <path d="M19.55,158.83a2.67,2.67,0,0,1-2-.81,3,3,0,0,1-.78-2.18v-.19a3.64,3.64,0,0,1,.35-1.62,2.66,2.66,0,0,1,1-1.12,2.39,2.39,0,0,1,1.34-.4,2.28,2.28,0,0,1,1.85.78,3.38,3.38,0,0,1,.66,2.24V156H17.8a2.16,2.16,0,0,0,.53,1.45,1.66,1.66,0,0,0,1.28.56,1.84,1.84,0,0,0,.94-.23,2.66,2.66,0,0,0,.67-.59l.63.49A2.54,2.54,0,0,1,19.55,158.83Zm-.13-5.46a1.38,1.38,0,0,0-1.05.45,2.18,2.18,0,0,0-.53,1.29h3.05V155a2,2,0,0,0-.43-1.23A1.3,1.3,0,0,0,19.42,153.37Z"/>
          <path d="M25.67,158.83a2.67,2.67,0,0,1-2-.81,3,3,0,0,1-.78-2.18v-.19a3.64,3.64,0,0,1,.35-1.62,2.66,2.66,0,0,1,1-1.12,2.4,2.4,0,0,1,1.35-.4,2.3,2.3,0,0,1,1.85.78,3.38,3.38,0,0,1,.65,2.24V156H23.92a2.15,2.15,0,0,0,.52,1.45,1.67,1.67,0,0,0,1.28.56,1.84,1.84,0,0,0,.94-.23,2.5,2.5,0,0,0,.67-.59l.64.49A2.55,2.55,0,0,1,25.67,158.83Zm-.13-5.46a1.4,1.4,0,0,0-1.06.45,2.24,2.24,0,0,0-.53,1.29H27V155a2,2,0,0,0-.43-1.23A1.29,1.29,0,0,0,25.54,153.37Z"/>
          <path d="M30.24,152.62l0,.77a2.21,2.21,0,0,1,1.83-.88c1.28,0,1.93.73,1.95,2.18v4H33v-4a1.36,1.36,0,0,0-.3-1,1.21,1.21,0,0,0-.92-.32,1.51,1.51,0,0,0-.89.27,1.89,1.89,0,0,0-.6.71v4.35h-1v-6.1Z"/>
          <path d="M35.62,151a.58.58,0,0,1,.16-.42.56.56,0,0,1,.46-.18.59.59,0,0,1,.46.18.63.63,0,0,1,.16.42.65.65,0,0,1-.16.43.62.62,0,0,1-.46.17.59.59,0,0,1-.46-.17A.6.6,0,0,1,35.62,151Zm1.13,7.72h-1v-6.1h1Z"/>
          <path d="M39.4,152.62l0,.77a2.2,2.2,0,0,1,1.82-.88c1.29,0,1.94.73,2,2.18v4h-1v-4a1.36,1.36,0,0,0-.3-1,1.22,1.22,0,0,0-.92-.32,1.49,1.49,0,0,0-.89.27,1.8,1.8,0,0,0-.6.71v4.35h-1v-6.1Z"/>
          <path d="M44.54,155.62a3.58,3.58,0,0,1,.66-2.27,2.09,2.09,0,0,1,1.74-.84,2.07,2.07,0,0,1,1.74.79l0-.68h1v5.95a2.49,2.49,0,0,1-.71,1.87,2.58,2.58,0,0,1-1.88.68,3.26,3.26,0,0,1-1.29-.28,2.21,2.21,0,0,1-1-.78l.54-.62a2,2,0,0,0,1.64.83,1.61,1.61,0,0,0,1.18-.43,1.63,1.63,0,0,0,.43-1.21v-.52a2.16,2.16,0,0,1-1.71.72A2.09,2.09,0,0,1,45.2,158,3.79,3.79,0,0,1,44.54,155.62Zm1,.12a2.71,2.71,0,0,0,.43,1.62,1.37,1.37,0,0,0,1.18.59,1.53,1.53,0,0,0,1.45-.9v-2.78a1.54,1.54,0,0,0-1.44-.88A1.4,1.4,0,0,0,46,154,3,3,0,0,0,45.58,155.74Z"/>
        </g>
        <g>
          <path d="M289.21,192v-7h2a3.21,3.21,0,0,1,1.63.41,2.81,2.81,0,0,1,1.09,1.15,3.82,3.82,0,0,1,.38,1.72v.45a3.73,3.73,0,0,1-.38,1.75,2.77,2.77,0,0,1-1.1,1.15,3.47,3.47,0,0,1-1.65.41Zm.93-6.28v5.52h1a2.11,2.11,0,0,0,1.67-.67,2.74,2.74,0,0,0,.6-1.9v-.41a2.76,2.76,0,0,0-.57-1.86,2,2,0,0,0-1.59-.68Z"/>
          <path d="M298.78,192a2,2,0,0,1-.12-.55,2,2,0,0,1-1.49.64,1.84,1.84,0,0,1-1.27-.43,1.44,1.44,0,0,1-.49-1.11,1.46,1.46,0,0,1,.62-1.27,2.91,2.91,0,0,1,1.74-.45h.87v-.41a1,1,0,0,0-.28-.75,1.15,1.15,0,0,0-.82-.28,1.28,1.28,0,0,0-.81.25.71.71,0,0,0-.32.58h-.9a1.23,1.23,0,0,1,.28-.76,1.9,1.9,0,0,1,.75-.57,2.44,2.44,0,0,1,1-.22,2,2,0,0,1,1.41.46,1.61,1.61,0,0,1,.53,1.24v2.4a3,3,0,0,0,.19,1.15V192Zm-1.48-.69a1.65,1.65,0,0,0,.8-.21,1.34,1.34,0,0,0,.54-.57v-1.07h-.7c-1.09,0-1.64.32-1.64,1a.81.81,0,0,0,.28.66A1.07,1.07,0,0,0,297.3,191.34Z"/>
          <path d="M302.58,190.72l1.21-3.92h1l-2.1,6c-.33.87-.84,1.31-1.55,1.31l-.17,0-.34-.06v-.73l.25,0a1.17,1.17,0,0,0,.7-.18,1.33,1.33,0,0,0,.42-.67l.2-.53-1.86-5.17h1Z"/>
          <path d="M310.84,192h-.9v-6l-1.8.66v-.81l2.56-1h.14Z"/>
          <path d="M315.76,189.36a3.11,3.11,0,0,1,.3-1.38,2.2,2.2,0,0,1,.84-.94,2.39,2.39,0,0,1,3,.4,2.86,2.86,0,0,1,.66,2v.06a3,3,0,0,1-.3,1.37,2.17,2.17,0,0,1-.83.94,2.28,2.28,0,0,1-1.25.34,2.17,2.17,0,0,1-1.72-.74,2.81,2.81,0,0,1-.66-1.95Zm.9.11a2.24,2.24,0,0,0,.4,1.4,1.29,1.29,0,0,0,1.08.52,1.27,1.27,0,0,0,1.08-.53,2.43,2.43,0,0,0,.4-1.5,2.19,2.19,0,0,0-.41-1.39,1.3,1.3,0,0,0-1.08-.53,1.29,1.29,0,0,0-1.07.52A2.47,2.47,0,0,0,316.66,189.47Z"/>
          <path d="M322.08,192v-4.54h-.83v-.69h.83v-.54a1.78,1.78,0,0,1,.44-1.29,1.69,1.69,0,0,1,1.27-.46,2.15,2.15,0,0,1,.62.08l-.05.72a2.44,2.44,0,0,0-.48-.05.86.86,0,0,0-.67.26,1,1,0,0,0-.24.73v.55h1.11v.69H323V192Z"/>
        </g>
        <g>
          <path d="M286.61,197.4v1.27h1v.69h-1v3.24a.74.74,0,0,0,.13.48.58.58,0,0,0,.45.15,2.08,2.08,0,0,0,.42-.06v.73a2.72,2.72,0,0,1-.69.09,1.12,1.12,0,0,1-.9-.36,1.58,1.58,0,0,1-.3-1v-3.24h-1v-.69h1V197.4Z"/>
          <path d="M291.16,199.47a3.15,3.15,0,0,0-.44,0,1.18,1.18,0,0,0-1.2.75v3.7h-.89v-5.22h.87v.6a1.42,1.42,0,0,1,1.25-.7,1.06,1.06,0,0,1,.4.07Z"/>
          <path d="M294.06,204a2.26,2.26,0,0,1-1.73-.7,2.54,2.54,0,0,1-.67-1.86v-.17a3.12,3.12,0,0,1,.3-1.39,2.33,2.33,0,0,1,.83-1,2.07,2.07,0,0,1,1.15-.35,2,2,0,0,1,1.59.67,2.9,2.9,0,0,1,.56,1.93v.37h-3.54a2,2,0,0,0,.45,1.25,1.45,1.45,0,0,0,1.1.47,1.57,1.57,0,0,0,.81-.19,2.11,2.11,0,0,0,.57-.51l.55.42A2.21,2.21,0,0,1,294.06,204Zm-.12-4.68a1.17,1.17,0,0,0-.9.39,1.89,1.89,0,0,0-.46,1.1h2.62v-.06a1.72,1.72,0,0,0-.37-1.06A1.11,1.11,0,0,0,293.94,199.31Z"/>
          <path d="M300.35,203.89a1.82,1.82,0,0,1-.12-.55,2,2,0,0,1-1.49.65,1.82,1.82,0,0,1-1.27-.44,1.4,1.4,0,0,1-.49-1.1,1.46,1.46,0,0,1,.62-1.27,2.91,2.91,0,0,1,1.74-.45h.87v-.41a1,1,0,0,0-.28-.75,1.09,1.09,0,0,0-.82-.28,1.29,1.29,0,0,0-.8.24.71.71,0,0,0-.33.59h-.9a1.3,1.3,0,0,1,.28-.76,1.93,1.93,0,0,1,.76-.57,2.36,2.36,0,0,1,1-.22,2.1,2.1,0,0,1,1.42.45,1.68,1.68,0,0,1,.53,1.25v2.4a3,3,0,0,0,.18,1.15v.07Zm-1.48-.68a1.62,1.62,0,0,0,.8-.21,1.34,1.34,0,0,0,.54-.57v-1.07h-.7c-1.09,0-1.64.32-1.64,1a.81.81,0,0,0,.28.66A1.13,1.13,0,0,0,298.87,203.21Z"/>
          <path d="M303.72,197.4v1.27h1v.69h-1v3.24a.74.74,0,0,0,.13.48.56.56,0,0,0,.44.15,2.07,2.07,0,0,0,.43-.06v.73a2.78,2.78,0,0,1-.69.09,1.1,1.1,0,0,1-.9-.36,1.58,1.58,0,0,1-.3-1v-3.24h-.95v-.69h.95V197.4Z"/>
          <path d="M306.58,198.67l0,.58a1.94,1.94,0,0,1,1.55-.68,1.49,1.49,0,0,1,1.49.84,2.1,2.1,0,0,1,.68-.61,2.07,2.07,0,0,1,1-.23c1.15,0,1.73.61,1.75,1.82v3.5h-.89v-3.44a1.19,1.19,0,0,0-.26-.84,1.11,1.11,0,0,0-.86-.28,1.19,1.19,0,0,0-.83.3,1.21,1.21,0,0,0-.38.8v3.46h-.9v-3.42a1,1,0,0,0-1.11-1.14,1.18,1.18,0,0,0-1.2.75v3.81h-.9v-5.22Z"/>
          <path d="M316.58,204a2.26,2.26,0,0,1-1.73-.7,2.54,2.54,0,0,1-.67-1.86v-.17a3.12,3.12,0,0,1,.3-1.39,2.26,2.26,0,0,1,.83-1,2.07,2.07,0,0,1,1.15-.35,2,2,0,0,1,1.59.67,3,3,0,0,1,.56,1.93v.37h-3.54a2,2,0,0,0,.45,1.25,1.45,1.45,0,0,0,1.1.47,1.51,1.51,0,0,0,.8-.19,2,2,0,0,0,.58-.51l.54.42A2.18,2.18,0,0,1,316.58,204Zm-.12-4.68a1.17,1.17,0,0,0-.9.39,1.89,1.89,0,0,0-.46,1.1h2.62v-.06a1.72,1.72,0,0,0-.37-1.06A1.11,1.11,0,0,0,316.46,199.31Z"/>
          <path d="M320.49,198.67l0,.66a1.89,1.89,0,0,1,1.57-.76c1.1,0,1.66.63,1.67,1.87v3.45h-.9v-3.45a1.19,1.19,0,0,0-.26-.84,1,1,0,0,0-.78-.27,1.34,1.34,0,0,0-.77.23,1.59,1.59,0,0,0-.51.61v3.72h-.89v-5.22Z"/>
          <path d="M326.32,197.4v1.27h1v.69h-1v3.24a.74.74,0,0,0,.13.48.54.54,0,0,0,.44.15,2.16,2.16,0,0,0,.43-.06v.73a2.84,2.84,0,0,1-.69.09,1.1,1.1,0,0,1-.9-.36,1.53,1.53,0,0,1-.31-1v-3.24h-.95v-.69h.95V197.4Z"/>
        </g>
        <g>
          <path d="M433,188.78H430v2.49h3.54V192H429v-7h4.42v.76H430V188H433Z"/>
          <path d="M435.36,186.8l0,.66a1.91,1.91,0,0,1,1.56-.76c1.11,0,1.66.63,1.67,1.87V192h-.89v-3.46a1.19,1.19,0,0,0-.26-.84,1,1,0,0,0-.79-.27,1.31,1.31,0,0,0-.76.23,1.59,1.59,0,0,0-.51.61V192h-.9V186.8Z"/>
          <path d="M439.75,189.37a3,3,0,0,1,.57-1.93,1.93,1.93,0,0,1,2.95-.11v-2.72h.89V192h-.82l0-.56a1.85,1.85,0,0,1-1.49.65,1.79,1.79,0,0,1-1.48-.74,3,3,0,0,1-.58-1.94Zm.9.1a2.34,2.34,0,0,0,.36,1.39,1.19,1.19,0,0,0,1,.5,1.3,1.3,0,0,0,1.24-.76v-2.4a1.32,1.32,0,0,0-1.23-.74,1.2,1.2,0,0,0-1,.51A2.59,2.59,0,0,0,440.65,189.47Z"/>
          <path d="M447.76,189.36a3.11,3.11,0,0,1,.3-1.38,2.2,2.2,0,0,1,.84-.94,2.39,2.39,0,0,1,3,.4,2.86,2.86,0,0,1,.66,2v.06a3.17,3.17,0,0,1-.29,1.37,2.25,2.25,0,0,1-2.09,1.28,2.17,2.17,0,0,1-1.72-.74,2.81,2.81,0,0,1-.66-1.95Zm.9.11a2.24,2.24,0,0,0,.4,1.4,1.29,1.29,0,0,0,1.08.52,1.25,1.25,0,0,0,1.08-.53,2.43,2.43,0,0,0,.4-1.5,2.25,2.25,0,0,0-.4-1.39,1.33,1.33,0,0,0-1.09-.53,1.29,1.29,0,0,0-1.07.52A2.47,2.47,0,0,0,448.66,189.47Z"/>
          <path d="M454.08,192v-4.54h-.83v-.69h.83v-.54a1.75,1.75,0,0,1,.45-1.29,1.68,1.68,0,0,1,1.27-.46,2.13,2.13,0,0,1,.61.08l-.05.72a2.44,2.44,0,0,0-.48-.05.87.87,0,0,0-.67.26,1,1,0,0,0-.24.73v.55h1.12v.69H455V192Z"/>
        </g>
        <g>
          <path d="M433.78,202.51a.65.65,0,0,0-.27-.56,2.55,2.55,0,0,0-.95-.35,4.56,4.56,0,0,1-1.08-.35,1.52,1.52,0,0,1-.59-.48,1.23,1.23,0,0,1-.19-.67,1.33,1.33,0,0,1,.55-1.08,2.08,2.08,0,0,1,1.38-.45,2.23,2.23,0,0,1,1.45.46,1.46,1.46,0,0,1,.55,1.18h-.9a.81.81,0,0,0-.31-.64,1.21,1.21,0,0,0-.79-.26,1.23,1.23,0,0,0-.76.21.67.67,0,0,0-.27.55.54.54,0,0,0,.25.49,3.1,3.1,0,0,0,.93.32,5.48,5.48,0,0,1,1.08.35,1.68,1.68,0,0,1,.62.5,1.29,1.29,0,0,1,.2.72,1.35,1.35,0,0,1-.56,1.12,2.38,2.38,0,0,1-1.46.42,2.65,2.65,0,0,1-1.11-.22,1.85,1.85,0,0,1-.75-.62,1.52,1.52,0,0,1-.28-.86h.9a.89.89,0,0,0,.36.71,1.42,1.42,0,0,0,.88.26,1.53,1.53,0,0,0,.82-.2A.64.64,0,0,0,433.78,202.51Z"/>
          <path d="M437.05,197.4v1.27h1v.69h-1v3.24a.81.81,0,0,0,.13.48.58.58,0,0,0,.45.15,2.08,2.08,0,0,0,.42-.06v.73a2.71,2.71,0,0,1-.68.09,1.14,1.14,0,0,1-.91-.36,1.58,1.58,0,0,1-.3-1v-3.24h-1v-.69h1V197.4Z"/>
          <path d="M442.3,203.38a1.9,1.9,0,0,1-1.53.61,1.62,1.62,0,0,1-1.27-.48,2.12,2.12,0,0,1-.45-1.44v-3.4h.9V202c0,.8.32,1.19,1,1.19a1.33,1.33,0,0,0,1.36-.76v-3.8h.9v5.22h-.85Z"/>
          <path d="M444.31,201.24a3.09,3.09,0,0,1,.57-1.94,1.93,1.93,0,0,1,2.94-.1v-2.72h.9v7.41h-.82l0-.56a1.93,1.93,0,0,1-3-.08,3.13,3.13,0,0,1-.57-1.94Zm.89.1a2.27,2.27,0,0,0,.37,1.39,1.16,1.16,0,0,0,1,.5,1.29,1.29,0,0,0,1.24-.76v-2.4a1.3,1.3,0,0,0-1.23-.74,1.18,1.18,0,0,0-1,.51A2.52,2.52,0,0,0,445.2,201.34Z"/>
          <path d="M451.81,202.59l1.22-3.92h1l-2.11,6c-.32.87-.84,1.3-1.55,1.3h-.16l-.34-.06v-.73l.24,0a1.2,1.2,0,0,0,.71-.18,1.33,1.33,0,0,0,.42-.67l.2-.53-1.87-5.17h1Z"/>
        </g>
        <g>
          <path d="M427,158.72v-8.2h2.31a3.7,3.7,0,0,1,1.9.47,3.19,3.19,0,0,1,1.27,1.35,4.3,4.3,0,0,1,.45,2v.53a4.37,4.37,0,0,1-.45,2,3.1,3.1,0,0,1-1.27,1.34,4,4,0,0,1-1.94.48Zm1.08-7.32v6.43h1.14a2.49,2.49,0,0,0,1.95-.77,3.24,3.24,0,0,0,.69-2.22v-.48a3.29,3.29,0,0,0-.65-2.17,2.35,2.35,0,0,0-1.87-.79Z"/>
          <path d="M438.19,158.72a2.21,2.21,0,0,1-.15-.64,2.32,2.32,0,0,1-1.73.75,2.13,2.13,0,0,1-1.48-.51,1.63,1.63,0,0,1-.58-1.29,1.72,1.72,0,0,1,.72-1.48,3.44,3.44,0,0,1,2-.53h1v-.48a1.17,1.17,0,0,0-.32-.87,1.35,1.35,0,0,0-1-.32,1.49,1.49,0,0,0-.93.28.85.85,0,0,0-.38.68h-1.05a1.44,1.44,0,0,1,.33-.88,2.15,2.15,0,0,1,.88-.67,2.86,2.86,0,0,1,1.22-.25,2.42,2.42,0,0,1,1.65.53,1.94,1.94,0,0,1,.62,1.45v2.8a3.51,3.51,0,0,0,.21,1.34v.09Zm-1.73-.79a1.87,1.87,0,0,0,.93-.26A1.53,1.53,0,0,0,438,157v-1.25h-.81c-1.28,0-1.92.38-1.92,1.12a.94.94,0,0,0,.33.77A1.29,1.29,0,0,0,436.46,157.93Z"/>
          <path d="M442.61,157.19l1.42-4.57h1.12l-2.45,7c-.38,1-1,1.52-1.81,1.52h-.2l-.39-.08v-.84l.28,0a1.41,1.41,0,0,0,.83-.21,1.6,1.6,0,0,0,.49-.79l.23-.62-2.18-6h1.14Z"/>
          <path d="M449.31,154.61l.41-4.09h4.21v1h-3.32l-.25,2.24a2.62,2.62,0,0,1,1.37-.36,2.27,2.27,0,0,1,1.78.74,2.92,2.92,0,0,1,.66,2,2.81,2.81,0,0,1-.68,2,2.5,2.5,0,0,1-1.92.73,2.6,2.6,0,0,1-1.77-.6,2.43,2.43,0,0,1-.79-1.67h1a1.61,1.61,0,0,0,.5,1.06,1.56,1.56,0,0,0,1.07.36,1.39,1.39,0,0,0,1.14-.49,2.06,2.06,0,0,0,.42-1.37,1.89,1.89,0,0,0-.45-1.32,1.51,1.51,0,0,0-1.19-.5,1.7,1.7,0,0,0-1.07.3l-.28.22Z"/>
        </g>
        <g>
          <path d="M101.67,64.36a3.74,3.74,0,0,1-1,2.58,3.4,3.4,0,0,1-2.49.87,3.14,3.14,0,0,1-2.59-1.11,4.93,4.93,0,0,1-.9-3.17V61.85a4.8,4.8,0,0,1,.93-3.16,3.68,3.68,0,0,1,5.06-.2,4.18,4.18,0,0,1,1,2.61h-2a2.69,2.69,0,0,0-.32-1.45,1.27,1.27,0,0,0-1.09-.4,1.25,1.25,0,0,0-1.15.56,4,4,0,0,0-.35,1.86v1.88a4.37,4.37,0,0,0,.33,2,1.21,1.21,0,0,0,1.14.55,1.3,1.3,0,0,0,1.09-.38,2.59,2.59,0,0,0,.35-1.4Z"/>
          <path d="M102.58,63.74a4,4,0,0,1,.8-2.64,3,3,0,0,1,4.4,0,4,4,0,0,1,.8,2.65v.47a4,4,0,0,1-.79,2.64,3,3,0,0,1-4.41,0,4,4,0,0,1-.8-2.65Zm2,.48c0,1.32.35,2,1.06,2s1-.56,1-1.66v-.81a3.24,3.24,0,0,0-.28-1.51.88.88,0,0,0-.8-.48.87.87,0,0,0-.77.48,3.25,3.25,0,0,0-.27,1.51Z"/>
          <path d="M111.67,60.92a1.93,1.93,0,0,1,1.55-.78,1.82,1.82,0,0,1,1.54.71,3.54,3.54,0,0,1,.53,2.12v4.71h-1.94V63a1.63,1.63,0,0,0-.21-.94.74.74,0,0,0-.65-.29.91.91,0,0,0-.82.49v5.43h-1.94V57.17h1.94Z"/>
          <path d="M116.45,63.74a4,4,0,0,1,.8-2.64,3,3,0,0,1,4.4,0,4,4,0,0,1,.8,2.65v.47a4,4,0,0,1-.79,2.64,2.69,2.69,0,0,1-2.2,1,2.72,2.72,0,0,1-2.22-1,4.08,4.08,0,0,1-.79-2.65Zm2,.48c0,1.32.35,2,1.06,2s1-.56,1.05-1.66v-.81a3.24,3.24,0,0,0-.28-1.51.89.89,0,0,0-.8-.48.86.86,0,0,0-.77.48,3.25,3.25,0,0,0-.27,1.51Z"/>
          <path d="M127.3,62.14l-.64,0a1,1,0,0,0-1.07.7v4.89h-2V60.27h1.83l0,.81a1.41,1.41,0,0,1,1.27-.94,1.3,1.3,0,0,1,.53.09Z"/>
          <path d="M130.66,58.45v1.82h1v1.46h-1V65.4a1.09,1.09,0,0,0,.12.61.53.53,0,0,0,.46.16,1.5,1.5,0,0,0,.46,0l0,1.51a3,3,0,0,1-1.06.18c-1.25,0-1.88-.71-1.9-2.15V61.73h-.85V60.27h.85V58.45Z"/>
          <path d="M141.76,67.68h-5.87V66.31l2.69-3.43a8,8,0,0,0,.76-1.25,2.52,2.52,0,0,0,.24-1,2,2,0,0,0-.23-1,.72.72,0,0,0-.66-.37.86.86,0,0,0-.75.43,2.4,2.4,0,0,0-.28,1.24h-1.94a3.77,3.77,0,0,1,.38-1.68A2.79,2.79,0,0,1,137.17,58a2.93,2.93,0,0,1,1.55-.42,2.8,2.8,0,0,1,2.07.73,2.83,2.83,0,0,1,.74,2.09,4,4,0,0,1-.41,1.71,10.26,10.26,0,0,1-1.47,2.13l-1.28,1.83h3.39Z"/>
          <path d="M143.2,61.1a1,1,0,0,1,.31-.77,1.13,1.13,0,0,1,.81-.3,1.16,1.16,0,0,1,.81.3,1,1,0,0,1,.32.77,1,1,0,0,1-.33.77,1.16,1.16,0,0,1-.8.29,1.12,1.12,0,0,1-.8-.3A1,1,0,0,1,143.2,61.1Zm0,5.59a1,1,0,0,1,.31-.76,1.13,1.13,0,0,1,.81-.31,1.16,1.16,0,0,1,.81.3,1,1,0,0,1,.32.77,1,1,0,0,1-.33.77,1.11,1.11,0,0,1-.8.29,1.16,1.16,0,0,1-.8-.29A1,1,0,0,1,143.2,66.69Z"/>
          <path d="M154.67,57.61v1.65h-.11a2.31,2.31,0,0,0-1.73.65,2.94,2.94,0,0,0-.78,1.81,2.08,2.08,0,0,1,3.29.21,4.73,4.73,0,0,1,.28,4.23,3,3,0,0,1-1,1.22,2.69,2.69,0,0,1-1.51.43,2.58,2.58,0,0,1-2.17-1.08,4.76,4.76,0,0,1-.82-2.93v-.72a7.38,7.38,0,0,1,.52-2.89,4.15,4.15,0,0,1,1.49-1.9,4,4,0,0,1,2.27-.68Zm-1.67,5a.91.91,0,0,0-.62.23,1.52,1.52,0,0,0-.37.58v.7a3.43,3.43,0,0,0,.28,1.58.8.8,0,0,0,1.49,0,3.11,3.11,0,0,0,0-2.6A.88.88,0,0,0,153,62.6Z"/>
          <path d="M162.67,58.45v1.82h1v1.46h-1V65.4a1.09,1.09,0,0,0,.12.61.53.53,0,0,0,.46.16,1.5,1.5,0,0,0,.46,0v1.51a3.12,3.12,0,0,1-1.07.18c-1.25,0-1.88-.71-1.9-2.15V61.73h-.85V60.27h.85V58.45Z"/>
          <path d="M164.5,63.74a4,4,0,0,1,.79-2.64,3,3,0,0,1,4.41,0,4,4,0,0,1,.79,2.65v.47a4,4,0,0,1-.79,2.64,3,3,0,0,1-4.41,0,4,4,0,0,1-.79-2.65Zm1.94.48c0,1.32.35,2,1.06,2s1-.56,1.05-1.66v-.81a3.11,3.11,0,0,0-.28-1.51.88.88,0,0,0-.79-.48.85.85,0,0,0-.77.48,3.11,3.11,0,0,0-.28,1.51Z"/>
          <path d="M176.52,63.46l3.1,1.36v1.93l-5-2.49V62.63l5-2.5v1.93Z"/>
          <path d="M185.39,67.68h-1.94V60.07l-1.9.73V59.19l3.64-1.49h.2Z"/>
          <path d="M194.09,67.68h-5.87V66.31l2.69-3.43a7.33,7.33,0,0,0,.76-1.25,2.52,2.52,0,0,0,.24-1,2,2,0,0,0-.23-1,.72.72,0,0,0-.66-.37.86.86,0,0,0-.75.43,2.4,2.4,0,0,0-.27,1.24h-1.95a3.77,3.77,0,0,1,.38-1.68A2.79,2.79,0,0,1,189.5,58a2.94,2.94,0,0,1,1.56-.42,2.56,2.56,0,0,1,2.8,2.82,4,4,0,0,1-.41,1.71A10.26,10.26,0,0,1,192,64.24l-1.28,1.83h3.39Z"/>
          <path d="M201,64.45l1-4.18H204l-2.43,8.52c-.37,1.25-1.05,1.88-2.06,1.88a3.09,3.09,0,0,1-.79-.13V69H199a.9.9,0,0,0,1-.78l.15-.5L198,60.27h2.08Z"/>
          <path d="M207.75,67.81a3,3,0,0,1-2.33-.89,3.6,3.6,0,0,1-.83-2.54v-.59a4.19,4.19,0,0,1,.76-2.7,2.65,2.65,0,0,1,2.2-1,2.53,2.53,0,0,1,2.1.89,4.24,4.24,0,0,1,.72,2.64v1h-3.85a2,2,0,0,0,.36,1.21,1.22,1.22,0,0,0,1,.38,2.14,2.14,0,0,0,1.62-.67l.76,1.17a2.49,2.49,0,0,1-1,.8A3.58,3.58,0,0,1,207.75,67.81Zm-1.22-4.54h1.94v-.18a2.15,2.15,0,0,0-.22-1,.76.76,0,0,0-.71-.34.81.81,0,0,0-.74.36A2.56,2.56,0,0,0,206.53,63.27Z"/>
          <path d="M215,67.68a2.8,2.8,0,0,1-.17-.58,1.62,1.62,0,0,1-1.4.71,2.1,2.1,0,0,1-1.55-.61,2.16,2.16,0,0,1-.61-1.6,2.27,2.27,0,0,1,.74-1.8,3.29,3.29,0,0,1,2.14-.65h.59v-.59a1.17,1.17,0,0,0-.17-.71.64.64,0,0,0-.5-.2c-.48,0-.73.28-.73.85h-1.93a2.13,2.13,0,0,1,.77-1.7,2.87,2.87,0,0,1,1.94-.66,2.65,2.65,0,0,1,1.89.63,2.4,2.4,0,0,1,.67,1.81v3.48a3.56,3.56,0,0,0,.27,1.5v.12Zm-1.14-1.38a1.13,1.13,0,0,0,.54-.13.94.94,0,0,0,.34-.31V64.32h-.47a1,1,0,0,0-.77.31,1.21,1.21,0,0,0-.29.84C213.19,66,213.41,66.3,213.84,66.3Z"/>
          <path d="M221.71,62.14l-.64,0a1.06,1.06,0,0,0-1.08.7v4.89h-1.94V60.27h1.83l.05.81a1.41,1.41,0,0,1,1.27-.94,1.3,1.3,0,0,1,.53.09Z"/>
          <path d="M226,65.69a.62.62,0,0,0-.23-.45,4.72,4.72,0,0,0-1.06-.57,4.46,4.46,0,0,1-1.64-1,1.91,1.91,0,0,1-.45-1.29,2.06,2.06,0,0,1,.7-1.61,2.69,2.69,0,0,1,1.86-.63,2.89,2.89,0,0,1,2,.63,2.1,2.1,0,0,1,.73,1.69h-1.93c0-.61-.26-.91-.76-.91a.69.69,0,0,0-.5.2.66.66,0,0,0-.2.53.54.54,0,0,0,.22.43,4.35,4.35,0,0,0,1,.54,4.16,4.16,0,0,1,1.67,1,2.14,2.14,0,0,1-.25,3,3,3,0,0,1-2,.6,3.18,3.18,0,0,1-1.44-.31,2.46,2.46,0,0,1-1-.89,2.24,2.24,0,0,1-.35-1.22h1.84a1.14,1.14,0,0,0,.23.75.92.92,0,0,0,.73.26C225.72,66.4,226,66.16,226,65.69Z"/>
          <path d="M232.41,63.63a11.78,11.78,0,0,1,.36-2.94,8.85,8.85,0,0,1,1.07-2.53,4.27,4.27,0,0,1,1.53-1.53l.37,1.07a4.86,4.86,0,0,0-1.23,2.22,12.44,12.44,0,0,0-.47,3.47v.41a13,13,0,0,0,.45,3.61,5.08,5.08,0,0,0,1.25,2.33l-.37,1.05a4.33,4.33,0,0,1-1.51-1.51,8.42,8.42,0,0,1-1.07-2.48,11.92,11.92,0,0,1-.38-2.89Z"/>
          <path d="M238.6,60.27l.05.74a2.06,2.06,0,0,1,1.72-.87c1.27,0,1.93.89,2,2.67v4.87h-1.94V63a1.68,1.68,0,0,0-.19-.92.72.72,0,0,0-.66-.28.91.91,0,0,0-.82.54v5.38h-1.94V60.27Z"/>
          <path d="M249.14,62.59h-5.22V61h5.22Zm0,3h-5.22V63.93h5.22Z"/>
          <path d="M254.47,63.83a1.85,1.85,0,0,1-1.35.62,2.08,2.08,0,0,1-1.79-.91,4.15,4.15,0,0,1-.65-2.44,4.26,4.26,0,0,1,.37-1.8,2.91,2.91,0,0,1,1-1.27,2.55,2.55,0,0,1,1.47-.45,2.44,2.44,0,0,1,1.5.5,3.16,3.16,0,0,1,1,1.43,5.87,5.87,0,0,1,.36,2.13v.7a6.3,6.3,0,0,1-1.12,4,3.87,3.87,0,0,1-3.17,1.46H252V66.11h.13a2.28,2.28,0,0,0,1.7-.59A2.77,2.77,0,0,0,254.47,63.83Zm-.86-.89c.38,0,.67-.26.89-.77v-.89a3.64,3.64,0,0,0-.27-1.54c-.18-.37-.41-.55-.69-.55s-.5.18-.67.55a3,3,0,0,0-.26,1.34,2.85,2.85,0,0,0,.27,1.36A.81.81,0,0,0,253.61,62.94Z"/>
          <path d="M261,63.79a11,11,0,0,1-.41,3,8.81,8.81,0,0,1-1.13,2.5,4.25,4.25,0,0,1-1.53,1.48l-.36-1.05a5.21,5.21,0,0,0,1.24-2.28,12.81,12.81,0,0,0,.46-3.48v-.37a13,13,0,0,0-.45-3.56,5.41,5.41,0,0,0-1.25-2.37l.36-1a3.79,3.79,0,0,1,1.08.89,6.7,6.7,0,0,1,1,1.54,9.77,9.77,0,0,1,.72,2.06A11.64,11.64,0,0,1,261,63.79Z"/>
        </g>
        <g>
          <path d="M101.67,122.63a3.7,3.7,0,0,1-1,2.58,3.36,3.36,0,0,1-2.49.88A3.14,3.14,0,0,1,95.63,125a4.93,4.93,0,0,1-.9-3.17v-1.68a4.78,4.78,0,0,1,.93-3.16,3.17,3.17,0,0,1,2.59-1.12,3.23,3.23,0,0,1,2.47.91,4.19,4.19,0,0,1,1,2.62h-2a2.71,2.71,0,0,0-.32-1.46,1.3,1.3,0,0,0-1.09-.4,1.23,1.23,0,0,0-1.15.57,3.91,3.91,0,0,0-.35,1.85v1.89a4.29,4.29,0,0,0,.33,2,1.22,1.22,0,0,0,1.14.56,1.3,1.3,0,0,0,1.09-.39,2.56,2.56,0,0,0,.35-1.4Z"/>
          <path d="M102.58,122a4,4,0,0,1,.8-2.64,3,3,0,0,1,4.4,0,4,4,0,0,1,.8,2.65v.48a4,4,0,0,1-.79,2.64,3,3,0,0,1-4.41,0,4,4,0,0,1-.8-2.65Zm2,.49c0,1.32.35,2,1.06,2s1-.55,1-1.65V122a3.22,3.22,0,0,0-.28-1.5.87.87,0,0,0-.8-.49.86.86,0,0,0-.77.49,3.24,3.24,0,0,0-.27,1.5Z"/>
          <path d="M111.67,119.2a1.91,1.91,0,0,1,1.55-.79,1.82,1.82,0,0,1,1.54.71,3.58,3.58,0,0,1,.53,2.12V126h-1.94v-4.68a1.67,1.67,0,0,0-.21-1,.74.74,0,0,0-.65-.29.93.93,0,0,0-.82.49V126h-1.94V115.44h1.94Z"/>
          <path d="M116.45,122a4,4,0,0,1,.8-2.64,3,3,0,0,1,4.4,0,4,4,0,0,1,.8,2.65v.48a4.07,4.07,0,0,1-.79,2.64,3,3,0,0,1-4.42,0,4.07,4.07,0,0,1-.79-2.65Zm2,.49c0,1.32.35,2,1.06,2s1-.55,1.05-1.65V122a3.22,3.22,0,0,0-.28-1.5.88.88,0,0,0-.8-.49.85.85,0,0,0-.77.49,3.24,3.24,0,0,0-.27,1.5Z"/>
          <path d="M127.3,120.42l-.64-.06a1,1,0,0,0-1.07.7V126h-2v-7.4h1.83l0,.8a1.41,1.41,0,0,1,1.27-.94,1.3,1.3,0,0,1,.53.09Z"/>
          <path d="M130.66,116.73v1.82h1V120h-1v3.68a1.08,1.08,0,0,0,.12.6.53.53,0,0,0,.46.17,1.89,1.89,0,0,0,.46,0l0,1.5a2.81,2.81,0,0,1-1.06.19c-1.25,0-1.88-.72-1.9-2.15V120h-.85v-1.45h.85v-1.82Z"/>
          <path d="M137.61,120.09h.94a.9.9,0,0,0,.78-.37,1.74,1.74,0,0,0,.25-1,1.49,1.49,0,0,0-.26-.93.85.85,0,0,0-1.34,0,1.16,1.16,0,0,0-.26.79h-1.94a2.73,2.73,0,0,1,.36-1.4,2.62,2.62,0,0,1,1-1,3.3,3.3,0,0,1,3.59.41,2.78,2.78,0,0,1,.78,2.08,2.47,2.47,0,0,1-1.28,2.14,2.14,2.14,0,0,1,1,.91,3.13,3.13,0,0,1-.5,3.55,3.13,3.13,0,0,1-2.22.8,2.73,2.73,0,0,1-2.88-2.87h1.94a1.4,1.4,0,0,0,.28.9.86.86,0,0,0,.71.36.93.93,0,0,0,.79-.37,1.51,1.51,0,0,0,.29-1c0-1-.38-1.48-1.14-1.48h-.95Z"/>
          <path d="M143.2,119.37a1,1,0,0,1,.31-.77,1.13,1.13,0,0,1,.81-.3,1.16,1.16,0,0,1,.81.3,1,1,0,0,1,.32.77,1,1,0,0,1-.33.77,1.25,1.25,0,0,1-1.6,0A1,1,0,0,1,143.2,119.37Zm0,5.6a1,1,0,0,1,.31-.77,1.13,1.13,0,0,1,.81-.3,1.16,1.16,0,0,1,.81.3,1,1,0,0,1,.32.77,1,1,0,0,1-.33.77,1.16,1.16,0,0,1-.8.29,1.12,1.12,0,0,1-.8-.3A1,1,0,0,1,143.2,125Z"/>
          <path d="M155.92,126h-5.87v-1.37l2.69-3.42a7.74,7.74,0,0,0,.76-1.25,2.52,2.52,0,0,0,.24-1,1.93,1.93,0,0,0-.23-1,.73.73,0,0,0-.66-.38.87.87,0,0,0-.75.44,2.34,2.34,0,0,0-.27,1.23h-2a3.77,3.77,0,0,1,.38-1.68,2.85,2.85,0,0,1,2.63-1.6,2.8,2.8,0,0,1,2.07.74,2.83,2.83,0,0,1,.73,2.09,4,4,0,0,1-.4,1.71,11.42,11.42,0,0,1-1.48,2.13l-1.28,1.82h3.39Z"/>
          <path d="M162.67,116.73v1.82h1V120h-1v3.68a1.08,1.08,0,0,0,.12.6.53.53,0,0,0,.46.17,1.89,1.89,0,0,0,.46,0v1.5a2.9,2.9,0,0,1-1.07.19c-1.25,0-1.88-.72-1.9-2.15V120h-.85v-1.45h.85v-1.82Z"/>
          <path d="M164.5,122a4,4,0,0,1,.79-2.64,3,3,0,0,1,4.41,0,4,4,0,0,1,.79,2.65v.48a4,4,0,0,1-.79,2.64,3,3,0,0,1-4.41,0,4,4,0,0,1-.79-2.65Zm1.94.49c0,1.32.35,2,1.06,2s1-.55,1.05-1.65V122a3.1,3.1,0,0,0-.28-1.5.87.87,0,0,0-.79-.49.84.84,0,0,0-.77.49,3.1,3.1,0,0,0-.28,1.5Z"/>
          <path d="M176.52,121.73l3.1,1.36V125l-5-2.49V120.9l5-2.49v1.92Z"/>
          <path d="M185.75,115.89v1.64h-.11a2.33,2.33,0,0,0-1.73.65,3,3,0,0,0-.78,1.81,2.08,2.08,0,0,1,3.29.21,4.25,4.25,0,0,1,.65,2.47,4.17,4.17,0,0,1-.37,1.76,2.84,2.84,0,0,1-1,1.22,2.7,2.7,0,0,1-1.51.44A2.58,2.58,0,0,1,182,125a4.78,4.78,0,0,1-.82-2.93v-.72a7.3,7.3,0,0,1,.52-2.88,4.18,4.18,0,0,1,1.49-1.91,4,4,0,0,1,2.28-.67Zm-1.67,5a.87.87,0,0,0-.62.23,1.48,1.48,0,0,0-.37.57v.7a3.54,3.54,0,0,0,.28,1.58.84.84,0,0,0,.74.52.85.85,0,0,0,.75-.5,2.75,2.75,0,0,0,.28-1.3,2.61,2.61,0,0,0-.29-1.3A.86.86,0,0,0,184.08,120.88Z"/>
          <path d="M193.88,122.73l1-4.18h2.07l-2.44,8.51c-.37,1.25-1.05,1.88-2.06,1.88a2.7,2.7,0,0,1-.79-.13V127.3h.22a1.08,1.08,0,0,0,.68-.18,1.06,1.06,0,0,0,.35-.6l.15-.5-2.13-7.48H193Z"/>
          <path d="M200.66,126.09a3.07,3.07,0,0,1-2.33-.89,3.61,3.61,0,0,1-.83-2.55v-.58a4.24,4.24,0,0,1,.76-2.71,2.69,2.69,0,0,1,2.2-1,2.53,2.53,0,0,1,2.1.89,4.28,4.28,0,0,1,.72,2.64v1h-3.85a2.07,2.07,0,0,0,.36,1.21,1.22,1.22,0,0,0,1,.38,2.17,2.17,0,0,0,1.62-.66l.76,1.17a2.41,2.41,0,0,1-1,.79A3.43,3.43,0,0,1,200.66,126.09Zm-1.22-4.54h1.94v-.18a2.07,2.07,0,0,0-.22-1,.75.75,0,0,0-.71-.34.81.81,0,0,0-.74.36A2.57,2.57,0,0,0,199.44,121.55Z"/>
          <path d="M207.89,126a2.61,2.61,0,0,1-.16-.57,1.67,1.67,0,0,1-1.41.71,2.11,2.11,0,0,1-1.55-.62,2.19,2.19,0,0,1-.61-1.59,2.22,2.22,0,0,1,.75-1.8,3.24,3.24,0,0,1,2.13-.65h.59v-.6a1.14,1.14,0,0,0-.17-.7.6.6,0,0,0-.5-.21c-.48,0-.72.29-.72.85H204.3a2.15,2.15,0,0,1,.77-1.69,2.84,2.84,0,0,1,2-.67,2.62,2.62,0,0,1,1.88.63,2.41,2.41,0,0,1,.67,1.81v3.49a3.72,3.72,0,0,0,.27,1.5V126Zm-1.14-1.38a1.07,1.07,0,0,0,.55-.13.9.9,0,0,0,.33-.31v-1.54h-.46a1,1,0,0,0-.78.32,1.2,1.2,0,0,0-.28.84C206.11,124.3,206.32,124.57,206.75,124.57Z"/>
          <path d="M214.62,120.42l-.64-.06a1,1,0,0,0-1.07.7V126H211v-7.4h1.83l.05.8a1.41,1.41,0,0,1,1.27-.94,1.3,1.3,0,0,1,.53.09Z"/>
          <path d="M218.89,124a.62.62,0,0,0-.23-.46,4.93,4.93,0,0,0-1-.56,4.42,4.42,0,0,1-1.65-1,1.88,1.88,0,0,1-.45-1.29,2.11,2.11,0,0,1,.7-1.61,2.69,2.69,0,0,1,1.86-.63,2.89,2.89,0,0,1,2,.63,2.1,2.1,0,0,1,.73,1.69h-1.93q0-.9-.75-.9a.69.69,0,0,0-.51.19.72.72,0,0,0-.2.53.56.56,0,0,0,.22.44,5.2,5.2,0,0,0,1,.53,4.41,4.41,0,0,1,1.68,1,2,2,0,0,1,.48,1.39,2,2,0,0,1-.74,1.6,3,3,0,0,1-2,.6,3.18,3.18,0,0,1-1.44-.32,2.45,2.45,0,0,1-1-.89,2.28,2.28,0,0,1-.35-1.22h1.84a1.23,1.23,0,0,0,.23.76.94.94,0,0,0,.73.25C218.63,124.67,218.89,124.44,218.89,124Z"/>
          <path d="M225.32,121.9a11.84,11.84,0,0,1,.36-2.94,8.42,8.42,0,0,1,1.08-2.52,4.24,4.24,0,0,1,1.53-1.54l.36,1.07a5,5,0,0,0-1.23,2.23,12.77,12.77,0,0,0-.47,3.47v.41a13,13,0,0,0,.45,3.61,5.13,5.13,0,0,0,1.25,2.32l-.36,1.05a4.19,4.19,0,0,1-1.52-1.51,8.36,8.36,0,0,1-1.07-2.47,12,12,0,0,1-.38-2.9Z"/>
          <path d="M231.51,118.55l.05.73a2.06,2.06,0,0,1,1.72-.87c1.27,0,1.93.89,2,2.68V126H233.3v-4.72a1.64,1.64,0,0,0-.19-.91.72.72,0,0,0-.66-.29.91.91,0,0,0-.82.54V126h-1.94v-7.4Z"/>
          <path d="M242.05,120.86h-5.22v-1.63h5.22Zm0,3h-5.22V122.2h5.22Z"/>
          <path d="M247.38,122.1a1.86,1.86,0,0,1-1.35.63,2.09,2.09,0,0,1-1.78-.91,4.1,4.1,0,0,1-.66-2.44,4.31,4.31,0,0,1,.37-1.81,3,3,0,0,1,1-1.26,2.49,2.49,0,0,1,1.47-.46,2.4,2.4,0,0,1,1.5.5,3.19,3.19,0,0,1,1,1.44,5.85,5.85,0,0,1,.36,2.12v.71a6.33,6.33,0,0,1-1.11,4,3.84,3.84,0,0,1-3.17,1.46h-.2v-1.67H245a2.32,2.32,0,0,0,1.7-.58A2.74,2.74,0,0,0,247.38,122.1Zm-.85-.89c.37,0,.66-.25.88-.77v-.89a3.56,3.56,0,0,0-.27-1.53c-.18-.37-.41-.56-.69-.56s-.5.19-.67.55a3.22,3.22,0,0,0-.26,1.35,2.84,2.84,0,0,0,.27,1.35A.82.82,0,0,0,246.53,121.21Z"/>
          <path d="M253.87,122.07a10.94,10.94,0,0,1-.41,3,8.81,8.81,0,0,1-1.13,2.5,4.17,4.17,0,0,1-1.53,1.48l-.35-1.05a5.11,5.11,0,0,0,1.23-2.28,12.7,12.7,0,0,0,.46-3.48v-.36a13.29,13.29,0,0,0-.44-3.56,5.4,5.4,0,0,0-1.25-2.37l.35-1.06a4,4,0,0,1,1.08.89,6.94,6.94,0,0,1,1,1.54,10.37,10.37,0,0,1,.71,2.06A11.25,11.25,0,0,1,253.87,122.07Z"/>
        </g>
      </g>
    </g>
  </g>
</svg>
