<svg xmlns="http://www.w3.org/2000/svg" xmlns:xlink="http://www.w3.org/1999/xlink" width="576.75" height="250.49" viewBox="0 0 576.75 250.49">
  <defs>
    <clipPath id="clip-path">
      <rect x="332.1" y="197.63" width="79.82" height="52.85" fill="none"/>
    </clipPath>
    <clipPath id="clip-path-2">
      <rect x="496.93" y="197.63" width="79.82" height="52.85" fill="none"/>
    </clipPath>
  </defs>
  <g id="Layer_2" data-name="Layer 2">
    <g id="Layer_1-2" data-name="Layer 1">
      <g>
        <g>
          <path d="M26.54,76.3A22.91,22.91,0,1,1,49.45,99.21,22.9,22.9,0,0,1,26.54,76.3" fill="#2eb4ff"/>
          <line x1="69.22" y1="76.3" x2="100.03" y2="76.3" fill="none" stroke="#2eb4ff" stroke-miterlimit="10" stroke-width="3"/>
          <polygon points="98.06 83.03 109.72 76.3 98.06 69.57 98.06 83.03" fill="#2eb4ff"/>
          <polyline points="96.86 7.76 91.63 7.76 91.63 146.05 96.86 146.05" fill="none" stroke="#2eb4ff" stroke-miterlimit="10" stroke-width="3"/>
          <polygon points="94.89 1.03 106.55 7.77 94.89 14.5 94.89 1.03" fill="#2eb4ff"/>
          <polygon points="94.89 152.78 106.55 146.05 94.89 139.32 94.89 152.78" fill="#2eb4ff"/>
          <rect x="375.06" y="47.56" width="150.05" height="49.22" fill="none" stroke="#2eb4ff" stroke-miterlimit="10" stroke-width="3"/>
          <polyline points="30.95 174.44 30.95 165.28 536.84 165.28 536.84 174.44" fill="none" stroke="#231f20" stroke-miterlimit="10" stroke-width="4"/>
          <line x1="372.01" y1="174.44" x2="372.01" y2="165.28" fill="none" stroke="#231f20" stroke-miterlimit="10" stroke-width="4"/>
          <g opacity="0.33">
            <g clip-path="url(#clip-path)">
              <polygon points="372.01 197.63 395.2 219.75 411.92 219.75 411.92 250.49 332.1 250.49 332.1 219.75 348.82 219.75 372.01 197.63" fill="#59c2ef"/>
            </g>
          </g>
          <g opacity="0.33">
            <g clip-path="url(#clip-path-2)">
              <polygon points="536.84 197.63 560.03 219.75 576.75 219.75 576.75 250.49 496.93 250.49 496.93 219.75 513.65 219.75 536.84 197.63" fill="#59c2ef"/>
            </g>
          </g>
        </g>
        <g>
          <path d="M123.35,9.38a4.53,4.53,0,0,1-1.16,3.13,4.09,4.09,0,0,1-3,1.06A3.79,3.79,0,0,1,116,12.22a6,6,0,0,1-1.09-3.84v-2a5.84,5.84,0,0,1,1.12-3.84,4.46,4.46,0,0,1,6.14-.24,5,5,0,0,1,1.17,3.17h-2.45a3.23,3.23,0,0,0-.39-1.76,1.55,1.55,0,0,0-1.33-.49,1.48,1.48,0,0,0-1.38.68,4.73,4.73,0,0,0-.44,2.26V8.4a5.26,5.26,0,0,0,.41,2.48,1.5,1.5,0,0,0,1.38.67,1.62,1.62,0,0,0,1.33-.47,3.1,3.1,0,0,0,.41-1.7Z"/>
          <path d="M124.46,8.62a4.89,4.89,0,0,1,1-3.2,3.65,3.65,0,0,1,5.34,0,4.87,4.87,0,0,1,1,3.22v.57a4.88,4.88,0,0,1-1,3.21,3.69,3.69,0,0,1-5.36,0,4.88,4.88,0,0,1-1-3.21Zm2.36.59c0,1.61.43,2.41,1.29,2.41s1.22-.67,1.28-2v-1a3.89,3.89,0,0,0-.34-1.82,1.08,1.08,0,0,0-1-.59,1,1,0,0,0-.93.59,3.77,3.77,0,0,0-.34,1.82Z"/>
          <path d="M135.49,5.21a2.33,2.33,0,0,1,1.87-1,2.19,2.19,0,0,1,1.87.86,4.38,4.38,0,0,1,.65,2.58v5.71h-2.36V7.72a2.06,2.06,0,0,0-.24-1.14.9.9,0,0,0-.8-.35,1.1,1.1,0,0,0-1,.59v6.59h-2.35V.66h2.35Z"/>
          <path d="M141.29,8.62a4.89,4.89,0,0,1,1-3.2,3.66,3.66,0,0,1,5.35,0,4.93,4.93,0,0,1,1,3.22v.57a4.93,4.93,0,0,1-.95,3.21,3.69,3.69,0,0,1-5.36,0,4.88,4.88,0,0,1-1-3.21Zm2.36.59c0,1.61.43,2.41,1.28,2.41s1.22-.67,1.28-2v-1a3.77,3.77,0,0,0-.34-1.82,1.07,1.07,0,0,0-1-.59,1.05,1.05,0,0,0-.94.59,3.91,3.91,0,0,0-.33,1.82Z"/>
          <path d="M154.46,6.69l-.78-.07a1.29,1.29,0,0,0-1.31.85v5.94H150v-9h2.22l.07,1a1.7,1.7,0,0,1,1.53-1.14,1.52,1.52,0,0,1,.65.11Z"/>
          <path d="M158.53,2.22v2.2h1.2V6.18h-1.2v4.47a1.29,1.29,0,0,0,.14.73.68.68,0,0,0,.56.2,2.18,2.18,0,0,0,.56-.06l0,1.83a3.64,3.64,0,0,1-1.29.22c-1.52,0-2.29-.87-2.3-2.61V6.18h-1V4.42h1V2.22Z"/>
          <path d="M170,13.41h-2.36V4.18l-2.3.88V3.11l4.41-1.81H170Z"/>
          <path d="M173.74,5.42a1.24,1.24,0,0,1,.38-.93,1.36,1.36,0,0,1,1-.36,1.38,1.38,0,0,1,1,.36,1.21,1.21,0,0,1,.39.93,1.18,1.18,0,0,1-.39.93,1.39,1.39,0,0,1-1,.36,1.37,1.37,0,0,1-1-.36A1.21,1.21,0,0,1,173.74,5.42Zm0,6.79a1.24,1.24,0,0,1,.38-.93,1.36,1.36,0,0,1,1-.36,1.38,1.38,0,0,1,1,.36,1.21,1.21,0,0,1,.39.93,1.18,1.18,0,0,1-.39.93,1.39,1.39,0,0,1-1,.36,1.37,1.37,0,0,1-1-.36A1.21,1.21,0,0,1,173.74,12.21Z"/>
          <path d="M187.22,13.41h-2.36V4.18l-2.29.88V3.11L187,1.3h.25Z"/>
          <path d="M197.77,13.41h-7.12V11.75l3.27-4.16a9,9,0,0,0,.92-1.52,3.11,3.11,0,0,0,.29-1.25,2.4,2.4,0,0,0-.28-1.26.88.88,0,0,0-.8-.45,1,1,0,0,0-.9.53,2.72,2.72,0,0,0-.34,1.49h-2.36a4.42,4.42,0,0,1,.46-2,3.35,3.35,0,0,1,1.3-1.43,3.44,3.44,0,0,1,1.89-.52,3.4,3.4,0,0,1,2.51.9,3.44,3.44,0,0,1,.89,2.53,4.84,4.84,0,0,1-.5,2.07,12.3,12.3,0,0,1-1.78,2.59l-1.56,2.22h4.11Z"/>
          <path d="M206,2.22v2.2h1.2V6.18H206v4.47a1.29,1.29,0,0,0,.14.73.66.66,0,0,0,.56.2,2.18,2.18,0,0,0,.56-.06l0,1.83a3.64,3.64,0,0,1-1.29.22c-1.52,0-2.29-.87-2.3-2.61V6.18h-1V4.42h1V2.22Z"/>
          <path d="M208.18,8.62a4.89,4.89,0,0,1,1-3.2,3.66,3.66,0,0,1,5.35,0,4.93,4.93,0,0,1,1,3.22v.57a4.93,4.93,0,0,1-.95,3.21,3.69,3.69,0,0,1-5.36,0,4.88,4.88,0,0,1-1-3.21Zm2.36.59c0,1.61.43,2.41,1.29,2.41s1.21-.67,1.27-2v-1a3.77,3.77,0,0,0-.34-1.82,1.07,1.07,0,0,0-1-.59,1,1,0,0,0-.93.59,3.77,3.77,0,0,0-.34,1.82Z"/>
          <path d="M222.77,8.29l3.76,1.65v2.34l-6.05-3v-2l6.05-3V6.59Z"/>
          <path d="M233.53,13.41h-2.36V4.18l-2.29.88V3.11l4.4-1.81h.25Z"/>
          <path d="M243.73,4.53a3.16,3.16,0,0,1-.37,1.56,2.84,2.84,0,0,1-1,1.09,3.08,3.08,0,0,1,1.18,1.17,3.35,3.35,0,0,1,.43,1.74,3.45,3.45,0,0,1-.93,2.55,3.41,3.41,0,0,1-2.53.93,3.48,3.48,0,0,1-2.55-.93,3.41,3.41,0,0,1-.94-2.55,3.41,3.41,0,0,1,.43-1.75,3,3,0,0,1,1.18-1.16,2.84,2.84,0,0,1-1-1.09,3.16,3.16,0,0,1-.38-1.56,3.39,3.39,0,0,1,.89-2.48,3.6,3.6,0,0,1,4.77,0A3.38,3.38,0,0,1,243.73,4.53Zm-3.25,7.09a.92.92,0,0,0,.82-.45,2.35,2.35,0,0,0,.28-1.26,2.37,2.37,0,0,0-.29-1.26,1,1,0,0,0-.83-.46.94.94,0,0,0-.82.46,2.28,2.28,0,0,0-.31,1.26,2.25,2.25,0,0,0,.31,1.26A1,1,0,0,0,240.48,11.62Zm.91-7a2.42,2.42,0,0,0-.22-1.13.76.76,0,0,0-.71-.42.73.73,0,0,0-.68.41,2.37,2.37,0,0,0-.23,1.14,2.53,2.53,0,0,0,.23,1.15.75.75,0,0,0,.7.43.73.73,0,0,0,.69-.43A2.53,2.53,0,0,0,241.39,4.66Z"/>
          <path d="M252.42,9.5l1.2-5.08h2.51l-3,10.33c-.44,1.52-1.27,2.28-2.5,2.28a3.64,3.64,0,0,1-1-.15V15H250a1.37,1.37,0,0,0,.83-.21,1.29,1.29,0,0,0,.42-.74l.18-.6-2.59-9.08h2.53Z"/>
          <path d="M260.66,13.57a3.7,3.7,0,0,1-2.83-1.08,4.36,4.36,0,0,1-1-3.08V8.69a5.1,5.1,0,0,1,.93-3.28,3.23,3.23,0,0,1,2.67-1.15A3,3,0,0,1,263,5.34a5.21,5.21,0,0,1,.88,3.2V9.7h-4.68a2.5,2.5,0,0,0,.44,1.46,1.48,1.48,0,0,0,1.21.46,2.65,2.65,0,0,0,2-.8l.92,1.42a3,3,0,0,1-1.25,1A4.24,4.24,0,0,1,260.66,13.57Zm-1.48-5.51h2.35V7.84a2.48,2.48,0,0,0-.27-1.22.92.92,0,0,0-.86-.41,1,1,0,0,0-.89.44A2.91,2.91,0,0,0,259.18,8.06Z"/>
          <path d="M269.43,13.41a3.28,3.28,0,0,1-.2-.7,2,2,0,0,1-1.71.86,2.56,2.56,0,0,1-1.87-.74,2.62,2.62,0,0,1-.74-1.94,2.71,2.71,0,0,1,.9-2.18,3.89,3.89,0,0,1,2.59-.79h.72V7.2a1.35,1.35,0,0,0-.21-.86.77.77,0,0,0-.61-.25c-.58,0-.88.35-.88,1h-2.35a2.57,2.57,0,0,1,.94-2,3.47,3.47,0,0,1,2.36-.81,3.13,3.13,0,0,1,2.28.77,2.87,2.87,0,0,1,.81,2.19v4.23a4.6,4.6,0,0,0,.34,1.82v.14ZM268,11.73a1.28,1.28,0,0,0,.67-.16,1.14,1.14,0,0,0,.41-.37V9.33h-.57a1.21,1.21,0,0,0-.94.38,1.49,1.49,0,0,0-.35,1C267.26,11.4,267.52,11.73,268,11.73Z"/>
          <path d="M277.6,6.69l-.78-.07a1.28,1.28,0,0,0-1.3.85v5.94h-2.36v-9h2.21l.07,1A1.7,1.7,0,0,1,277,4.26a1.47,1.47,0,0,1,.64.11Z"/>
          <path d="M282.78,11a.74.74,0,0,0-.29-.55,5.53,5.53,0,0,0-1.27-.69,5.26,5.26,0,0,1-2-1.22A2.32,2.32,0,0,1,278.68,7,2.49,2.49,0,0,1,279.53,5a3.2,3.2,0,0,1,2.25-.77,3.5,3.5,0,0,1,2.37.76A2.57,2.57,0,0,1,285,7.07h-2.35c0-.73-.31-1.09-.92-1.09a.81.81,0,0,0-.61.23.85.85,0,0,0-.24.65.68.68,0,0,0,.26.52,5.88,5.88,0,0,0,1.26.66,5.09,5.09,0,0,1,2,1.18,2.43,2.43,0,0,1,.59,1.69,2.37,2.37,0,0,1-.9,1.93,3.68,3.68,0,0,1-2.38.73,3.84,3.84,0,0,1-1.74-.38,2.94,2.94,0,0,1-1.18-1.08,2.72,2.72,0,0,1-.43-1.49h2.23a1.43,1.43,0,0,0,.29.93,1.13,1.13,0,0,0,.88.3C282.46,11.85,282.78,11.57,282.78,11Z"/>
          <path d="M290.58,8.49A14.43,14.43,0,0,1,291,4.92a10.28,10.28,0,0,1,1.3-3.06A5.14,5.14,0,0,1,294.18,0l.44,1.29A5.94,5.94,0,0,0,293.13,4a14.78,14.78,0,0,0-.57,4.21v.5a16,16,0,0,0,.54,4.38,6.07,6.07,0,0,0,1.52,2.81l-.44,1.28a5.07,5.07,0,0,1-1.84-1.83,9.87,9.87,0,0,1-1.3-3,14,14,0,0,1-.46-3.51Z"/>
          <path d="M298.08,4.42l.07.89a2.5,2.5,0,0,1,2.08-1c1.55,0,2.34,1.08,2.39,3.24v5.91h-2.36V7.68A2.09,2.09,0,0,0,300,6.57a.88.88,0,0,0-.8-.34,1.09,1.09,0,0,0-1,.65v6.53h-2.35v-9Z"/>
          <path d="M314.79,7.23h-6.33v-2h6.33Zm0,3.59h-6.33v-2h6.33Z"/>
          <path d="M327.4,4.53A3.16,3.16,0,0,1,327,6.09a2.84,2.84,0,0,1-1,1.09,3.08,3.08,0,0,1,1.18,1.17,3.35,3.35,0,0,1,.43,1.74,3.45,3.45,0,0,1-.93,2.55,3.41,3.41,0,0,1-2.53.93,3.48,3.48,0,0,1-2.55-.93,3.41,3.41,0,0,1-.94-2.55,3.41,3.41,0,0,1,.43-1.75,3,3,0,0,1,1.19-1.16,2.79,2.79,0,0,1-1-1.09,3.16,3.16,0,0,1-.38-1.56,3.39,3.39,0,0,1,.89-2.48,3.61,3.61,0,0,1,4.78,0A3.42,3.42,0,0,1,327.4,4.53Zm-3.26,7.09a.91.91,0,0,0,.82-.45,2.35,2.35,0,0,0,.29-1.26,2.28,2.28,0,0,0-.3-1.26,1,1,0,0,0-1.65,0,2.28,2.28,0,0,0-.3,1.26,2.26,2.26,0,0,0,.3,1.26A1,1,0,0,0,324.14,11.62Zm.91-7a2.42,2.42,0,0,0-.22-1.13.76.76,0,0,0-.71-.42.74.74,0,0,0-.68.41,2.37,2.37,0,0,0-.23,1.14,2.53,2.53,0,0,0,.23,1.15.75.75,0,0,0,.7.43.73.73,0,0,0,.69-.43A2.53,2.53,0,0,0,325.05,4.66Z"/>
          <path d="M333.05,8.69a13.21,13.21,0,0,1-.5,3.66,10.52,10.52,0,0,1-1.37,3,5.13,5.13,0,0,1-1.85,1.8l-.43-1.28a6.09,6.09,0,0,0,1.49-2.76A15.55,15.55,0,0,0,331,8.92V8.48a15.79,15.79,0,0,0-.55-4.32,6.56,6.56,0,0,0-1.51-2.88L329.33,0a4.73,4.73,0,0,1,1.31,1.08A8.37,8.37,0,0,1,331.84,3a12.62,12.62,0,0,1,.88,2.5A14.17,14.17,0,0,1,333.05,8.69Z"/>
        </g>
        <g>
          <path d="M391,59.54h-2.81V69h-2.31V59.54h-2.76V57.63H391Z"/>
          <path d="M391.18,64.5a4.6,4.6,0,0,1,.91-3,3.43,3.43,0,0,1,5,0,4.59,4.59,0,0,1,.91,3v.54a4.58,4.58,0,0,1-.9,3,3.46,3.46,0,0,1-5,0,4.59,4.59,0,0,1-.91-3Zm2.22.56c0,1.51.41,2.26,1.21,2.26s1.15-.63,1.21-1.89V64.5a3.46,3.46,0,0,0-.32-1.71,1,1,0,0,0-.9-.56,1,1,0,0,0-.88.56,3.57,3.57,0,0,0-.32,1.71Z"/>
          <path d="M399.91,69V62.21h-1V60.55h1v-.76a3.08,3.08,0,0,1,.74-2.17,2.64,2.64,0,0,1,2-.78,4,4,0,0,1,1,.16l0,1.76a1.73,1.73,0,0,0-.54-.07c-.65,0-1,.39-1,1.17v.69h1.32v1.66h-1.32V69Z"/>
          <path d="M408.66,69a3.6,3.6,0,0,1-.19-.65,1.88,1.88,0,0,1-1.61.81,2.39,2.39,0,0,1-1.76-.7,2.5,2.5,0,0,1-.7-1.82,2.59,2.59,0,0,1,.85-2.06,3.74,3.74,0,0,1,2.44-.74h.67v-.68a1.25,1.25,0,0,0-.19-.8.69.69,0,0,0-.57-.24c-.55,0-.83.32-.83,1h-2.21a2.42,2.42,0,0,1,.88-1.93,3.24,3.24,0,0,1,2.22-.77,3,3,0,0,1,2.15.73,2.69,2.69,0,0,1,.76,2.06v4a4.1,4.1,0,0,0,.32,1.71V69Zm-1.3-1.57a1.21,1.21,0,0,0,.62-.15,1.08,1.08,0,0,0,.38-.35V65.17h-.53a1.12,1.12,0,0,0-.88.36,1.37,1.37,0,0,0-.33,1C406.62,67.11,406.87,67.43,407.36,67.43Z"/>
          <path d="M415.23,67.32c.64,0,1-.41,1-1.25h2.08a3.14,3.14,0,0,1-.86,2.24,2.85,2.85,0,0,1-2.15.85,3.07,3.07,0,0,1-2.49-1,4.52,4.52,0,0,1-.88-3v-.67a4.71,4.71,0,0,1,.85-3,3,3,0,0,1,2.5-1,2.88,2.88,0,0,1,2.21.87,3.58,3.58,0,0,1,.82,2.45h-2.08a2.3,2.3,0,0,0-.24-1.1.81.81,0,0,0-.75-.38.89.89,0,0,0-.82.41,3.41,3.41,0,0,0-.27,1.59v.86a6.72,6.72,0,0,0,.1,1.44,1.1,1.1,0,0,0,.34.6A1,1,0,0,0,415.23,67.32Z"/>
          <path d="M419.54,58.36a1.17,1.17,0,0,1,.32-.84,1.18,1.18,0,0,1,.88-.33,1.16,1.16,0,0,1,.87.33,1.14,1.14,0,0,1,.33.84,1.21,1.21,0,0,1-.32.85,1.34,1.34,0,0,1-1.76,0A1.17,1.17,0,0,1,419.54,58.36ZM421.86,69h-2.22V60.55h2.22Z"/>
          <path d="M426.14,58.47v2.08h1.13v1.66h-1.13v4.2a1.29,1.29,0,0,0,.13.69.64.64,0,0,0,.53.19,1.86,1.86,0,0,0,.52-.06V69a3.47,3.47,0,0,1-1.22.21q-2.14,0-2.16-2.46V62.21h-1V60.55h1V58.47Z"/>
          <path d="M428.48,58.36a1.14,1.14,0,0,1,.33-.84,1.33,1.33,0,0,1,1.75,0,1.14,1.14,0,0,1,.33.84,1.13,1.13,0,0,1-1.21,1.18,1.15,1.15,0,0,1-.87-.33A1.18,1.18,0,0,1,428.48,58.36ZM430.8,69h-2.22V60.55h2.22Z"/>
          <path d="M434.54,60.55l.06.84a2.35,2.35,0,0,1,2-1c1.45,0,2.2,1,2.24,3.06V69h-2.22V63.61a2,2,0,0,0-.21-1,.84.84,0,0,0-.76-.32,1,1,0,0,0-.93.61V69h-2.22V60.55Z"/>
          <path d="M440.39,58.36a1.14,1.14,0,0,1,.33-.84,1.16,1.16,0,0,1,.87-.33,1.2,1.2,0,0,1,.88.33,1.28,1.28,0,0,1,0,1.69,1.34,1.34,0,0,1-1.76,0A1.21,1.21,0,0,1,440.39,58.36ZM442.71,69h-2.22V60.55h2.22Z"/>
          <path d="M451,65.05a5.86,5.86,0,0,1-.65,3.08,2.27,2.27,0,0,1-2.07,1,2,2,0,0,1-1.76-1l-.07.83h-2V57h2.21v4.24a2,2,0,0,1,1.65-.85,2.27,2.27,0,0,1,2.06,1,5.63,5.63,0,0,1,.67,3Zm-2.21-.55a4.06,4.06,0,0,0-.26-1.8.94.94,0,0,0-.89-.45,1.06,1.06,0,0,0-1,.63v3.85a1,1,0,0,0,1,.59.93.93,0,0,0,.88-.41,3.69,3.69,0,0,0,.26-1.61Z"/>
          <path d="M455.73,64.52a5.57,5.57,0,0,1,.7-3.1,2.34,2.34,0,0,1,2.05-1,2,2,0,0,1,1.63.85V57h2.22V69h-2l-.1-.86a2,2,0,0,1-1.75,1,2.29,2.29,0,0,1-2-1,5.28,5.28,0,0,1-.72-3Zm2.22.55a4,4,0,0,0,.27,1.75.92.92,0,0,0,.89.5,1.1,1.1,0,0,0,1-.59V62.87a1.05,1.05,0,0,0-1-.62,1,1,0,0,0-.89.49,3.8,3.8,0,0,0-.28,1.75Z"/>
          <path d="M463.7,64.5a4.55,4.55,0,0,1,.91-3,3.07,3.07,0,0,1,2.5-1.1,3.12,3.12,0,0,1,2.53,1.1,4.64,4.64,0,0,1,.9,3v.54a4.63,4.63,0,0,1-.89,3,3.47,3.47,0,0,1-5,0,4.64,4.64,0,0,1-.9-3Zm2.22.56c0,1.51.4,2.26,1.21,2.26s1.14-.63,1.2-1.89V64.5a3.57,3.57,0,0,0-.32-1.71,1,1,0,0,0-.91-.56,1,1,0,0,0-.88.56,3.59,3.59,0,0,0-.31,1.71Z"/>
          <path d="M475.66,66.74a.69.69,0,0,0-.27-.52,5.2,5.2,0,0,0-1.2-.65,5.08,5.08,0,0,1-1.88-1.14A2.2,2.2,0,0,1,471.8,63a2.36,2.36,0,0,1,.8-1.83,3.07,3.07,0,0,1,2.12-.73,3.3,3.3,0,0,1,2.23.72,2.42,2.42,0,0,1,.84,1.93h-2.22c0-.68-.28-1-.85-1a.78.78,0,0,0-.58.22.82.82,0,0,0-.23.61.64.64,0,0,0,.25.5,6,6,0,0,0,1.18.61,4.82,4.82,0,0,1,1.91,1.11,2.29,2.29,0,0,1,.56,1.59,2.24,2.24,0,0,1-.85,1.82,3.44,3.44,0,0,1-2.24.69,3.6,3.6,0,0,1-1.64-.36,2.85,2.85,0,0,1-1.11-1,2.61,2.61,0,0,1-.4-1.4h2.1a1.32,1.32,0,0,0,.27.86,1,1,0,0,0,.83.29C475.36,67.54,475.66,67.27,475.66,66.74Z"/>
          <path d="M482.6,69.16a3.47,3.47,0,0,1-2.66-1,4.08,4.08,0,0,1-.95-2.9v-.67a4.82,4.82,0,0,1,.87-3.09,3.06,3.06,0,0,1,2.51-1.09,2.88,2.88,0,0,1,2.4,1,4.85,4.85,0,0,1,.82,3v1.08h-4.4a2.26,2.26,0,0,0,.42,1.38,1.39,1.39,0,0,0,1.13.43,2.49,2.49,0,0,0,1.85-.75l.87,1.33a2.83,2.83,0,0,1-1.18.91A4.11,4.11,0,0,1,482.6,69.16ZM481.21,64h2.21v-.2a2.42,2.42,0,0,0-.25-1.15.88.88,0,0,0-.81-.39.92.92,0,0,0-.84.41A2.79,2.79,0,0,0,481.21,64Z"/>
          <path d="M486.54,64.52a5.48,5.48,0,0,1,.71-3.1,2.33,2.33,0,0,1,2-1,2,2,0,0,1,1.63.85V57h2.23V69h-2l-.1-.86a2,2,0,0,1-1.75,1,2.3,2.3,0,0,1-2-1,5.28,5.28,0,0,1-.72-3Zm2.22.55a4,4,0,0,0,.27,1.75.93.93,0,0,0,.9.5,1.09,1.09,0,0,0,1-.59V62.87a1.05,1.05,0,0,0-1-.62,1,1,0,0,0-.89.49,3.94,3.94,0,0,0-.28,1.75Z"/>
          <path d="M498.57,69V57.63h3.51a4.06,4.06,0,0,1,2.71.79,2.9,2.9,0,0,1,.93,2.33,2.78,2.78,0,0,1-.39,1.49,2.19,2.19,0,0,1-1,.91,2,2,0,0,1,1.18.88,3.06,3.06,0,0,1,.41,1.63,3.23,3.23,0,0,1-.91,2.5,3.77,3.77,0,0,1-2.64.84Zm2.29-6.61h1.2a1.22,1.22,0,0,0,1.35-1.4,1.58,1.58,0,0,0-.31-1.11,1.36,1.36,0,0,0-1-.34h-1.22Zm0,1.67v3h1.47a1.15,1.15,0,0,0,.94-.39,1.64,1.64,0,0,0,.32-1.08c0-1-.37-1.55-1.11-1.57Z"/>
          <path d="M509.94,69h-2.29V57.63h2.29Z"/>
          <path d="M511.87,69V57.63h3a4.16,4.16,0,0,1,3.18,1.26,5,5,0,0,1,1.2,3.47v1.85a5,5,0,0,1-1.18,3.52A4.23,4.23,0,0,1,514.82,69Zm2.3-9.46V67.1h.69a1.9,1.9,0,0,0,1.61-.61,3.56,3.56,0,0,0,.5-2.09v-2a4,4,0,0,0-.45-2.23,1.8,1.8,0,0,0-1.52-.66Z"/>
        </g>
        <g>
          <path d="M418.08,85.28l2-2.41-2-2.46,1.3-1.33,1.92,2.34,1.93-2.34,1.29,1.33-2,2.46,2,2.41-1.3,1.33-1.89-2.3-1.89,2.3Z"/>
          <path d="M433.77,83.81a2.11,2.11,0,0,1-1.54.71,2.34,2.34,0,0,1-2-1,4.65,4.65,0,0,1-.75-2.78,5,5,0,0,1,.42-2.06A3.42,3.42,0,0,1,431,77.19a2.86,2.86,0,0,1,1.68-.52,2.75,2.75,0,0,1,1.71.57,3.71,3.71,0,0,1,1.17,1.64,6.8,6.8,0,0,1,.41,2.43v.8a7.21,7.21,0,0,1-1.28,4.54,4.41,4.41,0,0,1-3.62,1.67h-.22v-1.9H431a2.62,2.62,0,0,0,2-.68A3.12,3.12,0,0,0,433.77,83.81Zm-1-1c.43,0,.76-.29,1-.87v-1a4.14,4.14,0,0,0-.3-1.75c-.21-.43-.47-.64-.79-.64s-.58.21-.77.63a3.54,3.54,0,0,0-.3,1.53,3.3,3.3,0,0,0,.31,1.55A.92.92,0,0,0,432.79,82.79Z"/>
          <path d="M441,83.72a5.49,5.49,0,0,1,.7-3.1,2.34,2.34,0,0,1,2-1,2,2,0,0,1,1.62.85V76.2h2.23v12h-2l-.1-.86a2,2,0,0,1-1.75,1,2.31,2.31,0,0,1-2-1,5.28,5.28,0,0,1-.71-3Zm2.22.55a4,4,0,0,0,.26,1.75,1,1,0,0,0,.9.5,1.07,1.07,0,0,0,1-.59V82.07a1,1,0,0,0-1-.62.93.93,0,0,0-.89.49,3.8,3.8,0,0,0-.28,1.75Z"/>
          <path d="M449,83.7a4.6,4.6,0,0,1,.9-3,3.43,3.43,0,0,1,5,0,4.59,4.59,0,0,1,.91,3v.54a4.58,4.58,0,0,1-.9,3,3.46,3.46,0,0,1-5,0,4.62,4.62,0,0,1-.9-3Zm2.21.56c0,1.51.41,2.26,1.21,2.26s1.15-.63,1.21-1.89V83.7a3.57,3.57,0,0,0-.32-1.71,1,1,0,0,0-.91-.56,1,1,0,0,0-.88.56,3.57,3.57,0,0,0-.32,1.71Z"/>
          <path d="M461,85.94a.69.69,0,0,0-.27-.52,5.2,5.2,0,0,0-1.2-.65,5.08,5.08,0,0,1-1.88-1.14,2.2,2.2,0,0,1-.51-1.48,2.33,2.33,0,0,1,.8-1.83,3,3,0,0,1,2.12-.73,3.3,3.3,0,0,1,2.23.72,2.45,2.45,0,0,1,.83,1.93h-2.21c0-.68-.29-1-.86-1a.83.83,0,0,0-.58.22.82.82,0,0,0-.22.61.64.64,0,0,0,.25.5,5.73,5.73,0,0,0,1.18.61,4.89,4.89,0,0,1,1.91,1.11,2.28,2.28,0,0,1,.55,1.59,2.21,2.21,0,0,1-.85,1.82,3.42,3.42,0,0,1-2.23.69,3.57,3.57,0,0,1-1.64-.36,2.81,2.81,0,0,1-1.12-1,2.7,2.7,0,0,1-.4-1.4H459a1.32,1.32,0,0,0,.27.86,1,1,0,0,0,.84.29C460.66,86.74,461,86.47,461,85.94Z"/>
          <path d="M467.89,88.36a3.44,3.44,0,0,1-2.65-1,4,4,0,0,1-1-2.9v-.67a4.82,4.82,0,0,1,.88-3.09,3,3,0,0,1,2.51-1.09,2.88,2.88,0,0,1,2.4,1,4.92,4.92,0,0,1,.82,3v1.08h-4.4a2.33,2.33,0,0,0,.41,1.38,1.4,1.4,0,0,0,1.13.43,2.53,2.53,0,0,0,1.86-.75l.86,1.33a2.77,2.77,0,0,1-1.18.91A4,4,0,0,1,467.89,88.36Zm-1.39-5.19h2.21V83a2.31,2.31,0,0,0-.25-1.15.85.85,0,0,0-.81-.39.94.94,0,0,0-.84.41A2.91,2.91,0,0,0,466.5,83.17Z"/>
          <path d="M475.88,85.94a.69.69,0,0,0-.27-.52,5.2,5.2,0,0,0-1.2-.65,5.08,5.08,0,0,1-1.88-1.14,2.2,2.2,0,0,1-.51-1.48,2.36,2.36,0,0,1,.8-1.83,3,3,0,0,1,2.12-.73,3.3,3.3,0,0,1,2.23.72,2.45,2.45,0,0,1,.83,1.93h-2.21c0-.68-.28-1-.86-1a.85.85,0,0,0-.58.22.82.82,0,0,0-.22.61.64.64,0,0,0,.25.5,5.73,5.73,0,0,0,1.18.61,4.82,4.82,0,0,1,1.91,1.11,2.29,2.29,0,0,1,.56,1.59,2.22,2.22,0,0,1-.86,1.82,3.42,3.42,0,0,1-2.23.69A3.57,3.57,0,0,1,473.3,88a2.79,2.79,0,0,1-1.11-1,2.62,2.62,0,0,1-.41-1.4h2.11a1.32,1.32,0,0,0,.27.86,1,1,0,0,0,.83.29C475.58,86.74,475.88,86.47,475.88,85.94Z"/>
        </g>
        <path d="M480.7,82.88a3,3,0,0,1-.11-.39,1.09,1.09,0,0,1-.93.48,1.39,1.39,0,0,1-1-.41,1.46,1.46,0,0,1-.41-1.06,1.49,1.49,0,0,1,.5-1.2,2.11,2.11,0,0,1,1.42-.43h.39v-.4a.79.79,0,0,0-.11-.47.43.43,0,0,0-.34-.14q-.48,0-.48.57h-1.29a1.41,1.41,0,0,1,.52-1.13,1.87,1.87,0,0,1,1.29-.44,1.78,1.78,0,0,1,1.26.42,1.59,1.59,0,0,1,.44,1.2V81.8a2.59,2.59,0,0,0,.18,1v.08Zm-.76-.92a.7.7,0,0,0,.37-.09.64.64,0,0,0,.22-.21v-1h-.31a.67.67,0,0,0-.52.21.84.84,0,0,0-.18.56C479.52,81.77,479.66,82,479.94,82Z"/>
        <g>
          <path d="M17.47,42.45H15.14v4H13.82v-10h3.29a3.91,3.91,0,0,1,2.59.77,2.77,2.77,0,0,1,.91,2.23,2.65,2.65,0,0,1-.51,1.62,3,3,0,0,1-1.39,1L21,46.4v.08H19.63Zm-2.33-1.07h2a2.27,2.27,0,0,0,1.56-.51,1.74,1.74,0,0,0,.58-1.36,1.82,1.82,0,0,0-.55-1.41,2.31,2.31,0,0,0-1.59-.5h-2Z"/>
          <path d="M26.81,46.48a3,3,0,0,1-.18-.78,2.79,2.79,0,0,1-2.1.91,2.64,2.64,0,0,1-1.8-.61,2,2,0,0,1-.7-1.57,2.12,2.12,0,0,1,.88-1.8A4.19,4.19,0,0,1,25.38,42h1.23v-.58a1.42,1.42,0,0,0-.39-1,1.58,1.58,0,0,0-1.17-.4,1.92,1.92,0,0,0-1.14.34,1,1,0,0,0-.45.83H22.18a1.78,1.78,0,0,1,.4-1.07,2.73,2.73,0,0,1,1.06-.81,3.47,3.47,0,0,1,1.48-.31,3,3,0,0,1,2,.64,2.34,2.34,0,0,1,.75,1.76v3.41a4.21,4.21,0,0,0,.26,1.62v.11Zm-2.1-1a2.25,2.25,0,0,0,1.13-.3,1.9,1.9,0,0,0,.77-.8V42.89h-1c-1.55,0-2.32.45-2.32,1.36a1.13,1.13,0,0,0,.4.93A1.52,1.52,0,0,0,24.71,45.51Z"/>
          <path d="M31.06,39.08l0,.93a2.69,2.69,0,0,1,2.21-1.07c1.57,0,2.36.89,2.37,2.65v4.89H34.41v-4.9a1.68,1.68,0,0,0-.36-1.18A1.49,1.49,0,0,0,32.93,40a1.82,1.82,0,0,0-1.08.33,2.1,2.1,0,0,0-.72.86v5.27H29.86v-7.4Z"/>
          <path d="M37.28,42.72a4.37,4.37,0,0,1,.8-2.74,2.74,2.74,0,0,1,4.17-.15V36h1.27v10.5H42.36l-.06-.8a2.59,2.59,0,0,1-2.12.93,2.53,2.53,0,0,1-2.09-1,4.39,4.39,0,0,1-.81-2.75Zm1.26.14a3.32,3.32,0,0,0,.52,2,1.7,1.7,0,0,0,1.44.71,1.83,1.83,0,0,0,1.75-1.08v-3.4a1.85,1.85,0,0,0-1.74-1,1.69,1.69,0,0,0-1.45.72A3.62,3.62,0,0,0,38.54,42.86Z"/>
          <path d="M45.15,42.71a4.4,4.4,0,0,1,.42-2,3.17,3.17,0,0,1,2.93-1.82A3.13,3.13,0,0,1,51,40a4,4,0,0,1,.93,2.78v.09a4.49,4.49,0,0,1-.41,1.94,3.16,3.16,0,0,1-1.19,1.34,3.24,3.24,0,0,1-1.76.47,3.09,3.09,0,0,1-2.44-1,4,4,0,0,1-.93-2.77Zm1.27.15a3.19,3.19,0,0,0,.57,2,1.94,1.94,0,0,0,3.06,0,3.47,3.47,0,0,0,.57-2.12,3.18,3.18,0,0,0-.58-2A1.86,1.86,0,0,0,48.5,40a1.83,1.83,0,0,0-1.51.75A3.46,3.46,0,0,0,46.42,42.86Z"/>
          <path d="M54.66,39.08l0,.82a2.72,2.72,0,0,1,2.19-1A2.13,2.13,0,0,1,59,40.13a2.76,2.76,0,0,1,1-.86,2.8,2.8,0,0,1,1.39-.33c1.63,0,2.45.86,2.48,2.58v5H62.56V41.6a1.71,1.71,0,0,0-.36-1.19A1.58,1.58,0,0,0,61,40a1.68,1.68,0,0,0-1.17.42,1.71,1.71,0,0,0-.54,1.13v4.91H58V41.63A1.41,1.41,0,0,0,56.43,40a1.7,1.7,0,0,0-1.71,1.06v5.4H53.46v-7.4Z"/>
          <path d="M65.74,37.12a.77.77,0,0,1,.19-.52.72.72,0,0,1,.56-.21.69.69,0,0,1,.75.73.7.7,0,0,1-.19.51.73.73,0,0,1-.56.21.72.72,0,0,1-.56-.21A.75.75,0,0,1,65.74,37.12Zm1.37,9.36H65.85v-7.4h1.26Z"/>
          <path d="M70.32,45.45h4.33v1H68.78v-.93l4.08-5.42h-4V39.08h5.61V40Z"/>
          <path d="M79,46.61a3.21,3.21,0,0,1-2.44-1A3.68,3.68,0,0,1,75.65,43v-.23a4.41,4.41,0,0,1,.42-2,3.34,3.34,0,0,1,1.18-1.36,3,3,0,0,1,1.64-.49,2.77,2.77,0,0,1,2.24,1,4.15,4.15,0,0,1,.8,2.73v.52h-5a2.64,2.64,0,0,0,.64,1.77,2,2,0,0,0,1.55.67,2.24,2.24,0,0,0,1.14-.27,2.8,2.8,0,0,0,.81-.73l.77.61A3.11,3.11,0,0,1,79,46.61ZM78.89,40a1.71,1.71,0,0,0-1.29.56A2.66,2.66,0,0,0,77,42.1h3.7V42a2.39,2.39,0,0,0-.52-1.5A1.58,1.58,0,0,0,78.89,40Z"/>
        </g>
        <g>
          <path d="M34.79,76.35a10.81,10.81,0,0,1,.41-3,8.73,8.73,0,0,1,1.24-2.59,5.22,5.22,0,0,1,1.7-1.64l.26.84a5.44,5.44,0,0,0-1.64,2.34,10,10,0,0,0-.7,3.52v.58A10.1,10.1,0,0,0,37,81a5.37,5.37,0,0,0,1.38,1.82l-.26.77a5.35,5.35,0,0,1-1.74-1.7A9.53,9.53,0,0,1,34.79,76.35Z" fill="#fff"/>
          <path d="M43.65,80.39H42.38V72l-2.55.93V71.75l3.62-1.37h.2Z" fill="#fff"/>
          <path d="M47.44,79.72a.77.77,0,0,1,.2-.54.72.72,0,0,1,.58-.22.74.74,0,0,1,.59.22.72.72,0,0,1,.2.54.72.72,0,0,1-.2.53.77.77,0,0,1-.59.21.75.75,0,0,1-.58-.21A.76.76,0,0,1,47.44,79.72Zm0-6a.8.8,0,0,1,.19-.55.74.74,0,0,1,.59-.22.76.76,0,0,1,.59.22.81.81,0,0,1,.2.55.73.73,0,0,1-.2.52.79.79,0,0,1-.59.21.77.77,0,0,1-.59-.21A.73.73,0,0,1,47.45,73.69Z" fill="#fff"/>
          <path d="M54.9,80.39H53.63V72l-2.55.93V71.75l3.62-1.37h.2Z" fill="#fff"/>
          <path d="M61.65,76.41a10.52,10.52,0,0,1-.4,2.93A8.49,8.49,0,0,1,60,81.92,5.25,5.25,0,0,1,58.3,83.6L58,82.83a5.58,5.58,0,0,0,1.69-2.51,10.76,10.76,0,0,0,.65-3.77v-.22a11.37,11.37,0,0,0-.3-2.67,8.9,8.9,0,0,0-.84-2.21A5,5,0,0,0,58,69.93l.26-.78A5.29,5.29,0,0,1,60,70.82a8.53,8.53,0,0,1,1.23,2.58A10.84,10.84,0,0,1,61.65,76.41Z" fill="#fff"/>
        </g>
        <g>
          <path d="M356.38,192.57v-10h2.81a4.53,4.53,0,0,1,2.29.58,3.85,3.85,0,0,1,1.54,1.63,5.19,5.19,0,0,1,.55,2.44v.63a5.38,5.38,0,0,1-.54,2.47,3.82,3.82,0,0,1-1.55,1.63,4.92,4.92,0,0,1-2.35.58Zm1.31-8.88v7.8h1.38a3,3,0,0,0,2.36-.94,3.93,3.93,0,0,0,.85-2.69v-.58a4,4,0,0,0-.8-2.64,2.83,2.83,0,0,0-2.26-.95Z"/>
          <path d="M369.92,192.57a2.7,2.7,0,0,1-.17-.78,2.82,2.82,0,0,1-2.11.91,2.55,2.55,0,0,1-1.79-.62,2,2,0,0,1-.7-1.56,2.11,2.11,0,0,1,.87-1.8,4.21,4.21,0,0,1,2.48-.64h1.23v-.58a1.42,1.42,0,0,0-.4-1.05,1.55,1.55,0,0,0-1.17-.4,1.87,1.87,0,0,0-1.13.34,1,1,0,0,0-.46.83H365.3a1.77,1.77,0,0,1,.39-1.07,2.81,2.81,0,0,1,1.07-.82,3.59,3.59,0,0,1,1.48-.3,3,3,0,0,1,2,.64,2.34,2.34,0,0,1,.75,1.76v3.41a4.21,4.21,0,0,0,.26,1.62v.11Zm-2.09-1a2.24,2.24,0,0,0,1.12-.3,1.93,1.93,0,0,0,.78-.8V189h-1c-1.55,0-2.33.45-2.33,1.36a1.14,1.14,0,0,0,.4.93A1.53,1.53,0,0,0,367.83,191.6Z"/>
          <path d="M375.3,190.71l1.72-5.54h1.35l-3,8.54c-.46,1.23-1.19,1.84-2.2,1.84l-.24,0-.47-.08v-1l.34,0a1.73,1.73,0,0,0,1-.26,1.94,1.94,0,0,0,.59-.95l.28-.75-2.64-7.32h1.38Z"/>
          <path d="M387,192.57h-1.27v-8.43l-2.55.94v-1.15l3.62-1.36h.2Z"/>
        </g>
        <g>
          <path d="M3.54,188.13a6.25,6.25,0,0,1-2.46-1.19,2.3,2.3,0,0,1-.77-1.75,2.42,2.42,0,0,1,.94-1.94,3.72,3.72,0,0,1,2.45-.77,4.17,4.17,0,0,1,1.83.39A3,3,0,0,1,6.77,184a2.81,2.81,0,0,1,.44,1.52H5.89a1.82,1.82,0,0,0-.57-1.42,2.3,2.3,0,0,0-1.62-.52,2.39,2.39,0,0,0-1.52.43,1.42,1.42,0,0,0-.54,1.19,1.28,1.28,0,0,0,.52,1,5,5,0,0,0,1.75.77,7.86,7.86,0,0,1,1.94.77,2.82,2.82,0,0,1,1,1A2.45,2.45,0,0,1,7.23,190,2.34,2.34,0,0,1,6.29,192a4.05,4.05,0,0,1-2.52.72,4.71,4.71,0,0,1-1.92-.39,3.19,3.19,0,0,1-1.37-1.08A2.61,2.61,0,0,1,0,189.68H1.32A1.71,1.71,0,0,0,2,191.11a2.77,2.77,0,0,0,1.78.52,2.6,2.6,0,0,0,1.59-.42,1.39,1.39,0,0,0,.55-1.16,1.35,1.35,0,0,0-.51-1.13A5.8,5.8,0,0,0,3.54,188.13Z"/>
          <path d="M11.68,191.67a1.81,1.81,0,0,0,1.19-.41,1.46,1.46,0,0,0,.56-1h1.19a2.3,2.3,0,0,1-.44,1.21,2.81,2.81,0,0,1-1.07.91,3.1,3.1,0,0,1-1.43.34,3,3,0,0,1-2.4-1,4.07,4.07,0,0,1-.89-2.76v-.21a4.59,4.59,0,0,1,.39-1.93,3.08,3.08,0,0,1,1.14-1.3,3.26,3.26,0,0,1,1.76-.47,2.94,2.94,0,0,1,2.06.75,2.64,2.64,0,0,1,.88,1.93H13.43a1.77,1.77,0,0,0-.55-1.18,1.71,1.71,0,0,0-1.2-.46,1.77,1.77,0,0,0-1.5.7,3.26,3.26,0,0,0-.53,2V189a3.19,3.19,0,0,0,.53,2A1.77,1.77,0,0,0,11.68,191.67Z"/>
          <path d="M19.62,186.31a3.05,3.05,0,0,0-.62-.05,1.66,1.66,0,0,0-1.69,1.06v5.25H16v-7.4h1.23l0,.86a2,2,0,0,1,1.77-1,1.37,1.37,0,0,1,.56.1Z"/>
          <path d="M23.72,192.7a3.21,3.21,0,0,1-2.44-1,3.68,3.68,0,0,1-1-2.65v-.23a4.41,4.41,0,0,1,.42-2,3.34,3.34,0,0,1,1.18-1.36,3,3,0,0,1,1.64-.49,2.77,2.77,0,0,1,2.24.95,4.15,4.15,0,0,1,.8,2.73v.52h-5a2.64,2.64,0,0,0,.64,1.77,2,2,0,0,0,1.55.67,2.24,2.24,0,0,0,1.14-.27,2.8,2.8,0,0,0,.81-.73l.77.61A3.11,3.11,0,0,1,23.72,192.7Zm-.15-6.63a1.71,1.71,0,0,0-1.29.56,2.72,2.72,0,0,0-.64,1.56h3.7v-.09a2.38,2.38,0,0,0-.51-1.5A1.6,1.6,0,0,0,23.57,186.07Z"/>
          <path d="M31.14,192.7a3.23,3.23,0,0,1-2.45-1,3.71,3.71,0,0,1-.94-2.65v-.23a4.41,4.41,0,0,1,.42-2,3.26,3.26,0,0,1,1.18-1.36A3,3,0,0,1,31,185a2.79,2.79,0,0,1,2.25.95,4.15,4.15,0,0,1,.8,2.73v.52H29a2.63,2.63,0,0,0,.63,1.77,2,2,0,0,0,1.56.67,2.2,2.2,0,0,0,1.13-.27,2.84,2.84,0,0,0,.82-.73l.77.61A3.11,3.11,0,0,1,31.14,192.7ZM31,186.07a1.69,1.69,0,0,0-1.28.56,2.66,2.66,0,0,0-.64,1.56h3.7v-.09a2.39,2.39,0,0,0-.52-1.5A1.6,1.6,0,0,0,31,186.07Z"/>
          <path d="M36.69,185.17l0,.93A2.69,2.69,0,0,1,38.94,185c1.56,0,2.35.89,2.37,2.65v4.89H40v-4.9a1.68,1.68,0,0,0-.36-1.18,1.5,1.5,0,0,0-1.12-.38,1.82,1.82,0,0,0-1.08.33,2.2,2.2,0,0,0-.73.86v5.27H35.49v-7.4Z"/>
          <path d="M43.22,183.21a.73.73,0,0,1,.19-.52.7.7,0,0,1,.56-.21.73.73,0,0,1,.56.21.79.79,0,0,1,0,1,.73.73,0,0,1-.56.21.7.7,0,0,1-.56-.21A.72.72,0,0,1,43.22,183.21Zm1.37,9.36H43.32v-7.4h1.27Z"/>
          <path d="M47.81,185.17l0,.93A2.69,2.69,0,0,1,50.06,185c1.57,0,2.36.89,2.37,2.65v4.89H51.16v-4.9a1.68,1.68,0,0,0-.36-1.18,1.49,1.49,0,0,0-1.12-.38,1.82,1.82,0,0,0-1.08.33,2.1,2.1,0,0,0-.72.86v5.27H46.61v-7.4Z"/>
          <path d="M54,188.81a4.34,4.34,0,0,1,.79-2.75A2.58,2.58,0,0,1,57,185a2.55,2.55,0,0,1,2.12,1l.06-.82h1.15v7.22a3,3,0,0,1-.85,2.26,3.15,3.15,0,0,1-2.28.83,3.76,3.76,0,0,1-1.57-.34,2.7,2.7,0,0,1-1.17-.94l.66-.76a2.47,2.47,0,0,0,2,1,2,2,0,0,0,1.44-.52,2,2,0,0,0,.51-1.47v-.63a2.59,2.59,0,0,1-2.07.87,2.5,2.5,0,0,1-2.1-1A4.55,4.55,0,0,1,54,188.81Zm1.27.14a3.34,3.34,0,0,0,.51,2,1.67,1.67,0,0,0,1.43.71A1.85,1.85,0,0,0,59,190.54v-3.37a1.87,1.87,0,0,0-1.74-1.06,1.66,1.66,0,0,0-1.44.72A3.54,3.54,0,0,0,55.31,189Z"/>
        </g>
        <g>
          <path d="M350.89,233v-8.53h2.41a3.87,3.87,0,0,1,2,.49,3.37,3.37,0,0,1,1.32,1.4,4.53,4.53,0,0,1,.47,2.09V229a4.48,4.48,0,0,1-.47,2.12,3.25,3.25,0,0,1-1.33,1.39,4,4,0,0,1-2,.5Zm1.13-7.61v6.69h1.18a2.56,2.56,0,0,0,2-.81A3.31,3.31,0,0,0,356,229v-.5a3.36,3.36,0,0,0-.69-2.26,2.42,2.42,0,0,0-1.93-.82Z"/>
          <path d="M362.5,233a2.49,2.49,0,0,1-.15-.67,2.42,2.42,0,0,1-1.8.79,2.25,2.25,0,0,1-1.54-.53,1.74,1.74,0,0,1-.6-1.35,1.8,1.8,0,0,1,.75-1.54,3.59,3.59,0,0,1,2.12-.54h1.05v-.5a1.22,1.22,0,0,0-.34-.91,1.37,1.37,0,0,0-1-.33,1.55,1.55,0,0,0-1,.29.86.86,0,0,0-.39.71h-1.09a1.53,1.53,0,0,1,.33-.92,2.35,2.35,0,0,1,.92-.7,3.1,3.1,0,0,1,1.27-.26,2.51,2.51,0,0,1,1.71.55,2,2,0,0,1,.65,1.51v2.92a3.58,3.58,0,0,0,.22,1.39V233Zm-1.79-.83a1.85,1.85,0,0,0,1-.26,1.51,1.51,0,0,0,.66-.69v-1.3h-.85c-1.32,0-2,.39-2,1.17a1,1,0,0,0,.34.8A1.33,1.33,0,0,0,360.71,232.15Z"/>
          <path d="M367.11,231.39l1.47-4.75h1.16L367.2,234c-.4,1-1,1.58-1.89,1.58l-.2,0-.4-.07v-.88l.29,0a1.44,1.44,0,0,0,.86-.22,1.62,1.62,0,0,0,.5-.82l.24-.64-2.26-6.27h1.19Z"/>
          <path d="M377.13,233H376v-7.23l-2.18.81v-1l3.1-1.16h.17Z"/>
          <path d="M383.1,229.75a3.76,3.76,0,0,1,.37-1.67,2.66,2.66,0,0,1,1-1.15,2.75,2.75,0,0,1,1.49-.41,2.69,2.69,0,0,1,2.1.9,3.46,3.46,0,0,1,.8,2.38v.08a3.71,3.71,0,0,1-.36,1.66,2.76,2.76,0,0,1-1,1.15,2.86,2.86,0,0,1-1.52.41,2.67,2.67,0,0,1-2.09-.9,3.45,3.45,0,0,1-.8-2.37Zm1.09.13a2.74,2.74,0,0,0,.49,1.69,1.57,1.57,0,0,0,1.31.64,1.53,1.53,0,0,0,1.31-.65,2.91,2.91,0,0,0,.49-1.81,2.71,2.71,0,0,0-.49-1.69,1.58,1.58,0,0,0-1.32-.65,1.56,1.56,0,0,0-1.29.64A3,3,0,0,0,384.19,229.88Z"/>
          <path d="M390.77,233v-5.5h-1v-.84h1V226a2.18,2.18,0,0,1,.54-1.58,2.07,2.07,0,0,1,1.54-.55,2.76,2.76,0,0,1,.75.1l-.06.87a2.76,2.76,0,0,0-.59-.05,1.06,1.06,0,0,0-.81.3,1.29,1.29,0,0,0-.29.89v.67h1.36v.84h-1.36V233Z"/>
        </g>
        <g>
          <path d="M347.74,239.5V241h1.18v.84h-1.18v3.93a.87.87,0,0,0,.16.58.68.68,0,0,0,.54.19,3.32,3.32,0,0,0,.51-.07v.87a3,3,0,0,1-.83.12,1.38,1.38,0,0,1-1.1-.44,1.94,1.94,0,0,1-.36-1.25v-3.93H345.5V241h1.16V239.5Z"/>
          <path d="M353.25,242a4.24,4.24,0,0,0-.53,0,1.43,1.43,0,0,0-1.45.91v4.5h-1.08V241h1.05l0,.73a1.71,1.71,0,0,1,1.51-.85,1.19,1.19,0,0,1,.48.08Z"/>
          <path d="M356.77,247.5a2.79,2.79,0,0,1-2.1-.85,3.17,3.17,0,0,1-.8-2.26v-.2a3.85,3.85,0,0,1,.36-1.69,2.83,2.83,0,0,1,1-1.16,2.56,2.56,0,0,1,1.41-.42,2.36,2.36,0,0,1,1.92.82,3.5,3.5,0,0,1,.68,2.33v.45H355a2.29,2.29,0,0,0,.55,1.52,1.72,1.72,0,0,0,1.33.57,1.93,1.93,0,0,0,1-.23,2.58,2.58,0,0,0,.7-.62l.66.51A2.66,2.66,0,0,1,356.77,247.5Zm-.13-5.69a1.43,1.43,0,0,0-1.1.48,2.39,2.39,0,0,0-.56,1.34h3.18v-.08a2.08,2.08,0,0,0-.44-1.28A1.36,1.36,0,0,0,356.64,241.81Z"/>
          <path d="M364.41,247.38a2.49,2.49,0,0,1-.15-.67,2.4,2.4,0,0,1-1.8.79,2.25,2.25,0,0,1-1.54-.53,1.73,1.73,0,0,1-.6-1.35,1.8,1.8,0,0,1,.75-1.54,3.59,3.59,0,0,1,2.12-.54h1.05V243a1.22,1.22,0,0,0-.34-.91,1.37,1.37,0,0,0-1-.33,1.53,1.53,0,0,0-1,.29.86.86,0,0,0-.39.71h-1.09a1.53,1.53,0,0,1,.33-.92,2.35,2.35,0,0,1,.92-.7,3.07,3.07,0,0,1,1.27-.26,2.51,2.51,0,0,1,1.71.55,2,2,0,0,1,.65,1.51v2.92a3.58,3.58,0,0,0,.22,1.39v.09Zm-1.8-.83a1.86,1.86,0,0,0,1-.26,1.51,1.51,0,0,0,.66-.69v-1.3h-.85c-1.33,0-2,.39-2,1.17a1,1,0,0,0,.34.8A1.32,1.32,0,0,0,362.61,246.55Z"/>
          <path d="M368.5,239.5V241h1.18v.84H368.5v3.93a.94.94,0,0,0,.15.58.7.7,0,0,0,.54.19,3.27,3.27,0,0,0,.52-.07v.87a3.08,3.08,0,0,1-.83.12,1.37,1.37,0,0,1-1.1-.44,1.94,1.94,0,0,1-.37-1.25v-3.93h-1.15V241h1.15V239.5Z"/>
          <path d="M372,241l0,.7a2.39,2.39,0,0,1,1.89-.82,1.82,1.82,0,0,1,1.81,1,2.44,2.44,0,0,1,.82-.74,2.53,2.53,0,0,1,1.2-.28c1.39,0,2.1.74,2.12,2.21v4.25h-1.09V243.2a1.43,1.43,0,0,0-.31-1,1.37,1.37,0,0,0-1-.34,1.4,1.4,0,0,0-1.46,1.33v4.21h-1.09v-4.15a1.21,1.21,0,0,0-1.36-1.39,1.47,1.47,0,0,0-1.46.91v4.63h-1.08V241Z"/>
          <path d="M384.09,247.5a2.77,2.77,0,0,1-2.09-.85,3.13,3.13,0,0,1-.81-2.26v-.2a3.85,3.85,0,0,1,.36-1.69,2.78,2.78,0,0,1,1-1.16,2.52,2.52,0,0,1,1.4-.42,2.36,2.36,0,0,1,1.92.82,3.5,3.5,0,0,1,.69,2.33v.45h-4.3a2.29,2.29,0,0,0,.55,1.52,1.72,1.72,0,0,0,1.33.57,2,2,0,0,0,1-.23,2.7,2.7,0,0,0,.69-.62l.66.51A2.65,2.65,0,0,1,384.09,247.5Zm-.13-5.69a1.43,1.43,0,0,0-1.1.48,2.32,2.32,0,0,0-.55,1.34h3.17v-.08a2.08,2.08,0,0,0-.44-1.28A1.36,1.36,0,0,0,384,241.81Z"/>
          <path d="M388.85,241l0,.8a2.33,2.33,0,0,1,1.9-.92c1.34,0,2,.76,2,2.27v4.19h-1.09v-4.2a1.47,1.47,0,0,0-.31-1,1.25,1.25,0,0,0-1-.33,1.59,1.59,0,0,0-.92.28,2,2,0,0,0-.63.74v4.52h-1.08V241Z"/>
          <path d="M395.91,239.5V241h1.19v.84h-1.19v3.93a.93.93,0,0,0,.16.58.7.7,0,0,0,.54.19,3.42,3.42,0,0,0,.52-.07v.87a3.15,3.15,0,0,1-.84.12,1.34,1.34,0,0,1-1.09-.44,1.88,1.88,0,0,1-.37-1.25v-3.93h-1.16V241h1.16V239.5Z"/>
        </g>
        <g>
          <path d="M525.36,229h-3.7v3H526V233h-5.42v-8.53h5.37v.92h-4.24v2.75h3.7Z"/>
          <path d="M528.21,226.64l0,.8a2.29,2.29,0,0,1,1.89-.92c1.34,0,2,.76,2,2.27V233h-1.08v-4.2a1.47,1.47,0,0,0-.32-1,1.23,1.23,0,0,0-.95-.33,1.62,1.62,0,0,0-.93.28,1.94,1.94,0,0,0-.62.74V233h-1.08v-6.34Z"/>
          <path d="M533.54,229.76a3.71,3.71,0,0,1,.69-2.35,2.2,2.2,0,0,1,1.81-.89,2.23,2.23,0,0,1,1.77.76V224h1.08v9h-1l-.06-.68a2.2,2.2,0,0,1-1.81.8,2.14,2.14,0,0,1-1.79-.91,3.69,3.69,0,0,1-.7-2.35Zm1.09.12a2.8,2.8,0,0,0,.44,1.69,1.46,1.46,0,0,0,1.23.61,1.59,1.59,0,0,0,1.51-.93v-2.91a1.6,1.6,0,0,0-1.5-.9,1.45,1.45,0,0,0-1.24.62A3.08,3.08,0,0,0,534.63,229.88Z"/>
          <path d="M543.26,229.75a3.76,3.76,0,0,1,.36-1.67,2.71,2.71,0,0,1,2.51-1.56,2.67,2.67,0,0,1,2.1.9,3.46,3.46,0,0,1,.8,2.38v.08a3.71,3.71,0,0,1-.36,1.66,2.69,2.69,0,0,1-1,1.15,2.82,2.82,0,0,1-1.51.41,2.66,2.66,0,0,1-2.09-.9,3.4,3.4,0,0,1-.8-2.37Zm1.09.13a2.67,2.67,0,0,0,.49,1.69,1.65,1.65,0,0,0,2.62,0,3,3,0,0,0,.48-1.81,2.71,2.71,0,0,0-.49-1.69,1.64,1.64,0,0,0-2.61,0A3,3,0,0,0,544.35,229.88Z"/>
          <path d="M550.92,233v-5.5h-1v-.84h1V226a2.14,2.14,0,0,1,.55-1.58,2,2,0,0,1,1.54-.55,2.64,2.64,0,0,1,.74.1l-.06.87a2.72,2.72,0,0,0-.58-.05,1.09,1.09,0,0,0-.82.3,1.28,1.28,0,0,0-.28.89v.67h1.35v.84H552V233Z"/>
        </g>
        <g>
          <path d="M526.3,245.7A.8.8,0,0,0,526,245a3,3,0,0,0-1.16-.42,5.32,5.32,0,0,1-1.3-.43,1.86,1.86,0,0,1-.72-.58,1.45,1.45,0,0,1-.23-.81,1.65,1.65,0,0,1,.66-1.32,2.58,2.58,0,0,1,1.69-.54,2.63,2.63,0,0,1,1.74.56,1.77,1.77,0,0,1,.68,1.42h-1.09a1,1,0,0,0-.38-.76,1.39,1.39,0,0,0-1-.33,1.49,1.49,0,0,0-.93.26.82.82,0,0,0-.33.68.66.66,0,0,0,.31.59,3.79,3.79,0,0,0,1.12.38,5.57,5.57,0,0,1,1.31.43,1.88,1.88,0,0,1,.75.61,1.48,1.48,0,0,1,.24.86,1.59,1.59,0,0,1-.68,1.36,2.79,2.79,0,0,1-1.76.52,3.19,3.19,0,0,1-1.35-.27,2.13,2.13,0,0,1-.91-.76,1.81,1.81,0,0,1-.33-1h1.08a1.09,1.09,0,0,0,.44.86,1.64,1.64,0,0,0,1.07.32,1.73,1.73,0,0,0,1-.25A.74.74,0,0,0,526.3,245.7Z"/>
          <path d="M530.27,239.5V241h1.18v.84h-1.18v3.93a.87.87,0,0,0,.16.58.67.67,0,0,0,.53.19,3.27,3.27,0,0,0,.52-.07v.87a3.08,3.08,0,0,1-.83.12,1.37,1.37,0,0,1-1.1-.44,1.94,1.94,0,0,1-.37-1.25v-3.93H528V241h1.15V239.5Z"/>
          <path d="M536.63,246.75a2.29,2.29,0,0,1-1.86.75,2,2,0,0,1-1.54-.59,2.6,2.6,0,0,1-.54-1.74V241h1.09v4.1q0,1.44,1.17,1.44a1.61,1.61,0,0,0,1.65-.93V241h1.09v6.34h-1Z"/>
          <path d="M539.07,244.16a3.71,3.71,0,0,1,.69-2.35,2.19,2.19,0,0,1,1.81-.89,2.21,2.21,0,0,1,1.76.76v-3.3h1.09v9h-1l0-.68a2.21,2.21,0,0,1-1.81.8,2.16,2.16,0,0,1-1.8-.91,3.75,3.75,0,0,1-.69-2.35Zm1.08.12a2.8,2.8,0,0,0,.45,1.69,1.44,1.44,0,0,0,1.23.61,1.56,1.56,0,0,0,1.5-.93v-2.91a1.58,1.58,0,0,0-1.49-.9,1.44,1.44,0,0,0-1.24.62A3.07,3.07,0,0,0,540.15,244.28Z"/>
          <path d="M548.17,245.79l1.48-4.75h1.16l-2.55,7.32c-.39,1-1,1.58-1.88,1.58l-.2,0-.41-.07V249l.29,0a1.42,1.42,0,0,0,.86-.22,1.57,1.57,0,0,0,.51-.82l.24-.64L545.41,241h1.18Z"/>
        </g>
        <g>
          <path d="M518.09,192.57v-9.95h2.81a4.56,4.56,0,0,1,2.3.57,3.88,3.88,0,0,1,1.54,1.64,5.24,5.24,0,0,1,.55,2.43v.63a5.35,5.35,0,0,1-.54,2.47A3.82,3.82,0,0,1,523.2,192a4.84,4.84,0,0,1-2.35.58Zm1.32-8.88v7.81h1.38a3,3,0,0,0,2.36-.95,3.91,3.91,0,0,0,.84-2.69v-.58a4,4,0,0,0-.79-2.64,2.86,2.86,0,0,0-2.26-.95Z"/>
          <path d="M531.64,192.57a2.89,2.89,0,0,1-.18-.78,2.81,2.81,0,0,1-2.1.92,2.64,2.64,0,0,1-1.8-.62,2,2,0,0,1-.7-1.57,2.12,2.12,0,0,1,.88-1.8,4.2,4.2,0,0,1,2.47-.63h1.23v-.59a1.42,1.42,0,0,0-.39-1.05,1.62,1.62,0,0,0-1.17-.39,1.86,1.86,0,0,0-1.14.34,1,1,0,0,0-.45.82H527a1.74,1.74,0,0,1,.4-1.07,2.66,2.66,0,0,1,1.06-.81A3.63,3.63,0,0,1,530,185a2.92,2.92,0,0,1,2,.64,2.31,2.31,0,0,1,.75,1.76v3.4a4,4,0,0,0,.26,1.62v.11Zm-2.1-1a2.26,2.26,0,0,0,1.13-.31,1.85,1.85,0,0,0,.77-.8V189h-1c-1.55,0-2.32.45-2.32,1.36a1.15,1.15,0,0,0,.39.93A1.51,1.51,0,0,0,529.54,191.61Z"/>
          <path d="M537,190.72l1.72-5.55h1.36l-3,8.54c-.46,1.23-1.19,1.85-2.19,1.85l-.24,0-.47-.09v-1l.34,0a1.7,1.7,0,0,0,1-.26,1.83,1.83,0,0,0,.59-.95l.28-.75-2.63-7.32h1.38Z"/>
          <path d="M545.13,187.58l.51-5h5.1v1.17h-4l-.3,2.71a3.19,3.19,0,0,1,1.66-.43,2.74,2.74,0,0,1,2.16.9,3.49,3.49,0,0,1,.8,2.43,3.37,3.37,0,0,1-.83,2.42,3,3,0,0,1-2.32.89,3.16,3.16,0,0,1-2.15-.73,2.94,2.94,0,0,1-1-2H546a2,2,0,0,0,.61,1.29,1.89,1.89,0,0,0,1.3.43,1.72,1.72,0,0,0,1.39-.6,2.53,2.53,0,0,0,.5-1.66,2.27,2.27,0,0,0-.55-1.6,1.85,1.85,0,0,0-1.44-.61,2.09,2.09,0,0,0-1.3.37l-.33.27Z"/>
        </g>
        <g>
          <path d="M123.35,78.08a4.51,4.51,0,0,1-1.16,3.13,4.09,4.09,0,0,1-3,1.07A3.79,3.79,0,0,1,116,80.93a6,6,0,0,1-1.09-3.85v-2a5.84,5.84,0,0,1,1.12-3.84A4.47,4.47,0,0,1,122.2,71a5,5,0,0,1,1.17,3.17h-2.45a3.23,3.23,0,0,0-.39-1.76,1.58,1.58,0,0,0-1.33-.49,1.47,1.47,0,0,0-1.38.69,4.72,4.72,0,0,0-.44,2.25V77.1a5.24,5.24,0,0,0,.41,2.48,1.48,1.48,0,0,0,1.38.67,1.62,1.62,0,0,0,1.33-.47,3.1,3.1,0,0,0,.41-1.7Z"/>
          <path d="M124.46,77.33a4.92,4.92,0,0,1,1-3.21,3.65,3.65,0,0,1,5.34,0,4.88,4.88,0,0,1,1,3.23v.57a4.85,4.85,0,0,1-1,3.2,3.27,3.27,0,0,1-2.67,1.16,3.31,3.31,0,0,1-2.69-1.16,4.91,4.91,0,0,1-1-3.22Zm2.36.59c0,1.6.43,2.41,1.29,2.41s1.22-.67,1.28-2v-1a3.84,3.84,0,0,0-.34-1.82,1.07,1.07,0,0,0-1-.6,1,1,0,0,0-.93.6,3.72,3.72,0,0,0-.34,1.82Z"/>
          <path d="M135.49,73.92a2.31,2.31,0,0,1,1.87-1,2.17,2.17,0,0,1,1.87.87,4.32,4.32,0,0,1,.65,2.57v5.71h-2.36V76.42a2.1,2.1,0,0,0-.24-1.14.92.92,0,0,0-.8-.35,1.12,1.12,0,0,0-1,.59v6.59h-2.35V69.36h2.35Z"/>
          <path d="M141.29,77.33a4.92,4.92,0,0,1,1-3.21,3.66,3.66,0,0,1,5.35,0,4.94,4.94,0,0,1,1,3.23v.57a4.9,4.9,0,0,1-.95,3.2,3.68,3.68,0,0,1-5.36,0,4.91,4.91,0,0,1-1-3.22Zm2.36.59c0,1.6.43,2.41,1.28,2.41s1.22-.67,1.28-2v-1a3.72,3.72,0,0,0-.34-1.82,1.06,1.06,0,0,0-1-.6,1,1,0,0,0-.94.6,3.85,3.85,0,0,0-.33,1.82Z"/>
          <path d="M154.46,75.4l-.78-.07a1.29,1.29,0,0,0-1.31.84v5.94H150v-9h2.22l.07,1a1.67,1.67,0,0,1,2.18-1Z"/>
          <path d="M158.53,70.92v2.21h1.2v1.76h-1.2v4.46a1.27,1.27,0,0,0,.14.73.65.65,0,0,0,.56.2,2.83,2.83,0,0,0,.56,0l0,1.82a3.65,3.65,0,0,1-1.29.23c-1.52,0-2.29-.87-2.3-2.61V74.89h-1V73.13h1V70.92Z"/>
          <path d="M172,82.11h-7.12V80.45l3.27-4.16a9.71,9.71,0,0,0,.92-1.51,3.14,3.14,0,0,0,.29-1.25,2.35,2.35,0,0,0-.28-1.26.87.87,0,0,0-.8-.46,1,1,0,0,0-.91.53,2.81,2.81,0,0,0-.33,1.49h-2.36a4.45,4.45,0,0,1,.46-2,3.51,3.51,0,0,1,1.29-1.43,3.57,3.57,0,0,1,1.89-.51,3.11,3.11,0,0,1,3.41,3.43,4.84,4.84,0,0,1-.5,2.07,12.4,12.4,0,0,1-1.79,2.58l-1.55,2.22H172Z"/>
          <path d="M173.74,74.12a1.23,1.23,0,0,1,.38-.92,1.33,1.33,0,0,1,1-.37,1.38,1.38,0,0,1,1,.36,1.32,1.32,0,0,1,0,1.87,1.43,1.43,0,0,1-1,.35,1.37,1.37,0,0,1-1-.36A1.18,1.18,0,0,1,173.74,74.12Zm0,6.8a1.24,1.24,0,0,1,.38-.93,1.33,1.33,0,0,1,1-.37,1.38,1.38,0,0,1,1,.36,1.32,1.32,0,0,1,0,1.87,1.43,1.43,0,0,1-1,.35,1.37,1.37,0,0,1-1-.36A1.17,1.17,0,0,1,173.74,80.92Z"/>
          <path d="M187.65,69.9v2h-.13a2.84,2.84,0,0,0-2.09.79,3.64,3.64,0,0,0-1,2.2,2.52,2.52,0,0,1,4,.26,5.12,5.12,0,0,1,.79,3,5,5,0,0,1-.45,2.14,3.52,3.52,0,0,1-1.26,1.48,3.3,3.3,0,0,1-1.83.53A3.15,3.15,0,0,1,183.08,81a5.81,5.81,0,0,1-1-3.56v-.87a9,9,0,0,1,.63-3.5,5.1,5.1,0,0,1,1.81-2.31,4.85,4.85,0,0,1,2.76-.82Zm-2,6a1.09,1.09,0,0,0-.75.28,1.75,1.75,0,0,0-.46.7v.85a4.26,4.26,0,0,0,.34,1.91,1,1,0,0,0,.9.64,1,1,0,0,0,.9-.62,3.67,3.67,0,0,0,0-3.15A1.05,1.05,0,0,0,185.64,76Z"/>
          <path d="M197.37,70.92v2.21h1.2v1.76h-1.2v4.46a1.27,1.27,0,0,0,.14.73.64.64,0,0,0,.56.2,2.83,2.83,0,0,0,.56,0l0,1.82a3.65,3.65,0,0,1-1.29.23c-1.52,0-2.29-.87-2.3-2.61V74.89h-1V73.13h1V70.92Z"/>
          <path d="M199.58,77.33a4.92,4.92,0,0,1,1-3.21,3.66,3.66,0,0,1,5.35,0,4.94,4.94,0,0,1,1,3.23v.57a4.85,4.85,0,0,1-.95,3.2,3.68,3.68,0,0,1-5.36,0,4.91,4.91,0,0,1-1-3.22Zm2.36.59c0,1.6.43,2.41,1.29,2.41s1.21-.67,1.27-2v-1a3.72,3.72,0,0,0-.34-1.82,1.05,1.05,0,0,0-1-.6,1,1,0,0,0-.93.6,3.72,3.72,0,0,0-.34,1.82Z"/>
          <path d="M214.17,77l3.76,1.65V81l-6.05-3V76l6.05-3V75.3Z"/>
          <path d="M224.93,82.11h-2.35V72.88l-2.3.89v-2l4.4-1.8h.25Z"/>
          <path d="M235.48,82.11h-7.12V80.45l3.27-4.16a9,9,0,0,0,.92-1.51,3,3,0,0,0,.29-1.25,2.46,2.46,0,0,0-.27-1.26.9.9,0,0,0-.81-.46,1,1,0,0,0-.9.53,2.72,2.72,0,0,0-.34,1.49h-2.36a4.58,4.58,0,0,1,.46-2,3.46,3.46,0,0,1,1.3-1.43,3.52,3.52,0,0,1,1.89-.51,3.1,3.1,0,0,1,3.4,3.43,4.84,4.84,0,0,1-.5,2.07,12.28,12.28,0,0,1-1.78,2.58l-1.56,2.22h4.11Z"/>
          <path d="M243.83,78.2,245,73.13h2.51l-3,10.33c-.44,1.52-1.27,2.28-2.5,2.28a3.31,3.31,0,0,1-1-.16V83.75h.27a1.35,1.35,0,0,0,.83-.21,1.26,1.26,0,0,0,.42-.73l.18-.61-2.59-9.07h2.53Z"/>
          <path d="M252.06,82.28a3.7,3.7,0,0,1-2.83-1.08,4.37,4.37,0,0,1-1-3.09V77.4a5.1,5.1,0,0,1,.93-3.28A3.23,3.23,0,0,1,251.82,73,3,3,0,0,1,254.36,74a5.18,5.18,0,0,1,.88,3.21V78.4h-4.68a2.48,2.48,0,0,0,.44,1.46,1.49,1.49,0,0,0,1.21.47,2.62,2.62,0,0,0,2-.81l.93,1.42a3.08,3.08,0,0,1-1.26,1A4.4,4.4,0,0,1,252.06,82.28Zm-1.48-5.52h2.35v-.21a2.45,2.45,0,0,0-.27-1.22.91.91,0,0,0-.86-.42,1,1,0,0,0-.89.44A3,3,0,0,0,250.58,76.76Z"/>
          <path d="M260.83,82.11a3.28,3.28,0,0,1-.2-.7,2,2,0,0,1-1.71.87,2.53,2.53,0,0,1-1.87-.75,2.61,2.61,0,0,1-.74-1.94,2.72,2.72,0,0,1,.9-2.18,3.94,3.94,0,0,1,2.59-.79h.72V75.9a1.32,1.32,0,0,0-.21-.85.74.74,0,0,0-.61-.25c-.58,0-.88.34-.88,1h-2.35a2.59,2.59,0,0,1,.94-2.06,3.47,3.47,0,0,1,2.36-.81,3.22,3.22,0,0,1,2.29.77,2.87,2.87,0,0,1,.8,2.2v4.22A4.57,4.57,0,0,0,263.2,82v.14Zm-1.39-1.68a1.36,1.36,0,0,0,.67-.15,1.16,1.16,0,0,0,.41-.38V78H260a1.19,1.19,0,0,0-.94.39,1.45,1.45,0,0,0-.35,1Q258.66,80.43,259.44,80.43Z"/>
          <path d="M269,75.4l-.78-.07a1.27,1.27,0,0,0-1.3.84v5.94h-2.36v-9h2.21l.07,1A1.7,1.7,0,0,1,268.38,73a1.64,1.64,0,0,1,.64.11Z"/>
          <path d="M274.18,79.7a.74.74,0,0,0-.29-.55,5.24,5.24,0,0,0-1.27-.68,5.39,5.39,0,0,1-2-1.22,2.34,2.34,0,0,1-.54-1.57,2.5,2.5,0,0,1,.85-2,3.25,3.25,0,0,1,2.25-.77,3.5,3.5,0,0,1,2.37.77,2.57,2.57,0,0,1,.89,2h-2.35c0-.73-.31-1.1-.92-1.1a.81.81,0,0,0-.85.88.7.7,0,0,0,.26.53,6,6,0,0,0,1.26.65,5.2,5.2,0,0,1,2,1.18,2.45,2.45,0,0,1,.59,1.69,2.39,2.39,0,0,1-.9,1.94,4.17,4.17,0,0,1-4.12.34,3,3,0,0,1-1.18-1.07,2.75,2.75,0,0,1-.43-1.49h2.23a1.4,1.4,0,0,0,.29.92,1.1,1.1,0,0,0,.88.31C273.86,80.56,274.18,80.27,274.18,79.7Z"/>
          <path d="M282,77.2a14.43,14.43,0,0,1,.44-3.57,10.28,10.28,0,0,1,1.3-3.06,5.25,5.25,0,0,1,1.86-1.87L286,70a6.05,6.05,0,0,0-1.49,2.7,14.83,14.83,0,0,0-.57,4.21v.5a16,16,0,0,0,.54,4.38A6.17,6.17,0,0,0,286,84.61l-.44,1.28a5.19,5.19,0,0,1-1.84-1.84,9.92,9.92,0,0,1-1.3-3,14.08,14.08,0,0,1-.46-3.51Z"/>
          <path d="M289.49,73.13l.06.89A2.49,2.49,0,0,1,291.64,73C293.18,73,294,74,294,76.21v5.9h-2.36V76.38a2.09,2.09,0,0,0-.23-1.11.88.88,0,0,0-.8-.34,1.1,1.1,0,0,0-1,.66v6.52h-2.35v-9Z"/>
          <path d="M306.19,75.93h-6.33V74h6.33Zm0,3.6h-6.33v-2h6.33Z"/>
          <path d="M316.58,77.44a2.25,2.25,0,0,1-1.64.76,2.54,2.54,0,0,1-2.17-1.11,5,5,0,0,1-.79-3,5.22,5.22,0,0,1,.45-2.18,3.56,3.56,0,0,1,1.25-1.54,3.06,3.06,0,0,1,1.79-.55,2.92,2.92,0,0,1,1.81.6,3.86,3.86,0,0,1,1.24,1.74,7.19,7.19,0,0,1,.44,2.58v.86a7.63,7.63,0,0,1-1.36,4.82,4.69,4.69,0,0,1-3.84,1.78h-.24v-2h.15a2.86,2.86,0,0,0,2.08-.71A3.39,3.39,0,0,0,316.58,77.44Zm-1-1.08c.46,0,.81-.31,1.07-.93V74.35a4.47,4.47,0,0,0-.32-1.86c-.22-.46-.5-.68-.84-.68s-.61.22-.82.67a3.79,3.79,0,0,0-.31,1.63,3.47,3.47,0,0,0,.33,1.65A1,1,0,0,0,315.54,76.36Z"/>
          <path d="M324.45,77.4a13.26,13.26,0,0,1-.5,3.66,10.52,10.52,0,0,1-1.37,3,5.13,5.13,0,0,1-1.85,1.8l-.43-1.28a6.13,6.13,0,0,0,1.49-2.77,15.12,15.12,0,0,0,.57-4.22v-.44a15.46,15.46,0,0,0-.55-4.32A6.52,6.52,0,0,0,320.3,70l.43-1.28A4.73,4.73,0,0,1,322,69.78a8.61,8.61,0,0,1,1.2,1.87,12.23,12.23,0,0,1,.88,2.5A14.2,14.2,0,0,1,324.45,77.4Z"/>
        </g>
        <g>
          <path d="M123.35,148.79a4.53,4.53,0,0,1-1.16,3.13,4.13,4.13,0,0,1-3,1.06,3.79,3.79,0,0,1-3.14-1.35,6,6,0,0,1-1.09-3.85v-2a5.84,5.84,0,0,1,1.12-3.84,4.46,4.46,0,0,1,6.14-.24,5,5,0,0,1,1.17,3.17h-2.45a3.27,3.27,0,0,0-.39-1.77,1.58,1.58,0,0,0-1.33-.48,1.48,1.48,0,0,0-1.38.68,4.73,4.73,0,0,0-.44,2.26v2.28a5.22,5.22,0,0,0,.41,2.47,1.48,1.48,0,0,0,1.38.67,1.62,1.62,0,0,0,1.33-.46,3.13,3.13,0,0,0,.41-1.7Z"/>
          <path d="M124.46,148a4.87,4.87,0,0,1,1-3.2,3.65,3.65,0,0,1,5.34,0,4.86,4.86,0,0,1,1,3.22v.57a4.88,4.88,0,0,1-1,3.21,3.69,3.69,0,0,1-5.36,0,4.89,4.89,0,0,1-1-3.22Zm2.36.59c0,1.61.43,2.41,1.29,2.41s1.22-.67,1.28-2v-1a3.86,3.86,0,0,0-.34-1.82,1.06,1.06,0,0,0-1-.59,1,1,0,0,0-.93.59,3.74,3.74,0,0,0-.34,1.82Z"/>
          <path d="M135.49,144.62a2.3,2.3,0,0,1,1.87-1,2.16,2.16,0,0,1,1.87.86,4.32,4.32,0,0,1,.65,2.57v5.71h-2.36v-5.68a2.06,2.06,0,0,0-.24-1.14.91.91,0,0,0-.8-.36,1.12,1.12,0,0,0-1,.59v6.59h-2.35V140.06h2.35Z"/>
          <path d="M141.29,148a4.87,4.87,0,0,1,1-3.2,3.66,3.66,0,0,1,5.35,0,4.91,4.91,0,0,1,1,3.22v.57a4.93,4.93,0,0,1-.95,3.21,3.69,3.69,0,0,1-5.36,0,4.89,4.89,0,0,1-1-3.22Zm2.36.59c0,1.61.43,2.41,1.28,2.41s1.22-.67,1.28-2v-1a3.74,3.74,0,0,0-.34-1.82,1.05,1.05,0,0,0-1-.59,1,1,0,0,0-.94.59,3.88,3.88,0,0,0-.33,1.82Z"/>
          <path d="M154.46,146.1l-.78-.07a1.28,1.28,0,0,0-1.31.85v5.93H150v-9h2.22l.07,1a1.69,1.69,0,0,1,1.53-1.13,1.71,1.71,0,0,1,.65.1Z"/>
          <path d="M158.53,141.62v2.21h1.2v1.76h-1.2v4.47a1.32,1.32,0,0,0,.14.73.68.68,0,0,0,.56.2,2.18,2.18,0,0,0,.56-.06l0,1.82a3.44,3.44,0,0,1-1.29.23c-1.52,0-2.29-.87-2.3-2.61v-4.78h-1v-1.76h1v-2.21Z"/>
          <path d="M167,145.7h1.14a1.06,1.06,0,0,0,1-.45,2.17,2.17,0,0,0,.3-1.21,1.76,1.76,0,0,0-.31-1.12,1,1,0,0,0-1.64,0,1.54,1.54,0,0,0-.31,1h-2.35a3.34,3.34,0,0,1,.44-1.7A3.05,3.05,0,0,1,166.4,141a3.51,3.51,0,0,1,1.74-.43,3.6,3.6,0,0,1,2.61.92,3.39,3.39,0,0,1,.95,2.53,2.85,2.85,0,0,1-.43,1.52,2.81,2.81,0,0,1-1.12,1.07,2.6,2.6,0,0,1,1.27,1.1,3.77,3.77,0,0,1-.6,4.31,3.77,3.77,0,0,1-2.7,1,3.3,3.3,0,0,1-3.48-3.48H167a1.72,1.72,0,0,0,.35,1.09,1,1,0,0,0,.86.44,1.17,1.17,0,0,0,1-.45,1.91,1.91,0,0,0,.35-1.19c0-1.19-.46-1.79-1.39-1.8H167Z"/>
          <path d="M173.74,144.83a1.24,1.24,0,0,1,.38-.93,1.5,1.5,0,0,1,2,0,1.23,1.23,0,0,1,.39.94,1.18,1.18,0,0,1-.39.93,1.39,1.39,0,0,1-1,.35,1.36,1.36,0,0,1-1-.35A1.21,1.21,0,0,1,173.74,144.83Zm0,6.79a1.24,1.24,0,0,1,.38-.93,1.5,1.5,0,0,1,2,0,1.23,1.23,0,0,1,.39.94,1.18,1.18,0,0,1-.39.93,1.39,1.39,0,0,1-1,.36,1.37,1.37,0,0,1-1-.36A1.21,1.21,0,0,1,173.74,151.62Z"/>
          <path d="M189.17,152.81h-7.12v-1.66l3.27-4.15a9.44,9.44,0,0,0,.92-1.52,3,3,0,0,0,.29-1.25,2.46,2.46,0,0,0-.27-1.26.9.9,0,0,0-.81-.46,1,1,0,0,0-.9.53,2.78,2.78,0,0,0-.34,1.5h-2.36a4.63,4.63,0,0,1,.46-2,3.46,3.46,0,0,1,1.3-1.43,3.52,3.52,0,0,1,1.89-.51,3.1,3.1,0,0,1,3.4,3.43,4.84,4.84,0,0,1-.5,2.07,12.56,12.56,0,0,1-1.78,2.59l-1.56,2.21h4.11Z"/>
          <path d="M197.37,141.62v2.21h1.2v1.76h-1.2v4.47a1.32,1.32,0,0,0,.14.73.66.66,0,0,0,.56.2,2.18,2.18,0,0,0,.56-.06l0,1.82a3.44,3.44,0,0,1-1.29.23c-1.52,0-2.29-.87-2.3-2.61v-4.78h-1v-1.76h1v-2.21Z"/>
          <path d="M199.58,148a4.87,4.87,0,0,1,1-3.2,3.66,3.66,0,0,1,5.35,0,4.91,4.91,0,0,1,1,3.22v.57a4.88,4.88,0,0,1-.95,3.21,3.69,3.69,0,0,1-5.36,0,4.89,4.89,0,0,1-1-3.22Zm2.36.59c0,1.61.43,2.41,1.29,2.41s1.21-.67,1.27-2v-1a3.74,3.74,0,0,0-.34-1.82,1,1,0,0,0-1-.59,1,1,0,0,0-.93.59,3.74,3.74,0,0,0-.34,1.82Z"/>
          <path d="M214.17,147.69l3.76,1.65v2.34l-6.05-3v-2l6.05-3V146Z"/>
          <path d="M225.36,140.6v2h-.13a2.85,2.85,0,0,0-2.09.8,3.58,3.58,0,0,0-.95,2.19,2.52,2.52,0,0,1,4,.26,5.07,5.07,0,0,1,.79,3,5,5,0,0,1-.45,2.14,3.46,3.46,0,0,1-1.26,1.48,3.3,3.3,0,0,1-1.83.53,3.15,3.15,0,0,1-2.64-1.32,5.77,5.77,0,0,1-1-3.55v-.87a9,9,0,0,1,.63-3.51,5.1,5.1,0,0,1,1.81-2.31,4.85,4.85,0,0,1,2.76-.82Zm-2,6.05a1.05,1.05,0,0,0-.75.29,1.68,1.68,0,0,0-.46.7v.84a4.28,4.28,0,0,0,.34,1.92,1,1,0,0,0,1.81,0,3.29,3.29,0,0,0,.34-1.57,3.05,3.05,0,0,0-.36-1.58A1,1,0,0,0,223.35,146.65Z"/>
          <path d="M235.23,148.9l1.19-5.07h2.51l-3,10.33c-.44,1.52-1.27,2.28-2.5,2.28a3.31,3.31,0,0,1-1-.16v-1.83h.28a1.34,1.34,0,0,0,.82-.21,1.32,1.32,0,0,0,.42-.74l.18-.6-2.59-9.08h2.53Z"/>
          <path d="M243.46,153a3.66,3.66,0,0,1-2.82-1.08,4.33,4.33,0,0,1-1-3.09v-.71a5.1,5.1,0,0,1,.93-3.28,3.23,3.23,0,0,1,2.67-1.15,3.06,3.06,0,0,1,2.55,1.08,5.22,5.22,0,0,1,.87,3.2v1.15H242a2.51,2.51,0,0,0,.44,1.47,1.48,1.48,0,0,0,1.21.46,2.62,2.62,0,0,0,2-.81l.93,1.42a3.08,3.08,0,0,1-1.26,1A4.24,4.24,0,0,1,243.46,153ZM242,147.47h2.35v-.22a2.45,2.45,0,0,0-.27-1.22.9.9,0,0,0-.86-.41,1,1,0,0,0-.89.44A2.91,2.91,0,0,0,242,147.47Z"/>
          <path d="M252.23,152.81a4.11,4.11,0,0,1-.2-.69,2,2,0,0,1-1.71.86,2.53,2.53,0,0,1-1.87-.75,2.64,2.64,0,0,1-.74-1.93,2.71,2.71,0,0,1,.9-2.18,3.89,3.89,0,0,1,2.59-.79h.72v-.73a1.34,1.34,0,0,0-.21-.85.74.74,0,0,0-.61-.25c-.58,0-.88.34-.88,1h-2.35a2.59,2.59,0,0,1,.94-2.05,3.47,3.47,0,0,1,2.36-.81,3.22,3.22,0,0,1,2.29.76,2.91,2.91,0,0,1,.81,2.2v4.22a4.38,4.38,0,0,0,.33,1.82v.14Zm-1.38-1.67a1.34,1.34,0,0,0,.66-.16,1.24,1.24,0,0,0,.41-.37v-1.87h-.57a1.21,1.21,0,0,0-.94.38,1.45,1.45,0,0,0-.35,1C250.06,150.8,250.33,151.14,250.85,151.14Z"/>
          <path d="M260.4,146.1l-.78-.07a1.27,1.27,0,0,0-1.3.85v5.93H256v-9h2.21l.07,1a1.69,1.69,0,0,1,1.54-1.13,1.65,1.65,0,0,1,.64.1Z"/>
          <path d="M265.58,150.41a.76.76,0,0,0-.29-.56,6.08,6.08,0,0,0-1.27-.68,5.26,5.26,0,0,1-2-1.22,2.32,2.32,0,0,1-.54-1.57,2.51,2.51,0,0,1,.85-1.95,3.24,3.24,0,0,1,2.25-.76,3.5,3.5,0,0,1,2.37.76,2.57,2.57,0,0,1,.89,2h-2.35c0-.73-.31-1.1-.92-1.1a.82.82,0,0,0-.85.88.68.68,0,0,0,.27.53,5.59,5.59,0,0,0,1.25.65,5.2,5.2,0,0,1,2,1.19,2.42,2.42,0,0,1,.59,1.69,2.37,2.37,0,0,1-.9,1.93,3.68,3.68,0,0,1-2.38.73,3.72,3.72,0,0,1-1.74-.39,2.84,2.84,0,0,1-1.18-1.07,2.75,2.75,0,0,1-.43-1.49h2.23a1.4,1.4,0,0,0,.29.92,1.1,1.1,0,0,0,.88.31C265.26,151.26,265.58,151,265.58,150.41Z"/>
          <path d="M273.38,147.9a14.43,14.43,0,0,1,.44-3.57,10.28,10.28,0,0,1,1.3-3.06,5.14,5.14,0,0,1,1.86-1.86l.44,1.29a6.05,6.05,0,0,0-1.49,2.7,14.86,14.86,0,0,0-.57,4.22v.5a15.87,15.87,0,0,0,.54,4.37,6.17,6.17,0,0,0,1.52,2.82l-.44,1.28a5.07,5.07,0,0,1-1.84-1.83,10,10,0,0,1-1.3-3,14,14,0,0,1-.46-3.51Z"/>
          <path d="M280.89,143.83l.06.89a2.5,2.5,0,0,1,2.09-1.05c1.54,0,2.33,1.08,2.38,3.24v5.9h-2.36v-5.72a2.09,2.09,0,0,0-.23-1.11.89.89,0,0,0-.8-.35,1.08,1.08,0,0,0-1,.66v6.52h-2.36v-9Z"/>
          <path d="M297.6,146.64h-6.34v-2h6.34Zm0,3.59h-6.34v-2h6.34Z"/>
          <path d="M308,148.14a2.25,2.25,0,0,1-1.64.76,2.55,2.55,0,0,1-2.17-1.1,5.06,5.06,0,0,1-.79-3,5.23,5.23,0,0,1,.45-2.19,3.56,3.56,0,0,1,1.25-1.54,3.06,3.06,0,0,1,1.79-.55,2.92,2.92,0,0,1,1.82.61,3.81,3.81,0,0,1,1.23,1.74,6.89,6.89,0,0,1,.44,2.57v.86a7.64,7.64,0,0,1-1.36,4.83,4.65,4.65,0,0,1-3.84,1.77h-.24v-2h.15a2.82,2.82,0,0,0,2.08-.71A3.33,3.33,0,0,0,308,148.14Zm-1-1.08c.46,0,.81-.31,1.07-.93v-1.08a4.47,4.47,0,0,0-.32-1.86c-.22-.45-.5-.68-.84-.68s-.61.23-.82.67a4,4,0,0,0-.31,1.63,3.45,3.45,0,0,0,.33,1.65A1,1,0,0,0,306.94,147.06Z"/>
          <path d="M315.85,148.1a13.21,13.21,0,0,1-.5,3.66,10.5,10.5,0,0,1-1.36,3,5.23,5.23,0,0,1-1.86,1.8l-.43-1.28a6.08,6.08,0,0,0,1.49-2.77,15.12,15.12,0,0,0,.57-4.22v-.44a15.46,15.46,0,0,0-.55-4.32,6.42,6.42,0,0,0-1.51-2.87l.43-1.28a4.4,4.4,0,0,1,1.31,1.08,8.31,8.31,0,0,1,1.21,1.86,13,13,0,0,1,.87,2.51A14.05,14.05,0,0,1,315.85,148.1Z"/>
        </g>
      </g>
    </g>
  </g>
</svg>
