<svg xmlns="http://www.w3.org/2000/svg" width="502.7" height="455.9" viewBox="0 0 502.7 455.9">
  <g id="Layer_2" data-name="Layer 2">
    <g id="Layer_1-2" data-name="Layer 1">
      <g>
        <path d="M8.44,322.17a6,6,0,0,1,4,1.22,4.19,4.19,0,0,1,1.42,3.38,4.26,4.26,0,0,1-1.41,3.38A5.88,5.88,0,0,1,8.5,331.4H6.31a6.32,6.32,0,0,1-4.12-1.22,4.62,4.62,0,0,1,0-6.76,6.19,6.19,0,0,1,4.08-1.25Zm-2.15,2.59a5.33,5.33,0,0,0-2.57.49,1.81,1.81,0,0,0,0,3.05,4.92,4.92,0,0,0,2.47.51H8.44a4.68,4.68,0,0,0,2.47-.5,1.7,1.7,0,0,0,.8-1.54,1.66,1.66,0,0,0-.78-1.51,4.79,4.79,0,0,0-2.41-.5Z"/>
        <path d="M11.79,317c0-.72-.46-1.08-1.4-1.09v-2.34a3.46,3.46,0,0,1,2.51,1,3.22,3.22,0,0,1,1,2.42,3.45,3.45,0,0,1-1.14,2.8,5.13,5.13,0,0,1-3.37,1H8.6a5.28,5.28,0,0,1-3.42-1A3.38,3.38,0,0,1,4,317a3.21,3.21,0,0,1,1-2.48,4,4,0,0,1,2.76-.92v2.34a2.4,2.4,0,0,0-1.23.26.9.9,0,0,0-.44.84,1,1,0,0,0,.47.93,3.82,3.82,0,0,0,1.78.3h1a8.34,8.34,0,0,0,1.62-.11,1.21,1.21,0,0,0,.68-.38A1.18,1.18,0,0,0,11.79,317Z"/>
        <path d="M11.79,308.68c0-.72-.46-1.09-1.4-1.1v-2.34a3.46,3.46,0,0,1,2.51,1,3.24,3.24,0,0,1,1,2.42,3.48,3.48,0,0,1-1.14,2.81,5.19,5.19,0,0,1-3.37,1H8.6a5.28,5.28,0,0,1-3.42-1A3.41,3.41,0,0,1,4,308.64a3.22,3.22,0,0,1,1-2.48,4,4,0,0,1,2.76-.92v2.34a2.4,2.4,0,0,0-1.23.26.91.91,0,0,0-.44.85,1,1,0,0,0,.47.93,4,4,0,0,0,1.78.3h1a7.42,7.42,0,0,0,1.62-.12,1,1,0,0,0,.89-1.12Z"/>
        <path d="M12.81,299.12a2.46,2.46,0,0,1,1,2.08,2.32,2.32,0,0,1-.9,2,4.33,4.33,0,0,1-2.62.68H4.17v-2.49H10.4c.92,0,1.39-.32,1.39-.92a1.28,1.28,0,0,0-.74-1.23H4.17v-2.51h9.51v2.34Z"/>
        <path d="M6.57,290.28l-.07.83a1.36,1.36,0,0,0,.9,1.38h6.28V295H4.17v-2.35l1-.07a1.79,1.79,0,0,1-1.09-2.31Z"/>
        <path d="M6.57,284.34l-.07.83a1.36,1.36,0,0,0,.9,1.38h6.28v2.5H4.17V286.7l1-.07a1.79,1.79,0,0,1-1.09-2.31Z"/>
        <path d="M13.86,279.38a3.9,3.9,0,0,1-1.14,3,4.57,4.57,0,0,1-3.27,1.07H8.69a5.45,5.45,0,0,1-3.47-1A3.43,3.43,0,0,1,4,279.64a3.23,3.23,0,0,1,1.14-2.7,5.51,5.51,0,0,1,3.4-.92H9.76V281a2.56,2.56,0,0,0,1.54-.46,1.57,1.57,0,0,0,.49-1.28,2.79,2.79,0,0,0-.85-2.08l1.51-1a3.16,3.16,0,0,1,1,1.32A4.57,4.57,0,0,1,13.86,279.38ZM8,281v-2.49H7.8a2.64,2.64,0,0,0-1.3.28,1,1,0,0,0-.44.91,1,1,0,0,0,.47,1A3.21,3.21,0,0,0,8,281Z"/>
        <path d="M4.17,272.33l1-.07A2.64,2.64,0,0,1,4,270.05c0-1.64,1.14-2.48,3.44-2.52h6.24V270H7.62a2.07,2.07,0,0,0-1.17.25.92.92,0,0,0-.37.84,1.16,1.16,0,0,0,.7,1.06h6.9v2.49H4.17Z"/>
        <path d="M11.79,262.35c0-.73-.46-1.09-1.4-1.1v-2.34a3.46,3.46,0,0,1,2.51,1,3.22,3.22,0,0,1,1,2.42,3.48,3.48,0,0,1-1.14,2.81,5.19,5.19,0,0,1-3.37,1H8.6a5.34,5.34,0,0,1-3.42-.95A3.41,3.41,0,0,1,4,262.31a3.22,3.22,0,0,1,1-2.48,4,4,0,0,1,2.76-.92v2.34a2.4,2.4,0,0,0-1.23.26.9.9,0,0,0-.44.84,1,1,0,0,0,.47.94,4,4,0,0,0,1.78.29h1a7.59,7.59,0,0,0,1.62-.11,1.21,1.21,0,0,0,.68-.38A1.14,1.14,0,0,0,11.79,262.35Z"/>
        <path d="M13.86,253.62a3.9,3.9,0,0,1-1.14,3,4.57,4.57,0,0,1-3.27,1.08H8.69a5.39,5.39,0,0,1-3.47-1A3.43,3.43,0,0,1,4,253.88a3.23,3.23,0,0,1,1.14-2.7,5.51,5.51,0,0,1,3.4-.92H9.76v5a2.61,2.61,0,0,0,1.55-.47,1.58,1.58,0,0,0,.48-1.27,2.8,2.8,0,0,0-.85-2.09l1.51-1a3.16,3.16,0,0,1,1,1.32A4.57,4.57,0,0,1,13.86,253.62ZM8,255.19V252.7H7.8a2.76,2.76,0,0,0-1.3.28,1,1,0,0,0-.44.92,1,1,0,0,0,.47.94A3.21,3.21,0,0,0,8,255.19Z"/>
        <path d="M8.62,244.87a5.16,5.16,0,0,1-3.39-1,3.87,3.87,0,0,1,0-5.66,5.2,5.2,0,0,1,3.41-1h.61a5.15,5.15,0,0,1,3.39,1,3.89,3.89,0,0,1,0,5.67,5.15,5.15,0,0,1-3.4,1Zm.63-2.5c1.7,0,2.54-.45,2.54-1.36s-.7-1.29-2.12-1.36H8.62a4,4,0,0,0-1.93.36,1.12,1.12,0,0,0-.63,1,1.1,1.1,0,0,0,.63,1,4.14,4.14,0,0,0,1.93.35Z"/>
        <path d="M13.68,235H6v1.15H4.17V235H3.32a3.49,3.49,0,0,1-2.45-.83A3,3,0,0,1,0,231.89a4.63,4.63,0,0,1,.18-1.13l2,0a2.13,2.13,0,0,0-.08.6q0,1.11,1.32,1.11h.77V231H6v1.48h7.64Z"/>
        <path d="M13.68,225.39H.89V222a4.64,4.64,0,0,1,1.42-3.57,5.58,5.58,0,0,1,3.9-1.36H8.29a5.6,5.6,0,0,1,4,1.33,4.75,4.75,0,0,1,1.43,3.67ZM3,222.81h8.5V222a2.17,2.17,0,0,0-.68-1.82,4,4,0,0,0-2.35-.56H6.28a4.59,4.59,0,0,0-2.5.5A2,2,0,0,0,3,221.87Z"/>
        <path d="M1.71,215.34A1.32,1.32,0,0,1,.76,215a1.37,1.37,0,0,1-.36-1,1.33,1.33,0,0,1,.36-1,1.29,1.29,0,0,1,1-.37,1.32,1.32,0,0,1,1,.36A1.29,1.29,0,0,1,3,214a1.27,1.27,0,0,1-.38,1A1.32,1.32,0,0,1,1.71,215.34Zm12-2.61v2.5H4.17v-2.5Z"/>
        <path d="M11.14,206.56a.79.79,0,0,0-.59.31,5.7,5.7,0,0,0-.72,1.35,5.59,5.59,0,0,1-1.3,2.11,2.45,2.45,0,0,1-1.66.58,2.65,2.65,0,0,1-2.06-.9A3.46,3.46,0,0,1,4,207.62a3.73,3.73,0,0,1,.81-2.51A2.74,2.74,0,0,1,7,204.17v2.49c-.77,0-1.16.32-1.16,1a.92.92,0,0,0,.24.65.93.93,0,0,0,.69.25.71.71,0,0,0,.56-.28A6.34,6.34,0,0,0,8,206.92a5.47,5.47,0,0,1,1.25-2.15,2.6,2.6,0,0,1,1.79-.62,2.53,2.53,0,0,1,2.05.95,3.93,3.93,0,0,1,.77,2.52,4,4,0,0,1-.41,1.84,3,3,0,0,1-1.14,1.26,2.92,2.92,0,0,1-1.57.45v-2.36a1.59,1.59,0,0,0,1-.31,1.2,1.2,0,0,0,.32-.93C12,206.9,11.74,206.56,11.14,206.56Z"/>
        <path d="M13.86,198.76a3.91,3.91,0,0,1-1.14,3,4.62,4.62,0,0,1-3.27,1.07H8.69a5.45,5.45,0,0,1-3.47-1A3.43,3.43,0,0,1,4,199a3.23,3.23,0,0,1,1.14-2.7,5.45,5.45,0,0,1,3.4-.92H9.76v4.94a2.56,2.56,0,0,0,1.54-.46,1.57,1.57,0,0,0,.49-1.28,2.79,2.79,0,0,0-.85-2.08l1.51-1a3.26,3.26,0,0,1,1,1.33A4.57,4.57,0,0,1,13.86,198.76ZM8,200.33v-2.49H7.8a2.64,2.64,0,0,0-1.3.28,1,1,0,0,0-.44.91,1,1,0,0,0,.47.95A3.21,3.21,0,0,0,8,200.33Z"/>
        <path d="M13.68,189.46a3.36,3.36,0,0,1-.73.21,2.13,2.13,0,0,1,.91,1.81,2.65,2.65,0,0,1-.79,2,2.77,2.77,0,0,1-2.05.79,2.89,2.89,0,0,1-2.31-.95,4.2,4.2,0,0,1-.83-2.75v-.75H7.11a1.38,1.38,0,0,0-.9.22.77.77,0,0,0-.27.64c0,.62.36.93,1.09.93v2.49a2.74,2.74,0,0,1-2.17-1,3.65,3.65,0,0,1-.86-2.5,3.37,3.37,0,0,1,.81-2.42,3,3,0,0,1,2.33-.86h4.47a4.75,4.75,0,0,0,1.93-.35h.14Zm-1.77,1.47a1.37,1.37,0,0,0-.17-.7,1.1,1.1,0,0,0-.39-.43h-2v.59a1.27,1.27,0,0,0,.4,1,1.57,1.57,0,0,0,1.08.37C11.56,191.76,11.91,191.48,11.91,190.93Z"/>
        <path d="M11.14,181.26a.78.78,0,0,0-.59.3,5.7,5.7,0,0,0-.72,1.35A5.59,5.59,0,0,1,8.53,185a2.4,2.4,0,0,1-1.66.58,2.65,2.65,0,0,1-2.06-.9A3.44,3.44,0,0,1,4,182.31a3.69,3.69,0,0,1,.81-2.5A2.71,2.71,0,0,1,7,178.86v2.49c-.77,0-1.16.32-1.16,1a.92.92,0,0,0,.24.65.93.93,0,0,0,.69.25.71.71,0,0,0,.56-.28A6.17,6.17,0,0,0,8,181.62a5.4,5.4,0,0,1,1.25-2.15,2.56,2.56,0,0,1,1.79-.63,2.51,2.51,0,0,1,2.05,1,3.9,3.9,0,0,1,.77,2.51,4.06,4.06,0,0,1-.41,1.85,3.06,3.06,0,0,1-1.14,1.25,2.92,2.92,0,0,1-1.57.45V183.5a1.59,1.59,0,0,0,1-.31,1.2,1.2,0,0,0,.32-.93C12,181.59,11.74,181.26,11.14,181.26Z"/>
        <path d="M13.86,173.45a3.9,3.9,0,0,1-1.14,3,4.57,4.57,0,0,1-3.27,1.07H8.69a5.39,5.39,0,0,1-3.47-1A3.43,3.43,0,0,1,4,173.71,3.23,3.23,0,0,1,5.14,171a5.51,5.51,0,0,1,3.4-.92H9.76V175a2.62,2.62,0,0,0,1.55-.46,1.6,1.6,0,0,0,.48-1.28,2.79,2.79,0,0,0-.85-2.08l1.51-1a3.16,3.16,0,0,1,1,1.32A4.57,4.57,0,0,1,13.86,173.45ZM8,175v-2.49H7.8a2.76,2.76,0,0,0-1.3.28,1,1,0,0,0-.44.92,1,1,0,0,0,.47.94A3.21,3.21,0,0,0,8,175Z"/>
        <g>
          <path d="M8.46,157.8v4h5.22v2.59H.89v-7.09H3v4.5H6.32v-4Z"/>
          <path d="M13.68,153.35v2.5H.18v-2.5Z"/>
          <path d="M13.68,146.91a3.36,3.36,0,0,1-.73.21,2.12,2.12,0,0,1,.91,1.81,2.65,2.65,0,0,1-.79,2,2.77,2.77,0,0,1-2.05.79,2.89,2.89,0,0,1-2.31-.95A4.22,4.22,0,0,1,7.88,148v-.76H7.11a1.44,1.44,0,0,0-.9.22.78.78,0,0,0-.27.64c0,.63.36.94,1.09.94v2.48a2.74,2.74,0,0,1-2.17-1A3.69,3.69,0,0,1,4,148a3.39,3.39,0,0,1,.81-2.42,3.06,3.06,0,0,1,2.33-.85h4.47a4.74,4.74,0,0,0,1.93-.36h.14Zm-1.77,1.47a1.43,1.43,0,0,0-.17-.71,1.26,1.26,0,0,0-.39-.43h-2v.6a1.27,1.27,0,0,0,.4,1,1.57,1.57,0,0,0,1.08.36C11.56,149.2,11.91,148.93,11.91,148.38Z"/>
          <path d="M6.57,138.26l-.07.83a1.36,1.36,0,0,0,.9,1.38h6.28V143H4.17v-2.34l1-.07A1.82,1.82,0,0,1,4,138.92a1.92,1.92,0,0,1,.11-.69Z"/>
          <path d="M13.86,133.31a3.93,3.93,0,0,1-1.14,3,4.62,4.62,0,0,1-3.27,1.07H8.69a5.39,5.39,0,0,1-3.47-1A3.41,3.41,0,0,1,4,133.56a3.26,3.26,0,0,1,1.14-2.7,5.51,5.51,0,0,1,3.4-.92H9.76v4.95a2.61,2.61,0,0,0,1.55-.47,1.58,1.58,0,0,0,.48-1.27,2.77,2.77,0,0,0-.85-2.08l1.51-1a3.26,3.26,0,0,1,1,1.33A4.57,4.57,0,0,1,13.86,133.31ZM8,134.87v-2.49H7.8a2.75,2.75,0,0,0-1.3.29,1,1,0,0,0-.44.91,1,1,0,0,0,.47.94A3.09,3.09,0,0,0,8,134.87Z"/>
        </g>
        <path d="M7.69,126.34a2.18,2.18,0,0,1-.43.12,1.23,1.23,0,0,1,.53,1.06,1.54,1.54,0,0,1-.46,1.15,1.6,1.6,0,0,1-1.19.46,1.69,1.69,0,0,1-1.35-.55A2.44,2.44,0,0,1,4.3,127v-.45H3.86a.87.87,0,0,0-.53.13.48.48,0,0,0-.15.38q0,.54.63.54V129a1.61,1.61,0,0,1-1.27-.58A2.15,2.15,0,0,1,2,127a2,2,0,0,1,.48-1.42,1.78,1.78,0,0,1,1.35-.5H6.48a2.61,2.61,0,0,0,1.12-.2h.09Zm-1,.86a.83.83,0,0,0-.1-.41.74.74,0,0,0-.23-.26H5.17v.35a.73.73,0,0,0,.24.58.88.88,0,0,0,.63.22C6.45,127.68,6.66,127.52,6.66,127.2Z"/>
        <g>
          <path d="M30.84,290.54a6.52,6.52,0,0,1,3.46.74,2.53,2.53,0,0,1,1.16,2.32,2.28,2.28,0,0,1-1.12,2l.95.07V298H21.79v-2.49h4.76a2.21,2.21,0,0,1-.95-1.85,2.54,2.54,0,0,1,1.15-2.32,6.23,6.23,0,0,1,3.36-.76ZM30.21,293a4.52,4.52,0,0,0-2,.29,1,1,0,0,0-.52,1,1.2,1.2,0,0,0,.71,1.14h4.34a1.2,1.2,0,0,0,.67-1.16,1.07,1.07,0,0,0-.47-1,4.12,4.12,0,0,0-1.81-.29Z"/>
          <path d="M31.15,286.09l-5.37-1.27v-2.65l10.93,3.13c1.61.46,2.42,1.35,2.42,2.64a3.74,3.74,0,0,1-.17,1H37v-.29a1.17,1.17,0,0,0-1-1.32l-.64-.19-9.6,2.74v-2.67Z"/>
          <path d="M30.53,268.52l-8-1.22v-2.55L35.29,267v2.6l-7.55,1.49,7.55,1.48v2.6l-12.8,2.28V274.9l8-1.21-8-1.5V270Z"/>
          <path d="M35.46,259.88a3.9,3.9,0,0,1-1.14,3,4.57,4.57,0,0,1-3.27,1.07h-.76a5.39,5.39,0,0,1-3.47-1,3.43,3.43,0,0,1-1.22-2.82,3.21,3.21,0,0,1,1.15-2.7,5.46,5.46,0,0,1,3.39-.92h1.22v5a2.69,2.69,0,0,0,1.55-.47,1.6,1.6,0,0,0,.49-1.27,2.81,2.81,0,0,0-.86-2.09l1.51-1a3.16,3.16,0,0,1,1,1.32A4.57,4.57,0,0,1,35.46,259.88Zm-5.84,1.57V259H29.4a2.76,2.76,0,0,0-1.3.28,1,1,0,0,0-.43.92,1,1,0,0,0,.46.94A3.21,3.21,0,0,0,29.62,261.45Z"/>
          <path d="M35.46,251.27a3.91,3.91,0,0,1-1.14,3,4.62,4.62,0,0,1-3.27,1.07h-.76a5.45,5.45,0,0,1-3.47-1,3.44,3.44,0,0,1-1.22-2.83,3.2,3.2,0,0,1,1.15-2.69,5.46,5.46,0,0,1,3.39-.93h1.22v4.95a2.62,2.62,0,0,0,1.55-.46,1.61,1.61,0,0,0,.49-1.28,2.8,2.8,0,0,0-.86-2.08l1.51-1a3.26,3.26,0,0,1,1,1.33A4.57,4.57,0,0,1,35.46,251.27Zm-5.84,1.56v-2.48H29.4a2.64,2.64,0,0,0-1.3.28,1,1,0,0,0-.43.91,1,1,0,0,0,.46,1A3.23,3.23,0,0,0,29.62,252.83Z"/>
          <path d="M31.62,243.34l.75.67h2.92v2.49H21.79V244h7.29l-.46-.31L25.78,242v-3l3.92,2.76,5.59-3v2.85Z"/>
          <path d="M30.45,227.25v-1.09h2.07v1.09h2.77v2.49H32.52V234l-1.61.12-8.42-4.34v-2.5Zm0,4.42v-1.93H26.17l.1,0Z"/>
          <path d="M30.45,218.14v-1.09h2.07v1.09h2.77v2.49H32.52v4.24l-1.61.11-8.42-4.34v-2.5Zm0,4.42v-1.93H26.17l.1.05Z"/>
          <path d="M38.51,214.79l-.69,1.32-.63-.33a4.43,4.43,0,0,0-2.09-.58h-2V213h1.77a4.56,4.56,0,0,1,1.93.47A4.86,4.86,0,0,1,38.51,214.79Z"/>
          <path d="M25,207a2.8,2.8,0,0,1-1.91-.65,2.2,2.2,0,0,1-.74-1.74,2.25,2.25,0,0,1,.73-1.76,2.82,2.82,0,0,1,1.95-.65h.65a2.74,2.74,0,0,1,1.9.65,2.22,2.22,0,0,1,.72,1.74,2.28,2.28,0,0,1-.72,1.75,2.78,2.78,0,0,1-2,.66Zm9.38-2.86-.67,1.18-10-5.25.67-1.18Zm-8.7,1.24a1.36,1.36,0,0,0,.83-.22.68.68,0,0,0,.32-.57.64.64,0,0,0-.33-.56,1.53,1.53,0,0,0-.85-.2H25a1.54,1.54,0,0,0-.84.21.65.65,0,0,0,0,1.13,1.6,1.6,0,0,0,.87.21ZM32.15,202a2.72,2.72,0,0,1-1.91-.66,2.22,2.22,0,0,1-.73-1.74,2.27,2.27,0,0,1,.72-1.75,2.81,2.81,0,0,1,2-.65h.64a2.78,2.78,0,0,1,1.91.64,2.49,2.49,0,0,1,0,3.51,2.75,2.75,0,0,1-1.93.65Zm.68-1.62a1.38,1.38,0,0,0,.83-.24.66.66,0,0,0,.33-.55c0-.49-.35-.74-1-.77h-.8a1.42,1.42,0,0,0-.84.22.63.63,0,0,0-.32.56c0,.52.45.78,1.34.78Z"/>
          <path d="M30.08,191.16a15.17,15.17,0,0,1-3.78-.46,11.24,11.24,0,0,1-3.24-1.38,5.48,5.48,0,0,1-2-2l1.37-.47a6.34,6.34,0,0,0,2.86,1.57,16.13,16.13,0,0,0,4.46.61h.53a16.62,16.62,0,0,0,4.64-.58,6.51,6.51,0,0,0,3-1.6l1.35.47a5.42,5.42,0,0,1-1.94,1.94,10.64,10.64,0,0,1-3.18,1.38,15.17,15.17,0,0,1-3.72.48Z"/>
          <path d="M31.93,180a1.62,1.62,0,0,0-1.18.4,4.52,4.52,0,0,0-.83,1.46,6.94,6.94,0,0,1-1.71,2.77,3.47,3.47,0,0,1-2.32.84,3.25,3.25,0,0,1-2.6-1.15,4.32,4.32,0,0,1-1-2.91,4.4,4.4,0,0,1,.5-2.1,3.42,3.42,0,0,1,1.4-1.42,4.22,4.22,0,0,1,2.06-.5v2.58a2.15,2.15,0,0,0-1.37.38,1.35,1.35,0,0,0-.47,1.1,1.37,1.37,0,0,0,.4,1.06,1.53,1.53,0,0,0,1.08.38,1.32,1.32,0,0,0,.95-.42,4.94,4.94,0,0,0,.88-1.5,6.47,6.47,0,0,1,1.67-2.72,3.71,3.71,0,0,1,2.5-.85,3.31,3.31,0,0,1,2.61,1.07,4.19,4.19,0,0,1,.94,2.89,5,5,0,0,1-.51,2.26,3.81,3.81,0,0,1-1.46,1.59,4.18,4.18,0,0,1-2.24.58v-2.6a2.42,2.42,0,0,0,1.61-.43,1.75,1.75,0,0,0,.5-1.4C33.36,180.42,32.88,180,31.93,180Z"/>
          <path d="M29.75,169v4h3.39V168.3h2.15v7.35H22.49v-7.33h2.15v4.74h3v-4Z"/>
          <path d="M30.29,163a14,14,0,0,1,3.88.52,11.25,11.25,0,0,1,3.21,1.45,5.4,5.4,0,0,1,1.9,2l-1.35.45A6.58,6.58,0,0,0,35,165.77a16.12,16.12,0,0,0-4.47-.6h-.47a16.41,16.41,0,0,0-4.57.58,7,7,0,0,0-3,1.6l-1.35-.45a4.78,4.78,0,0,1,1.14-1.39,9,9,0,0,1,2-1.28,12.88,12.88,0,0,1,2.65-.92A14.6,14.6,0,0,1,30.29,163Z"/>
        </g>
        <path d="M354.54,21.31H351.3V31.84h-.9V21.31h-3.22v-.84h7.36Z"/>
        <path d="M355.86,27.19a4.58,4.58,0,0,1,.83-2.89,2.94,2.94,0,0,1,4.52,0,4.55,4.55,0,0,1,.83,2.88v.9a4.49,4.49,0,0,1-.83,2.9,3,3,0,0,1-4.49,0,4.42,4.42,0,0,1-.86-2.79Zm.88.87a3.87,3.87,0,0,0,.59,2.29,2,2,0,0,0,3.27,0,4,4,0,0,0,.58-2.3v-.9a3.9,3.9,0,0,0-.6-2.3,1.9,1.9,0,0,0-1.63-.83,1.88,1.88,0,0,0-1.6.81,3.84,3.84,0,0,0-.61,2.26Z"/>
        <path d="M364.67,31.84V24.17H363.5v-.78h1.17V22.28a3,3,0,0,1,.58-1.93,1.93,1.93,0,0,1,1.56-.67,2.47,2.47,0,0,1,.84.13l-.06.8a2.82,2.82,0,0,0-.71-.09,1.16,1.16,0,0,0-1,.47,2.22,2.22,0,0,0-.36,1.36v1h1.66v.78h-1.66v7.67Z"/>
        <path d="M373.36,31.84a5.68,5.68,0,0,1-.15-1.17,2.79,2.79,0,0,1-1,1,2.67,2.67,0,0,1-1.33.35,2.29,2.29,0,0,1-1.7-.62,2.38,2.38,0,0,1-.61-1.76,2.47,2.47,0,0,1,.85-2,3.54,3.54,0,0,1,2.34-.73h1.45V25.74a1.65,1.65,0,0,0-.45-1.3,2,2,0,0,0-1.32-.39,1.91,1.91,0,0,0-1.32.46,1.59,1.59,0,0,0-.51,1.22h-.87a2.29,2.29,0,0,1,.78-1.76,2.75,2.75,0,0,1,2-.73,2.67,2.67,0,0,1,1.93.64,2.49,2.49,0,0,1,.66,1.87v4.15a5.47,5.47,0,0,0,.23,1.86v.09ZM371,31.16a2.36,2.36,0,0,0,1.36-.4,2.3,2.3,0,0,0,.86-1.06V27.65h-1.37a2.75,2.75,0,0,0-1.79.52,1.72,1.72,0,0,0-.61,1.38C369.43,30.63,370,31.16,371,31.16Z"/>
        <path d="M379.14,31.19a1.84,1.84,0,0,0,1.39-.51,2.19,2.19,0,0,0,.52-1.45h.84a2.93,2.93,0,0,1-.83,2,2.66,2.66,0,0,1-1.92.74,2.72,2.72,0,0,1-2.28-1,4.58,4.58,0,0,1-.79-2.86v-1a4.69,4.69,0,0,1,.77-2.92,2.74,2.74,0,0,1,2.29-1,2.54,2.54,0,0,1,2,.8,3.31,3.31,0,0,1,.78,2.21h-.84a2.57,2.57,0,0,0-.53-1.62,1.74,1.74,0,0,0-1.39-.57,1.87,1.87,0,0,0-1.65.75,4.05,4.05,0,0,0-.53,2.33v1a4.06,4.06,0,0,0,.53,2.36A1.91,1.91,0,0,0,379.14,31.19Z"/>
        <path d="M383.73,21a.68.68,0,0,1,.15-.45.56.56,0,0,1,.84,0,.71.71,0,0,1,0,.9.58.58,0,0,1-.84,0A.68.68,0,0,1,383.73,21Zm1,10.89h-.88V23.39h.88Z"/>
        <path d="M388.34,21.23v2.16h1.45v.78h-1.45v5.62a2,2,0,0,0,.21,1,.74.74,0,0,0,.69.34,3.12,3.12,0,0,0,.63-.08l0,.79A2.33,2.33,0,0,1,389,32q-1.53,0-1.56-2.1V24.17h-1.31v-.78h1.31V21.23Z"/>
        <path d="M391.65,21a.68.68,0,0,1,.15-.45.56.56,0,0,1,.84,0,.71.71,0,0,1,0,.9.58.58,0,0,1-.84,0A.68.68,0,0,1,391.65,21Zm1,10.89h-.88V23.39h.88Z"/>
        <path d="M395.9,23.39l0,1.34a3.09,3.09,0,0,1,1-1.09,2.28,2.28,0,0,1,1.33-.41c1.47,0,2.22,1,2.26,2.95v5.66h-.86V26.27a2.87,2.87,0,0,0-.4-1.67,1.41,1.41,0,0,0-1.22-.54,1.76,1.76,0,0,0-1.23.51,3.23,3.23,0,0,0-.82,1.41v5.86h-.87V23.39Z"/>
        <path d="M402.8,21a.68.68,0,0,1,.15-.45.5.5,0,0,1,.42-.19.51.51,0,0,1,.43.19.75.75,0,0,1,0,.9.54.54,0,0,1-.43.18.52.52,0,0,1-.42-.18A.68.68,0,0,1,402.8,21Zm1,10.89h-.87V23.39h.87Z"/>
        <g>
          <path d="M412,28a5.26,5.26,0,0,1-.69,3,2.27,2.27,0,0,1-2,1,2.36,2.36,0,0,1-2.21-1.29l0,1.13h-.81v-12h.86v4.73a2.53,2.53,0,0,1,4.22-.37,5.17,5.17,0,0,1,.7,2.88Zm-.87-.78a4.65,4.65,0,0,0-.48-2.39,1.69,1.69,0,0,0-1.56-.77,2,2,0,0,0-2,1.52v4.19a2.34,2.34,0,0,0,.78,1,2.14,2.14,0,0,0,1.25.36,1.68,1.68,0,0,0,1.52-.75,4.49,4.49,0,0,0,.5-2.35Z"/>
          <path d="M417.5,27.25a13.79,13.79,0,0,1,.42-3.41A11.83,11.83,0,0,1,419,20.92a5.59,5.59,0,0,1,1.49-1.84l.2.66a5.26,5.26,0,0,0-1.18,1.71,11.3,11.3,0,0,0-.85,2.65,16,16,0,0,0-.31,3.28,15.7,15.7,0,0,0,.3,3.11,12,12,0,0,0,.86,2.67,5.37,5.37,0,0,0,1.18,1.74l-.2.61a5.06,5.06,0,0,1-1.08-1.15,9.4,9.4,0,0,1-1-1.85,12.72,12.72,0,0,1-.69-2.35A14.27,14.27,0,0,1,417.5,27.25Z"/>
          <path d="M429.6,31.84h-.89l-5.37-9.69v9.69h-.9V20.47h.9l5.38,9.7v-9.7h.88Z"/>
          <path d="M441.16,25.37h-5.48v-.84h5.48Zm0,3.21h-5.48v-.84h5.48Z"/>
          <path d="M452.58,23.4a3,3,0,0,1-.42,1.56A2.75,2.75,0,0,1,451,26a2.87,2.87,0,0,1,1.32,1.11,3,3,0,0,1,.49,1.71,3.16,3.16,0,0,1-.84,2.3,2.9,2.9,0,0,1-2.2.87,2.94,2.94,0,0,1-2.22-.86,3.22,3.22,0,0,1-.83-2.31,3.17,3.17,0,0,1,.47-1.72,2.85,2.85,0,0,1,1.3-1.1A2.72,2.72,0,0,1,447.38,25,3,3,0,0,1,447,23.4a3.18,3.18,0,0,1,.77-2.25,2.89,2.89,0,0,1,4.07,0A3.23,3.23,0,0,1,452.58,23.4ZM452,28.83a2.49,2.49,0,0,0-.62-1.74,2.14,2.14,0,0,0-3.12,0,2.81,2.81,0,0,0,0,3.47,2.08,2.08,0,0,0,1.6.64,2.06,2.06,0,0,0,1.57-.64A2.46,2.46,0,0,0,452,28.83Zm-.24-5.44a2.44,2.44,0,0,0-.55-1.62,1.76,1.76,0,0,0-1.39-.65,1.71,1.71,0,0,0-1.39.63,2.42,2.42,0,0,0-.53,1.64,2.33,2.33,0,0,0,.54,1.62,1.82,1.82,0,0,0,1.39.59,1.78,1.78,0,0,0,1.39-.61A2.3,2.3,0,0,0,451.71,23.39Z"/>
          <path d="M460.36,23.4a3,3,0,0,1-.42,1.56A2.75,2.75,0,0,1,458.8,26a2.9,2.9,0,0,1,1.33,1.11,3.1,3.1,0,0,1,.48,1.71,3.16,3.16,0,0,1-.84,2.3,2.9,2.9,0,0,1-2.2.87,2.94,2.94,0,0,1-2.22-.86,3.22,3.22,0,0,1-.83-2.31,3.17,3.17,0,0,1,.47-1.72,2.85,2.85,0,0,1,1.3-1.1A2.64,2.64,0,0,1,455.17,25a2.94,2.94,0,0,1-.42-1.56,3.18,3.18,0,0,1,.77-2.25,2.89,2.89,0,0,1,4.07,0A3.23,3.23,0,0,1,460.36,23.4Zm-.63,5.43a2.44,2.44,0,0,0-.62-1.74,2.14,2.14,0,0,0-3.12,0,2.81,2.81,0,0,0,0,3.47,2.09,2.09,0,0,0,1.6.64,2.06,2.06,0,0,0,1.57-.64A2.41,2.41,0,0,0,459.73,28.83Zm-.24-5.44a2.39,2.39,0,0,0-.55-1.62,1.76,1.76,0,0,0-1.39-.65,1.71,1.71,0,0,0-1.39.63,2.47,2.47,0,0,0-.53,1.64,2.33,2.33,0,0,0,.54,1.62,1.84,1.84,0,0,0,1.39.59A1.78,1.78,0,0,0,459,25,2.3,2.3,0,0,0,459.49,23.39Z"/>
          <path d="M465,27.37a14.33,14.33,0,0,1-.39,3.37,11.88,11.88,0,0,1-1.1,2.9A5.66,5.66,0,0,1,462,35.51l-.19-.61a5.68,5.68,0,0,0,1.36-2.14,14.48,14.48,0,0,0,1-5.53,14.86,14.86,0,0,0-.31-3.09,12.49,12.49,0,0,0-.86-2.69,5.4,5.4,0,0,0-1.17-1.75l.19-.62a6,6,0,0,1,1.61,2.07A13.21,13.21,0,0,1,465,27.37Z"/>
        </g>
        <g>
          <path d="M365.35,46.42V51h-.89V39.67h3.3a3.15,3.15,0,0,1,2.38.9,3.47,3.47,0,0,1,.87,2.5,3.43,3.43,0,0,1-.84,2.48,3.21,3.21,0,0,1-2.42.87Zm0-.84h2.41a2.29,2.29,0,0,0,1.74-.65,2.6,2.6,0,0,0,.62-1.85,2.67,2.67,0,0,0-.63-1.88,2.18,2.18,0,0,0-1.72-.69h-2.42Z"/>
          <path d="M373.87,51H373V39h.88Z"/>
          <path d="M380.73,51a5.06,5.06,0,0,1-.15-1.17,2.79,2.79,0,0,1-1,1,2.67,2.67,0,0,1-1.33.35,2.27,2.27,0,0,1-1.7-.62,2.38,2.38,0,0,1-.61-1.76,2.47,2.47,0,0,1,.85-2,3.54,3.54,0,0,1,2.34-.73h1.45V44.94a1.65,1.65,0,0,0-.45-1.3,2,2,0,0,0-1.32-.39,1.91,1.91,0,0,0-1.32.46,1.59,1.59,0,0,0-.51,1.22h-.87a2.31,2.31,0,0,1,.78-1.76,2.75,2.75,0,0,1,2-.73,2.69,2.69,0,0,1,1.93.64,2.49,2.49,0,0,1,.66,1.87v4.15a5.79,5.79,0,0,0,.22,1.86V51Zm-2.38-.68a2.36,2.36,0,0,0,1.36-.4,2.3,2.3,0,0,0,.86-1.06v-2h-1.38a2.79,2.79,0,0,0-1.79.52,1.75,1.75,0,0,0-.6,1.38C376.8,49.83,377.32,50.36,378.35,50.36Z"/>
          <path d="M386.47,50.39a1.84,1.84,0,0,0,1.39-.51,2.19,2.19,0,0,0,.52-1.45h.84a2.93,2.93,0,0,1-.83,2,2.66,2.66,0,0,1-1.92.74,2.72,2.72,0,0,1-2.28-1,4.64,4.64,0,0,1-.79-2.86v-1a4.69,4.69,0,0,1,.77-2.92,2.74,2.74,0,0,1,2.29-1,2.54,2.54,0,0,1,2,.8,3.26,3.26,0,0,1,.78,2.21h-.84a2.57,2.57,0,0,0-.53-1.62,1.74,1.74,0,0,0-1.39-.57,1.87,1.87,0,0,0-1.65.75,4.14,4.14,0,0,0-.53,2.33v1a4.14,4.14,0,0,0,.53,2.36A1.92,1.92,0,0,0,386.47,50.39Z"/>
          <path d="M393.84,51.2a2.92,2.92,0,0,1-2.33-1,4.14,4.14,0,0,1-.86-2.78v-1a4.71,4.71,0,0,1,.81-2.92,2.68,2.68,0,0,1,2.23-1.06,2.53,2.53,0,0,1,2.1.9,4.43,4.43,0,0,1,.74,2.75v.81h-5v.48a3.49,3.49,0,0,0,.62,2.24,2.09,2.09,0,0,0,1.75.79,2.51,2.51,0,0,0,2-.91l.46.58A2.92,2.92,0,0,1,393.84,51.2Zm-.15-8a1.86,1.86,0,0,0-1.57.72,3.67,3.67,0,0,0-.61,2.11h4.15v-.23C395.62,44.12,395,43.25,393.69,43.25Z"/>
          <path d="M404.15,47.21a5.26,5.26,0,0,1-.69,3,2.27,2.27,0,0,1-2,1,2.36,2.36,0,0,1-2.21-1.29l0,1.13h-.81V39h.86v4.73a2.53,2.53,0,0,1,4.22-.37,5.17,5.17,0,0,1,.7,2.88Zm-.87-.78A4.65,4.65,0,0,0,402.8,44a1.69,1.69,0,0,0-1.56-.77,2,2,0,0,0-2,1.52V49a2.28,2.28,0,0,0,.78,1,2.14,2.14,0,0,0,1.25.36,1.68,1.68,0,0,0,1.52-.75,4.49,4.49,0,0,0,.5-2.35Z"/>
          <path d="M405.83,46.39a4.58,4.58,0,0,1,.82-2.89,2.94,2.94,0,0,1,4.52,0,4.61,4.61,0,0,1,.84,2.88v.9a4.49,4.49,0,0,1-.84,2.9,3,3,0,0,1-4.48,0,4.36,4.36,0,0,1-.86-2.79Zm.87.87a3.94,3.94,0,0,0,.59,2.29,1.89,1.89,0,0,0,1.64.84,1.86,1.86,0,0,0,1.63-.81,4,4,0,0,0,.58-2.3v-.9a3.9,3.9,0,0,0-.6-2.3,2,2,0,0,0-3.23,0,3.91,3.91,0,0,0-.61,2.26Z"/>
          <path d="M417.51,46.45a13.78,13.78,0,0,1,.41-3.41A11.83,11.83,0,0,1,419,40.12a5.59,5.59,0,0,1,1.49-1.84l.2.66a5.26,5.26,0,0,0-1.18,1.71,11.79,11.79,0,0,0-.85,2.65,16,16,0,0,0-.31,3.28,15,15,0,0,0,.31,3.11,11.46,11.46,0,0,0,.85,2.67,5.37,5.37,0,0,0,1.18,1.74l-.2.61a5.06,5.06,0,0,1-1.08-1.15,9.4,9.4,0,0,1-1-1.85,12.72,12.72,0,0,1-.69-2.35A14.31,14.31,0,0,1,417.51,46.45Z"/>
          <path d="M429.6,51h-.89l-5.37-9.69V51h-.9V39.67h.9l5.38,9.7v-9.7h.88Z"/>
          <path d="M441.16,44.57h-5.47v-.84h5.47Zm0,3.21h-5.47v-.84h5.47Z"/>
          <path d="M452.58,42.6a3,3,0,0,1-.42,1.56A2.75,2.75,0,0,1,451,45.21a2.9,2.9,0,0,1,1.33,1.11,3.1,3.1,0,0,1,.48,1.71,3.16,3.16,0,0,1-.84,2.3,2.9,2.9,0,0,1-2.2.87,2.94,2.94,0,0,1-2.22-.86,3.22,3.22,0,0,1-.83-2.31,3.17,3.17,0,0,1,.47-1.72,2.85,2.85,0,0,1,1.3-1.1,2.72,2.72,0,0,1-1.13-1.05A3,3,0,0,1,447,42.6a3.18,3.18,0,0,1,.77-2.25,2.89,2.89,0,0,1,4.07,0A3.25,3.25,0,0,1,452.58,42.6ZM452,48a2.44,2.44,0,0,0-.62-1.74,2.14,2.14,0,0,0-3.12,0,2.81,2.81,0,0,0,0,3.47,2.09,2.09,0,0,0,1.6.64,2.06,2.06,0,0,0,1.57-.64A2.46,2.46,0,0,0,452,48Zm-.24-5.44a2.39,2.39,0,0,0-.55-1.62,1.76,1.76,0,0,0-1.39-.65,1.71,1.71,0,0,0-1.39.63,2.47,2.47,0,0,0-.53,1.64,2.33,2.33,0,0,0,.54,1.62,1.82,1.82,0,0,0,1.39.59,1.78,1.78,0,0,0,1.39-.61A2.3,2.3,0,0,0,451.71,42.59Z"/>
          <path d="M455.23,45.21l.47-5.54h4.81v.89h-4.07l-.32,3.81a2.69,2.69,0,0,1,1.76-.62,2.46,2.46,0,0,1,2.07,1,4.3,4.3,0,0,1,.76,2.67A4.57,4.57,0,0,1,460,50.2a2.5,2.5,0,0,1-2.13,1,2.65,2.65,0,0,1-2-.84,3.67,3.67,0,0,1-.89-2.31h.83a3,3,0,0,0,.65,1.74,1.85,1.85,0,0,0,1.45.6,1.68,1.68,0,0,0,1.5-.78,3.93,3.93,0,0,0,.51-2.18,3.32,3.32,0,0,0-.57-2,1.84,1.84,0,0,0-1.55-.78,2.37,2.37,0,0,0-1,.18,2.5,2.5,0,0,0-.83.63Z"/>
          <path d="M465,46.57a14.33,14.33,0,0,1-.39,3.37,11.49,11.49,0,0,1-1.1,2.9A5.66,5.66,0,0,1,462,54.71l-.19-.61A5.68,5.68,0,0,0,463.19,52a14.48,14.48,0,0,0,1-5.53,14.86,14.86,0,0,0-.31-3.09,12,12,0,0,0-.86-2.69,5.4,5.4,0,0,0-1.17-1.75l.19-.62a5.84,5.84,0,0,1,1.61,2.07A13.21,13.21,0,0,1,465,46.57Z"/>
        </g>
        <g>
          <rect x="123.62" y="317.74" width="144.21" height="134.03" fill="#f2a007"/>
          <rect x="267.83" y="209.79" width="144.21" height="241.98" fill="#b3b3b3"/>
          <path d="M195.73,316.74v14m0-14v-14m-2.28,28.08H198m-4.56-28.08H198" fill="none" stroke="#000" stroke-linejoin="round"/>
          <path d="M339.94,209.68V225m0-15.36V194.32M337.66,225h4.56m-4.56-30.72h4.56" fill="none" stroke="#000" stroke-linejoin="round"/>
          <line x1="107.54" y1="451.77" x2="428.06" y2="451.77" fill="none" stroke="#000" stroke-linejoin="round" stroke-width="1.25"/>
          <line x1="195.73" y1="451.77" x2="195.73" y2="455.49" fill="none" stroke="#000" stroke-linejoin="round" stroke-width="1.25"/>
          <line x1="339.94" y1="451.77" x2="339.94" y2="455.49" fill="none" stroke="#000" stroke-linejoin="round" stroke-width="1.25"/>
        </g>
        <path d="M180.65,286.81H182a1.25,1.25,0,0,0,1.12-.54,2.47,2.47,0,0,0,.36-1.42,2.09,2.09,0,0,0-.37-1.32,1.23,1.23,0,0,0-1.92,0,1.69,1.69,0,0,0-.37,1.13H178a3.94,3.94,0,0,1,.51-2,3.55,3.55,0,0,1,1.44-1.38,4.7,4.7,0,0,1,5.12.59,3.94,3.94,0,0,1,1.11,3,3.48,3.48,0,0,1-1.82,3.06,3,3,0,0,1,1.49,1.29,4.4,4.4,0,0,1-.71,5.07,4.42,4.42,0,0,1-3.17,1.14,3.89,3.89,0,0,1-4.1-4.09h2.76a2,2,0,0,0,.41,1.28,1.23,1.23,0,0,0,1,.52,1.37,1.37,0,0,0,1.13-.53,2.19,2.19,0,0,0,.41-1.41c0-1.4-.54-2.1-1.63-2.11h-1.35Z"/>
        <path d="M197,289.3a8,8,0,0,1-1.07,4.51,3.78,3.78,0,0,1-6.09,0,7.73,7.73,0,0,1-1.11-4.35v-2.68a8,8,0,0,1,1.07-4.5,3.78,3.78,0,0,1,6.11,0,7.82,7.82,0,0,1,1.09,4.4Zm-2.78-2.88a7.28,7.28,0,0,0-.33-2.52,1.11,1.11,0,0,0-1-.84c-.88,0-1.34,1-1.37,3.07v3.55a7.18,7.18,0,0,0,.34,2.56,1.11,1.11,0,0,0,1.05.84,1.09,1.09,0,0,0,1-.79,7,7,0,0,0,.34-2.41Z"/>
        <path d="M199.57,293.77a1.46,1.46,0,0,1,.44-1.09,1.59,1.59,0,0,1,1.16-.43,1.63,1.63,0,0,1,1.15.42,1.41,1.41,0,0,1,.46,1.1,1.4,1.4,0,0,1-.46,1.1,1.66,1.66,0,0,1-1.15.41,1.63,1.63,0,0,1-1.15-.42A1.42,1.42,0,0,1,199.57,293.77Z"/>
        <path d="M213,282.55l-4.49,12.63h-2.92l4.51-11.93h-5.7V281H213Z"/>
        <path d="M322.69,179.54l.7-7.22h6.89v2.36h-4.62l-.26,3a2.94,2.94,0,0,1,1.65-.54,3.2,3.2,0,0,1,2.71,1.25,5.69,5.69,0,0,1,1,3.54,5,5,0,0,1-1.14,3.44,3.76,3.76,0,0,1-3,1.31,4.23,4.23,0,0,1-2.08-.53,3.91,3.91,0,0,1-1.51-1.48,4.18,4.18,0,0,1-.56-2.15h2.73a2.62,2.62,0,0,0,.44,1.38,1.18,1.18,0,0,0,1,.49,1.16,1.16,0,0,0,1-.66,4.1,4.1,0,0,0,.37-2,3.27,3.27,0,0,0-.44-1.86,1.6,1.6,0,0,0-2.46-.08l-.17.24Z"/>
        <path d="M333.23,179.54l.7-7.22h6.89v2.36H336.2l-.26,3a2.94,2.94,0,0,1,1.65-.54,3.2,3.2,0,0,1,2.71,1.25,5.69,5.69,0,0,1,1,3.54,5,5,0,0,1-1.14,3.44,3.76,3.76,0,0,1-3,1.31,4.23,4.23,0,0,1-2.08-.53,4,4,0,0,1-1.51-1.48,4.18,4.18,0,0,1-.56-2.15h2.73a2.62,2.62,0,0,0,.44,1.38,1.18,1.18,0,0,0,1,.49,1.16,1.16,0,0,0,1.05-.66,4.1,4.1,0,0,0,.37-2,3.27,3.27,0,0,0-.44-1.86,1.6,1.6,0,0,0-2.46-.08l-.17.24Z"/>
        <path d="M343.79,185.13a1.46,1.46,0,0,1,.44-1.09,1.59,1.59,0,0,1,1.16-.43,1.63,1.63,0,0,1,1.15.42,1.41,1.41,0,0,1,.46,1.1,1.4,1.4,0,0,1-.46,1.1,1.8,1.8,0,0,1-2.3,0A1.42,1.42,0,0,1,343.79,185.13Z"/>
        <path d="M351.31,178.17h1.33a1.25,1.25,0,0,0,1.12-.54,2.47,2.47,0,0,0,.36-1.42,2.09,2.09,0,0,0-.37-1.32,1.23,1.23,0,0,0-1.92,0,1.69,1.69,0,0,0-.37,1.13H348.7a3.94,3.94,0,0,1,.51-2,3.55,3.55,0,0,1,1.44-1.38,4.7,4.7,0,0,1,5.12.59,3.94,3.94,0,0,1,1.11,3,3.48,3.48,0,0,1-1.82,3.06,3,3,0,0,1,1.49,1.29,4.4,4.4,0,0,1-.71,5.07,4.42,4.42,0,0,1-3.17,1.14,3.89,3.89,0,0,1-4.1-4.09h2.76a2,2,0,0,0,.41,1.28,1.23,1.23,0,0,0,1,.52,1.37,1.37,0,0,0,1.13-.53,2.19,2.19,0,0,0,.41-1.41c0-1.4-.54-2.1-1.63-2.11h-1.35Z"/>
        <g>
          <line x1="74.03" y1="451.77" x2="74.03" y2="5.01" fill="none" stroke="#000" stroke-linejoin="round" stroke-width="1.25"/>
          <line x1="69.47" y1="451.77" x2="74.03" y2="451.77" fill="none" stroke="#000" stroke-linejoin="round" stroke-width="1.25"/>
          <line x1="69.47" y1="407.09" x2="74.03" y2="407.09" fill="none" stroke="#000" stroke-linejoin="round" stroke-width="1.25"/>
          <line x1="69.47" y1="362.41" x2="74.03" y2="362.41" fill="none" stroke="#000" stroke-linejoin="round" stroke-width="1.25"/>
          <line x1="69.47" y1="317.74" x2="74.03" y2="317.74" fill="none" stroke="#000" stroke-linejoin="round" stroke-width="1.25"/>
          <line x1="69.47" y1="273.06" x2="74.03" y2="273.06" fill="none" stroke="#000" stroke-linejoin="round" stroke-width="1.25"/>
          <line x1="69.47" y1="228.39" x2="74.03" y2="228.39" fill="none" stroke="#000" stroke-linejoin="round" stroke-width="1.25"/>
          <line x1="69.47" y1="183.71" x2="74.03" y2="183.71" fill="none" stroke="#000" stroke-linejoin="round" stroke-width="1.25"/>
          <line x1="69.47" y1="139.03" x2="74.03" y2="139.03" fill="none" stroke="#000" stroke-linejoin="round" stroke-width="1.25"/>
          <line x1="69.47" y1="94.36" x2="74.03" y2="94.36" fill="none" stroke="#000" stroke-linejoin="round" stroke-width="1.25"/>
          <line x1="69.47" y1="49.68" x2="74.03" y2="49.68" fill="none" stroke="#000" stroke-linejoin="round" stroke-width="1.25"/>
          <line x1="69.47" y1="5.01" x2="74.03" y2="5.01" fill="none" stroke="#000" stroke-linejoin="round" stroke-width="1.25"/>
        </g>
        <path d="M60.62,451.27a9.39,9.39,0,0,1-.17,1.92,4.08,4.08,0,0,1-.56,1.46,2.63,2.63,0,0,1-1,.93,3.8,3.8,0,0,1-3,0,2.42,2.42,0,0,1-1-.9,4.28,4.28,0,0,1-.49-1.44,12.12,12.12,0,0,1-.14-1.91,9.42,9.42,0,0,1,.18-1.92A4.08,4.08,0,0,1,55,448a2.65,2.65,0,0,1,1-.93,3.3,3.3,0,0,1,1.51-.32,3.22,3.22,0,0,1,1.51.31,2.35,2.35,0,0,1,1,.9,4.08,4.08,0,0,1,.49,1.43A12.42,12.42,0,0,1,60.62,451.27Zm-1.81.09c0-.42,0-.79,0-1.11a5.7,5.7,0,0,0-.1-.84,3.45,3.45,0,0,0-.18-.61,1.26,1.26,0,0,0-.26-.39.81.81,0,0,0-.34-.21,1.44,1.44,0,0,0-.43-.06,1.05,1.05,0,0,0-.66.19,1.27,1.27,0,0,0-.42.59,3.39,3.39,0,0,0-.22,1,13.46,13.46,0,0,0-.06,1.36,11.57,11.57,0,0,0,.08,1.57,3.45,3.45,0,0,0,.23,1,1.08,1.08,0,0,0,.42.52,1.17,1.17,0,0,0,.61.14,1.16,1.16,0,0,0,.47-.08.93.93,0,0,0,.36-.26,1.49,1.49,0,0,0,.26-.43,3.63,3.63,0,0,0,.17-.6,5.69,5.69,0,0,0,.08-.78C58.8,452,58.81,451.71,58.81,451.36Z"/>
        <path d="M53.26,410.38a2.58,2.58,0,0,1,0,.32.64.64,0,0,1-.06.22.2.2,0,0,1-.09.11.17.17,0,0,1-.1,0h-4.9a.17.17,0,0,1-.1,0,.35.35,0,0,1-.09-.11,2.18,2.18,0,0,1-.06-.22,2.58,2.58,0,0,1,0-.32,2.92,2.92,0,0,1,0-.33.64.64,0,0,1,.06-.22.36.36,0,0,1,.08-.12.21.21,0,0,1,.11,0h1.65V403.9l-1.42.79a1,1,0,0,1-.26.09.17.17,0,0,1-.16,0,.42.42,0,0,1-.08-.2,4,4,0,0,1,0-.41,2.1,2.1,0,0,1,0-.27.84.84,0,0,1,0-.18.36.36,0,0,1,.08-.12l.13-.1L50,402.22a.2.2,0,0,1,.08,0l.13,0h1a1,1,0,0,1,.24,0,.15.15,0,0,1,.11.06.17.17,0,0,1,0,.1v7.33H53a.25.25,0,0,1,.11,0l.09.12a1,1,0,0,1,.05.22A2.92,2.92,0,0,1,53.26,410.38Z"/>
        <path d="M60.61,406.59a10.15,10.15,0,0,1-.17,1.92,4,4,0,0,1-.56,1.46,2.51,2.51,0,0,1-1,.93,3.32,3.32,0,0,1-1.52.32,3.18,3.18,0,0,1-1.5-.31,2.35,2.35,0,0,1-1-.9,4.08,4.08,0,0,1-.49-1.43,12.16,12.16,0,0,1-.14-1.92,10.12,10.12,0,0,1,.17-1.91,4.34,4.34,0,0,1,.57-1.47,2.53,2.53,0,0,1,1-.92,3.8,3.8,0,0,1,3,0,2.35,2.35,0,0,1,1,.9,4,4,0,0,1,.48,1.43A11,11,0,0,1,60.61,406.59Zm-1.82.09q0-.63,0-1.11a5.94,5.94,0,0,0-.11-.84,2.55,2.55,0,0,0-.17-.6,1.38,1.38,0,0,0-.26-.4.88.88,0,0,0-.34-.21,1.44,1.44,0,0,0-.43-.06,1.11,1.11,0,0,0-.67.2,1.39,1.39,0,0,0-.42.58,3.89,3.89,0,0,0-.21,1,13.39,13.39,0,0,0-.06,1.35,13.64,13.64,0,0,0,.07,1.57,3.58,3.58,0,0,0,.24,1,1.08,1.08,0,0,0,.41.51,1.32,1.32,0,0,0,1.09.06,1.07,1.07,0,0,0,.36-.25,1.54,1.54,0,0,0,.25-.44,2.87,2.87,0,0,0,.17-.6c0-.23.07-.49.09-.77S58.79,407,58.79,406.68Z"/>
        <path d="M53.34,365.67c0,.13,0,.25,0,.34a1.09,1.09,0,0,1-.06.23.25.25,0,0,1-.09.13.21.21,0,0,1-.12,0H48l-.26,0a.42.42,0,0,1-.18-.11.55.55,0,0,1-.1-.23,2.06,2.06,0,0,1,0-.39c0-.15,0-.28,0-.39a1.23,1.23,0,0,1,.08-.29,1,1,0,0,1,.14-.24,2.19,2.19,0,0,1,.22-.27l1.54-1.64a8.44,8.44,0,0,0,.74-.88,6.09,6.09,0,0,0,.44-.72,2.7,2.7,0,0,0,.21-.6,2.37,2.37,0,0,0,.06-.52,1.25,1.25,0,0,0-.07-.43,1,1,0,0,0-.57-.59,1.5,1.5,0,0,0-.5-.08,2.17,2.17,0,0,0-.71.1,3.65,3.65,0,0,0-.55.23l-.4.23a.41.41,0,0,1-.24.11.14.14,0,0,1-.11,0,.3.3,0,0,1-.07-.14,1.22,1.22,0,0,1,0-.25c0-.11,0-.24,0-.4a2,2,0,0,1,0-.26.58.58,0,0,1,0-.19.39.39,0,0,1,0-.13.47.47,0,0,1,.12-.14,1.24,1.24,0,0,1,.32-.21,3.32,3.32,0,0,1,.56-.25,5,5,0,0,1,.74-.2,3.89,3.89,0,0,1,.85-.09,3.71,3.71,0,0,1,1.21.18,2.48,2.48,0,0,1,.86.49,1.82,1.82,0,0,1,.51.74,2.51,2.51,0,0,1,.17.92,4,4,0,0,1-.09.85,3.15,3.15,0,0,1-.34.9,7.31,7.31,0,0,1-.73,1.07c-.32.39-.74.84-1.26,1.36l-1,1.06H53a.28.28,0,0,1,.13,0,.34.34,0,0,1,.1.13.64.64,0,0,1,.06.23A2.92,2.92,0,0,1,53.34,365.67Z"/>
        <path d="M60.61,361.93a10.15,10.15,0,0,1-.17,1.92,4.08,4.08,0,0,1-.56,1.46,2.58,2.58,0,0,1-1,.93,3.32,3.32,0,0,1-1.52.32,3.18,3.18,0,0,1-1.5-.31,2.35,2.35,0,0,1-1-.9,4.08,4.08,0,0,1-.49-1.43,12.35,12.35,0,0,1-.14-1.92,10.12,10.12,0,0,1,.17-1.91,4.26,4.26,0,0,1,.57-1.47,2.53,2.53,0,0,1,1-.92,3.69,3.69,0,0,1,3,0,2.32,2.32,0,0,1,1,.89,4.14,4.14,0,0,1,.48,1.44A11,11,0,0,1,60.61,361.93Zm-1.82.09q0-.63,0-1.11a5.94,5.94,0,0,0-.11-.84,2.55,2.55,0,0,0-.17-.6,1.38,1.38,0,0,0-.26-.4.88.88,0,0,0-.34-.21,1.44,1.44,0,0,0-.43-.06,1.11,1.11,0,0,0-.67.2,1.39,1.39,0,0,0-.42.58,3.89,3.89,0,0,0-.21,1,13.25,13.25,0,0,0-.06,1.35,13.64,13.64,0,0,0,.07,1.57,3.58,3.58,0,0,0,.24,1,1.08,1.08,0,0,0,.41.51,1.32,1.32,0,0,0,1.09.06,1.07,1.07,0,0,0,.36-.25,1.54,1.54,0,0,0,.25-.44,2.87,2.87,0,0,0,.17-.6c0-.23.07-.49.09-.77S58.79,362.37,58.79,362Z"/>
        <path d="M53.3,319.14a2.59,2.59,0,0,1-.25,1.18,2.5,2.5,0,0,1-.71.87,3.21,3.21,0,0,1-1.08.53,5,5,0,0,1-1.38.18,4.57,4.57,0,0,1-.85-.07,3.83,3.83,0,0,1-.7-.16,2.86,2.86,0,0,1-.51-.2,1.5,1.5,0,0,1-.26-.15.38.38,0,0,1-.09-.13.6.6,0,0,1,0-.16,1.2,1.2,0,0,1,0-.23c0-.09,0-.21,0-.34a1.23,1.23,0,0,1,.06-.46.17.17,0,0,1,.16-.12.66.66,0,0,1,.24.09,4.27,4.27,0,0,0,.42.2,5,5,0,0,0,.62.2,3.12,3.12,0,0,0,.79.09,2.31,2.31,0,0,0,.67-.09,1.51,1.51,0,0,0,.49-.25,1.14,1.14,0,0,0,.3-.39,1.36,1.36,0,0,0,.1-.51,1.28,1.28,0,0,0-.12-.56,1.19,1.19,0,0,0-.36-.42,2.09,2.09,0,0,0-.6-.27,3.49,3.49,0,0,0-.84-.09h-.77a.33.33,0,0,1-.15,0,.16.16,0,0,1-.1-.1.53.53,0,0,1-.06-.21,3,3,0,0,1,0-.34,2.77,2.77,0,0,1,0-.33.64.64,0,0,1,.05-.19.24.24,0,0,1,.1-.1.29.29,0,0,1,.14,0h.77a2.55,2.55,0,0,0,.71-.09,1.49,1.49,0,0,0,.52-.26,1.3,1.3,0,0,0,.32-.42,1.33,1.33,0,0,0,.11-.54,1.26,1.26,0,0,0-.08-.43,1,1,0,0,0-.22-.35,1.28,1.28,0,0,0-.38-.23,1.55,1.55,0,0,0-.55-.08,2.09,2.09,0,0,0-.67.1,5.36,5.36,0,0,0-1,.47.68.68,0,0,1-.26.11l-.1,0a.29.29,0,0,1-.07-.1,1.49,1.49,0,0,1,0-.19,3.33,3.33,0,0,1,0-.34,2.27,2.27,0,0,1,0-.28.92.92,0,0,1,0-.19.39.39,0,0,1,.06-.13.47.47,0,0,1,.09-.12,1.65,1.65,0,0,1,.29-.2,2.93,2.93,0,0,1,.53-.25,5.53,5.53,0,0,1,.74-.21,4.49,4.49,0,0,1,.92-.09,3.94,3.94,0,0,1,1.14.15,2.4,2.4,0,0,1,.84.44,1.89,1.89,0,0,1,.51.7,2.3,2.3,0,0,1,.18.93,2.63,2.63,0,0,1-.11.76,2.1,2.1,0,0,1-.3.62,1.83,1.83,0,0,1-.49.47,2.39,2.39,0,0,1-.69.29v0a2.36,2.36,0,0,1,.83.23,2.14,2.14,0,0,1,.63.46,1.91,1.91,0,0,1,.39.62A2,2,0,0,1,53.3,319.14Z"/>
        <path d="M60.61,317.27a10.15,10.15,0,0,1-.17,1.92,4.08,4.08,0,0,1-.56,1.46,2.65,2.65,0,0,1-1,.93,3.32,3.32,0,0,1-1.52.32,3.18,3.18,0,0,1-1.5-.31,2.35,2.35,0,0,1-1-.9,4.08,4.08,0,0,1-.49-1.43,12.35,12.35,0,0,1-.14-1.92,10.31,10.31,0,0,1,.17-1.92A4.28,4.28,0,0,1,55,314a2.53,2.53,0,0,1,1-.92,3.22,3.22,0,0,1,1.52-.33A3.38,3.38,0,0,1,59,313a2.42,2.42,0,0,1,1,.9,4.07,4.07,0,0,1,.48,1.44A11,11,0,0,1,60.61,317.27Zm-1.82.09q0-.63,0-1.11a5.75,5.75,0,0,0-.11-.84,2.8,2.8,0,0,0-.17-.61,1.47,1.47,0,0,0-.26-.39.88.88,0,0,0-.34-.21,1.44,1.44,0,0,0-.43-.06,1.11,1.11,0,0,0-.67.19,1.42,1.42,0,0,0-.42.59,3.9,3.9,0,0,0-.21,1,13.46,13.46,0,0,0-.06,1.36,13.76,13.76,0,0,0,.07,1.57,3.58,3.58,0,0,0,.24,1,1.08,1.08,0,0,0,.41.51,1.32,1.32,0,0,0,1.09.06,1.1,1.1,0,0,0,.36-.26,1.35,1.35,0,0,0,.25-.43,2.87,2.87,0,0,0,.17-.6,7.67,7.67,0,0,0,.09-.78C58.79,318,58.79,317.71,58.79,317.36Z"/>
        <path d="M53.62,274.53a1.44,1.44,0,0,1-.08.53c0,.12-.11.18-.19.18h-.79v1.61a.19.19,0,0,1,0,.12.37.37,0,0,1-.14.08.93.93,0,0,1-.27.05,2.62,2.62,0,0,1-.43,0,2.49,2.49,0,0,1-.41,0,.93.93,0,0,1-.27-.05.3.3,0,0,1-.14-.08.27.27,0,0,1,0-.12v-1.61h-3.4a.47.47,0,0,1-.17,0,.27.27,0,0,1-.13-.11,1,1,0,0,1-.07-.25,2.56,2.56,0,0,1,0-.43v-.38a2.54,2.54,0,0,1,0-.29,1.68,1.68,0,0,1,.07-.24c0-.08.07-.16.11-.25L50,268.41a.29.29,0,0,1,.11-.11.9.9,0,0,1,.23-.07l.38-.05h.55a5.16,5.16,0,0,1,.59,0,2.87,2.87,0,0,1,.4.05.87.87,0,0,1,.21.09.16.16,0,0,1,.07.13v5.34h.79c.07,0,.13.06.19.17A1.47,1.47,0,0,1,53.62,274.53Zm-2.79-4.81h0l-2.34,4.08h2.36Z"/>
        <path d="M60.61,272.61a10.15,10.15,0,0,1-.17,1.92,4.08,4.08,0,0,1-.56,1.46,2.65,2.65,0,0,1-1,.93,3.78,3.78,0,0,1-3,0,2.35,2.35,0,0,1-1-.9,4.08,4.08,0,0,1-.49-1.43,12.35,12.35,0,0,1-.14-1.92,10.31,10.31,0,0,1,.17-1.92A4.28,4.28,0,0,1,55,269.3a2.63,2.63,0,0,1,1-.93,3.8,3.8,0,0,1,3,0,2.42,2.42,0,0,1,1,.9,4.08,4.08,0,0,1,.48,1.43A11.23,11.23,0,0,1,60.61,272.61Zm-1.82.09q0-.63,0-1.11a5.57,5.57,0,0,0-.11-.84,2.8,2.8,0,0,0-.17-.61,1.47,1.47,0,0,0-.26-.39.88.88,0,0,0-.34-.21,1.44,1.44,0,0,0-.43-.06,1.11,1.11,0,0,0-.67.19,1.42,1.42,0,0,0-.42.59,3.8,3.8,0,0,0-.21,1,13.46,13.46,0,0,0-.06,1.36,13.76,13.76,0,0,0,.07,1.57,3.41,3.41,0,0,0,.24,1,1.06,1.06,0,0,0,.41.52,1.32,1.32,0,0,0,1.09.06,1.1,1.1,0,0,0,.36-.26,1.48,1.48,0,0,0,.25-.43,2.87,2.87,0,0,0,.17-.6,7.67,7.67,0,0,0,.09-.78C58.79,273.36,58.79,273.05,58.79,272.7Z"/>
        <path d="M53.26,229.53a3.08,3.08,0,0,1-.25,1.28,2.5,2.5,0,0,1-.71.95,3.19,3.19,0,0,1-1.09.6,5.49,5.49,0,0,1-2.21.15,5.14,5.14,0,0,1-.66-.13,2.82,2.82,0,0,1-.49-.16.82.82,0,0,1-.24-.13.31.31,0,0,1-.09-.11.54.54,0,0,1,0-.15c0-.05,0-.13,0-.21v-.31a3.22,3.22,0,0,1,0-.33.87.87,0,0,1,0-.21.31.31,0,0,1,.08-.12.14.14,0,0,1,.09,0,.46.46,0,0,1,.21.07,2.57,2.57,0,0,0,.37.18,4.21,4.21,0,0,0,.56.17,3.05,3.05,0,0,0,.79.08,2.74,2.74,0,0,0,.72-.08,1.34,1.34,0,0,0,.55-.26,1.23,1.23,0,0,0,.35-.46,1.47,1.47,0,0,0,.13-.66,1.5,1.5,0,0,0-.11-.58,1,1,0,0,0-.32-.44,1.38,1.38,0,0,0-.57-.27,3.45,3.45,0,0,0-.85-.08,5.39,5.39,0,0,0-.72,0c-.22,0-.42,0-.61,0a.39.39,0,0,1-.29-.1.58.58,0,0,1-.08-.37v-3.85a.62.62,0,0,1,.1-.4.44.44,0,0,1,.34-.12h4.2a.18.18,0,0,1,.12.05.22.22,0,0,1,.09.13.64.64,0,0,1,.06.23c0,.1,0,.22,0,.36a1.7,1.7,0,0,1-.07.59c0,.13-.11.19-.21.19H49.29V227l.48,0h.49a4.51,4.51,0,0,1,1.28.17,2.41,2.41,0,0,1,.94.5,1.92,1.92,0,0,1,.58.81A3,3,0,0,1,53.26,229.53Z"/>
        <path d="M60.61,227.94a10.12,10.12,0,0,1-.17,1.91,4.14,4.14,0,0,1-.56,1.47,2.55,2.55,0,0,1-1,.92,3.78,3.78,0,0,1-3,0,2.35,2.35,0,0,1-1-.9,4.08,4.08,0,0,1-.49-1.43,12.16,12.16,0,0,1-.14-1.92,10.12,10.12,0,0,1,.17-1.91,4.34,4.34,0,0,1,.57-1.47,2.53,2.53,0,0,1,1-.92,3.8,3.8,0,0,1,3,0,2.42,2.42,0,0,1,1,.9,4.08,4.08,0,0,1,.48,1.43A11.07,11.07,0,0,1,60.61,227.94Zm-1.82.08q0-.63,0-1.11a5.94,5.94,0,0,0-.11-.84,2.55,2.55,0,0,0-.17-.6,1.38,1.38,0,0,0-.26-.4,1.2,1.2,0,0,0-.34-.21,1.44,1.44,0,0,0-.43-.06,1.11,1.11,0,0,0-.67.2,1.39,1.39,0,0,0-.42.58,3.89,3.89,0,0,0-.21,1,16.44,16.44,0,0,0,0,2.92,3.49,3.49,0,0,0,.24,1,1.08,1.08,0,0,0,.41.51,1.32,1.32,0,0,0,1.09.06,1.07,1.07,0,0,0,.36-.25,1.62,1.62,0,0,0,.25-.43,3.16,3.16,0,0,0,.17-.61,7.45,7.45,0,0,0,.09-.77C58.79,228.69,58.79,228.37,58.79,228Z"/>
        <path d="M53.48,184.77a3.55,3.55,0,0,1-.21,1.24,2.64,2.64,0,0,1-.6,1,2.71,2.71,0,0,1-1,.65,3.52,3.52,0,0,1-1.34.24,3.83,3.83,0,0,1-1.08-.14,2.52,2.52,0,0,1-.8-.41,2.09,2.09,0,0,1-.54-.64,3.08,3.08,0,0,1-.34-.85,5.26,5.26,0,0,1-.18-1c0-.37,0-.76,0-1.18a10.52,10.52,0,0,1,.06-1.09,6.77,6.77,0,0,1,.19-1.11,4.8,4.8,0,0,1,.42-1.05,3.23,3.23,0,0,1,.69-.87,3,3,0,0,1,1-.59,4,4,0,0,1,1.42-.22,4.71,4.71,0,0,1,.53,0l.49.08a2.21,2.21,0,0,1,.38.11.67.67,0,0,1,.21.1l.08.1a.56.56,0,0,1,0,.12l0,.16v.24c0,.14,0,.26,0,.35a1.06,1.06,0,0,1,0,.22.24.24,0,0,1-.08.11.16.16,0,0,1-.12,0,.76.76,0,0,1-.21-.05l-.31-.1a3.76,3.76,0,0,0-.44-.09,3.37,3.37,0,0,0-.58,0,2,2,0,0,0-.94.2,1.85,1.85,0,0,0-.62.56,2.42,2.42,0,0,0-.35.82,5.16,5.16,0,0,0-.12,1,3.63,3.63,0,0,1,.35-.2,4.09,4.09,0,0,1,.42-.16,3.67,3.67,0,0,1,.5-.11,3.45,3.45,0,0,1,.57-.05,3,3,0,0,1,1.15.19,1.94,1.94,0,0,1,1.23,1.36A3.61,3.61,0,0,1,53.48,184.77Zm-1.77.17a2.74,2.74,0,0,0-.06-.61,1.16,1.16,0,0,0-.2-.45.82.82,0,0,0-.36-.27,1.32,1.32,0,0,0-.55-.1,2.33,2.33,0,0,0-.38,0,2.37,2.37,0,0,0-.36.09,2.67,2.67,0,0,0-.34.15l-.31.18a7.16,7.16,0,0,0,.08,1.23,2.4,2.4,0,0,0,.24.78.93.93,0,0,0,.41.4,1.25,1.25,0,0,0,.56.12,1.31,1.31,0,0,0,.55-.11,1.16,1.16,0,0,0,.4-.33,1.79,1.79,0,0,0,.24-.5A2.45,2.45,0,0,0,51.71,184.94Z"/>
        <path d="M60.61,183.26a10.15,10.15,0,0,1-.17,1.92,4.08,4.08,0,0,1-.56,1.46,2.65,2.65,0,0,1-1,.93,3.78,3.78,0,0,1-3,0,2.35,2.35,0,0,1-1-.9,4.07,4.07,0,0,1-.49-1.44,12.12,12.12,0,0,1-.14-1.91,10.23,10.23,0,0,1,.17-1.92A4.28,4.28,0,0,1,55,180a2.63,2.63,0,0,1,1-.93,3.8,3.8,0,0,1,3,0,2.42,2.42,0,0,1,1,.9,4.08,4.08,0,0,1,.48,1.43A11.23,11.23,0,0,1,60.61,183.26Zm-1.82.09q0-.63,0-1.11a5.57,5.57,0,0,0-.11-.84,2.8,2.8,0,0,0-.17-.61,1.47,1.47,0,0,0-.26-.39.88.88,0,0,0-.34-.21,1.44,1.44,0,0,0-.43-.06,1.11,1.11,0,0,0-.67.19,1.42,1.42,0,0,0-.42.59,3.8,3.8,0,0,0-.21,1,13.46,13.46,0,0,0-.06,1.36,13.76,13.76,0,0,0,.07,1.57,3.41,3.41,0,0,0,.24,1,1.06,1.06,0,0,0,.41.52,1.32,1.32,0,0,0,1.09.06,1.1,1.1,0,0,0,.36-.26,1.48,1.48,0,0,0,.25-.43,2.87,2.87,0,0,0,.17-.6,7.67,7.67,0,0,0,.09-.78C58.79,184,58.79,183.7,58.79,183.35Z"/>
        <path d="M53.33,134.94c0,.14,0,.25,0,.35a1.93,1.93,0,0,1,0,.27,1,1,0,0,1-.06.25l-.1.24-2.92,6.76a.56.56,0,0,1-.1.15.47.47,0,0,1-.19.08,1.55,1.55,0,0,1-.29.05h-.45a4.3,4.3,0,0,1-.58,0,1,1,0,0,1-.31-.07.19.19,0,0,1-.11-.13.42.42,0,0,1,0-.2l3.14-6.92H47.63a.24.24,0,0,1-.21-.19,1.76,1.76,0,0,1-.08-.6,3.16,3.16,0,0,1,0-.35c0-.1,0-.18.06-.25a.56.56,0,0,1,.09-.14.28.28,0,0,1,.12,0H52.9a.62.62,0,0,1,.21,0,.21.21,0,0,1,.13.1,1,1,0,0,1,.07.24A2.18,2.18,0,0,1,53.33,134.94Z"/>
        <path d="M60.61,138.58a10.15,10.15,0,0,1-.17,1.92,4,4,0,0,1-.56,1.46,2.51,2.51,0,0,1-1,.93,3.32,3.32,0,0,1-1.52.32,3.18,3.18,0,0,1-1.5-.31,2.35,2.35,0,0,1-1-.9,4.08,4.08,0,0,1-.49-1.43,12.16,12.16,0,0,1-.14-1.92,10.12,10.12,0,0,1,.17-1.91,4.34,4.34,0,0,1,.57-1.47,2.53,2.53,0,0,1,1-.92,3.8,3.8,0,0,1,3,0,2.42,2.42,0,0,1,1,.9,4,4,0,0,1,.48,1.43A11,11,0,0,1,60.61,138.58Zm-1.82.09q0-.63,0-1.11a5.94,5.94,0,0,0-.11-.84,2.55,2.55,0,0,0-.17-.6,1.38,1.38,0,0,0-.26-.4.88.88,0,0,0-.34-.21,1.44,1.44,0,0,0-.43-.06,1.11,1.11,0,0,0-.67.2,1.39,1.39,0,0,0-.42.58,3.89,3.89,0,0,0-.21,1,13.39,13.39,0,0,0-.06,1.35,13.64,13.64,0,0,0,.07,1.57,3.58,3.58,0,0,0,.24,1,1.08,1.08,0,0,0,.41.51,1.32,1.32,0,0,0,1.09.06,1.07,1.07,0,0,0,.36-.25,1.54,1.54,0,0,0,.25-.44,2.87,2.87,0,0,0,.17-.6,7.45,7.45,0,0,0,.09-.77C58.79,139.34,58.79,139,58.79,138.67Z"/>
        <path d="M53.48,96a2.67,2.67,0,0,1-.21,1.08,2.19,2.19,0,0,1-.62.8,2.88,2.88,0,0,1-1,.49,5.82,5.82,0,0,1-2.71,0,2.67,2.67,0,0,1-1-.45,1.83,1.83,0,0,1-.57-.72,2.32,2.32,0,0,1-.19-1,2.07,2.07,0,0,1,.11-.71,2,2,0,0,1,.34-.62,2.79,2.79,0,0,1,.55-.53A5.51,5.51,0,0,1,49,93.9a4.89,4.89,0,0,1-.63-.41,3.17,3.17,0,0,1-.48-.49,2,2,0,0,1-.3-.58,2.15,2.15,0,0,1-.1-.68,2.33,2.33,0,0,1,.19-1,2,2,0,0,1,.56-.76,2.7,2.7,0,0,1,.94-.49,4.6,4.6,0,0,1,1.3-.17,4.24,4.24,0,0,1,1.26.16,2.33,2.33,0,0,1,.86.44,1.82,1.82,0,0,1,.49.69,2.35,2.35,0,0,1,.17.89,1.94,1.94,0,0,1-.11.63,2.47,2.47,0,0,1-.3.58,2.79,2.79,0,0,1-.47.51,3.84,3.84,0,0,1-.64.45,5.33,5.33,0,0,1,.75.46,3.1,3.1,0,0,1,.55.53,2.35,2.35,0,0,1,.35.61A2,2,0,0,1,53.48,96Zm-1.78.12a1.18,1.18,0,0,0-.09-.46,1.25,1.25,0,0,0-.27-.39,2.09,2.09,0,0,0-.45-.36c-.18-.11-.4-.23-.64-.35-.21.12-.4.23-.56.34a2.77,2.77,0,0,0-.39.36,1.29,1.29,0,0,0-.24.4,1.33,1.33,0,0,0-.08.45,1,1,0,0,0,.35.82,1.64,1.64,0,0,0,1,.28,1.49,1.49,0,0,0,1-.29A1,1,0,0,0,51.7,96.12Zm-.21-4.42a1.23,1.23,0,0,0-.07-.44.85.85,0,0,0-.21-.32.88.88,0,0,0-.37-.2,1.53,1.53,0,0,0-.51-.07,1.17,1.17,0,0,0-.85.26,1,1,0,0,0-.29.73,1.11,1.11,0,0,0,.08.41,1,1,0,0,0,.22.35,2.79,2.79,0,0,0,.39.32l.57.33a2.63,2.63,0,0,0,.77-.63A1.15,1.15,0,0,0,51.49,91.7Z"/>
        <path d="M60.61,93.91a10.15,10.15,0,0,1-.17,1.92,4.08,4.08,0,0,1-.56,1.46,2.55,2.55,0,0,1-1,.92,3.19,3.19,0,0,1-1.52.33,3.3,3.3,0,0,1-1.5-.31,2.35,2.35,0,0,1-1-.9,4.07,4.07,0,0,1-.49-1.44A12.12,12.12,0,0,1,54.27,94a10.23,10.23,0,0,1,.17-1.92A4.28,4.28,0,0,1,55,90.6a2.63,2.63,0,0,1,1-.93,3.35,3.35,0,0,1,1.52-.32,3.25,3.25,0,0,1,1.51.31,2.42,2.42,0,0,1,1,.9A4.08,4.08,0,0,1,60.47,92,11.23,11.23,0,0,1,60.61,93.91ZM58.79,94c0-.42,0-.79,0-1.12a5.94,5.94,0,0,0-.11-.84,2.87,2.87,0,0,0-.17-.6,1.47,1.47,0,0,0-.26-.39.88.88,0,0,0-.34-.21,1.44,1.44,0,0,0-.43-.06,1.11,1.11,0,0,0-.67.19,1.42,1.42,0,0,0-.42.59,3.8,3.8,0,0,0-.21,1,13.46,13.46,0,0,0-.06,1.36,13.76,13.76,0,0,0,.07,1.57,3.41,3.41,0,0,0,.24,1,1.06,1.06,0,0,0,.41.52,1.2,1.2,0,0,0,.61.14A1.21,1.21,0,0,0,57.9,97a1.1,1.1,0,0,0,.36-.26,1.48,1.48,0,0,0,.25-.43,2.87,2.87,0,0,0,.17-.6,7.67,7.67,0,0,0,.09-.78C58.79,94.66,58.79,94.35,58.79,94Z"/>
        <path d="M53.36,48.86c0,.37,0,.74,0,1.12a7.16,7.16,0,0,1-.21,1.14,5.12,5.12,0,0,1-.43,1.06,3.08,3.08,0,0,1-.7.87,3,3,0,0,1-1,.59,4.21,4.21,0,0,1-1.45.22,3.77,3.77,0,0,1-.58,0,5.06,5.06,0,0,1-.53-.1,4.06,4.06,0,0,1-.41-.13.79.79,0,0,1-.25-.14.52.52,0,0,1-.11-.21,1.92,1.92,0,0,1,0-.39c0-.15,0-.27,0-.36a.87.87,0,0,1,0-.21.2.2,0,0,1,.18-.13.93.93,0,0,1,.24.05l.36.11c.15,0,.31.08.49.11a3.86,3.86,0,0,0,.61,0,2.09,2.09,0,0,0,1-.21,1.71,1.71,0,0,0,.64-.55,2.14,2.14,0,0,0,.36-.81,3.85,3.85,0,0,0,.13-1,3.28,3.28,0,0,1-1.78.5,3.28,3.28,0,0,1-1.2-.19,2,2,0,0,1-.8-.53,2.11,2.11,0,0,1-.45-.85,4.37,4.37,0,0,1-.14-1.13,3.73,3.73,0,0,1,.2-1.23,2.62,2.62,0,0,1,.59-1,2.53,2.53,0,0,1,1-.64,3.75,3.75,0,0,1,1.35-.22,3.54,3.54,0,0,1,1.08.14,2.42,2.42,0,0,1,.8.41,2.32,2.32,0,0,1,.55.65,3.1,3.1,0,0,1,.35.85,5.08,5.08,0,0,1,.18,1A10.33,10.33,0,0,1,53.36,48.86Zm-1.79-.24a7.16,7.16,0,0,0-.08-1.23,2.37,2.37,0,0,0-.25-.79,1,1,0,0,0-.41-.42,1.26,1.26,0,0,0-.57-.12,1.36,1.36,0,0,0-.56.11,1.2,1.2,0,0,0-.39.32,1.48,1.48,0,0,0-.23.49,2.4,2.4,0,0,0-.07.62,3.1,3.1,0,0,0,.06.64,1.4,1.4,0,0,0,.21.46.85.85,0,0,0,.37.27,1.47,1.47,0,0,0,.55.09,2.36,2.36,0,0,0,.75-.12A2.42,2.42,0,0,0,51.57,48.62Z"/>
        <path d="M60.61,49.23a10.15,10.15,0,0,1-.17,1.92,4,4,0,0,1-.56,1.46,2.58,2.58,0,0,1-1,.93,3.32,3.32,0,0,1-1.52.32,3.18,3.18,0,0,1-1.5-.31,2.35,2.35,0,0,1-1-.9,4.08,4.08,0,0,1-.49-1.43,12.25,12.25,0,0,1-.14-1.92,10.12,10.12,0,0,1,.17-1.91A4.34,4.34,0,0,1,55,45.92,2.53,2.53,0,0,1,56,45a3.8,3.8,0,0,1,3,0,2.35,2.35,0,0,1,1,.9,4,4,0,0,1,.48,1.43A11,11,0,0,1,60.61,49.23Zm-1.82.09q0-.63,0-1.11a5.94,5.94,0,0,0-.11-.84,2.55,2.55,0,0,0-.17-.6,1.38,1.38,0,0,0-.26-.4.88.88,0,0,0-.34-.21,1.44,1.44,0,0,0-.43-.06,1.11,1.11,0,0,0-.67.2,1.39,1.39,0,0,0-.42.58,3.89,3.89,0,0,0-.21,1,13.39,13.39,0,0,0-.06,1.35,13.64,13.64,0,0,0,.07,1.57,3.58,3.58,0,0,0,.24,1,1.08,1.08,0,0,0,.41.51,1.32,1.32,0,0,0,1.09.06,1.07,1.07,0,0,0,.36-.25,1.54,1.54,0,0,0,.25-.44,2.87,2.87,0,0,0,.17-.6c0-.23.07-.49.09-.77S58.79,49.67,58.79,49.32Z"/>
        <path d="M46.17,8.34a2.92,2.92,0,0,1,0,.33.53.53,0,0,1-.06.21A.2.2,0,0,1,46,9a.13.13,0,0,1-.1,0H41a.13.13,0,0,1-.1,0,.35.35,0,0,1-.09-.11,1.42,1.42,0,0,1-.06-.21,2.73,2.73,0,0,1,0-.66.64.64,0,0,1,.06-.22.36.36,0,0,1,.08-.12.2.2,0,0,1,.11,0h1.65V1.86l-1.42.79-.26.1a.18.18,0,0,1-.16,0,.34.34,0,0,1-.08-.2,3.74,3.74,0,0,1,0-.4,2.1,2.1,0,0,1,0-.27.84.84,0,0,1,0-.18.41.41,0,0,1,.08-.13l.13-.1L42.87.19l.08,0,.13,0h1a.7.7,0,0,1,.24,0,.19.19,0,0,1,.11.07.15.15,0,0,1,0,.1V7.64H45.9a.23.23,0,0,1,.11,0l.09.12a1,1,0,0,1,0,.22A2.92,2.92,0,0,1,46.17,8.34Z"/>
        <path d="M53.52,4.56a10.15,10.15,0,0,1-.17,1.92,4.28,4.28,0,0,1-.56,1.46,2.55,2.55,0,0,1-1,.92,3.67,3.67,0,0,1-3,0A2.26,2.26,0,0,1,47.81,8a4.07,4.07,0,0,1-.49-1.44,12.12,12.12,0,0,1-.14-1.91,10.23,10.23,0,0,1,.17-1.92,4.28,4.28,0,0,1,.57-1.46,2.63,2.63,0,0,1,1-.93A3.35,3.35,0,0,1,50.44,0,3.25,3.25,0,0,1,52,.31a2.42,2.42,0,0,1,.95.9,4.08,4.08,0,0,1,.48,1.43A12.35,12.35,0,0,1,53.52,4.56Zm-1.82.09c0-.42,0-.79,0-1.12a5.94,5.94,0,0,0-.11-.84,2.84,2.84,0,0,0-.18-.6,1.25,1.25,0,0,0-.25-.39.88.88,0,0,0-.34-.21,1.49,1.49,0,0,0-.43-.06,1.11,1.11,0,0,0-.67.19,1.42,1.42,0,0,0-.42.59,3.8,3.8,0,0,0-.21,1A13.46,13.46,0,0,0,49,4.54a13.45,13.45,0,0,0,.07,1.56,3.41,3.41,0,0,0,.24,1,1.06,1.06,0,0,0,.41.52,1.28,1.28,0,0,0,.61.14,1.21,1.21,0,0,0,.48-.08,1.1,1.1,0,0,0,.36-.26A1.48,1.48,0,0,0,51.42,7a3.05,3.05,0,0,0,.17-.6,7.67,7.67,0,0,0,.09-.78C51.7,5.31,51.7,5,51.7,4.65Z"/>
        <path d="M60.61,4.56a10.15,10.15,0,0,1-.17,1.92,4.08,4.08,0,0,1-.56,1.46,2.55,2.55,0,0,1-1,.92,3.67,3.67,0,0,1-3,0,2.26,2.26,0,0,1-1-.89,4.07,4.07,0,0,1-.49-1.44,12.12,12.12,0,0,1-.14-1.91,10.23,10.23,0,0,1,.17-1.92A4.28,4.28,0,0,1,55,1.25a2.63,2.63,0,0,1,1-.93A3.35,3.35,0,0,1,57.53,0,3.25,3.25,0,0,1,59,.31a2.42,2.42,0,0,1,1,.9,4.08,4.08,0,0,1,.48,1.43A11.23,11.23,0,0,1,60.61,4.56Zm-1.82.09c0-.42,0-.79,0-1.12a5.94,5.94,0,0,0-.11-.84,2.87,2.87,0,0,0-.17-.6,1.47,1.47,0,0,0-.26-.39.88.88,0,0,0-.34-.21,1.44,1.44,0,0,0-.43-.06,1.11,1.11,0,0,0-.67.19,1.42,1.42,0,0,0-.42.59,3.8,3.8,0,0,0-.21,1,13.46,13.46,0,0,0-.06,1.36,13.45,13.45,0,0,0,.07,1.56,3.41,3.41,0,0,0,.24,1,1.06,1.06,0,0,0,.41.52,1.31,1.31,0,0,0,.61.14,1.21,1.21,0,0,0,.48-.08,1.1,1.1,0,0,0,.36-.26A1.48,1.48,0,0,0,58.51,7a3.05,3.05,0,0,0,.17-.6,7.67,7.67,0,0,0,.09-.78C58.79,5.31,58.79,5,58.79,4.65Z"/>
        <g>
          <rect x="472.41" y="18.93" width="12.92" height="12.92" fill="#f2a007"/>
          <rect x="472.41" y="40.8" width="12.92" height="12.92" fill="#a6a6a6"/>
        </g>
        <g>
          <rect x="328.52" y="5.01" width="173.68" height="60.18" fill="none" stroke="#000" stroke-miterlimit="10"/>
          <line x1="74.03" y1="451.77" x2="467.14" y2="451.77" fill="none" stroke="#000" stroke-linejoin="round" stroke-width="1.25"/>
          <polyline points="195.73 268.82 195.73 123.37 339.94 123.37 339.94 160.18" fill="none" stroke="#000" stroke-miterlimit="10"/>
        </g>
        <path d="M224.41,103.8l-.87,5h-1.66L224.11,96h4.27a4.18,4.18,0,0,1,3.05,1,3.31,3.31,0,0,1,.92,2.79,4,4,0,0,1-1.46,2.89,5.33,5.33,0,0,1-3.44,1Zm.23-1.38h2.85a3.48,3.48,0,0,0,2.21-.67,2.73,2.73,0,0,0,1-1.88,2.16,2.16,0,0,0-.45-1.76,2.26,2.26,0,0,0-1.71-.7h-3Z"/>
        <g>
          <path d="M245.15,101.65h-7.33v-1.41h7.33Zm0,3.65h-7.33v-1.41h7.33Z"/>
          <path d="M259.91,103.35a7.41,7.41,0,0,1-1,4.24,3.45,3.45,0,0,1-3.05,1.39,3.49,3.49,0,0,1-3-1.36,7.12,7.12,0,0,1-1-4.05V101.4a7.31,7.31,0,0,1,1-4.2,4.12,4.12,0,0,1,6.1,0,7,7,0,0,1,1,4.08Zm-1.63-2.23a5.94,5.94,0,0,0-.58-3,2,2,0,0,0-1.83-.94,2,2,0,0,0-1.82.94,5.81,5.81,0,0,0-.59,2.89v2.6a6.11,6.11,0,0,0,.6,3.07,2,2,0,0,0,1.82,1,2,2,0,0,0,1.79-.93,5.74,5.74,0,0,0,.61-2.93Z"/>
          <path d="M262.19,108a1.05,1.05,0,0,1,.25-.7,1,1,0,0,1,.76-.28,1,1,0,0,1,.76.28,1,1,0,0,1,.26.7,1,1,0,0,1-.26.68,1,1,0,0,1-.76.27.9.9,0,0,1-1-1Z"/>
          <path d="M274.75,103.35a7.42,7.42,0,0,1-1,4.24,4,4,0,0,1-6.08,0,7,7,0,0,1-1-4.05V101.4a7.32,7.32,0,0,1,1-4.2,4.12,4.12,0,0,1,6.1,0,7,7,0,0,1,1,4.08Zm-1.62-2.23a6,6,0,0,0-.58-3,2,2,0,0,0-1.84-.94,2,2,0,0,0-1.82.94,5.81,5.81,0,0,0-.59,2.89v2.6a6.11,6.11,0,0,0,.6,3.07,2,2,0,0,0,1.83,1,2,2,0,0,0,1.79-.93,5.85,5.85,0,0,0,.61-2.93Z"/>
          <path d="M284.86,103.35a7.42,7.42,0,0,1-1,4.24,4.06,4.06,0,0,1-6.09,0,7.12,7.12,0,0,1-1-4.05V101.4a7.31,7.31,0,0,1,1-4.2,4.12,4.12,0,0,1,6.1,0,7,7,0,0,1,1,4.08Zm-1.62-2.23a6,6,0,0,0-.58-3,2,2,0,0,0-1.84-.94,2,2,0,0,0-1.82.94,5.81,5.81,0,0,0-.59,2.89v2.6a6.11,6.11,0,0,0,.6,3.07,2,2,0,0,0,1.83,1,2,2,0,0,0,1.78-.93,5.83,5.83,0,0,0,.62-2.93Z"/>
          <path d="M295,103.35a7.41,7.41,0,0,1-1,4.24,3.45,3.45,0,0,1-3.05,1.39,3.49,3.49,0,0,1-3-1.36,7,7,0,0,1-1-4.05V101.4a7.31,7.31,0,0,1,1-4.2,4.12,4.12,0,0,1,6.1,0,7,7,0,0,1,1,4.08Zm-1.63-2.23a5.94,5.94,0,0,0-.58-3,2,2,0,0,0-1.83-.94,2,2,0,0,0-1.82.94,5.81,5.81,0,0,0-.59,2.89v2.6a6.11,6.11,0,0,0,.6,3.07,2,2,0,0,0,1.82,1,2,2,0,0,0,1.79-.93,5.74,5.74,0,0,0,.61-2.93Z"/>
          <path d="M305.31,96.92,300,108.81h-1.7l5.28-11.47h-6.92V96h8.64Z"/>
        </g>
        <path d="M309.56,102.14a1.34,1.34,0,0,0,.89-.31,1.09,1.09,0,0,0,.42-.77h.89a1.67,1.67,0,0,1-.32.91,2.11,2.11,0,0,1-.81.69,2.34,2.34,0,0,1-1.07.25,2.3,2.3,0,0,1-1.8-.75,3,3,0,0,1-.67-2.07v-.16a3.31,3.31,0,0,1,.3-1.44,2.32,2.32,0,0,1,.85-1,2.45,2.45,0,0,1,1.32-.35,2.25,2.25,0,0,1,1.55.56,2,2,0,0,1,.65,1.45h-.89a1.28,1.28,0,0,0-.41-.88,1.25,1.25,0,0,0-.9-.35,1.33,1.33,0,0,0-1.12.52A2.43,2.43,0,0,0,308,100v.18a2.38,2.38,0,0,0,.39,1.47A1.33,1.33,0,0,0,309.56,102.14Z"/>
      </g>
    </g>
  </g>
</svg>
