<svg xmlns="http://www.w3.org/2000/svg" width="200.52" height="71.94" viewBox="0 0 200.52 71.94">
  <g id="Layer_2" data-name="Layer 2">
    <g id="Layer_1-2" data-name="Layer 1">
      <g>
        <path d="M108.87,71.81l-2.24-7.64h-.06c.08,1.56.12,2.59.12,3.11v4.53h-1.75V62.08h2.67l2.2,7.44h0l2.33-7.44h2.68v9.73H113V67.2c0-.21,0-.46,0-.75s0-1,.09-2.26h-.06l-2.39,7.62Z" fill="#0100c8"/>
        <path d="M120.59,71.94a3.57,3.57,0,0,1-2.68-1,3.88,3.88,0,0,1-1-2.81,4.24,4.24,0,0,1,.9-2.89,3.5,3.5,0,0,1,4.81-.12,3.52,3.52,0,0,1,.83,2.48v1h-4.57a2,2,0,0,0,.48,1.35,1.71,1.71,0,0,0,1.29.48,4.78,4.78,0,0,0,1.21-.14,5.79,5.79,0,0,0,1.19-.44v1.57a4.1,4.1,0,0,1-1.08.39,6.39,6.39,0,0,1-1.41.13m-.28-6.27a1.21,1.21,0,0,0-1,.41,2,2,0,0,0-.4,1.16h2.72a1.77,1.77,0,0,0-.38-1.16,1.24,1.24,0,0,0-1-.41" fill="#0100c8"/>
        <path d="M127.42,71.94a2.28,2.28,0,0,1-2-1,6,6,0,0,1,0-5.67,2.35,2.35,0,0,1,2-1,2.28,2.28,0,0,1,2,1.09h.06a9.39,9.39,0,0,1-.14-1.49V61.45h1.94V71.81h-1.48l-.38-1h-.08a2.17,2.17,0,0,1-2,1.1m.67-1.61a1.29,1.29,0,0,0,1.09-.46,2.71,2.71,0,0,0,.38-1.54v-.21a3.2,3.2,0,0,0-.35-1.72,1.29,1.29,0,0,0-1.15-.52,1.11,1.11,0,0,0-1,.58,3.16,3.16,0,0,0-.36,1.67,3.06,3.06,0,0,0,.36,1.65,1.18,1.18,0,0,0,1,.55" fill="#0100c8"/>
        <path d="M133,62.44q0-1,1.05-1t1,1a1,1,0,0,1-.26.74,1.06,1.06,0,0,1-.79.26c-.7,0-1.05-.33-1.05-1m2,9.37h-1.93V64.37h1.93Z" fill="#0100c8"/>
        <path d="M140.08,71.94q-3.32,0-3.31-3.81a4.2,4.2,0,0,1,.9-2.9,3.28,3.28,0,0,1,2.58-1,4.83,4.83,0,0,1,2.21.5l-.57,1.57c-.31-.12-.59-.23-.85-.31a2.71,2.71,0,0,0-.79-.12c-1,0-1.51.75-1.51,2.25s.5,2.18,1.51,2.18a3.19,3.19,0,0,0,1-.16,3.45,3.45,0,0,0,1-.49v1.74a3,3,0,0,1-1,.43,5.08,5.08,0,0,1-1.21.12" fill="#0100c8"/>
        <path d="M148.28,71.81l-.38-1h-.05a2.8,2.8,0,0,1-1,.89,3.1,3.1,0,0,1-1.35.25,2.12,2.12,0,0,1-1.61-.61,2.43,2.43,0,0,1-.59-1.74,2,2,0,0,1,.79-1.75,4.47,4.47,0,0,1,2.39-.62l1.23,0v-.33a1,1,0,0,0-1.11-1.13,4.89,4.89,0,0,0-2,.54L144,64.89a5.54,5.54,0,0,1,2.72-.67,3.25,3.25,0,0,1,2.19.65,2.44,2.44,0,0,1,.76,2v5Zm-.57-3.45-.75,0a2.32,2.32,0,0,0-1.26.32,1,1,0,0,0-.41.89c0,.57.31.86.94.86a1.44,1.44,0,0,0,1.07-.41,1.46,1.46,0,0,0,.41-1.08Z" fill="#0100c8"/>
        <rect x="151.35" y="61.45" width="1.94" height="10.36" fill="#0100c8"/>
        <path d="M164.92,71.81l-.68-2.32h-3.38l-.68,2.32h-2.12L161.54,62h2.06L167,71.81Zm-1.15-4-1.05-3.56c-.08-.27-.13-.49-.17-.65-.14.57-.54,2-1.2,4.21Z" fill="#0100c8"/>
        <path d="M171.92,65.89h-1.68v5.92h-1.93V65.89h-1.07v-1l1.07-.54v-.55A2.52,2.52,0,0,1,168.9,62a2.62,2.62,0,0,1,1.91-.59,4.76,4.76,0,0,1,1.79.31l-.5,1.49A3.42,3.42,0,0,0,171,63a.68.68,0,0,0-.59.26,1,1,0,0,0-.19.65v.47h1.68Z" fill="#0100c8"/>
        <path d="M177.18,65.89H175.5v5.92h-1.94V65.89H172.5v-1l1.06-.54v-.55a2.48,2.48,0,0,1,.6-1.85,2.6,2.6,0,0,1,1.91-.59,4.8,4.8,0,0,1,1.79.31l-.5,1.49a3.42,3.42,0,0,0-1.08-.19.7.7,0,0,0-.6.26,1.11,1.11,0,0,0-.18.65v.47h1.68Z" fill="#0100c8"/>
        <path d="M182.68,71.81l-.37-1h-.05a2.82,2.82,0,0,1-1,.89,3,3,0,0,1-1.35.25,2.12,2.12,0,0,1-1.61-.61,2.43,2.43,0,0,1-.59-1.74,2,2,0,0,1,.79-1.75,4.5,4.5,0,0,1,2.39-.62l1.23,0v-.33a1,1,0,0,0-1.1-1.13,4.81,4.81,0,0,0-2,.54l-.65-1.37a5.57,5.57,0,0,1,2.72-.67,3.24,3.24,0,0,1,2.19.65,2.44,2.44,0,0,1,.76,2v5Zm-.57-3.45-.75,0a2.26,2.26,0,0,0-1.25.32,1,1,0,0,0-.42.89c0,.57.32.86.94.86A1.39,1.39,0,0,0,182.11,69Z" fill="#0100c8"/>
        <path d="M185.61,62.44c0-.66.35-1,1.06-1s1.05.33,1.05,1a1,1,0,0,1-.26.74,1.06,1.06,0,0,1-.79.26c-.71,0-1.06-.33-1.06-1m2,9.37h-1.94V64.37h1.94Z" fill="#0100c8"/>
        <path d="M193.51,64.23a3.1,3.1,0,0,1,.66.06l-.15,1.9a2.34,2.34,0,0,0-.57-.07,2,2,0,0,0-1.45.5,1.88,1.88,0,0,0-.51,1.4v3.79h-1.94V64.37H191l.28,1.25h.1a2.72,2.72,0,0,1,.89-1,2.17,2.17,0,0,1,1.22-.38" fill="#0100c8"/>
        <path d="M200.52,69.6a2.1,2.1,0,0,1-.76,1.74,3.62,3.62,0,0,1-2.27.6,6.26,6.26,0,0,1-1.32-.11,4.85,4.85,0,0,1-1-.32V69.83a6.35,6.35,0,0,0,1.21.45,4.71,4.71,0,0,0,1.19.18c.71,0,1.06-.21,1.06-.64a.56.56,0,0,0-.14-.39,2.35,2.35,0,0,0-.49-.34,10,10,0,0,0-.91-.44,5.15,5.15,0,0,1-1.2-.67,1.85,1.85,0,0,1-.56-.7,2.36,2.36,0,0,1-.17-1,1.78,1.78,0,0,1,.73-1.53,3.46,3.46,0,0,1,2.08-.54,5.67,5.67,0,0,1,2.49.58l-.58,1.47c-.36-.16-.69-.29-1-.4a3,3,0,0,0-1-.15c-.57,0-.85.16-.85.49a.57.57,0,0,0,.27.47,7.94,7.94,0,0,0,1.21.59,5.84,5.84,0,0,1,1.22.66,1.91,1.91,0,0,1,.57.71,2.12,2.12,0,0,1,.19.95" fill="#0100c8"/>
        <path d="M86.09,71.33,96.56,34.19s2-8.33,4.27-12.4a12.68,12.68,0,0,1,8.34-5.88,16.73,16.73,0,0,1,6.36.46,5.63,5.63,0,0,1,3.73,3.33c.9,3.58-1.74,5.1-3.49,5.19a3.43,3.43,0,0,1-3.4-1.68,3.12,3.12,0,0,1,.43-3.16,1.68,1.68,0,0,0-.13-2.24,4.64,4.64,0,0,0-3.72.73c-1.29.86-3,4.76-3.37,5.9-.19.63-1.89,7.43-1.89,7.43l12.94.05L110.9,51.78h-6.12l4-16.74h-6.21L92.76,71.35Z" fill="#0100c9"/>
        <path d="M94.18,28.13C92.7,23.31,85,22.85,85,22.85l-10.1-.12L66.86,51.94h6.71L76,42.41a44.79,44.79,0,0,0,6.1-.26c6.58-.89,9.07-3.62,9.07-3.62,1-1.2,4.46-5.58,3-10.4m-8.26,7.38a6.85,6.85,0,0,1-4.41,3,14.55,14.55,0,0,1-4.34.31l3.53-13h2.72c2,.23,3.79,1,4.33,3,.44,1.65-1.26,6-1.83,6.77" fill="#0100c9"/>
        <polygon points="118.88 31.93 136.08 31.93 123.39 48.82 132.64 48.82 131.72 52.03 113.53 52.03 126.68 35.52 117.89 35.52 118.88 31.93" fill="#0100c9"/>
        <path d="M152.66,42.47c1.53-5.27-1.07-10.93-7.1-10.93s-11,5.35-11.39,9.63.46,11.47,9.7,11.47a11.23,11.23,0,0,0,7.34-2.52l-1.37-3.29a6.46,6.46,0,0,1-6,2.14c-4-.61-3.9-4.74-3.52-6.42,1.61,0,12.38-.08,12.38-.08M145,34.75c4,0,2.52,4.74,2.52,4.74h-7s.46-4.74,4.51-4.74" fill="#0100c9"/>
        <path d="M164.2,32H158l-5.27,19.41h6.42s2-11.19,5.88-15c1.38-1.38,2.68-.38,3.06.92a2.84,2.84,0,0,0,4.66.91,3.66,3.66,0,0,0-1.6-6.26c-2.91-.61-6.42,2.14-7.8,4Z" fill="#0100c9"/>
        <path d="M11.08,12.85,14.44,0s13.7.84,31.09,7.56,17.93,15,17.73,16-3,13.24-3,13.24c-.44-16.48-35-22.94-49.22-23.91" fill="#0195ff"/>
        <path d="M31.41,32.08,28.18,44.8s28.11,4.31,32.12-8a12.15,12.15,0,0,0-2.1-6.43c-2.29,2.55-18.59,3.28-26.79,1.75" fill="#0100c9"/>
        <path d="M52.21,51.33,48.85,64.18s-13.7-.84-31.1-7.56S-.17,41.65,0,40.66,3,27.42,3,27.42C3.42,43.9,38,50.36,52.21,51.33" fill="#0100c9"/>
        <path d="M31.43,32.1l3.23-12.72s-28.11-4.31-32.11,8a12.06,12.06,0,0,0,2.1,6.43c2.28-2.55,18.59-3.28,26.78-1.75" fill="#0195ff"/>
      </g>
    </g>
  </g>
</svg>
