<svg xmlns="http://www.w3.org/2000/svg" xmlns:xlink="http://www.w3.org/1999/xlink" width="502.69" height="161.43" viewBox="0 0 502.69 161.43">
  <defs>
    <clipPath id="clip-path" transform="translate(0 0)">
      <rect width="502.69" height="40.64" fill="none"/>
    </clipPath>
    <clipPath id="clip-path-2" transform="translate(0 0)">
      <rect y="77.05" width="502.69" height="35.56" fill="none"/>
    </clipPath>
  </defs>
  <g id="Layer_2" data-name="Layer 2">
    <g id="Layer_1-2" data-name="Layer 1">
      <g>
        <g>
          <g opacity="0.7">
            <g clip-path="url(#clip-path)">
              <rect width="502.69" height="40.64" fill="#f25430"/>
            </g>
          </g>
          <g opacity="0.3">
            <g clip-path="url(#clip-path-2)">
              <rect y="77.05" width="502.69" height="35.57" fill="#f25430"/>
            </g>
          </g>
        </g>
        <g>
          <path d="M25.18,27.7V14.9h4.19a5,5,0,0,1,3.22.89,3.17,3.17,0,0,1,1.11,2.62,3.06,3.06,0,0,1-.46,1.68,2.57,2.57,0,0,1-1.25,1,2.42,2.42,0,0,1,1.41,1,3.26,3.26,0,0,1,.49,1.84,3.54,3.54,0,0,1-1.08,2.81,4.66,4.66,0,0,1-3.14.95Zm2.74-7.45h1.42A1.41,1.41,0,0,0,31,18.68a1.73,1.73,0,0,0-.37-1.25,1.65,1.65,0,0,0-1.21-.38H27.92Zm0,1.88v3.42h1.75a1.38,1.38,0,0,0,1.11-.43,1.74,1.74,0,0,0,.39-1.22c0-1.15-.45-1.74-1.33-1.77Z" transform="translate(0 0)" fill="#fff"/>
          <path d="M35.44,22.64a5,5,0,0,1,1.07-3.4,3.78,3.78,0,0,1,3-1.23,3.79,3.79,0,0,1,3,1.23,5,5,0,0,1,1.08,3.41v.61a5,5,0,0,1-1.07,3.39,3.78,3.78,0,0,1-3,1.22,3.78,3.78,0,0,1-3-1.22,5,5,0,0,1-1.07-3.41Zm2.64.62q0,2.55,1.44,2.55c.89,0,1.36-.71,1.43-2.13v-1a3.75,3.75,0,0,0-.38-1.93,1.19,1.19,0,0,0-1.08-.63,1.18,1.18,0,0,0-1,.63,3.87,3.87,0,0,0-.37,1.93Z" transform="translate(0 0)" fill="#fff"/>
          <path d="M44.87,22.65a5.93,5.93,0,0,1,.84-3.49A2.85,2.85,0,0,1,48.15,18a2.4,2.4,0,0,1,1.93.95V14.2h2.65V27.7H50.34l-.12-1a2.45,2.45,0,0,1-2.08,1.14,2.81,2.81,0,0,1-2.42-1.14,5.77,5.77,0,0,1-.85-3.36Zm2.64.63a4.31,4.31,0,0,0,.32,2,1.14,1.14,0,0,0,1.07.56,1.3,1.3,0,0,0,1.18-.66V20.8a1.25,1.25,0,0,0-1.17-.7,1.13,1.13,0,0,0-1.06.55,4,4,0,0,0-.34,2Z" transform="translate(0 0)" fill="#fff"/>
          <path d="M57.9,23.56l1.34-5.37h2.81L58.73,29.12c-.49,1.61-1.43,2.42-2.8,2.42a4.27,4.27,0,0,1-1.08-.17V29.43h.31a1.59,1.59,0,0,0,.93-.23,1.43,1.43,0,0,0,.47-.77l.2-.65-2.9-9.6h2.83Z" transform="translate(0 0)" fill="#fff"/>
          <path d="M76.49,22.94l1.29-8h2.71L78.08,27.7H75.33l-1.58-7.54L72.19,27.7H69.43L67,14.9h2.73l1.27,8,1.6-8H74.9Z" transform="translate(0 0)" fill="#fff"/>
          <path d="M85.62,27.87a4.27,4.27,0,0,1-3.17-1.14,4.46,4.46,0,0,1-1.13-3.27v-.75a5.2,5.2,0,0,1,1-3.48,3.72,3.72,0,0,1,3-1.22,3.49,3.49,0,0,1,2.85,1.15,5.21,5.21,0,0,1,1,3.39v1.22H83.94a2.52,2.52,0,0,0,.49,1.55,1.72,1.72,0,0,0,1.35.49A3.1,3.1,0,0,0,88,25l1,1.5a3.38,3.38,0,0,1-1.4,1A5.13,5.13,0,0,1,85.62,27.87ZM84,22h2.63v-.23a2.45,2.45,0,0,0-.3-1.29,1,1,0,0,0-1-.44,1.1,1.1,0,0,0-1,.46A3.08,3.08,0,0,0,84,22Z" transform="translate(0 0)" fill="#fff"/>
          <path d="M90.67,15.73a1.24,1.24,0,0,1,.39-1,1.65,1.65,0,0,1,2.08,0,1.24,1.24,0,0,1,.39,1,1.31,1.31,0,0,1-.38.95,1.67,1.67,0,0,1-2.1,0A1.31,1.31,0,0,1,90.67,15.73Zm2.76,12H90.79V18.19h2.64Z" transform="translate(0 0)" fill="#fff"/>
          <path d="M95.15,22.65a5.62,5.62,0,0,1,.9-3.49A3,3,0,0,1,98.55,18a2.46,2.46,0,0,1,2.11,1l.1-.84h2.38V27.7a3.53,3.53,0,0,1-1.08,2.78,4.53,4.53,0,0,1-3.1,1,5.33,5.33,0,0,1-1.74-.31,3.2,3.2,0,0,1-1.36-.8l.88-1.72a2.67,2.67,0,0,0,1,.6,3,3,0,0,0,1.13.24,1.74,1.74,0,0,0,1.27-.4,1.86,1.86,0,0,0,.39-1.29v-.82a2.41,2.41,0,0,1-2,.93,2.92,2.92,0,0,1-2.49-1.18,5.54,5.54,0,0,1-.9-3.33Zm2.63.63a3.86,3.86,0,0,0,.37,1.92,1.24,1.24,0,0,0,1.15.6,1.39,1.39,0,0,0,1.2-.55V20.7a1.33,1.33,0,0,0-1.18-.6,1.27,1.27,0,0,0-1.16.6,3.87,3.87,0,0,0-.38,1.95Z" transform="translate(0 0)" fill="#fff"/>
          <path d="M107.62,19a2.66,2.66,0,0,1,2.1-1,2.52,2.52,0,0,1,2.1.92,4.46,4.46,0,0,1,.72,2.72V27.7H109.9v-6a2,2,0,0,0-.28-1.21,1,1,0,0,0-.88-.37,1.25,1.25,0,0,0-1.12.62v7H105V14.2h2.63Z" transform="translate(0 0)" fill="#fff"/>
          <path d="M117.49,15.85v2.34h1.35v1.86h-1.35v4.73a1.4,1.4,0,0,0,.16.77.77.77,0,0,0,.63.21,2.74,2.74,0,0,0,.63-.06l0,1.94a4.54,4.54,0,0,1-1.45.23q-2.55,0-2.58-2.76V20.05H113.7V18.19h1.16V15.85Z" transform="translate(0 0)" fill="#fff"/>
        </g>
        <path d="M25.18,63.69H18.66v-.91h6.52Zm-1-6.12L18.69,55.2v-1l6.62,3V58l-6.62,3V60Zm7.71,6.13H30.83V52.19l-3.06,1.3v-1l3.93-1.62h.18Zm11.74-5.35a7.82,7.82,0,0,1-.89,4.13,3.15,3.15,0,0,1-5.23,0,7.52,7.52,0,0,1-.91-4V56.21a7.73,7.73,0,0,1,.88-4.08,2.88,2.88,0,0,1,2.62-1.4,2.94,2.94,0,0,1,2.61,1.35,7.47,7.47,0,0,1,.92,4Zm-1-2.28A7.07,7.07,0,0,0,42,52.75a2,2,0,0,0-1.87-1.11,2,2,0,0,0-1.82,1.07,6.55,6.55,0,0,0-.66,3.17v2.59a7,7,0,0,0,.64,3.32A2,2,0,0,0,40.11,63a2,2,0,0,0,1.82-1.11,6.84,6.84,0,0,0,.65-3.26Zm5.62,2.87-1.05,1.11V63.7h-1V50.2h1v8.58l.86-1,3.12-3.56h1.29l-3.54,4,3.87,5.5H51.52Zm5.62-.44a5.68,5.68,0,0,1,.82-3.37A2.86,2.86,0,0,1,57.1,54a2.76,2.76,0,0,1,2.58,1.51l.06-1.33h1V64a3.71,3.71,0,0,1-.87,2.62,3.32,3.32,0,0,1-2.51.9,4,4,0,0,1-1.67-.39,3.41,3.41,0,0,1-1.28-.94l.48-.7a3.19,3.19,0,0,0,2.4,1.11,2.35,2.35,0,0,0,1.82-.63A2.79,2.79,0,0,0,59.66,64V62.51a3.14,3.14,0,0,1-5,.25,5.52,5.52,0,0,1-.86-3.23Zm1,.89a4.85,4.85,0,0,0,.59,2.69,2,2,0,0,0,1.84.86,2.41,2.41,0,0,0,2.37-1.5V56.58A2.41,2.41,0,0,0,57.31,55a2.09,2.09,0,0,0-1.85.86,4.75,4.75,0,0,0-.6,2.63Z" transform="translate(0 0)" fill="#4d4d4d"/>
        <path d="M75.64,57.68H67.81v-.92h7.83Z" transform="translate(0 0)" fill="#4d4d4d"/>
        <g>
          <path d="M83.31,57.94l5.36,2.62v1.13l-6.45-3.33v-.87l6.45-3.32V55.3Z" transform="translate(0 0)" fill="#4d4d4d"/>
          <path d="M98.41,63.7H91.23v-.84L95.08,58a12.54,12.54,0,0,0,1.35-2.08,3.94,3.94,0,0,0,.38-1.62,2.81,2.81,0,0,0-.61-1.91,2.12,2.12,0,0,0-1.69-.71,2.23,2.23,0,0,0-1.82.82A3.26,3.26,0,0,0,92,54.59H91a4,4,0,0,1,1-2.77,3.65,3.65,0,0,1,5-.18,3.41,3.41,0,0,1,.9,2.52,6.51,6.51,0,0,1-1.47,3.6l-.59.8-3.32,4.22h5.93Z" transform="translate(0 0)" fill="#4d4d4d"/>
          <path d="M107.41,58.35a7.82,7.82,0,0,1-.89,4.13,3.15,3.15,0,0,1-5.23,0,7.61,7.61,0,0,1-.92-4V56.21a7.72,7.72,0,0,1,.89-4.08,2.88,2.88,0,0,1,2.62-1.4,2.94,2.94,0,0,1,2.61,1.35,7.47,7.47,0,0,1,.92,4Zm-1-2.28a7.08,7.08,0,0,0-.61-3.32,2,2,0,0,0-1.87-1.11,2,2,0,0,0-1.83,1.07,6.56,6.56,0,0,0-.65,3.17v2.59a7.12,7.12,0,0,0,.63,3.32A2,2,0,0,0,103.9,63a2,2,0,0,0,1.82-1.11,6.85,6.85,0,0,0,.64-3.26Z" transform="translate(0 0)" fill="#4d4d4d"/>
          <path d="M112,58.94l-1,1.11V63.7h-1V50.2h1v8.58l.87-1,3.12-3.56h1.28l-3.54,4,3.87,5.5h-1.22Z" transform="translate(0 0)" fill="#4d4d4d"/>
          <path d="M117.63,58.5a5.68,5.68,0,0,1,.82-3.37A2.85,2.85,0,0,1,120.9,54a2.77,2.77,0,0,1,2.59,1.51l.06-1.33h1V64a3.62,3.62,0,0,1-.87,2.62,3.3,3.3,0,0,1-2.5.9,3.92,3.92,0,0,1-1.67-.39,3.41,3.41,0,0,1-1.28-.94l.48-.7a3.19,3.19,0,0,0,2.39,1.11,2.36,2.36,0,0,0,1.83-.63,2.79,2.79,0,0,0,.58-1.92V62.51a3.13,3.13,0,0,1-5,.25,5.45,5.45,0,0,1-.86-3.23Zm1,.89a4.85,4.85,0,0,0,.59,2.69,2,2,0,0,0,1.84.86,2.4,2.4,0,0,0,2.36-1.5V56.58A2.39,2.39,0,0,0,121.12,55a2.08,2.08,0,0,0-1.85.86,4.75,4.75,0,0,0-.6,2.63Z" transform="translate(0 0)" fill="#4d4d4d"/>
        </g>
        <path d="M25.18,99.69H18.66v-.91h6.52Zm-1-6.12L18.69,91.2v-1l6.62,3V94l-6.62,3V96ZM34.63,99.7H27.45v-.84L31.3,94a12.54,12.54,0,0,0,1.35-2.08A3.9,3.9,0,0,0,33,90.26a2.81,2.81,0,0,0-.61-1.91,2.12,2.12,0,0,0-1.69-.71,2.23,2.23,0,0,0-1.82.82,3.2,3.2,0,0,0-.68,2.13h-1a4,4,0,0,1,1-2.77,3.65,3.65,0,0,1,5-.18,3.41,3.41,0,0,1,.9,2.52,6.51,6.51,0,0,1-1.47,3.6l-.6.8L28.7,98.78h5.93Zm9-5.35a7.82,7.82,0,0,1-.89,4.13,3.15,3.15,0,0,1-5.23,0,7.52,7.52,0,0,1-.91-4V92.21a7.73,7.73,0,0,1,.88-4.08,2.88,2.88,0,0,1,2.62-1.4,2.94,2.94,0,0,1,2.61,1.35,7.47,7.47,0,0,1,.92,4Zm-1-2.28A7.07,7.07,0,0,0,42,88.75a2,2,0,0,0-1.87-1.11,2,2,0,0,0-1.82,1.07,6.55,6.55,0,0,0-.66,3.17v2.59a7,7,0,0,0,.64,3.32A2,2,0,0,0,40.11,99a2,2,0,0,0,1.82-1.11,6.84,6.84,0,0,0,.65-3.26Zm5.62,2.87-1.05,1.11V99.7h-1V86.2h1v8.58l.86-1,3.12-3.56h1.29l-3.54,4,3.87,5.5H51.52Zm5.62-.44a5.68,5.68,0,0,1,.82-3.37A2.86,2.86,0,0,1,57.1,90a2.76,2.76,0,0,1,2.58,1.51l.06-1.33h1V100a3.71,3.71,0,0,1-.87,2.62,3.32,3.32,0,0,1-2.51.9,4,4,0,0,1-1.67-.39,3.41,3.41,0,0,1-1.28-.94l.48-.7a3.19,3.19,0,0,0,2.4,1.11,2.35,2.35,0,0,0,1.82-.63,2.79,2.79,0,0,0,.59-1.92V98.51a3.14,3.14,0,0,1-5,.25,5.52,5.52,0,0,1-.86-3.23Zm1,.89a4.85,4.85,0,0,0,.59,2.69,2,2,0,0,0,1.84.86,2.41,2.41,0,0,0,2.37-1.5V92.58A2.41,2.41,0,0,0,57.31,91a2.09,2.09,0,0,0-1.85.86,4.75,4.75,0,0,0-.6,2.63Z" transform="translate(0 0)" fill="#4d4d4d"/>
        <path d="M75.64,93.68H67.81v-.92h7.83Z" transform="translate(0 0)" fill="#4d4d4d"/>
        <g>
          <path d="M83.31,93.94l5.36,2.62v1.13l-6.45-3.33v-.87l6.45-3.32V91.3Z" transform="translate(0 0)" fill="#4d4d4d"/>
          <path d="M97,95.57h1.74v.91H97V99.7H96V96.48H90.68v-.62l5.24-9H97Zm-5.11,0H96V88.38l-.37.71Z" transform="translate(0 0)" fill="#4d4d4d"/>
          <path d="M107.41,94.35a7.82,7.82,0,0,1-.89,4.13,3.15,3.15,0,0,1-5.23,0,7.61,7.61,0,0,1-.92-4V92.21a7.72,7.72,0,0,1,.89-4.08,2.88,2.88,0,0,1,2.62-1.4,2.94,2.94,0,0,1,2.61,1.35,7.47,7.47,0,0,1,.92,4Zm-1-2.28a7.08,7.08,0,0,0-.61-3.32,2,2,0,0,0-1.87-1.11,2,2,0,0,0-1.83,1.07,6.56,6.56,0,0,0-.65,3.17v2.59a7.12,7.12,0,0,0,.63,3.32A2,2,0,0,0,103.9,99a2,2,0,0,0,1.82-1.11,6.85,6.85,0,0,0,.64-3.26Z" transform="translate(0 0)" fill="#4d4d4d"/>
          <path d="M112,94.94l-1,1.11V99.7h-1V86.2h1v8.58l.87-1,3.12-3.56h1.28l-3.54,4,3.87,5.5h-1.22Z" transform="translate(0 0)" fill="#4d4d4d"/>
          <path d="M117.63,94.5a5.68,5.68,0,0,1,.82-3.37A2.85,2.85,0,0,1,120.9,90a2.77,2.77,0,0,1,2.59,1.51l.06-1.33h1V100a3.62,3.62,0,0,1-.87,2.62,3.3,3.3,0,0,1-2.5.9,3.92,3.92,0,0,1-1.67-.39,3.41,3.41,0,0,1-1.28-.94l.48-.7a3.19,3.19,0,0,0,2.39,1.11,2.36,2.36,0,0,0,1.83-.63,2.79,2.79,0,0,0,.58-1.92V98.51a3.13,3.13,0,0,1-5,.25,5.45,5.45,0,0,1-.86-3.23Zm1,.89a4.85,4.85,0,0,0,.59,2.69,2,2,0,0,0,1.84.86,2.4,2.4,0,0,0,2.36-1.5V92.58A2.39,2.39,0,0,0,121.12,91a2.08,2.08,0,0,0-1.85.86,4.75,4.75,0,0,0-.6,2.63Z" transform="translate(0 0)" fill="#4d4d4d"/>
        </g>
        <path d="M57.08,135.69H50.55v-.91h6.53Zm-1-6.12-5.48-2.37v-1l6.62,3V130l-6.62,3v-1Zm9.08,2h1.74v.91H65.15v3.22h-1v-3.22H58.8v-.62l5.23-9h1.12Zm-5.12,0h4.09v-7.19l-.38.71Zm15.49-1.22a7.82,7.82,0,0,1-.89,4.13,3.15,3.15,0,0,1-5.23,0,7.61,7.61,0,0,1-.92-4v-2.25a7.72,7.72,0,0,1,.89-4.08,2.88,2.88,0,0,1,2.62-1.4,2.94,2.94,0,0,1,2.61,1.35,7.47,7.47,0,0,1,.92,4Zm-1-2.28a7.07,7.07,0,0,0-.62-3.32,2.12,2.12,0,0,0-3.7,0,6.56,6.56,0,0,0-.65,3.17v2.59a7.12,7.12,0,0,0,.63,3.32A2,2,0,0,0,72,135a2,2,0,0,0,1.82-1.11,7,7,0,0,0,.65-3.26Zm5.62,2.87-1,1.11v3.65H78V122.2h1v8.58l.86-1L83,126.19h1.28l-3.53,4,3.87,5.5H83.42Zm5.62-.44a5.68,5.68,0,0,1,.82-3.37A2.85,2.85,0,0,1,89,126a2.77,2.77,0,0,1,2.59,1.51l.06-1.33h1V136a3.66,3.66,0,0,1-.86,2.62,3.32,3.32,0,0,1-2.51.9,4,4,0,0,1-1.67-.39,3.41,3.41,0,0,1-1.28-.94l.48-.7a3.19,3.19,0,0,0,2.39,1.11,2.36,2.36,0,0,0,1.83-.63,2.79,2.79,0,0,0,.58-1.92v-1.51a3.13,3.13,0,0,1-5,.25,5.45,5.45,0,0,1-.86-3.23Zm1,.89a4.85,4.85,0,0,0,.59,2.69,2,2,0,0,0,1.84.86,2.4,2.4,0,0,0,2.36-1.5v-4.86A2.39,2.39,0,0,0,89.21,127a2.08,2.08,0,0,0-1.85.86,4.75,4.75,0,0,0-.6,2.63Z" transform="translate(0 0)" fill="#4d4d4d"/>
        <g>
          <path d="M308.62,27.7V14.9h3.59A5.11,5.11,0,0,1,316,16.32a5.41,5.41,0,0,1,1.44,3.91V22.3a5.42,5.42,0,0,1-1.42,4,5.16,5.16,0,0,1-3.88,1.44Zm2.74-10.65v8.5h.82a2.33,2.33,0,0,0,1.92-.68,3.9,3.9,0,0,0,.59-2.35V20.3a4.35,4.35,0,0,0-.53-2.5,2.24,2.24,0,0,0-1.81-.75Z" transform="translate(0 0)" fill="#fff"/>
          <path d="M319,22.64a5,5,0,0,1,1.08-3.4,4.26,4.26,0,0,1,6,0,5,5,0,0,1,1.08,3.41v.61A5,5,0,0,1,326,26.65a4.31,4.31,0,0,1-6,0A5,5,0,0,1,319,23.24Zm2.64.62q0,2.55,1.44,2.55t1.44-2.13v-1a3.86,3.86,0,0,0-.38-1.93,1.21,1.21,0,0,0-1.08-.63,1.17,1.17,0,0,0-1,.63,3.86,3.86,0,0,0-.38,1.93Z" transform="translate(0 0)" fill="#fff"/>
          <path d="M333.2,25.15a.77.77,0,0,0-.33-.59,6.68,6.68,0,0,0-1.42-.72,6.05,6.05,0,0,1-2.24-1.29,2.36,2.36,0,0,1-.61-1.66,2.59,2.59,0,0,1,.95-2.06,3.74,3.74,0,0,1,2.53-.82,4.07,4.07,0,0,1,2.65.81,2.66,2.66,0,0,1,1,2.17h-2.64c0-.77-.34-1.16-1-1.16a1,1,0,0,0-.69.25.87.87,0,0,0-.27.68.71.71,0,0,0,.3.56,7,7,0,0,0,1.4.69,5.9,5.9,0,0,1,2.28,1.25,2.49,2.49,0,0,1,.66,1.79,2.44,2.44,0,0,1-1,2.05,4.24,4.24,0,0,1-2.66.77,4.44,4.44,0,0,1-1.95-.4,3.31,3.31,0,0,1-1.33-1.14,2.82,2.82,0,0,1-.48-1.58h2.5a1.51,1.51,0,0,0,.32,1,1.31,1.31,0,0,0,1,.32C332.84,26.05,333.2,25.75,333.2,25.15Z" transform="translate(0 0)" fill="#fff"/>
          <path d="M342.17,27.7A3.38,3.38,0,0,1,342,27a2.29,2.29,0,0,1-1.92.91,2.89,2.89,0,0,1-2.09-.79,2.68,2.68,0,0,1-.84-2,2.83,2.83,0,0,1,1-2.31,4.62,4.62,0,0,1,2.91-.83h.8v-.77a1.39,1.39,0,0,0-.23-.9.85.85,0,0,0-.68-.27c-.66,0-1,.37-1,1.09h-2.63a2.69,2.69,0,0,1,1-2.17A4,4,0,0,1,341,18a3.69,3.69,0,0,1,2.57.82,3,3,0,0,1,.9,2.32v4.47a4.51,4.51,0,0,0,.38,1.93v.15Zm-1.55-1.78a1.53,1.53,0,0,0,.74-.16,1.32,1.32,0,0,0,.46-.4v-2h-.63a1.4,1.4,0,0,0-1.06.41,1.49,1.49,0,0,0-.38,1.08Q339.75,25.92,340.62,25.92Z" transform="translate(0 0)" fill="#fff"/>
          <path d="M346,22.65a5.62,5.62,0,0,1,.9-3.49,3,3,0,0,1,2.5-1.15,2.46,2.46,0,0,1,2.11,1l.1-.84H354V27.7A3.53,3.53,0,0,1,353,30.48a4.53,4.53,0,0,1-3.1,1,5.33,5.33,0,0,1-1.74-.31,3.2,3.2,0,0,1-1.36-.8l.89-1.72a2.62,2.62,0,0,0,1,.6,3,3,0,0,0,1.13.24,1.74,1.74,0,0,0,1.27-.4,1.81,1.81,0,0,0,.39-1.29v-.82a2.39,2.39,0,0,1-2,.93,2.92,2.92,0,0,1-2.49-1.18,5.68,5.68,0,0,1-.9-3.33Zm2.64.63A3.88,3.88,0,0,0,349,25.2a1.25,1.25,0,0,0,1.15.6,1.39,1.39,0,0,0,1.2-.55V20.7a1.33,1.33,0,0,0-1.18-.6,1.27,1.27,0,0,0-1.16.6,3.88,3.88,0,0,0-.37,1.95Z" transform="translate(0 0)" fill="#fff"/>
          <path d="M360,27.87a4.25,4.25,0,0,1-3.16-1.14,4.43,4.43,0,0,1-1.14-3.27v-.75a5.26,5.26,0,0,1,1-3.48,3.73,3.73,0,0,1,3-1.22,3.5,3.5,0,0,1,2.86,1.15,5.21,5.21,0,0,1,1,3.39v1.22h-5.23a2.46,2.46,0,0,0,.49,1.55,1.7,1.7,0,0,0,1.35.49,3.07,3.07,0,0,0,2.2-.85l1,1.5a3.48,3.48,0,0,1-1.41,1A5.06,5.06,0,0,1,360,27.87ZM358.35,22H361v-.23a2.55,2.55,0,0,0-.3-1.29,1,1,0,0,0-1-.44,1.11,1.11,0,0,0-1,.46A3.08,3.08,0,0,0,358.35,22Z" transform="translate(0 0)" fill="#fff"/>
        </g>
        <g>
          <path d="M191.7,56.72h1a2.59,2.59,0,0,0,1.84-.68,2.37,2.37,0,0,0,.7-1.8,2.8,2.8,0,0,0-.6-1.92,2.21,2.21,0,0,0-1.72-.68,2.25,2.25,0,0,0-1.74.72,2.74,2.74,0,0,0-.67,1.9h-1a3.87,3.87,0,0,1,.43-1.81,3.13,3.13,0,0,1,1.24-1.26,3.44,3.44,0,0,1,1.77-.46,3.26,3.26,0,0,1,2.44.93,3.6,3.6,0,0,1,.91,2.62,3,3,0,0,1-.52,1.72,3.1,3.1,0,0,1-1.41,1.14,2.9,2.9,0,0,1,1.58,1.11,3.37,3.37,0,0,1,.56,2,3.63,3.63,0,0,1-1,2.66,3.41,3.41,0,0,1-2.56,1,3.93,3.93,0,0,1-1.86-.45,3.21,3.21,0,0,1-1.31-1.27,3.88,3.88,0,0,1-.46-1.91h1a2.73,2.73,0,0,0,.72,1.95A2.45,2.45,0,0,0,193,63a2.39,2.39,0,0,0,1.84-.7,2.8,2.8,0,0,0,.66-2,2.57,2.57,0,0,0-.71-1.94,2.94,2.94,0,0,0-2.05-.68h-1Z" transform="translate(0 0)" fill="#4d4d4d"/>
          <path d="M199,63.06a.76.76,0,0,1,.21-.54.78.78,0,0,1,.58-.21.82.82,0,0,1,.59.21.76.76,0,0,1,.21.54.69.69,0,0,1-.21.51.86.86,0,0,1-.59.2.82.82,0,0,1-.58-.2A.69.69,0,0,1,199,63.06Z" transform="translate(0 0)" fill="#4d4d4d"/>
          <path d="M210.62,63.7h-7.18v-.84l3.85-4.9a12.54,12.54,0,0,0,1.35-2.08,3.94,3.94,0,0,0,.38-1.62,2.81,2.81,0,0,0-.61-1.91,2.12,2.12,0,0,0-1.69-.71,2.23,2.23,0,0,0-1.82.82,3.26,3.26,0,0,0-.68,2.13h-1a4,4,0,0,1,1-2.77,3.65,3.65,0,0,1,5-.18,3.41,3.41,0,0,1,.9,2.52,6.51,6.51,0,0,1-1.47,3.6l-.59.8-3.32,4.22h5.93Z" transform="translate(0 0)" fill="#4d4d4d"/>
          <path d="M218.07,54.19l0,1.42a3,3,0,0,1,2.7-1.6,2.39,2.39,0,0,1,2.51,1.75,3.32,3.32,0,0,1,1.23-1.31,3.16,3.16,0,0,1,1.63-.44q2.72,0,2.78,3.31V63.7h-1V57.38a3.1,3.1,0,0,0-.49-1.83,1.79,1.79,0,0,0-1.52-.61,2.25,2.25,0,0,0-1.62.71,2.79,2.79,0,0,0-.76,1.72V63.7h-1V57.41a2.89,2.89,0,0,0-.49-1.86,1.84,1.84,0,0,0-1.52-.61,2.12,2.12,0,0,0-1.46.56,3.13,3.13,0,0,0-.9,1.58V63.7h-1V54.19Z" transform="translate(0 0)" fill="#4d4d4d"/>
          <path d="M231.28,58.5a5.75,5.75,0,0,1,.82-3.37A2.88,2.88,0,0,1,234.56,54a2.78,2.78,0,0,1,2.59,1.51l0-1.33h1V64a3.71,3.71,0,0,1-.87,2.62,3.31,3.31,0,0,1-2.51.9,4,4,0,0,1-1.67-.39,3.5,3.5,0,0,1-1.28-.94l.49-.7a3.17,3.17,0,0,0,2.39,1.11,2.36,2.36,0,0,0,1.83-.63,2.84,2.84,0,0,0,.58-1.92V62.51a3.13,3.13,0,0,1-5,.25,5.45,5.45,0,0,1-.87-3.23Zm1.05.89a4.86,4.86,0,0,0,.58,2.69,2.07,2.07,0,0,0,1.85.86,2.41,2.41,0,0,0,2.36-1.5V56.58A2.41,2.41,0,0,0,234.77,55a2.09,2.09,0,0,0-1.85.86,4.67,4.67,0,0,0-.59,2.63Z" transform="translate(0 0)" fill="#4d4d4d"/>
          <path d="M245.08,58.53a15.17,15.17,0,0,1,.49-3.83,13.23,13.23,0,0,1,1.33-3.29,6.3,6.3,0,0,1,1.77-2.06l.25.73A5.92,5.92,0,0,0,247.5,52a13,13,0,0,0-1,3,17.8,17.8,0,0,0-.36,3.7,16.69,16.69,0,0,0,.36,3.5,13,13,0,0,0,1,3,6,6,0,0,0,1.42,1.95l-.25.7a5.64,5.64,0,0,1-1.28-1.3,10.41,10.41,0,0,1-1.17-2.08,14.72,14.72,0,0,1-.83-2.65A16.07,16.07,0,0,1,245.08,58.53Z" transform="translate(0 0)" fill="#4d4d4d"/>
          <path d="M252.68,56.72h1a2.59,2.59,0,0,0,1.84-.68,2.37,2.37,0,0,0,.7-1.8,2.8,2.8,0,0,0-.6-1.92,2.21,2.21,0,0,0-1.72-.68,2.25,2.25,0,0,0-1.74.72,2.69,2.69,0,0,0-.67,1.9h-1a3.75,3.75,0,0,1,.43-1.81,3.13,3.13,0,0,1,1.24-1.26,3.44,3.44,0,0,1,1.77-.46,3.26,3.26,0,0,1,2.44.93,3.6,3.6,0,0,1,.91,2.62,3,3,0,0,1-.52,1.72,3.1,3.1,0,0,1-1.41,1.14,2.9,2.9,0,0,1,1.58,1.11,3.37,3.37,0,0,1,.56,2,3.67,3.67,0,0,1-1,2.66,3.43,3.43,0,0,1-2.56,1,3.88,3.88,0,0,1-1.86-.45,3.21,3.21,0,0,1-1.31-1.27,3.88,3.88,0,0,1-.46-1.91h1a2.74,2.74,0,0,0,.73,1.95,2.45,2.45,0,0,0,1.87.77,2.39,2.39,0,0,0,1.84-.7,2.8,2.8,0,0,0,.65-2,2.56,2.56,0,0,0-.7-1.94,2.94,2.94,0,0,0-2-.68h-1Z" transform="translate(0 0)" fill="#4d4d4d"/>
          <path d="M260,63.06a.76.76,0,0,1,.21-.54.78.78,0,0,1,.58-.21.82.82,0,0,1,.59.21.76.76,0,0,1,.21.54.69.69,0,0,1-.21.51.86.86,0,0,1-.59.2.82.82,0,0,1-.58-.2A.69.69,0,0,1,260,63.06Z" transform="translate(0 0)" fill="#4d4d4d"/>
          <path d="M271.6,63.7h-7.18v-.84l3.85-4.9a12.54,12.54,0,0,0,1.35-2.08,3.94,3.94,0,0,0,.38-1.62,2.81,2.81,0,0,0-.61-1.91,2.12,2.12,0,0,0-1.69-.71,2.23,2.23,0,0,0-1.82.82,3.26,3.26,0,0,0-.68,2.13h-1a4,4,0,0,1,1-2.77,3.65,3.65,0,0,1,5-.18,3.41,3.41,0,0,1,.9,2.52,6.51,6.51,0,0,1-1.47,3.6l-.59.8-3.32,4.22h5.93Z" transform="translate(0 0)" fill="#4d4d4d"/>
          <path d="M279.05,54.19l0,1.42a3,3,0,0,1,2.7-1.6,2.39,2.39,0,0,1,2.51,1.75,3.3,3.3,0,0,1,1.22-1.31,3.22,3.22,0,0,1,1.64-.44q2.72,0,2.78,3.31V63.7h-1V57.38a3.1,3.1,0,0,0-.49-1.83,1.79,1.79,0,0,0-1.52-.61,2.25,2.25,0,0,0-1.62.71,2.79,2.79,0,0,0-.76,1.72V63.7h-1V57.41a2.89,2.89,0,0,0-.49-1.86,1.84,1.84,0,0,0-1.52-.61,2.12,2.12,0,0,0-1.46.56,3.13,3.13,0,0,0-.9,1.58V63.7h-1V54.19Z" transform="translate(0 0)" fill="#4d4d4d"/>
          <path d="M293.92,62.77h5.58v.93h-6.65V50.9h1.07Z" transform="translate(0 0)" fill="#4d4d4d"/>
          <path d="M305.35,58.46a4.93,4.93,0,0,1,1-3.25,3.64,3.64,0,0,1,5.38,0,4.9,4.9,0,0,1,1,3.24v1a4.87,4.87,0,0,1-1,3.26,3.32,3.32,0,0,1-2.67,1.17,3.36,3.36,0,0,1-2.67-1.14,4.82,4.82,0,0,1-1-3.15Zm1,1a4.23,4.23,0,0,0,.7,2.58,2.53,2.53,0,0,0,3.9,0,4.29,4.29,0,0,0,.68-2.59v-1a4.17,4.17,0,0,0-.71-2.59,2.46,2.46,0,0,0-3.85,0,4.14,4.14,0,0,0-.72,2.54Z" transform="translate(0 0)" fill="#4d4d4d"/>
          <path d="M319,55.1a4.12,4.12,0,0,0-.65-.06,2.05,2.05,0,0,0-1.44.55,3.08,3.08,0,0,0-.82,1.54V63.7h-1V54.19h1l0,1.42a2.43,2.43,0,0,1,2.31-1.6,1.28,1.28,0,0,1,.62.12Z" transform="translate(0 0)" fill="#4d4d4d"/>
          <path d="M325.82,63.7a5.49,5.49,0,0,1-.19-1.32,3.29,3.29,0,0,1-2.78,1.49,2.82,2.82,0,0,1-2-.69,2.62,2.62,0,0,1-.73-2,2.69,2.69,0,0,1,1-2.21,4.35,4.35,0,0,1,2.79-.83h1.73V56.83a1.82,1.82,0,0,0-.53-1.46,2.39,2.39,0,0,0-1.57-.44,2.35,2.35,0,0,0-1.58.52,1.76,1.76,0,0,0-.61,1.37h-1a2.53,2.53,0,0,1,.93-2,3.38,3.38,0,0,1,2.33-.82,3.29,3.29,0,0,1,2.3.72,2.72,2.72,0,0,1,.78,2.1V61.5a6.09,6.09,0,0,0,.27,2.09v.11ZM323,62.93a3,3,0,0,0,1.61-.44,2.67,2.67,0,0,0,1-1.2V59H324a3.44,3.44,0,0,0-2.13.59,1.88,1.88,0,0,0-.71,1.55A1.61,1.61,0,0,0,323,62.93Z" transform="translate(0 0)" fill="#4d4d4d"/>
          <path d="M330.62,63.7h-1.05V50.2h1.05Z" transform="translate(0 0)" fill="#4d4d4d"/>
          <path d="M342.79,61.35a1.39,1.39,0,0,0-.54-1.07,7.52,7.52,0,0,0-1.83-1,10.26,10.26,0,0,1-1.8-.91,2.48,2.48,0,0,1-.76-.8,2,2,0,0,1-.24-1,2.28,2.28,0,0,1,.84-1.81,3.21,3.21,0,0,1,2.17-.72,3.34,3.34,0,0,1,2.29.77,2.57,2.57,0,0,1,.85,2h-1a1.73,1.73,0,0,0-.59-1.34,2.15,2.15,0,0,0-1.52-.53,2.18,2.18,0,0,0-1.45.44,1.38,1.38,0,0,0-.53,1.14,1.18,1.18,0,0,0,.4.93,8.55,8.55,0,0,0,1.77,1,10.82,10.82,0,0,1,1.94.95,3,3,0,0,1,.8.84,2.16,2.16,0,0,1,.27,1.1,2.27,2.27,0,0,1-.87,1.87,3.52,3.52,0,0,1-2.28.69,3.62,3.62,0,0,1-2.42-.77,2.48,2.48,0,0,1-.93-2h1.05a1.82,1.82,0,0,0,.62,1.36,2.53,2.53,0,0,0,1.68.49,2.48,2.48,0,0,0,1.53-.44A1.4,1.4,0,0,0,342.79,61.35Z" transform="translate(0 0)" fill="#4d4d4d"/>
          <path d="M345.87,58.46a4.93,4.93,0,0,1,1-3.25,3.64,3.64,0,0,1,5.38,0,5,5,0,0,1,1,3.24v1a4.82,4.82,0,0,1-1,3.26,3.32,3.32,0,0,1-2.67,1.17,3.36,3.36,0,0,1-2.67-1.14,4.76,4.76,0,0,1-1-3.15Zm1,1a4.23,4.23,0,0,0,.7,2.58,2.53,2.53,0,0,0,3.9,0,4.29,4.29,0,0,0,.68-2.59v-1a4.24,4.24,0,0,0-.7-2.59,2.31,2.31,0,0,0-1.95-.94,2.28,2.28,0,0,0-1.91.92,4.14,4.14,0,0,0-.72,2.54Z" transform="translate(0 0)" fill="#4d4d4d"/>
          <path d="M356.76,63.7h-1V50.2h1Z" transform="translate(0 0)" fill="#4d4d4d"/>
          <path d="M365,62.56a2.92,2.92,0,0,1-2.65,1.31A2.46,2.46,0,0,1,360.3,63a4.28,4.28,0,0,1-.71-2.64V54.19h1v6.12a3.24,3.24,0,0,0,.49,2,1.59,1.59,0,0,0,1.39.67A2.38,2.38,0,0,0,365,61.15v-7h1V63.7h-1Z" transform="translate(0 0)" fill="#4d4d4d"/>
          <path d="M370.34,51.76v2.43h1.73v.88h-1.73v6.32a2.2,2.2,0,0,0,.25,1.16.9.9,0,0,0,.83.38,5.7,5.7,0,0,0,.74-.08l0,.87a2.74,2.74,0,0,1-1,.15c-1.21,0-1.83-.78-1.86-2.35V55.07h-1.55v-.88h1.55V51.76Z" transform="translate(0 0)" fill="#4d4d4d"/>
          <path d="M374.28,51.45a.76.76,0,0,1,.18-.51.61.61,0,0,1,.5-.21.64.64,0,0,1,.51.21.76.76,0,0,1,.18.51.73.73,0,0,1-.18.5.64.64,0,0,1-.51.21.61.61,0,0,1-.5-.21A.73.73,0,0,1,374.28,51.45Zm1.19,12.25h-1V54.19h1Z" transform="translate(0 0)" fill="#4d4d4d"/>
          <path d="M377.94,58.46a4.93,4.93,0,0,1,1-3.25,3.64,3.64,0,0,1,5.38,0,5,5,0,0,1,1,3.24v1a4.82,4.82,0,0,1-1,3.26,3.32,3.32,0,0,1-2.67,1.17A3.36,3.36,0,0,1,379,62.73a4.76,4.76,0,0,1-1-3.15Zm1,1a4.23,4.23,0,0,0,.7,2.58,2.53,2.53,0,0,0,3.9,0,4.29,4.29,0,0,0,.68-2.59v-1a4.24,4.24,0,0,0-.7-2.59,2.47,2.47,0,0,0-3.86,0,4.14,4.14,0,0,0-.72,2.54Z" transform="translate(0 0)" fill="#4d4d4d"/>
          <path d="M388.66,54.19l0,1.51a3.56,3.56,0,0,1,1.14-1.23,2.76,2.76,0,0,1,1.58-.46q2.63,0,2.7,3.32V63.7h-1V57.43a3.07,3.07,0,0,0-.47-1.88,1.74,1.74,0,0,0-1.46-.61,2.16,2.16,0,0,0-1.46.58,3.53,3.53,0,0,0-1,1.58v6.6h-1V54.19Z" transform="translate(0 0)" fill="#4d4d4d"/>
          <path d="M399.76,58.66a15.19,15.19,0,0,1-.47,3.79A12.23,12.23,0,0,1,398,65.72a6.38,6.38,0,0,1-1.82,2.11l-.23-.7a6.35,6.35,0,0,0,1.63-2.39,17,17,0,0,0,.79-9.71,13.07,13.07,0,0,0-1-3,5.94,5.94,0,0,0-1.4-2l.23-.69a6.54,6.54,0,0,1,1.92,2.32A14.18,14.18,0,0,1,399.76,58.66Z" transform="translate(0 0)" fill="#4d4d4d"/>
          <path d="M408.33,51.76v2.43h1.72v.88h-1.72v6.32a2.2,2.2,0,0,0,.25,1.16.89.89,0,0,0,.82.38,5.64,5.64,0,0,0,.75-.08l0,.87a2.74,2.74,0,0,1-1,.15c-1.21,0-1.83-.78-1.86-2.35V55.07h-1.55v-.88h1.55V51.76Z" transform="translate(0 0)" fill="#4d4d4d"/>
          <path d="M414.43,61.54l.08.52.11-.57,2.06-7.3h.86l2,7.24.15.75.12-.67,1.74-7.32h1.06l-2.46,9.51h-.87l-2.18-7.56-.05-.23,0,.24L414.9,63.7H414l-2.45-9.51h1.05Z" transform="translate(0 0)" fill="#4d4d4d"/>
          <path d="M424.7,51.45a.76.76,0,0,1,.18-.51.6.6,0,0,1,.5-.21.65.65,0,0,1,.51.21.76.76,0,0,1,.18.51.73.73,0,0,1-.18.5.65.65,0,0,1-.51.21.6.6,0,0,1-.5-.21A.73.73,0,0,1,424.7,51.45Zm1.19,12.25h-1V54.19h1Z" transform="translate(0 0)" fill="#4d4d4d"/>
          <path d="M431.93,63a2.23,2.23,0,0,0,1.65-.57,2.32,2.32,0,0,0,.63-1.64h1a3.14,3.14,0,0,1-1,2.29,3.24,3.24,0,0,1-2.29.83,3.35,3.35,0,0,1-2.71-1.08,5,5,0,0,1-.94-3.22V58.41a5.06,5.06,0,0,1,.92-3.29A3.33,3.33,0,0,1,431.92,54a3.14,3.14,0,0,1,2.36.89,3.6,3.6,0,0,1,.92,2.5h-1a2.8,2.8,0,0,0-.63-1.83,2.15,2.15,0,0,0-1.66-.64,2.29,2.29,0,0,0-2,.85,4.4,4.4,0,0,0-.63,2.61v1.08a4.35,4.35,0,0,0,.64,2.66A2.33,2.33,0,0,0,431.93,63Z" transform="translate(0 0)" fill="#4d4d4d"/>
          <path d="M440.71,63.87a3.59,3.59,0,0,1-2.78-1.09,4.55,4.55,0,0,1-1-3.13V58.49a5.11,5.11,0,0,1,1-3.29A3.27,3.27,0,0,1,440.53,54a3.1,3.1,0,0,1,2.5,1,4.74,4.74,0,0,1,.88,3.1V59h-6v.54a3.84,3.84,0,0,0,.74,2.52,2.57,2.57,0,0,0,2.09.89,3.11,3.11,0,0,0,2.41-1l.54.65A3.56,3.56,0,0,1,440.71,63.87Zm-.18-8.94a2.27,2.27,0,0,0-1.87.81,3.94,3.94,0,0,0-.72,2.38h4.94v-.26C442.83,55.91,442.05,54.93,440.53,54.93Z" transform="translate(0 0)" fill="#4d4d4d"/>
          <path d="M450,58.5a5.68,5.68,0,0,1,.82-3.36A2.88,2.88,0,0,1,453.3,54a2.79,2.79,0,0,1,2.56,1.45V50.2h1V63.7h-1l0-1.22a3.12,3.12,0,0,1-5,.25,5.46,5.46,0,0,1-.85-3.24Zm1.05.89a4.86,4.86,0,0,0,.58,2.69,2.06,2.06,0,0,0,1.85.86,2.47,2.47,0,0,0,2.36-1.47V56.54A2.41,2.41,0,0,0,453.51,55a2.08,2.08,0,0,0-1.85.86,4.67,4.67,0,0,0-.59,2.63Z" transform="translate(0 0)" fill="#4d4d4d"/>
          <path d="M465,63.7a5.49,5.49,0,0,1-.19-1.32A3.29,3.29,0,0,1,462,63.87a2.82,2.82,0,0,1-2-.69,2.58,2.58,0,0,1-.73-2,2.69,2.69,0,0,1,1-2.21,4.35,4.35,0,0,1,2.79-.83h1.73V56.83a1.79,1.79,0,0,0-.54-1.46,2.81,2.81,0,0,0-3.14.08,1.73,1.73,0,0,0-.61,1.37h-1a2.53,2.53,0,0,1,.93-2,3.38,3.38,0,0,1,2.33-.82,3.29,3.29,0,0,1,2.3.72,2.72,2.72,0,0,1,.78,2.1V61.5a6.09,6.09,0,0,0,.27,2.09v.11Zm-2.84-.77a3,3,0,0,0,1.61-.44,2.67,2.67,0,0,0,1-1.2V59h-1.64a3.44,3.44,0,0,0-2.13.59,1.89,1.89,0,0,0-.72,1.55A1.62,1.62,0,0,0,462.17,62.93Z" transform="translate(0 0)" fill="#4d4d4d"/>
          <path d="M468.61,51.45a.76.76,0,0,1,.18-.51.63.63,0,0,1,.5-.21.64.64,0,0,1,.51.21.76.76,0,0,1,.18.51.73.73,0,0,1-.18.5.64.64,0,0,1-.51.21.63.63,0,0,1-.5-.21A.73.73,0,0,1,468.61,51.45ZM469.8,63.7h-1V54.19h1Z" transform="translate(0 0)" fill="#4d4d4d"/>
          <path d="M473.82,63.7h-1.05V50.2h1.05Z" transform="translate(0 0)" fill="#4d4d4d"/>
          <path d="M479.35,62.09l2.4-7.9h1.11l-3.55,11-.19.53a2.37,2.37,0,0,1-2.2,1.79,2.54,2.54,0,0,1-.74-.12v-.9a1.73,1.73,0,0,0,.47.06,1.6,1.6,0,0,0,1.1-.38,2.75,2.75,0,0,0,.71-1.22l.43-1.34-3.17-9.45h1.14Z" transform="translate(0 0)" fill="#4d4d4d"/>
        </g>
        <g>
          <path d="M209.24,95.57H211v.91h-1.74V99.7h-1V96.48h-5.32v-.62l5.24-9h1.11Zm-5.11,0h4.08V88.38l-.37.71Z" transform="translate(0 0)" fill="#4d4d4d"/>
          <path d="M218.07,90.19l0,1.42a3,3,0,0,1,2.7-1.6,2.4,2.4,0,0,1,2.51,1.75,3.3,3.3,0,0,1,1.22-1.31,3.22,3.22,0,0,1,1.64-.44q2.72,0,2.78,3.31V99.7h-1V93.38a3.1,3.1,0,0,0-.49-1.83,1.79,1.79,0,0,0-1.52-.61,2.25,2.25,0,0,0-1.62.71,2.79,2.79,0,0,0-.76,1.72V99.7h-1V93.41a2.89,2.89,0,0,0-.49-1.86,1.84,1.84,0,0,0-1.52-.61,2.12,2.12,0,0,0-1.46.56,3.06,3.06,0,0,0-.9,1.58V99.7h-1V90.19Z" transform="translate(0 0)" fill="#4d4d4d"/>
          <path d="M231.28,94.5a5.75,5.75,0,0,1,.82-3.37A2.88,2.88,0,0,1,234.56,90a2.78,2.78,0,0,1,2.59,1.51l0-1.33h1V100a3.71,3.71,0,0,1-.87,2.62,3.31,3.31,0,0,1-2.51.9,4,4,0,0,1-1.67-.39,3.41,3.41,0,0,1-1.28-.94l.49-.7a3.17,3.17,0,0,0,2.39,1.11,2.37,2.37,0,0,0,1.83-.63,2.84,2.84,0,0,0,.58-1.92V98.51a3.14,3.14,0,0,1-5,.25,5.52,5.52,0,0,1-.86-3.23Zm1.05.89a4.86,4.86,0,0,0,.58,2.69,2.06,2.06,0,0,0,1.84.86,2.41,2.41,0,0,0,2.37-1.5V92.58A2.41,2.41,0,0,0,234.77,91a2.09,2.09,0,0,0-1.85.86,4.67,4.67,0,0,0-.59,2.63Z" transform="translate(0 0)" fill="#4d4d4d"/>
          <path d="M245.08,94.53a14.73,14.73,0,0,1,.49-3.83,13.23,13.23,0,0,1,1.33-3.29,6.3,6.3,0,0,1,1.77-2.06l.25.73A5.92,5.92,0,0,0,247.5,88a13,13,0,0,0-1,3,17.77,17.77,0,0,0-.37,3.7,16.68,16.68,0,0,0,.37,3.5,13,13,0,0,0,1,3,5.89,5.89,0,0,0,1.42,1.95l-.25.7a5.64,5.64,0,0,1-1.28-1.3,10.41,10.41,0,0,1-1.17-2.08,14.72,14.72,0,0,1-.83-2.65A16.07,16.07,0,0,1,245.08,94.53Z" transform="translate(0 0)" fill="#4d4d4d"/>
          <path d="M256.4,95.57h1.74v.91H256.4V99.7h-1V96.48h-5.32v-.62l5.24-9h1.11Zm-5.11,0h4.08V88.38l-.37.71Z" transform="translate(0 0)" fill="#4d4d4d"/>
          <path d="M265.23,90.19l0,1.42A3,3,0,0,1,268,90a2.39,2.39,0,0,1,2.51,1.75,3.32,3.32,0,0,1,1.23-1.31,3.19,3.19,0,0,1,1.63-.44q2.71,0,2.78,3.31V99.7h-1V93.38a3,3,0,0,0-.49-1.83,1.77,1.77,0,0,0-1.52-.61,2.25,2.25,0,0,0-1.62.71,2.72,2.72,0,0,0-.75,1.72V99.7h-1.05V93.41a3,3,0,0,0-.48-1.86,1.87,1.87,0,0,0-1.53-.61,2.12,2.12,0,0,0-1.46.56,3.2,3.2,0,0,0-.9,1.58V99.7h-1V90.19Z" transform="translate(0 0)" fill="#4d4d4d"/>
          <path d="M280.1,98.77h5.58v.93H279V86.9h1.07Z" transform="translate(0 0)" fill="#4d4d4d"/>
          <path d="M291.54,94.46a5,5,0,0,1,1-3.25,3.31,3.31,0,0,1,2.69-1.2,3.36,3.36,0,0,1,2.7,1.18,5,5,0,0,1,1,3.24v1a4.87,4.87,0,0,1-1,3.26,3.68,3.68,0,0,1-5.35,0,4.76,4.76,0,0,1-1-3.15Zm1,1a4.23,4.23,0,0,0,.7,2.58,2.53,2.53,0,0,0,3.9,0,4.29,4.29,0,0,0,.68-2.59v-1a4.24,4.24,0,0,0-.7-2.59,2.47,2.47,0,0,0-3.86,0,4.14,4.14,0,0,0-.72,2.54Z" transform="translate(0 0)" fill="#4d4d4d"/>
          <path d="M305.22,91.1a4,4,0,0,0-.65-.06,2,2,0,0,0-1.43.55,3.1,3.1,0,0,0-.83,1.54V99.7h-1V90.19h1l0,1.42a2.43,2.43,0,0,1,2.31-1.6,1.28,1.28,0,0,1,.62.12Z" transform="translate(0 0)" fill="#4d4d4d"/>
          <path d="M312,99.7a5.49,5.49,0,0,1-.19-1.32,3.3,3.3,0,0,1-1.19,1.1,3.34,3.34,0,0,1-1.59.39,2.84,2.84,0,0,1-2-.69,2.61,2.61,0,0,1-.72-2,2.67,2.67,0,0,1,1-2.21,4.32,4.32,0,0,1,2.78-.83h1.73V92.83a1.82,1.82,0,0,0-.53-1.46,2.39,2.39,0,0,0-1.57-.44,2.32,2.32,0,0,0-1.57.52,1.74,1.74,0,0,0-.62,1.37h-1a2.53,2.53,0,0,1,.93-2,3.39,3.39,0,0,1,2.34-.82,3.26,3.26,0,0,1,2.29.72,2.69,2.69,0,0,1,.79,2.1V97.5a6.09,6.09,0,0,0,.27,2.09v.11Zm-2.84-.77a3,3,0,0,0,1.61-.44,2.61,2.61,0,0,0,1-1.2V95h-1.63a3.45,3.45,0,0,0-2.14.59,1.91,1.91,0,0,0-.71,1.55A1.61,1.61,0,0,0,309.16,98.93Z" transform="translate(0 0)" fill="#4d4d4d"/>
          <path d="M316.8,99.7h-1V86.2h1Z" transform="translate(0 0)" fill="#4d4d4d"/>
          <path d="M329,97.35a1.39,1.39,0,0,0-.54-1.07,7.52,7.52,0,0,0-1.83-1,10.26,10.26,0,0,1-1.8-.91,2.44,2.44,0,0,1-.75-.8,2,2,0,0,1-.25-1,2.28,2.28,0,0,1,.84-1.81,3.21,3.21,0,0,1,2.17-.72,3.32,3.32,0,0,1,2.29.77,2.57,2.57,0,0,1,.85,2h-1a1.72,1.72,0,0,0-.58-1.34,2.54,2.54,0,0,0-3-.09,1.41,1.41,0,0,0-.53,1.14,1.16,1.16,0,0,0,.41.93,8,8,0,0,0,1.77,1,10.64,10.64,0,0,1,1.93,1,3,3,0,0,1,.8.84,2.16,2.16,0,0,1,.27,1.1,2.27,2.27,0,0,1-.87,1.87,3.51,3.51,0,0,1-2.27.69,3.65,3.65,0,0,1-2.43-.77,2.47,2.47,0,0,1-.92-2h1a1.8,1.8,0,0,0,.63,1.36,2.5,2.5,0,0,0,1.68.49,2.45,2.45,0,0,0,1.52-.44A1.38,1.38,0,0,0,329,97.35Z" transform="translate(0 0)" fill="#4d4d4d"/>
          <path d="M332.05,94.46a5,5,0,0,1,1-3.25,3.31,3.31,0,0,1,2.69-1.2,3.36,3.36,0,0,1,2.7,1.18,5,5,0,0,1,1,3.24v1a4.87,4.87,0,0,1-1,3.26,3.68,3.68,0,0,1-5.35,0,4.76,4.76,0,0,1-1-3.15Zm1,1a4.23,4.23,0,0,0,.7,2.58,2.53,2.53,0,0,0,3.9,0,4.36,4.36,0,0,0,.69-2.59v-1a4.24,4.24,0,0,0-.71-2.59,2.29,2.29,0,0,0-1.95-.94,2.25,2.25,0,0,0-1.9.92,4.08,4.08,0,0,0-.73,2.54Z" transform="translate(0 0)" fill="#4d4d4d"/>
          <path d="M342.94,99.7h-1V86.2h1Z" transform="translate(0 0)" fill="#4d4d4d"/>
          <path d="M351.2,98.56a2.94,2.94,0,0,1-2.66,1.31,2.46,2.46,0,0,1-2.06-.89,4.28,4.28,0,0,1-.71-2.64V90.19h1v6.12a3.31,3.31,0,0,0,.49,2,1.6,1.6,0,0,0,1.39.67,2.38,2.38,0,0,0,2.51-1.79v-7h1V99.7h-1Z" transform="translate(0 0)" fill="#4d4d4d"/>
          <path d="M356.53,87.76v2.43h1.72v.88h-1.72v6.32a2.21,2.21,0,0,0,.24,1.16.9.9,0,0,0,.83.38,5.7,5.7,0,0,0,.74-.08l0,.87a2.71,2.71,0,0,1-1,.15c-1.2,0-1.83-.78-1.86-2.35V91.07h-1.55v-.88h1.55V87.76Z" transform="translate(0 0)" fill="#4d4d4d"/>
          <path d="M360.46,87.45a.76.76,0,0,1,.18-.51.63.63,0,0,1,.5-.21.64.64,0,0,1,.51.21.76.76,0,0,1,.18.51.73.73,0,0,1-.18.5.64.64,0,0,1-.51.21.63.63,0,0,1-.5-.21A.73.73,0,0,1,360.46,87.45Zm1.19,12.25h-1V90.19h1Z" transform="translate(0 0)" fill="#4d4d4d"/>
          <path d="M364.12,94.46a4.93,4.93,0,0,1,1-3.25,3.27,3.27,0,0,1,2.68-1.2,3.34,3.34,0,0,1,2.7,1.18,5,5,0,0,1,1,3.24v1a4.87,4.87,0,0,1-1,3.26,3.68,3.68,0,0,1-5.35,0,4.81,4.81,0,0,1-1-3.15Zm1,1a4.29,4.29,0,0,0,.7,2.58,2.53,2.53,0,0,0,3.9,0,4.36,4.36,0,0,0,.69-2.59v-1a4.24,4.24,0,0,0-.71-2.59,2.29,2.29,0,0,0-1.95-.94,2.25,2.25,0,0,0-1.9.92,4.15,4.15,0,0,0-.73,2.54Z" transform="translate(0 0)" fill="#4d4d4d"/>
          <path d="M374.85,90.19l0,1.51A3.44,3.44,0,0,1,376,90.47a2.79,2.79,0,0,1,1.58-.46q2.64,0,2.7,3.32V99.7h-1V93.43a3.14,3.14,0,0,0-.48-1.88,1.74,1.74,0,0,0-1.46-.61,2.14,2.14,0,0,0-1.45.58,3.54,3.54,0,0,0-1,1.58v6.6h-1V90.19Z" transform="translate(0 0)" fill="#4d4d4d"/>
          <path d="M385.94,94.66a15.67,15.67,0,0,1-.46,3.79,12.92,12.92,0,0,1-1.31,3.27,6.5,6.5,0,0,1-1.82,2.11l-.24-.7a6.35,6.35,0,0,0,1.63-2.39,15.51,15.51,0,0,0,1.16-6.24,16.4,16.4,0,0,0-.36-3.47,13.56,13.56,0,0,0-1-3,5.81,5.81,0,0,0-1.4-2l.24-.69a6.63,6.63,0,0,1,1.91,2.32A14.18,14.18,0,0,1,385.94,94.66Z" transform="translate(0 0)" fill="#4d4d4d"/>
          <path d="M394.52,87.76v2.43h1.72v.88h-1.72v6.32a2.21,2.21,0,0,0,.24,1.16.9.9,0,0,0,.83.38,5.7,5.7,0,0,0,.74-.08l0,.87a2.74,2.74,0,0,1-1,.15c-1.2,0-1.83-.78-1.86-2.35V91.07h-1.55v-.88h1.55V87.76Z" transform="translate(0 0)" fill="#4d4d4d"/>
          <path d="M400.61,97.54l.08.52.11-.57,2.06-7.3h.87l2,7.24.15.75.12-.67,1.74-7.32h1.07l-2.47,9.51h-.87l-2.18-7.56-.05-.23,0,.24-2.15,7.55h-.87l-2.45-9.51h1.05Z" transform="translate(0 0)" fill="#4d4d4d"/>
          <path d="M410.88,87.45a.76.76,0,0,1,.18-.51.61.61,0,0,1,.5-.21.64.64,0,0,1,.51.21.76.76,0,0,1,.18.51.73.73,0,0,1-.18.5.64.64,0,0,1-.51.21.61.61,0,0,1-.5-.21A.73.73,0,0,1,410.88,87.45Zm1.19,12.25h-1V90.19h1Z" transform="translate(0 0)" fill="#4d4d4d"/>
          <path d="M418.11,99a2.28,2.28,0,0,0,1.66-.57,2.36,2.36,0,0,0,.62-1.64h1a3.15,3.15,0,0,1-1,2.29,3.24,3.24,0,0,1-2.29.83,3.35,3.35,0,0,1-2.71-1.08,5,5,0,0,1-.94-3.22V94.41a5.06,5.06,0,0,1,.92-3.29A3.33,3.33,0,0,1,418.1,90a3.17,3.17,0,0,1,2.37.89,3.69,3.69,0,0,1,.92,2.5h-1a2.8,2.8,0,0,0-.63-1.83,2.13,2.13,0,0,0-1.66-.64,2.29,2.29,0,0,0-2,.85,4.48,4.48,0,0,0-.62,2.61v1.08a4.43,4.43,0,0,0,.63,2.66A2.33,2.33,0,0,0,418.11,99Z" transform="translate(0 0)" fill="#4d4d4d"/>
          <path d="M426.89,99.87a3.59,3.59,0,0,1-2.78-1.09,4.55,4.55,0,0,1-1-3.13V94.49a5.06,5.06,0,0,1,1-3.29A3.24,3.24,0,0,1,426.72,90a3.13,3.13,0,0,1,2.5,1,4.8,4.8,0,0,1,.87,3.1V95h-6v.54a3.84,3.84,0,0,0,.74,2.52,2.57,2.57,0,0,0,2.09.89,3.1,3.1,0,0,0,2.41-1l.54.65A3.56,3.56,0,0,1,426.89,99.87Zm-.17-8.94a2.28,2.28,0,0,0-1.88.81,4.08,4.08,0,0,0-.72,2.38h4.94v-.26C429,91.91,428.23,90.93,426.72,90.93Z" transform="translate(0 0)" fill="#4d4d4d"/>
          <path d="M436.2,94.5a5.61,5.61,0,0,1,.83-3.36A2.85,2.85,0,0,1,439.48,90,2.78,2.78,0,0,1,442,91.46V86.2h1V99.7h-1l-.05-1.22a3.12,3.12,0,0,1-5,.25,5.46,5.46,0,0,1-.85-3.24Zm1.05.89a4.86,4.86,0,0,0,.58,2.69,2.06,2.06,0,0,0,1.85.86A2.47,2.47,0,0,0,442,97.47V92.54A2.4,2.4,0,0,0,439.69,91a2.08,2.08,0,0,0-1.85.86,4.76,4.76,0,0,0-.59,2.63Z" transform="translate(0 0)" fill="#4d4d4d"/>
          <path d="M451.19,99.7a5.49,5.49,0,0,1-.19-1.32,3.3,3.3,0,0,1-1.19,1.1,3.34,3.34,0,0,1-1.59.39,2.84,2.84,0,0,1-2-.69,2.61,2.61,0,0,1-.72-2,2.69,2.69,0,0,1,1-2.21,4.37,4.37,0,0,1,2.79-.83H451V92.83a1.82,1.82,0,0,0-.53-1.46,2.39,2.39,0,0,0-1.57-.44,2.32,2.32,0,0,0-1.57.52,1.74,1.74,0,0,0-.62,1.37h-1a2.53,2.53,0,0,1,.93-2,3.39,3.39,0,0,1,2.34-.82,3.26,3.26,0,0,1,2.29.72,2.69,2.69,0,0,1,.79,2.1V97.5a6.09,6.09,0,0,0,.27,2.09v.11Zm-2.84-.77a3,3,0,0,0,1.61-.44,2.67,2.67,0,0,0,1-1.2V95h-1.64a3.44,3.44,0,0,0-2.13.59,1.91,1.91,0,0,0-.71,1.55A1.61,1.61,0,0,0,448.35,98.93Z" transform="translate(0 0)" fill="#4d4d4d"/>
          <path d="M454.8,87.45a.8.8,0,0,1,.17-.51.64.64,0,0,1,.51-.21.63.63,0,0,1,.5.21.76.76,0,0,1,.18.51.73.73,0,0,1-.18.5.63.63,0,0,1-.5.21A.64.64,0,0,1,455,88,.78.78,0,0,1,454.8,87.45ZM456,99.7h-1V90.19h1Z" transform="translate(0 0)" fill="#4d4d4d"/>
          <path d="M460,99.7h-1V86.2h1Z" transform="translate(0 0)" fill="#4d4d4d"/>
          <path d="M465.53,98.09l2.4-7.9H469l-3.54,11-.2.53a2.37,2.37,0,0,1-2.19,1.79,2.55,2.55,0,0,1-.75-.12v-.9a1.8,1.8,0,0,0,.48.06,1.63,1.63,0,0,0,1.1-.38,2.75,2.75,0,0,0,.7-1.22l.43-1.34-3.16-9.45H463Z" transform="translate(0 0)" fill="#4d4d4d"/>
        </g>
        <g>
          <path d="M210.24,129.14l.56-6.24h5.72v1h-4.83l-.39,4.29a3.34,3.34,0,0,1,2.1-.7,3,3,0,0,1,2.46,1.13,4.67,4.67,0,0,1,.91,3,4.88,4.88,0,0,1-.9,3.13,3,3,0,0,1-2.54,1.12,3.25,3.25,0,0,1-2.43-.94,4,4,0,0,1-1.05-2.6h1a3.23,3.23,0,0,0,.77,2,2.26,2.26,0,0,0,1.72.67,2,2,0,0,0,1.79-.87,4.22,4.22,0,0,0,.61-2.46,3.56,3.56,0,0,0-.68-2.28,2.21,2.21,0,0,0-1.85-.88,3.07,3.07,0,0,0-1.15.2,3,3,0,0,0-1,.72Z" transform="translate(0 0)" fill="#4d4d4d"/>
          <path d="M224.25,126.19l0,1.42A3,3,0,0,1,227,126a2.38,2.38,0,0,1,2.51,1.75,3.32,3.32,0,0,1,1.23-1.31,3.19,3.19,0,0,1,1.63-.44q2.72,0,2.78,3.31v6.38h-1v-6.32a3,3,0,0,0-.48-1.83,1.79,1.79,0,0,0-1.53-.61,2.25,2.25,0,0,0-1.62.71,2.72,2.72,0,0,0-.75,1.72v6.33h-1v-6.29a3,3,0,0,0-.49-1.86,1.87,1.87,0,0,0-1.52-.61,2.12,2.12,0,0,0-1.47.56,3.2,3.2,0,0,0-.9,1.58v6.62h-1v-9.51Z" transform="translate(0 0)" fill="#4d4d4d"/>
          <path d="M237.46,130.5a5.68,5.68,0,0,1,.82-3.37,2.85,2.85,0,0,1,2.45-1.12,2.77,2.77,0,0,1,2.59,1.51l.06-1.33h1V136a3.62,3.62,0,0,1-.87,2.62,3.3,3.3,0,0,1-2.5.9,3.92,3.92,0,0,1-1.67-.39,3.33,3.33,0,0,1-1.28-.94l.48-.7a3.19,3.19,0,0,0,2.39,1.11,2.36,2.36,0,0,0,1.83-.63,2.79,2.79,0,0,0,.58-1.92v-1.51a3.13,3.13,0,0,1-5,.25,5.45,5.45,0,0,1-.86-3.23Zm1,.89a4.85,4.85,0,0,0,.59,2.69,2,2,0,0,0,1.84.86,2.41,2.41,0,0,0,2.36-1.5v-4.86A2.39,2.39,0,0,0,241,127a2.11,2.11,0,0,0-1.86.86,4.76,4.76,0,0,0-.59,2.63Z" transform="translate(0 0)" fill="#4d4d4d"/>
          <path d="M251.26,130.53a15.17,15.17,0,0,1,.48-3.83,13.23,13.23,0,0,1,1.33-3.29,6.44,6.44,0,0,1,1.78-2.06l.24.73a5.76,5.76,0,0,0-1.41,1.92,12.55,12.55,0,0,0-1,3,17.12,17.12,0,0,0-.37,3.7,16.69,16.69,0,0,0,.36,3.5,12.58,12.58,0,0,0,1,3,5.88,5.88,0,0,0,1.41,1.95l-.24.7a5.87,5.87,0,0,1-1.29-1.3,9.93,9.93,0,0,1-1.16-2.08,14,14,0,0,1-.83-2.65A15.39,15.39,0,0,1,251.26,130.53Z" transform="translate(0 0)" fill="#4d4d4d"/>
          <path d="M256.52,130.46a4.93,4.93,0,0,1,1-3.25,3.64,3.64,0,0,1,5.38,0,5,5,0,0,1,1,3.24v1a4.87,4.87,0,0,1-1,3.26,3.66,3.66,0,0,1-5.34,0,4.82,4.82,0,0,1-1-3.15Zm1,1a4.23,4.23,0,0,0,.71,2.58,2.52,2.52,0,0,0,3.89,0,4.36,4.36,0,0,0,.69-2.59v-1a4.24,4.24,0,0,0-.71-2.59,2.46,2.46,0,0,0-3.85,0,4.21,4.21,0,0,0-.73,2.54Z" transform="translate(0 0)" fill="#4d4d4d"/>
          <path d="M267.25,126.19l0,1.51a3.38,3.38,0,0,1,1.14-1.23A2.73,2.73,0,0,1,270,126q2.64,0,2.7,3.32v6.37h-1v-6.27a3.14,3.14,0,0,0-.48-1.88,1.73,1.73,0,0,0-1.46-.61,2.14,2.14,0,0,0-1.45.58,3.53,3.53,0,0,0-1,1.58v6.6h-1v-9.51Z" transform="translate(0 0)" fill="#4d4d4d"/>
          <path d="M278.76,135.87a3.57,3.57,0,0,1-2.78-1.09,4.6,4.6,0,0,1-1-3.13v-1.16a5.12,5.12,0,0,1,1-3.29,3.26,3.26,0,0,1,2.66-1.19,3.11,3.11,0,0,1,2.5,1,4.79,4.79,0,0,1,.88,3.1V131h-6v.54a3.79,3.79,0,0,0,.74,2.52,2.56,2.56,0,0,0,2.08.89,3.12,3.12,0,0,0,2.42-1l.53.65A3.53,3.53,0,0,1,278.76,135.87Zm-.18-8.94a2.26,2.26,0,0,0-1.87.81,3.94,3.94,0,0,0-.72,2.38h4.94v-.26C280.88,127.91,280.09,126.93,278.58,126.93Z" transform="translate(0 0)" fill="#4d4d4d"/>
          <path d="M288.93,129.14l.56-6.24h5.72v1h-4.84l-.38,4.29a3.31,3.31,0,0,1,2.09-.7,3,3,0,0,1,2.46,1.13,4.61,4.61,0,0,1,.91,3,4.94,4.94,0,0,1-.89,3.13,3.07,3.07,0,0,1-2.54,1.12,3.25,3.25,0,0,1-2.43-.94,4,4,0,0,1-1-2.6h1a3.24,3.24,0,0,0,.78,2A2.24,2.24,0,0,0,292,135a2.06,2.06,0,0,0,1.79-.87,4.3,4.3,0,0,0,.61-2.46,3.56,3.56,0,0,0-.69-2.28,2.19,2.19,0,0,0-1.84-.88,3.13,3.13,0,0,0-1.16.2,2.89,2.89,0,0,0-1,.72Z" transform="translate(0 0)" fill="#4d4d4d"/>
          <path d="M302.93,126.19l0,1.42a3,3,0,0,1,2.7-1.6,2.4,2.4,0,0,1,2.51,1.75,3.3,3.3,0,0,1,1.22-1.31A3.22,3.22,0,0,1,311,126c1.81,0,2.73,1.1,2.78,3.31v6.38h-1v-6.32a3,3,0,0,0-.48-1.83,1.79,1.79,0,0,0-1.53-.61,2.24,2.24,0,0,0-1.61.71,2.73,2.73,0,0,0-.76,1.72v6.33h-1v-6.29a2.89,2.89,0,0,0-.49-1.86,1.84,1.84,0,0,0-1.52-.61,2.12,2.12,0,0,0-1.46.56,3.06,3.06,0,0,0-.9,1.58v6.62h-1v-9.51Z" transform="translate(0 0)" fill="#4d4d4d"/>
          <path d="M316.14,130.5a5.75,5.75,0,0,1,.82-3.37,2.88,2.88,0,0,1,2.46-1.12,2.76,2.76,0,0,1,2.58,1.51l.06-1.33h1V136a3.71,3.71,0,0,1-.87,2.62,3.32,3.32,0,0,1-2.51.9,4,4,0,0,1-1.67-.39,3.41,3.41,0,0,1-1.28-.94l.49-.7a3.16,3.16,0,0,0,2.39,1.11,2.35,2.35,0,0,0,1.82-.63A2.79,2.79,0,0,0,322,136v-1.51a3.14,3.14,0,0,1-5,.25,5.52,5.52,0,0,1-.86-3.23Zm1,.89a4.85,4.85,0,0,0,.59,2.69,2.06,2.06,0,0,0,1.84.86,2.41,2.41,0,0,0,2.37-1.5v-4.86a2.41,2.41,0,0,0-2.35-1.63,2.09,2.09,0,0,0-1.85.86,4.75,4.75,0,0,0-.6,2.63Z" transform="translate(0 0)" fill="#4d4d4d"/>
          <path d="M331.61,123.76v2.43h1.72v.88h-1.72v6.32a2.21,2.21,0,0,0,.24,1.16.9.9,0,0,0,.83.38,5.7,5.7,0,0,0,.74-.08l0,.87a2.74,2.74,0,0,1-1,.15c-1.21,0-1.83-.78-1.86-2.35v-6.45H329v-.88h1.55v-2.43Z" transform="translate(0 0)" fill="#4d4d4d"/>
          <path d="M340.9,135.7a6.73,6.73,0,0,1-.19-1.32,3.22,3.22,0,0,1-1.19,1.1,3.34,3.34,0,0,1-1.59.39,2.84,2.84,0,0,1-2-.69,2.61,2.61,0,0,1-.72-2,2.67,2.67,0,0,1,1-2.21,4.32,4.32,0,0,1,2.78-.83h1.74v-1.33a1.79,1.79,0,0,0-.54-1.46,2.39,2.39,0,0,0-1.57-.44,2.32,2.32,0,0,0-1.57.52,1.73,1.73,0,0,0-.61,1.37h-1a2.53,2.53,0,0,1,.93-2,3.39,3.39,0,0,1,2.34-.82,3.29,3.29,0,0,1,2.3.72,2.72,2.72,0,0,1,.78,2.1v4.67a6.09,6.09,0,0,0,.27,2.09v.11Zm-2.84-.77a3,3,0,0,0,1.62-.44,2.73,2.73,0,0,0,1-1.2V131h-1.64a3.4,3.4,0,0,0-2.13.59,1.89,1.89,0,0,0-.72,1.55A1.61,1.61,0,0,0,338.06,134.93Z" transform="translate(0 0)" fill="#4d4d4d"/>
          <path d="M351.42,131.39a5.74,5.74,0,0,1-.81,3.34,2.78,2.78,0,0,1-2.42,1.14,2.85,2.85,0,0,1-2.64-1.45l0,1.28h-1V122.2h1v5.32a2.79,2.79,0,0,1,2.6-1.51,2.82,2.82,0,0,1,2.43,1.09,5.51,5.51,0,0,1,.82,3.24Zm-1-.89a5,5,0,0,0-.57-2.68A2,2,0,0,0,348,127a2.4,2.4,0,0,0-2.39,1.72v4.71a2.48,2.48,0,0,0,.93,1.15,2.55,2.55,0,0,0,1.48.41,2,2,0,0,0,1.82-.85,4.69,4.69,0,0,0,.59-2.64Z" transform="translate(0 0)" fill="#4d4d4d"/>
          <path d="M355,135.7h-1V122.2h1Z" transform="translate(0 0)" fill="#4d4d4d"/>
          <path d="M361.15,135.87a3.59,3.59,0,0,1-2.79-1.09,4.55,4.55,0,0,1-1-3.13v-1.16a5.06,5.06,0,0,1,1-3.29A3.24,3.24,0,0,1,361,126a3.13,3.13,0,0,1,2.5,1,4.85,4.85,0,0,1,.88,3.1V131h-6v.54a3.84,3.84,0,0,0,.74,2.52,2.59,2.59,0,0,0,2.09.89,3.1,3.1,0,0,0,2.41-1l.54.65A3.54,3.54,0,0,1,361.15,135.87Zm-.18-8.94a2.29,2.29,0,0,0-1.88.81,4.08,4.08,0,0,0-.72,2.38h4.94v-.26C363.26,127.91,362.48,126.93,361,126.93Z" transform="translate(0 0)" fill="#4d4d4d"/>
          <path d="M368.1,123.76v2.43h1.72v.88H368.1v6.32a2.21,2.21,0,0,0,.24,1.16.9.9,0,0,0,.83.38,5.7,5.7,0,0,0,.74-.08l0,.87a2.68,2.68,0,0,1-1,.15c-1.21,0-1.84-.78-1.87-2.35v-6.45h-1.55v-.88h1.55v-2.43Z" transform="translate(0 0)" fill="#4d4d4d"/>
          <path d="M376,130.46a5,5,0,0,1,1-3.25,3.31,3.31,0,0,1,2.69-1.2,3.36,3.36,0,0,1,2.7,1.18,5,5,0,0,1,1,3.24v1a4.87,4.87,0,0,1-1,3.26,3.68,3.68,0,0,1-5.35,0,4.76,4.76,0,0,1-1-3.15Zm1,1a4.23,4.23,0,0,0,.7,2.58,2.53,2.53,0,0,0,3.9,0,4.36,4.36,0,0,0,.69-2.59v-1a4.24,4.24,0,0,0-.71-2.59,2.29,2.29,0,0,0-1.95-.94,2.25,2.25,0,0,0-1.9.92,4.08,4.08,0,0,0-.73,2.54Z" transform="translate(0 0)" fill="#4d4d4d"/>
          <path d="M389.64,127.1A4,4,0,0,0,389,127a2,2,0,0,0-1.43.55,3.1,3.1,0,0,0-.83,1.54v6.57h-1v-9.51h1l0,1.42A2.43,2.43,0,0,1,389,126a1.28,1.28,0,0,1,.62.12Z" transform="translate(0 0)" fill="#4d4d4d"/>
          <path d="M396.23,129.14l.56-6.24h5.72v1h-4.84l-.38,4.29a3.34,3.34,0,0,1,2.1-.7,3,3,0,0,1,2.46,1.13,4.66,4.66,0,0,1,.9,3,4.88,4.88,0,0,1-.89,3.13,3.05,3.05,0,0,1-2.54,1.12,3.25,3.25,0,0,1-2.43-.94,4,4,0,0,1-1.05-2.6h1a3.17,3.17,0,0,0,.77,2,2.26,2.26,0,0,0,1.72.67,2,2,0,0,0,1.79-.87,4.22,4.22,0,0,0,.61-2.46,3.62,3.62,0,0,0-.68-2.28,2.21,2.21,0,0,0-1.85-.88,3,3,0,0,0-1.15.2,2.92,2.92,0,0,0-1,.72Z" transform="translate(0 0)" fill="#4d4d4d"/>
          <path d="M410.23,126.19l0,1.42A3,3,0,0,1,413,126a2.39,2.39,0,0,1,2.51,1.75,3.32,3.32,0,0,1,1.23-1.31,3.19,3.19,0,0,1,1.63-.44q2.71,0,2.78,3.31v6.38h-1v-6.32a3,3,0,0,0-.49-1.83,1.77,1.77,0,0,0-1.52-.61,2.25,2.25,0,0,0-1.62.71,2.72,2.72,0,0,0-.75,1.72v6.33h-1.05v-6.29a3,3,0,0,0-.48-1.86,1.87,1.87,0,0,0-1.53-.61,2.12,2.12,0,0,0-1.46.56,3.2,3.2,0,0,0-.9,1.58v6.62h-1v-9.51Z" transform="translate(0 0)" fill="#4d4d4d"/>
          <path d="M425.1,134.77h5.59v.93H424V122.9h1.07Z" transform="translate(0 0)" fill="#4d4d4d"/>
          <path d="M436.54,130.46a5,5,0,0,1,1-3.25,3.31,3.31,0,0,1,2.69-1.2,3.36,3.36,0,0,1,2.7,1.18,5,5,0,0,1,1,3.24v1a4.87,4.87,0,0,1-1,3.26,3.68,3.68,0,0,1-5.35,0,4.76,4.76,0,0,1-1-3.15Zm1,1a4.23,4.23,0,0,0,.7,2.58,2.53,2.53,0,0,0,3.9,0,4.29,4.29,0,0,0,.68-2.59v-1a4.24,4.24,0,0,0-.7-2.59,2.47,2.47,0,0,0-3.86,0,4.14,4.14,0,0,0-.72,2.54Z" transform="translate(0 0)" fill="#4d4d4d"/>
          <path d="M450.22,127.1a4,4,0,0,0-.65-.06,2,2,0,0,0-1.43.55,3.1,3.1,0,0,0-.83,1.54v6.57h-1v-9.51h1l0,1.42a2.43,2.43,0,0,1,2.31-1.6,1.28,1.28,0,0,1,.62.12Z" transform="translate(0 0)" fill="#4d4d4d"/>
          <path d="M457,135.7a5.49,5.49,0,0,1-.19-1.32,3.3,3.3,0,0,1-1.19,1.1,3.34,3.34,0,0,1-1.59.39,2.84,2.84,0,0,1-2-.69,2.61,2.61,0,0,1-.72-2,2.67,2.67,0,0,1,1-2.21,4.32,4.32,0,0,1,2.78-.83h1.73v-1.33a1.82,1.82,0,0,0-.53-1.46,2.39,2.39,0,0,0-1.57-.44,2.32,2.32,0,0,0-1.57.52,1.74,1.74,0,0,0-.62,1.37h-1a2.53,2.53,0,0,1,.93-2,3.39,3.39,0,0,1,2.34-.82,3.26,3.26,0,0,1,2.29.72,2.69,2.69,0,0,1,.79,2.1v4.67a6.09,6.09,0,0,0,.27,2.09v.11Zm-2.84-.77a3,3,0,0,0,1.61-.44,2.61,2.61,0,0,0,1-1.2V131h-1.63a3.45,3.45,0,0,0-2.14.59,1.91,1.91,0,0,0-.71,1.55A1.61,1.61,0,0,0,454.16,134.93Z" transform="translate(0 0)" fill="#4d4d4d"/>
          <path d="M461.8,135.7h-1V122.2h1Z" transform="translate(0 0)" fill="#4d4d4d"/>
        </g>
        <g>
          <path d="M260.71,155a1.39,1.39,0,0,0-.54-1.07,7.52,7.52,0,0,0-1.83-1,10.26,10.26,0,0,1-1.8-.91,2.48,2.48,0,0,1-.76-.8,2,2,0,0,1-.24-1,2.28,2.28,0,0,1,.84-1.81,3.21,3.21,0,0,1,2.17-.72,3.34,3.34,0,0,1,2.29.77,2.57,2.57,0,0,1,.85,2h-1a1.73,1.73,0,0,0-.59-1.34,2.15,2.15,0,0,0-1.52-.53,2.18,2.18,0,0,0-1.45.44,1.38,1.38,0,0,0-.53,1.14,1.18,1.18,0,0,0,.4.93,8.55,8.55,0,0,0,1.77,1,10.82,10.82,0,0,1,1.94.95,3,3,0,0,1,.8.84,2.16,2.16,0,0,1,.27,1.1,2.27,2.27,0,0,1-.87,1.87,3.52,3.52,0,0,1-2.28.69,3.62,3.62,0,0,1-2.42-.77,2.48,2.48,0,0,1-.93-2h1.05a1.82,1.82,0,0,0,.62,1.36,2.53,2.53,0,0,0,1.68.49,2.48,2.48,0,0,0,1.53-.44A1.4,1.4,0,0,0,260.71,155Z" transform="translate(0 0)" fill="#4d4d4d"/>
          <path d="M263.79,152.06a4.93,4.93,0,0,1,1-3.25,3.64,3.64,0,0,1,5.38,0,4.9,4.9,0,0,1,1,3.24v1a4.87,4.87,0,0,1-1,3.26,3.32,3.32,0,0,1-2.67,1.17,3.36,3.36,0,0,1-2.67-1.14,4.76,4.76,0,0,1-1-3.15Zm1,1a4.23,4.23,0,0,0,.7,2.58,2.53,2.53,0,0,0,3.9,0,4.29,4.29,0,0,0,.68-2.59v-1a4.17,4.17,0,0,0-.71-2.59,2.46,2.46,0,0,0-3.85,0,4.14,4.14,0,0,0-.72,2.54Z" transform="translate(0 0)" fill="#4d4d4d"/>
          <path d="M274.68,157.3h-1V143.8h1Z" transform="translate(0 0)" fill="#4d4d4d"/>
          <path d="M282.93,156.16a2.92,2.92,0,0,1-2.65,1.31,2.43,2.43,0,0,1-2.06-.89,4.22,4.22,0,0,1-.71-2.64v-6.15h1v6.12a3.24,3.24,0,0,0,.49,2,1.59,1.59,0,0,0,1.39.67,2.36,2.36,0,0,0,2.5-1.79v-7h1v9.51h-1Z" transform="translate(0 0)" fill="#4d4d4d"/>
          <path d="M288.26,145.36v2.43H290v.88h-1.73V155a2.2,2.2,0,0,0,.25,1.16.9.9,0,0,0,.82.38,5.64,5.64,0,0,0,.75-.08l0,.87a2.74,2.74,0,0,1-1,.15c-1.21,0-1.83-.78-1.86-2.35v-6.45h-1.55v-.88h1.55v-2.43Z" transform="translate(0 0)" fill="#4d4d4d"/>
          <path d="M292.2,145.05a.76.76,0,0,1,.18-.51.61.61,0,0,1,.5-.21.64.64,0,0,1,.51.21.76.76,0,0,1,.18.51.73.73,0,0,1-.18.5.64.64,0,0,1-.51.21.61.61,0,0,1-.5-.21A.73.73,0,0,1,292.2,145.05Zm1.19,12.25h-1v-9.51h1Z" transform="translate(0 0)" fill="#4d4d4d"/>
          <path d="M295.86,152.06a4.93,4.93,0,0,1,1-3.25,3.64,3.64,0,0,1,5.38,0,5,5,0,0,1,1,3.24v1a4.82,4.82,0,0,1-1,3.26,3.32,3.32,0,0,1-2.67,1.17,3.36,3.36,0,0,1-2.67-1.14,4.76,4.76,0,0,1-1-3.15Zm1,1a4.23,4.23,0,0,0,.7,2.58,2.53,2.53,0,0,0,3.9,0,4.29,4.29,0,0,0,.68-2.59v-1a4.24,4.24,0,0,0-.7-2.59,2.47,2.47,0,0,0-3.86,0,4.14,4.14,0,0,0-.72,2.54Z" transform="translate(0 0)" fill="#4d4d4d"/>
          <path d="M306.58,147.79l0,1.51a3.56,3.56,0,0,1,1.14-1.23,2.76,2.76,0,0,1,1.58-.46q2.63,0,2.7,3.32v6.37h-1V151a3.07,3.07,0,0,0-.47-1.88,1.74,1.74,0,0,0-1.46-.61,2.16,2.16,0,0,0-1.46.58,3.53,3.53,0,0,0-1,1.58v6.6h-1v-9.51Z" transform="translate(0 0)" fill="#4d4d4d"/>
          <path d="M316.75,148.5l-3.09-.93.3-.91,3.09,1.08,0-3.24h1l-.07,3.27,3-1.12.31.92-3.1,1,2.08,2.57-.8.56-2-2.67-1.89,2.66-.8-.55Z" transform="translate(0 0)" fill="#4d4d4d"/>
          <path d="M324.84,148.5l-3.09-.93.3-.91,3.09,1.08,0-3.24h1l-.08,3.27,3-1.12.3.92-3.09,1,2.07,2.57-.79.56-2-2.67-1.9,2.66-.79-.55Z" transform="translate(0 0)" fill="#4d4d4d"/>
          <path d="M333.85,152.26a15.67,15.67,0,0,1-.46,3.79,12.58,12.58,0,0,1-1.32,3.27,6.27,6.27,0,0,1-1.82,2.11l-.23-.7a6.35,6.35,0,0,0,1.63-2.39,15.51,15.51,0,0,0,1.16-6.24,16.4,16.4,0,0,0-.36-3.47,13.56,13.56,0,0,0-1-3,5.94,5.94,0,0,0-1.4-2l.23-.69a6.54,6.54,0,0,1,1.92,2.32A14.18,14.18,0,0,1,333.85,152.26Z" transform="translate(0 0)" fill="#4d4d4d"/>
          <path d="M342.42,145.36v2.43h1.72v.88h-1.72V155a2.2,2.2,0,0,0,.25,1.16.89.89,0,0,0,.82.38,5.64,5.64,0,0,0,.75-.08l0,.87a2.74,2.74,0,0,1-1,.15c-1.21,0-1.83-.78-1.86-2.35v-6.45h-1.55v-.88h1.55v-2.43Z" transform="translate(0 0)" fill="#4d4d4d"/>
          <path d="M348.52,155.14l.08.52.11-.57,2.06-7.3h.87l2,7.24.15.75.12-.67,1.74-7.32h1.06l-2.46,9.51h-.87l-2.18-7.56-.05-.23,0,.24L349,157.3h-.87l-2.45-9.51h1.05Z" transform="translate(0 0)" fill="#4d4d4d"/>
          <path d="M358.79,145.05a.76.76,0,0,1,.18-.51.6.6,0,0,1,.5-.21.65.65,0,0,1,.51.21.76.76,0,0,1,.18.51.73.73,0,0,1-.18.5.65.65,0,0,1-.51.21.6.6,0,0,1-.5-.21A.73.73,0,0,1,358.79,145.05ZM360,157.3h-1v-9.51h1Z" transform="translate(0 0)" fill="#4d4d4d"/>
          <path d="M366,156.56a2.23,2.23,0,0,0,1.65-.57,2.32,2.32,0,0,0,.63-1.64h1a3.14,3.14,0,0,1-1,2.29,3.24,3.24,0,0,1-2.29.83,3.35,3.35,0,0,1-2.71-1.08,5,5,0,0,1-.94-3.22V152a5.06,5.06,0,0,1,.92-3.29,3.33,3.33,0,0,1,2.72-1.11,3.14,3.14,0,0,1,2.36.89,3.6,3.6,0,0,1,.92,2.5h-1a2.8,2.8,0,0,0-.63-1.83,2.15,2.15,0,0,0-1.66-.64,2.29,2.29,0,0,0-2,.85,4.4,4.4,0,0,0-.63,2.61v1.08a4.35,4.35,0,0,0,.64,2.66A2.33,2.33,0,0,0,366,156.56Z" transform="translate(0 0)" fill="#4d4d4d"/>
          <path d="M374.8,157.47a3.59,3.59,0,0,1-2.78-1.09,4.55,4.55,0,0,1-1-3.13v-1.16a5.11,5.11,0,0,1,1-3.29,3.27,3.27,0,0,1,2.66-1.19,3.1,3.1,0,0,1,2.5,1,4.74,4.74,0,0,1,.88,3.1v.91h-6v.54a3.84,3.84,0,0,0,.74,2.52,2.57,2.57,0,0,0,2.09.89,3.11,3.11,0,0,0,2.41-1l.54.65A3.56,3.56,0,0,1,374.8,157.47Zm-.18-8.94a2.27,2.27,0,0,0-1.87.81,3.94,3.94,0,0,0-.72,2.38H377v-.26C376.92,149.51,376.14,148.53,374.62,148.53Z" transform="translate(0 0)" fill="#4d4d4d"/>
          <path d="M384.11,152.1a5.68,5.68,0,0,1,.82-3.36,2.87,2.87,0,0,1,2.46-1.13,2.79,2.79,0,0,1,2.56,1.45V143.8h1v13.5h-1l0-1.22a3.12,3.12,0,0,1-5,.25,5.46,5.46,0,0,1-.85-3.24Zm1.05.89a4.86,4.86,0,0,0,.58,2.69,2.06,2.06,0,0,0,1.85.86,2.47,2.47,0,0,0,2.36-1.47v-4.93a2.41,2.41,0,0,0-2.36-1.59,2.07,2.07,0,0,0-1.84.86,4.67,4.67,0,0,0-.59,2.63Z" transform="translate(0 0)" fill="#4d4d4d"/>
          <path d="M399.09,157.3a6.15,6.15,0,0,1-.18-1.32,3.29,3.29,0,0,1-2.78,1.49,2.82,2.82,0,0,1-2-.69,2.58,2.58,0,0,1-.73-2,2.69,2.69,0,0,1,1-2.21,4.34,4.34,0,0,1,2.79-.83h1.73v-1.33a1.79,1.79,0,0,0-.54-1.46,2.81,2.81,0,0,0-3.14.08,1.73,1.73,0,0,0-.61,1.37h-1a2.53,2.53,0,0,1,.93-2,3.38,3.38,0,0,1,2.33-.82,3.29,3.29,0,0,1,2.3.72,2.72,2.72,0,0,1,.78,2.1v4.67a6.09,6.09,0,0,0,.27,2.09v.11Zm-2.83-.77a3,3,0,0,0,1.61-.44,2.67,2.67,0,0,0,1-1.2v-2.31h-1.64a3.44,3.44,0,0,0-2.13.59,1.89,1.89,0,0,0-.72,1.55A1.62,1.62,0,0,0,396.26,156.53Z" transform="translate(0 0)" fill="#4d4d4d"/>
          <path d="M402.7,145.05a.76.76,0,0,1,.18-.51.63.63,0,0,1,.5-.21.64.64,0,0,1,.51.21.76.76,0,0,1,.18.51.73.73,0,0,1-.18.5.64.64,0,0,1-.51.21.63.63,0,0,1-.5-.21A.73.73,0,0,1,402.7,145.05Zm1.19,12.25h-1v-9.51h1Z" transform="translate(0 0)" fill="#4d4d4d"/>
          <path d="M407.91,157.3h-1.05V143.8h1.05Z" transform="translate(0 0)" fill="#4d4d4d"/>
          <path d="M413.44,155.69l2.4-7.9H417l-3.55,11-.19.53a2.37,2.37,0,0,1-2.2,1.79,2.54,2.54,0,0,1-.74-.12v-.9a1.73,1.73,0,0,0,.47.06,1.6,1.6,0,0,0,1.1-.38,2.75,2.75,0,0,0,.71-1.22l.43-1.34-3.17-9.45h1.14Z" transform="translate(0 0)" fill="#4d4d4d"/>
        </g>
      </g>
    </g>
  </g>
</svg>
